<?xml version="1.0" encoding="UTF-8" standalone="no"?>
<svg
   xmlns:dc="http://purl.org/dc/elements/1.1/"
   xmlns:cc="http://creativecommons.org/ns#"
   xmlns:rdf="http://www.w3.org/1999/02/22-rdf-syntax-ns#"
   xmlns:svg="http://www.w3.org/2000/svg"
   xmlns="http://www.w3.org/2000/svg"
   xmlns:sodipodi="http://sodipodi.sourceforge.net/DTD/sodipodi-0.dtd"
   xmlns:inkscape="http://www.inkscape.org/namespaces/inkscape"
   viewBox="0 0 1402.44 575.84"
   version="1.1"
   id="svg38"
   sodipodi:docname="swapspace.svg"
   inkscape:version="0.92.4 (5da689c313, 2019-01-14)">
  <metadata
     id="metadata42">
    <rdf:RDF>
      <cc:Work
         rdf:about="">
        <dc:format>image/svg+xml</dc:format>
        <dc:type
           rdf:resource="http://purl.org/dc/dcmitype/StillImage" />
      </cc:Work>
    </rdf:RDF>
  </metadata>
  <sodipodi:namedview
     pagecolor="#ffffff"
     bordercolor="#666666"
     borderopacity="1"
     objecttolerance="10"
     gridtolerance="10"
     guidetolerance="10"
     inkscape:pageopacity="0"
     inkscape:pageshadow="2"
     inkscape:window-width="1449"
     inkscape:window-height="743"
     id="namedview40"
     showgrid="false"
     inkscape:zoom="0.35092149"
     inkscape:cx="996.9971"
     inkscape:cy="503.99674"
     inkscape:window-x="0"
     inkscape:window-y="0"
     inkscape:window-maximized="0"
     inkscape:current-layer="svg38" />
  <defs
     id="defs4">
    <style
       id="style2">.cls-1{fill:#fff;}.cls-2{fill:#fbff5c;}.cls-3{fill:#1c1d1c;}</style>
  </defs>
  <title
     id="title6">Asset 3logo</title>
  <g
     id="Layer_2"
     data-name="Layer 2">
    <path
       inkscape:connector-curvature="0"
       style="fill:#000000"
       id="path8"
       d="m 536.59,430.93 v 3.52 h -6 v -3.79 c 0,-22.44 -8.38,-41.36 -33,-41.36 -24.87,0 -33.25,18.65 -33.25,41.09 0,48.4 72.45,47 72.45,98.41 0,26.23 -10.81,47 -39.74,47 -28.66,0 -39.47,-20.81 -39.47,-47 v -9.19 h 5.68 v 9.46 c 0,23 8.92,41.1 33.79,41.1 24.87,0 33.79,-18.12 33.79,-41.1 0,-47.85 -72.45,-46.23 -72.45,-98.41 0,-27.57 11.62,-46.5 38.93,-46.77 28.73,0 39.27,21.11 39.27,47.04 z"
       class="cls-1" />
    <path
       inkscape:connector-curvature="0"
       style="fill:#000000"
       id="path10"
       d="m 595.25,385.24 c 29.2,0 39.21,19.2 39.21,45.69 v 18.93 c 0,30 -13.52,44.34 -43.53,44.34 h -27 v 80.29 h -5.95 V 385.24 Z m -4.32,103.28 c 26.49,0 37.58,-11.63 37.58,-38.39 v -19.47 c 0,-23.25 -7.84,-39.74 -33.26,-39.74 h -31.36 v 97.6 z"
       class="cls-1" />
    <path
       inkscape:connector-curvature="0"
       style="fill:#000000"
       id="path12"
       d="m 667.44,529.88 -11.09,44.61 h -5.41 L 696.63,385 H 705 l 46.77,189.52 h -5.95 l -11.09,-44.61 z m 1.08,-5.4 h 65.15 L 700.69,392 Z"
       class="cls-1" />
    <path
       inkscape:connector-curvature="0"
       style="fill:#000000"
       id="path14"
       d="m 851.54,431.74 v 14.6 h -5.94 v -14.87 c 0,-23 -8.65,-42.17 -33.53,-42.17 -25.14,0 -33.79,19.19 -33.79,42.17 v 96.79 c 0,23 8.65,41.91 33.79,41.91 24.88,0 33.53,-18.93 33.53,-41.91 v -20.82 h 5.94 V 528 c 0,26.23 -10.81,47.85 -39.74,47.85 -28.66,0 -39.47,-21.62 -39.47,-47.85 v -96.26 c 0,-26.22 10.81,-47.85 39.47,-47.85 28.93,0 39.74,21.63 39.74,47.85 z"
       class="cls-1" />
    <path
       inkscape:connector-curvature="0"
       style="fill:#000000"
       id="path16"
       d="m 934.27,475.81 v 5.41 h -55.7 v 87.59 h 66.24 v 5.68 H 872.63 V 385.24 h 72.18 v 5.68 h -66.24 v 84.89 z"
       class="cls-1" />
    <path
       style="fill:#333333"
       inkscape:connector-curvature="0"
       id="path18"
       d="m 315.36,133.85 38,-3.69 q 3.44,19.14 13.93,28.12 10.49,8.98 28.32,9 18.87,0 28.44,-8 9.57,-8 9.57,-18.68 a 17.66,17.66 0 0 0 -4,-11.69 q -4,-4.82 -14.06,-8.38 -6.87,-2.37 -31.29,-8.45 Q 352.86,104.3 340.18,92.94 322.36,77 322.36,54 a 49.78,49.78 0 0 1 8.38,-27.66 Q 339.12,13.47 354.9,6.74 370.68,0.01 393,0 q 36.43,0 54.85,16 18.42,16 19.34,42.64 l -39.09,1.69 q -2.5,-14.92 -10.76,-21.45 -8.26,-6.53 -24.75,-6.54 -17,0 -26.67,7 a 14.1,14.1 0 0 0 -6.2,12 q 0,6.87 5.81,11.75 7.38,6.21 35.9,12.94 28.52,6.73 42.18,13.97 A 54.35,54.35 0 0 1 465,109.63 q 7.72,12.48 7.73,30.83 a 57.08,57.08 0 0 1 -9.24,31.15 55.4,55.4 0 0 1 -26.14,21.58 q -16.9,7.06 -42.11,7.06 -36.71,0 -56.37,-17 -19.66,-17 -23.51,-49.4 z"
       class="cls-2" />
    <path
       style="fill:#333333"
       inkscape:connector-curvature="0"
       id="path20"
       d="M 533,196.82 486.84,3.3 h 40 L 556,136.23 591.39,3.3 h 46.47 L 671.78,138.47 701.48,3.3 h 39.34 l -47,193.52 H 652.38 L 613.83,52.14 575.42,196.82 Z"
       class="cls-2" />
    <path
       style="fill:#333333"
       inkscape:connector-curvature="0"
       id="path22"
       d="m 920.35,196.82 h -42.5 l -16.9,-44 h -77.36 l -16,44 H 726.17 L 801.55,3.3 h 41.31 z m -71.94,-76.56 -26.67,-71.81 -26.13,71.81 z"
       class="cls-2" />
    <path
       style="fill:#333333"
       inkscape:connector-curvature="0"
       id="path24"
       d="M 941.08,196.82 V 3.3 h 62.7 q 35.64,0 46.47,2.9 16.62,4.36 27.85,19 11.23,14.64 11.22,37.68 0,17.83 -6.47,30 a 53.06,53.06 0 0 1 -16.43,19.08 56.72,56.72 0 0 1 -20.27,9.17 q -14,2.78 -40.52,2.77 h -25.48 v 73 z M 980.15,36 v 55 h 21.39 q 23.09,0 30.88,-3 a 25.64,25.64 0 0 0 12.21,-9.51 26,26 0 0 0 4.43,-15 q 0,-10.56 -6.21,-17.42 a 27,27 0 0 0 -15.71,-8.58 Q 1020.15,36 999,36 Z"
       class="cls-2" />
    <path
       inkscape:connector-curvature="0"
       style="fill:#000000"
       id="path26"
       d="m 0,444 c 13.08,-7.54 26.54,-14.33 40.11,-20.92 13.57,-6.59 27.4,-12.61 41.28,-18.51 q 41.69,-17.62 84.55,-32.36 c 28.58,-9.76 57.49,-18.55 86.61,-26.57 q 21.84,-6 43.88,-11.29 c 14.69,-3.53 29.42,-6.93 44.2,-10 29.55,-6.3 59.28,-11.83 89.16,-16.38 14.93,-2.36 29.91,-4.4 44.89,-6.39 14.98,-1.99 30,-3.7 45,-5.21 30.07,-3.13 60.24,-5.28 90.43,-6.81 30.19,-1.53 60.42,-2.31 90.65,-2.38 a 1692.94,1692.94 0 0 1 181.09,10.1 q 45.08,5.1 89.82,12.44 l 11.18,1.86 11.17,2 c 3.72,0.64 7.43,1.33 11.15,2 3.72,0.67 7.43,1.36 11.13,2.1 14.84,2.88 29.62,6 44.38,9.21 29.49,6.56 58.85,13.69 87.94,21.81 29.09,8.12 58,16.89 86.58,26.51 28.58,9.62 56.88,20.19 84.84,31.51 14,5.67 27.87,11.53 41.63,17.68 13.76,6.15 27.41,12.6 40.77,19.6 l -0.4,0.8 c -13.5,-6.62 -27.29,-12.67 -41.14,-18.54 -13.85,-5.87 -27.83,-11.44 -41.88,-16.81 q -42.16,-16.12 -85.22,-29.77 A 1780.28,1780.28 0 0 0 1059.26,333.76 C 941.47,309.07 821.17,296.06 700.8,296.15 580.43,296.24 460,307.48 342,331.3 A 1592.77,1592.77 0 0 0 167.37,376.78 Q 124.43,390.67 82.46,407.38 61.56,415.78 41,425 c -13.7,6.21 -27.32,12.64 -40.53,19.8 z"
       class="cls-1" />
    <circle
       style="fill:#1c1d1c"
       id="circle28"
       r="81.010002"
       cy="295.03"
       cx="1099.38"
       class="cls-3" />
    <path
       style="fill:#ffffff"
       inkscape:connector-curvature="0"
       id="path30"
       d="m 1099.38,205 a 90,90 0 1 0 90,90 90.11,90.11 0 0 0 -90,-90 z m 0,171 a 81,81 0 1 1 81,-81 81.1,81.1 0 0 1 -81,81 z"
       class="cls-1" />
    <path
       style="fill:#ffffff"
       inkscape:connector-curvature="0"
       id="path32"
       d="m 1098.79,256 v 0 c -6.69,0 -12.92,-2.25 -16.66,-6 a 10.89,10.89 0 0 1 -3.45,-7.77 c 0,-7.54 9,-13.71 20.07,-13.74 h 0.09 c 6.65,0 12.85,2.23 16.6,6 a 11,11 0 0 1 3.5,7.83 c -0.02,7.6 -8.87,13.68 -20.15,13.68 z m 0,-6.56 h 0.12 c 6.53,0 12.07,-3.22 12.12,-7.07 a 5.23,5.23 0 0 0 -1.65,-3.67 c -2.22,-2.26 -6.1,-3.63 -10.39,-3.66 h -0.14 c -6.45,0 -12.13,3.31 -12.18,7.13 a 5.21,5.21 0 0 0 1.63,3.6 c 2.2,2.24 6.22,3.65 10.49,3.67 z"
       class="cls-1" />
    <path
       style="fill:#ffffff"
       inkscape:connector-curvature="0"
       id="path34"
       d="m 1140.24,266.84 v 0 a 10.72,10.72 0 0 1 -10.69,-10.71 10.75,10.75 0 0 1 10.66,-10.69 v 0 a 10.7,10.7 0 1 1 0,21.4 z m 0,-15.51 a 4.85,4.85 0 0 0 -4.8,4.75 4.82,4.82 0 0 0 4.78,4.87 v 0 a 4.78,4.78 0 0 0 4.78,-4.71 4.85,4.85 0 0 0 -4.76,-4.91 z"
       class="cls-1" />
  </g>
</svg>
