<svg viewBox="-12 -80 200 200" fill="none" xmlns="http://www.w3.org/2000/svg">
    <path d="M30.0432 26.082C30.9783 24.4569 30.3215 22.3419 28.0858 19.7962C26.8478 18.3873 24.9793 16.5444 23.7117 15.6288C23.6294 14.8385 23.5207 14.0664 23.3824 13.3191C23.7446 13.2278 24.098 13.1519 24.4426 13.0914C26.5564 12.7169 27.778 13.0254 28.048 13.4956C28.2307 13.8123 28.0908 14.4723 27.6644 15.3104C27.4488 15.7508 27.1801 16.163 26.8643 16.5378C27.5228 17.1285 28.1187 17.7439 28.5106 18.1563C28.9936 17.6175 29.4002 17.0146 29.7189 16.3646C30.542 14.7544 30.6556 13.4032 30.0482 12.349C29.4407 11.2947 27.8899 10.1498 24.0492 10.8278C23.6656 10.8955 23.2705 10.9813 22.8688 11.0803C21.9288 7.80043 20.3533 5.4808 18.1753 5.4808C16.911 5.4808 15.1215 6.29085 13.7748 10.1679C13.7616 10.2108 13.4308 11.2271 13.1739 12.3737C12.9171 13.5203 12.6685 14.7923 12.4463 16.1006C11.7499 16.5956 11.093 17.1153 10.4823 17.6383C8.67138 15.7608 7.91246 14.1737 8.29604 13.5022C8.52816 13.1013 9.25746 12.7647 10.3605 12.9247C10.7798 12.9829 11.1958 13.0633 11.6067 13.1656C11.7713 12.2962 11.9985 11.4663 12.1549 10.9268C11.6719 10.8059 11.1828 10.7112 10.6897 10.6431C8.75205 10.3642 7.06792 11.0176 6.30405 12.349C5.21587 14.2396 6.43246 16.7672 8.7965 19.2221C8.51005 19.5223 8.23842 19.821 7.98819 20.1212C5.48092 23.1156 5.68341 25.0179 6.30405 26.087C6.9856 27.2715 8.3981 27.877 10.2765 27.877C11.5458 27.877 13.0307 27.5998 14.6457 27.0339C15.4211 26.7634 17.2698 26.0144 18.1424 25.658C18.9935 26.0506 19.8347 26.3938 20.6562 26.6858C19.9384 29.1935 18.9457 30.6454 18.1753 30.6454C17.5662 30.6454 16.8286 29.7495 16.2541 28.3092C16.231 28.2498 16.1899 28.1344 16.1487 28.0057C15.3668 28.3142 14.5634 28.565 13.9658 28.7349C14.0168 28.89 14.0744 29.055 14.1172 29.1655C15.3668 32.3001 17.0147 32.9601 18.1753 32.9601C20.3533 32.9601 21.9288 30.6388 22.8688 27.3606C23.2705 27.4596 23.6656 27.5454 24.0492 27.613C24.752 27.7431 25.4648 27.8121 26.1794 27.8193C28.4925 27.8028 29.556 26.9184 30.0432 26.082ZM15.4145 12.8736C15.645 11.8441 15.9512 10.8938 15.9495 10.8938C16.6986 8.73917 17.604 7.77568 18.1704 7.77568C18.9408 7.77568 19.9335 9.23247 20.6513 11.7352C18.7994 12.4068 17.0115 13.2439 15.3091 14.2363L15.0984 14.3601C15.2005 13.8503 15.3058 13.3504 15.4145 12.8654V12.8736ZM13.8818 24.8446C10.6831 25.9632 8.65493 25.5524 8.28452 24.9222C8.01453 24.4503 8.3586 23.2377 9.73817 21.5896C9.96206 21.3206 10.2074 21.0517 10.4658 20.7828C11.9739 22.0552 13.5926 23.1899 15.3026 24.1732L15.4343 24.2474C14.8202 24.4932 14.2259 24.7242 13.8818 24.8446ZM21.1649 24.4107C19.5364 23.8007 17.9624 23.0534 16.4599 22.1769C14.951 21.3115 13.5189 20.318 12.1796 19.2072C14.8742 16.9958 17.9101 15.2389 21.1682 14.0054C21.7411 17.4517 21.7411 20.9693 21.1682 24.4157L21.1649 24.4107ZM24.4443 25.3264C24.1002 25.2653 23.7463 25.1878 23.3841 25.0987C23.7294 23.1535 23.9002 21.1813 23.8944 19.2056C23.8944 19.0637 23.8944 18.9218 23.8944 18.7799C24.7044 19.5306 25.6 20.4446 26.3638 21.3124C28.043 23.2229 28.3393 24.4305 28.0545 24.9222C27.7697 25.4138 26.5581 25.6992 24.4443 25.3264ZM18.1704 16.9255C17.7204 16.9255 17.2805 17.0593 16.9064 17.3098C16.5322 17.5603 16.2406 17.9164 16.0684 18.333C15.8962 18.7497 15.8511 19.2081 15.9389 19.6504C16.0267 20.0927 16.2434 20.4989 16.5616 20.8178C16.8798 21.1367 17.2852 21.3538 17.7265 21.4418C18.1678 21.5298 18.6253 21.4846 19.041 21.3121C19.4567 21.1395 19.8121 20.8473 20.0621 20.4723C20.3121 20.0974 20.4455 19.6565 20.4455 19.2056C20.4446 18.6011 20.2046 18.0217 19.7782 17.5943C19.3517 17.1669 18.7735 16.9264 18.1704 16.9255ZM34.0453 37.2182L27.8916 37.238V34.5851C31.2199 32.4685 33.771 29.3244 35.1599 25.6273C36.5489 21.9302 36.7003 17.8807 35.5913 14.0899C34.4824 10.299 32.1732 6.97238 29.0123 4.61202C25.8514 2.25165 22.0102 0.985591 18.0683 1.00486C8.63846 1.05765 0.659004 8.55604 0.0449462 17.9864C-0.183085 21.2589 0.478854 24.5321 1.96027 27.4575C3.44169 30.3828 5.6871 32.8507 8.45737 34.5983V37.2298L2.32338 37.2496V33.0574H0.0186003V39.5296H10.7523V34.5521C10.7512 34.1699 10.6529 33.7943 10.4665 33.4608C10.2801 33.1274 10.0118 32.8471 9.68714 32.6466C6.79124 30.8076 4.56757 28.0782 3.34904 24.8668C2.1305 21.6555 1.98266 18.1349 2.92762 14.8323C3.87259 11.5297 5.85955 8.62265 8.59102 6.54635C11.3225 4.47006 14.6515 3.33623 18.0798 3.31459C26.6091 3.2651 33.7457 10.1283 34.0289 18.671C34.1315 21.4456 33.5039 24.1984 32.2091 26.653C30.9142 29.1076 28.9977 31.1775 26.6519 32.6549C26.3272 32.8554 26.059 33.1356 25.8726 33.4691C25.6862 33.8025 25.5878 34.1782 25.5868 34.5604L25.5967 39.5379H36.327V33.0574H34.0223L34.0453 37.2182Z" fill="currentColor"></path>
    <path d="M59.8949 22.489V24.6106H51.2224V30.083H59.5821V32.2047H51.2224V39.3649H48.9851V22.489H59.8949ZM60.0596 22.324H48.8205V39.5299H51.387V32.3697H59.7468V29.9181H51.387V24.7756H60.0596V22.324Z" fill="currentColor"></path>
    <path d="M68.0078 27.0406C69.2595 27.0402 70.4831 27.4119 71.524 28.1086C72.5649 28.8052 73.3763 29.7956 73.8555 30.9544C74.3347 32.1132 74.4603 33.3884 74.2163 34.6187C73.9723 35.849 73.3697 36.9791 72.4848 37.8662C71.5998 38.7533 70.4722 39.3575 69.2446 39.6023C68.017 39.8472 66.7445 39.7217 65.5881 39.2417C64.4316 38.7618 63.4432 37.9489 62.7478 36.906C62.0524 35.863 61.6812 34.6368 61.6812 33.3824C61.6768 32.5485 61.8375 31.722 62.1538 30.9507C62.4702 30.1794 62.936 29.4786 63.5244 28.8889C64.1127 28.2991 64.8118 27.8321 65.5814 27.5149C66.351 27.1976 67.1757 27.0364 68.0078 27.0406ZM68.0078 37.6736C70.413 37.6736 72.265 35.8176 72.265 33.3841C72.265 30.9506 70.413 29.0946 68.0078 29.0946C65.6026 29.0946 63.7736 30.9523 63.7736 33.3841C63.7736 35.8159 65.6256 37.6736 68.0078 37.6736ZM68.0078 26.8756C66.3039 26.9028 64.679 27.6002 63.4836 28.8174C62.2882 30.0345 61.6183 31.6738 61.6183 33.3816C61.6183 35.0894 62.2882 36.7287 63.4836 37.9459C64.679 39.163 66.3039 39.8605 68.0078 39.8876C68.869 39.9014 69.7244 39.7433 70.5241 39.4225C71.3237 39.1017 72.0517 38.6246 72.6656 38.0191C73.2795 37.4136 73.7671 36.6918 74.0999 35.8956C74.4326 35.0994 74.604 34.2448 74.604 33.3816C74.604 32.5184 74.4326 31.6638 74.0999 30.8676C73.7671 30.0715 73.2795 29.3496 72.6656 28.7441C72.0517 28.1386 71.3237 27.6615 70.5241 27.3407C69.7244 27.02 68.869 26.8618 68.0078 26.8756ZM68.0078 37.5086C65.6882 37.5086 63.9382 35.7351 63.9382 33.3841C63.9382 31.0331 65.6882 29.2596 68.0078 29.2596C70.3274 29.2596 72.1004 31.0348 72.1004 33.3841C72.1004 35.7334 70.3405 37.5086 68.0078 37.5086Z" fill="currentColor"></path>
    <path d="M87.6724 27.3542V39.4094H85.5767V37.6738C84.6877 39.0959 83.3641 39.7228 81.6799 39.7228C78.8648 39.7228 77.0128 37.842 77.0128 34.7569V27.3542H79.1052V34.6365C79.1052 36.6162 80.2362 37.7216 82.0882 37.7216C84.0144 37.7216 85.5767 36.5882 85.5767 33.7439V27.3542H87.6707H87.6724ZM87.8353 27.1892H85.412V33.7439C85.412 36.1675 84.202 37.5566 82.0882 37.5566C80.2971 37.5566 79.2698 36.4925 79.2698 34.6365V27.1892H76.8514V34.7569C76.8514 37.8734 78.7479 39.8878 81.6832 39.8878C83.2834 39.8878 84.5379 39.3186 85.4153 38.1951V39.5743H87.8386V27.1892H87.8353Z" fill="currentColor"></path>
    <path d="M97.4644 27.0407C100.279 27.0407 102.132 28.9215 102.132 32.0083V39.4094H100.039V32.1287C100.039 30.149 98.9081 29.0419 97.0561 29.0419C95.1316 29.0419 93.5677 30.1754 93.5677 33.0196V39.4094H91.4752V27.3542H93.5677V29.0898C94.4583 27.6676 95.7802 27.0407 97.4644 27.0407ZM97.4644 26.8757C95.8642 26.8757 94.6114 27.4449 93.7323 28.5684V27.1892H91.3106V39.5743H93.7323V33.0196C93.7323 30.5977 94.9439 29.2069 97.0561 29.2069C98.8472 29.2069 99.8745 30.271 99.8745 32.1287V39.5743H102.296V32.0083C102.296 28.8902 100.4 26.8757 97.4644 26.8757Z" fill="currentColor"></path>
    <path d="M117.393 22.5334V39.4093H115.3V37.3355C114.337 38.8071 112.798 39.7228 110.753 39.7228C107.41 39.7228 104.662 36.9494 104.662 33.3826C104.662 29.8157 107.405 27.0407 110.753 27.0407C112.798 27.0407 114.337 27.958 115.3 29.428V22.5334H117.393ZM111.017 37.6968C113.446 37.6968 115.297 35.8408 115.297 33.3826C115.297 30.9243 113.443 29.0667 111.017 29.0667C108.611 29.0667 106.759 30.9227 106.759 33.3826C106.759 35.8424 108.611 37.6968 111.017 37.6968ZM117.557 22.3684H115.135V28.9165C114.085 27.5785 112.58 26.8757 110.753 26.8757C109.928 26.8745 109.112 27.0407 108.353 27.3642C107.594 27.6877 106.909 28.1619 106.338 28.7581C105.161 30.0072 104.506 31.6599 104.506 33.3776C104.506 35.0953 105.161 36.748 106.338 37.9971C106.909 38.5933 107.594 39.0675 108.353 39.391C109.112 39.7145 109.928 39.8807 110.753 39.8795C112.58 39.8795 114.085 39.1767 115.135 37.8404V39.566H117.557V22.3684ZM111.017 37.5318C108.684 37.5318 106.924 35.7484 106.924 33.3826C106.924 31.0167 108.684 29.2316 111.017 29.2316C113.349 29.2316 115.132 31.0151 115.132 33.3826C115.132 35.75 113.361 37.5318 111.017 37.5318Z" fill="currentColor"></path>
    <path d="M126.212 27.0407C128.256 27.0407 129.796 27.958 130.759 29.428V27.3542H132.851V39.4094H130.759V37.3356C129.796 38.8072 128.256 39.7228 126.212 39.7228C122.866 39.7228 120.12 36.9495 120.12 33.3826C120.12 29.8157 122.863 27.0407 126.212 27.0407ZM126.475 37.6969C128.905 37.6969 130.755 35.8408 130.755 33.3826C130.755 30.9244 128.902 29.0667 126.475 29.0667C124.048 29.0667 122.218 30.9227 122.218 33.3826C122.218 35.8425 124.07 37.6969 126.475 37.6969ZM126.212 26.8757C125.387 26.8742 124.57 27.0403 123.811 27.3638C123.052 27.6873 122.366 28.1617 121.795 28.7582C120.617 30.0069 119.961 31.6597 119.961 33.3776C119.961 35.0956 120.617 36.7484 121.795 37.9971C122.366 38.5934 123.051 39.0677 123.81 39.3912C124.569 39.7147 125.385 39.8809 126.21 39.8796C128.037 39.8796 129.542 39.1767 130.592 37.8404V39.5661H133.014V27.1892H130.592V28.9166C129.542 27.5786 128.037 26.8757 126.21 26.8757H126.212ZM126.475 37.5319C124.142 37.5319 122.382 35.7484 122.382 33.3826C122.382 31.0168 124.142 29.2317 126.475 29.2317C128.808 29.2317 130.591 31.0151 130.591 33.3826C130.591 35.7501 128.819 37.5319 126.475 37.5319Z" fill="currentColor"></path>
    <path d="M146.555 22.3404C146.927 22.346 147.282 22.4984 147.543 22.7646C147.804 23.0308 147.95 23.3893 147.949 23.7625C147.937 24.128 147.783 24.4744 147.52 24.7286C147.258 24.9828 146.907 25.1249 146.542 25.1249C146.177 25.1249 145.827 24.9828 145.564 24.7286C145.302 24.4744 145.148 24.128 145.136 23.7625C145.136 23.3855 145.286 23.024 145.552 22.7574C145.818 22.4908 146.178 22.3408 146.555 22.3404ZM147.588 27.3541V39.4093H145.501V27.3541H147.593H147.588ZM146.56 22.1754C146.349 22.1686 146.139 22.2042 145.942 22.2803C145.746 22.3564 145.567 22.4713 145.415 22.6182C145.264 22.7651 145.143 22.941 145.061 23.1354C144.979 23.3299 144.937 23.5389 144.937 23.7501C144.937 23.9613 144.979 24.1704 145.061 24.3648C145.143 24.5593 145.264 24.7352 145.415 24.8821C145.567 25.029 145.746 25.1439 145.942 25.22C146.139 25.296 146.349 25.3317 146.56 25.3249C146.968 25.3116 147.354 25.1399 147.638 24.8461C147.922 24.5522 148.081 24.1592 148.081 23.7501C148.081 23.3411 147.922 22.9481 147.638 22.6542C147.354 22.3603 146.968 22.1886 146.56 22.1754ZM147.758 27.1892H145.336V39.5743H147.758V27.1892Z" fill="currentColor"></path>
    <path d="M156.458 27.0406C157.71 27.0406 158.933 27.4125 159.974 28.1094C161.015 28.8062 161.826 29.7967 162.305 30.9555C162.784 32.1143 162.909 33.3895 162.665 34.6197C162.421 35.8499 161.818 36.9799 160.933 37.8668C160.048 38.7538 158.921 39.3578 157.693 39.6025C156.465 39.8472 155.193 39.7216 154.037 39.2416C152.88 38.7616 151.892 37.9487 151.197 36.9058C150.501 35.8629 150.13 34.6367 150.13 33.3824C150.126 32.5483 150.286 31.7216 150.602 30.9501C150.919 30.1786 151.385 29.4776 151.973 28.8878C152.562 28.298 153.261 27.831 154.031 27.5139C154.801 27.1969 155.626 27.036 156.458 27.0406ZM156.458 37.6736C158.864 37.6736 160.716 35.8176 160.716 33.3841C160.716 30.9506 158.864 29.0946 156.458 29.0946C154.053 29.0946 152.224 30.9523 152.224 33.3841C152.224 35.8159 154.076 37.6736 156.458 37.6736ZM156.458 26.8756C155.597 26.8618 154.742 27.02 153.942 27.3407C153.142 27.6615 152.414 28.1386 151.801 28.7441C151.187 29.3496 150.699 30.0715 150.366 30.8676C150.033 31.6638 149.862 32.5184 149.862 33.3816C149.862 34.2448 150.033 35.0994 150.366 35.8956C150.699 36.6918 151.187 37.4136 151.801 38.0191C152.414 38.6246 153.142 39.1017 153.942 39.4225C154.742 39.7433 155.597 39.9014 156.458 39.8876C158.183 39.8979 159.841 39.2214 161.068 38.0069C162.289 36.7784 162.974 35.1153 162.974 33.3816C162.974 31.6479 162.289 29.9848 161.068 28.7564C159.841 27.5418 158.183 26.8653 156.458 26.8756ZM156.458 37.5086C154.137 37.5086 152.389 35.7351 152.389 33.3841C152.389 31.0331 154.137 29.2596 156.458 29.2596C158.78 29.2596 160.551 31.0348 160.551 33.3841C160.551 35.7334 158.791 37.5086 156.458 37.5086Z" fill="currentColor"></path>
    <path d="M170.854 27.0407C173.667 27.0407 175.521 28.9215 175.521 32.0083V39.4094H173.427V32.1287C173.427 30.149 172.296 29.0419 170.444 29.0419C168.519 29.0419 166.955 30.1754 166.955 33.0196V39.4094H164.863V27.3542H166.955V29.0898C167.846 27.6676 169.169 27.0407 170.854 27.0407ZM170.854 26.8757C169.252 26.8757 167.999 27.4449 167.12 28.5684V27.1892H164.698V39.5743H167.12V33.0196C167.12 30.5977 168.331 29.2069 170.444 29.2069C172.235 29.2069 173.262 30.271 173.262 32.1287V39.5743H175.685V32.0083C175.685 28.8902 173.789 26.8757 170.854 26.8757Z" fill="currentColor"></path>
    <path d="M138.422 22.5334V27.3541H141.879V29.3818H138.422V35.915C138.422 37.3174 139.043 37.578 140.292 37.578C140.519 37.578 140.768 37.5681 141.038 37.5566L141.874 37.5186V39.4456C141.874 39.4456 140.705 39.5166 140.195 39.5281H139.996C137.507 39.5281 136.33 38.4326 136.33 35.915V22.535H138.422V22.5334ZM138.587 22.3701H136.165V35.915C136.165 38.492 137.382 39.6931 139.996 39.6931H140.2C140.707 39.6815 141.873 39.6106 141.884 39.6106L142.039 39.6007V37.3438H141.874L141.04 37.3817C140.811 37.3916 140.546 37.4031 140.3 37.4031C139.122 37.4031 138.595 37.187 138.595 35.9051V29.5467H142.052V27.1892H138.595V22.3684L138.587 22.3701Z" fill="currentColor"></path>
    <path d="M84.1793 1.47846V16.2327H94.0569V18.3544H81.9469V1.47846H84.1842H84.1793ZM84.3488 1.31348H81.7823V18.5194H94.2215V16.0677H84.3439V1.31348H84.3488Z" fill="currentColor"></path>
    <path d="M73.8174 1.47843C75.0498 1.46625 76.2464 1.8935 77.1935 2.68387C78.1405 3.47423 78.7764 4.57625 78.9875 5.79309C79.1986 7.00993 78.9712 8.26236 78.3459 9.32668C77.7206 10.391 76.7382 11.1979 75.574 11.6033L79.5432 18.3543H77.0738L73.289 11.8937H69.3198V18.3543H67.0826V1.47843H73.8174ZM69.3198 9.86772H73.8174C75.4769 9.86772 76.8252 8.44558 76.8252 6.70998C76.8252 4.97438 75.4769 3.57534 73.8174 3.57534H69.3198V9.86772ZM73.8174 1.31345H66.9179V18.5193H69.4845V12.0587H73.1935L76.9239 18.4368L76.9717 18.5193H79.8313L79.6847 18.2702L75.8144 11.6891C76.9822 11.2323 77.9534 10.3796 78.5589 9.27951C79.1644 8.17937 79.366 6.90134 79.1286 5.66768C78.8911 4.43402 78.2297 3.3228 77.2594 2.52726C76.289 1.73173 75.0711 1.30222 73.8174 1.31345ZM69.4845 3.74032H73.8174C75.3847 3.74032 76.6605 5.07337 76.6605 6.70998C76.6605 8.34659 75.3847 9.70274 73.8174 9.70274H69.4845V3.74032Z" fill="currentColor"></path>
    <path d="M55.4783 1.1699C57.1847 1.16715 58.8544 1.6659 60.2809 2.60444C61.7073 3.54297 62.8279 4.88008 63.5038 6.45029C64.1797 8.02049 64.3814 9.75486 64.0838 11.4387C63.7862 13.1226 63.0025 14.6821 61.8296 15.9242L63.6816 17.7753L62.1407 19.1726L60.2409 17.2457C59.1027 17.9869 57.8077 18.4518 56.4587 18.6034C55.1098 18.755 53.7441 18.5891 52.4704 18.1189C51.1966 17.6487 50.05 16.8871 49.1215 15.8948C48.193 14.9024 47.5084 13.7067 47.122 12.4026C46.7357 11.0985 46.6583 9.72213 46.896 8.38282C47.1337 7.0435 47.6799 5.77824 48.4912 4.68763C49.3025 3.59702 50.3566 2.71116 51.5695 2.10048C52.7824 1.48981 54.1209 1.17117 55.4783 1.1699ZM55.4783 16.4785C56.5902 16.4838 57.6845 16.1995 58.6539 15.6536L55.2856 12.255L56.8249 10.8807L60.2821 14.3453C61.3833 13.1348 61.9873 11.5519 61.9728 9.9139C61.9728 6.20182 59.0869 3.3328 55.4783 3.3328C51.8696 3.3328 48.9837 6.20182 48.9837 9.9139C48.973 10.7739 49.1333 11.6275 49.4553 12.4247C49.7772 13.222 50.2544 13.947 50.859 14.5575C51.4635 15.1679 52.1834 15.6516 52.9765 15.9803C53.7696 16.309 54.62 16.4761 55.4783 16.4719V16.4785ZM55.4783 0.998314C54.3112 0.997006 53.1554 1.22667 52.0772 1.67413C50.999 2.12159 50.0195 2.77803 49.1951 3.60579C48.3706 4.43354 47.7174 5.4163 47.2729 6.49768C46.8284 7.57906 46.6014 8.73777 46.6049 9.9073C46.5999 11.5006 47.0223 13.066 47.8279 14.4396C48.6336 15.8133 49.7928 16.9446 51.1844 17.7153C52.5759 18.4861 54.1486 18.8678 55.7378 18.8206C57.327 18.7733 58.8743 18.2989 60.2179 17.4469L62.0287 19.2815L62.1407 19.3937L62.2576 19.2881L63.7968 17.8891L63.9253 17.772L63.8018 17.6499L62.0617 15.906C63.2246 14.6289 63.9916 13.0403 64.2692 11.3338C64.5467 9.62737 64.3228 7.87688 63.6247 6.29578C62.9266 4.71469 61.7845 3.37133 60.3377 2.42951C58.8909 1.48769 57.2019 0.988124 55.4766 0.991718L55.4783 0.998314ZM55.4783 16.3069C51.9289 16.3069 49.1483 13.5022 49.1483 9.9139C49.1483 6.32556 51.9289 3.49778 55.4783 3.49778C59.0276 3.49778 61.8082 6.31731 61.8082 9.9139C61.8208 11.451 61.2789 12.941 60.2821 14.1094L56.9418 10.7619L56.8315 10.653L56.7162 10.7553L55.1753 12.1296L55.0469 12.2451L55.1688 12.3688L58.3823 15.6124C57.4834 16.0726 56.4877 16.3107 55.4783 16.3069Z" fill="currentColor"></path>
    <path d="M48.9012 39.5297V22.4888H59.9756V24.7754H51.3031V30.0829H59.6628V32.3695H51.3031V39.5297H48.9012Z" fill="currentColor"></path>
    <path d="M68.0077 39.8878C66.7408 39.8832 65.5036 39.5025 64.4523 38.7937C63.4011 38.085 62.5831 37.0799 62.1014 35.9055C61.6198 34.7311 61.4962 33.4401 61.7463 32.1954C61.9964 30.9506 62.6089 29.8081 63.5065 28.912C64.4042 28.0159 65.5466 27.4065 66.7896 27.1606C68.0326 26.9148 69.3204 27.0436 70.4904 27.5308C71.6604 28.0179 72.6602 28.8416 73.3634 29.8978C74.0665 30.954 74.4417 32.1953 74.4413 33.465C74.4504 34.3131 74.2901 35.1544 73.9697 35.9394C73.6492 36.7244 73.1753 37.4371 72.5757 38.0357C71.9762 38.6343 71.2631 39.1065 70.4786 39.4246C69.694 39.7426 68.8539 39.9001 68.0077 39.8878ZM68.0077 29.2547C66.9231 29.2978 65.8972 29.7599 65.1451 30.5441C64.3929 31.3284 63.9728 32.3739 63.9728 33.4617C63.9728 34.5495 64.3929 35.5951 65.1451 36.3794C65.8972 37.1636 66.9231 37.6257 68.0077 37.6688C70.3882 37.6688 72.1827 35.854 72.1827 33.4601C72.1827 31.0662 70.3882 29.2547 68.0077 29.2547Z" fill="currentColor"></path>
    <path d="M81.6816 39.8053C78.7957 39.8053 76.9321 37.8256 76.9321 34.7569V27.2717H79.1891V34.6365C79.1891 36.5437 80.2477 37.6391 82.0898 37.6391C84.2547 37.6391 85.496 36.2187 85.496 33.7439V27.2717H87.7547V39.4919H85.496V37.9477C84.6218 39.1966 83.3723 39.8053 81.6816 39.8053Z" fill="currentColor"></path>
    <path d="M99.9568 39.4919V32.1288C99.9568 30.2199 98.8999 29.1245 97.056 29.1245C94.8912 29.1245 93.6499 30.5449 93.6499 33.0197V39.4919H91.3929V27.2717H93.6433V28.8176C94.5175 27.567 95.7687 26.9583 97.4577 26.9583C100.344 26.9583 102.207 28.938 102.207 32.0083V39.4919H99.9568Z" fill="currentColor"></path>
    <path d="M110.753 39.8054C107.352 39.8054 104.585 36.9231 104.585 33.3826C104.585 29.8421 107.352 26.9583 110.753 26.9583C112.641 26.9583 114.179 27.7188 115.218 29.1624V22.4526H117.475V39.4919H115.218V37.6012C114.179 39.0448 112.641 39.8054 110.753 39.8054ZM111.018 29.1492C108.636 29.1492 106.842 30.964 106.842 33.3826C106.842 35.8013 108.636 37.6144 111.018 37.6144C113.4 37.6144 115.218 35.7996 115.218 33.3826C115.218 30.9657 113.412 29.1492 111.018 29.1492Z" fill="currentColor"></path>
    <path d="M126.212 39.8053C122.809 39.8053 120.042 36.9231 120.042 33.3826C120.042 29.8421 122.809 26.9583 126.212 26.9583C128.098 26.9583 129.638 27.7188 130.676 29.1624V27.2717H132.933V39.4919H130.685V37.6012C129.638 39.0448 128.098 39.8053 126.212 39.8053ZM126.475 29.1492C124.095 29.1492 122.3 30.964 122.3 33.3826C122.3 35.8012 124.095 37.6144 126.475 37.6144C128.856 37.6144 130.676 35.7996 130.676 33.3826C130.676 30.9656 128.874 29.1492 126.475 29.1492Z" fill="currentColor"></path>
    <path d="M145.414 39.4918V27.2716H147.671V39.4918H145.414ZM146.554 25.2424C146.261 25.2424 145.975 25.1553 145.731 24.9921C145.488 24.829 145.298 24.5971 145.186 24.3258C145.073 24.0544 145.044 23.7559 145.101 23.4679C145.158 23.1798 145.3 22.9153 145.507 22.7076C145.714 22.4999 145.978 22.3585 146.265 22.3012C146.553 22.2439 146.851 22.2733 147.121 22.3857C147.392 22.4981 147.624 22.6884 147.786 22.9326C147.949 23.1768 148.036 23.4639 148.036 23.7575C148.034 24.1507 147.877 24.5271 147.6 24.8051C147.322 25.0831 146.947 25.2402 146.554 25.2424Z" fill="currentColor"></path>
    <path d="M156.458 39.8052C155.191 39.801 153.954 39.4206 152.902 38.712C151.851 38.0035 151.033 36.9985 150.551 35.8242C150.069 34.6498 149.945 33.3587 150.195 32.1138C150.445 30.869 151.057 29.7263 151.955 28.8301C152.852 27.9338 153.995 27.3242 155.238 27.0782C156.481 26.8323 157.769 26.961 158.939 27.4481C160.109 27.9352 161.109 28.7589 161.812 29.8151C162.515 30.8714 162.891 32.1128 162.89 33.3825C162.899 34.2305 162.739 35.0716 162.419 35.8565C162.098 36.6414 161.625 37.3541 161.025 37.9526C160.426 38.5511 159.713 39.0234 158.929 39.3416C158.144 39.6597 157.304 39.8174 156.458 39.8052ZM156.458 29.1722C155.374 29.2153 154.348 29.6773 153.596 30.4616C152.843 31.2459 152.423 32.2914 152.423 33.3792C152.423 34.467 152.843 35.5126 153.596 36.2969C154.348 37.0811 155.374 37.5432 156.458 37.5862C158.839 37.5862 160.633 35.7714 160.633 33.3776C160.633 30.9837 158.836 29.1722 156.458 29.1722Z" fill="currentColor"></path>
    <path d="M173.348 39.4919V32.1288C173.348 30.2199 172.291 29.1245 170.447 29.1245C168.282 29.1245 167.041 30.5449 167.041 33.0197V39.4919H164.784V27.2717H167.041V28.8176C167.915 27.567 169.166 26.9583 170.857 26.9583C173.741 26.9583 175.606 28.938 175.606 32.0083V39.4919H173.348Z" fill="currentColor"></path>
    <path d="M139.996 39.6107C137.439 39.6107 136.247 38.436 136.247 35.9151V22.4526H138.504V27.2734H141.961V29.4643H138.504V35.9151C138.504 36.5668 138.643 36.9776 138.939 37.2069C139.201 37.4082 139.597 37.4956 140.292 37.4956C140.539 37.4956 140.806 37.4841 141.035 37.4742L141.956 37.4313V39.5216H141.879C141.868 39.5216 140.704 39.5925 140.198 39.6041L139.996 39.6107Z" fill="currentColor"></path>
    <path d="M77.0161 18.4369L73.2396 11.9763H69.4005V18.4369H66.9986V1.39602H73.8158C75.0589 1.38339 76.2666 1.81093 77.226 2.60328C78.1854 3.39564 78.8349 4.50195 79.06 5.72723C79.2851 6.95251 79.0714 8.2181 78.4566 9.30095C77.8418 10.3838 76.8652 11.2144 75.6991 11.6463L79.6913 18.4369H77.0161ZM73.8158 9.78532C75.4291 9.78532 76.7412 8.40607 76.7412 6.71007C76.7412 5.01406 75.4242 3.65791 73.8158 3.65791H69.4005V9.78532H73.8158Z" fill="currentColor"></path>
    <path d="M81.8597 18.4369V1.396H84.2616V16.1503H94.1343V18.4369H81.8597Z" fill="currentColor"></path>
    <path d="M60.2245 17.3513C58.3375 18.5609 56.0618 19.0048 53.8599 18.5929C51.658 18.1809 49.6953 16.944 48.371 15.1337C47.0466 13.3233 46.46 11.0754 46.7304 8.84711C47.0008 6.61878 48.1079 4.57732 49.8266 3.13783C51.5454 1.69834 53.7467 0.968902 55.9829 1.09784C58.2191 1.22678 60.3224 2.20442 61.865 3.83196C63.4077 5.4595 64.2738 7.61475 64.2874 9.85945C64.301 12.1042 63.461 14.2698 61.9382 15.916L63.7952 17.7786L62.1341 19.2882L60.2245 17.3513ZM55.4733 3.417C51.8779 3.417 49.0529 6.27282 49.0529 9.91561C49.0529 13.5584 51.8697 16.3911 55.4733 16.3911C56.5338 16.3946 57.5785 16.1344 58.514 15.6339L55.1605 12.2517L56.8233 10.7669L60.2804 14.2315C61.3259 13.0392 61.8967 11.5028 61.8839 9.91561C61.8905 6.27282 59.0721 3.417 55.4783 3.417H55.4733Z" fill="currentColor"></path>
</svg>