<?xml version="1.0" encoding="UTF-8" standalone="no"?>
<!-- Created with Inkscape (http://www.inkscape.org/) -->

<svg
   version="1.1"
   id="svg1"
   width="900"
   height="900"
   viewBox="0 0 900.00001 899.99999"
   sodipodi:docname="merkletree-labs.svg"
   inkscape:export-filename="merkletree-labs.png"
   inkscape:export-xdpi="96"
   inkscape:export-ydpi="96"
   inkscape:version="1.4 (e7c3feb1, 2024-10-09)"
   xmlns:inkscape="http://www.inkscape.org/namespaces/inkscape"
   xmlns:sodipodi="http://sodipodi.sourceforge.net/DTD/sodipodi-0.dtd"
   xmlns:xlink="http://www.w3.org/1999/xlink"
   xmlns="http://www.w3.org/2000/svg"
   xmlns:svg="http://www.w3.org/2000/svg">
  <defs
     id="defs1">
    <linearGradient
       id="linearGradient4"
       inkscape:collect="always">
      <stop
         style="stop-color:#00d4f2;stop-opacity:1;"
         offset="0"
         id="stop4" />
      <stop
         style="stop-color:#006a78;stop-opacity:1;"
         offset="1"
         id="stop5" />
    </linearGradient>
    <linearGradient
       inkscape:collect="always"
       xlink:href="#linearGradient4"
       id="linearGradient3"
       x1="386.93478"
       y1="898.47565"
       x2="219.70026"
       y2="898.47565"
       gradientUnits="userSpaceOnUse"
       gradientTransform="matrix(0.83878798,0,0,0.83878798,82.638095,136.002)" />
    <linearGradient
       inkscape:collect="always"
       xlink:href="#linearGradient4"
       id="linearGradient5"
       gradientUnits="userSpaceOnUse"
       x1="386.93478"
       y1="898.47565"
       x2="219.70026"
       y2="898.47565"
       gradientTransform="matrix(-0.83878798,0,0,0.83878798,950.58578,136.002)" />
  </defs>
  <sodipodi:namedview
     id="namedview1"
     pagecolor="#505050"
     bordercolor="#eeeeee"
     borderopacity="1"
     inkscape:showpageshadow="0"
     inkscape:pageopacity="0"
     inkscape:pagecheckerboard="0"
     inkscape:deskcolor="#505050"
     showgrid="false"
     inkscape:zoom="1.0476051"
     inkscape:cx="634.78118"
     inkscape:cy="343.64094"
     inkscape:window-width="2176"
     inkscape:window-height="1491"
     inkscape:window-x="4409"
     inkscape:window-y="382"
     inkscape:window-maximized="0"
     inkscape:current-layer="g1">
    <inkscape:page
       x="0"
       y="0"
       width="900"
       height="900"
       id="page1"
       margin="0"
       bleed="0" />
  </sodipodi:namedview>
  <g
     inkscape:groupmode="layer"
     inkscape:label="Image"
     id="g1"
     transform="translate(-52.99345,-511.39263)">
    <g
       id="g2"
       transform="translate(-9.61161,117.77066)">
      <path
         style="font-weight:600;font-size:113.665px;font-family:Montserrat;-inkscape-font-specification:'Montserrat Semi-Bold';fill:#272727;stroke-width:2.50241"
         d="m 121.48366,848.68884 v -79.5655 h 12.16215 l 34.78149,58.08282 h -6.36524 l 34.21317,-58.08282 h 12.16215 l 0.11367,79.5655 h -13.9808 l -0.11366,-57.62815 h 2.95529 l -29.09824,48.53495 h -6.59257 l -29.5529,-48.53495 h 3.40995 v 57.62815 z m 108.55006,0 v -79.5655 h 58.08282 v 12.38949 h -43.30637 v 54.78653 h 44.89768 v 12.38948 z m 13.6398,-34.32683 v -12.16215 h 39.55542 v 12.16215 z m 62.51577,34.32683 v -79.5655 h 32.62185 c 10.60873,0 18.90628,2.50063 24.89264,7.50189 6.06213,5.00126 9.0932,11.93483 9.0932,20.8007 0,5.8348 -1.36398,10.87395 -4.09194,15.11744 -2.72796,4.16772 -6.63046,7.38823 -11.7075,9.66153 -5.00126,2.19752 -11.0255,3.29628 -18.07273,3.29628 h -24.55164 l 6.59257,-6.70623 v 29.89389 z m 52.05857,0 -20.11871,-28.87091 h 15.79944 l 20.23237,28.87091 z m -37.28212,-28.30258 -6.59257,-7.04723 h 23.86965 c 6.51679,0 11.40439,-1.40187 14.66278,-4.20561 3.33417,-2.80373 5.00126,-6.70623 5.00126,-11.70749 0,-5.07704 -1.66709,-8.97954 -5.00126,-11.7075 -3.25839,-2.72796 -8.14599,-4.09194 -14.66278,-4.09194 h -23.86965 l 6.59257,-7.27456 z m 81.49789,9.54786 -0.79566,-17.50441 41.71506,-43.30637 h 16.59509 l -34.66783,36.82746 -8.18388,8.97954 z m -13.18514,18.75472 v -79.5655 h 14.77645 v 79.5655 z m 55.46852,0 -30.46222,-36.25913 9.77519,-10.79818 37.96411,47.05731 z m 27.39326,0 v -79.5655 h 14.77645 v 67.06235 h 41.6014 v 12.50315 z m 68.08545,0 v -79.5655 h 58.08282 v 12.38949 h -43.30637 v 54.78653 h 44.89768 v 12.38948 z m 13.6398,-34.32683 v -12.16215 h 39.55542 v 12.16215 z m 78.65621,34.32683 v -67.06235 h -26.37028 v -12.50315 h 67.51701 v 12.50315 h -26.37028 v 67.06235 z m 52.28578,0 v -79.5655 h 32.62186 c 10.60873,0 18.90628,2.50063 24.89263,7.50189 6.06213,5.00126 9.0932,11.93483 9.0932,20.8007 0,5.8348 -1.36398,10.87395 -4.09194,15.11744 -2.72796,4.16772 -6.63046,7.38823 -11.70749,9.66153 -5.00126,2.19752 -11.02551,3.29628 -18.07274,3.29628 h -24.55164 l 6.59257,-6.70623 v 29.89389 z m 52.05857,0 -20.1187,-28.87091 h 15.79943 l 20.23237,28.87091 z m -37.28212,-28.30258 -6.59257,-7.04723 h 23.86965 c 6.51679,0 11.40439,-1.40187 14.66279,-4.20561 3.33417,-2.80373 5.00126,-6.70623 5.00126,-11.70749 0,-5.07704 -1.66709,-8.97954 -5.00126,-11.7075 -3.2584,-2.72796 -8.146,-4.09194 -14.66279,-4.09194 h -23.86965 l 6.59257,-7.27456 z m 68.31278,28.30258 v -79.5655 h 58.08282 v 12.38949 h -43.30637 v 54.78653 h 44.89768 v 12.38948 z m 13.6398,-34.32683 v -12.16215 h 39.55543 v 12.16215 z m 62.51578,34.32683 v -79.5655 h 58.08282 v 12.38949 h -43.30637 v 54.78653 h 44.89768 v 12.38948 z m 13.6398,-34.32683 v -12.16215 h 39.55542 v 12.16215 z"
         id="text1"
         aria-label="MERKLETREE"
         sodipodi:nodetypes="cccccccccccccccccccccccccccccccccscsccscccccccccccscscsccccccccccccccccccccccccccccccccccccccccccccccccccccscsccscccccccccccscscsccccccccccccccccccccccccccccccc" />
      <path
         style="font-weight:600;font-size:73.4394px;font-family:Montserrat;-inkscape-font-specification:'Montserrat Semi-Bold';fill:#262626;stroke-width:1.61681"
         d="m 422.83806,917.38623 v -51.40758 h 9.54712 V 909.3079 H 459.264 v 8.07833 z m 36.81516,0 23.13341,-51.40758 h 9.40024 l 23.20685,51.40758 h -9.98776 l -19.90208,-46.34026 h 3.81885 l -19.82863,46.34026 z m 10.64871,-11.89718 2.57038,-7.49082 h 27.76009 l 2.57038,7.49082 z m 51.62794,11.89718 v -51.40758 h 24.08812 q 9.25337,0 14.10037,3.67197 4.847,3.59853 4.847,9.694 0,4.11261 -1.90943,7.05018 -1.90942,2.86414 -5.14076,4.47981 -3.15789,1.54222 -6.9033,1.54222 l 1.32191,-2.64381 q 4.33293,0 7.78458,1.61566 3.45165,1.54223 5.43451,4.55325 2.05631,3.01101 2.05631,7.49081 0,6.60955 -5.06732,10.28152 -5.06732,3.67197 -15.05508,3.67197 z m 9.54712,-7.49082 h 15.42228 q 5.36107,0 8.22521,-1.76254 2.86413,-1.76255 2.86413,-5.65484 0,-3.81885 -2.86413,-5.58139 -2.86414,-1.83599 -8.22521,-1.83599 H 530.7426 v -7.41738 h 14.24724 q 4.99388,0 7.6377,-1.76254 2.71726,-1.76255 2.71726,-5.28764 0,-3.59853 -2.71726,-5.36107 -2.64382,-1.76255 -7.6377,-1.76255 h -13.51285 z m 62.27659,8.22521 q -6.02203,0 -11.52999,-1.6891 -5.50795,-1.76255 -8.73929,-4.47981 l 3.30478,-7.41737 q 3.08445,2.4235 7.63769,4.03916 4.55325,1.61567 9.32681,1.61567 4.03917,0 6.53611,-0.88127 2.49693,-0.88128 3.67197,-2.35006 1.17503,-1.54223 1.17503,-3.45166 0,-2.35006 -1.68911,-3.74541 -1.68911,-1.46878 -4.40636,-2.27662 -2.64382,-0.88127 -5.9486,-1.61566 -3.23133,-0.7344 -6.5361,-1.68911 -3.23134,-1.02815 -5.94859,-2.57038 -2.64382,-1.61567 -4.33293,-4.25948 -1.6891,-2.64382 -1.6891,-6.75643 0,-4.18604 2.20318,-7.6377 2.27662,-3.52509 6.82986,-5.58139 4.62668,-2.12974 11.67687,-2.12974 4.62668,0 9.17992,1.17503 4.55324,1.17503 7.93146,3.37821 l -3.01102,7.41738 q -3.45165,-2.0563 -7.12362,-3.01102 -3.67197,-1.02815 -7.05018,-1.02815 -3.96573,0 -6.46267,0.95471 -2.4235,0.95472 -3.59853,2.49694 -1.10159,1.54223 -1.10159,3.52509 0,2.35007 1.61566,3.81885 1.68911,1.39535 4.33293,2.20319 2.71726,0.80783 6.02203,1.61566 3.30477,0.7344 6.53611,1.68911 3.30477,0.95471 5.94859,2.49694 2.71726,1.54223 4.33292,4.18604 1.68911,2.64382 1.68911,6.68299 0,4.11261 -2.27662,7.6377 -2.20318,3.45165 -6.82987,5.58139 -4.62668,2.0563 -11.67686,2.0563 z"
         id="text1-1"
         aria-label="LABS" />
      <path
         style="fill:url(#linearGradient3);fill-opacity:1;stroke:none;stroke-width:3.15671"
         d="m 404.93806,895.0376 v -6.7103 l -139.40321,1.34274 v 4.02482 z"
         id="path2"
         sodipodi:nodetypes="ccccc" />
      <path
         style="fill:url(#linearGradient5);fill-opacity:1;stroke:none;stroke-width:3.15671"
         d="m 628.28583,895.0376 v -6.7103 l 139.40321,1.34274 v 4.02482 z"
         id="path5"
         sodipodi:nodetypes="ccccc" />
    </g>
  </g>
</svg>
