<?xml version="1.0" encoding="UTF-8" standalone="no"?>
<!-- Generator: Adobe Illustrator 28.1.0, SVG Export Plug-In . SVG Version: 6.00 Build 0)  -->

<svg
   version="1.1"
   id="Layer_1"
   x="0px"
   y="0px"
   width="612px"
   height="138.7px"
   viewBox="0 0 612 138.7"
   style="enable-background:new 0 0 612 138.7;"
   xml:space="preserve"
   sodipodi:docname="pqca.svg"
   inkscape:version="1.3.2 (091e20ef0f, 2023-11-25)"
   xmlns:inkscape="http://www.inkscape.org/namespaces/inkscape"
   xmlns:sodipodi="http://sodipodi.sourceforge.net/DTD/sodipodi-0.dtd"
   xmlns="http://www.w3.org/2000/svg"
   xmlns:svg="http://www.w3.org/2000/svg"><defs
   id="defs36">
	
	
	
	
	
	
</defs><sodipodi:namedview
   id="namedview36"
   pagecolor="#ffffff"
   bordercolor="#000000"
   borderopacity="0.25"
   inkscape:showpageshadow="2"
   inkscape:pageopacity="0.0"
   inkscape:pagecheckerboard="0"
   inkscape:deskcolor="#d1d1d1"
   inkscape:zoom="2.4812092"
   inkscape:cx="342.37339"
   inkscape:cy="73.149819"
   inkscape:window-width="3840"
   inkscape:window-height="2021"
   inkscape:window-x="0"
   inkscape:window-y="0"
   inkscape:window-maximized="1"
   inkscape:current-layer="Layer_1" />
<style
   type="text/css"
   id="style1">
	.st0{fill:#9391C0;}
	.st1{fill:#90B3B5;}
	.st2{fill:#FFFFFF;}
</style>
<path
   class="st0"
   d="m 64.4,85.4 c -4,-1.3 -7.3,-3.7 -9.8,-7.1 -1.9,-2.7 -3.3,-5.9 -4.2,-9.7 0,0 0,-0.1 -0.1,-0.4 v -0.1 0 C 50.2,67.4 49.9,66 49.7,64.1 V 64 c 0,-0.1 0,-0.2 0,-0.2 v -0.1 c 0,-0.3 0,-0.5 -0.1,-0.8 v 0 c -0.2,-3 0,-5.1 0,-5.2 l 0.1,-0.9 0.9,0.1 c 7,0.7 13,-4 13.7,-4.6 l 0.5,-0.4 0.5,0.4 c 0.2,0.2 1.9,1.5 4.4,2.7 3.2,1.5 6.3,2.1 9.3,1.9 l 0.9,-0.1 0.1,0.9 c 0,0.1 0.2,2.2 0,5.2 v 0.2 c 0,0.2 0,0.4 -0.1,0.6 v 0.1 c 0,0.1 0,0.2 0,0.3 -0.2,2.1 -0.5,3.4 -0.6,4 v 0.1 c 0,0.2 -0.1,0.3 -0.1,0.4 -0.9,3.8 -2.3,7 -4.2,9.7 -2.5,3.4 -5.8,5.8 -9.8,7.1 l -0.3,0.1 z"
   id="path1" /><g
   id="g1">
		<circle
   class="st0"
   cx="47.5"
   cy="19.700001"
   id="ellipse1"
   r="7.8000002" />
	</g><g
   id="g2">
		<circle
   class="st0"
   cx="103.6"
   cy="104.7"
   id="ellipse2"
   r="7.8000002" />
	</g><path
   class="st0"
   d="m 28.8,111.9 c 4,-1.7 5.8,-6.3 4.1,-10.2 -1.7,-4 -6.3,-5.8 -10.2,-4.1 -4,1.7 -5.8,6.3 -4.1,10.2 1.7,3.9 6.2,5.8 10.2,4.1 z"
   id="path2" /><path
   class="st1"
   d="m 0.9,96.6 c 2,4.6 7.1,7.7 14.8,9 l 0.5,-2.9 C 11.6,102 5.6,100.1 3.6,95.5 1,89.3 6.1,80.5 16.3,71.4 c 6.1,5.2 13.7,10.3 22.5,15.1 0.5,5.3 1.2,10.4 2.2,15.1 -1.9,0.4 -3.8,0.7 -5.6,0.9 l 0.4,2.9 c 1.9,-0.3 3.8,-0.6 5.8,-0.9 4.6,20.7 13.1,34.3 23.1,34.3 10,0 18.6,-13.6 23.1,-34.3 2,0.4 3.9,0.7 5.8,0.9 l 0.4,-2.9 c -1.8,-0.2 -3.7,-0.6 -5.6,-0.9 0.9,-4.7 1.7,-9.8 2.2,-15.1 8.8,-4.8 16.4,-9.9 22.5,-15.1 10.2,9.1 15.3,18 12.7,24.1 -2,4.6 -7.9,6.5 -12.6,7.2 l 0.5,2.9 c 7.7,-1.2 12.8,-4.3 14.8,-9 3.1,-7.4 -2.1,-17.3 -13.1,-27.3 11,-10 16.2,-19.9 13.1,-27.3 C 124.6,32.8 108.7,30.3 87.9,34.2 83.2,13.6 74.7,0 64.7,0 c -5,0 -9.9,3.5 -14,10.1 l 2.5,1.5 c 2.5,-4 6.5,-8.7 11.6,-8.7 8.4,0 16,13 20.2,32 -6.4,1.4 -13.2,3.3 -20.2,5.8 -7,-2.5 -13.9,-4.5 -20.3,-5.8 0.4,-1.9 0.9,-3.7 1.4,-5.5 L 43,28.6 c -0.5,1.8 -1,3.7 -1.4,5.7 C 20.8,30.4 4.9,32.9 0.9,42.1 -2.2,49.4 3,59.4 14,69.3 3,79.3 -2.2,89.3 0.9,96.6 Z M 60.4,42.3 c -2,0.8 -4.1,1.6 -6.2,2.5 -4.3,1.8 -8.4,3.8 -12.3,5.8 0.5,-4.4 1.1,-8.7 1.9,-12.8 5.3,1.1 10.8,2.6 16.6,4.5 z m 27,8.3 c -3.9,-2 -8,-4 -12.3,-5.8 -2.1,-0.9 -4.1,-1.7 -6.2,-2.5 5.7,-1.9 11.2,-3.4 16.5,-4.5 0.9,4 1.6,8.3 2,12.8 z m 4,18.7 c 0,-4.7 -0.2,-9.2 -0.5,-13.6 7.7,4.3 14.4,9 20,13.6 -5.5,4.6 -12.3,9.3 -20,13.6 0.3,-4.4 0.5,-8.9 0.5,-13.6 z m -0.8,-17 C 90.1,47 89.4,42 88.4,37.3 c 19.2,-3.6 34,-1.7 37.4,6 2.6,6.2 -2.5,15 -12.7,24.1 C 107,62.2 99.4,57 90.6,52.3 Z m -5.1,48.6 C 80.1,99.8 74.6,98.2 69,96.4 c 2.1,-0.8 4.1,-1.6 6.2,-2.5 4.3,-1.8 8.4,-3.8 12.3,-5.8 -0.5,4.5 -1.2,8.8 -2,12.8 z m -41.1,2.9 c 6.5,-1.4 13.3,-3.3 20.2,-5.8 6.9,2.5 13.7,4.4 20.2,5.8 -4.2,19 -11.8,32 -20.2,32 -8.3,0 -15.9,-13 -20.2,-32 z M 41.9,88.1 c 3.9,2 8,4 12.3,5.8 2.1,0.9 4.1,1.7 6.2,2.5 -5.6,1.9 -11.2,3.4 -16.5,4.5 -0.9,-4 -1.5,-8.3 -2,-12.8 z m -1,-18.8 c 0,-5.2 0.2,-10.3 0.6,-15.2 4.4,-2.3 9,-4.6 13.8,-6.6 3.1,-1.3 6.3,-2.6 9.3,-3.7 3.1,1.1 6.2,2.3 9.3,3.7 4.8,2.1 9.4,4.3 13.8,6.6 0.4,4.9 0.7,10 0.7,15.3 0,5.2 -0.2,10.3 -0.7,15.3 -4.4,2.3 -9,4.6 -13.8,6.6 -3.1,1.3 -6.2,2.6 -9.3,3.7 C 61.5,93.9 58.4,92.6 55.3,91.3 50.5,89.2 45.9,87 41.5,84.7 41.1,79.7 40.9,74.6 40.9,69.3 Z m -22.4,0 C 24,64.7 30.8,60 38.5,55.7 38.2,60.1 38,64.7 38,69.3 38,74 38.2,78.5 38.5,82.9 30.8,78.6 24,74 18.5,69.3 Z M 3.6,43.2 C 6.9,35.5 21.8,33.6 41,37.2 40.1,42 39.3,47 38.8,52.2 30,57 22.4,62.2 16.2,67.4 6.1,58.3 0.9,49.4 3.6,43.2 Z"
   id="path3" /><g
   id="g35"
   style="fill:#707070;fill-opacity:1">
		<path
   class="st2"
   d="m 157.7,57.3 v -3.9 l 3.1,-0.6 V 32.1 l -3.1,-0.6 v -3.9 h 3.1 11.2 c 2.3,0 4.4,0.4 6.1,1.2 1.7,0.8 3,2 3.9,3.4 0.9,1.4 1.4,3.1 1.4,5.1 0,1.9 -0.5,3.6 -1.4,5.1 -0.9,1.4 -2.2,2.6 -3.9,3.4 -1.7,0.8 -3.7,1.2 -6.1,1.2 h -4.6 v 5.9 l 3.1,0.6 v 3.9 h -12.8 z m 9.7,-15.5 h 4.6 c 1.6,0 2.8,-0.4 3.6,-1.3 0.8,-0.9 1.2,-1.9 1.2,-3.3 0,-1.4 -0.4,-2.5 -1.2,-3.4 -0.8,-0.9 -2,-1.3 -3.6,-1.3 h -4.6 z"
   id="path4"
   style="fill:#707070;fill-opacity:1" />
		<path
   class="st2"
   d="m 195.7,57.8 c -2.2,0 -4.2,-0.5 -5.7,-1.4 -1.6,-0.9 -2.8,-2.3 -3.7,-4 -0.9,-1.7 -1.3,-3.7 -1.3,-5.9 v -0.4 c 0,-2.2 0.4,-4.2 1.3,-5.9 0.9,-1.7 2.1,-3 3.6,-4 1.6,-1 3.5,-1.4 5.7,-1.4 2.2,0 4.1,0.5 5.7,1.4 1.6,1 2.8,2.3 3.6,4 0.8,1.7 1.3,3.7 1.3,5.9 v 0.4 c 0,2.2 -0.4,4.2 -1.3,5.9 -0.9,1.7 -2.1,3 -3.6,4 -1.5,0.9 -3.4,1.4 -5.6,1.4 z m 0,-5 c 1,0 1.7,-0.3 2.3,-0.8 0.6,-0.5 1,-1.2 1.3,-2.2 0.3,-0.9 0.4,-2 0.4,-3.3 v -0.4 c 0,-1.2 -0.1,-2.3 -0.4,-3.3 -0.3,-0.9 -0.7,-1.7 -1.3,-2.2 -0.6,-0.5 -1.4,-0.8 -2.3,-0.8 -1,0 -1.7,0.3 -2.3,0.8 -0.6,0.5 -1,1.3 -1.3,2.2 -0.3,0.9 -0.4,2 -0.4,3.3 v 0.4 c 0,1.3 0.1,2.4 0.4,3.3 0.3,0.9 0.7,1.7 1.3,2.2 0.6,0.5 1.3,0.8 2.3,0.8 z"
   id="path5"
   style="fill:#707070;fill-opacity:1" />
		<path
   class="st2"
   d="m 218.5,57.8 c -1.7,0 -3.3,-0.2 -4.7,-0.5 C 212.3,57 211,56.5 209.7,56 l -0.1,-6.6 h 4.5 l 0.8,3.2 c 0.4,0.2 0.8,0.4 1.3,0.5 0.5,0.1 1.1,0.2 1.8,0.2 1.2,0 2.1,-0.2 2.6,-0.6 0.5,-0.4 0.7,-0.8 0.7,-1.4 0,-0.5 -0.3,-1 -0.8,-1.5 -0.5,-0.4 -1.6,-0.8 -3.3,-1.1 -2.6,-0.5 -4.5,-1.4 -5.8,-2.6 -1.2,-1.2 -1.9,-2.7 -1.9,-4.5 0,-1.2 0.3,-2.4 0.9,-3.4 0.6,-1 1.5,-1.9 2.8,-2.5 1.3,-0.6 3,-1 5.1,-1 1.7,0 3.2,0.2 4.7,0.5 1.5,0.3 2.7,0.7 3.6,1.2 v 6.4 h -4.5 l -0.6,-2.9 c -0.3,-0.2 -0.7,-0.4 -1.2,-0.6 -0.4,-0.1 -0.9,-0.2 -1.5,-0.2 -1,0 -1.7,0.2 -2.2,0.6 -0.5,0.4 -0.7,0.9 -0.7,1.4 0,0.3 0.1,0.7 0.3,1 0.2,0.3 0.6,0.6 1.1,0.9 0.6,0.3 1.4,0.5 2.5,0.8 2.6,0.6 4.6,1.4 5.8,2.4 1.3,1 1.9,2.5 1.9,4.5 0,2.1 -0.8,3.8 -2.3,5.1 -1.5,1.3 -3.7,2 -6.7,2 z"
   id="path6"
   style="fill:#707070;fill-opacity:1" />
		<path
   class="st2"
   d="m 239.1,57.8 c -2.2,0 -3.9,-0.6 -5,-1.8 -1.2,-1.2 -1.7,-3.1 -1.7,-5.6 V 39.8 h -2.9 v -4.6 h 2.9 v -5.4 h 6.5 v 5.4 h 3.9 v 4.6 h -3.9 v 10.6 c 0,0.8 0.2,1.3 0.5,1.7 0.3,0.3 0.8,0.5 1.4,0.5 0.3,0 0.6,0 0.9,-0.1 0.3,0 0.6,-0.1 0.9,-0.1 l 0.5,4.9 c -0.6,0.2 -1.3,0.3 -2,0.4 -0.7,0.1 -1.4,0.1 -2,0.1 z"
   id="path7"
   style="fill:#707070;fill-opacity:1" />
		<path
   class="st2"
   d="M 246.5,47.1 V 42 h 12 v 5.1 z"
   id="path8"
   style="fill:#707070;fill-opacity:1" />
		<path
   class="st2"
   d="m 287.6,63.3 -8.8,-5.8 c -0.5,0.1 -1,0.1 -1.4,0.2 -0.5,0 -1,0.1 -1.4,0.1 -2,0 -3.9,-0.4 -5.6,-1.1 -1.7,-0.8 -3.2,-1.8 -4.4,-3.2 -1.2,-1.4 -2.2,-3 -2.8,-4.8 -0.7,-1.8 -1,-3.8 -1,-6 v -0.5 c 0,-2.2 0.3,-4.2 1,-6 0.7,-1.8 1.6,-3.4 2.8,-4.8 1.2,-1.4 2.7,-2.4 4.4,-3.2 1.7,-0.8 3.5,-1.1 5.6,-1.1 2,0 3.9,0.4 5.6,1.1 1.7,0.8 3.2,1.8 4.4,3.2 1.3,1.4 2.2,3 2.9,4.8 0.7,1.8 1,3.8 1,6 v 0.5 c 0,2.6 -0.5,4.9 -1.5,7 -1,2.1 -2.4,3.9 -4,5.2 l 6.5,3.9 z M 275.9,52.7 c 1.6,0 3,-0.4 4.1,-1.3 1.1,-0.8 1.9,-2 2.5,-3.5 0.6,-1.5 0.8,-3.3 0.8,-5.3 v -0.5 c 0,-2 -0.3,-3.7 -0.9,-5.2 -0.6,-1.5 -1.4,-2.7 -2.5,-3.5 -1.1,-0.8 -2.4,-1.3 -4.1,-1.3 -1.6,0 -3,0.4 -4.1,1.2 -1.1,0.8 -1.9,2 -2.4,3.5 -0.5,1.5 -0.8,3.2 -0.8,5.3 v 0.5 c 0,2 0.3,3.8 0.8,5.3 0.5,1.5 1.3,2.7 2.4,3.5 1.1,0.8 2.6,1.3 4.2,1.3 z"
   id="path9"
   style="fill:#707070;fill-opacity:1" />
		<path
   class="st2"
   d="m 301.4,57.8 c -2.3,0 -4.1,-0.7 -5.5,-2.2 -1.3,-1.5 -2,-3.7 -2,-6.8 v -9 l -2.4,-0.6 v -3.9 h 2.4 6.6 v 13.6 c 0,1.3 0.2,2.3 0.7,3 0.5,0.6 1.3,0.9 2.3,0.9 0.7,0 1.4,-0.1 2,-0.4 0.6,-0.3 1.1,-0.7 1.5,-1.2 V 39.7 l -2.5,-0.6 v -3.9 h 2.5 6.6 v 17.6 l 2.7,0.6 v 3.9 h -8.5 l -0.4,-2.7 c -0.7,1 -1.6,1.8 -2.6,2.3 -1,0.6 -2.1,0.9 -3.4,0.9 z"
   id="path10"
   style="fill:#707070;fill-opacity:1" />
		<path
   class="st2"
   d="m 325.9,57.8 c -2.2,0 -3.9,-0.6 -5.3,-1.8 -1.3,-1.2 -2,-2.8 -2,-4.8 0,-1.4 0.4,-2.6 1.1,-3.7 0.7,-1.1 1.9,-1.9 3.3,-2.5 1.4,-0.6 3.3,-0.9 5.6,-0.9 h 2.6 v -1.5 c 0,-1 -0.3,-1.8 -0.9,-2.4 -0.6,-0.6 -1.4,-1 -2.6,-1 -0.6,0 -1.1,0.1 -1.5,0.2 -0.5,0.1 -0.9,0.3 -1.2,0.6 l -0.5,2.9 H 320 L 319.9,37 c 1.2,-0.6 2.5,-1.1 3.8,-1.5 1.4,-0.4 2.9,-0.6 4.6,-0.6 2.9,0 5.3,0.7 7,2 1.7,1.4 2.6,3.3 2.6,5.9 v 8.6 c 0,0.3 0,0.6 0,0.9 0,0.3 0,0.6 0.1,0.9 l 2.3,0.4 v 3.9 h -7.9 c -0.2,-0.3 -0.3,-0.7 -0.5,-1.1 -0.2,-0.4 -0.3,-0.8 -0.4,-1.3 -0.7,0.9 -1.5,1.5 -2.4,2 -0.8,0.4 -1.9,0.7 -3.2,0.7 z m 1.9,-4.8 c 0.7,0 1.3,-0.1 2,-0.4 0.6,-0.3 1.2,-0.7 1.6,-1.2 V 48 h -2.6 c -1.1,0 -2,0.3 -2.6,0.8 -0.6,0.5 -0.9,1.2 -0.9,1.9 0,0.7 0.2,1.3 0.7,1.7 0.4,0.4 1,0.6 1.8,0.6 z"
   id="path11"
   style="fill:#707070;fill-opacity:1" />
		<path
   class="st2"
   d="m 341.9,57.3 v -3.9 l 2.7,-0.6 V 39.7 l -3.1,-0.6 v -3.9 h 9.3 l 0.2,3.1 c 0.7,-1.1 1.6,-2 2.7,-2.6 1.1,-0.6 2.3,-0.9 3.7,-0.9 2.1,0 3.8,0.7 5,2.1 1.2,1.4 1.8,3.6 1.8,6.7 v 9.3 l 2.7,0.6 v 3.9 h -11.7 v -3.9 l 2.3,-0.6 v -9.3 c 0,-1.3 -0.3,-2.3 -0.8,-2.8 -0.5,-0.6 -1.3,-0.8 -2.3,-0.8 -0.8,0 -1.4,0.1 -2,0.4 -0.6,0.3 -1,0.7 -1.4,1.3 v 11.2 l 2.1,0.6 v 3.9 h -11.2 z"
   id="path12"
   style="fill:#707070;fill-opacity:1" />
		<path
   class="st2"
   d="m 377,57.8 c -2.2,0 -3.9,-0.6 -5,-1.8 -1.2,-1.2 -1.7,-3.1 -1.7,-5.6 V 39.8 h -2.9 v -4.6 h 2.9 v -5.4 h 6.5 v 5.4 h 3.9 v 4.6 h -3.9 v 10.6 c 0,0.8 0.2,1.3 0.5,1.7 0.3,0.3 0.8,0.5 1.4,0.5 0.3,0 0.6,0 0.9,-0.1 0.3,0 0.6,-0.1 0.9,-0.1 l 0.5,4.9 c -0.6,0.2 -1.3,0.3 -2,0.4 -0.7,0 -1.3,0.1 -2,0.1 z"
   id="path13"
   style="fill:#707070;fill-opacity:1" />
		<path
   class="st2"
   d="m 392.4,57.8 c -2.3,0 -4.1,-0.7 -5.5,-2.2 -1.3,-1.5 -2,-3.7 -2,-6.8 v -9 l -2.4,-0.6 v -3.9 h 2.4 6.6 v 13.6 c 0,1.3 0.2,2.3 0.7,3 0.5,0.6 1.3,0.9 2.3,0.9 0.7,0 1.4,-0.1 2,-0.4 0.6,-0.3 1.1,-0.7 1.5,-1.2 V 39.7 l -2.5,-0.6 v -3.9 h 2.5 6.6 v 17.6 l 2.7,0.6 v 3.9 h -8.5 l -0.4,-2.7 c -0.7,1 -1.6,1.8 -2.6,2.3 -1,0.6 -2.1,0.9 -3.4,0.9 z"
   id="path14"
   style="fill:#707070;fill-opacity:1" />
		<path
   class="st2"
   d="m 409.1,57.3 v -3.9 l 2.8,-0.6 V 39.7 l -3.2,-0.6 v -3.9 h 9.3 l 0.2,2.9 c 0.7,-1.1 1.6,-1.9 2.7,-2.5 1.1,-0.6 2.3,-0.9 3.7,-0.9 1.4,0 2.6,0.3 3.6,0.9 1,0.6 1.8,1.5 2.3,2.8 0.7,-1.2 1.6,-2.1 2.6,-2.7 1.1,-0.6 2.3,-1 3.8,-1 2.2,0 3.9,0.7 5.1,2.2 1.2,1.5 1.9,3.7 1.9,6.7 v 9.1 l 2.8,0.6 v 3.9 H 435 v -3.9 l 2.3,-0.6 v -9.1 c 0,-1.5 -0.2,-2.5 -0.7,-3 -0.5,-0.5 -1.1,-0.8 -2,-0.8 -0.8,0 -1.5,0.2 -2,0.6 -0.6,0.4 -1,0.9 -1.4,1.6 v 10.8 l 2.1,0.6 v 3.9 h -10.8 v -3.9 l 2.1,-0.6 v -9.1 c 0,-1.4 -0.2,-2.4 -0.7,-3 -0.5,-0.6 -1.2,-0.8 -2.1,-0.8 -0.7,0 -1.4,0.1 -1.9,0.4 -0.6,0.3 -1,0.7 -1.4,1.3 v 11.3 l 2.4,0.6 v 3.9 h -11.8 z"
   id="path15"
   style="fill:#707070;fill-opacity:1" />
		<path
   class="st2"
   d="m 172.1,103.1 c -2.9,0 -5.4,-0.6 -7.6,-1.8 -2.2,-1.2 -3.9,-2.9 -5.1,-5.1 -1.2,-2.2 -1.8,-4.8 -1.8,-7.9 v -1.2 c 0,-2.9 0.6,-5.4 1.7,-7.6 1.1,-2.2 2.8,-4 4.9,-5.2 2.1,-1.3 4.7,-1.9 7.6,-1.9 2,0 4,0.3 5.8,0.8 1.8,0.6 3.5,1.5 5,2.7 v 7.4 h -4.9 L 177,78.8 c -0.5,-0.3 -1,-0.6 -1.5,-0.8 -0.5,-0.2 -1.1,-0.4 -1.7,-0.5 -0.6,-0.1 -1.2,-0.2 -1.9,-0.2 -1.6,0 -3,0.4 -4.2,1.2 -1.2,0.8 -2.1,1.9 -2.7,3.3 -0.6,1.4 -1,3.2 -1,5.2 v 1.2 c 0,2 0.3,3.7 1,5.1 0.7,1.5 1.6,2.6 2.8,3.4 1.2,0.8 2.6,1.2 4.3,1.2 0.8,0 1.7,-0.1 2.5,-0.3 0.8,-0.2 1.6,-0.4 2.4,-0.7 l 0.7,-4.2 h 4.8 v 7.3 c -1.2,0.8 -2.7,1.5 -4.4,2 -1.7,0.8 -3.8,1.1 -6,1.1 z"
   id="path16"
   style="fill:#707070;fill-opacity:1" />
		<path
   class="st2"
   d="m 185.8,102.6 v -3.9 l 2.7,-0.6 V 85 l -3.1,-0.6 v -3.9 h 9.3 l 0.2,2.7 v 0.5 c 0.5,-1.2 1.2,-2.2 1.9,-2.8 0.8,-0.6 1.7,-0.9 2.8,-0.9 0.3,0 0.7,0 1.1,0.1 0.4,0.1 0.8,0.1 1.2,0.2 l -0.7,6 -3,-0.1 c -0.8,0 -1.4,0.1 -1.9,0.3 -0.5,0.3 -0.9,0.6 -1.3,1.2 V 98 l 2.7,0.6 v 3.9 h -11.9 z"
   id="path17"
   style="fill:#707070;fill-opacity:1" />
		<path
   class="st2"
   d="m 210.4,111.6 c -0.6,0 -1.1,0 -1.8,-0.1 -0.6,-0.1 -1.2,-0.2 -1.8,-0.4 l 0.8,-4.8 c 0.3,0.1 0.5,0.1 0.8,0.1 0.3,0 0.6,0.1 0.8,0.1 0.9,0 1.6,-0.2 2.3,-0.6 0.6,-0.4 1.1,-1 1.3,-1.7 l 0.3,-1.1 -7.3,-18.3 -2.8,-0.4 v -3.9 h 12.5 v 3.9 l -2.7,0.4 3.2,9.4 0.2,0.7 h 0.1 l 3.8,-10.1 -2.6,-0.3 V 80.6 H 229 v 3.9 l -2.6,0.3 -8.4,21.2 c -0.4,1 -0.9,1.9 -1.6,2.8 -0.6,0.9 -1.5,1.6 -2.5,2.1 -0.7,0.4 -2,0.7 -3.5,0.7 z"
   id="path18"
   style="fill:#707070;fill-opacity:1" />
		<path
   class="st2"
   d="m 230.8,111.2 v -3.9 l 2.8,-0.6 V 85 l -3.2,-0.6 v -3.9 h 9.3 L 240,83 c 0.6,-0.9 1.4,-1.7 2.3,-2.2 0.9,-0.5 2,-0.8 3.2,-0.8 1.8,0 3.3,0.5 4.5,1.5 1.3,1 2.2,2.3 2.9,4.1 0.7,1.7 1,3.8 1,6.1 v 0.4 c 0,2.2 -0.3,4.1 -1,5.8 -0.7,1.7 -1.7,2.9 -2.9,3.8 -1.3,0.9 -2.8,1.4 -4.6,1.4 -1.1,0 -2.2,-0.2 -3,-0.6 -0.8,-0.4 -1.6,-1 -2.2,-1.9 v 6 l 2.7,0.6 v 3.9 z m 12.6,-13.1 c 1.4,0 2.4,-0.5 3,-1.6 0.6,-1.1 0.9,-2.5 0.9,-4.4 v -0.4 c 0,-1.3 -0.1,-2.4 -0.4,-3.4 -0.3,-1 -0.7,-1.7 -1.3,-2.3 -0.6,-0.5 -1.3,-0.8 -2.3,-0.8 -0.7,0 -1.3,0.2 -1.9,0.5 -0.6,0.3 -1,0.8 -1.3,1.4 v 9.4 c 0.3,0.5 0.8,1 1.3,1.2 0.7,0.2 1.3,0.4 2,0.4 z"
   id="path19"
   style="fill:#707070;fill-opacity:1" />
		<path
   class="st2"
   d="m 265.5,103.1 c -2.2,0 -3.9,-0.6 -5,-1.8 -1.2,-1.2 -1.7,-3.1 -1.7,-5.6 V 85.1 h -2.9 v -4.6 h 2.9 V 75 h 6.5 v 5.4 h 3.9 V 85 h -3.9 v 10.6 c 0,0.8 0.2,1.3 0.5,1.7 0.3,0.3 0.8,0.5 1.4,0.5 0.3,0 0.6,0 0.9,-0.1 0.3,0 0.6,-0.1 0.9,-0.1 l 0.5,4.9 c -0.6,0.2 -1.3,0.3 -2,0.4 -0.7,0.1 -1.4,0.2 -2,0.2 z"
   id="path20"
   style="fill:#707070;fill-opacity:1" />
		<path
   class="st2"
   d="m 281.8,103.1 c -2.2,0 -4.2,-0.5 -5.7,-1.4 -1.6,-0.9 -2.8,-2.3 -3.7,-4 -0.8,-1.7 -1.3,-3.7 -1.3,-5.9 v -0.4 c 0,-2.2 0.4,-4.2 1.3,-5.9 0.8,-1.7 2.1,-3 3.6,-4 1.6,-1 3.5,-1.4 5.7,-1.4 2.2,0 4.1,0.5 5.7,1.4 1.6,1 2.8,2.3 3.6,4 0.8,1.7 1.3,3.7 1.3,5.9 v 0.4 c 0,2.2 -0.4,4.2 -1.3,5.9 -0.8,1.7 -2.1,3 -3.6,4 -1.5,0.9 -3.4,1.4 -5.6,1.4 z m 0,-5 c 1,0 1.7,-0.3 2.3,-0.8 0.6,-0.5 1,-1.2 1.3,-2.2 0.3,-0.9 0.4,-2 0.4,-3.3 v -0.4 c 0,-1.2 -0.1,-2.3 -0.4,-3.3 -0.3,-0.9 -0.7,-1.7 -1.3,-2.2 -0.6,-0.5 -1.4,-0.8 -2.3,-0.8 -1,0 -1.7,0.3 -2.3,0.8 -0.6,0.5 -1,1.3 -1.3,2.2 -0.3,0.9 -0.4,2 -0.4,3.3 v 0.4 c 0,1.3 0.1,2.4 0.4,3.3 0.3,0.9 0.7,1.7 1.3,2.2 0.5,0.5 1.3,0.8 2.3,0.8 z"
   id="path21"
   style="fill:#707070;fill-opacity:1" />
		<path
   class="st2"
   d="m 304.7,111.6 c -1.1,0 -2.4,-0.1 -3.9,-0.4 -1.4,-0.3 -2.7,-0.7 -3.8,-1.2 l 1.1,-4.6 c 1,0.4 2.1,0.8 3.1,1 1.1,0.2 2.1,0.3 3,0.3 1.5,0 2.7,-0.4 3.4,-1.3 0.7,-0.9 1.1,-2 1.1,-3.5 v -1.3 c -0.6,0.8 -1.4,1.4 -2.2,1.8 -0.8,0.4 -1.8,0.6 -2.9,0.6 -1.8,0 -3.3,-0.5 -4.6,-1.4 -1.3,-0.9 -2.3,-2.2 -3,-3.8 -0.7,-1.7 -1,-3.6 -1,-5.8 v -0.4 c 0,-2.3 0.3,-4.3 1,-6.1 0.7,-1.7 1.6,-3.1 2.9,-4.1 1.3,-1 2.8,-1.5 4.5,-1.5 1.3,0 2.4,0.3 3.4,0.8 1,0.5 1.7,1.3 2.4,2.4 l 0.4,-2.8 h 5.8 v 21.4 c 0,2 -0.4,3.7 -1.3,5.1 -0.9,1.5 -2.1,2.6 -3.7,3.4 -1.6,1 -3.5,1.4 -5.7,1.4 z M 305.5,98 c 0.7,0 1.3,-0.1 1.9,-0.4 0.6,-0.3 1,-0.7 1.4,-1.2 V 87 c -0.3,-0.6 -0.8,-1 -1.4,-1.3 -0.6,-0.3 -1.2,-0.5 -1.9,-0.5 -0.9,0 -1.7,0.3 -2.3,0.8 -0.6,0.5 -1,1.3 -1.3,2.3 -0.3,1 -0.4,2.1 -0.4,3.4 v 0.4 c 0,1.9 0.3,3.3 0.9,4.3 0.6,1 1.7,1.6 3.1,1.6 z m 9.1,-12.9 -2.9,-4.6 h 6.3 v 3.9 z"
   id="path22"
   style="fill:#707070;fill-opacity:1" />
		<path
   class="st2"
   d="M 320.3,102.6 V 98.7 L 323,98.1 V 85 l -3.1,-0.6 v -3.9 h 9.3 l 0.2,2.7 v 0.5 c 0.5,-1.2 1.2,-2.2 1.9,-2.8 0.8,-0.6 1.7,-0.9 2.8,-0.9 0.3,0 0.7,0 1.1,0.1 0.4,0.1 0.8,0.1 1.2,0.2 l -0.7,6 -3,-0.1 c -0.8,0 -1.4,0.1 -1.9,0.3 -0.5,0.3 -0.9,0.6 -1.3,1.2 V 98 l 2.7,0.6 v 3.9 h -11.9 z"
   id="path23"
   style="fill:#707070;fill-opacity:1" />
		<path
   class="st2"
   d="m 345.1,103.1 c -2.2,0 -3.9,-0.6 -5.3,-1.8 -1.3,-1.2 -2,-2.8 -2,-4.8 0,-1.4 0.4,-2.6 1.1,-3.7 0.7,-1.1 1.9,-1.9 3.3,-2.5 1.5,-0.6 3.3,-0.9 5.6,-0.9 h 2.6 v -1.5 c 0,-1 -0.3,-1.8 -0.9,-2.4 -0.6,-0.6 -1.4,-1 -2.6,-1 -0.6,0 -1.1,0.1 -1.5,0.2 -0.5,0.1 -0.9,0.3 -1.2,0.6 l -0.5,2.9 H 339 l -0.1,-5.9 c 1.2,-0.6 2.5,-1.1 3.8,-1.5 1.4,-0.4 2.9,-0.6 4.6,-0.6 2.9,0 5.3,0.7 7,2 1.7,1.4 2.6,3.3 2.6,5.9 v 8.6 c 0,0.3 0,0.6 0,0.9 0,0.3 0,0.6 0.1,0.9 l 2.3,0.4 v 3.9 h -7.9 c -0.2,-0.3 -0.3,-0.7 -0.5,-1.1 -0.2,-0.4 -0.3,-0.8 -0.4,-1.3 -0.7,0.9 -1.5,1.5 -2.4,2 -0.7,0.4 -1.8,0.7 -3,0.7 z m 1.8,-4.8 c 0.7,0 1.3,-0.1 2,-0.4 0.6,-0.3 1.2,-0.7 1.6,-1.2 v -3.4 h -2.6 c -1.1,0 -2,0.3 -2.6,0.8 -0.6,0.5 -0.9,1.2 -0.9,1.9 0,0.7 0.2,1.3 0.7,1.7 0.4,0.4 1.1,0.6 1.8,0.6 z"
   id="path24"
   style="fill:#707070;fill-opacity:1" />
		<path
   class="st2"
   d="m 361.3,111.2 v -3.9 l 2.8,-0.6 V 85 l -3.2,-0.6 v -3.9 h 9.3 l 0.3,2.5 c 0.6,-0.9 1.4,-1.7 2.3,-2.2 0.9,-0.5 2,-0.8 3.2,-0.8 1.8,0 3.3,0.5 4.5,1.5 1.3,1 2.2,2.3 2.9,4.1 0.7,1.7 1,3.8 1,6.1 v 0.4 c 0,2.2 -0.3,4.1 -1,5.8 -0.7,1.7 -1.7,2.9 -2.9,3.8 -1.3,0.9 -2.8,1.4 -4.6,1.4 -1.1,0 -2.2,-0.2 -3,-0.6 -0.9,-0.4 -1.6,-1 -2.2,-1.9 v 6 l 2.7,0.6 v 3.9 z M 374,98.1 c 1.4,0 2.4,-0.5 3,-1.6 0.6,-1.1 0.9,-2.5 0.9,-4.4 v -0.4 c 0,-1.3 -0.1,-2.4 -0.4,-3.4 -0.3,-1 -0.7,-1.7 -1.3,-2.3 -0.6,-0.5 -1.3,-0.8 -2.3,-0.8 -0.7,0 -1.3,0.2 -1.9,0.5 -0.6,0.3 -1,0.8 -1.3,1.4 v 9.4 c 0.3,0.5 0.8,1 1.3,1.2 0.6,0.2 1.2,0.4 2,0.4 z"
   id="path25"
   style="fill:#707070;fill-opacity:1" />
		<path
   class="st2"
   d="M 386.3,102.6 V 98.7 L 389,98.1 V 75.2 l -3.2,-0.6 v -3.9 h 9.7 v 12.6 c 0.7,-1 1.5,-1.8 2.5,-2.4 1,-0.6 2.2,-0.8 3.5,-0.8 2.2,0 3.9,0.8 5.2,2.3 1.3,1.5 1.9,3.8 1.9,7 v 8.8 l 2.7,0.6 v 3.9 h -11.7 v -3.9 l 2.3,-0.6 v -8.9 c 0,-1.5 -0.3,-2.6 -0.8,-3.2 -0.5,-0.6 -1.3,-0.9 -2.4,-0.9 -0.7,0 -1.4,0.1 -2,0.4 -0.6,0.3 -1.1,0.7 -1.4,1.3 v 11.3 l 2.4,0.6 v 3.9 h -11.4 z"
   id="path26"
   style="fill:#707070;fill-opacity:1" />
		<path
   class="st2"
   d="m 418.5,111.6 c -0.6,0 -1.1,0 -1.8,-0.1 -0.6,-0.1 -1.2,-0.2 -1.8,-0.4 l 0.8,-4.8 c 0.3,0.1 0.5,0.1 0.8,0.1 0.3,0 0.6,0.1 0.8,0.1 0.9,0 1.6,-0.2 2.3,-0.6 0.6,-0.4 1.1,-1 1.3,-1.7 l 0.3,-1.1 -7.2,-18.3 -2.8,-0.4 v -3.9 h 12.5 v 3.9 l -2.7,0.4 3.2,9.4 0.2,0.7 h 0.1 l 3.8,-10.1 -2.6,-0.3 v -3.9 h 11.5 v 3.9 l -2.6,0.3 -8.4,21.2 c -0.4,1 -0.9,1.9 -1.6,2.8 -0.6,0.9 -1.5,1.6 -2.5,2.1 -0.9,0.4 -2.1,0.7 -3.6,0.7 z"
   id="path27"
   style="fill:#707070;fill-opacity:1" />
		<path
   class="st2"
   d="m 448.5,102.6 v -3.9 l 2.1,-0.3 9.2,-25.6 h 6.9 l 9.2,25.6 2.1,0.3 v 3.9 h -10.7 v -3.9 l 2,-0.4 -1.1,-3.7 h -10 l -1.1,3.7 2,0.4 v 3.9 z M 459.7,90 h 7.1 l -3.2,-9.6 -0.3,-1 h -0.1 l -0.3,1.1 z"
   id="path28"
   style="fill:#707070;fill-opacity:1" />
		<path
   class="st2"
   d="m 479.5,102.6 v -3.9 l 2.8,-0.6 V 75.2 l -3.2,-0.6 v -3.9 h 9.8 v 27.4 l 2.7,0.6 v 3.9 z"
   id="path29"
   style="fill:#707070;fill-opacity:1" />
		<path
   class="st2"
   d="m 492.9,102.6 v -3.9 l 2.8,-0.6 V 75.2 l -3.2,-0.6 v -3.9 h 9.8 v 27.4 l 2.7,0.6 v 3.9 z"
   id="path30"
   style="fill:#707070;fill-opacity:1" />
		<path
   class="st2"
   d="m 506.5,102.6 v -3.9 l 2.7,-0.6 V 85 l -3.1,-0.6 v -3.9 h 9.7 v 17.6 l 2.7,0.6 v 3.9 z M 509,76 v -5.3 h 6.8 V 76 Z"
   id="path31"
   style="fill:#707070;fill-opacity:1" />
		<path
   class="st2"
   d="m 527.8,103.1 c -2.2,0 -3.9,-0.6 -5.3,-1.8 -1.3,-1.2 -2,-2.8 -2,-4.8 0,-1.4 0.4,-2.6 1.1,-3.7 0.7,-1.1 1.9,-1.9 3.3,-2.5 1.5,-0.6 3.3,-0.9 5.6,-0.9 h 2.6 v -1.5 c 0,-1 -0.3,-1.8 -0.9,-2.4 -0.6,-0.6 -1.4,-1 -2.6,-1 -0.6,0 -1.1,0.1 -1.5,0.2 -0.5,0.1 -0.9,0.3 -1.2,0.6 l -0.5,2.9 h -4.7 l -0.1,-5.9 c 1.2,-0.6 2.5,-1.1 3.8,-1.5 1.4,-0.4 2.9,-0.6 4.6,-0.6 2.9,0 5.3,0.7 7,2 1.7,1.4 2.6,3.3 2.6,5.9 v 8.6 c 0,0.3 0,0.6 0,0.9 0,0.3 0,0.6 0.1,0.9 l 2.3,0.4 v 3.9 h -7.9 c -0.2,-0.3 -0.3,-0.7 -0.5,-1.1 -0.2,-0.4 -0.3,-0.8 -0.4,-1.3 -0.7,0.9 -1.5,1.5 -2.4,2 -0.6,0.4 -1.7,0.7 -3,0.7 z m 1.9,-4.8 c 0.7,0 1.3,-0.1 2,-0.4 0.6,-0.3 1.2,-0.7 1.6,-1.2 v -3.4 h -2.6 c -1.1,0 -2,0.3 -2.6,0.8 -0.6,0.5 -0.9,1.2 -0.9,1.9 0,0.7 0.2,1.3 0.7,1.7 0.4,0.4 1,0.6 1.8,0.6 z"
   id="path32"
   style="fill:#707070;fill-opacity:1" />
		<path
   class="st2"
   d="m 543.7,102.6 v -3.9 l 2.7,-0.6 V 85 l -3.1,-0.6 v -3.9 h 9.3 l 0.2,3.1 c 0.7,-1.1 1.6,-2 2.7,-2.6 1.1,-0.6 2.3,-0.9 3.7,-0.9 2.1,0 3.8,0.7 5,2.1 1.2,1.4 1.8,3.6 1.8,6.7 v 9.3 l 2.7,0.6 v 3.9 H 557 v -3.9 l 2.3,-0.6 v -9.3 c 0,-1.3 -0.3,-2.3 -0.8,-2.8 -0.5,-0.6 -1.3,-0.8 -2.3,-0.8 -0.8,0 -1.4,0.1 -2,0.4 -0.6,0.3 -1,0.7 -1.4,1.3 v 11.2 l 2.1,0.6 v 3.9 z"
   id="path33"
   style="fill:#707070;fill-opacity:1" />
		<path
   class="st2"
   d="m 580.9,103.1 c -2.2,0 -4,-0.5 -5.6,-1.4 -1.6,-1 -2.8,-2.3 -3.6,-4 -0.8,-1.7 -1.3,-3.6 -1.3,-5.8 v -0.6 c 0,-2.2 0.4,-4.1 1.3,-5.8 0.9,-1.7 2.1,-3 3.6,-4 1.6,-1 3.4,-1.4 5.5,-1.4 2,0 3.8,0.3 5.3,0.9 1.5,0.6 2.7,1.3 3.5,2.1 l -0.1,6.7 h -4.9 l -0.8,-4 c -0.3,-0.3 -0.6,-0.5 -1.1,-0.7 -0.4,-0.2 -0.9,-0.3 -1.3,-0.3 -1.1,0 -1.9,0.2 -2.6,0.7 -0.7,0.5 -1.1,1.2 -1.4,2.2 -0.3,1 -0.5,2.1 -0.5,3.6 v 0.6 c 0,1.5 0.2,2.7 0.6,3.6 0.4,0.9 0.9,1.6 1.5,2 0.6,0.4 1.2,0.6 1.9,0.6 1,0 1.7,-0.2 2.3,-0.7 0.6,-0.5 1,-1.2 1.2,-2.1 h 5.6 l 0.1,0.1 c -0.3,1.7 -0.8,3.1 -1.5,4.2 -0.7,1.2 -1.7,2 -2.9,2.6 -1.2,0.6 -2.8,0.9 -4.8,0.9 z"
   id="path34"
   style="fill:#707070;fill-opacity:1" />
		<path
   class="st2"
   d="m 603.2,103.1 c -2.2,0 -4,-0.5 -5.6,-1.4 -1.6,-0.9 -2.8,-2.2 -3.7,-3.9 -0.9,-1.7 -1.3,-3.5 -1.3,-5.6 v -0.8 c 0,-2.2 0.4,-4.2 1.2,-5.9 0.8,-1.7 2,-3.1 3.5,-4 1.5,-0.9 3.3,-1.5 5.4,-1.4 2,0 3.7,0.4 5.1,1.2 1.4,0.8 2.4,1.9 3.1,3.4 0.7,1.5 1.1,3.3 1.1,5.5 v 3.5 h -12.6 v 0.1 c 0.1,0.8 0.3,1.6 0.7,2.2 0.4,0.6 0.9,1.2 1.6,1.5 0.7,0.4 1.5,0.6 2.5,0.6 1,0 2,-0.1 2.9,-0.4 0.9,-0.2 1.9,-0.6 2.8,-1.1 l 1.6,4 c -1,0.7 -2.1,1.3 -3.5,1.8 -1.4,0.4 -3,0.7 -4.8,0.7 z m -3.8,-13.7 h 6.5 v -0.5 c 0,-0.8 -0.1,-1.5 -0.3,-2.1 -0.2,-0.6 -0.5,-1 -1,-1.4 -0.5,-0.3 -1.1,-0.5 -1.8,-0.5 -0.8,0 -1.4,0.2 -1.9,0.6 -0.5,0.4 -0.9,0.9 -1.1,1.6 -0.3,0.7 -0.4,1.4 -0.4,2.3 z"
   id="path35"
   style="fill:#707070;fill-opacity:1" />
	</g>
</svg>
