<?xml version="1.0" encoding="UTF-8" standalone="no"?>
<svg
   version="1.1"
   width="3223.9612"
   height="3223.9612"
   viewBox="0 0 3223.9613 3223.961"
   id="svg5"
   sodipodi:docname="quantum-future-limited.svg"
   inkscape:version="1.3.2 (091e20ef0f, 2023-11-25)"
   inkscape:export-filename="quantum-future-limited.png"
   inkscape:export-xdpi="96"
   inkscape:export-ydpi="96"
   xmlns:inkscape="http://www.inkscape.org/namespaces/inkscape"
   xmlns:sodipodi="http://sodipodi.sourceforge.net/DTD/sodipodi-0.dtd"
   xmlns:xlink="http://www.w3.org/1999/xlink"
   xmlns="http://www.w3.org/2000/svg"
   xmlns:svg="http://www.w3.org/2000/svg">
  <defs
     id="defs5">
    <linearGradient
       inkscape:collect="always"
       xlink:href="#SvgjsLinearGradient1379"
       id="linearGradient1"
       gradientTransform="scale(0.93411547,1.0705315)"
       x1="19.800724"
       y1="2.3951252"
       x2="48.698475"
       y2="2.3951252"
       gradientUnits="userSpaceOnUse" />
    <linearGradient
       inkscape:collect="always"
       xlink:href="#SvgjsLinearGradient1379"
       id="linearGradient2"
       gradientTransform="scale(0.93414283,1.0705001)"
       x1="19.814957"
       y1="28.491356"
       x2="48.707756"
       y2="28.491356"
       gradientUnits="userSpaceOnUse" />
    <linearGradient
       inkscape:collect="always"
       xlink:href="#SvgjsLinearGradient1379"
       id="linearGradient3"
       gradientTransform="scale(1.0715282,0.93324658)"
       x1="28.464022"
       y1="19.822954"
       x2="57.384884"
       y2="19.822954"
       gradientUnits="userSpaceOnUse" />
    <linearGradient
       inkscape:collect="always"
       xlink:href="#SvgjsLinearGradient1379"
       id="linearGradient4"
       gradientTransform="scale(1.0717193,0.93308018)"
       x1="2.3324828"
       y1="19.837524"
       x2="31.258186"
       y2="19.837524"
       gradientUnits="userSpaceOnUse" />
    <linearGradient
       inkscape:collect="always"
       xlink:href="#SvgjsLinearGradient1379"
       id="linearGradient5"
       gradientTransform="scale(1.0010532,0.99894787)"
       x1="2.4971368"
       y1="2.5667574"
       x2="61.424824"
       y2="2.5667574"
       gradientUnits="userSpaceOnUse" />
    <linearGradient
       inkscape:collect="always"
       xlink:href="#SvgjsLinearGradient1383"
       id="linearGradient6"
       gradientTransform="scale(3.6676511,0.27265407)"
       x1="0.33809105"
       y1="42.838165"
       x2="110.51433"
       y2="42.838165"
       gradientUnits="userSpaceOnUse" />
    <linearGradient
       inkscape:collect="always"
       xlink:href="#SvgjsLinearGradient1383"
       id="linearGradient7"
       gradientTransform="scale(3.6676511,0.27265407)"
       x1="0.33809105"
       y1="42.838165"
       x2="110.51433"
       y2="42.838165"
       gradientUnits="userSpaceOnUse" />
  </defs>
  <sodipodi:namedview
     id="namedview5"
     pagecolor="#ffffff"
     bordercolor="#000000"
     borderopacity="0.25"
     inkscape:showpageshadow="2"
     inkscape:pageopacity="0.0"
     inkscape:pagecheckerboard="0"
     inkscape:deskcolor="#d1d1d1"
     inkscape:zoom="0.22615992"
     inkscape:cx="1998.5858"
     inkscape:cy="1775.2925"
     inkscape:window-width="2637"
     inkscape:window-height="1293"
     inkscape:window-x="26"
     inkscape:window-y="23"
     inkscape:window-maximized="0"
     inkscape:current-layer="svg5" />
  <g
     transform="matrix(8.5714286,0,0,8.5714286,113.04125,966.41966)"
     id="g5">
    <defs
       id="SvgjsDefs1374">
      <linearGradient
         id="SvgjsLinearGradient1379">
        <stop
           id="SvgjsStop1380"
           stop-color="#905e26"
           offset="0" />
        <stop
           id="SvgjsStop1381"
           stop-color="#f5ec9b"
           offset="0.5" />
        <stop
           id="SvgjsStop1382"
           stop-color="#905e26"
           offset="1" />
      </linearGradient>
      <linearGradient
         id="SvgjsLinearGradient1383">
        <stop
           id="SvgjsStop1384"
           stop-color="#905e26"
           offset="0" />
        <stop
           id="SvgjsStop1385"
           stop-color="#f5ec9b"
           offset="0.5" />
        <stop
           id="SvgjsStop1386"
           stop-color="#905e26"
           offset="1" />
      </linearGradient>
    </defs>
    <g
       id="SvgjsG1375"
       featureKey="symbolFeature-0"
       transform="matrix(1.3484634,0,0,1.3484634,131.62909,-3.457535)"
       fill="url(#SvgjsLinearGradient1379)"
       style="fill:url(#linearGradient5)">
      <title
         id="title1">1</title>
      <path
         d="m 27.5,16 a 4.5012,4.5012 0 0 1 8.97,-0.4999 L 45.49,15.5 c -1.23167,-17.26095 -25.71278,-17.23493 -26.98,1.1e-4 -0.03087,2.58515 0.0012,15.6598 -0.01,17.9999 h 9 z"
         id="path1"
         style="fill:url(#linearGradient1)" />
      <path
         d="M 36.5,33.5 V 48 a 4.06691,4.06691 0 0 1 -0.03,0.5 4.5031,4.5031 0 0 1 -8.94,-1.3e-4 L 18.51,48.5 C 19.85591,66.05371 44.80652,65.58564 45.5,47.99989 V 30.5 h -9 z"
         id="path2"
         style="fill:url(#linearGradient2)" />
      <path
         d="M 48,18.5 H 30.5 v 9 H 48 a 4.50118,4.50118 0 0 1 0.4999,8.97 l 1e-4,9.02 a 13.3933,13.3933 0 0 0 9.05,-3.94 C 66.02428,33.21013 59.89859,18.42355 48,18.5 Z"
         id="path3"
         style="fill:url(#linearGradient3)" />
      <path
         d="M 33.5,36.5 H 16 A 4.49889,4.49889 0 0 1 15.5,27.53 V 18.51 A 13.49962,13.49962 0 0 0 16,45.5 h 17.5 z"
         id="path4"
         style="fill:url(#linearGradient4)" />
    </g>
    <g
       id="SvgjsG1376"
       featureKey="nameFeature-0"
       transform="matrix(0.86614794,0,0,0.86614794,-1.0740228,88.883394)"
       fill="url(#SvgjsLinearGradient1383)"
       style="fill:url(#linearGradient7)">
      <path
         d="M 1.24,33.28 V 18.72 c 0,-4.48 2.36,-7.04 6.68,-7.04 4.32,0 6.68,2.56 6.68,7.04 v 14.56 c 0,1.56 -0.28,2.88 -0.84,3.92 0.2,0.52 0.52,0.6 1.24,0.6 h 0.4 v 3.92 H 14.8 C 12.84,41.72 11.6,41 11,39.8 10.12,40.12 9.08,40.32 7.92,40.32 3.6,40.32 1.24,37.76 1.24,33.28 Z m 4.4,-14.84 v 15.12 c 0,2 0.88,2.76 2.28,2.76 1.4,0 2.28,-0.76 2.28,-2.76 V 18.44 c 0,-2 -0.88,-2.76 -2.28,-2.76 -1.4,0 -2.28,0.76 -2.28,2.76 z M 21.568,12 h 4.4 v 21.6 c 0,2 0.88,2.72 2.28,2.72 1.4,0 2.28,-0.72 2.28,-2.72 V 12 h 4.16 v 21.32 c 0,4.48 -2.24,7.04 -6.56,7.04 -4.32,0 -6.56,-2.56 -6.56,-7.04 z m 30.208,0 4.48,28 h -4.44 l -0.76,-5.08 h -5.4 L 44.896,40 h -4.04 l 4.48,-28 z m -3.48,4.96 -2.08,14.16 h 4.24 L 48.376,16.96 Z M 72.024,40 66.624,19.72 h -0.08 V 40 h -3.96 V 12 h 5.52 l 4.44,16.76 h 0.08 V 12 h 3.92 V 40 Z M 82.752,16 v -4 h 13.6 v 4 h -4.6 v 24 h -4.4 V 16 Z M 102.4,12 h 4.4 v 21.6 c 0,2 0.88,2.72 2.28,2.72 1.4,0 2.28,-0.72 2.28,-2.72 V 12 h 4.16 v 21.32 c 0,4.48 -2.24,7.04 -6.56,7.04 -4.32,0 -6.56,-2.56 -6.56,-7.04 z m 26.528,0 3.2,19.88 h 0.08 L 135.168,12 h 6.12 v 28 h -4.16 V 19.92 h -0.08 L 134.088,40 h -4.16 l -3.2,-19.8 h -0.08 V 40 h -3.84 V 12 Z m 34.816,4 v 8.44 h 5.68 v 4 h -5.68 V 40 h -4.4 V 12 h 11.64 v 4 z m 13.488,-4 h 4.4 v 21.6 c 0,2 0.88,2.72 2.28,2.72 1.4,0 2.28,-0.72 2.28,-2.72 V 12 h 4.16 v 21.32 c 0,4.48 -2.24,7.04 -6.56,7.04 -4.32,0 -6.56,-2.56 -6.56,-7.04 z M 196.4,16 V 12 H 210 v 4 h -4.6 V 40 H 201 V 16 Z m 19.648,-4 h 4.4 v 21.6 c 0,2 0.88,2.72 2.28,2.72 1.4,0 2.28,-0.72 2.28,-2.72 V 12 h 4.16 v 21.32 c 0,4.48 -2.24,7.04 -6.56,7.04 -4.32,0 -6.56,-2.56 -6.56,-7.04 z m 34.128,28 h -4.48 c -0.24,-0.72 -0.4,-1.16 -0.4,-3.44 v -4.4 c 0,-2.6 -0.88,-3.56 -2.88,-3.56 h -1.52 V 40 h -4.4 V 12 h 6.64 c 4.56,0 6.52,2.12 6.52,6.44 v 2.2 c 0,2.88 -0.92,4.72 -2.88,5.64 v 0.08 c 2.2,0.92 2.92,3 2.92,5.92 v 4.32 c 0,1.36 0.04,2.36 0.48,3.4 z m -7.16,-24 h -2.12 v 8.6 h 1.72 c 1.64,0 2.64,-0.72 2.64,-2.96 v -2.76 c 0,-2 -0.68,-2.88 -2.24,-2.88 z m 18.288,0 v 7.8 h 6.04 v 4 h -6.04 V 36 h 7.6 v 4 h -12 V 12 h 12 v 4 z M 286.48,40 V 12 h 4.4 v 24 h 7.24 v 4 z m 17.888,0 V 12 h 4.4 v 28 z m 18.008,-28 3.2,19.88 h 0.08 L 328.616,12 h 6.12 v 28 h -4.16 V 19.92 h -0.08 L 327.536,40 h -4.16 l -3.2,-19.8 h -0.08 V 40 h -3.84 V 12 Z m 19.888,28 V 12 h 4.4 v 28 z m 10.648,-24 v -4 h 13.6 v 4 h -4.6 v 24 h -4.4 V 16 Z m 24.248,0 v 7.8 h 6.04 v 4 h -6.04 V 36 h 7.6 v 4 h -12 V 12 h 12 v 4 z m 14.648,24 V 12 h 6.96 c 4.4,0 6.56,2.44 6.56,6.92 v 14.16 c 0,4.48 -2.16,6.92 -6.56,6.92 z m 6.88,-24 h -2.48 v 20 h 2.48 c 1.4,0 2.24,-0.72 2.24,-2.72 V 18.72 c 0,-2 -0.84,-2.72 -2.24,-2.72 z"
         id="path5"
         style="fill:url(#linearGradient6)" />
    </g>
  </g>
</svg>
