<svg height="150" width="50" xmlns="http://www.w3.org/2000/svg" xmlns:xlink="http://www.w3.org/1999/xlink" version="1.1" viewBox="0 0 3135.4003139717424 1045.121173469388">

	<g transform="scale(6.770015698587128) translate(10, 10)">
		<defs id="SvgjsDefs1313"></defs><g id="SvgjsG1314" transform="matrix(1.34375,0,0,1.34375,0,0)" fill="#ea5455"><path xmlns="http://www.w3.org/2000/svg" d="M0 0h100v100H0z"></path></g><g id="SvgjsG1315" featureKey="monogramFeature-0" transform="matrix(1.9141370872927201,0,0,1.9141370872927201,31.25758873812184,-4.712056309390803)" fill="#111111"><path d="M17.04 15.18 l3.36 -0.18 l2.64 0 l1.44 0.06 l2.28 0.24 c6.12 0.6 7.44 6.24 7.44 11.4 c0 0.66 0.06 2.28 -0.96 2.28 l-6.06 0 c-0.9 0 -1.02 -1.08 -1.02 -1.8 l-0.06 -2.28 c-0.06 -1.32 -1.92 -1.38 -2.82 -1.38 l-3 0 c-0.72 0 -1.44 0.12 -2.16 0.3 c-1.56 0.24 -1.8 0.72 -1.86 2.22 l1.8 -1.38 c0.24 -0.12 0.78 -0.12 1.02 -0.12 l-2.88 2.16 l0 0.96 l4.14 -3.12 l0.96 0 l-4.44 3.36 l-0.66 0 c0 2.1 0.84 2.4 2.76 2.58 l1.92 0.18 l0.18 0 l0 -0.06 l4.08 -3.06 c0.06 0.18 0 0.42 0 0.48 l0 0.24 l-3.18 2.4 l-0.06 0.06 l1.08 0.12 l2.28 -1.74 c0.06 0.06 0.12 0.24 0.12 0.3 s0.12 0.18 0.12 0.24 l-1.62 1.26 l0.12 0 s0.66 0.06 1.02 0.06 l1.32 -0.96 l0.96 0 l-1.44 1.08 l0.96 0.12 l0.12 0 l1.62 -1.2 l0.6 0 l0 0.24 l-1.5 1.14 l0.9 0.18 c0.24 0 0.36 -0.3 0.6 -0.36 l0 0.54 l0.06 0 c5.34 1.74 5.58 6.3 5.58 11.1 c0 12.48 -5.1 12.78 -15.72 12.78 l-3.18 -0.24 c-5.1 -0.36 -7.68 -4.86 -7.8 -9.6 l-0.06 -2.82 l0 -0.3 c0 -0.84 0.06 -1.62 0.9 -1.92 l0.78 0 l2.4 -1.74 c0.18 0 0.42 0.12 0.6 0.24 l-2.04 1.5 l1.26 0 l1.68 -1.2 l0.72 0.18 l-1.44 1.02 l1.26 0 l1.2 -0.9 l0.78 0.12 l-1.02 0.78 c0.3 0.06 0.48 0.18 0.72 0.42 l1.38 -1.02 l0 -0.06 l0.84 0.12 l-1.98 1.5 c-0.06 0.12 -0.06 0.18 -0.06 0.18 c0 0.12 0.06 0.6 0.06 0.72 l3.12 -2.28 l0.06 -0.06 c0.24 0 0.54 0.06 0.78 0.06 l-3.96 3 l0 0.36 c0 2.22 0 3.06 2.58 3.3 c0.96 0.12 1.86 0.12 2.82 0.12 l0.3 0 l0 -0.54 l4.02 -3 c0.06 0.12 0.06 0.3 0.06 0.48 l0 0.18 l-3.84 2.88 l0.42 0 l0.42 0 l0.42 0 l2.52 -1.86 l0 0.12 c0 0.12 0 0.48 -0.06 0.54 l-1.32 1.08 c0.36 0 0.66 -0.18 0.96 -0.24 c1.5 -0.54 1.38 -2.1 1.44 -3.42 c0 -0.72 -0.06 -1.38 -0.12 -2.1 c-0.24 -1.44 -1.44 -1.74 -2.7 -1.8 l-3.12 -0.12 l-3.24 -0.24 l-2.46 -0.42 c-4.56 -0.66 -6.72 -5.1 -6.9 -9.3 l-0.06 -2.34 c0 -6.18 1.8 -11.4 8.82 -11.82 z M8.4 21.060000000000002 l-3.78 2.82 c0 -0.18 0.66 -1.08 0.9 -1.38 l2.76 -2.1 c0.06 -0.06 0.54 -0.24 0.6 -0.24 z M3.96 25.32 l3.96 -2.94 l0 0.06 s-0.18 0.54 -0.24 0.84 l-3.96 2.94 l0 -0.18 c0.06 -0.12 0.18 -0.6 0.24 -0.72 z M3.48 27.299999999999997 l4.02 -3 l-0.12 0.84 l-4.02 3 l0.12 -0.78 l0 -0.06 z M18.12 27.840000000000003 l4.38 -3.24 l0 -0.06 c0.36 0 0.54 0 0.9 0.12 l-4.38 3.24 l-0.24 0 s-0.54 0 -0.66 -0.06 z M20.04 28.08 l4.26 -3.18 c0.18 0 0.42 0.18 0.54 0.3 l-4.14 3.12 c-0.3 -0.12 -0.48 -0.18 -0.66 -0.24 z M21 28.98 l4.14 -3.06 l0 0.6 l0 0.12 l-4.08 3 c0 -0.18 -0.06 -0.42 -0.06 -0.66 z M3.24 29.76 l0 -0.6 l4.02 -3.06 l0 0.18 c0 0.18 0.12 0.48 -0.06 0.6 l-3.96 3 l0 -0.12 z M3.18 30.84 l4.02 -3 l0.06 0 l0 0.66 l-4.02 3 l-0.06 0.06 l0 -0.72 z M3.24 32.46 l4.02 -3 c0.06 0.18 0.06 0.36 0.06 0.54 l0 0.12 l-4.02 3 c-0.06 -0.06 -0.12 -0.48 -0.12 -0.6 c0 -0.06 0 -0.06 0.06 -0.06 z M3.36 34.019999999999996 l4.02 -3 c0.06 0.24 0.12 0.66 0.12 0.66 l-4.14 3.06 c0 -0.12 -0.06 -0.54 -0.06 -0.66 z M3.54 35.519999999999996 l4.08 -3 l0.06 0.48 l0.06 0.06 s-0.06 0 -0.06 0.06 l-4.08 3 c0 -0.12 -0.06 -0.42 -0.06 -0.6 z M3.78 36.9 l0.06 0 l4.08 -3.06 l0.18 0.6 l-4.14 3.06 c0 -0.06 -0.06 -0.18 -0.06 -0.24 c-0.06 -0.06 -0.12 -0.36 -0.12 -0.36 z M4.26 38.22 l4.08 -3.06 l0.06 0 l0.24 0.48 l-4.14 3.12 c-0.06 -0.12 -0.18 -0.3 -0.24 -0.54 z M4.86 39.42 l4.14 -3.06 l0.06 -0.06 l0 0.06 l0.3 0.42 l-4.2 3.12 s-0.18 -0.3 -0.3 -0.48 z M5.64 40.5 l4.2 -3.12 l0.42 0.42 l-4.26 3.12 s-0.18 -0.24 -0.36 -0.42 z M6.66 41.4 l4.2 -3.12 l0.54 0.3 l-4.2 3.18 c-0.18 -0.06 -0.48 -0.24 -0.54 -0.36 z M16.92 43.68 l4.32 -3.3 l0.06 0 l0.12 0 l0.36 0 l0.42 0 l-4.38 3.3 c-0.06 0.06 0 0 -0.06 0 l-0.84 0 z M19.74 43.86 l-0.78 -0.12 l4.38 -3.24 c0.18 0 0.54 0.06 0.72 0.12 z M20.64 44.1 l4.26 -3.18 c0.24 0 0.48 0.36 0.48 0.36 l-4.14 3.12 c-0.18 -0.12 -0.54 -0.24 -0.6 -0.3 z M21.54 45.06 l4.08 -3.06 l0.06 0 c0.12 0.12 0.06 0.42 0.06 0.6 l0 0.06 l-4.08 3.06 c0 -0.24 -0.06 -0.42 -0.12 -0.66 z M3.18 45.66 l0.78 -0.6 l0.96 0 l-1.92 1.44 c0 -0.18 0.06 -0.78 0.18 -0.84 z M3 47.46 l3.18 -2.4 l0.9 0 l0 0.06 l-4.08 3.06 l0 -0.72 z M3 49.08 l4.08 -3.06 c0 0.12 0.06 0.48 0.06 0.72 l-4.08 3.06 c-0.06 -0.24 -0.06 -0.42 -0.06 -0.72 z M3.12 50.64 l4.08 -3 s0.06 0.42 0.06 0.66 l-4.08 3 s-0.06 -0.36 -0.06 -0.66 z M3.3 52.14 l4.08 -3.06 c0.06 0.24 0.18 0.6 0.18 0.66 l-4.14 3.06 l-0.12 -0.6 l0 -0.06 z M3.78 54.18 l-0.18 -0.6 l4.08 -3.06 l0.06 0 l0.18 0.54 z M4.32 55.38 l-0.24 -0.48 l4.14 -3.12 c0.06 0 0.06 0 0.06 0.06 l0.24 0.42 z M4.74 55.980000000000004 l4.14 -3.06 l0 0 l0.3 0.42 l0 0.06 l-4.14 3.12 l-0.3 -0.48 l0 -0.06 z M5.46 57.12 l4.2 -3.12 l0.06 -0.06 l0.42 0.42 l-4.26 3.18 l-0.24 -0.24 c0 -0.06 -0.12 -0.18 -0.18 -0.18 z M6.48 58.02 l4.2 -3.12 l0.06 -0.06 l0.48 0.36 l-4.26 3.18 s-0.18 -0.18 -0.3 -0.24 c0 0 -0.18 -0.06 -0.18 -0.12 z M7.74 58.74 l4.2 -3.18 l0.06 0 l0.6 0.24 l-4.26 3.18 l-0.06 0.06 c-0.12 0 -0.48 -0.18 -0.54 -0.3 z M21.96 59.7 l-0.06 0 l4.5 -3.36 c0.06 -0.06 0.66 -0.18 0.78 -0.18 c0.06 -0.06 0.54 -0.18 0.66 -0.18 l-4.68 3.48 c-0.06 0.06 -1.08 0.24 -1.2 0.24 z M9.18 59.34 l4.32 -3.24 l0.72 0.18 l-4.38 3.24 c-0.18 0 -0.48 -0.06 -0.66 -0.18 z M10.92 59.7 l-0.06 0 l4.32 -3.24 c0.06 -0.06 0.06 0 0.12 0 c0.24 0 0.54 0 0.78 0.06 l-4.38 3.24 c-0.3 0 -0.72 -0.06 -0.78 -0.06 z M19.38 59.94 l4.44 -3.3 c0.12 -0.12 0.9 -0.12 1.08 -0.12 l-4.44 3.3 c0 0.06 -0.6 0.06 -1.08 0.12 z M12.9 59.88 l-0.06 0 l4.38 -3.3 l0.12 0 c0.24 0 0.54 0 0.78 0.06 l-4.38 3.3 l-0.12 0 c-0.12 0 -0.66 -0.06 -0.72 -0.06 z M17.1 60 l4.38 -3.3 l0.06 0 c0 -0.06 0.54 -0.06 0.96 -0.06 l-4.44 3.36 l-0.96 0 z M14.94 59.94 l4.38 -3.24 l0.96 0 l-4.44 3.3 l-0.24 0 c-0.24 0 -0.42 0 -0.66 -0.06 z"></path></g><g id="SvgjsG1316" featureKey="nameFeature-0" transform="matrix(0.8890848609987864,0,0,0.8890848609987864,152.22183048997678,20.109152237909534)" fill="#ea5455"><path d="M11.36 10.120000000000001 l2.24 -0.12 l1.76 0 l0.96 0.04 l1.52 0.16 c4.08 0.4 4.96 4.16 4.96 7.6 c0 0.44 0.04 1.52 -0.64 1.52 l-4.04 0 c-0.6 0 -0.68 -0.72 -0.68 -1.2 l-0.04 -1.52 c-0.04 -0.88 -1.28 -0.92 -1.88 -0.92 l-2 0 c-0.48 0 -0.96 0.08 -1.44 0.2 c-1.04 0.16 -1.2 0.48 -1.24 1.48 l1.2 -0.92 c0.16 -0.08 0.52 -0.08 0.68 -0.08 l-1.92 1.44 l0 0.64 l2.76 -2.08 l0.64 0 l-2.96 2.24 l-0.44 0 c0 1.4 0.56 1.6 1.84 1.72 l1.28 0.12 l0.12 0 l0 -0.04 l2.72 -2.04 c0.04 0.12 0 0.28 0 0.32 l0 0.16 l-2.12 1.6 l-0.04 0.04 l0.72 0.08 l1.52 -1.16 c0.04 0.04 0.08 0.16 0.08 0.2 s0.08 0.12 0.08 0.16 l-1.08 0.84 l0.08 0 s0.44 0.04 0.68 0.04 l0.88 -0.64 l0.64 0 l-0.96 0.72 l0.64 0.08 l0.08 0 l1.08 -0.8 l0.4 0 l0 0.16 l-1 0.76 l0.6 0.12 c0.16 0 0.24 -0.2 0.4 -0.24 l0 0.36 l0.04 0 c3.56 1.16 3.72 4.2 3.72 7.4 c0 8.32 -3.4 8.52 -10.48 8.52 l-2.12 -0.16 c-3.4 -0.24 -5.12 -3.24 -5.2 -6.4 l-0.04 -1.88 l0 -0.2 c0 -0.56 0.04 -1.08 0.6 -1.28 l0.52 0 l1.6 -1.16 c0.12 0 0.28 0.08 0.4 0.16 l-1.36 1 l0.84 0 l1.12 -0.8 l0.48 0.12 l-0.96 0.68 l0.84 0 l0.8 -0.6 l0.52 0.08 l-0.68 0.52 c0.2 0.04 0.32 0.12 0.48 0.28 l0.92 -0.68 l0 -0.04 l0.56 0.08 l-1.32 1 c-0.04 0.08 -0.04 0.12 -0.04 0.12 c0 0.08 0.04 0.4 0.04 0.48 l2.08 -1.52 l0.04 -0.04 c0.16 0 0.36 0.04 0.52 0.04 l-2.64 2 l0 0.24 c0 1.48 0 2.04 1.72 2.2 c0.64 0.08 1.24 0.08 1.88 0.08 l0.2 0 l0 -0.36 l2.68 -2 c0.04 0.08 0.04 0.2 0.04 0.32 l0 0.12 l-2.56 1.92 l0.28 0 l0.28 0 l0.28 0 l1.68 -1.24 l0 0.08 c0 0.08 0 0.32 -0.04 0.36 l-0.88 0.72 c0.24 0 0.44 -0.12 0.64 -0.16 c1 -0.36 0.92 -1.4 0.96 -2.28 c0 -0.48 -0.04 -0.92 -0.08 -1.4 c-0.16 -0.96 -0.96 -1.16 -1.8 -1.2 l-2.08 -0.08 l-2.16 -0.16 l-1.64 -0.28 c-3.04 -0.44 -4.48 -3.4 -4.6 -6.2 l-0.04 -1.56 c0 -4.12 1.2 -7.6 5.88 -7.88 z M5.6 14.04 l-2.52 1.88 c0 -0.12 0.44 -0.72 0.6 -0.92 l1.84 -1.4 c0.04 -0.04 0.36 -0.16 0.4 -0.16 z M2.64 16.88 l2.64 -1.96 l0 0.04 s-0.12 0.36 -0.16 0.56 l-2.64 1.96 l0 -0.12 c0.04 -0.08 0.12 -0.4 0.16 -0.48 z M2.32 18.2 l2.68 -2 l-0.08 0.56 l-2.68 2 l0.08 -0.52 l0 -0.04 z M12.08 18.56 l2.92 -2.16 l0 -0.04 c0.24 0 0.36 0 0.6 0.08 l-2.92 2.16 l-0.16 0 s-0.36 0 -0.44 -0.04 z M13.36 18.72 l2.84 -2.12 c0.12 0 0.28 0.12 0.36 0.2 l-2.76 2.08 c-0.2 -0.08 -0.32 -0.12 -0.44 -0.16 z M14 19.32 l2.76 -2.04 l0 0.4 l0 0.08 l-2.72 2 c0 -0.12 -0.04 -0.28 -0.04 -0.44 z M2.16 19.84 l0 -0.4 l2.68 -2.04 l0 0.12 c0 0.12 0.08 0.32 -0.04 0.4 l-2.64 2 l0 -0.08 z M2.12 20.56 l2.68 -2 l0.04 0 l0 0.44 l-2.68 2 l-0.04 0.04 l0 -0.48 z M2.16 21.64 l2.68 -2 c0.04 0.12 0.04 0.24 0.04 0.36 l0 0.08 l-2.68 2 c-0.04 -0.04 -0.08 -0.32 -0.08 -0.4 c0 -0.04 0 -0.04 0.04 -0.04 z M2.24 22.68 l2.68 -2 c0.04 0.16 0.08 0.44 0.08 0.44 l-2.76 2.04 c0 -0.08 -0.04 -0.36 -0.04 -0.44 z M2.36 23.68 l2.72 -2 l0.04 0.32 l0.04 0.04 s-0.04 0 -0.04 0.04 l-2.72 2 c0 -0.08 -0.04 -0.28 -0.04 -0.4 z M2.52 24.6 l0.04 0 l2.72 -2.04 l0.12 0.4 l-2.76 2.04 c0 -0.04 -0.04 -0.12 -0.04 -0.16 c-0.04 -0.04 -0.08 -0.24 -0.08 -0.24 z M2.84 25.48 l2.72 -2.04 l0.04 0 l0.16 0.32 l-2.76 2.08 c-0.04 -0.08 -0.12 -0.2 -0.16 -0.36 z M3.24 26.28 l2.76 -2.04 l0.04 -0.04 l0 0.04 l0.2 0.28 l-2.8 2.08 s-0.12 -0.2 -0.2 -0.32 z M3.76 27 l2.8 -2.08 l0.28 0.28 l-2.84 2.08 s-0.12 -0.16 -0.24 -0.28 z M4.44 27.6 l2.8 -2.08 l0.36 0.2 l-2.8 2.12 c-0.12 -0.04 -0.32 -0.16 -0.36 -0.24 z M11.28 29.119999999999997 l2.88 -2.2 l0.04 0 l0.08 0 l0.24 0 l0.28 0 l-2.92 2.2 c-0.04 0.04 0 0 -0.04 0 l-0.56 0 z M13.16 29.240000000000002 l-0.52 -0.08 l2.92 -2.16 c0.12 0 0.36 0.04 0.48 0.08 z M13.76 29.4 l2.84 -2.12 c0.16 0 0.32 0.24 0.32 0.24 l-2.76 2.08 c-0.12 -0.08 -0.36 -0.16 -0.4 -0.2 z M14.36 30.04 l2.72 -2.04 l0.04 0 c0.08 0.08 0.04 0.28 0.04 0.4 l0 0.04 l-2.72 2.04 c0 -0.16 -0.04 -0.28 -0.08 -0.44 z M2.12 30.439999999999998 l0.52 -0.4 l0.64 0 l-1.28 0.96 c0 -0.12 0.04 -0.52 0.12 -0.56 z M2 31.64 l2.12 -1.6 l0.6 0 l0 0.04 l-2.72 2.04 l0 -0.48 z M2 32.72 l2.72 -2.04 c0 0.08 0.04 0.32 0.04 0.48 l-2.72 2.04 c-0.04 -0.16 -0.04 -0.28 -0.04 -0.48 z M2.08 33.76 l2.72 -2 s0.04 0.28 0.04 0.44 l-2.72 2 s-0.04 -0.24 -0.04 -0.44 z M2.2 34.76 l2.72 -2.04 c0.04 0.16 0.12 0.4 0.12 0.44 l-2.76 2.04 l-0.08 -0.4 l0 -0.04 z M2.52 36.12 l-0.12 -0.4 l2.72 -2.04 l0.04 0 l0.12 0.36 z M2.88 36.92 l-0.16 -0.32 l2.76 -2.08 c0.04 0 0.04 0 0.04 0.04 l0.16 0.28 z M3.16 37.32 l2.76 -2.04 l0 0 l0.2 0.28 l0 0.04 l-2.76 2.08 l-0.2 -0.32 l0 -0.04 z M3.64 38.08 l2.8 -2.08 l0.04 -0.04 l0.28 0.28 l-2.84 2.12 l-0.16 -0.16 c0 -0.04 -0.08 -0.12 -0.12 -0.12 z M4.32 38.68 l2.8 -2.08 l0.04 -0.04 l0.32 0.24 l-2.84 2.12 s-0.12 -0.12 -0.2 -0.16 c0 0 -0.12 -0.04 -0.12 -0.08 z M5.16 39.16 l2.8 -2.12 l0.04 0 l0.4 0.16 l-2.84 2.12 l-0.04 0.04 c-0.08 0 -0.32 -0.12 -0.36 -0.2 z M14.64 39.8 l-0.04 0 l3 -2.24 c0.04 -0.04 0.44 -0.12 0.52 -0.12 c0.04 -0.04 0.36 -0.12 0.44 -0.12 l-3.12 2.32 c-0.04 0.04 -0.72 0.16 -0.8 0.16 z M6.12 39.56 l2.88 -2.16 l0.48 0.12 l-2.92 2.16 c-0.12 0 -0.32 -0.04 -0.44 -0.12 z M7.28 39.8 l-0.04 0 l2.88 -2.16 c0.04 -0.04 0.04 0 0.08 0 c0.16 0 0.36 0 0.52 0.04 l-2.92 2.16 c-0.2 0 -0.48 -0.04 -0.52 -0.04 z M12.92 39.96 l2.96 -2.2 c0.08 -0.08 0.6 -0.08 0.72 -0.08 l-2.96 2.2 c0 0.04 -0.4 0.04 -0.72 0.08 z M8.6 39.92 l-0.04 0 l2.92 -2.2 l0.08 0 c0.16 0 0.36 0 0.52 0.04 l-2.92 2.2 l-0.08 0 c-0.08 0 -0.44 -0.04 -0.48 -0.04 z M11.4 40 l2.92 -2.2 l0.04 0 c0 -0.04 0.36 -0.04 0.64 -0.04 l-2.96 2.24 l-0.64 0 z M9.96 39.96 l2.92 -2.16 l0.64 0 l-2.96 2.2 l-0.16 0 c-0.16 0 -0.28 0 -0.44 -0.04 z M37.508 31.28 l0 -15.52 l-0.96 -0.28 c-0.32 -0.12 -0.56 -0.44 -0.56 -0.76 l0 -3.96 c0 -0.28 0.28 -0.76 0.6 -0.76 l7.32 0 c0.32 0 0.6 0.44 0.6 0.72 l0 4 c0 0.32 -0.24 0.68 -0.56 0.76 c-0.16 0.04 -0.84 0.24 -0.96 0.28 l-0.04 0 l0 15.52 l1.08 0.36 c0.24 0.08 0.48 0.44 0.48 0.72 l0 3.96 c0 0.36 -0.32 0.76 -0.64 0.76 l-7.2 0 c-0.36 0 -0.68 -0.44 -0.68 -0.76 l0 -4.04 c-0.24 0.08 -0.48 0.2 -0.56 0.44 c-0.04 0.08 -0.04 0.16 -0.08 0.2 l-1.2 0.92 l0 -0.52 l2.72 -2.04 l0 0.24 z M32.788000000000004 13.2 c0.12 -0.08 0.28 -0.28 0.48 -0.28 l0.56 0 l-1.24 0.92 c0 -0.2 0.04 -0.52 0.2 -0.64 z M32.588 14.48 l2.08 -1.56 l0.64 0 l-2.72 2.04 l0 -0.48 z M32.588 15.600000000000001 l2.76 -2.08 l0 0.48 l-2.76 2.08 l0 -0.48 z M32.588 17.2 l0 -0.52 l2.68 -2 c0.04 0 0.04 -0.04 0.08 -0.04 l0 0.48 z M32.628 17.8 l2.8 -2.08 c0.04 0.12 0.12 0.2 0.2 0.32 l-2.84 2.12 l0 0 c-0.04 -0.04 -0.2 -0.32 -0.16 -0.36 z M33.708 18.56 l-0.44 -0.12 l2.88 -2.2 l0.08 0 l0.4 0.12 l0 0.04 z M34.148 19.32 l0 -0.44 l2.72 -2.04 l0 0.44 z M34.148 19.96 l2.72 -2.04 l0 0.48 l-2.72 2.04 l0 -0.48 z M34.148 21.08 l2.72 -2.04 l0 0.48 l-2.72 2.04 l0 -0.48 z M34.148 22.68 l0 -0.48 l2.72 -2.04 l0 0.48 z M34.148 23.32 l2.72 -2.04 l0 0.48 l-2.72 2.04 l0 -0.48 z M34.148 24.439999999999998 l2.72 -2.04 l0 0.48 l-2.72 2.04 l0 -0.48 z M34.148 26.04 l0 -0.48 l2.72 -2.08 l0 0.52 z M34.148 27.16 l0 -0.48 l2.72 -2.08 l0 0.52 z M34.148 27.8 l2.72 -2.08 l0 0.48 l-2.72 2.08 l0 -0.48 z M34.148 29.4 l0 -0.48 l2.72 -2.08 l0 0.48 z M34.148 30.52 l0 -0.52 l2.72 -2.04 l0 0.48 z M34.148 31.119999999999997 l2.72 -2.04 l0 0.48 l-2.72 2.08 l0 -0.52 z M34.148 32.24 l2.72 -2.04 l0 0.44 l-2.72 2.08 l0 -0.48 z M32.588 35.6 l2.76 -2.04 l0 0.48 l-2.76 2.08 l0 -0.52 z M33.148 34.56 l-0.44 0.32 c0 -0.12 0.36 -0.32 0.44 -0.32 z M32.588 37.2 l0 -0.48 l2.68 -2 c0.04 0 0.04 -0.04 0.08 -0.04 l0 0.48 z M32.588 38.32 l0 -0.48 l2.76 -2.04 l0 0.48 z M32.588 38.96 l2.72 -2.04 l0.04 0 c0 0.16 0.04 0.28 0.08 0.4 l-2.8 2.08 c-0.04 -0.08 -0.04 -0.2 -0.04 -0.32 l0 -0.12 z M32.908 39.84 l0.04 0 l2.8 -2.12 c0.12 0 0.2 0.04 0.28 0.04 l0.32 0 l-3 2.24 c-0.16 0 -0.36 -0.04 -0.44 -0.16 z M34.868 40 l-0.64 0 l2.96 -2.24 l0.64 0 z M35.708 40 l2.96 -2.24 l0.64 0 l-2.96 2.24 l-0.64 0 z M37.188 40 l3 -2.24 l0.64 0 l-3 2.24 l-0.64 0 z M39.348 40 l-0.64 0 l2.44 -1.84 l0 0.48 z M40.508 40 l-0.32 0 l0.92 -0.72 c0 0.32 -0.28 0.72 -0.6 0.72 z M58.816 31.28 l0 -15.52 l-0.96 -0.28 c-0.32 -0.12 -0.56 -0.44 -0.56 -0.76 l0 -3.96 c0 -0.28 0.28 -0.76 0.6 -0.76 l8.32 0 c0.28 0 0.48 0.32 0.56 0.52 l2.36 5.72 l2.56 -1.92 l0 0.48 l-2.36 1.8 c0.04 0.2 0.08 0.36 0.16 0.48 l2.24 -1.64 c0.04 0.12 0.04 0.28 0.12 0.4 l-2.2 1.64 l0.2 0.48 l2.4 -1.8 s0.28 0.08 0.48 0.12 l-2.72 2.04 l0.56 1.32 l2.76 -2.04 l0 0.36 l0 0.12 l-2.56 1.92 c0 0.12 0.12 0.4 0.16 0.48 l2.4 -1.76 l0 0.36 l0 0.08 l-2.24 1.68 l0 0.04 l0.2 0.48 l2.08 -1.56 l0 0.48 l-1.92 1.44 c0 0.08 0.12 0.36 0.24 0.44 l1.68 -1.28 c0 0.08 0 0.4 0.04 0.48 l-1.64 1.2 l0.2 0.48 l0.04 0 l1.4 -1.04 l0 0.44 l-1.24 0.92 c0 0.16 0.12 0.44 0.2 0.52 l1.04 -0.8 l0 0.48 l-0.88 0.68 c0 0.08 0.08 0.36 0.16 0.48 l0.76 -0.52 l0 0.32 l0 0.12 l-0.6 0.44 c0.04 0.12 0.16 0.4 0.2 0.48 l0.4 -0.28 c0.04 0.12 0.04 0.2 0.04 0.32 c0 0.04 0 0.12 -0.04 0.16 c0 0 -0.2 0.16 -0.24 0.2 l0.2 0.48 l0.08 -0.08 l0 0.28 l0 0.08 l0.68 1.64 l-0.24 -12.52 c0 -0.08 0 -0.08 -0.04 -0.08 c-0.68 -0.2 -1.52 -0.24 -1.52 -1.12 l0 -3.84 c0 -0.32 0.28 -0.8 0.64 -0.8 l7.28 0 c0.32 0 0.6 0.44 0.6 0.72 l0 4 c0 0.36 -0.24 0.64 -0.56 0.76 l-1 0.28 l0 20.52 c0 0.36 -0.28 0.8 -0.64 0.8 l-6.68 0 c-0.28 0 -0.52 -0.32 -0.64 -0.56 l-7.36 -17.84 c0 0.44 0.04 2.12 0.12 2.52 c0.04 0.08 0.12 0.28 0.12 0.28 l0 0.04 c-0.04 0 -0.12 0.08 -0.16 0.2 l0 0.56 l0.36 -0.28 c0.04 0.12 0.16 0.36 0.16 0.36 l-0.52 0.4 l0 0.08 l0 0.52 l0.04 0 c0.08 -0.08 0.52 -0.4 0.68 -0.48 c0.04 0.08 0.12 0.24 0.12 0.36 l-0.8 0.6 l0 0.12 l0 0.52 l1.04 -0.76 c0 0.08 0.08 0.28 0.12 0.36 l-1.16 0.88 l0 0.12 c0 0.2 0 0.32 0.04 0.48 l1.32 -1 c0.04 0.08 0.16 0.32 0.16 0.4 l-1.48 1.08 l0 0.16 l0 0.48 l1.64 -1.24 c0.08 0.04 0.16 0.28 0.16 0.36 l-1.8 1.36 l0 0.2 s0 0.28 0.04 0.4 l2 -1.48 c0.04 0.08 0.12 0.28 0.12 0.36 l-2.12 1.6 l0 0.64 l2.36 -1.76 l0.12 0.32 c0 0.04 -0.04 0.04 -0.04 0.08 l-2.4 1.8 c-0.04 0 -0.04 0 -0.04 0.04 c0 0.12 0 0.52 0.04 0.6 l2.64 -2 c0.04 0.04 0.12 0.28 0.12 0.4 l-2.76 2.08 l0 0.16 l0 0.6 l0 0.08 l0.8 0.28 l2.52 -1.88 c0.08 0.12 0.2 0.36 0.2 0.36 l-2.28 1.68 c0.12 0.12 0.2 0.24 0.28 0.4 l2.16 -1.56 c0.08 0.08 0.16 0.32 0.16 0.32 l-2.24 1.72 l0 0.6 l2.4 -1.8 c0.08 0.04 0.16 0.24 0.2 0.32 l-2.6 2 l0 2.56 c0 0.36 -0.32 0.8 -0.68 0.8 l-7.24 0 c-0.36 0 -0.64 -0.44 -0.64 -0.76 l0 -4.04 c-0.24 0.08 -0.48 0.24 -0.6 0.48 l-1.24 0.96 l0 -0.52 l2.72 -2.04 l0 0.36 z M54.896 12.920000000000002 l-1 0.76 c0.04 -0.32 0.28 -0.76 0.64 -0.76 l0.36 0 z M53.896 14.32 l1.84 -1.4 l0.68 0 l-2.52 1.88 l0 -0.48 z M69.776 12.920000000000002 l-0.76 0.56 c0 -0.28 0.44 -0.56 0.76 -0.56 z M68.976 14.64 l0 -0.48 l1.64 -1.24 l0.64 0 z M68.976 15.280000000000001 l2.72 -2.08 l0 0.48 l-2.72 2.08 l0 -0.48 z M53.896 15.920000000000002 l0 -0.48 l2.72 -2.08 l0 0.52 z M53.896 16.56 l2.72 -2.08 l0 0.52 l-2.72 2.04 l0 -0.48 z M53.896 17.64 l2.76 -2.04 c0.04 0 0.2 0.32 0.2 0.36 l-2.84 2.08 c-0.04 0.04 -0.12 -0.32 -0.12 -0.36 l0 -0.04 z M54.856 18.52 l-0.44 -0.12 l2.88 -2.16 c0.24 0 0.48 0.08 0.48 0.08 l0.04 0.04 l-2.88 2.12 c-0.04 0.04 -0.08 0.04 -0.08 0.04 z M70.416 18.64 l2.88 -2.16 l0 0.36 l0 0.12 l-2.72 2.08 l-0.04 -0.08 l0 -0.28 s-0.08 0 -0.12 -0.04 z M55.456 18.72 l2.72 -2.04 l0 0.48 l-2.72 2.08 l0 -0.52 z M55.456 20.36 l0 -0.52 l2.72 -2.04 l0 0.48 z M55.456 21.48 l0 -0.52 l2.72 -2.04 l0 0.48 z M55.456 22.08 l2.72 -2.04 l0 0.44 l-2.72 2.04 l0 -0.44 z M55.456 23.16 l2.72 -2.04 l0 0.48 l-2.72 2.04 l0 -0.48 z M55.456 24.759999999999998 l0 -0.48 l2.72 -2.04 l0 0.48 z M55.456 25.4 l2.72 -2.04 l0 0.48 l-2.72 2.04 l0 -0.48 z M55.456 26.52 l2.72 -2.04 l0 0.48 l-2.72 2.04 l0 -0.48 z M55.456 28.119999999999997 l0 -0.48 l2.72 -2.08 l0 0.52 z M55.456 29.240000000000002 l0 -0.48 l2.72 -2.08 l0 0.52 z M55.456 29.880000000000003 l2.72 -2.08 l0 0.52 l-2.72 2.04 l0 -0.48 z M64.456 30.92 l2.8 -2.12 c0.04 0.04 0.12 0.28 0.16 0.4 l-2.8 2.08 c-0.08 -0.12 -0.16 -0.36 -0.16 -0.36 z M55.456 31.48 l0 -0.48 l2.72 -2.08 l0 0.48 z M55.456 32.6 l0 -0.52 l2.72 -2.04 l0 0.48 z M65.856 34.32 l2.8 -2.08 s0.12 0.2 0.16 0.36 l-2.76 2.08 c-0.08 -0.12 -0.2 -0.36 -0.2 -0.36 z M66.376 35.56 l-0.16 -0.4 l2.8 -2.08 c0.08 0.16 0.16 0.36 0.16 0.36 z M53.896 35.480000000000004 l2.72 -2.04 l0 0.48 l-2.72 2.04 l0 -0.48 z M66.696 36.4 l-0.12 -0.36 l2.8 -2.12 c0.04 0.16 0.16 0.36 0.16 0.36 z M53.896 37.08 l0 -0.48 l2.68 -2 l0.04 -0.04 l0 0.44 z M66.936 36.88 l2.76 -2.08 c0.08 0.12 0.16 0.36 0.16 0.36 l-2.8 2.08 c0 -0.04 -0.12 -0.28 -0.12 -0.36 z M67.296 37.72 l2.8 -2.08 s0.08 0.24 0.08 0.4 l-2.76 2.08 c-0.04 -0.08 -0.12 -0.32 -0.12 -0.4 z M53.896 37.68 l2.72 -2.04 l0 0.48 l-2.72 2.08 l0 -0.52 z M67.656 38.56 l2.76 -2.04 c0.08 0.12 0.16 0.36 0.16 0.36 l-2.8 2.08 c-0.04 -0.08 -0.12 -0.32 -0.12 -0.4 z M53.896 39.28 l0 -0.48 l2.68 -2 c0.08 0.12 0.12 0.28 0.12 0.4 c-0.04 0 -0.04 0.04 -0.04 0.04 l-2.72 2.04 l-0.04 0 z M67.976 39.44 l2.76 -2.08 l0.04 0 l0.24 0.24 l-2.84 2.12 c-0.08 -0.04 -0.2 -0.16 -0.2 -0.28 z M54.136 39.76 l2.8 -2.12 c0.08 0 0.16 0.08 0.2 0.08 c0.12 0.04 0.2 0.04 0.32 0.04 l-2.96 2.2 c-0.16 0 -0.28 -0.08 -0.36 -0.2 z M55.976 40 l-0.68 0 l3 -2.24 l0.64 0 z M56.816 40 l2.96 -2.24 l0.64 0 l-2.96 2.24 l-0.64 0 z M58.296 40 l2.96 -2.24 l0.64 0 l-2.96 2.24 l-0.64 0 z M68.656 40 l3 -2.24 l0.64 0 l-2.96 2.24 l-0.68 0 z M70.176 40 l2.96 -2.24 l0.64 0 l-2.96 2.24 l-0.64 0 z M71.656 40 l2.96 -2.24 l0.68 0 l-3 2.24 l-0.64 0 z M73.816 40 l-0.68 0 l2.76 -2.08 l0.04 0 l0 0.48 z M59.776 40 l2.64 -2 l0 0.48 l-2 1.52 l-0.64 0 z M75.29599999999999 40 l-0.64 0 l1.28 -0.96 c0 0.16 0 0.44 -0.12 0.56 z M61.816 40 l-0.56 0 l1.16 -0.88 c0 0.4 -0.24 0.88 -0.6 0.88 z M99.64399999999999 10.280000000000001 l1.6 -0.16 l2.08 -0.12 l1.72 0 l1.44 0.08 l1.24 0.16 c4.12 0.48 4.96 4.44 4.96 7.88 c0 0.4 0 1.36 -0.6 1.36 l-4.12 0 c-0.52 0 -0.56 -0.72 -0.6 -1.08 c-0.04 -0.16 -0.08 -0.92 -0.12 -1.12 c-0.12 -0.8 -0.4 -1.08 -1.24 -1.28 c-0.52 -0.12 -1.04 -0.12 -1.56 -0.12 l-1 0 l-0.96 0 c-0.76 0 -3.08 0.24 -3.08 1.08 c0.16 -0.08 0.64 -0.24 0.8 -0.24 l0.04 0 l-1.04 0.8 c-0.04 0.04 -0.12 0.64 -0.12 0.68 l2.2 -1.64 l0.52 0 l0.12 0 l-2.92 2.16 l-0.04 0.68 l0 5.88 c0.16 -0.36 0.4 -0.52 0.8 -0.52 l-0.8 0.6 l0 0.64 l1.64 -1.24 l0.64 0 l-2.28 1.72 l0 0.2 s0 0.28 0.04 0.4 l2.6 -1.96 l0 0.48 l-2.6 1.96 l0 0.08 c0 0.16 0 0.36 0.04 0.48 l2.56 -1.88 l0 0.44 l-2.52 1.92 l0 0.08 l0.04 0.48 c0.04 0 0.04 -0.04 0.04 -0.04 l2.48 -1.84 c0.04 0.12 0.08 0.24 0.16 0.36 l-2.6 1.96 s0.04 0.08 0.04 0.16 c0.04 0.08 0.08 0.2 0.16 0.32 l2.8 -2.12 l0.64 0 l-2.96 2.2 l-0.32 0 l-0.12 0 c0 0.08 0.12 0.24 0.16 0.28 c0.44 0.6 1.24 0.68 1.88 0.72 c0.2 0.04 1 0.04 1.12 0.08 l0.08 0 c0.32 0 1.12 -0.04 1.32 -0.04 l0 -0.16 l2.68 -2.04 l0 0.08 c0 0.08 0.04 0.4 -0.04 0.44 l-2.24 1.72 c0.12 -0.04 0.84 -0.04 0.88 -0.08 l1.24 -0.92 c0 0.16 -0.04 0.36 -0.12 0.56 c-0.04 0.04 -0.2 0.16 -0.24 0.2 c1.08 0 1.16 -2.28 1.2 -3.16 l0 -0.56 l-4.48 0 c-0.36 0 -0.6 -0.56 -0.6 -0.84 l0 -3.72 c0 -0.36 0.28 -0.84 0.72 -0.84 l1.48 0 l2.48 -1.88 c0.16 0.12 0.28 0.16 0.44 0.16 l-2.28 1.72 l0.84 0 l2.28 -1.72 l0.64 0 l-2.28 1.72 l0.84 0 l1.84 -1.4 l0.04 0 l0 0.44 l-1.28 0.96 l0.8 0 c0.12 -0.08 0.4 -0.28 0.44 -0.32 c0 0.12 -0.04 0.24 -0.04 0.32 l2.76 0 c0.36 0 0.72 0.4 0.72 0.76 l0 5.64 l-0.12 2.08 c-0.28 5.88 -4.24 6.76 -9.28 6.76 c-3.92 0 -7.68 -0.4 -9 -4.84 c-0.36 -1.08 -0.56 -2.28 -0.6 -3.44 l-0.08 -1.72 l0 -7.24 l0.04 -1.48 l0.16 -1.4 l0.2 -1.08 c0.52 -2.92 2.6 -5.32 5.6 -5.64 z M91.72399999999999 16.08 l2.52 -1.88 c-0.12 0.2 -0.24 0.44 -0.32 0.68 l-2.6 1.96 c0.04 -0.12 0.32 -0.72 0.4 -0.76 z M91.00399999999999 17.72 l2.56 -1.96 l0.04 0 l-0.16 0.56 l-2.64 2 l0.16 -0.6 l0.04 0 z M100.44399999999999 18.76 l-0.6 0 l2.92 -2.2 l0.64 0 z M101.32399999999998 18.76 l-0.04 0 l2.96 -2.2 c0.2 0 0.4 0 0.56 0.04 l-2.92 2.16 l-0.08 0 l-0.12 0 l-0.36 0 z M102.60399999999998 18.88 l2.84 -2.16 l0.04 0 s0.12 0 0.12 0.04 c0.04 0 0.32 0.04 0.32 0.12 l-2.84 2.12 c-0.04 0 -0.12 0 -0.12 -0.04 c-0.04 0 -0.28 -0.04 -0.32 -0.08 l-0.04 0 z M90.52399999999999 19.6 l0 -0.04 l0.08 -0.44 l0.08 -0.08 l2.56 -1.92 l0.04 -0.04 l-0.08 0.48 c0 0.04 0 0.08 -0.04 0.08 z M103.564 19.28 l0 -0.04 l2.76 -2.04 l0.04 0 c0.04 0.04 0.2 0.32 0.16 0.32 l-2.76 2.08 c-0.04 -0.08 -0.04 -0.12 -0.08 -0.16 s-0.16 -0.12 -0.12 -0.16 z M103.88399999999999 20.12 l2.76 -2.04 c0 0.04 0.04 0.36 0.04 0.44 l-0.04 0 l-2.68 2.04 c-0.04 -0.12 -0.08 -0.36 -0.08 -0.44 z M90.44399999999999 20.32 l2.68 -2 c0 0.12 0 0.48 -0.04 0.52 l-2.64 1.96 l-0.04 0.04 c0 -0.08 0 -0.48 0.04 -0.52 z M104.00399999999999 21.16 l2.68 -2.04 l0.04 0 l0.08 0.4 l-2.76 2.08 l0 -0.04 s-0.04 -0.24 -0.04 -0.4 z M90.36399999999999 21.48 l2.68 -2 c0 0.08 -0.04 0.44 -0.04 0.44 l-2.68 2.04 l0 -0.12 c0 -0.08 -0.04 -0.28 0.04 -0.36 z M93.00399999999999 21.04 l-2.72 2.04 l0 -0.44 c0 -0.04 0 -0.04 0.04 -0.08 l2.68 -2 l0 0.48 z M90.28399999999999 24.16 l0 -0.48 l2.72 -2 l0 0.48 z M90.28399999999999 24.8 l2.72 -2.04 l0 0.48 l-2.72 2.04 l0 -0.48 z M90.28399999999999 25.880000000000003 l2.72 -2 l0 0.48 l-2.72 2.04 l0 -0.52 z M90.28399999999999 27.48 l0 -0.48 l2.72 -2 l0 0.44 z M90.28399999999999 28.119999999999997 l2.72 -2.04 l0 0.48 l-2.72 2.04 l0 -0.48 z M90.28399999999999 29.2 l2.72 -2 l0 0.48 l-2.72 2 l0 -0.48 z M101.36399999999999 30.16 l-0.64 0 l2.96 -2.2 l0.64 0 z M102.204 30.16 l2.96 -2.2 l0.6 0 l-2.92 2.2 l-0.64 0 z M104.00399999999999 30.16 l-0.32 0 l2.96 -2.2 l0.08 0 l0 0.4 l-2.72 2.04 l0 -0.24 z M90.28399999999999 30.32 l2.72 -2.04 l0 0.04 l0 0.28 l0 0.12 l-2.68 2.04 c-0.04 -0.12 -0.04 -0.24 -0.04 -0.36 l0 -0.08 z M90.324 31.36 l2.72 -2.04 c0.04 0.16 0.04 0.28 0.04 0.48 l-2.72 2.04 l0 -0.08 s0 -0.2 -0.04 -0.4 z M90.44399999999999 32.4 l2.72 -2 s0.04 0.24 0.04 0.4 l-2.72 2.04 c-0.04 -0.12 -0.04 -0.28 -0.04 -0.44 z M106.16399999999999 31.04 l0 -0.04 c-0.04 0 -0.04 0.04 0 0.04 z M90.564 33.4 l2.72 -2.04 c0.04 0.16 0.08 0.44 0.08 0.44 l-2.72 2.04 z M90.72399999999999 34.4 l0 -0.04 l2.76 -2.04 l0 0.04 l0.08 0.32 l-2.72 2.08 c-0.04 -0.16 -0.12 -0.36 -0.12 -0.36 z M90.964 35.28 l2.76 -2.08 c0.08 0.12 0.16 0.36 0.16 0.36 l-2.76 2.08 l-0.04 0 z M91.324 36.12 l2.72 -2.04 l0.04 -0.04 l0 0.04 l0.16 0.32 l-2.76 2.08 c-0.04 -0.04 -0.12 -0.2 -0.12 -0.24 c-0.04 -0.04 -0.08 -0.12 -0.04 -0.12 z M91.72399999999999 36.92 l2.76 -2.08 c0.04 0.04 0.2 0.24 0.24 0.32 l-2.8 2.08 c-0.04 -0.04 -0.16 -0.24 -0.2 -0.32 z M92.204 37.64 l2.8 -2.08 l0.28 0.28 l-2.8 2.08 l-0.12 -0.12 z M92.844 38.28 l2.84 -2.12 c0.08 0.08 0.28 0.24 0.28 0.24 l-2.8 2.12 c-0.04 0 -0.08 -0.04 -0.08 -0.04 c-0.08 -0.08 -0.24 -0.2 -0.24 -0.2 z M93.60399999999998 38.8 l2.84 -2.12 l0.36 0.2 l-2.84 2.16 c-0.16 -0.08 -0.36 -0.2 -0.36 -0.2 l0 -0.04 z M104.16399999999999 39.68 l3.08 -2.32 c0.04 0 0.2 -0.04 0.24 -0.04 l0.72 -0.24 c0 0.04 -0.04 0.08 -0.08 0.08 l-2.96 2.24 c-0.04 0.04 -0.92 0.28 -0.96 0.28 l-0.04 0 z M94.484 39.28 l2.88 -2.16 l0.4 0.12 l0.04 0 c0 0.04 0 0.04 -0.04 0.04 l-2.84 2.12 c-0.16 -0.04 -0.32 -0.08 -0.44 -0.12 z M95.52399999999999 39.6 l0 -0.04 l2.88 -2.12 l0.04 -0.04 l0.48 0.12 l-2.88 2.16 c-0.12 0 -0.48 -0.08 -0.52 -0.08 z M102.36399999999999 39.92 l2.96 -2.24 l0.8 -0.08 l-3 2.24 c-0.04 0.04 -0.6 0.08 -0.64 0.08 l-0.12 0 z M96.72399999999999 39.76 l2.92 -2.16 l0.52 0.08 l-2.92 2.2 l-0.52 -0.08 l0 -0.04 z M98.00399999999999 39.92 l2.92 -2.16 c0 -0.04 0 -0.04 0.04 -0.04 c0.16 0 0.36 0.04 0.56 0.04 l-2.92 2.2 c-0.16 0 -0.52 -0.04 -0.6 -0.04 z M100.88399999999999 39.96 l2.96 -2.2 l0.44 0 l0.12 0 l-2.92 2.2 l-0.16 0 c0 0 -0.32 0.04 -0.44 0 z M100.044 40 l-0.64 0 l2.92 -2.2 l0.64 0 z M127.032 29.48 l-0.04 -13.76 l-0.96 -0.28 c-0.32 -0.12 -0.56 -0.44 -0.56 -0.76 l0 -3.92 c0 -0.28 0.28 -0.76 0.64 -0.76 l7.24 0 c0.36 0 0.6 0.52 0.6 0.84 l0 3.72 c0 0.32 -0.16 0.72 -0.48 0.84 l-1.04 0.36 l0 13.52 c0 1.16 0.28 1.56 1.44 1.76 c0.68 0.12 1.36 0.12 2.08 0.12 l0.2 0 l2.64 -1.96 l0 0.4 c0 0.04 0 0.08 -0.04 0.12 l-1.92 1.44 l0.12 0 c0.24 0 0.52 0 0.76 -0.08 l1.04 -0.76 c0 0.2 -0.08 0.36 -0.08 0.56 c0.76 -0.36 0.76 -1.28 0.76 -2 l0 -13.16 l-0.96 -0.28 c-0.4 -0.12 -0.56 -0.52 -0.56 -0.88 l0 -3.76 c0 -0.32 0.24 -0.8 0.6 -0.8 l7.24 0 c0.32 0 0.6 0.44 0.6 0.72 l0 4 c0 0.32 -0.24 0.6 -0.52 0.72 l-1 0.28 l0 13.8 c0 3.44 -1.56 7 -5.32 7.36 l-1.44 0.16 c-0.72 0.04 -1.48 0.04 -2.2 0.04 l-0.48 0 l-1.8 -0.08 l-1.44 -0.16 c-3.12 -0.32 -4.84 -3.32 -5.04 -6.2 z M122.792 12.879999999999999 l-0.6 0.48 c0 -0.2 0.4 -0.48 0.6 -0.48 z M122.112 14.04 l1.52 -1.16 l0.64 0 l-2.16 1.64 l0 -0.48 z M134.59199999999998 13.52 l0.84 -0.64 l0.64 0 l-1.52 1.16 l0 -0.36 c0 -0.08 0 -0.12 0.04 -0.16 z M134.552 14.68 l2.36 -1.8 l0.36 0 l0 0.24 l-2.72 2.04 l0 -0.48 z M122.112 15.64 l0 -0.48 l2.72 -2.04 l0 0.48 l-2.68 2 s0 0.04 -0.04 0.04 z M134.552 15.760000000000002 l2.72 -2 l0 0.48 l-2.72 2 l0 -0.48 z M122.112 16.28 l2.72 -2.04 l0 0.48 l-2.72 2.04 l0 -0.48 z M134.552 17.36 l0 -0.48 l2.72 -2.04 l0 0.48 z M122.112 17.36 l0.04 0 l2.68 -2.04 c0.04 0.12 0.04 0.28 0.08 0.4 l-2.76 2.08 c-0.04 -0.12 -0.04 -0.24 -0.04 -0.32 l0 -0.12 z M134.632 17.92 l2.8 -2.08 l0.08 0.08 c0.04 0.04 0.2 0.12 0.24 0.16 l-2.84 2.12 l-0.04 0.04 c-0.04 0 -0.28 -0.28 -0.24 -0.32 z M122.43199999999999 18.2 l2.84 -2.12 c0.04 0 0.08 0 0.12 0.04 c0.04 0 0.28 0.08 0.32 0.08 l-2.88 2.16 c-0.16 -0.04 -0.28 -0.08 -0.4 -0.16 z M135.432 18.44 l2.88 -2.16 c0.2 0.04 0.48 0.12 0.48 0.12 l-2.88 2.16 c-0.12 0 -0.4 -0.12 -0.48 -0.12 z M123.43199999999999 18.56 l2.84 -2.16 l0.08 0 l0 0.44 l-2.72 2.04 l0 -0.24 c0 -0.04 -0.16 -0.04 -0.2 -0.08 z M136.072 19.08 l2.72 -2.04 l0 0.48 l-2.72 2.04 l0 -0.48 z M123.63199999999999 20 l0 -0.48 l2.72 -2.04 l0 0.48 z M136.072 20.16 l2.72 -2.04 l0 0.44 l-2.68 2.04 l-0.04 0 l0 -0.44 z M123.63199999999999 20.6 l2.72 -2.04 l0 0.48 l-2.72 2.04 l0 -0.48 z M136.072 21.24 l2.72 -2.04 l0 0.48 l-2.72 2.04 l0 -0.48 z M123.63199999999999 21.72 l2.72 -2.04 l0 0.48 l-2.72 2.04 l0 -0.48 z M136.072 22.36 l2.72 -2.04 l0 0.48 l-2.72 2.04 l0 -0.48 z M123.63199999999999 23.32 l0 -0.48 l2.72 -2.04 l0 0.48 z M136.072 23.96 l0 -0.48 l2.68 -2.04 l0.04 0 l0 0.48 l-2.68 2 s0 0.04 -0.04 0.04 z M123.63199999999999 24.4 l0 -0.48 l2.72 -2 l0 0.48 z M136.072 25.08 l0 -0.52 l2.72 -2.04 l0 0.48 z M123.63199999999999 25.04 l2.72 -2.04 l0 0.48 l-2.72 2.04 l0 -0.48 z M136.072 25.68 l2.72 -2.04 l0 0.48 l-2.72 2.04 l0 -0.48 z M123.63199999999999 26.64 l0 -0.48 l2.72 -2.04 l0 0.48 z M136.072 27.28 l0 -0.48 l2.68 -2 l0.04 -0.04 l0 0.48 l-2.68 2 s0 0.04 -0.04 0.04 z M123.63199999999999 27.759999999999998 l0 -0.48 l2.72 -2.04 l0 0.48 z M136.072 28.4 l0 -0.48 l2.72 -2.08 l0 0.52 z M123.63199999999999 28.36 l2.72 -2.04 l0 0.48 l-2.72 2.04 l0 -0.48 z M136.072 29 l2.72 -2.04 l0 0.48 l-2.72 2.04 l0 -0.48 z M123.63199999999999 29.92 l0 -0.44 l2.72 -2.04 l0 0.44 z M136.072 30.6 l0 -0.48 l2.68 -2 l0.04 -0.04 l0 0.48 l-2.68 2 s0 0.04 -0.04 0.04 z M123.63199999999999 30.560000000000002 l2.72 -2.04 l0 0.48 l-2.72 2.04 l0 -0.48 z M123.63199999999999 31.68 l2.72 -2.04 c0.04 0.12 0.04 0.24 0.04 0.36 l0 0.12 l-2.72 2 l-0.04 0 l0 -0.44 z M123.672 32.76 l2.76 -2.04 l0 0.4 l0 0.08 l-2.72 2 c-0.04 -0.12 -0.04 -0.24 -0.04 -0.36 l0 -0.08 z M123.792 33.8 l2.72 -2.04 l0.08 0.4 l-2.76 2.08 s-0.04 -0.32 -0.04 -0.4 c0 -0.04 -0.04 -0.04 0 -0.04 z M123.952 34.76 l2.72 -2.04 l0.12 0.4 l-2.76 2.08 c-0.04 -0.08 -0.08 -0.32 -0.08 -0.44 z M124.152 35.72 l2.76 -2.04 c0.08 0.12 0.16 0.36 0.16 0.36 l-2.76 2.04 c-0.04 -0.04 -0.16 -0.32 -0.16 -0.36 z M124.512 36.6 l2.76 -2.12 l0.2 0.36 l-2.8 2.08 c-0.04 -0.04 -0.12 -0.16 -0.12 -0.2 s-0.04 -0.12 -0.04 -0.12 z M124.91199999999999 37.36 l0.04 0 l2.76 -2.08 l0.24 0.28 l-2.8 2.12 l-0.12 -0.12 c-0.04 -0.08 -0.12 -0.2 -0.12 -0.2 z M125.512 38.04 l2.72 -2.04 c0.16 0.04 0.24 0.12 0.36 0.24 l-2.84 2.12 l-0.12 -0.12 c0 0 -0.12 -0.12 -0.12 -0.2 z M126.152 38.68 l0 -0.04 l2.84 -2.12 c0.08 0.04 0.32 0.2 0.36 0.24 l-2.88 2.12 c-0.08 -0.04 -0.28 -0.2 -0.32 -0.2 z M126.952 39.16 l2.84 -2.12 c0.12 0 0.36 0.12 0.44 0.16 l-2.84 2.12 c-0.16 0 -0.32 -0.08 -0.44 -0.16 z M136.512 39.72 l3.08 -2.32 c0.24 -0.04 0.44 -0.12 0.68 -0.2 c-0.04 0.12 -0.12 0.28 -0.24 0.36 l-2.52 1.88 c-0.28 0.16 -0.64 0.24 -1 0.28 z M127.952 39.56 l2.88 -2.16 l0.44 0.08 l-2.92 2.2 s-0.24 -0.08 -0.4 -0.12 z M129.03199999999998 39.8 l0 -0.04 l2.88 -2.12 l0.08 -0.04 l0.52 0.08 l-2.92 2.16 c-0.2 0 -0.4 0 -0.56 -0.04 z M135.512 39.88 l-0.72 0.04 l3 -2.24 c0.24 -0.04 0.64 -0.08 0.68 -0.08 l0.04 0 z M130.352 39.92 l2.92 -2.2 l0.6 0.04 l-2.92 2.2 l-0.08 0 c-0.16 0 -0.36 0 -0.52 -0.04 z M136.87199999999999 37.72 l-2.96 2.24 c-0.08 0.04 -0.16 0.04 -0.28 0.04 l-0.32 0 l-0.08 0 l2.92 -2.2 c0 -0.08 0.56 -0.08 0.72 -0.08 z M132.352 40 l-0.64 0 l2.96 -2.24 l0.08 0 l0.56 0 z M160.66 31.28 l0 -15.52 l-0.96 -0.28 c-0.32 -0.12 -0.56 -0.44 -0.56 -0.76 l0 -3.96 c0 -0.28 0.28 -0.76 0.6 -0.76 l7.32 0 c0.36 0 0.64 0.48 0.64 0.8 l0 3.8 c0 0.92 -0.88 0.96 -1.56 1.16 l-0.04 0 l0 15.36 l4.88 0 l0.32 -1.32 c0.04 -0.24 0.32 -0.6 0.6 -0.6 l3.12 0 c0.32 0 0.64 0.44 0.64 0.76 l0 6.4 c0 0.28 -0.32 0.72 -0.64 0.72 l-15.24 0 c-0.32 0 -0.64 -0.48 -0.64 -0.8 l0 -3.92 c0 -0.32 0.24 -0.64 0.52 -0.72 z M155.74 13.879999999999999 l1.28 -0.96 l0.64 0 l-1.92 1.44 l0 -0.48 z M155.74 15.48 l0 -0.48 l2.68 -2.04 l0.04 0 l0 0.44 z M155.74 16.12 l2.72 -2.08 l0 0.48 l-2.72 2.08 l0 -0.48 z M155.74 17.2 l2.72 -2 l0 -0.04 c0.04 0.16 0.04 0.32 0.08 0.44 l-2.8 2.08 l0 -0.48 z M155.94 18.2 l2.88 -2.16 c0.12 0.08 0.24 0.12 0.4 0.16 l-2.92 2.2 c-0.12 0 -0.28 -0.12 -0.36 -0.2 z M157.3 18.68 l-0.4 -0.12 l2.92 -2.16 c0.04 0 0.2 0.04 0.2 0.04 l0 0.28 l-2.72 2.04 l0 -0.08 z M157.3 19.4 l2.72 -2.04 l0 0.44 l-2.72 2.04 l0 -0.44 z M157.3 20.96 l0 -0.48 l2.72 -2.04 l0 0.48 z M157.3 21.6 l2.72 -2.04 l0 0.48 l-2.72 2.04 l0 -0.48 z M157.3 22.72 l2.72 -2.04 l0 0.48 l-2.72 2.04 l0 -0.48 z M157.3 24.32 l0 -0.48 l2.72 -2.04 l0 0.48 z M157.3 25.439999999999998 l0 -0.48 l2.72 -2.04 l0 0.48 z M157.3 26.08 l2.72 -2.08 l0 0.52 l-2.72 2.04 l0 -0.48 z M157.3 27.68 l0 -0.48 l2.72 -2.08 l0 0.52 z M157.3 28.8 l0 -0.48 l2.72 -2.08 l0 0.48 z M157.3 29.439999999999998 l2.72 -2.08 l0 0.48 l-2.72 2.08 l0 -0.48 z M157.3 30.52 l2.72 -2.04 l0 0.48 l-2.72 2.08 l0 -0.52 z M157.3 32.16 l0 -0.52 l2.72 -2.04 l0 0.48 z M157.3 32.76 l2.72 -2.04 l0 0.44 l-2.72 2.08 l0 -0.48 z M157.3 34.24 l0 -0.36 l1.2 -0.92 c0 0.2 0 0.48 -0.04 0.48 l-2.72 2.04 l0 -0.08 c0 -0.16 0 -0.36 0.12 -0.48 l0.56 -0.4 z M155.74 36.6 l0 -0.48 l2.72 -2.04 l0 0.48 z M155.74 37.24 l2.72 -2.04 l0 0.48 l-2.72 2.04 l0 -0.48 z M155.74 38.36 l2.72 -2.04 l0 0.48 l-2.72 2.04 l0 -0.48 z M155.78 39.44 l2.76 -2.08 l0.04 0 c0.08 0.12 0.16 0.2 0.28 0.28 l-2.88 2.16 c-0.04 -0.04 -0.2 -0.32 -0.2 -0.36 z M156.54000000000002 40 l3 -2.24 l0.64 0 l-2.96 2.24 l-0.68 0 z M158.70000000000002 40 l-0.64 0 l2.96 -2.24 l0.64 0 z M159.54000000000002 40 l2.96 -2.24 l0.68 0 l-3 2.24 l-0.64 0 z M161.02 40 l3 -2.24 l0.64 0 l-2.96 2.24 l-0.68 0 z M162.54000000000002 40 l2.96 -2.24 l0.64 0 l-2.96 2.24 l-0.64 0 z M164.66 40 l-0.64 0 l2.96 -2.24 l0.68 0 z M165.5 40 l3 -2.24 l0.56 0 l-2.96 2.24 l-0.6 0 z M166.94 40 l2.96 -2.24 l0.68 0 l-3 2.24 l-0.64 0 z M168.42000000000002 40 l3 -2.24 l0.64 0 l-2.96 2.24 l-0.68 0 z M170.58 40 l-0.64 0 l2.32 -1.76 l0 0.48 z M171.42000000000002 40 l0.84 -0.64 c0 0.32 -0.4 0.64 -0.72 0.64 l-0.12 0 z M189.928 30.92 l-0.16 0.48 l0.52 -0.16 l0.04 -0.08 l5.48 -20.52 c0.04 -0.24 0.24 -0.64 0.52 -0.64 l5.76 0 c0.28 0 0.52 0.28 0.56 0.52 l5.52 20.68 c0.04 0.04 0.04 0.08 0.04 0.08 l1.12 0.36 c0.28 0.08 0.52 0.44 0.52 0.72 l0 4 c0 0.32 -0.32 0.72 -0.68 0.72 l-7.36 0 c-0.4 0 -0.64 -0.44 -0.68 -0.76 l0 -0.72 c0 -1.04 0 -2.08 0.04 -3.12 c0 -0.32 0.12 -0.68 0.44 -0.8 l0.72 -0.24 l0.04 -0.04 l-0.72 -2.68 s-2.84 0 -4.08 -0.04 l-0.72 0 l-0.44 0 l-0.16 0.8 l0 0.04 l0.16 -0.16 l0.68 0 l-0.92 0.68 c-0.04 0.04 -0.04 0.04 -0.04 0.08 l-0.12 0.6 l0 0.08 l1.88 -1.4 l0.64 0 l-2.6 1.96 l0 0 l0.52 0.2 l2.92 -2.16 l0.6 0 l-2.96 2.24 l-0.36 0 c0.24 0.12 0.44 0.4 0.44 0.72 l0 3.96 c0 0.32 -0.28 0.76 -0.64 0.76 l-7.36 0 c-0.36 0 -0.64 -0.44 -0.64 -0.76 l0 -3.96 c-0.24 0 -0.48 0.24 -0.56 0.44 c-0.04 0.04 -0.04 0.12 -0.08 0.16 l-0.76 0.56 l0.16 -0.6 s0.04 0 0.04 -0.04 l2.64 -1.96 l0.04 0 z M193.728 12.920000000000002 l-1.44 1.08 c0 -0.08 0.12 -0.44 0.12 -0.52 l0.04 -0.08 l0.64 -0.48 l0.64 0 z M192.048 14.8 l2.56 -1.88 l0.12 0 l-0.12 0.48 l-2.72 2 z M191.728 16.2 l2.64 -2 l-0.16 0.6 l-2.68 2 l0 -0.04 s0.12 -0.36 0.2 -0.56 z M193.848 16.2 l-2.68 2 l0.16 -0.56 l0 -0.04 l2.64 -1.96 l0.04 -0.04 z M200.448 23.2 l-1.32 -6.32 l-0.4 1.84 l0 0.08 c0 0.08 0.08 0.28 0.08 0.36 c-0.08 0.04 -0.24 0.08 -0.24 0.2 l-0.16 0.72 l0.52 -0.4 l0.08 0.4 c0 0.04 0 0.04 -0.04 0.04 l-0.72 0.56 l-0.16 0.76 l1.04 -0.8 l0.08 0.44 l-1.24 0.92 c-0.04 0 -0.04 0.04 -0.04 0.04 l-0.16 0.72 l1.56 -1.12 c0 0.08 0.08 0.32 0.08 0.4 l-0.04 0.04 l-1.56 1.16 l0.12 0 l0.72 0 l0.88 -0.64 l0.08 0.4 c-0.04 0.04 -0.24 0.2 -0.28 0.2 l0.2 0 l0.92 0 z M193.448 17.6 l-2.64 2 l0 -0.04 s0.12 -0.56 0.16 -0.56 l2.6 -1.96 l0.04 -0.04 c0 0.08 -0.12 0.48 -0.16 0.6 z M193.088 19 l-2.68 2 s0.12 -0.4 0.16 -0.6 l2.68 -2 c0 0.04 -0.12 0.56 -0.16 0.6 z M190.048 22.4 l0.16 -0.6 l2.68 -2.04 l-0.16 0.6 l0 0.04 l-2.64 1.96 z M189.688 23.72 l0.12 -0.52 l2.68 -2 l-0.12 0.52 z M189.488 24.52 l2.68 -2 l-0.16 0.6 l-2.68 2 l0.12 -0.56 c0 -0.04 0.04 -0.04 0.04 -0.04 z M189.12800000000001 25.92 l2.64 -2 s-0.08 0.4 -0.16 0.6 l-2.68 2 c0 -0.04 0.16 -0.56 0.2 -0.6 z M188.728 27.32 l2.68 -2 l0 0.04 s-0.12 0.36 -0.16 0.56 l-2.68 2 c0 -0.08 0.12 -0.48 0.16 -0.6 z M188.368 28.72 l2.68 -2 l-0.16 0.6 l-2.72 2 z M187.968 30.119999999999997 l2.68 -2 l0 0.04 s-0.08 0.36 -0.16 0.56 l-2.68 2 z M197.848 31.64 l2.96 -2.24 l0.2 0 l0.04 0.28 l0 0.04 l-2.76 2.08 c0 -0.04 -0.04 -0.12 -0.04 -0.16 l-0.4 0 z M187.608 31.48 l2.68 -2 l-0.16 0.64 l-2.68 2 l0 -0.04 l0.16 -0.56 l0 -0.04 z M198.448 32.28 l2.72 -2 c0.08 0.08 0.16 0.32 0.16 0.32 l0 0.04 l-2.8 2.08 c-0.04 -0.08 -0.08 -0.32 -0.08 -0.44 z M198.728 33.2 l2.72 -2.04 l0.12 0.36 c0 0.04 0 0.04 -0.04 0.08 l-2.76 2.04 l-0.08 -0.36 c0 -0.04 0 -0.04 0.04 -0.08 z M198.928 34.2 c0 -0.04 0.04 -0.04 0.04 -0.04 l1.56 -1.16 c0 0.16 -0.04 0.32 -0.04 0.48 l-2.72 2.04 l0 -0.08 c0 -0.12 0 -0.4 0.12 -0.48 c0.08 -0.08 0.44 -0.36 0.6 -0.44 l0.48 -0.2 z M185.048 35.64 l2.76 -2.04 l0 0.48 l-2.76 2.08 l0 -0.52 z M197.728 36.16 l0.04 0 l2.72 -2.04 l0 0.48 l-2.76 2.08 l0 -0.52 z M185.648 34.6 l-0.48 0.32 c0.08 -0.12 0.28 -0.32 0.48 -0.32 z M185.048 36.76 l2.76 -2.04 l0 0.48 l-2.76 2.08 l0 -0.52 z M197.728 37.28 l0.04 0 l2.72 -2.04 l0 0.2 l0 0.28 l-2.76 2.08 l0 -0.2 l0 -0.16 l0 -0.16 z M185.048 38.36 l0 -0.48 l2.68 -2 c0.04 0 0.04 -0.04 0.08 -0.04 l0 0.48 z M197.728 38.44 l0 -0.04 l2.76 -2.04 l0 0.44 c0 0.04 -0.04 0.04 -0.08 0.08 l-2.68 2.04 l0 -0.08 l0 -0.4 z M185.048 39 l2.76 -2.04 c0 0.12 0.08 0.28 0.08 0.4 l-2.8 2.08 c-0.04 -0.08 -0.04 -0.24 -0.04 -0.32 l0 -0.12 z M197.808 39.48 l2.76 -2.08 l0.04 0 c0.08 0.12 0.16 0.16 0.28 0.28 l-2.88 2.12 c-0.04 0 -0.2 -0.24 -0.2 -0.32 z M185.40800000000002 39.88 l2.84 -2.16 c0.2 0 0.4 0.04 0.56 0.04 l-2.96 2.24 l-0.08 0 c-0.16 0 -0.28 -0.04 -0.36 -0.12 z M186.688 40 l2.96 -2.24 l0.68 0 l-3 2.24 l-0.64 0 z M188.168 40 l3 -2.24 l0.64 0 l-3 2.24 l-0.64 0 z M190.328 40 l-0.64 0 l2.96 -2.24 l0.64 0 z M198.608 40 l3 -2.24 l0.64 0 l-3 2.24 l-0.64 0 z M200.768 40 l-0.64 0 l2.96 -2.24 l0.64 0 z M202.248 40 l-0.64 0 l2.96 -2.24 l0.64 0 z M203.088 40 l2.96 -2.24 l0.4 0 l0 0.16 l-2.76 2.08 l-0.6 0 z M191.808 40 l-0.64 0 l2.56 -1.92 l0 0.48 z M205.168 40 l-0.64 0 l1.92 -1.44 l0 0.48 z M193.088 40 l-0.44 0 l1.08 -0.8 c0 0.32 -0.28 0.8 -0.64 0.8 z M224.15599999999998 31.28 l0 -15.52 l-0.96 -0.28 c-0.32 -0.12 -0.56 -0.44 -0.56 -0.76 l0 -3.96 c0 -0.28 0.28 -0.76 0.6 -0.76 l12.12 0 c5 0 6.68 3.36 6.68 7.8 l0 1.64 l-0.08 2.16 c-0.08 1.32 -0.72 2.84 -1.68 3.76 c-0.04 0.04 -0.28 0.2 -0.28 0.24 c0.04 0.04 0.12 0.12 0.16 0.12 c1.2 0.96 1.64 2.76 1.68 4.24 l0.04 1.32 c0.16 0.08 0.8 0.28 0.96 0.32 c0.32 0.12 0.6 0.36 0.6 0.72 l0 4 c0 0.36 -0.32 0.76 -0.68 0.76 l-5.64 0 c-0.36 0 -0.64 -0.48 -0.64 -0.8 l0 -5.16 c0 -1.08 -0.48 -2.4 -1.72 -2.4 l-5.16 0 l0 0.68 l0.52 0 l-0.52 0.4 l0 0.64 l1.36 -1.04 l0.64 0 l-2 1.52 l0 0.36 l0.24 0.08 l0 0 l2.6 -1.96 l0.68 0 l-2.8 2.08 c0.52 0.2 0.88 0.4 0.88 1 l0 3.72 c0 0.36 -0.24 0.88 -0.68 0.88 l-7.24 0 c-0.36 0 -0.64 -0.44 -0.64 -0.76 l0 -3.96 c0 -0.32 0.24 -0.64 0.52 -0.72 z M219.236 14.16 l0 -0.48 l1.04 -0.76 l0.64 0 z M219.236 14.8 l2.52 -1.88 l0.2 0 l0 0.32 l-2.72 2.04 l0 -0.48 z M219.236 15.920000000000002 l2.72 -2.04 l0 0.48 l-2.72 2.04 l0 -0.48 z M219.236 17.52 l0 -0.48 l2.68 -2 c0.08 0.04 0.08 0.32 0.08 0.44 z M219.356 18.08 l2.84 -2.12 c0.12 0.08 0.2 0.12 0.36 0.2 l-2.88 2.16 c-0.08 0 -0.32 -0.24 -0.32 -0.24 z M229.596 15.96 l0 1.08 c0.08 -0.04 0.48 -0.36 0.56 -0.4 l0.64 0 l-1.2 0.88 l0 0.64 l2.04 -1.52 l0.64 0 l-2.68 2 l0 4.12 l4.32 0 l2.04 -1.52 c0 0.12 0 0.48 -0.08 0.56 l-1.24 0.92 c1.92 0 1.96 -1.44 2 -2.88 l0 -0.6 c0 -0.64 0 -1.32 -0.12 -1.96 c-0.16 -1.32 -1.04 -1.32 -2.2 -1.32 l-0.24 0 l-4.48 0 z M220.676 18.64 l-0.44 -0.12 l2.88 -2.16 l0.04 0 l0.36 0.08 l0 0.12 l-2.76 2.08 c-0.04 0 -0.04 0.04 -0.08 0.04 l0 -0.04 z M230.15599999999998 18.88 l3 -2.24 l0.6 0 l-2.96 2.24 l-0.64 0 z M231.636 18.92 l-0.04 0 l2.92 -2.2 c0.12 0 0.48 0.04 0.52 0.08 l-2.88 2.16 c0 0.04 0 0.04 -0.04 0.04 c-0.16 0 -0.36 -0.08 -0.48 -0.08 z M232.676 19.2 l2.84 -2.08 c0.12 0.04 0.24 0.2 0.24 0.28 l-2.8 2.08 c-0.08 -0.08 -0.2 -0.16 -0.28 -0.28 z M220.796 19.72 l0 -0.48 l2.72 -2.04 l0 0.48 z M233.11599999999999 20 l2.76 -2.08 l0 0.04 s0.04 0.24 0.04 0.44 l-2.76 2.04 z M220.796 20.84 l0 -0.48 l2.72 -2.08 l0 0.52 z M233.236 21.04 l2.72 -2.04 c0.04 0.08 0.04 0.28 0.04 0.44 l-2.76 2.08 l0 -0.4 l0 -0.08 z M220.796 21.48 l2.72 -2.08 l0 0.52 l-2.72 2.04 l0 -0.48 z M233.236 22.12 l2.76 -2.04 l0 0.2 l0 0.2 c0 0.04 0 0.08 -0.04 0.08 l-2.72 2.08 l0 -0.52 z M220.796 23.04 l0 -0.44 l2.72 -2.08 l0 0.44 z M220.796 24.16 l0 -0.52 l2.72 -2.04 l0 0.48 z M220.796 24.759999999999998 l2.72 -2.04 l0 0.48 l-2.72 2.04 l0 -0.48 z M234.596 22.72 l0 0 z M220.796 25.880000000000003 l2.72 -2.04 l0 0.48 l-2.72 2.04 l0 -0.48 z M220.796 27.48 l0 -0.48 l2.72 -2.04 l0 0.48 z M220.796 28.119999999999997 l2.72 -2.04 l0 0.48 l-2.72 2.04 l0 -0.48 z M220.796 29.240000000000002 l2.72 -2.04 l0 0.48 l-2.72 2.04 l0 -0.48 z M220.796 30.84 l0 -0.48 l2.72 -2.04 l0 0.48 z M230.956 31.64 l3 -2.24 c0.2 0 0.4 0 0.56 0.08 l-2.92 2.16 c-0.04 0.04 0 0.04 -0.04 0.04 c-0.2 0 -0.4 -0.04 -0.6 -0.04 z M220.796 31.96 l0 -0.48 l2.68 -2 c0 -0.04 0.04 -0.04 0.04 -0.04 l0 0.48 z M232.15599999999998 31.880000000000003 l2.84 -2.16 c0.04 0 0.28 0.24 0.28 0.28 l-2.84 2.12 c-0.08 -0.08 -0.2 -0.16 -0.28 -0.24 z M232.756 32.56 c0 -0.04 0.04 -0.04 0.04 -0.04 l2.76 -2.08 l0.12 0.36 c0 0.04 0 0.04 -0.04 0.04 l-2.72 2.04 c-0.08 -0.08 -0.16 -0.24 -0.16 -0.32 z M220.796 32.6 l2.72 -2.04 l0 0.48 l-2.72 2.04 l0 -0.48 z M233.036 33.44 l2.72 -2.04 s0.04 0.04 0.04 0.08 l0 0.36 l-2.76 2.08 l0 -0.04 l0 -0.44 z M233.076 35 l0 -0.48 l2.72 -2.04 l0 0.48 z M220.796 34.2 l0 -0.48 l1.24 -0.96 c-0.04 0.2 -0.04 0.36 -0.08 0.52 z M233.076 35.64 l2.72 -2.04 l0 0.48 l-2.72 2.04 l0 -0.48 z M219.236 36.48 l0 -0.48 l2.72 -2.08 l0 0.52 z M219.756 34.56 l0.92 -0.28 l-1.44 1.08 c0 -0.4 0.2 -0.68 0.52 -0.8 z M233.076 37.24 l0 -0.48 l2.72 -2.04 l0 0.48 z M219.236 37.12 l2.72 -2.08 l0 0.48 l-2.72 2.04 l0 -0.44 z M233.076 38.36 l0 -0.48 l2.72 -2.04 l0 0.48 z M219.236 38.68 l0 -0.48 l2.68 -2.04 l0.04 0 l0 0.48 z M233.076 39 l2.72 -2.04 c0.04 0.08 0.12 0.32 0.12 0.4 l-2.8 2.08 c-0.04 -0.12 -0.04 -0.24 -0.04 -0.36 l0 -0.08 z M219.236 39.32 c0 -0.04 0 -0.04 0.04 -0.04 l2.72 -2.04 c0.08 0.12 0.16 0.2 0.24 0.32 l-2.8 2.08 l-0.04 0.04 c-0.04 0 -0.16 -0.32 -0.16 -0.36 z M233.396 39.88 l2.88 -2.16 l0.12 0 c0.12 0.04 0.28 0.04 0.4 0.04 l-2.96 2.24 c-0.16 0 -0.28 -0.04 -0.44 -0.12 z M219.83599999999998 39.96 l2.96 -2.2 l0.64 0 l-2.96 2.24 l-0.64 0 l0 -0.04 z M221.956 40 l-0.64 0 l2.96 -2.24 l0.64 0 z M222.796 40 l2.96 -2.24 l0.68 0 l-3 2.24 l-0.64 0 z M224.27599999999998 40 l3 -2.24 l0.48 0 l0 0.12 l-2.8 2.12 l-0.68 0 z M235.31599999999997 40 l-0.64 0 l2.96 -2.24 l0.64 0 z M236.796 40 l-0.64 0 l2.96 -2.24 l0.68 0 z M237.636 40 l2.4 -1.8 l0 0.48 l-1.72 1.32 l-0.68 0 z M226.43599999999998 40 l-0.64 0 l1.96 -1.52 l0 0.52 z M239.156 40 l0.88 -0.68 c0 0.36 -0.44 0.68 -0.76 0.68 l-0.12 0 z M257.74399999999997 31.28 l0 -15.52 l-0.96 -0.28 c-0.32 -0.12 -0.56 -0.44 -0.56 -0.76 l0 -3.96 c0 -0.28 0.28 -0.76 0.6 -0.76 l7.32 0 c0.32 0 0.6 0.44 0.6 0.72 l0 4 c0 0.32 -0.24 0.68 -0.56 0.76 c-0.16 0.04 -0.84 0.24 -0.96 0.28 l-0.04 0 l0 15.52 l1.08 0.36 c0.24 0.08 0.48 0.44 0.48 0.72 l0 3.96 c0 0.36 -0.32 0.76 -0.64 0.76 l-7.2 0 c-0.36 0 -0.68 -0.44 -0.68 -0.76 l0 -4.04 c-0.24 0.08 -0.48 0.2 -0.56 0.44 c-0.04 0.08 -0.04 0.16 -0.08 0.2 l-1.2 0.92 l0 -0.52 l2.72 -2.04 l0 0.24 z M253.02399999999997 13.2 c0.12 -0.08 0.28 -0.28 0.48 -0.28 l0.56 0 l-1.24 0.92 c0 -0.2 0.04 -0.52 0.2 -0.64 z M252.82399999999998 14.48 l2.08 -1.56 l0.64 0 l-2.72 2.04 l0 -0.48 z M252.82399999999998 15.600000000000001 l2.76 -2.08 l0 0.48 l-2.76 2.08 l0 -0.48 z M252.82399999999998 17.2 l0 -0.52 l2.68 -2 c0.04 0 0.04 -0.04 0.08 -0.04 l0 0.48 z M252.86399999999998 17.8 l2.8 -2.08 c0.04 0.12 0.12 0.2 0.2 0.32 l-2.84 2.12 l0 0 c-0.04 -0.04 -0.2 -0.32 -0.16 -0.36 z M253.944 18.56 l-0.44 -0.12 l2.88 -2.2 l0.08 0 l0.4 0.12 l0 0.04 z M254.384 19.32 l0 -0.44 l2.72 -2.04 l0 0.44 z M254.384 19.96 l2.72 -2.04 l0 0.48 l-2.72 2.04 l0 -0.48 z M254.384 21.08 l2.72 -2.04 l0 0.48 l-2.72 2.04 l0 -0.48 z M254.384 22.68 l0 -0.48 l2.72 -2.04 l0 0.48 z M254.384 23.32 l2.72 -2.04 l0 0.48 l-2.72 2.04 l0 -0.48 z M254.384 24.439999999999998 l2.72 -2.04 l0 0.48 l-2.72 2.04 l0 -0.48 z M254.384 26.04 l0 -0.48 l2.72 -2.08 l0 0.52 z M254.384 27.16 l0 -0.48 l2.72 -2.08 l0 0.52 z M254.384 27.8 l2.72 -2.08 l0 0.48 l-2.72 2.08 l0 -0.48 z M254.384 29.4 l0 -0.48 l2.72 -2.08 l0 0.48 z M254.384 30.52 l0 -0.52 l2.72 -2.04 l0 0.48 z M254.384 31.119999999999997 l2.72 -2.04 l0 0.48 l-2.72 2.08 l0 -0.52 z M254.384 32.24 l2.72 -2.04 l0 0.44 l-2.72 2.08 l0 -0.48 z M252.82399999999998 35.6 l2.76 -2.04 l0 0.48 l-2.76 2.08 l0 -0.52 z M253.384 34.56 l-0.44 0.32 c0 -0.12 0.36 -0.32 0.44 -0.32 z M252.82399999999998 37.2 l0 -0.48 l2.68 -2 c0.04 0 0.04 -0.04 0.08 -0.04 l0 0.48 z M252.82399999999998 38.32 l0 -0.48 l2.76 -2.04 l0 0.48 z M252.82399999999998 38.96 l2.72 -2.04 l0.04 0 c0 0.16 0.04 0.28 0.08 0.4 l-2.8 2.08 c-0.04 -0.08 -0.04 -0.2 -0.04 -0.32 l0 -0.12 z M253.14399999999998 39.84 l0.04 0 l2.8 -2.12 c0.12 0 0.2 0.04 0.28 0.04 l0.32 0 l-3 2.24 c-0.16 0 -0.36 -0.04 -0.44 -0.16 z M255.10399999999998 40 l-0.64 0 l2.96 -2.24 l0.64 0 z M255.944 40 l2.96 -2.24 l0.64 0 l-2.96 2.24 l-0.64 0 z M257.424 40 l3 -2.24 l0.64 0 l-3 2.24 l-0.64 0 z M259.584 40 l-0.64 0 l2.44 -1.84 l0 0.48 z M260.74399999999997 40 l-0.32 0 l0.92 -0.72 c0 0.32 -0.28 0.72 -0.6 0.72 z M281.29200000000003 17.84 l-3.16 0 c-0.28 0 -0.6 -0.48 -0.6 -0.76 l0 -6.28 c0 -0.28 0.32 -0.8 0.64 -0.8 l16.16 0 c0.32 0 0.64 0.48 0.64 0.76 l0 6.36 c0 0.28 -0.28 0.72 -0.6 0.72 l-3.2 0 c-0.32 0 -0.6 -0.4 -0.64 -0.68 l-0.24 -1.2 l-1.32 0 l0 0.68 l0.24 0 c-0.04 0.04 -0.16 0.12 -0.24 0.2 l0 0.6 c0.12 -0.08 0.6 -0.44 0.72 -0.48 l0.08 0.32 c0 0.08 0 0.08 -0.04 0.08 l-0.76 0.56 l0 0.64 l0.92 -0.68 c0 0.08 0.16 0.32 0.16 0.36 l-0.04 0.04 l-1.04 0.76 l0 0.64 l1.52 -1.12 l0.64 0 l-2.16 1.6 l0 11.12 l1 0.36 c0.28 0.08 0.52 0.4 0.52 0.72 l0 3.96 c0 0.32 -0.28 0.76 -0.64 0.76 l-7.2 0 c-0.4 0 -0.64 -0.44 -0.64 -0.8 l0 -3.88 c0 -0.12 0.08 -0.28 0.08 -0.4 l-1.92 1.44 l-0.04 0 l0 -0.44 l2.76 -2.04 l0 0.44 c0 0.08 -0.2 0.12 -0.24 0.2 l0.88 -0.32 l0 -15.32 l-1.32 0 l-0.24 1.16 l0.04 0 c0.08 -0.08 0.52 -0.4 0.64 -0.48 l0.24 0 l0 0.32 l-1.76 1.28 c0.08 -0.12 0.16 -0.24 0.16 -0.4 z M274.85200000000003 12.920000000000002 l-0.6 0.44 c0 -0.2 0.4 -0.44 0.6 -0.44 z M274.132 14.079999999999998 l1.56 -1.16 l0.64 0 l-2.2 1.64 l0 -0.48 z M274.132 15.2 l2.72 -2.04 l0 0.48 l-2.72 2.04 l0 -0.48 z M274.132 16.32 l2.72 -2.04 l0 0.48 l-2.72 2.04 l0 -0.48 z M274.132 17.92 l0 -0.48 l2.72 -2.04 l0 0.48 z M274.132 18.56 l2.72 -2.04 l0 0.48 l-2.72 2.04 l0 -0.48 z M281.972 17.16 c0.04 0 0.04 -0.04 0 -0.04 l0 0.04 z M280.132 19.64 l2.76 -2.04 l0 0.44 l-2.72 2 s0 0.04 -0.04 0.04 l0 -0.44 z M274.132 19.68 l2.72 -2.04 c0.04 0.12 0.08 0.28 0.08 0.4 l-2.76 2.08 c-0.04 0 -0.04 -0.04 -0.04 -0.08 l0 -0.36 z M274.412 20.6 l0 -0.04 l2.84 -2.08 l0 -0.04 c0.04 0 0.16 0.08 0.2 0.08 c0.08 0.04 0.24 0.04 0.32 0.04 l-3 2.24 c-0.12 0 -0.28 -0.12 -0.36 -0.2 z M280.132 18.52 l0.56 0 l0.12 0 l-0.68 0.48 l0 -0.12 l-0.48 0 z M276.29200000000003 20.8 l-0.64 0 l2.96 -2.24 l0.64 0 z M280.132 21.2 l0 -0.48 l2.76 -2.08 l0 0.52 z M289.652 20.8 l-0.64 0 l2.56 -1.96 l0 0.48 z M277.772 20.8 l-0.64 0 l1.52 -1.16 l0 0.04 c0 0.08 -0.08 0.52 -0.12 0.52 z M280.132 21.84 l2.76 -2.08 l0 0.52 l-2.76 2.04 l0 -0.48 z M290.932 20.8 l-0.44 0 l1.08 -0.84 c0 0.32 -0.28 0.84 -0.64 0.84 z M280.132 22.96 l2.76 -2.08 l0 0.52 l-2.72 2 s0 0.04 -0.04 0.04 l0 -0.48 z M280.132 24.560000000000002 l0 -0.48 l2.76 -2.08 l0 0.48 z M280.132 25.68 l0 -0.52 l2.76 -2.04 l0 0.48 z M280.132 26.28 l2.76 -2.04 l0 0.48 l-2.72 2.04 l-0.04 0 l0 -0.48 z M280.132 27.92 l0 -0.52 l2.76 -2.04 l0 0.48 z M280.132 29 l0 -0.48 l2.76 -2.04 l0 0.48 z M280.132 29.64 l2.76 -2.04 l0 0.48 l-2.76 2.04 l0 -0.48 z M280.132 30.759999999999998 l2.76 -2.04 l0 0.48 l-2.76 2.04 l0 -0.48 z M280.132 32.36 l0 -0.48 l2.76 -2.04 l0 0.48 z M282.612 31.6 l0 0 z M280.132 34.24 l0 -0.16 l1.2 -0.88 l0 0.48 l-2.72 2.04 l0 -0.44 l0 -0.04 l1.2 -0.88 z M278.612 36.84 l0 -0.48 l2.72 -2.04 l0 0.48 z M278.612 37.48 l2.72 -2.04 l0 0.48 l-2.72 2.04 l0 -0.48 z M278.612 38.6 l2.68 -2.04 l0.04 0 l0 0.48 l-2.72 2.04 l0 -0.48 z M278.692 39.64 l2.8 -2.12 l0.04 0 c0.12 0.12 0.2 0.16 0.36 0.2 l-2.92 2.2 c-0.04 0 -0.28 -0.24 -0.28 -0.28 z M279.732 40 l2.96 -2.24 l0.64 0 l-2.96 2.24 l-0.64 0 z M281.212 40 l2.96 -2.24 l0.68 0 l-3 2.24 l-0.64 0 z M283.332 40 l-0.64 0 l3 -2.24 l0.64 0 z M284.85200000000003 40 l-0.64 0 l2.88 -2.2 l0 0.48 z M286.332 40 l-0.64 0 l1.44 -1.08 c0 0.04 -0.04 0.48 -0.08 0.52 z M314.72 26.72 l-5.16 -10.88 l-1.24 -0.36 c-0.32 -0.12 -0.56 -0.48 -0.56 -0.8 l0 -3.92 c0 -0.28 0.28 -0.76 0.6 -0.76 l7.72 0 c0.32 0 0.64 0.48 0.64 0.8 l0 2.16 l0.16 0 c-0.04 0.04 -0.16 0.12 -0.16 0.12 l0 0.64 l0.88 -0.68 l0 0.48 l-0.88 0.68 c0 0.24 -0.04 0.44 0 0.64 l0.88 -0.68 l0 0.48 l-1.88 1.4 c0.08 0.2 0.12 0.36 0.2 0.48 l1.68 -1.24 c0.04 0.16 0.04 0.28 0.08 0.44 l-1.56 1.16 c0 0.08 0.12 0.36 0.24 0.48 l1.68 -1.28 l0.44 0.16 l-2 1.48 l0.2 0.48 l0.04 0 l1.88 -1.4 l-0.36 0.72 l-1.36 1.04 c0.04 0.16 0.12 0.32 0.24 0.44 c0.12 -0.08 0.6 -0.44 0.68 -0.44 c-0.08 0.08 -0.28 0.56 -0.32 0.64 c-0.08 0.08 -0.24 0.12 -0.24 0.24 l0.24 0.48 l1.96 -4.24 c-0.12 -0.08 -0.6 -0.24 -0.68 -0.24 c-0.36 -0.12 -0.48 -0.44 -0.48 -0.8 l0 -3.76 c0 -0.36 0.24 -0.84 0.64 -0.84 l7.68 0 c0.32 0 0.6 0.4 0.6 0.72 l0 4 c0 0.32 -0.24 0.6 -0.52 0.72 l-1.2 0.36 l-5.28 10.88 l0 4.56 c0.48 0.2 1.52 0.36 1.52 1.08 l0 3.92 c0 0.36 -0.28 0.8 -0.68 0.8 l-7.2 0 c-0.4 0 -0.68 -0.48 -0.68 -0.8 l0 -3.88 s0 -0.08 0.04 -0.12 c-0.24 0.08 -0.44 0.24 -0.56 0.44 c-0.04 0.04 -0.08 0.2 -0.12 0.24 l-1.16 0.88 l0 -0.48 l2.72 -2.08 l0 0.2 c0.24 -0.08 0.44 -0.12 0.64 -0.2 l0 -4.56 z M304.44 13.36 c0 -0.2 0.4 -0.44 0.6 -0.44 l0 0.04 c-0.04 0 -0.4 0.28 -0.6 0.4 z M304.36 14.559999999999999 l0 -0.48 l1.56 -1.16 l0.64 0 z M304.36 15.2 l2.76 -2.04 l0 0.48 l-2.76 2.04 l0 -0.48 z M304.36 16.8 l0 -0.48 l2.68 -2.04 l0.08 0 l0 0.48 z M304.36 17.44 l2.76 -2.08 c0 0.12 0.12 0.36 0.12 0.4 l-2.84 2.12 c-0.04 0 -0.04 -0.32 -0.04 -0.36 l0 -0.08 z M315.52000000000004 15.64 c0 0.04 0.16 0.4 0.2 0.4 c0.12 0 0.28 -0.4 0.28 -0.56 l-0.44 0.16 l-0.04 0 z M304.72 18.28 l2.84 -2.12 l0.04 -0.04 l0.4 0.16 l-2.92 2.16 c-0.04 0 -0.36 -0.12 -0.36 -0.16 z M305.72 18.64 l-0.04 0 l2.92 -2.2 c0.12 0.04 0.28 0.08 0.28 0.08 l0.08 0.12 c0 0.04 -0.04 0.04 -0.04 0.04 l-2.76 2.08 c-0.16 -0.04 -0.44 -0.12 -0.44 -0.12 z M306.52000000000004 19.56 l-0.16 -0.32 l2.8 -2.12 c0.04 0 0.04 0.04 0.04 0.04 l0.16 0.32 l-2.8 2.08 l-0.04 0 z M306.8 20.04 l2.76 -2.08 s0.12 0.16 0.16 0.24 l0 0.12 l-2.8 2.08 l-0.16 -0.32 c0 -0.04 0.04 -0.04 0.04 -0.04 z M307.16 20.88 l2.8 -2.12 l0.16 0.36 l-2.76 2.12 c-0.08 -0.08 -0.16 -0.28 -0.2 -0.36 z M307.6 21.68 l2.76 -2.08 l0.16 0.32 c0 0.04 0 0.04 -0.04 0.04 l-2.76 2.12 l-0.16 -0.36 c0 -0.04 0.04 -0.04 0.04 -0.04 z M308.12 22.88 l-0.16 -0.36 l2.8 -2.08 s0.08 0.2 0.16 0.32 z M308.36 23.32 l2.8 -2.08 l0.12 0.24 c0 0.04 0.04 0.12 0.04 0.12 l-2.84 2.08 s-0.08 -0.2 -0.12 -0.36 z M308.88 24.52 l-0.16 -0.36 l2.8 -2.08 l0.2 0.32 c0 0.04 -0.04 0.04 -0.04 0.04 z M309.28000000000003 25.32 l-0.16 -0.32 l2.76 -2.08 l0.04 -0.04 l0.04 0.04 l0.16 0.32 l-2.8 2.08 l-0.04 0.04 l0 -0.04 z M309.52000000000004 25.84 c0 -0.04 0.04 -0.04 0.04 -0.04 l2.76 -2.08 l0.16 0.32 l0 0.04 l-2.8 2.08 c0 -0.12 -0.08 -0.24 -0.16 -0.32 z M310.08000000000004 26.96 l-0.16 -0.32 l2.8 -2.12 l0.16 0.36 l-2.76 2.08 l-0.04 0.04 l0 -0.04 z M310.48 27.8 l-0.2 -0.32 l2.84 -2.12 l0.16 0.32 l-0.04 0.04 z M310.84000000000003 28.6 l-0.16 -0.32 l2.8 -2.12 c0.04 0 0.12 0.2 0.16 0.36 z M311.12 29.04 l2.76 -2.04 s0.08 0.16 0.12 0.2 c0 0.04 0.04 0.16 0.04 0.16 l-2.8 2.08 s-0.08 -0.2 -0.12 -0.4 z M311.36 30.48 l0 -0.48 l2.72 -2.04 l0 0.48 z M311.36 31.6 l0 -0.48 l2.72 -2.08 l0 0.52 z M311.36 32.24 l2.72 -2.08 l0 0.52 l-2.72 2.04 l0 -0.48 z M309.76 36.12 l0 -0.48 l2.76 -2.04 l0 0.48 z M310.48 34.480000000000004 l-0.56 0.4 c0.12 -0.12 0.4 -0.4 0.52 -0.4 l0.04 0 z M309.76 36.76 l2.76 -2.04 l0 0.48 l-2.76 2.04 l0 -0.48 z M309.76 38.36 l0 -0.48 l2.76 -2.04 l0 0.48 z M309.76 39 l0.04 0 l2.72 -2.04 s0.08 0.36 0.08 0.4 l-2.8 2.08 c-0.04 -0.08 -0.04 -0.24 -0.04 -0.36 l0 -0.08 z M310.12 39.84 l2.88 -2.12 c0.16 0.04 0.36 0.04 0.56 0.04 l-3 2.24 c-0.2 0 -0.32 -0.04 -0.44 -0.16 z M311.44 40 l2.96 -2.24 l0.6 0 l-3 2.24 l-0.56 0 z M312.88 40 l2.96 -2.24 l0.64 0 l-2.96 2.24 l-0.64 0 z M315 40 l-0.64 0 l2.96 -2.24 l0.64 0 z M316.48 40 l-0.64 0 l2.44 -1.84 l0.04 0 l0 0.48 z M317.72 40 l-0.4 0 l1 -0.72 c0 0.28 -0.28 0.72 -0.6 0.72 z"></path></g><g id="SvgjsG1317" featureKey="nameFeature-1" transform="matrix(1.3380217236153604,0,0,1.3380217236153604,151.3239568717785,52.61978914403116)" fill="#ea5455"><path d="M11.36 10.120000000000001 l2.24 -0.12 l1.76 0 l0.96 0.04 l1.52 0.16 c4.08 0.4 4.96 4.16 4.96 7.6 c0 0.44 0.04 1.52 -0.64 1.52 l-4.04 0 c-0.6 0 -0.68 -0.72 -0.68 -1.2 l-0.04 -1.52 c-0.04 -0.88 -1.28 -0.92 -1.88 -0.92 l-2 0 c-0.48 0 -0.96 0.08 -1.44 0.2 c-1.04 0.16 -1.2 0.48 -1.24 1.48 l1.2 -0.92 c0.16 -0.08 0.52 -0.08 0.68 -0.08 l-1.92 1.44 l0 0.64 l2.76 -2.08 l0.64 0 l-2.96 2.24 l-0.44 0 c0 1.4 0.56 1.6 1.84 1.72 l1.28 0.12 l0.12 0 l0 -0.04 l2.72 -2.04 c0.04 0.12 0 0.28 0 0.32 l0 0.16 l-2.12 1.6 l-0.04 0.04 l0.72 0.08 l1.52 -1.16 c0.04 0.04 0.08 0.16 0.08 0.2 s0.08 0.12 0.08 0.16 l-1.08 0.84 l0.08 0 s0.44 0.04 0.68 0.04 l0.88 -0.64 l0.64 0 l-0.96 0.72 l0.64 0.08 l0.08 0 l1.08 -0.8 l0.4 0 l0 0.16 l-1 0.76 l0.6 0.12 c0.16 0 0.24 -0.2 0.4 -0.24 l0 0.36 l0.04 0 c3.56 1.16 3.72 4.2 3.72 7.4 c0 8.32 -3.4 8.52 -10.48 8.52 l-2.12 -0.16 c-3.4 -0.24 -5.12 -3.24 -5.2 -6.4 l-0.04 -1.88 l0 -0.2 c0 -0.56 0.04 -1.08 0.6 -1.28 l0.52 0 l1.6 -1.16 c0.12 0 0.28 0.08 0.4 0.16 l-1.36 1 l0.84 0 l1.12 -0.8 l0.48 0.12 l-0.96 0.68 l0.84 0 l0.8 -0.6 l0.52 0.08 l-0.68 0.52 c0.2 0.04 0.32 0.12 0.48 0.28 l0.92 -0.68 l0 -0.04 l0.56 0.08 l-1.32 1 c-0.04 0.08 -0.04 0.12 -0.04 0.12 c0 0.08 0.04 0.4 0.04 0.48 l2.08 -1.52 l0.04 -0.04 c0.16 0 0.36 0.04 0.52 0.04 l-2.64 2 l0 0.24 c0 1.48 0 2.04 1.72 2.2 c0.64 0.08 1.24 0.08 1.88 0.08 l0.2 0 l0 -0.36 l2.68 -2 c0.04 0.08 0.04 0.2 0.04 0.32 l0 0.12 l-2.56 1.92 l0.28 0 l0.28 0 l0.28 0 l1.68 -1.24 l0 0.08 c0 0.08 0 0.32 -0.04 0.36 l-0.88 0.72 c0.24 0 0.44 -0.12 0.64 -0.16 c1 -0.36 0.92 -1.4 0.96 -2.28 c0 -0.48 -0.04 -0.92 -0.08 -1.4 c-0.16 -0.96 -0.96 -1.16 -1.8 -1.2 l-2.08 -0.08 l-2.16 -0.16 l-1.64 -0.28 c-3.04 -0.44 -4.48 -3.4 -4.6 -6.2 l-0.04 -1.56 c0 -4.12 1.2 -7.6 5.88 -7.88 z M5.6 14.04 l-2.52 1.88 c0 -0.12 0.44 -0.72 0.6 -0.92 l1.84 -1.4 c0.04 -0.04 0.36 -0.16 0.4 -0.16 z M2.64 16.88 l2.64 -1.96 l0 0.04 s-0.12 0.36 -0.16 0.56 l-2.64 1.96 l0 -0.12 c0.04 -0.08 0.12 -0.4 0.16 -0.48 z M2.32 18.2 l2.68 -2 l-0.08 0.56 l-2.68 2 l0.08 -0.52 l0 -0.04 z M12.08 18.56 l2.92 -2.16 l0 -0.04 c0.24 0 0.36 0 0.6 0.08 l-2.92 2.16 l-0.16 0 s-0.36 0 -0.44 -0.04 z M13.36 18.72 l2.84 -2.12 c0.12 0 0.28 0.12 0.36 0.2 l-2.76 2.08 c-0.2 -0.08 -0.32 -0.12 -0.44 -0.16 z M14 19.32 l2.76 -2.04 l0 0.4 l0 0.08 l-2.72 2 c0 -0.12 -0.04 -0.28 -0.04 -0.44 z M2.16 19.84 l0 -0.4 l2.68 -2.04 l0 0.12 c0 0.12 0.08 0.32 -0.04 0.4 l-2.64 2 l0 -0.08 z M2.12 20.56 l2.68 -2 l0.04 0 l0 0.44 l-2.68 2 l-0.04 0.04 l0 -0.48 z M2.16 21.64 l2.68 -2 c0.04 0.12 0.04 0.24 0.04 0.36 l0 0.08 l-2.68 2 c-0.04 -0.04 -0.08 -0.32 -0.08 -0.4 c0 -0.04 0 -0.04 0.04 -0.04 z M2.24 22.68 l2.68 -2 c0.04 0.16 0.08 0.44 0.08 0.44 l-2.76 2.04 c0 -0.08 -0.04 -0.36 -0.04 -0.44 z M2.36 23.68 l2.72 -2 l0.04 0.32 l0.04 0.04 s-0.04 0 -0.04 0.04 l-2.72 2 c0 -0.08 -0.04 -0.28 -0.04 -0.4 z M2.52 24.6 l0.04 0 l2.72 -2.04 l0.12 0.4 l-2.76 2.04 c0 -0.04 -0.04 -0.12 -0.04 -0.16 c-0.04 -0.04 -0.08 -0.24 -0.08 -0.24 z M2.84 25.48 l2.72 -2.04 l0.04 0 l0.16 0.32 l-2.76 2.08 c-0.04 -0.08 -0.12 -0.2 -0.16 -0.36 z M3.24 26.28 l2.76 -2.04 l0.04 -0.04 l0 0.04 l0.2 0.28 l-2.8 2.08 s-0.12 -0.2 -0.2 -0.32 z M3.76 27 l2.8 -2.08 l0.28 0.28 l-2.84 2.08 s-0.12 -0.16 -0.24 -0.28 z M4.44 27.6 l2.8 -2.08 l0.36 0.2 l-2.8 2.12 c-0.12 -0.04 -0.32 -0.16 -0.36 -0.24 z M11.28 29.119999999999997 l2.88 -2.2 l0.04 0 l0.08 0 l0.24 0 l0.28 0 l-2.92 2.2 c-0.04 0.04 0 0 -0.04 0 l-0.56 0 z M13.16 29.240000000000002 l-0.52 -0.08 l2.92 -2.16 c0.12 0 0.36 0.04 0.48 0.08 z M13.76 29.4 l2.84 -2.12 c0.16 0 0.32 0.24 0.32 0.24 l-2.76 2.08 c-0.12 -0.08 -0.36 -0.16 -0.4 -0.2 z M14.36 30.04 l2.72 -2.04 l0.04 0 c0.08 0.08 0.04 0.28 0.04 0.4 l0 0.04 l-2.72 2.04 c0 -0.16 -0.04 -0.28 -0.08 -0.44 z M2.12 30.439999999999998 l0.52 -0.4 l0.64 0 l-1.28 0.96 c0 -0.12 0.04 -0.52 0.12 -0.56 z M2 31.64 l2.12 -1.6 l0.6 0 l0 0.04 l-2.72 2.04 l0 -0.48 z M2 32.72 l2.72 -2.04 c0 0.08 0.04 0.32 0.04 0.48 l-2.72 2.04 c-0.04 -0.16 -0.04 -0.28 -0.04 -0.48 z M2.08 33.76 l2.72 -2 s0.04 0.28 0.04 0.44 l-2.72 2 s-0.04 -0.24 -0.04 -0.44 z M2.2 34.76 l2.72 -2.04 c0.04 0.16 0.12 0.4 0.12 0.44 l-2.76 2.04 l-0.08 -0.4 l0 -0.04 z M2.52 36.12 l-0.12 -0.4 l2.72 -2.04 l0.04 0 l0.12 0.36 z M2.88 36.92 l-0.16 -0.32 l2.76 -2.08 c0.04 0 0.04 0 0.04 0.04 l0.16 0.28 z M3.16 37.32 l2.76 -2.04 l0 0 l0.2 0.28 l0 0.04 l-2.76 2.08 l-0.2 -0.32 l0 -0.04 z M3.64 38.08 l2.8 -2.08 l0.04 -0.04 l0.28 0.28 l-2.84 2.12 l-0.16 -0.16 c0 -0.04 -0.08 -0.12 -0.12 -0.12 z M4.32 38.68 l2.8 -2.08 l0.04 -0.04 l0.32 0.24 l-2.84 2.12 s-0.12 -0.12 -0.2 -0.16 c0 0 -0.12 -0.04 -0.12 -0.08 z M5.16 39.16 l2.8 -2.12 l0.04 0 l0.4 0.16 l-2.84 2.12 l-0.04 0.04 c-0.08 0 -0.32 -0.12 -0.36 -0.2 z M14.64 39.8 l-0.04 0 l3 -2.24 c0.04 -0.04 0.44 -0.12 0.52 -0.12 c0.04 -0.04 0.36 -0.12 0.44 -0.12 l-3.12 2.32 c-0.04 0.04 -0.72 0.16 -0.8 0.16 z M6.12 39.56 l2.88 -2.16 l0.48 0.12 l-2.92 2.16 c-0.12 0 -0.32 -0.04 -0.44 -0.12 z M7.28 39.8 l-0.04 0 l2.88 -2.16 c0.04 -0.04 0.04 0 0.08 0 c0.16 0 0.36 0 0.52 0.04 l-2.92 2.16 c-0.2 0 -0.48 -0.04 -0.52 -0.04 z M12.92 39.96 l2.96 -2.2 c0.08 -0.08 0.6 -0.08 0.72 -0.08 l-2.96 2.2 c0 0.04 -0.4 0.04 -0.72 0.08 z M8.6 39.92 l-0.04 0 l2.92 -2.2 l0.08 0 c0.16 0 0.36 0 0.52 0.04 l-2.92 2.2 l-0.08 0 c-0.08 0 -0.44 -0.04 -0.48 -0.04 z M11.4 40 l2.92 -2.2 l0.04 0 c0 -0.04 0.36 -0.04 0.64 -0.04 l-2.96 2.24 l-0.64 0 z M9.96 39.96 l2.92 -2.16 l0.64 0 l-2.96 2.2 l-0.16 0 c-0.16 0 -0.28 0 -0.44 -0.04 z M42.948 26.72 l-5.16 -10.88 l-1.24 -0.36 c-0.32 -0.12 -0.56 -0.48 -0.56 -0.8 l0 -3.92 c0 -0.28 0.28 -0.76 0.6 -0.76 l7.72 0 c0.32 0 0.64 0.48 0.64 0.8 l0 2.16 l0.16 0 c-0.04 0.04 -0.16 0.12 -0.16 0.12 l0 0.64 l0.88 -0.68 l0 0.48 l-0.88 0.68 c0 0.24 -0.04 0.44 0 0.64 l0.88 -0.68 l0 0.48 l-1.88 1.4 c0.08 0.2 0.12 0.36 0.2 0.48 l1.68 -1.24 c0.04 0.16 0.04 0.28 0.08 0.44 l-1.56 1.16 c0 0.08 0.12 0.36 0.24 0.48 l1.68 -1.28 l0.44 0.16 l-2 1.48 l0.2 0.48 l0.04 0 l1.88 -1.4 l-0.36 0.72 l-1.36 1.04 c0.04 0.16 0.12 0.32 0.24 0.44 c0.12 -0.08 0.6 -0.44 0.68 -0.44 c-0.08 0.08 -0.28 0.56 -0.32 0.64 c-0.08 0.08 -0.24 0.12 -0.24 0.24 l0.24 0.48 l1.96 -4.24 c-0.12 -0.08 -0.6 -0.24 -0.68 -0.24 c-0.36 -0.12 -0.48 -0.44 -0.48 -0.8 l0 -3.76 c0 -0.36 0.24 -0.84 0.64 -0.84 l7.68 0 c0.32 0 0.6 0.4 0.6 0.72 l0 4 c0 0.32 -0.24 0.6 -0.52 0.72 l-1.2 0.36 l-5.28 10.88 l0 4.56 c0.48 0.2 1.52 0.36 1.52 1.08 l0 3.92 c0 0.36 -0.28 0.8 -0.68 0.8 l-7.2 0 c-0.4 0 -0.68 -0.48 -0.68 -0.8 l0 -3.88 s0 -0.08 0.04 -0.12 c-0.24 0.08 -0.44 0.24 -0.56 0.44 c-0.04 0.04 -0.08 0.2 -0.12 0.24 l-1.16 0.88 l0 -0.48 l2.72 -2.08 l0 0.2 c0.24 -0.08 0.44 -0.12 0.64 -0.2 l0 -4.56 z M32.668 13.36 c0 -0.2 0.4 -0.44 0.6 -0.44 l0 0.04 c-0.04 0 -0.4 0.28 -0.6 0.4 z M32.588 14.559999999999999 l0 -0.48 l1.56 -1.16 l0.64 0 z M32.588 15.2 l2.76 -2.04 l0 0.48 l-2.76 2.04 l0 -0.48 z M32.588 16.8 l0 -0.48 l2.68 -2.04 l0.08 0 l0 0.48 z M32.588 17.44 l2.76 -2.08 c0 0.12 0.12 0.36 0.12 0.4 l-2.84 2.12 c-0.04 0 -0.04 -0.32 -0.04 -0.36 l0 -0.08 z M43.748000000000005 15.64 c0 0.04 0.16 0.4 0.2 0.4 c0.12 0 0.28 -0.4 0.28 -0.56 l-0.44 0.16 l-0.04 0 z M32.948 18.28 l2.84 -2.12 l0.04 -0.04 l0.4 0.16 l-2.92 2.16 c-0.04 0 -0.36 -0.12 -0.36 -0.16 z M33.948 18.64 l-0.04 0 l2.92 -2.2 c0.12 0.04 0.28 0.08 0.28 0.08 l0.08 0.12 c0 0.04 -0.04 0.04 -0.04 0.04 l-2.76 2.08 c-0.16 -0.04 -0.44 -0.12 -0.44 -0.12 z M34.748000000000005 19.56 l-0.16 -0.32 l2.8 -2.12 c0.04 0 0.04 0.04 0.04 0.04 l0.16 0.32 l-2.8 2.08 l-0.04 0 z M35.028 20.04 l2.76 -2.08 s0.12 0.16 0.16 0.24 l0 0.12 l-2.8 2.08 l-0.16 -0.32 c0 -0.04 0.04 -0.04 0.04 -0.04 z M35.388 20.88 l2.8 -2.12 l0.16 0.36 l-2.76 2.12 c-0.08 -0.08 -0.16 -0.28 -0.2 -0.36 z M35.828 21.68 l2.76 -2.08 l0.16 0.32 c0 0.04 0 0.04 -0.04 0.04 l-2.76 2.12 l-0.16 -0.36 c0 -0.04 0.04 -0.04 0.04 -0.04 z M36.348 22.88 l-0.16 -0.36 l2.8 -2.08 s0.08 0.2 0.16 0.32 z M36.588 23.32 l2.8 -2.08 l0.12 0.24 c0 0.04 0.04 0.12 0.04 0.12 l-2.84 2.08 s-0.08 -0.2 -0.12 -0.36 z M37.108000000000004 24.52 l-0.16 -0.36 l2.8 -2.08 l0.2 0.32 c0 0.04 -0.04 0.04 -0.04 0.04 z M37.508 25.32 l-0.16 -0.32 l2.76 -2.08 l0.04 -0.04 l0.04 0.04 l0.16 0.32 l-2.8 2.08 l-0.04 0.04 l0 -0.04 z M37.748000000000005 25.84 c0 -0.04 0.04 -0.04 0.04 -0.04 l2.76 -2.08 l0.16 0.32 l0 0.04 l-2.8 2.08 c0 -0.12 -0.08 -0.24 -0.16 -0.32 z M38.308 26.96 l-0.16 -0.32 l2.8 -2.12 l0.16 0.36 l-2.76 2.08 l-0.04 0.04 l0 -0.04 z M38.708 27.8 l-0.2 -0.32 l2.84 -2.12 l0.16 0.32 l-0.04 0.04 z M39.068 28.6 l-0.16 -0.32 l2.8 -2.12 c0.04 0 0.12 0.2 0.16 0.36 z M39.348 29.04 l2.76 -2.04 s0.08 0.16 0.12 0.2 c0 0.04 0.04 0.16 0.04 0.16 l-2.8 2.08 s-0.08 -0.2 -0.12 -0.4 z M39.588 30.48 l0 -0.48 l2.72 -2.04 l0 0.48 z M39.588 31.6 l0 -0.48 l2.72 -2.08 l0 0.52 z M39.588 32.24 l2.72 -2.08 l0 0.52 l-2.72 2.04 l0 -0.48 z M37.988 36.12 l0 -0.48 l2.76 -2.04 l0 0.48 z M38.708 34.480000000000004 l-0.56 0.4 c0.12 -0.12 0.4 -0.4 0.52 -0.4 l0.04 0 z M37.988 36.76 l2.76 -2.04 l0 0.48 l-2.76 2.04 l0 -0.48 z M37.988 38.36 l0 -0.48 l2.76 -2.04 l0 0.48 z M37.988 39 l0.04 0 l2.72 -2.04 s0.08 0.36 0.08 0.4 l-2.8 2.08 c-0.04 -0.08 -0.04 -0.24 -0.04 -0.36 l0 -0.08 z M38.348 39.84 l2.88 -2.12 c0.16 0.04 0.36 0.04 0.56 0.04 l-3 2.24 c-0.2 0 -0.32 -0.04 -0.44 -0.16 z M39.668 40 l2.96 -2.24 l0.6 0 l-3 2.24 l-0.56 0 z M41.108000000000004 40 l2.96 -2.24 l0.64 0 l-2.96 2.24 l-0.64 0 z M43.228 40 l-0.64 0 l2.96 -2.24 l0.64 0 z M44.708 40 l-0.64 0 l2.44 -1.84 l0.04 0 l0 0.48 z M45.948 40 l-0.4 0 l1 -0.72 c0 0.28 -0.28 0.72 -0.6 0.72 z M74.176 10.120000000000001 l2.24 -0.12 l1.76 0 l0.96 0.04 l1.52 0.16 c4.08 0.4 4.96 4.16 4.96 7.6 c0 0.44 0.04 1.52 -0.64 1.52 l-4.04 0 c-0.6 0 -0.68 -0.72 -0.68 -1.2 l-0.04 -1.52 c-0.04 -0.88 -1.28 -0.92 -1.88 -0.92 l-2 0 c-0.48 0 -0.96 0.08 -1.44 0.2 c-1.04 0.16 -1.2 0.48 -1.24 1.48 l1.2 -0.92 c0.16 -0.08 0.52 -0.08 0.68 -0.08 l-1.92 1.44 l0 0.64 l2.76 -2.08 l0.64 0 l-2.96 2.24 l-0.44 0 c0 1.4 0.56 1.6 1.84 1.72 l1.28 0.12 l0.12 0 l0 -0.04 l2.72 -2.04 c0.04 0.12 0 0.28 0 0.32 l0 0.16 l-2.12 1.6 l-0.04 0.04 l0.72 0.08 l1.52 -1.16 c0.04 0.04 0.08 0.16 0.08 0.2 s0.08 0.12 0.08 0.16 l-1.08 0.84 l0.08 0 s0.44 0.04 0.68 0.04 l0.88 -0.64 l0.64 0 l-0.96 0.72 l0.64 0.08 l0.08 0 l1.08 -0.8 l0.4 0 l0 0.16 l-1 0.76 l0.6 0.12 c0.16 0 0.24 -0.2 0.4 -0.24 l0 0.36 l0.04 0 c3.56 1.16 3.72 4.2 3.72 7.4 c0 8.32 -3.4 8.52 -10.48 8.52 l-2.12 -0.16 c-3.4 -0.24 -5.12 -3.24 -5.2 -6.4 l-0.04 -1.88 l0 -0.2 c0 -0.56 0.04 -1.08 0.6 -1.28 l0.52 0 l1.6 -1.16 c0.12 0 0.28 0.08 0.4 0.16 l-1.36 1 l0.84 0 l1.12 -0.8 l0.48 0.12 l-0.96 0.68 l0.84 0 l0.8 -0.6 l0.52 0.08 l-0.68 0.52 c0.2 0.04 0.32 0.12 0.48 0.28 l0.92 -0.68 l0 -0.04 l0.56 0.08 l-1.32 1 c-0.04 0.08 -0.04 0.12 -0.04 0.12 c0 0.08 0.04 0.4 0.04 0.48 l2.08 -1.52 l0.04 -0.04 c0.16 0 0.36 0.04 0.52 0.04 l-2.64 2 l0 0.24 c0 1.48 0 2.04 1.72 2.2 c0.64 0.08 1.24 0.08 1.88 0.08 l0.2 0 l0 -0.36 l2.68 -2 c0.04 0.08 0.04 0.2 0.04 0.32 l0 0.12 l-2.56 1.92 l0.28 0 l0.28 0 l0.28 0 l1.68 -1.24 l0 0.08 c0 0.08 0 0.32 -0.04 0.36 l-0.88 0.72 c0.24 0 0.44 -0.12 0.64 -0.16 c1 -0.36 0.92 -1.4 0.96 -2.28 c0 -0.48 -0.04 -0.92 -0.08 -1.4 c-0.16 -0.96 -0.96 -1.16 -1.8 -1.2 l-2.08 -0.08 l-2.16 -0.16 l-1.64 -0.28 c-3.04 -0.44 -4.48 -3.4 -4.6 -6.2 l-0.04 -1.56 c0 -4.12 1.2 -7.6 5.88 -7.88 z M68.416 14.04 l-2.52 1.88 c0 -0.12 0.44 -0.72 0.6 -0.92 l1.84 -1.4 c0.04 -0.04 0.36 -0.16 0.4 -0.16 z M65.456 16.88 l2.64 -1.96 l0 0.04 s-0.12 0.36 -0.16 0.56 l-2.64 1.96 l0 -0.12 c0.04 -0.08 0.12 -0.4 0.16 -0.48 z M65.136 18.2 l2.68 -2 l-0.08 0.56 l-2.68 2 l0.08 -0.52 l0 -0.04 z M74.896 18.56 l2.92 -2.16 l0 -0.04 c0.24 0 0.36 0 0.6 0.08 l-2.92 2.16 l-0.16 0 s-0.36 0 -0.44 -0.04 z M76.176 18.72 l2.84 -2.12 c0.12 0 0.28 0.12 0.36 0.2 l-2.76 2.08 c-0.2 -0.08 -0.32 -0.12 -0.44 -0.16 z M76.816 19.32 l2.76 -2.04 l0 0.4 l0 0.08 l-2.72 2 c0 -0.12 -0.04 -0.28 -0.04 -0.44 z M64.976 19.84 l0 -0.4 l2.68 -2.04 l0 0.12 c0 0.12 0.08 0.32 -0.04 0.4 l-2.64 2 l0 -0.08 z M64.936 20.56 l2.68 -2 l0.04 0 l0 0.44 l-2.68 2 l-0.04 0.04 l0 -0.48 z M64.976 21.64 l2.68 -2 c0.04 0.12 0.04 0.24 0.04 0.36 l0 0.08 l-2.68 2 c-0.04 -0.04 -0.08 -0.32 -0.08 -0.4 c0 -0.04 0 -0.04 0.04 -0.04 z M65.056 22.68 l2.68 -2 c0.04 0.16 0.08 0.44 0.08 0.44 l-2.76 2.04 c0 -0.08 -0.04 -0.36 -0.04 -0.44 z M65.176 23.68 l2.72 -2 l0.04 0.32 l0.04 0.04 s-0.04 0 -0.04 0.04 l-2.72 2 c0 -0.08 -0.04 -0.28 -0.04 -0.4 z M65.336 24.6 l0.04 0 l2.72 -2.04 l0.12 0.4 l-2.76 2.04 c0 -0.04 -0.04 -0.12 -0.04 -0.16 c-0.04 -0.04 -0.08 -0.24 -0.08 -0.24 z M65.656 25.48 l2.72 -2.04 l0.04 0 l0.16 0.32 l-2.76 2.08 c-0.04 -0.08 -0.12 -0.2 -0.16 -0.36 z M66.056 26.28 l2.76 -2.04 l0.04 -0.04 l0 0.04 l0.2 0.28 l-2.8 2.08 s-0.12 -0.2 -0.2 -0.32 z M66.57600000000001 27 l2.8 -2.08 l0.28 0.28 l-2.84 2.08 s-0.12 -0.16 -0.24 -0.28 z M67.256 27.6 l2.8 -2.08 l0.36 0.2 l-2.8 2.12 c-0.12 -0.04 -0.32 -0.16 -0.36 -0.24 z M74.096 29.119999999999997 l2.88 -2.2 l0.04 0 l0.08 0 l0.24 0 l0.28 0 l-2.92 2.2 c-0.04 0.04 0 0 -0.04 0 l-0.56 0 z M75.976 29.240000000000002 l-0.52 -0.08 l2.92 -2.16 c0.12 0 0.36 0.04 0.48 0.08 z M76.57600000000001 29.4 l2.84 -2.12 c0.16 0 0.32 0.24 0.32 0.24 l-2.76 2.08 c-0.12 -0.08 -0.36 -0.16 -0.4 -0.2 z M77.176 30.04 l2.72 -2.04 l0.04 0 c0.08 0.08 0.04 0.28 0.04 0.4 l0 0.04 l-2.72 2.04 c0 -0.16 -0.04 -0.28 -0.08 -0.44 z M64.936 30.439999999999998 l0.52 -0.4 l0.64 0 l-1.28 0.96 c0 -0.12 0.04 -0.52 0.12 -0.56 z M64.816 31.64 l2.12 -1.6 l0.6 0 l0 0.04 l-2.72 2.04 l0 -0.48 z M64.816 32.72 l2.72 -2.04 c0 0.08 0.04 0.32 0.04 0.48 l-2.72 2.04 c-0.04 -0.16 -0.04 -0.28 -0.04 -0.48 z M64.896 33.76 l2.72 -2 s0.04 0.28 0.04 0.44 l-2.72 2 s-0.04 -0.24 -0.04 -0.44 z M65.016 34.76 l2.72 -2.04 c0.04 0.16 0.12 0.4 0.12 0.44 l-2.76 2.04 l-0.08 -0.4 l0 -0.04 z M65.336 36.12 l-0.12 -0.4 l2.72 -2.04 l0.04 0 l0.12 0.36 z M65.696 36.92 l-0.16 -0.32 l2.76 -2.08 c0.04 0 0.04 0 0.04 0.04 l0.16 0.28 z M65.976 37.32 l2.76 -2.04 l0 0 l0.2 0.28 l0 0.04 l-2.76 2.08 l-0.2 -0.32 l0 -0.04 z M66.456 38.08 l2.8 -2.08 l0.04 -0.04 l0.28 0.28 l-2.84 2.12 l-0.16 -0.16 c0 -0.04 -0.08 -0.12 -0.12 -0.12 z M67.136 38.68 l2.8 -2.08 l0.04 -0.04 l0.32 0.24 l-2.84 2.12 s-0.12 -0.12 -0.2 -0.16 c0 0 -0.12 -0.04 -0.12 -0.08 z M67.976 39.16 l2.8 -2.12 l0.04 0 l0.4 0.16 l-2.84 2.12 l-0.04 0.04 c-0.08 0 -0.32 -0.12 -0.36 -0.2 z M77.456 39.8 l-0.04 0 l3 -2.24 c0.04 -0.04 0.44 -0.12 0.52 -0.12 c0.04 -0.04 0.36 -0.12 0.44 -0.12 l-3.12 2.32 c-0.04 0.04 -0.72 0.16 -0.8 0.16 z M68.936 39.56 l2.88 -2.16 l0.48 0.12 l-2.92 2.16 c-0.12 0 -0.32 -0.04 -0.44 -0.12 z M70.096 39.8 l-0.04 0 l2.88 -2.16 c0.04 -0.04 0.04 0 0.08 0 c0.16 0 0.36 0 0.52 0.04 l-2.92 2.16 c-0.2 0 -0.48 -0.04 -0.52 -0.04 z M75.736 39.96 l2.96 -2.2 c0.08 -0.08 0.6 -0.08 0.72 -0.08 l-2.96 2.2 c0 0.04 -0.4 0.04 -0.72 0.08 z M71.416 39.92 l-0.04 0 l2.92 -2.2 l0.08 0 c0.16 0 0.36 0 0.52 0.04 l-2.92 2.2 l-0.08 0 c-0.08 0 -0.44 -0.04 -0.48 -0.04 z M74.21600000000001 40 l2.92 -2.2 l0.04 0 c0 -0.04 0.36 -0.04 0.64 -0.04 l-2.96 2.24 l-0.64 0 z M72.77600000000001 39.96 l2.92 -2.16 l0.64 0 l-2.96 2.2 l-0.16 0 c-0.16 0 -0.28 0 -0.44 -0.04 z M102.564 17.84 l-3.16 0 c-0.28 0 -0.6 -0.48 -0.6 -0.76 l0 -6.28 c0 -0.28 0.32 -0.8 0.64 -0.8 l16.16 0 c0.32 0 0.64 0.48 0.64 0.76 l0 6.36 c0 0.28 -0.28 0.72 -0.6 0.72 l-3.2 0 c-0.32 0 -0.6 -0.4 -0.64 -0.68 l-0.24 -1.2 l-1.32 0 l0 0.68 l0.24 0 c-0.04 0.04 -0.16 0.12 -0.24 0.2 l0 0.6 c0.12 -0.08 0.6 -0.44 0.72 -0.48 l0.08 0.32 c0 0.08 0 0.08 -0.04 0.08 l-0.76 0.56 l0 0.64 l0.92 -0.68 c0 0.08 0.16 0.32 0.16 0.36 l-0.04 0.04 l-1.04 0.76 l0 0.64 l1.52 -1.12 l0.64 0 l-2.16 1.6 l0 11.12 l1 0.36 c0.28 0.08 0.52 0.4 0.52 0.72 l0 3.96 c0 0.32 -0.28 0.76 -0.64 0.76 l-7.2 0 c-0.4 0 -0.64 -0.44 -0.64 -0.8 l0 -3.88 c0 -0.12 0.08 -0.28 0.08 -0.4 l-1.92 1.44 l-0.04 0 l0 -0.44 l2.76 -2.04 l0 0.44 c0 0.08 -0.2 0.12 -0.24 0.2 l0.88 -0.32 l0 -15.32 l-1.32 0 l-0.24 1.16 l0.04 0 c0.08 -0.08 0.52 -0.4 0.64 -0.48 l0.24 0 l0 0.32 l-1.76 1.28 c0.08 -0.12 0.16 -0.24 0.16 -0.4 z M96.124 12.920000000000002 l-0.6 0.44 c0 -0.2 0.4 -0.44 0.6 -0.44 z M95.404 14.079999999999998 l1.56 -1.16 l0.64 0 l-2.2 1.64 l0 -0.48 z M95.404 15.2 l2.72 -2.04 l0 0.48 l-2.72 2.04 l0 -0.48 z M95.404 16.32 l2.72 -2.04 l0 0.48 l-2.72 2.04 l0 -0.48 z M95.404 17.92 l0 -0.48 l2.72 -2.04 l0 0.48 z M95.404 18.56 l2.72 -2.04 l0 0.48 l-2.72 2.04 l0 -0.48 z M103.244 17.16 c0.04 0 0.04 -0.04 0 -0.04 l0 0.04 z M101.404 19.64 l2.76 -2.04 l0 0.44 l-2.72 2 s0 0.04 -0.04 0.04 l0 -0.44 z M95.404 19.68 l2.72 -2.04 c0.04 0.12 0.08 0.28 0.08 0.4 l-2.76 2.08 c-0.04 0 -0.04 -0.04 -0.04 -0.08 l0 -0.36 z M95.684 20.6 l0 -0.04 l2.84 -2.08 l0 -0.04 c0.04 0 0.16 0.08 0.2 0.08 c0.08 0.04 0.24 0.04 0.32 0.04 l-3 2.24 c-0.12 0 -0.28 -0.12 -0.36 -0.2 z M101.404 18.52 l0.56 0 l0.12 0 l-0.68 0.48 l0 -0.12 l-0.48 0 z M97.564 20.8 l-0.64 0 l2.96 -2.24 l0.64 0 z M101.404 21.2 l0 -0.48 l2.76 -2.08 l0 0.52 z M110.92399999999999 20.8 l-0.64 0 l2.56 -1.96 l0 0.48 z M99.044 20.8 l-0.64 0 l1.52 -1.16 l0 0.04 c0 0.08 -0.08 0.52 -0.12 0.52 z M101.404 21.84 l2.76 -2.08 l0 0.52 l-2.76 2.04 l0 -0.48 z M112.204 20.8 l-0.44 0 l1.08 -0.84 c0 0.32 -0.28 0.84 -0.64 0.84 z M101.404 22.96 l2.76 -2.08 l0 0.52 l-2.72 2 s0 0.04 -0.04 0.04 l0 -0.48 z M101.404 24.560000000000002 l0 -0.48 l2.76 -2.08 l0 0.48 z M101.404 25.68 l0 -0.52 l2.76 -2.04 l0 0.48 z M101.404 26.28 l2.76 -2.04 l0 0.48 l-2.72 2.04 l-0.04 0 l0 -0.48 z M101.404 27.92 l0 -0.52 l2.76 -2.04 l0 0.48 z M101.404 29 l0 -0.48 l2.76 -2.04 l0 0.48 z M101.404 29.64 l2.76 -2.04 l0 0.48 l-2.76 2.04 l0 -0.48 z M101.404 30.759999999999998 l2.76 -2.04 l0 0.48 l-2.76 2.04 l0 -0.48 z M101.404 32.36 l0 -0.48 l2.76 -2.04 l0 0.48 z M103.884 31.6 l0 0 z M101.404 34.24 l0 -0.16 l1.2 -0.88 l0 0.48 l-2.72 2.04 l0 -0.44 l0 -0.04 l1.2 -0.88 z M99.884 36.84 l0 -0.48 l2.72 -2.04 l0 0.48 z M99.884 37.48 l2.72 -2.04 l0 0.48 l-2.72 2.04 l0 -0.48 z M99.884 38.6 l2.68 -2.04 l0.04 0 l0 0.48 l-2.72 2.04 l0 -0.48 z M99.964 39.64 l2.8 -2.12 l0.04 0 c0.12 0.12 0.2 0.16 0.36 0.2 l-2.92 2.2 c-0.04 0 -0.28 -0.24 -0.28 -0.28 z M101.00399999999999 40 l2.96 -2.24 l0.64 0 l-2.96 2.24 l-0.64 0 z M102.484 40 l2.96 -2.24 l0.68 0 l-3 2.24 l-0.64 0 z M104.604 40 l-0.64 0 l3 -2.24 l0.64 0 z M106.124 40 l-0.64 0 l2.88 -2.2 l0 0.48 z M107.604 40 l-0.64 0 l1.44 -1.08 c0 0.04 -0.04 0.48 -0.08 0.52 z M130.552 31.28 l0 -15.52 l-1.04 -0.36 c-0.28 -0.08 -0.48 -0.44 -0.48 -0.72 l0 -3.88 c0 -0.28 0.28 -0.8 0.6 -0.8 l15.88 0 c0.32 0 0.6 0.44 0.6 0.72 l0 6.4 c0 0.28 -0.32 0.72 -0.6 0.72 l-3.24 0 c-0.28 0 -0.52 -0.4 -0.56 -0.64 l-0.28 -1.24 l-5.44 0 l0 0.68 l0.6 0 l-0.6 0.44 l0 0.64 l1.44 -1.08 l0.64 0 l-2.08 1.56 l0 0.64 l2.92 -2.2 l0.68 0 l-3 2.24 l-0.6 0 l0 1.56 l2.44 0 l-0.04 -0.04 l0.04 -0.04 l2.8 -2.08 c0.08 0.08 0.2 0.16 0.32 0.24 l-2.56 1.92 l0.84 0 l2.52 -1.88 l0.36 0 l0 0.2 l-2.24 1.68 l0.44 0 c0.08 0 0.16 0.08 0.28 0.08 l1.52 -1.12 l0 0.48 l-1.2 0.92 l-0.12 0 c0.04 0.08 0.12 0.24 0.12 0.4 l0 4.28 c0 0.4 -0.32 0.76 -0.72 0.76 l-4.8 0 l0 0.68 l0.24 0 c-0.04 0.04 -0.2 0.16 -0.24 0.2 l0 0.6 l1.08 -0.8 l0.64 0 l-1.72 1.32 l0 0.6 l2.12 -1.56 l0 0.48 l-1.88 1.4 l-0.24 0 l0 1.96 l5.52 0 l0.32 -1.32 c0.04 -0.24 0.28 -0.6 0.6 -0.6 l3.12 0 c0.32 0 0.64 0.44 0.64 0.76 l0 6.4 c0 0.28 -0.32 0.72 -0.64 0.72 l-15.88 0 c-0.32 0 -0.64 -0.48 -0.64 -0.8 l0 -4 c-0.2 0.08 -0.4 0.16 -0.52 0.36 c-0.04 0.04 -0.04 0.12 -0.08 0.16 l-1.24 0.92 l0 -0.48 l2.72 -2.04 l0 0.32 c0.08 -0.04 0.52 -0.16 0.64 -0.24 z M126.272 12.920000000000002 l0.44 0 l-1.08 0.8 c0 -0.32 0.28 -0.8 0.64 -0.8 z M125.632 14.84 l0 -0.48 l1.92 -1.44 l0.64 0 z M125.632 15.48 l2.72 -2.08 l0 0.52 l-2.72 2.04 l0 -0.48 z M125.632 17.08 l0 -0.48 l2.68 -2.04 l0.04 0 l0 0.44 z M125.632 17.68 l2.76 -2.04 c0.12 0.12 0.16 0.2 0.24 0.32 l-2.84 2.08 c-0.04 0 -0.16 -0.28 -0.16 -0.36 z M126.67200000000001 18.52 l-0.44 -0.16 l2.88 -2.16 l0.04 0 l0.44 0.12 z M137.43200000000002 18.88 l3 -2.24 l0.32 0 c0.04 0.04 0.04 0.12 0.04 0.2 l-2.72 2.04 l-0.04 0 l-0.6 0 z M127.19200000000001 19.28 l0 -0.52 l2.72 -2.04 l0 0.48 z M138.232 19.88 l-0.08 -0.44 l2.76 -2.04 l0.04 -0.04 l0.08 0.44 z M127.19200000000001 19.88 l2.72 -2.04 l0 0.44 l-2.72 2.04 l0 -0.44 z M127.19200000000001 20.96 l2.72 -2.04 l0 0.48 l-2.72 2.04 l0 -0.48 z M127.19200000000001 22.56 l0 -0.48 l2.72 -2.04 l0 0.48 z M127.19200000000001 23.68 l0 -0.48 l2.72 -2.04 l0 0.48 z M127.19200000000001 24.32 l2.72 -2.04 l0 0.48 l-2.72 2.04 l0 -0.48 z M127.19200000000001 25.92 l0 -0.48 l2.72 -2.04 l0 0.48 z M127.19200000000001 27.04 l0 -0.48 l2.72 -2.04 l0 0.48 z M127.19200000000001 27.68 l2.72 -2.08 l0 0.52 l-2.72 2.04 l0 -0.48 z M127.19200000000001 28.8 l2.72 -2.08 l0 0.52 l-2.72 2.04 l0 -0.48 z M127.19200000000001 30.4 l0 -0.48 l2.72 -2.08 l0 0.52 z M137.512 29.16 l-0.44 0 l1.04 -0.76 c0 0.32 -0.24 0.76 -0.6 0.76 z M127.19200000000001 31.04 l2.72 -2.08 l0 0.48 l-2.72 2.08 l0 -0.48 z M127.19200000000001 32.12 l2.72 -2.04 l0 0.48 l-2.72 2.08 l0 -0.52 z M125.632 35.480000000000004 l2.72 -2.04 l0 0.48 l-2.72 2.08 l0 -0.52 z M125.632 36.6 l2.72 -2.04 l0 0.48 l-2.72 2.08 l0 -0.52 z M125.632 38.24 l0 -0.52 l2.72 -2.04 l0 0.48 z M125.632 38.84 l2.72 -2.04 c0.04 0.16 0.08 0.28 0.08 0.44 l-0.04 0.04 l-2.72 2 l-0.04 0.04 l0 -0.48 z M125.872 39.8 l2.84 -2.12 c0.2 0.08 0.32 0.08 0.52 0.08 l-2.96 2.24 c-0.16 0 -0.32 -0.12 -0.4 -0.2 z M127.11200000000001 40 l2.96 -2.24 l0.64 0 l-2.96 2.24 l-0.64 0 z M129.232 40 l-0.64 0 l2.96 -2.24 l0.64 0 z M130.71200000000002 40 l-0.64 0 l2.92 -2.2 c0.04 -0.04 0.08 -0.04 0.08 -0.04 l0.64 0 z M131.552 40 l3 -2.24 l0.64 0 l-2.92 2.2 c-0.04 0.04 -0.04 0.04 -0.08 0.04 l-0.64 0 z M133.072 40 l2.96 -2.24 l0.64 0 l-2.96 2.24 l-0.64 0 z M135.192 40 l-0.64 0 l2.96 -2.24 l0.68 0 z M136.032 40 l3 -2.24 l0.56 0 l-2.96 2.24 l-0.6 0 z M138.112 40 l-0.64 0 l2.96 -2.24 l0.68 0 z M138.952 40 l3 -2.24 l0.64 0 l-2.96 2.24 l-0.68 0 z M140.472 40 l2.32 -1.76 l0 0.48 l-1.68 1.28 l-0.64 0 z M141.952 40 l0.84 -0.6 c0 0.32 -0.4 0.6 -0.72 0.6 l-0.12 0 z M160.5 31.28 l0 -15.52 l-0.96 -0.28 c-0.32 -0.12 -0.56 -0.44 -0.56 -0.76 l0 -3.96 c0 -0.28 0.28 -0.76 0.6 -0.76 l8.12 0 c0.24 0 0.48 0.24 0.56 0.44 l3.68 12.44 c0.04 0 0.04 -0.04 0.04 -0.04 l2.64 -1.96 c-0.08 0.24 -0.16 0.6 -0.16 0.6 l-2.4 1.8 l0.16 0.48 l0.04 0 l1.92 -1.44 c0 0.16 -0.12 0.44 -0.16 0.56 l-1.64 1.24 c-0.04 0.04 -0.04 0.04 -0.04 0.08 c0.04 0.16 0.12 0.44 0.12 0.44 l0.04 0.04 l1.32 -1 l-0.2 0.64 l-1 0.72 l0 0.08 l0.12 0.44 c0.12 -0.04 0.52 -0.32 0.64 -0.44 c0 0.08 -0.12 0.48 -0.16 0.64 l-0.32 0.24 l0 0.08 l0.36 1.12 l4.8 -16.64 c0.08 -0.24 0.28 -0.56 0.56 -0.56 l8.28 0 c0.32 0 0.6 0.44 0.6 0.72 l0 4 c0 0.36 -0.24 0.64 -0.56 0.76 l-1 0.28 l0 15.52 l1 0.36 c0.32 0.08 0.56 0.36 0.56 0.68 l0 4 c0 0.32 -0.32 0.76 -0.64 0.76 l-7.2 0 c-0.4 0 -0.68 -0.52 -0.68 -0.88 l0 -3.88 c-0.4 0 -0.6 0.4 -0.64 0.72 l-1.12 0.84 l0 -0.16 l0 -0.2 c0 0 0 -0.08 0.04 -0.08 l1.76 -1.36 c0.04 0 0.2 -0.28 0.28 -0.32 c0 -0.04 0.6 -0.32 0.68 -0.36 l0 0.08 l0.64 -0.2 l0.2 -11.56 l-0.84 2.72 c0.04 0 0.12 -0.08 0.12 -0.08 c0 0.08 0.04 0.36 0 0.48 c-0.08 0.08 -0.28 0.2 -0.32 0.28 l-0.24 0.76 c0.12 -0.08 0.48 -0.32 0.56 -0.4 l0 0.48 l-0.76 0.6 l-0.24 0.8 l1 -0.76 l0 0.16 s-0.04 0.32 -0.04 0.36 l-1.12 0.84 c-0.04 0 -0.04 0.04 -0.04 0.04 l-0.24 0.8 l1.4 -1.04 l0 0.48 l-1.6 1.2 l-0.24 0.8 l1.84 -1.36 l0 0.08 c0 0.08 -0.04 0.4 -0.04 0.4 l-1.96 1.48 l-0.04 0.04 l-0.24 0.8 l2.24 -1.68 l0 0.48 l-2.44 1.84 l-0.24 0.8 l2.68 -2 l0 0.08 l0 0.44 l-2.76 2 l0 -0.24 l-0.96 3.08 l0.12 0 c-0.04 0.04 -0.12 0.04 -0.12 0.12 l-0.24 0.76 l2.24 -1.68 l0 0.52 l-2.4 1.8 c-0.16 0.44 -0.32 1.08 -0.84 1.08 l-3.64 0 c-0.24 0 -0.52 -0.2 -0.56 -0.44 l-5.12 -16.6 l0 0.16 l0 0.2 c0 0.36 0.04 2.04 0.04 2.4 c0 0.12 0 0.16 0.04 0.24 c0 0.04 0.08 0.28 0.08 0.36 c0 0 -0.08 0.04 -0.08 0.08 l0 0.6 c0.08 -0.04 0.2 -0.16 0.24 -0.16 l0.12 0.36 c0 0.04 0 0.04 -0.04 0.04 l-0.32 0.24 l0 0.64 c0.2 -0.08 0.36 -0.24 0.52 -0.4 l0 0.04 s0.08 0.24 0.12 0.4 l-0.6 0.44 l0 0.08 l0 0.52 l0.76 -0.56 l0.12 0.4 l-0.88 0.68 l0 0.08 l0 0.52 l1.04 -0.76 l0.12 0.36 l0 0.04 l-1.12 0.84 l0 0.16 l0 0.44 l1.28 -0.92 s0.08 0.2 0.12 0.36 l-1.4 1.04 l0 0.52 l0.04 0.08 l1.52 -1.12 l0.12 0.36 c0 0.04 0 0.04 -0.04 0.04 l-1.6 1.2 l0 0.64 l1.8 -1.36 l0.12 0.4 l-0.04 0.04 l-1.88 1.4 l0 0.12 l0.44 0.16 l1.56 -1.16 c0.04 0 0.04 -0.04 0.08 -0.04 l0 0.04 s0.08 0.2 0.12 0.36 l-1.28 0.96 c0.16 0.08 0.32 0.08 0.44 0.28 l0.04 0 l0.92 -0.68 l0.04 -0.04 l0.12 0.36 c0 0.04 -0.04 0.04 -0.04 0.04 l-0.84 0.64 l-0.04 0.04 c0 0.2 0.04 0.4 0.04 0.6 l1.04 -0.76 l0.12 0.36 l-1.16 0.88 l0 0.64 l1.32 -1 l0.12 0.4 l-0.04 0.04 l-1.4 1.04 l0 0.6 l0.04 0 l1.56 -1.16 l0.12 0.4 l-1.72 1.28 l0 0.64 l1.88 -1.4 s0.08 0.24 0.12 0.4 l-2.72 2 l0 -0.12 l-7.2 0 c-0.32 0 -0.64 -0.48 -0.64 -0.8 l0 -3.92 c0 -0.32 0.24 -0.64 0.52 -0.72 z M155.58 14.36 l0 -0.48 l1.28 -0.96 l0.68 0 z M174.66000000000003 13.52 c0 -0.36 0.44 -0.6 0.8 -0.6 l0 0.04 s-0.52 0.36 -0.8 0.56 z M176.9 12.96 l-2.64 1.96 c0 -0.08 0.12 -0.56 0.2 -0.6 l1.84 -1.4 l0.64 0 c0 0.04 -0.04 0.04 -0.04 0.04 z M155.58 15.48 l0 -0.48 l2.68 -2 c0.04 0 0.04 -0.04 0.04 -0.04 l0 0.48 z M174.02 15.760000000000002 l2.68 -2 l-0.2 0.6 l-2.68 2 z M155.58 16.12 l2.72 -2.04 l0 0.48 l-2.72 2.04 l0 -0.48 z M155.58 17.24 l2.72 -2.04 c0.04 0.12 0.08 0.28 0.08 0.44 c0 0 -0.04 0 -0.04 0.04 l-2.76 2.04 l0 -0.48 z M173.62 17.16 l2.68 -1.96 l-0.2 0.6 l-2.68 2 c0 -0.12 0.12 -0.6 0.2 -0.64 z M155.78 18.2 l2.84 -2.12 c0.2 0.04 0.32 0.08 0.48 0.12 l-2.92 2.2 c-0.16 0 -0.32 -0.12 -0.4 -0.2 z M157.14000000000001 18.68 l-0.36 -0.12 l2.92 -2.16 c0.08 0 0.16 0.04 0.16 0.04 l0 0.32 l-2.72 2.04 l0 -0.12 z M173.18 18.6 l2.64 -1.96 l0.04 0 c0 0.08 -0.12 0.56 -0.2 0.6 l-2.64 2 z M157.14000000000001 19.44 l2.72 -2.04 l0 0.48 l-2.72 2.04 l0 -0.48 z M172.78 20.04 l2.64 -2 l0.04 0 l-0.2 0.6 l-2.64 2 c0.04 -0.24 0.16 -0.6 0.16 -0.6 z M157.14000000000001 20.56 l2.72 -2.04 l0 0.48 l-2.72 2.04 l0 -0.48 z M172.18 22.08 l0.16 -0.64 l2.64 -1.92 c0 -0.04 0.04 -0.04 0.04 -0.04 c0 0.08 -0.12 0.56 -0.2 0.64 z M157.14000000000001 22.12 l0 -0.44 l2.72 -2.04 l0 0.44 z M157.14000000000001 23.24 l0 -0.52 l2.68 -2 l0.04 0 l0 0.48 z M157.14000000000001 23.84 l2.72 -2.04 l0 0.52 l-2.72 2.04 l0 -0.52 z M157.14000000000001 25.439999999999998 l0 -0.48 l2.72 -2.04 l0 0.52 z M179.54000000000002 23.92 l0 -0.04 c-0.04 0 -0.04 0.04 0 0.04 z M157.14000000000001 26.560000000000002 l0 -0.48 l2.72 -2.04 l0 0.48 l-2.68 2 c0 0.04 -0.04 0.04 -0.04 0.04 z M157.14000000000001 27.2 l2.72 -2.04 l0 0.48 l-2.72 2.04 l0 -0.48 z M157.14000000000001 28.8 l0 -0.48 l2.72 -2.04 l0 0.48 z M157.14000000000001 29.92 l0 -0.48 l2.72 -2.04 l0 0.48 z M157.14000000000001 30.560000000000002 l2.72 -2.04 l0 0.48 l-2.72 2.04 l0 -0.48 z M157.14000000000001 31.68 l2.72 -2.04 l0 0.48 l-2.72 2.04 l0 -0.48 z M177.26000000000002 32.32 l2.72 -2.04 l0 0.4 l0 0.08 l-2.72 2.04 l0 -0.48 z M157.14000000000001 33.28 l0 -0.48 l2.68 -2 c0 -0.04 0.04 -0.04 0.04 -0.04 l0 0.48 z M157.14000000000001 33.92 l1.16 -0.92 l0 0.52 l-2.72 2.04 l0 -0.16 c0 -0.12 0 -0.24 0.04 -0.4 c0.12 -0.08 0.56 -0.4 0.68 -0.48 c0 0 0.04 -0.04 0.08 -0.04 l0.76 -0.24 l0 -0.32 z M155.58 36.64 l0 -0.48 l2.68 -2 l0.04 0 l0 0.44 z M175.58 36.84 l2.72 -2.04 l0 0.52 l-2.72 2.04 l0 -0.52 z M155.58 37.28 l2.72 -2.04 l0 0.48 l-2.72 2.04 l0 -0.48 z M176.06 35.4 l0 -0.04 c-0.04 0 -0.04 0.04 0 0.04 z M166.94 37.76 l2.76 -2.08 l0.12 0.4 l-2.8 2.08 l-0.12 -0.36 c0 -0.04 0 -0.04 0.04 -0.04 z M175.58 38.48 l0 -0.52 l2.72 -2.04 l0 0.52 z M155.58 38.36 l2.72 -2.04 l0 0.52 l-2.72 2.04 l0 -0.52 z M167.18 38.68 l2.8 -2.08 l0.12 0.4 l-2.8 2.08 l0 0 z M175.58 39.08 l2.76 -2.04 c0.04 0.08 0.12 0.36 0.12 0.4 l-2.8 2.08 c-0.08 -0.12 -0.08 -0.28 -0.08 -0.44 z M155.62 39.48 c0 -0.04 0 -0.04 0.04 -0.04 l2.72 -2.04 c0.08 0 0.28 0.2 0.32 0.24 l-2.84 2.12 c0 0.04 -0.04 0.04 -0.04 0.04 c-0.04 0 -0.2 -0.28 -0.2 -0.32 z M167.46 39.6 l2.8 -2.08 l0 -0.04 c0.12 0.12 0.2 0.2 0.32 0.28 l-2.88 2.12 c-0.04 0.04 -0.28 -0.28 -0.24 -0.28 z M175.98000000000002 39.92 l2.88 -2.16 c0.04 0 0.04 -0.04 0.04 -0.04 c0.2 0 0.44 0.04 0.6 0.04 l-2.96 2.24 l-0.32 0 c-0.08 0 -0.16 -0.04 -0.24 -0.08 z M157.06 40 l-0.64 0 l3 -2.24 l0.64 0 z M158.58 40 l-0.68 0 l3 -2.24 l0.68 0 z M159.42000000000002 40 l3 -2.24 l0.64 0 l-3 2.24 l-0.64 0 z M160.94000000000003 40 l2.96 -2.24 l0.2 0 l0 0.32 l-2.52 1.92 l-0.64 0 z M169.02 40 l-0.6 0 l3 -2.24 l0.6 0 z M178.02 40 l-0.64 0 l3 -2.24 l0.64 0 z M179.54000000000002 40 l-0.68 0 l2.96 -2.2 l0.04 -0.04 l0.68 0 z M180.38000000000002 40 l3 -2.24 l0.64 0 l-3 2.24 l-0.64 0 z M170.54000000000002 40 l-0.68 0 l2.92 -2.2 l-0.16 0.64 z M181.86 40 l2.24 -1.68 l0 0.52 l-1.56 1.16 l-0.68 0 z M163.06 40 l-0.64 0 l1.68 -1.28 l0 0.48 l-0.96 0.76 c-0.04 0.04 -0.08 0.04 -0.08 0.04 z M171.70000000000002 40 l-0.32 0 l0.96 -0.72 c0 0.28 -0.32 0.72 -0.64 0.72 z M183.38000000000002 40 l0.64 -0.48 c0 0.24 -0.4 0.48 -0.64 0.48 z M206.248 10.120000000000001 l2.24 -0.12 l1.76 0 l0.96 0.04 l1.52 0.16 c4.08 0.4 4.96 4.16 4.96 7.6 c0 0.44 0.04 1.52 -0.64 1.52 l-4.04 0 c-0.6 0 -0.68 -0.72 -0.68 -1.2 l-0.04 -1.52 c-0.04 -0.88 -1.28 -0.92 -1.88 -0.92 l-2 0 c-0.48 0 -0.96 0.08 -1.44 0.2 c-1.04 0.16 -1.2 0.48 -1.24 1.48 l1.2 -0.92 c0.16 -0.08 0.52 -0.08 0.68 -0.08 l-1.92 1.44 l0 0.64 l2.76 -2.08 l0.64 0 l-2.96 2.24 l-0.44 0 c0 1.4 0.56 1.6 1.84 1.72 l1.28 0.12 l0.12 0 l0 -0.04 l2.72 -2.04 c0.04 0.12 0 0.28 0 0.32 l0 0.16 l-2.12 1.6 l-0.04 0.04 l0.72 0.08 l1.52 -1.16 c0.04 0.04 0.08 0.16 0.08 0.2 s0.08 0.12 0.08 0.16 l-1.08 0.84 l0.08 0 s0.44 0.04 0.68 0.04 l0.88 -0.64 l0.64 0 l-0.96 0.72 l0.64 0.08 l0.08 0 l1.08 -0.8 l0.4 0 l0 0.16 l-1 0.76 l0.6 0.12 c0.16 0 0.24 -0.2 0.4 -0.24 l0 0.36 l0.04 0 c3.56 1.16 3.72 4.2 3.72 7.4 c0 8.32 -3.4 8.52 -10.48 8.52 l-2.12 -0.16 c-3.4 -0.24 -5.12 -3.24 -5.2 -6.4 l-0.04 -1.88 l0 -0.2 c0 -0.56 0.04 -1.08 0.6 -1.28 l0.52 0 l1.6 -1.16 c0.12 0 0.28 0.08 0.4 0.16 l-1.36 1 l0.84 0 l1.12 -0.8 l0.48 0.12 l-0.96 0.68 l0.84 0 l0.8 -0.6 l0.52 0.08 l-0.68 0.52 c0.2 0.04 0.32 0.12 0.48 0.28 l0.92 -0.68 l0 -0.04 l0.56 0.08 l-1.32 1 c-0.04 0.08 -0.04 0.12 -0.04 0.12 c0 0.08 0.04 0.4 0.04 0.48 l2.08 -1.52 l0.04 -0.04 c0.16 0 0.36 0.04 0.52 0.04 l-2.64 2 l0 0.24 c0 1.48 0 2.04 1.72 2.2 c0.64 0.08 1.24 0.08 1.88 0.08 l0.2 0 l0 -0.36 l2.68 -2 c0.04 0.08 0.04 0.2 0.04 0.32 l0 0.12 l-2.56 1.92 l0.28 0 l0.28 0 l0.28 0 l1.68 -1.24 l0 0.08 c0 0.08 0 0.32 -0.04 0.36 l-0.88 0.72 c0.24 0 0.44 -0.12 0.64 -0.16 c1 -0.36 0.92 -1.4 0.96 -2.28 c0 -0.48 -0.04 -0.92 -0.08 -1.4 c-0.16 -0.96 -0.96 -1.16 -1.8 -1.2 l-2.08 -0.08 l-2.16 -0.16 l-1.64 -0.28 c-3.04 -0.44 -4.48 -3.4 -4.6 -6.2 l-0.04 -1.56 c0 -4.12 1.2 -7.6 5.88 -7.88 z M200.488 14.04 l-2.52 1.88 c0 -0.12 0.44 -0.72 0.6 -0.92 l1.84 -1.4 c0.04 -0.04 0.36 -0.16 0.4 -0.16 z M197.528 16.88 l2.64 -1.96 l0 0.04 s-0.12 0.36 -0.16 0.56 l-2.64 1.96 l0 -0.12 c0.04 -0.08 0.12 -0.4 0.16 -0.48 z M197.208 18.2 l2.68 -2 l-0.08 0.56 l-2.68 2 l0.08 -0.52 l0 -0.04 z M206.96800000000002 18.56 l2.92 -2.16 l0 -0.04 c0.24 0 0.36 0 0.6 0.08 l-2.92 2.16 l-0.16 0 s-0.36 0 -0.44 -0.04 z M208.248 18.72 l2.84 -2.12 c0.12 0 0.28 0.12 0.36 0.2 l-2.76 2.08 c-0.2 -0.08 -0.32 -0.12 -0.44 -0.16 z M208.888 19.32 l2.76 -2.04 l0 0.4 l0 0.08 l-2.72 2 c0 -0.12 -0.04 -0.28 -0.04 -0.44 z M197.048 19.84 l0 -0.4 l2.68 -2.04 l0 0.12 c0 0.12 0.08 0.32 -0.04 0.4 l-2.64 2 l0 -0.08 z M197.008 20.56 l2.68 -2 l0.04 0 l0 0.44 l-2.68 2 l-0.04 0.04 l0 -0.48 z M197.048 21.64 l2.68 -2 c0.04 0.12 0.04 0.24 0.04 0.36 l0 0.08 l-2.68 2 c-0.04 -0.04 -0.08 -0.32 -0.08 -0.4 c0 -0.04 0 -0.04 0.04 -0.04 z M197.12800000000001 22.68 l2.68 -2 c0.04 0.16 0.08 0.44 0.08 0.44 l-2.76 2.04 c0 -0.08 -0.04 -0.36 -0.04 -0.44 z M197.24800000000002 23.68 l2.72 -2 l0.04 0.32 l0.04 0.04 s-0.04 0 -0.04 0.04 l-2.72 2 c0 -0.08 -0.04 -0.28 -0.04 -0.4 z M197.40800000000002 24.6 l0.04 0 l2.72 -2.04 l0.12 0.4 l-2.76 2.04 c0 -0.04 -0.04 -0.12 -0.04 -0.16 c-0.04 -0.04 -0.08 -0.24 -0.08 -0.24 z M197.728 25.48 l2.72 -2.04 l0.04 0 l0.16 0.32 l-2.76 2.08 c-0.04 -0.08 -0.12 -0.2 -0.16 -0.36 z M198.12800000000001 26.28 l2.76 -2.04 l0.04 -0.04 l0 0.04 l0.2 0.28 l-2.8 2.08 s-0.12 -0.2 -0.2 -0.32 z M198.648 27 l2.8 -2.08 l0.28 0.28 l-2.84 2.08 s-0.12 -0.16 -0.24 -0.28 z M199.328 27.6 l2.8 -2.08 l0.36 0.2 l-2.8 2.12 c-0.12 -0.04 -0.32 -0.16 -0.36 -0.24 z M206.168 29.119999999999997 l2.88 -2.2 l0.04 0 l0.08 0 l0.24 0 l0.28 0 l-2.92 2.2 c-0.04 0.04 0 0 -0.04 0 l-0.56 0 z M208.048 29.240000000000002 l-0.52 -0.08 l2.92 -2.16 c0.12 0 0.36 0.04 0.48 0.08 z M208.648 29.4 l2.84 -2.12 c0.16 0 0.32 0.24 0.32 0.24 l-2.76 2.08 c-0.12 -0.08 -0.36 -0.16 -0.4 -0.2 z M209.248 30.04 l2.72 -2.04 l0.04 0 c0.08 0.08 0.04 0.28 0.04 0.4 l0 0.04 l-2.72 2.04 c0 -0.16 -0.04 -0.28 -0.08 -0.44 z M197.008 30.439999999999998 l0.52 -0.4 l0.64 0 l-1.28 0.96 c0 -0.12 0.04 -0.52 0.12 -0.56 z M196.888 31.64 l2.12 -1.6 l0.6 0 l0 0.04 l-2.72 2.04 l0 -0.48 z M196.888 32.72 l2.72 -2.04 c0 0.08 0.04 0.32 0.04 0.48 l-2.72 2.04 c-0.04 -0.16 -0.04 -0.28 -0.04 -0.48 z M196.96800000000002 33.76 l2.72 -2 s0.04 0.28 0.04 0.44 l-2.72 2 s-0.04 -0.24 -0.04 -0.44 z M197.088 34.76 l2.72 -2.04 c0.04 0.16 0.12 0.4 0.12 0.44 l-2.76 2.04 l-0.08 -0.4 l0 -0.04 z M197.40800000000002 36.12 l-0.12 -0.4 l2.72 -2.04 l0.04 0 l0.12 0.36 z M197.768 36.92 l-0.16 -0.32 l2.76 -2.08 c0.04 0 0.04 0 0.04 0.04 l0.16 0.28 z M198.048 37.32 l2.76 -2.04 l0 0 l0.2 0.28 l0 0.04 l-2.76 2.08 l-0.2 -0.32 l0 -0.04 z M198.528 38.08 l2.8 -2.08 l0.04 -0.04 l0.28 0.28 l-2.84 2.12 l-0.16 -0.16 c0 -0.04 -0.08 -0.12 -0.12 -0.12 z M199.208 38.68 l2.8 -2.08 l0.04 -0.04 l0.32 0.24 l-2.84 2.12 s-0.12 -0.12 -0.2 -0.16 c0 0 -0.12 -0.04 -0.12 -0.08 z M200.048 39.16 l2.8 -2.12 l0.04 0 l0.4 0.16 l-2.84 2.12 l-0.04 0.04 c-0.08 0 -0.32 -0.12 -0.36 -0.2 z M209.52800000000002 39.8 l-0.04 0 l3 -2.24 c0.04 -0.04 0.44 -0.12 0.52 -0.12 c0.04 -0.04 0.36 -0.12 0.44 -0.12 l-3.12 2.32 c-0.04 0.04 -0.72 0.16 -0.8 0.16 z M201.008 39.56 l2.88 -2.16 l0.48 0.12 l-2.92 2.16 c-0.12 0 -0.32 -0.04 -0.44 -0.12 z M202.168 39.8 l-0.04 0 l2.88 -2.16 c0.04 -0.04 0.04 0 0.08 0 c0.16 0 0.36 0 0.52 0.04 l-2.92 2.16 c-0.2 0 -0.48 -0.04 -0.52 -0.04 z M207.808 39.96 l2.96 -2.2 c0.08 -0.08 0.6 -0.08 0.72 -0.08 l-2.96 2.2 c0 0.04 -0.4 0.04 -0.72 0.08 z M203.488 39.92 l-0.04 0 l2.92 -2.2 l0.08 0 c0.16 0 0.36 0 0.52 0.04 l-2.92 2.2 l-0.08 0 c-0.08 0 -0.44 -0.04 -0.48 -0.04 z M206.288 40 l2.92 -2.2 l0.04 0 c0 -0.04 0.36 -0.04 0.64 -0.04 l-2.96 2.24 l-0.64 0 z M204.848 39.96 l2.92 -2.16 l0.64 0 l-2.96 2.2 l-0.16 0 c-0.16 0 -0.28 0 -0.44 -0.04 z"></path></g>
	</g>
</svg>
