<svg id="Layer_1" data-name="Layer 1" xmlns="http://www.w3.org/2000/svg" viewBox="0 0 200 200"><defs><style>.cls-1{fill:#4191ce;}.cls-2{fill:#f9ae42;fill-rule:evenodd;}.cls-3{fill:#10191f;}</style></defs><path id="Fill-3" class="cls-1" d="M164.87,89.54a2.85,2.85,0,1,0,2.84,2.85,2.86,2.86,0,0,0-2.84-2.85"/><path id="Fill-1" class="cls-1" d="M172,91.85A44.26,44.26,0,0,1,175.11,95c2.1,2.38,2.47,3.89,2.12,4.5s-1.87,1-4.52.51c-.43-.08-.87-.18-1.32-.29a41.74,41.74,0,0,0,.64-7.36c0-.17,0-.35,0-.53m-9.3,4.25a38,38,0,0,1-5.36-3.72,39.09,39.09,0,0,1,5.36-3.7,38.49,38.49,0,0,1,5.89-2.79,39.33,39.33,0,0,1,0,13,38.4,38.4,0,0,1-5.89-2.78m-3.22,3.33c-4,1.39-6.54.88-7,.09-.34-.59.09-2.1,1.81-4.16.28-.33.59-.67.91-1a41.68,41.68,0,0,0,6.05,4.23l.17.09c-.78.31-1.52.6-1.95.75m1.92-15c.28-1.28.67-2.46.67-2.46.93-2.69,2.07-3.9,2.77-3.9,1,0,2.21,1.82,3.11,5a41.57,41.57,0,0,0-6.69,3.12,2.26,2.26,0,0,1-.26.16c.13-.64.26-1.26.4-1.87m13.46,18.65c2.9,0,4.23-1.1,4.84-2.16,1.17-2,.35-4.67-2.45-7.85a40.42,40.42,0,0,0-5.47-5.2c-.11-1-.24-2-.41-2.88.45-.11.89-.21,1.32-.29,2.65-.46,4.18-.08,4.52.51.22.39.05,1.22-.48,2.25a7.06,7.06,0,0,1-1,1.54,28.45,28.45,0,0,1,2,2,9.75,9.75,0,0,0,1.52-2.24c1-2,1.17-3.7.41-5s-2.7-2.75-7.51-1.9c-.48.08-1,.19-1.47.31-1.18-4.09-3.15-7-5.87-7-1.59,0-3.82,1-5.51,5.86,0,0-.43,1.32-.75,2.75s-.63,3-.91,4.65q-1.3.95-2.46,1.92c-2.26-2.34-3.22-4.33-2.73-5.16.29-.5,1.2-.92,2.58-.72a13.82,13.82,0,0,1,1.56.3c.21-1.09.49-2.12.68-2.8-.33-.08-1-.22-1.83-.35-2.43-.35-4.53.47-5.49,2.13-1.36,2.36.16,5.52,3.12,8.58-.36.37-.7.75-1,1.12C149,97.25,149.24,99.63,150,101c.86,1.48,2.62,2.24,5,2.24a16.84,16.84,0,0,0,5.47-1.06c1-.34,3.28-1.27,4.38-1.72,1.06.49,2.11.92,3.14,1.29-.9,3.13-2.14,5-3.11,5-.76,0-1.68-1.12-2.4-2.92,0-.07-.08-.22-.13-.38-1,.39-2,.7-2.73.91a5.46,5.46,0,0,0,.19.54c1.56,3.9,3.62,4.72,5.07,4.72,2.73,0,4.7-2.89,5.88-7,.5.12,1,.23,1.47.31a15.34,15.34,0,0,0,2.67.26"/><path id="Fill-10" class="cls-2" d="M90,92.05V68.48h16.89a11.51,11.51,0,0,1,11.29,11.74c0,6.51-5.05,11.84-11.29,11.84H90Zm36.59-11.83a19.66,19.66,0,0,0-19.7-19.6H81.57v63.23H90V99.65h14.91l14.18,24.2h9.31L113.46,98.56a19.72,19.72,0,0,0,13.1-18.34Z"/><path class="cls-2" d="M184.09,108.36a24.62,24.62,0,1,1-3-34.55,24.8,24.8,0,0,1,2.21,2.13l7.19-4.54a33.56,33.56,0,0,0-4-4,32.75,32.75,0,1,0,3.89,46.21c.37-.44.72-.9,1.06-1.36Z"/><path class="cls-2" d="M74.3,92.24A32.85,32.85,0,1,0,59.39,119.7l4.09,4.17,10.82,0-8.94-9.12A32.7,32.7,0,0,0,74.3,92.24ZM59.58,108.86,50.42,99.7a11.64,11.64,0,0,1-7,4l10,10a24.33,24.33,0,1,1,6.14-4.88Z"/><path id="Fill-3-2" data-name="Fill-3" class="cls-1" d="M42.21,87.93a4.95,4.95,0,1,0,4.94,4.94,5,5,0,0,0-4.94-4.94"/><path class="cls-3" d="M11.45,140.24v-3.81H10.08v-.87h3.74v.87H12.46v3.81Z"/><path class="cls-3" d="M18.79,140.24v-2H16.58v2h-1v-4.68h1v1.84h2.21v-1.84h1v4.68Z"/><path class="cls-3" d="M21.83,140.24v-4.68h3.32v.85H22.83v1H25.1v.86H22.83v1.09h2.32v.86Z"/><path class="cls-3" d="M34,139.56l.35.4-.7.57-.37-.44a2.7,2.7,0,0,1-1.12.24,2.43,2.43,0,1,1,2.45-2.43A2.4,2.4,0,0,1,34,139.56Zm-1.35-.2-.53-.63.69-.56.54.62a1.69,1.69,0,0,0,.24-.89,1.43,1.43,0,1,0-1.43,1.54A1.48,1.48,0,0,0,32.68,139.36Z"/><path class="cls-3" d="M36.47,135.56h1v2.78a1.08,1.08,0,1,0,2.16,0v-2.78h1v2.81a1.83,1.83,0,0,1-2.08,2,1.85,1.85,0,0,1-2.1-2Z"/><path class="cls-3" d="M45.75,140.24l-.29-.81h-2.1l-.29.81H42l1.81-4.68H45l1.81,4.68Zm-1.34-3.82-.78,2.15h1.55Z"/><path class="cls-3" d="M51.63,140.24l-2.24-3.14v3.14h-1v-4.68h1l2.17,3v-3h1v4.68Z"/><path class="cls-3" d="M55.72,140.24v-3.81H54.35v-.87h3.74v.87H56.72v3.81Z"/><path class="cls-3" d="M59.85,135.56h1v2.78a1.08,1.08,0,1,0,2.16,0v-2.78h1v2.81a2.09,2.09,0,0,1-4.18,0Z"/><path class="cls-3" d="M70.16,140.24v-3.37l-1.32,3.37H68.4l-1.32-3.37v3.37h-1v-4.68h1.4l1.14,2.92,1.14-2.92h1.4v4.68Z"/><path class="cls-3" d="M78.78,140.24l-.92-1.68h-.73v1.68h-1v-4.68h2.19a1.45,1.45,0,0,1,1.57,1.51,1.34,1.34,0,0,1-1,1.39l1,1.78Zm-.61-3.83h-1v1.3h1a.65.65,0,1,0,0-1.3Z"/><path class="cls-3" d="M81.77,140.24v-4.68h3.31v.85H82.77v1H85v.86H82.77v1.09h2.31v.86Z"/><path class="cls-3" d="M87.21,138.82a2,2,0,0,0,1.49.63c.55,0,.81-.26.81-.52s-.4-.47-.94-.6c-.77-.17-1.75-.39-1.75-1.43,0-.78.67-1.41,1.77-1.41a2.59,2.59,0,0,1,1.83.65l-.56.73a2,2,0,0,0-1.34-.51c-.45,0-.69.19-.69.48s.4.41.94.54c.77.17,1.75.4,1.75,1.44,0,.86-.61,1.51-1.87,1.51a2.71,2.71,0,0,1-2-.75Z"/><path class="cls-3" d="M92.32,140.24v-4.68h1v4.68Z"/><path class="cls-3" d="M95.59,138.82a2,2,0,0,0,1.49.63c.55,0,.82-.26.82-.52s-.41-.47-1-.6c-.77-.17-1.75-.39-1.75-1.43,0-.78.67-1.41,1.78-1.41a2.58,2.58,0,0,1,1.82.65l-.55.73a2,2,0,0,0-1.34-.51c-.45,0-.69.19-.69.48s.39.41.93.54c.77.17,1.76.4,1.76,1.44,0,.86-.61,1.51-1.88,1.51a2.69,2.69,0,0,1-2-.75Z"/><path class="cls-3" d="M101.74,140.24v-3.81h-1.37v-.87h3.73v.87h-1.36v3.81Z"/><path class="cls-3" d="M108.69,140.24l-.29-.81h-2.09l-.3.81h-1.09l1.81-4.68H108l1.8,4.68Zm-1.34-3.82-.78,2.15h1.56Z"/><path class="cls-3" d="M114.57,140.24l-2.23-3.14v3.14h-1v-4.68h1l2.17,3v-3h1v4.68Z"/><path class="cls-3" d="M117.36,137.9a2.37,2.37,0,0,1,2.46-2.42,2.16,2.16,0,0,1,2,1.14l-.86.43a1.27,1.27,0,0,0-1.13-.69,1.54,1.54,0,0,0,0,3.08,1.24,1.24,0,0,0,1.13-.68l.86.41a2.17,2.17,0,0,1-2,1.16A2.38,2.38,0,0,1,117.36,137.9Z"/><path class="cls-3" d="M123.53,140.24v-4.68h3.31v.85h-2.31v1h2.27v.86h-2.27v1.09h2.31v.86Z"/><path class="cls-3" d="M131.44,137.9a2.37,2.37,0,0,1,2.46-2.42,2.15,2.15,0,0,1,2,1.14l-.85.43a1.3,1.3,0,0,0-1.14-.69,1.54,1.54,0,0,0,0,3.08,1.27,1.27,0,0,0,1.14-.68l.85.41a2.15,2.15,0,0,1-2,1.16A2.38,2.38,0,0,1,131.44,137.9Z"/><path class="cls-3" d="M139.83,135.48a2.43,2.43,0,1,1-2.44,2.42A2.35,2.35,0,0,1,139.83,135.48Zm0,.88a1.54,1.54,0,1,0,1.43,1.54A1.42,1.42,0,0,0,139.83,136.36Z"/><path class="cls-3" d="M146.76,140.24l-.92-1.68h-.73v1.68h-1v-4.68h2.19a1.45,1.45,0,0,1,1.57,1.51,1.34,1.34,0,0,1-1,1.39l1.05,1.78Zm-.61-3.83h-1v1.3h1a.65.65,0,1,0,0-1.3Z"/><path class="cls-3" d="M149.75,140.24v-4.68h2.19a1.5,1.5,0,1,1,0,3h-1.2v1.68Zm2.05-3.83h-1.06v1.3h1.06a.65.65,0,1,0,0-1.3Z"/><path class="cls-3" d="M157.47,135.48A2.43,2.43,0,1,1,155,137.9,2.35,2.35,0,0,1,157.47,135.48Zm0,.88a1.54,1.54,0,1,0,1.43,1.54A1.42,1.42,0,0,0,157.47,136.36Z"/><path class="cls-3" d="M164.39,140.24l-.92-1.68h-.73v1.68h-1v-4.68h2.19a1.46,1.46,0,0,1,1.57,1.51,1.34,1.34,0,0,1-1,1.39l1,1.78Zm-.6-3.83h-1v1.3h1a.65.65,0,1,0,0-1.3Z"/><path class="cls-3" d="M170.66,140.24l-.29-.81h-2.09l-.3.81h-1.09l1.81-4.68H170l1.8,4.68Zm-1.34-3.82-.78,2.15h1.55Z"/><path class="cls-3" d="M173.94,140.24v-3.81h-1.37v-.87h3.74v.87H175v3.81Z"/><path class="cls-3" d="M178.07,140.24v-4.68h1v4.68Z"/><path class="cls-3" d="M183.34,135.48a2.43,2.43,0,1,1-2.45,2.42A2.35,2.35,0,0,1,183.34,135.48Zm0,.88a1.55,1.55,0,1,0,1.42,1.54A1.41,1.41,0,0,0,183.34,136.36Z"/><path class="cls-3" d="M190.84,140.24l-2.23-3.14v3.14h-1v-4.68h1l2.17,3v-3h1v4.68Z"/></svg>