<svg height="150.600174" viewBox="0 0 25.645694 5.9225022" width="664.009858" xmlns="http://www.w3.org/2000/svg"><g transform="translate(-82.427286 -207.104169)"><path d="m99.395792 210.25267c-.185208.16228-.414514.24624-.677686.24624h-1.926519c-.26282 0-.487187-.084-.671689-.24624-.184856-.16263-.280106-.375-.280106-.63288v-.15664c0-.24659.09525-.45367.291042-.62159.196144-.17357.414514-.25753.660753-.25753h1.226608v.58208h-1.226608c-.08361 0-.156634.0282-.229306.0843-.07303.0614-.106539.12876-.106539.21272v.15664c0 .19614.111831.29139.335845.29139h1.926519c.229305 0 .341489-.0952.341489-.29139v-1.50037c0-.0787-.03351-.14569-.106186-.20708-.07302-.0617-.151342-.09-.235303-.09h-2.822222v-.58243h2.822222c.251883 0 .470253.0843.660753.25788.196144.17357.291041.38065.291041.62159v1.50037c0 .25788-.0896.47025-.274108.63288" fill="#1d2329"/><path d="m103.26728 209.61986c-.15099.58808-.46496.87912-.95179.87912h-.82903c-.48684 0-.80045-.29104-.9518-.87912l-.610302-2.37984h.655112l.58808 2.26801c.0674.26846.20743.40322.40887.40322h.64946c.20708 0 .35278-.13476.42016-.40322l.58208-2.26801h.65511z" fill="#1d2329"/><path d="m107.64829 208.89773c-.19614.17357-.41451.25717-.66075.25717h-1.2319v-.58772h1.2319c.0783 0 .15134-.0279.22401-.084.0727-.0617.11218-.12877.11218-.20708v-.15664c0-.19614-.11218-.29704-.33619-.29704h-1.93181c-.22437 0-.3362.1009-.3362.29704v1.49472c0 .084.0339.15134.10654.20743.0727.0614.1457.0896.22966.0896h2.82786v.58208h-2.82786c-.2466 0-.46461-.084-.66076-.25188-.19579-.17357-.29139-.38065-.29139-.62724v-1.49472c0-.26352.0956-.4706.28046-.63288.1845-.16228.40851-.24659.67169-.24659h1.93181c.26317 0 .48718.0843.67204.24094.1845.16228.2801.37501.2801.63853v.15664c0 .24059-.0956.44767-.29139.62159" fill="#1d2329"/><path d="m87.95161 208.86509c0 .21449-.173919.38841-.388408.38841s-.388761-.17392-.388761-.38841.174272-.38876.388761-.38876.388408.17427.388408.38876" fill="#1d2329"/><path d="m87.95161 207.62487c0 .21449-.173919.38841-.388408.38841s-.388761-.17392-.388761-.38841c0-.21484.174272-.38841.388761-.38841s.388408.17357.388408.38841" fill="#1d2329"/><path d="m89.243236 210.10518c0 .21449-.173919.38876-.388761.38876-.214136 0-.388056-.17427-.388056-.38876s.17392-.38841.388056-.38841c.214842 0 .388761.17392.388761.38841" fill="#1d2329"/><path d="m89.243236 208.86509c0 .21449-.173919.38841-.388761.38841-.214136 0-.388056-.17392-.388056-.38841s.17392-.38876.388056-.38876c.214842 0 .388761.17427.388761.38876" fill="#3875e1"/><g fill="#1d2329"><path d="m92.513979 209.61425-.01376.0564c-.155928.54505-.463198.81492-.931334.81492h-.426861c-.485422 0-.797278-.28998-.947914-.87524l-.608188-2.37031h.652638l.585611 2.25848c.06703.26811.206375.40181.407106.40181h.248356c.206375 0 .351366-.13229.418394-.40005 0 0 .152047-.46919.61595-.47484 0 0 .455436-.0441.611717.45579l.0063.0169"/><path d="m93.132117 209.49801c.06244.25929.218722.40217.419453.40217h.248355c.206375 0 .351014-.13371.418395-.40182l.579966-2.25813h.652287l-.613481 2.36996c-.150636.58561-.462844.8756-.947914.8756h-.426861c-.485069 0-.799747-.2921-.950383-.87771z"/><path d="m85.891564 208.11883c0-.0787-.03316-.14605-.105128-.20743-.07232-.0621-.144286-.0903-.227541-.0903h-2.395009v2.09444h2.395009c.221897 0 .332669-.0952.332669-.2921zm.338314 2.13924c-.183092.16299-.410633.24695-.670983.24695h-2.999317v-3.26778h2.999317c.244122 0 .460022.0843.65405.25823.194027.17427.288219.38206.288219.62336v1.5046c0 .25858-.08855.47166-.271286.63464"/><path d="m82.589917 211.37288h.950383v.14605h-.396169v.99201h-.164395v-.99201h-.389819z"/><path d="m83.66783 211.37288h.147814v.48472c.06209-.0759.139347-.1136.231422-.1136.05009 0 .0949.0123.134761.0374.03951.025.06915.0596.08855.10407.0194.0441.02893.10971.02893.19685v.42862h-.147814v-.46531c0-.055-.01376-.0991-.04057-.13265-.02716-.0335-.06279-.0504-.106892-.0504-.03281 0-.0635.008-.09243.0254-.02893.0169-.06103.0448-.09595.084v.53904h-.147821z"/><path d="m84.614015 212.05854h.377119c-.0035-.0593-.02152-.10513-.05292-.13723s-.07373-.0483-.127-.0483-.09701.0162-.130881.0483c-.03387.0321-.05609.078-.06632.13723m.523169.0896h-.527402c.0039.072.02787.12911.07232.1718.0441.0423.1016.0639.171803.0639.09772 0 .18803-.0307.27058-.0917v.14464c-.04551.0303-.09066.0519-.135466.0649-.0448.013-.09772.0194-.157692.0194-.0829 0-.149578-.0169-.20073-.0512-.05115-.0346-.09207-.0804-.122767-.13864-.03069-.0579-.04586-.12489-.04586-.20109 0-.1143.0321-.20743.09666-.27904.06491-.0716.148519-.10725.251883-.10725.09948 0 .178506.0349.237772.10478.05927.0699.0889.16333.0889.28081z"/><path d="m86.342026 211.51043c-.127706 0-.233186.0413-.316794.12382-.08326.0825-.124884.18662-.124884.31221 0 .12206.04198.22366.125942.30516.08361.0811.189089.1217.315736.1217.124883 0 .230364-.0416.315736-.12488.08572-.0829.128411-.18521.128411-.30692 0-.12453-.04198-.22754-.125941-.30903-.08396-.0815-.190148-.12206-.318206-.12206m.585964 1.07103-.163336.16052c-.05115-.002-.104422-.0116-.159809-.0272-.05539-.0155-.11183-.037-.16898-.0642s-.13335-.0741-.2286-.1397c-.137936-.025-.251883-.0907-.341489-.19721-.08961-.10653-.134056-.2293-.134056-.3683 0-.17003.0575-.31079.172862-.42227.115358-.11112.261408-.16686.43815-.16686.175683 0 .32138.0554.437797.1658.116416.11042.174272.24942.174272.41663 0 .14076-.04374.26423-.131939.37077-.08784.10654-.201789.17357-.341136.20144l.04304.0162c.133703.0515.230364.0772.289278.0772.03245 0 .07055-.007.113947-.0229"/><path d="m87.620669 212.51077v-.096c-.03175.0342-.06773.061-.108656.0801-.04057.0187-.08114.0282-.121708.0282-.04762 0-.09137-.0116-.131586-.0353-.03986-.0236-.0702-.0557-.09102-.0963-.02046-.0402-.03069-.1076-.03069-.20143v-.42969h.148166v.42792c0 .079.01129.13406.03422.1651.02258.0314.06244.0469.119591.0469.07126 0 .131939-.0346.181681-.10372v-.53622h.147814v.75036z"/><path d="m88.313313 212.36119v-.22331l-.09913.0385c-.05045.0201-.08608.0402-.107244.0607-.02081.0205-.03104.0459-.03104.0766 0 .031.0099.0564.02963.0762.01976.0194.04516.0293.07691.0293.04692 0 .09066-.0194.130881-.0579m.14605-.30339v.31891c0 .0254.0085.0381.02611.0381.01799 0 .04586-.013.08431-.0395v.091c-.03351.0212-.06068.0356-.08079.0434-.02046.008-.04163.0116-.06385.0116-.06315 0-.100542-.0247-.111831-.0737-.06315.049-.130528.0737-.202142.0737-.05256 0-.09596-.0173-.13088-.0519s-.05256-.078-.05256-.13017c0-.0473.01693-.0896.0508-.127.03422-.037.0822-.0667.144992-.0885l.189794-.0653v-.0402c0-.0914-.04516-.13688-.135114-.13688-.08079 0-.159455.0416-.236008.12489v-.16122c.0575-.0674.140405-.10125.248355-.10125.08079 0 .145698.0212.194734.0635.01623.0138.03069.0317.04374.0543s.02152.0452.0247.0677c.0035.0226.0056.0653.0056.12841"/><path d="m88.845126 211.76052v.0917c.06632-.0723.141464-.1083.225778-.1083.04657 0 .09031.012.130528.0363.04022.0243.07055.0575.09172.0998.02081.042.0314.10901.0314.20073v.43004h-.148167v-.42933c0-.0773-.01164-.13229-.03493-.1651-.02364-.0332-.06279-.0497-.117475-.0497-.0702 0-.129822.0349-.178858.10442v.53975h-.152047v-.75036z"/><path d="m89.422341 211.87916.2794-.27481v.15628h.237419v.13335h-.237419v.36724c0 .0857.03528.12876.106539.12876.05327 0 .109361-.0173.168628-.0522v.13758c-.05715.0321-.119239.048-.18662.048-.06773 0-.124178-.0197-.16898-.0596-.01411-.012-.02575-.0254-.03528-.0402-.0092-.0152-.01693-.0346-.02293-.0589-.0063-.024-.0095-.0702-.0095-.13793v-.33267h-.131233z"/><path d="m90.56594 212.51077v-.096c-.03175.0342-.06773.061-.108656.0801-.04057.0187-.08114.0282-.121708.0282-.04762 0-.09137-.0116-.131586-.0353-.04022-.0236-.07056-.0557-.09102-.0963-.02046-.0402-.03069-.1076-.03069-.20143v-.42969h.148166v.42792c0 .079.01129.13406.03422.1651.02258.0314.06244.0469.119591.0469.07126 0 .131939-.0346.181681-.10372v-.53622h.147814v.75036z"/><path d="m91.532305 211.96629v.54434h-.149931v-.41946c0-.0836-.01129-.14181-.03351-.17497-.02223-.0328-.06103-.0494-.116417-.0494-.03069 0-.05927.007-.08502.0219-.02575.0148-.05503.0406-.08819.0776v.54434h-.147814v-.75001h.147814v.0988c.07549-.0769.149578-.11571.221897-.11571.0949 0 .168628.0462.220839.13793.07902-.0917.161572-.13793.24765-.13793.07267 0 .132292.0268.179211.0801.04692.0533.0702.13476.0702.24412v.44274h-.147814v-.44592c0-.0624-.0127-.11041-.0381-.14393-.0254-.0332-.06209-.0497-.109714-.0497-.06103 0-.11818.0318-.171097.0952"/><path d="m93.670843 212.24612v.17921c-.119592.0653-.257528.0981-.414161.0981-.127 0-.23495-.0258-.323497-.0769-.08855-.0512-.15875-.12136-.210256-.21096-.0515-.09-.07761-.18698-.07761-.2914 0-.1658.05927-.30515.177447-.41839.118181-.11289.263878-.16969.437092-.16969.119592 0 .252236.0314.398639.0938v.17533c-.13335-.0765-.263172-.11465-.390525-.11465-.130175 0-.238478.0409-.324556.12347-.08608.0825-.129116.18591-.129116.30974 0 .12524.04233.22825.127.30868.08502.0804.193322.12065.325261.12065.137936 0 .272697-.0423.404283-.127"/><path d="m94.190908 211.89182c-.07091 0-.128764.0233-.174272.0702-.04551.0466-.06809.10584-.06809.17816 0 .0716.02328.13017.06985.17533.04621.0455.106186.0681.178858.0681.07267 0 .131939-.0229.178153-.0688.04621-.0459.06914-.10442.06914-.17639 0-.0709-.02399-.12982-.07197-.17639-.04833-.0469-.108656-.0702-.181681-.0702m.0078-.13335c.113595 0 .208139.0367.283281.11042.07514.0737.112536.16616.112536.27764 0 .1083-.0381.1979-.1143.26952-.0762.0716-.172156.10724-.28822.10724-.11183 0-.205316-.0363-.280458-.10901-.07549-.0723-.112889-.16298-.112889-.27164 0-.11006.03775-.20143.113947-.27446.07585-.073.17145-.10971.286103-.10971"/><path d="m95.373243 211.96629v.54434h-.149931v-.41946c0-.0836-.01129-.14181-.03351-.17497-.02222-.0328-.06103-.0494-.116417-.0494-.03069 0-.05927.007-.08502.0219-.02575.0148-.05503.0406-.08819.0776v.54434h-.147814v-.75001h.147814v.0988c.07549-.0769.149578-.11571.221897-.11571.0949 0 .168628.0462.220839.13793.07902-.0917.161572-.13793.24765-.13793.07267 0 .132292.0268.179211.0801.04692.0533.0702.13476.0702.24412v.44274h-.147814v-.44592c0-.0624-.0127-.11041-.0381-.14393-.0254-.0332-.06209-.0497-.109714-.0497-.06103 0-.11818.0318-.171097.0952"/><path d="m96.299638 211.90015h-.104775v.46002c.04551.024.09313.036.142875.036.0695 0 .125942-.024.170392-.0723.0441-.0483.06597-.11078.06597-.18662 0-.049-.01023-.0921-.0314-.12947-.02081-.0374-.04904-.0649-.08502-.0818-.03598-.0173-.0889-.0258-.158044-.0258m-.256822.99413v-1.13383h.259644c.132997 0 .236361.0332.310445.0995.07408.0663.111477.15875.111477.27799 0 .11254-.03493.20461-.104775.27693-.0695.0723-.158397.10831-.266347.10831-.04763 0-.100541-.0106-.158397-.0317v.40287z"/><path d="m97.362345 212.51077v-.096c-.03175.0342-.06773.061-.108656.0801-.04057.0187-.08114.0282-.121708.0282-.04762 0-.09137-.0116-.131586-.0353-.03986-.0236-.0702-.0557-.09066-.0963-.02046-.0402-.03104-.1076-.03104-.20143v-.42969h.148166v.42792c0 .079.01129.13406.03422.1651.02258.0314.06244.0469.119591.0469.07126 0 .131939-.0346.181681-.10372v-.53622h.147814v.75036z"/><path d="m97.615957 211.87916.2794-.27481v.15628h.237419v.13335h-.237419v.36724c0 .0857.03528.12876.106539.12876.05327 0 .109361-.0173.168628-.0522v.13758c-.05715.0321-.119239.048-.186267.048-.06809 0-.124531-.0197-.169333-.0596-.01411-.012-.02575-.0254-.03528-.0402-.0092-.0152-.01693-.0346-.02293-.0589-.0063-.024-.0095-.0702-.0095-.13793v-.33267h-.131233z"/><path d="m98.288775 211.76062h.147814v.75036h-.147814zm.07408-.31467c.02434 0 .04516.008.06244.025.01764.0169.02611.0374.02611.0621 0 .0236-.0085.0444-.02611.0617-.01729.0173-.0381.0261-.06244.0261-.02293 0-.04304-.009-.06033-.0265-.01764-.0176-.02611-.0381-.02611-.0614 0-.0229.0085-.043.02611-.0607.01729-.0176.0374-.0264.06033-.0264"/><path d="m98.796987 211.76052v.0917c.06632-.0723.141464-.1083.225778-.1083.04657 0 .09031.012.130528.0363.04022.0243.07055.0575.09172.0998.02081.042.0314.10901.0314.20073v.43004h-.148167v-.42933c0-.0773-.01164-.13229-.03493-.1651-.02328-.0332-.06279-.0497-.117475-.0497-.0702 0-.129822.0349-.178858.10442v.53975h-.152043v-.75036z"/><path d="m99.714562 211.8897c-.04022 0-.07444.0138-.103011.0409-.02822.0272-.04233.06-.04233.0981 0 .0388.01376.0706.04163.096s.0628.0381.105481.0381c.04163 0 .07655-.013.104775-.0388.02787-.0261.04198-.0582.04198-.097 0-.0392-.01411-.072-.04233-.0981s-.06385-.0392-.106186-.0392m-.03563.65722c-.05009 0-.09066.0106-.122413.0317-.03175.0212-.04762.0483-.04762.0815 0 .0769.0695.11535.208138.11535.06562 0 .116417-.01.1524-.0289.03598-.0194.05397-.0466.05397-.0819 0-.0346-.02258-.0628-.06809-.085-.04551-.0219-.104422-.0328-.176389-.0328m-.243063-.52669c0-.0801.02928-.14323.08749-.1898.05856-.0466.138289-.0699.239184-.0699h.309032v.11677h-.151341c.02928.0296.04974.0568.06138.0815.01129.0243.01693.0526.01693.084 0 .0392-.01129.0776-.03351.11535-.02223.0377-.0508.0667-.08608.0868-.03493.0201-.09243.0363-.172508.0483-.0568.008-.08502.0275-.08502.0579 0 .0173.01023.0317.0314.0427.02081.0113.05856.0229.113594.0346.09172.0205.150989.036.177448.0476.02646.0113.05009.0275.07161.0487.036.036.054.0811.054.13547 0 .0713-.0318.12805-.0949.17039-.06315.0423-.147814.0635-.253647.0635-.106892 0-.192264-.0212-.256117-.0639-.0635-.0427-.0956-.0998-.0956-.17181 0-.1016.06244-.16686.187325-.19649-.04974-.0321-.07479-.0639-.07479-.0952 0-.024.01058-.0459.03245-.0653.02117-.0197.05045-.0339.08678-.0434-.110067-.049-.1651-.12806-.1651-.23777"/><path d="m101.65212 212.24612v.17921c-.11959.0653-.25753.0981-.41416.0981-.127 0-.23495-.0258-.3235-.0769-.0886-.0512-.15875-.12136-.21025-.21096-.0519-.09-.0773-.18698-.0773-.2914 0-.1658.0589-.30515.17709-.41839.11818-.11289.26388-.16969.43709-.16969.1196 0 .25224.0314.39829.0938v.17533c-.133-.0765-.26282-.11465-.39017-.11465-.13018 0-.23848.0409-.32456.12347-.0861.0825-.12911.18591-.12911.30974 0 .12524.0423.22825.127.30868.085.0804.19332.12065.32526.12065.13793 0 .27269-.0423.40428-.127"/><path d="m102.17212 211.89182c-.0709 0-.12876.0233-.17427.0702-.0455.0466-.0681.10584-.0681.17816 0 .0716.0233.13017.0699.17533.0462.0455.10619.0681.17886.0681.0727 0 .13194-.0229.17815-.0688.0462-.0459.0691-.10442.0691-.17639 0-.0709-.024-.12982-.072-.17639-.0483-.0469-.10866-.0702-.18168-.0702m.008-.13335c.1136 0 .20814.0367.28328.11042.0751.0737.11254.16616.11254.27764 0 .1083-.0381.1979-.1143.26952-.0762.0716-.17216.10724-.28822.10724-.11183 0-.20532-.0363-.28046-.10901-.0755-.0723-.11289-.16298-.11289-.27164 0-.11006.0378-.20143.11395-.27446.0758-.073.17145-.10971.2861-.10971"/><path d="m103.35449 211.96629v.54434h-.14993v-.41946c0-.0836-.0113-.14181-.0335-.17497-.0222-.0328-.061-.0494-.11642-.0494-.0307 0-.0593.007-.085.0219-.0258.0148-.055.0406-.0882.0776v.54434h-.14817v-.75001h.14817v.0988c.0755-.0769.14957-.11571.22189-.11571.0949 0 .16863.0462.22084.13793.079-.0917.16157-.13793.248-.13793.0723 0 .13194.0268.17886.0801.0469.0533.0702.13476.0702.24412v.44274h-.14781v-.44592c0-.0624-.0127-.11041-.0381-.14393-.0254-.0332-.0621-.0497-.10971-.0497-.061 0-.11818.0318-.1711.0952"/><path d="m104.28088 211.90015h-.10477v.46002c.0455.024.0931.036.14287.036.0695 0 .12594-.024.17039-.0723.0441-.0483.066-.11078.066-.18662 0-.049-.0102-.0921-.0314-.12947-.0208-.0374-.049-.0649-.085-.0818-.036-.0173-.0889-.0258-.15804-.0258m-.25682.99413v-1.13383h.25964c.133 0 .23636.0332.3108.0995.0737.0663.11077.15875.11077.27799 0 .11254-.0346.20461-.10442.27693-.0695.0723-.1584.10831-.26635.10831-.0476 0-.10054-.0106-.15839-.0317v.40287z"/><path d="m105.20075 212.36119v-.22331l-.0991.0385c-.0508.0201-.0864.0402-.10724.0607-.0208.0205-.0314.0459-.0314.0766 0 .031.01.0564.03.0762.0198.0194.0452.0293.0769.0293.0469 0 .0907-.0194.13088-.0579m.1457-.30339v.31891c0 .0254.009.0381.0265.0381.018 0 .0459-.013.0843-.0395v.091c-.0339.0212-.0607.0356-.0808.0434-.0205.008-.0416.0116-.0639.0116-.0631 0-.10054-.0247-.11183-.0737-.0635.049-.13053.0737-.20214.0737-.0526 0-.096-.0173-.13088-.0519-.0353-.0346-.0526-.078-.0526-.13017 0-.0473.0169-.0896.0508-.127.0342-.037.0822-.0667.145-.0885l.18979-.0653v-.0402c0-.0914-.0452-.13688-.13511-.13688-.0808 0-.15946.0416-.23601.12489v-.16122c.0575-.0674.1404-.10125.24835-.10125.0808 0 .1457.0212.19474.0635.0162.0138.0307.0317.0437.0543s.0212.0452.0247.0677c.004.0226.005.0653.005.12841"/><path d="m105.73249 211.76052v.0917c.0663-.0723.14146-.1083.22578-.1083.0466 0 .0903.012.13053.0363.0402.0243.0705.0575.0917.0998.0208.042.0314.10901.0314.20073v.43004h-.14816v-.42933c0-.0773-.0116-.13229-.0349-.1651-.0233-.0332-.0628-.0497-.11747-.0497-.0702 0-.12982.0349-.17886.10442v.53975h-.15205v-.75036z"/><path d="m106.84473 211.76052h.16545l-.52846 1.13383h-.16545l.25259-.54187-.28822-.59196h.16898l.20038.42227z"/><path d="m107.58831 212.2065h-.0646v-.4251h.10407l.10725.33973.10371-.33973h.10195v.4251h-.0649v-.35666l-.10865.35666h-.0638l-.11501-.36266zm-.25188 0h-.0709v-.36477h-.13794v-.0603h.34819v.0603h-.13934z"/></g></g></svg>