<svg xmlns="http://www.w3.org/2000/svg" width="68" height="24" viewBox="0 0 68 24" fill="none">
  <path d="M2.15083 23.6172C2.40148 23.3788 2.5278 23.0822 2.5278 22.7338V1.26616C2.5278 0.918493 2.40081 0.621158 2.15083 0.38276C1.91148 0.133105 1.61295 0.00662205 1.2639 0.00662205C0.914849 0.00662205 0.615661 0.133105 0.376976 0.38276C0.126988 0.621158 0 0.918493 0 1.26616V22.7332C0 23.0815 0.126988 23.3782 0.376976 23.6166C0.615661 23.8656 0.914849 23.9921 1.2639 23.9921C1.61295 23.9921 1.91148 23.8656 2.15083 23.6166M21.8187 1.39065V1.339C21.8187 0.655593 21.2589 0.124496 20.6067 0.125159C20.5163 0.125159 20.4239 0.135092 20.3315 0.156945C18.16 0.658904 16.1674 1.75553 14.5518 3.36405C12.2733 5.63346 11.0187 8.65118 11.0187 11.8603C11.0187 13.0019 11.1823 14.135 11.4994 15.2217C11.7195 15.9759 12.5938 16.3229 13.2766 15.9302L13.3212 15.9044C13.8045 15.6263 14.0385 15.0561 13.883 14.5224C13.6323 13.6608 13.5027 12.7635 13.5027 11.8603C13.5027 9.31207 14.4993 6.91617 16.3084 5.11362C17.5862 3.84085 19.162 2.97136 20.8793 2.57138C21.4298 2.44291 21.8187 1.9542 21.8187 1.39131M29.2532 19.1539C27.5505 20.581 25.3731 21.4008 23.082 21.4008C20.38 21.4008 17.8336 20.2605 16.0404 18.3268C15.8064 18.0745 15.4826 17.9434 15.1548 17.9434C14.9454 17.9434 14.734 17.997 14.5425 18.1069L14.4993 18.1314C13.8231 18.5202 13.6842 19.4334 14.2141 20.0049C15.0046 20.8585 15.9188 21.5988 16.9267 22.1955C18.7817 23.2941 20.9099 23.8748 23.0813 23.8748C25.2528 23.8748 27.381 23.2941 29.2359 22.1955C29.811 21.8551 30.3549 21.4677 30.8635 21.0392C31.5084 20.4956 31.422 19.481 30.69 19.0599L30.6421 19.0327C30.1993 18.7778 29.6435 18.8255 29.2519 19.1532M34.9896 13.7741C35.092 13.143 35.1439 12.5026 35.1439 11.8589C35.1439 8.64985 33.8893 5.63214 31.6108 3.36273C29.9959 1.75355 28.0026 0.65758 25.8319 0.15562C25.7394 0.13443 25.647 0.123834 25.5566 0.123834C24.9044 0.123834 24.3446 0.654268 24.3446 1.33767V1.38933C24.3446 1.95221 24.7335 2.44092 25.284 2.56939C27.0007 2.97003 28.5764 3.83886 29.8549 5.11164C31.664 6.91353 32.6606 9.30942 32.6606 11.8583C32.6606 12.3602 32.6207 12.8609 32.5423 13.3536C32.4625 13.8535 32.6939 14.3509 33.134 14.6045L33.1799 14.631C33.9186 15.0555 34.8547 14.6118 34.991 13.7734M38.2481 20.3982C38.5845 19.8181 38.3844 19.0771 37.8027 18.742L27.8776 13.0344C27.6861 12.9238 27.4767 12.8715 27.2699 12.8715C26.8491 12.8715 26.4402 13.0887 26.2148 13.4781L26.1477 13.5933C25.8112 14.1734 26.0107 14.9144 26.5931 15.2495L36.5182 20.9571C37.1006 21.2922 37.8446 21.0935 38.181 20.5134L38.2481 20.3982ZM67.9973 22.7398V1.25755C67.9973 0.637051 67.6762 0.221842 67.0705 0.0576129C66.4761 -0.107279 65.9875 0.0874121 65.6564 0.623144L56.0877 16.3739L46.5183 0.621158C46.2644 0.210584 45.9173 0 45.5004 0C45.3754 0 45.2445 0.0192043 45.1075 0.0569505C44.5005 0.221842 44.1794 0.637051 44.1794 1.25755V22.7411C44.1794 23.0861 44.299 23.3868 44.5351 23.6351C44.5384 23.6391 44.5424 23.6424 44.5457 23.6457C44.795 23.8808 45.0975 24 45.4439 24C45.7903 24 46.0762 23.8808 46.3255 23.6464C46.3295 23.6424 46.3328 23.6391 46.3368 23.6351C46.5729 23.3861 46.6919 23.0855 46.6919 22.7411V5.75332L55.0106 19.4393C55.0239 19.4718 55.0438 19.5009 55.0691 19.5267C55.0758 19.5334 55.0871 19.5459 55.1024 19.5685C55.1123 19.583 55.1236 19.5963 55.1356 19.6089C55.1582 19.6314 55.1808 19.6539 55.2008 19.6737C55.2234 19.6969 55.246 19.7194 55.2692 19.742C55.2812 19.7539 55.2952 19.7651 55.3098 19.7744C55.3324 19.7896 55.345 19.8002 55.3517 19.8069C55.3676 19.8227 55.3856 19.836 55.4042 19.8479C55.4095 19.8512 55.4148 19.8539 55.4202 19.8572C55.4561 19.8863 55.4993 19.9068 55.5465 19.9155C55.5711 19.928 55.5964 19.9393 55.6216 19.9486C55.6515 19.9625 55.6848 19.9757 55.722 19.987C55.7646 20.0015 55.8084 20.0108 55.8523 20.0155C55.8816 20.0241 55.9128 20.03 55.9454 20.0327C56.0405 20.0572 56.1395 20.0572 56.2346 20.0327C56.2672 20.03 56.2984 20.0241 56.3277 20.0155C56.3716 20.0108 56.4148 20.0015 56.4567 19.9876C56.4946 19.9751 56.5278 19.9625 56.5584 19.9479C56.5936 19.9353 56.6282 19.9188 56.6621 19.8996C56.6967 19.889 56.7346 19.8724 56.7752 19.8479C56.7951 19.836 56.8137 19.8221 56.8297 19.8055C56.8343 19.8009 56.8456 19.7903 56.8702 19.7744C56.8849 19.7645 56.8988 19.7532 56.9114 19.7406L57.0431 19.6095C57.0564 19.5963 57.0677 19.5824 57.0777 19.5671C57.0923 19.5459 57.1023 19.534 57.1089 19.5274C57.1348 19.5022 57.1548 19.4718 57.1687 19.4393L65.4875 5.75332V22.7411C65.4875 23.0861 65.6072 23.3868 65.8432 23.6351C65.8465 23.6391 65.8505 23.6424 65.8538 23.6457C66.1031 23.8808 66.3997 24 66.7354 24C67.0712 24 67.383 23.8795 67.6224 23.6404C67.873 23.3914 68 23.0881 68 22.7405" fill="CurrentColor"></path>
</svg>