<?xml version="1.0" encoding="UTF-8"?>
<!-- Generator: Adobe Illustrator 27.2.0, SVG Export Plug-In . SVG Version: 6.00 Build 0)  -->
<svg xmlns="http://www.w3.org/2000/svg" xmlns:xlink="http://www.w3.org/1999/xlink" version="1.1" id="Layer_1" fill="#111" x="0px" y="0px" viewBox="0 0 437.944 435.632" xml:space="preserve">
<path d="M215.373,432.218c-0.342-0.067-0.683-0.186-1.026-0.193c-19.519-0.401-38.629-3.417-57.315-9.062  c-31.491-9.514-59.337-25.459-83.499-47.769c-29.634-27.363-50.216-60.395-61.464-99.177c-3.692-12.729-6.088-25.715-7.339-38.916  c-1.271-13.41-1.339-26.824-0.149-40.234c2.279-25.677,8.893-50.187,19.985-73.469C34.322,102.921,47,84.435,62.62,68.002  C91.561,37.553,126.32,16.976,167.093,6.711c15.511-3.905,31.278-5.997,47.276-6.3c0.256-0.005,0.51-0.126,0.764-0.192  c2.878,0,5.757,0,8.635,0c0.34,0.067,0.679,0.186,1.02,0.193c14.304,0.273,28.435,2.011,42.382,5.165  c33.634,7.608,63.776,22.406,90.199,44.557c33.965,28.474,57.347,63.968,69.664,106.633c4.416,15.295,6.96,30.918,7.876,46.818  c0.641,11.118,0.491,22.219-0.597,33.292c-4.127,42.001-19.111,79.687-45.226,112.855c-19.003,24.135-42.108,43.416-69.283,57.758  c-18.986,10.02-39.051,16.971-60.156,20.908c-11.607,2.165-23.307,3.423-35.116,3.628c-0.256,0.004-0.509,0.126-0.764,0.192  C220.97,432.218,218.172,432.218,215.373,432.218z M424.258,216.306C424.111,103.235,332.797,12.19,221.062,11.397  C107.338,10.591,15.803,102.49,14.797,214.269c-1.022,113.529,90.625,206.115,203.453,206.777  C331.592,421.711,424.049,329.857,424.258,216.306z"/>
<path d="M115.709,183.445c0.063,16.092-13.64,30.787-31.917,30.399c-15.285-0.325-29.022-14.329-29.01-30.19  c0.013-17.035,13.693-30.687,30.738-30.676C101.723,152.988,115.711,167.105,115.709,183.445z M105.187,184.089  c0.333-10.309-7.546-19.776-18.343-20.617c-11.146-0.868-20.791,7.357-21.586,18.37c-0.8,11.076,7.081,21.075,19.087,21.57  C95.662,203.878,104.83,195.173,105.187,184.089z"/>
<path d="M285.296,197.554c2.324,2.411,4.647,4.822,6.965,7.228c-5.404,6.553-16.92,11.044-28.657,7.997  c-12.56-3.261-21.873-14.292-22.862-26.614c-1.168-14.55,7.437-26.239,18.748-30.898c12.196-5.023,25.455-1.57,32.825,6.552  c-2.329,2.424-4.667,4.858-7.072,7.36c-4.561-4.399-10.013-6.369-16.29-5.7c-5.081,0.542-9.383,2.803-12.79,6.623  c-6.964,7.809-6.849,19.038,0.294,26.798C263.47,204.518,276.395,206.143,285.296,197.554z"/>
<path d="M357.076,175.827c-3.806,7.574-7.496,14.92-11.187,22.264c-2.492,4.957-4.974,9.919-7.501,14.858  c-0.192,0.376-0.708,0.825-1.081,0.831c-3.474,0.064-6.949,0.038-10.663,0.038c10.16-20.332,20.253-40.531,30.476-60.989  c10.207,20.424,20.294,40.609,30.479,60.99c-2.623,0-5.04,0.008-7.457-0.003c-1.316-0.006-2.908,0.403-3.871-0.192  c-0.962-0.594-1.313-2.199-1.902-3.376c-5.525-11.028-11.044-22.059-16.567-33.088C357.609,176.777,357.393,176.408,357.076,175.827  z"/>
<path d="M152.398,152.898c2.269,0,4.263,0,6.256,0c6.916,0,13.831-0.011,20.747,0.003c9.544,0.018,18.154,7.408,19.626,16.824  c1.437,9.193-3.028,17.787-11.381,21.909c-0.211,0.104-0.42,0.211-0.769,0.387c4.126,7.232,8.227,14.42,12.436,21.797  c-2.712,0-5.239-0.233-7.705,0.059c-3.04,0.36-4.637-0.783-6.105-3.463c-4.833-8.826-9.994-17.473-15.027-26.19  c-0.154-0.266-0.289-0.543-0.473-0.889c2.689,0,5.268-0.049,7.843,0.01c5.005,0.116,8.996-2.352,10.619-6.642  c2.406-6.358-2.464-13.466-9.315-13.516c-6.396-0.047-12.792-0.051-19.187,0.024c-1.266,0.015-1.915-0.414-2.498-1.485  C155.886,158.827,154.185,155.991,152.398,152.898z"/>
<path d="M369.647,269.218c0-2.103,0-4.018,0-6.006c5.897,0,11.755,0,17.605,0c1.702,8.057-3.461,16.697-11.611,19.483  c-8.574,2.931-18.029-0.897-21.85-8.847c-3.981-8.282-1.223-18.2,6.42-22.994c7.625-4.783,17.027-2.916,21.971,2.467  c-1.344,1.435-2.694,2.878-4.108,4.388c-2.418-2.278-5.192-3.529-8.477-3.445c-2.722,0.07-5.154,0.946-7.291,2.654  c-3.855,3.082-5.29,8.638-3.429,13.357c1.814,4.601,6.684,7.72,11.445,7.329c5.137-0.421,9.495-3.839,10.526-8.387  c-1.89,0-3.747,0-5.604,0C373.415,269.218,371.585,269.218,369.647,269.218z"/>
<path d="M173.761,283.316c-1.941,0-3.802,0-5.819,0c0-6.884,0-13.729,0-20.929c-3.962,4.146-7.676,8.032-11.525,12.06  c-4.109-4.26-7.868-8.156-11.626-12.053c-0.136,0.088-0.271,0.176-0.407,0.264c0,6.844,0,13.688,0,20.626c-2.029,0-3.919,0-5.888,0  c0-11.65,0-23.274,0-34.684c5.66,5.664,11.447,11.454,17.493,17.504c6.06-6.191,11.805-12.059,17.773-18.156  C173.761,259.941,173.761,271.555,173.761,283.316z"/>
<path d="M111.809,248.099c9.813,0.005,17.667,8.007,17.652,17.986c-0.014,9.611-7.99,17.379-17.837,17.373  c-9.852-0.006-17.63-7.813-17.623-17.687C94.009,255.934,101.908,248.094,111.809,248.099z M123.305,265.84  c0.003-6.425-5.16-11.666-11.49-11.662c-6.502,0.004-11.727,5.134-11.776,11.562c-0.049,6.47,5.125,11.676,11.607,11.679  C118.191,277.422,123.301,272.347,123.305,265.84z"/>
<path d="M313.605,248.093c7.814,7.003,15.475,13.871,23.314,20.896c0-7.026,0-13.861,0-20.773c2.076,0,4.007,0,6.001,0  c0,11.732,0,23.432,0,35.367c-7.786-7.004-15.454-13.903-23.352-21.007c0,7.091,0,13.919,0,20.814c-2.075,0-3.976,0-5.963,0  C313.605,271.708,313.605,260.048,313.605,248.093z"/>
<path d="M188.85,271.858c0,3.944,0,7.692,0,11.519c-2.026,0-3.961,0-5.977,0c0-11.752,0-23.484,0-35.276  c0.105-0.041,0.246-0.146,0.386-0.145c6.228,0.042,12.466-0.105,18.682,0.201c5.819,0.286,10.337,5.494,10.434,11.453  c0.101,6.167-4.226,11.52-10.086,12.028c-3.887,0.337-7.817,0.165-11.728,0.219C190.05,271.864,189.538,271.858,188.85,271.858z   M188.939,265.664c3.933,0,7.799,0.068,11.661-0.021c3.303-0.076,5.732-2.685,5.683-5.892c-0.047-3.03-2.705-5.547-5.905-5.571  c-3.076-0.023-6.152-0.029-9.228-0.042c-0.738-0.003-1.475,0-2.211,0C188.939,258.077,188.939,261.82,188.939,265.664z"/>
<path d="M221.371,248.148c2.047,0,3.951,0,5.973,0c0.022,0.404,0.058,0.787,0.06,1.17c0.03,6.315,0.15,12.632,0.055,18.946  c-0.08,5.29,4.118,8.986,8.573,9.108c4.861,0.133,8.759-3.761,8.825-8.956c0.079-6.276,0.02-12.553,0.021-18.83  c0-0.475,0-0.95,0-1.497c2.025,0,3.965,0,6.036,0c0,0.444,0,0.833,0,1.222c0,6.517,0.009,13.033-0.002,19.55  c-0.014,8.115-6.46,14.665-14.427,14.677c-8.567,0.012-15.078-6.279-15.108-14.637c-0.024-6.555-0.005-13.111-0.005-19.667  C221.371,248.919,221.371,248.603,221.371,248.148z"/>
<path d="M85.062,253.44c-1.482,1.294-2.927,2.556-4.477,3.908c-2.761-2.549-6.273-3.71-10.323-2.905  c-2.769,0.55-5.026,1.963-6.787,4.18c-3.59,4.519-3.428,10.701,0.444,14.938c2.234,2.445,5.027,3.762,8.348,3.886  c3.28,0.123,6.077-1.074,8.342-3.154c1.489,1.393,2.906,2.718,4.316,4.037c-5.046,5.991-16.408,7.719-24.239,0.675  c-7.652-6.884-7.92-18.71-0.577-25.843C67.768,245.723,79.315,246.938,85.062,253.44z"/>
<path d="M289.482,248.212c0,1.978,0,3.881,0,5.884c-3.868,0-7.688,0-11.659,0c0,9.864,0,19.63,0,29.479c-2.083,0-4.018,0-6.095,0  c0-9.764,0-19.529,0-29.398c-3.957,0-7.775,0-11.685,0c0-2.031,0-3.96,0-5.965C269.812,248.212,279.58,248.212,289.482,248.212z"/>
<path d="M298.642,248.172c1.985,0,3.858,0,5.826,0c0,11.762,0,23.499,0,35.341c-1.897,0-3.823,0-5.826,0  C298.642,271.757,298.642,260.02,298.642,248.172z"/>
</svg>