<?xml version="1.0" encoding="UTF-8" standalone="no"?>
<!-- Generator: Adobe Illustrator 26.5.0, SVG Export Plug-In . SVG Version: 6.00 Build 0)  -->

<svg
   version="1.0"
   id="katman_1"
   x="0px"
   y="0px"
   viewBox="0 0 943.98995 153.83999"
   xml:space="preserve"
   sodipodi:docname="psiquantum.svg"
   width="943.98999"
   height="153.84"
   inkscape:version="1.3.2 (091e20ef0f, 2023-11-25)"
   xmlns:inkscape="http://www.inkscape.org/namespaces/inkscape"
   xmlns:sodipodi="http://sodipodi.sourceforge.net/DTD/sodipodi-0.dtd"
   xmlns="http://www.w3.org/2000/svg"
   xmlns:svg="http://www.w3.org/2000/svg"><defs
   id="defs13" /><sodipodi:namedview
   id="namedview13"
   pagecolor="#ffffff"
   bordercolor="#000000"
   borderopacity="0.25"
   inkscape:showpageshadow="2"
   inkscape:pageopacity="0.0"
   inkscape:pagecheckerboard="0"
   inkscape:deskcolor="#d1d1d1"
   inkscape:zoom="0.77817105"
   inkscape:cx="743.40982"
   inkscape:cy="280.7866"
   inkscape:window-width="3840"
   inkscape:window-height="2059"
   inkscape:window-x="0"
   inkscape:window-y="0"
   inkscape:window-maximized="1"
   inkscape:current-layer="katman_1" />
<g
   id="g13"
   transform="translate(-123,-343.58)">
	<path
   d="m 379.7,398.56 c 0,4.95 -0.94,9.67 -2.6,13.68 -1.66,4.01 -4.01,7.55 -7.31,10.62 -3.3,3.07 -7.55,5.19 -12.5,6.84 -4.95,1.65 -10.62,2.36 -17.22,2.36 h -12.5 V 454 c 1.65,0.24 3.3,0.47 4.25,0.71 0.94,0.24 3.07,0.47 3.07,0.47 2.36,0.47 3.54,1.89 3.54,4.48 v 8.26 H 327.8 308.92 298.3 v -8.26 c 0,-2.36 1.18,-3.78 3.54,-4.48 0,0 1.89,-0.47 3.07,-0.47 0.94,-0.24 2.6,-0.47 4.25,-0.71 v -73.85 c -1.65,-0.24 -3.3,-0.47 -4.25,-0.71 -0.94,-0.24 -3.07,-0.47 -3.07,-0.47 -2.36,-0.47 -3.54,-1.89 -3.54,-4.48 V 366 h 10.62 31.14 c 6.84,0 12.74,0.94 17.7,2.36 4.95,1.65 8.97,4.01 12.27,6.84 3.3,2.83 5.66,6.13 7.08,10.15 1.89,4.01 2.59,8.49 2.59,13.21 m -18.87,0 c 0,-2.6 -0.47,-5.19 -1.18,-7.31 -0.94,-2.36 -2.12,-4.01 -3.78,-5.66 -1.65,-1.65 -3.78,-2.6 -6.37,-3.54 -2.6,-0.94 -5.66,-1.18 -9.2,-1.18 h -12.5 v 36.57 h 12.27 c 3.54,0 6.61,-0.47 9.2,-1.18 2.6,-0.94 4.72,-1.89 6.37,-3.78 1.65,-1.65 3.07,-3.54 3.78,-5.9 0.94,-2.36 1.41,-5.19 1.41,-8.02"
   id="path1" />
	<path
   d="m 432.55,445.04 c 0,3.54 -0.71,6.84 -1.89,9.67 -1.18,3.07 -3.07,5.43 -5.43,7.55 -2.36,2.12 -5.43,3.78 -8.97,4.95 -3.54,1.18 -7.79,1.89 -12.5,1.89 -8.97,0 -17.7,-1.89 -22.89,-4.01 v -7.08 -13.45 h 2.36 5.66 c 1.89,0 2.83,0.94 3.3,2.6 0.24,0.71 0.47,2.6 0.94,8.26 3.78,1.18 8.26,1.18 11.33,1.18 2.12,0 4.01,-0.24 5.43,-0.71 1.65,-0.47 2.6,-1.18 3.78,-1.89 0.94,-0.94 1.65,-1.65 2.12,-2.6 0.47,-1.18 0.47,-2.36 0.47,-3.3 0,-1.65 -0.47,-3.07 -1.42,-4.01 -0.94,-1.18 -2.36,-1.89 -4.01,-2.83 -1.65,-0.94 -3.54,-1.65 -5.66,-2.12 -2.12,-0.71 -4.48,-1.42 -6.61,-2.12 -2.36,-0.71 -4.48,-1.65 -6.37,-2.6 -2.12,-0.94 -4.01,-2.36 -5.66,-3.78 -1.65,-1.65 -3.07,-3.3 -4.01,-5.66 -0.94,-2.36 -1.65,-4.95 -1.65,-8.26 0,-3.07 0.47,-5.66 1.65,-8.49 1.18,-2.6 3.07,-5.19 5.19,-7.08 2.36,-1.89 5.19,-3.78 8.49,-4.72 3.3,-1.18 7.08,-1.89 11.8,-1.89 7.08,0 10.85,0.71 21,3.78 v 20.53 h -2.36 -5.9 c -1.89,0 -2.83,-0.94 -3.3,-2.6 -0.24,-0.71 -0.47,-2.36 -0.94,-7.79 -1.89,-0.47 -5.19,-0.94 -8.49,-0.94 -3.3,0 -6.13,0.71 -8.02,2.12 -1.89,1.42 -3.07,3.3 -3.07,5.66 0,1.65 0.47,2.83 1.65,4.01 0.94,1.18 2.36,1.89 4.01,2.6 1.65,0.94 3.54,1.65 5.66,2.36 2.12,0.47 4.25,1.18 6.37,1.89 2.36,0.71 4.48,1.65 6.61,2.6 2.12,0.94 4.01,2.12 5.66,3.78 1.65,1.42 3.07,3.07 4.01,5.19 1.19,1.88 1.66,4.24 1.66,7.31"
   id="path2" />
	<path
   d="m 476.2,459.67 v 8.26 h -10.62 -17.22 -10.62 v -8.26 c 0,-2.36 1.18,-3.78 3.54,-4.48 0.24,0 1.89,-0.47 3.07,-0.47 0.94,-0.24 2.6,-0.47 4.25,-0.71 v -44.36 c -1.65,-0.24 -3.3,-0.47 -4.25,-0.71 -0.95,-0.24 -2.83,-0.47 -3.07,-0.47 -2.36,-0.47 -3.54,-1.89 -3.54,-4.48 v -8.26 h 10.62 17.22 V 454 c 1.65,0.24 3.3,0.47 4.25,0.71 0.95,0.24 2.83,0.47 3.07,0.47 2.12,0.71 3.3,2.13 3.3,4.49"
   id="path3" />
	<path
   d="m 468.18,374.49 c 0,6.13 -4.95,11.09 -11.09,11.09 -6.13,0 -11.09,-4.95 -11.09,-11.09 0,-6.13 4.95,-11.09 11.09,-11.09 6.14,0 11.09,4.96 11.09,11.09"
   id="path4" />
	<path
   d="m 580.25,431.59 c -0.94,4.25 -2.36,8.26 -4.25,12.03 -1.89,3.78 -4.01,6.84 -6.61,9.91 -2.6,3.07 -5.66,5.66 -8.97,7.79 l 25.95,27.84 h -11.33 c -1.65,0 -3.07,0 -4.48,-0.47 -1.42,-0.47 -2.36,-1.42 -3.54,-2.6 l -17.7,-19.35 c -2.6,0.94 -5.43,1.42 -8.26,1.89 -2.83,0.47 -5.9,0.94 -8.97,0.94 -7.31,0 -14.16,-1.42 -20.29,-4.01 -6.13,-2.59 -11.33,-6.13 -15.81,-10.62 -4.48,-4.48 -7.79,-9.91 -10.15,-16.28 -2.36,-6.37 -3.78,-13.21 -3.78,-20.76 0,-7.55 1.18,-14.63 3.78,-20.76 2.36,-6.37 5.66,-11.8 10.15,-16.28 4.48,-4.48 9.67,-8.26 15.81,-10.62 6.13,-2.6 12.98,-3.78 20.29,-3.78 7.31,0 14.16,1.18 20.29,3.78 6.13,2.6 11.33,6.13 15.81,10.62 4.48,4.48 7.79,9.91 10.15,16.28 2.36,6.37 3.54,13.21 3.54,20.76 -0.21,-0.47 -0.68,9.44 -1.63,13.69 m -15.1,-30.44 c -1.65,-4.95 -4.25,-8.97 -7.31,-12.5 -3.07,-3.3 -6.84,-6.13 -11.33,-7.79 -4.48,-1.89 -9.2,-2.6 -14.63,-2.6 -5.43,0 -10.38,0.94 -14.86,2.6 -4.48,1.89 -8.26,4.48 -11.33,7.79 -3.07,3.3 -5.43,7.55 -7.08,12.5 -1.65,4.95 -2.6,10.62 -2.6,16.75 0,6.13 0.94,11.8 2.6,16.75 1.65,4.95 4.01,8.97 7.08,12.5 3.07,3.3 6.84,6.13 11.33,7.79 4.48,1.89 9.44,2.6 14.86,2.6 5.43,0 10.38,-0.94 14.86,-2.6 4.48,-1.89 8.26,-4.48 11.33,-7.79 3.07,-3.3 5.43,-7.55 7.08,-12.5 1.65,-4.95 2.6,-10.62 2.6,-16.75 0,-6.13 -0.94,-11.79 -2.6,-16.75"
   id="path5" />
	<path
   d="m 622.49,459.19 c 7.08,0 13.45,-3.3 19.35,-9.91 v -42.23 c -0.94,-0.24 -3.54,-0.94 -8.02,-1.65 -1.42,-0.24 -2.12,-1.18 -2.12,-2.6 v -6.13 h 10.15 12.5 v 61.11 c 4.48,0.94 7.08,1.42 8.02,1.65 1.42,0.24 2.12,1.18 2.12,2.6 v 6.13 h -17.7 c -1.65,0 -2.83,-0.94 -3.3,-2.6 l -0.94,-7.55 c -6.84,7.55 -14.63,11.33 -23.59,11.33 -7.55,0 -13.45,-2.6 -17.7,-7.55 -4.01,-4.72 -6.13,-11.09 -6.13,-19.58 v -35.16 c -4.48,-0.94 -7.08,-1.42 -7.79,-1.65 -1.42,-0.24 -2.36,-1.18 -2.36,-2.6 v -5.9 h 22.89 v 45.3 c 0,5.43 1.18,9.67 3.78,12.74 2.11,2.84 5.88,4.25 10.84,4.25"
   id="path6" />
	<path
   d="m 732.44,461.55 v 6.13 h -9.2 -0.94 -4.48 c -1.18,0 -2.12,-0.24 -3.07,-0.47 -0.94,-0.24 -1.18,-1.18 -1.42,-2.36 l -1.42,-6.84 c -1.89,1.65 -4.01,3.3 -5.66,4.72 -1.65,1.42 -3.78,2.6 -5.66,3.3 -1.89,0.94 -4.01,1.65 -6.13,2.12 -2.36,0.47 -4.72,0.71 -7.55,0.71 -2.83,0 -5.19,-0.47 -7.55,-1.18 -2.36,-0.94 -4.72,-1.89 -6.37,-3.3 -1.65,-1.65 -3.07,-3.54 -4.25,-5.9 -1.18,-2.36 -1.65,-5.19 -1.65,-8.49 0,-2.83 0.71,-5.66 2.36,-8.26 1.65,-2.6 4.25,-5.19 7.55,-7.08 3.3,-1.89 7.79,-3.78 13.45,-5.19 5.66,-1.18 12.5,-1.89 20.53,-1.89 v -5.43 c 0,-5.66 -1.18,-9.91 -3.78,-12.74 -2.36,-2.83 -5.9,-4.48 -10.62,-4.48 -3.07,0 -5.66,0.47 -7.79,1.18 -2.12,0.94 -3.78,1.65 -5.43,2.6 -1.65,0.94 -3.07,1.65 -4.01,2.6 -1.18,0.94 -2.12,1.18 -3.3,1.18 -0.94,0 -1.65,-0.24 -2.36,-0.47 -0.47,-0.47 -1.18,-1.18 -1.42,-1.65 l -2.36,-4.01 c 4.01,-3.78 8.26,-6.37 12.74,-8.49 4.48,-1.89 9.67,-2.83 15.34,-2.83 4.01,0 7.55,0.47 10.62,1.89 3.07,1.42 5.66,3.07 7.79,5.43 2.12,2.36 3.78,5.19 4.72,8.49 1.18,3.3 1.65,7.08 1.65,11.09 v 35.63 c 1.89,0.47 6.61,1.42 7.08,1.65 0.93,0.22 2.59,1.16 2.59,2.34 m -21.71,-25.71 c -5.66,0 -10.62,0.24 -14.63,0.94 -4.01,0.7 -7.31,1.89 -9.91,3.07 -2.6,1.18 -4.48,2.6 -5.66,4.25 -1.18,1.65 -1.65,3.3 -1.65,5.43 0,1.89 0.47,3.3 0.94,4.72 0.47,1.42 1.42,2.6 2.6,3.3 1.18,0.94 2.36,1.42 3.78,1.89 1.42,0.47 3.07,0.71 4.72,0.71 2.36,0 4.01,-0.24 5.9,-0.71 1.89,-0.47 3.54,-0.94 5.19,-1.89 1.65,-0.94 3.3,-1.89 4.72,-3.07 1.42,-1.18 2.83,-2.6 4.25,-4.01 v -14.63 z"
   id="path7" />
	<path
   d="m 758.63,406.82 c 7.08,-7.55 14.86,-11.33 23.59,-11.33 7.55,0 13.45,2.36 17.7,7.55 4.01,4.72 6.13,11.33 6.13,19.58 v 35.16 c 4.48,0.94 7.08,1.42 8.02,1.65 1.42,0.24 2.36,1.18 2.36,2.6 v 6.13 h -22.89 v -45.54 c 0,-11.33 -4.95,-17.22 -14.86,-17.22 -7.08,0 -13.45,3.3 -19.35,9.91 v 42.23 c 0.24,0 3.07,0.47 8.26,1.65 1.42,0.24 2.12,1.18 2.12,2.6 v 5.9 h -32.8 v -5.9 c 0,-1.42 0.47,-2.36 1.89,-2.6 l 8.26,-1.65 v -50.49 c -4.48,-0.94 -7.31,-1.42 -8.26,-1.65 -1.42,-0.24 -1.89,-1.18 -1.89,-2.6 v -5.9 h 10.15 7.31 c 1.65,0 2.83,0.94 3.3,2.6 z"
   id="path8" />
	<path
   d="m 829.64,464.39 c -3.07,-3.07 -4.48,-7.55 -4.48,-13.45 v -43.89 h -8.49 c -0.94,0 -1.42,-0.24 -1.89,-0.47 -0.47,-0.47 -0.71,-1.18 -0.71,-2.12 v -4.95 l 11.8,-1.65 2.83,-22.18 c 0,-0.71 0.24,-1.18 0.94,-1.65 0.47,-0.47 1.18,-0.47 1.89,-0.47 h 6.37 v 24.54 h 20.53 v 9.2 H 837.9 v 42.94 c 0,3.07 0.71,5.43 2.12,6.84 1.41,1.41 3.54,2.12 5.66,2.12 1.42,0 2.6,-0.24 3.54,-0.47 0.94,-0.24 1.89,-0.71 2.6,-1.18 0.71,-0.47 1.65,-0.94 1.65,-0.94 0,0 1.18,-0.71 1.42,-0.71 0.47,0 1.18,0.24 1.65,1.18 l 3.78,5.9 c -2.36,1.89 -4.72,3.78 -7.79,4.72 -3.07,1.18 -6.13,1.65 -9.44,1.65 -6.13,-0.25 -10.38,-1.9 -13.45,-4.96"
   id="path9" />
	<path
   d="m 901.61,459.19 c 7.08,0 13.45,-3.3 19.35,-9.91 v -42.23 c -0.94,-0.24 -3.54,-0.94 -8.02,-1.65 -1.42,-0.24 -2.12,-1.18 -2.12,-2.6 v -6.13 h 10.15 12.5 v 61.11 c 4.48,0.94 7.08,1.42 8.02,1.65 1.42,0.24 2.12,1.18 2.12,2.6 v 6.13 h -17.7 c -1.65,0 -3.3,-1.65 -3.3,-2.6 -0.24,-0.94 -0.94,-7.55 -0.94,-7.55 -6.84,7.55 -14.63,11.33 -23.59,11.33 -7.55,0 -13.45,-2.6 -17.7,-7.55 -4.01,-4.72 -6.13,-11.09 -6.13,-19.58 v -35.16 c -4.48,-0.94 -7.08,-1.42 -7.79,-1.65 -1.42,-0.24 -2.36,-1.18 -2.36,-2.6 v -5.9 h 22.89 v 45.3 c 0,5.43 1.18,9.67 3.78,12.74 2.11,2.84 5.88,4.25 10.84,4.25"
   id="path10" />
	<path
   d="m 971.92,406.82 c 5.9,-7.31 12.74,-11.09 20.05,-11.09 4.72,0 8.97,1.42 11.8,4.01 3.07,2.6 5.19,6.37 6.37,10.85 1.89,-4.95 4.95,-8.73 9.2,-11.33 4.01,-2.36 8.02,-3.78 12.5,-3.78 4.48,0 8.02,0.71 11.09,1.89 3.07,1.18 5.66,3.07 7.55,5.19 4.25,4.72 6.13,11.33 6.13,20.05 v 35.16 c 4.48,0.94 7.31,1.42 8.26,1.65 1.42,0.24 2.12,1.18 2.12,2.6 v 6.13 h -22.65 v -45.3 c 0,-5.66 -1.18,-9.91 -3.78,-12.74 -2.6,-2.83 -6.13,-4.48 -10.62,-4.48 -4.25,0 -7.79,1.42 -10.62,4.25 -3.07,3.07 -4.72,7.31 -4.72,12.74 v 35.16 c 0.94,0.24 3.54,0.94 8.02,1.65 1.42,0.24 2.12,1.18 2.12,2.6 v 6.13 h -22.65 v -45.54 c 0,-11.33 -4.48,-16.99 -13.45,-16.99 -5.9,0 -11.09,3.07 -15.81,9.2 v 42.94 c 0,0 7.55,1.42 8.02,1.65 1.42,0.24 2.12,1.18 2.12,2.6 v 5.9 h -32.8 v -5.9 c 0,-1.42 0.47,-2.36 1.89,-2.6 l 8.26,-1.65 v -50.73 c -4.48,-0.94 -7.31,-1.42 -8.26,-1.65 -1.42,-0.24 -1.89,-1.18 -1.89,-2.6 v -5.9 h 10.15 7.31 c 1.65,0 2.83,0.94 3.3,2.6 z"
   id="path11" />
	<path
   d="M 271.17,497.42 H 123 V 343.58 H 271.17 Z M 128.9,491.52 H 265.27 V 349.48 H 128.9 Z"
   id="path12" />
	<path
   d="m 247.34,383.93 h -2.36 c -2.6,0 -4.48,0.71 -5.43,2.36 -0.94,1.65 -1.42,5.19 -1.42,10.62 v 13.68 c 0,8.49 -2.83,15.1 -8.49,19.35 -5.66,4.48 -13.92,6.84 -25.01,7.31 v 12.5 c 0,4.25 0.71,7.08 2.36,8.73 1.65,1.42 4.95,2.36 9.67,2.36 l -0.24,2.6 h -37.75 v -2.6 c 4.95,0 8.26,-0.94 9.91,-2.36 1.65,-1.42 2.36,-4.25 2.36,-8.73 v -12.27 c -11.09,-0.47 -19.58,-2.83 -25.25,-7.31 -5.67,-4.48 -8.26,-10.85 -8.26,-19.35 v -13.68 c 0,-5.66 -0.47,-9.2 -1.42,-10.62 -0.94,-1.65 -2.83,-2.36 -5.43,-2.36 h -2.36 v -3.07 c 0.94,-0.24 1.89,-0.24 3.07,-0.47 1.18,0 2.36,-0.24 3.54,-0.24 5.9,0 9.91,1.65 12.5,4.72 2.6,3.07 3.78,8.49 3.78,16.04 v 11.09 c 0,8.02 1.42,13.68 4.25,16.52 2.83,3.07 8.02,4.72 15.81,5.19 v -39.17 c 0,-4.25 -0.71,-7.08 -2.36,-8.49 -1.65,-1.42 -4.95,-2.36 -9.91,-2.36 v -2.6 h 37.75 v 2.36 c -4.95,0.24 -8.26,0.94 -9.67,2.36 -1.65,1.42 -2.36,4.25 -2.36,8.49 v 39.17 c 7.55,-0.47 12.98,-2.12 15.81,-5.19 2.83,-3.07 4.25,-8.49 4.25,-16.52 V 400.9 c 0,-7.55 1.18,-12.98 3.78,-16.04 2.36,-3.07 6.61,-4.48 12.5,-4.48 1.18,0 2.36,0 3.54,0.24 1.18,0 2.12,0.24 3.07,0.47 v 2.83 z"
   id="path13" />
</g>
</svg>
