<svg class="main-logo w-full text-teal" xmlns="http://www.w3.org/2000/svg" viewBox="0 0 128 44.52"><title>Rigetti</title>
<g id="Layer_2" data-name="Layer 2">
<g id="Layer_1-2" data-name="Layer 1">
<path fill="#006964" d="M19.86,10.58v4.71a2.92,2.92,0,0,1-3,2.88H10.84a2.92,2.92,0,0,0-2.95,2.88V31.8A3.27,3.27,0,0,1,4.58,35H0v-14a2.92,2.92,0,0,1,3-2.88h2a2.92,2.92,0,0,0,2.95-2.88V13.46a2.92,2.92,0,0,1,3-2.88ZM23.49,35h4.58a3.27,3.27,0,0,0,3.31-3.24V10.58H23.49Zm0-35V7.61h4.58a3.27,3.27,0,0,0,3.31-3.23V0Zm96.62,35h4.58A3.27,3.27,0,0,0,128,31.8V10.58h-7.89Zm0-35V7.61h4.58A3.27,3.27,0,0,0,128,4.38V0ZM57.71,10.58V38.79a5.81,5.81,0,0,1-5.88,5.73h-16V41.83a1.7,1.7,0,0,1,1.73-1.68H47a2.84,2.84,0,0,0,2.88-2.72V35H40.84A5.8,5.8,0,0,1,35,29.31v-13a5.81,5.81,0,0,1,5.87-5.73Zm-7.8,20.08V15.25H45.65A2.76,2.76,0,0,0,42.86,18v10a2.76,2.76,0,0,0,2.79,2.72ZM99.29,15.25v-3a1.7,1.7,0,0,0-1.73-1.68H93.85V3.88H89.1a3.06,3.06,0,0,0-3.1,3V29.55A5.56,5.56,0,0,0,91.62,35h7.67v-2.7a1.7,1.7,0,0,0-1.73-1.68h-.92a2.76,2.76,0,0,1-2.79-2.72V15.25Zm17.13,0v-3a1.7,1.7,0,0,0-1.73-1.68H111V3.88h-4.75a3.07,3.07,0,0,0-3.11,3V29.55A5.56,5.56,0,0,0,108.76,35h7.66v-2.7a1.7,1.7,0,0,0-1.73-1.68h-.91A2.75,2.75,0,0,1,111,27.94V15.25ZM68.93,25.64v2.3a2.76,2.76,0,0,0,2.79,2.72h7.33a1.7,1.7,0,0,1,1.73,1.68V35H67.25a5.8,5.8,0,0,1-5.88-5.73v-13a5.81,5.81,0,0,1,5.88-5.73h9.36a5.66,5.66,0,0,1,5.73,5.59v9.48H68.93Zm2.78-10.39A2.76,2.76,0,0,0,68.92,18v4.45h7V15.25Z"></path>
</g>
</g>
</svg>