<svg id="Layer_1" data-name="Layer 1" xmlns="http://www.w3.org/2000/svg" xmlns:xlink="http://www.w3.org/1999/xlink" viewBox="0 0 873.3064 251.2178"><defs><linearGradient id="linear-gradient" x1="83.682" y1="72.4883" x2="231.177" y2="219.9832" gradientUnits="userSpaceOnUse"><stop offset="0" stop-color="#00aae4"/><stop offset="1" stop-color="#006097"/></linearGradient></defs><title>Ripple_logo_RGB</title><path d="M346.6565,120.1483c-2.307-.7692-7.1772-1.2822-12.0481-1.2822-14.6125,0-30.25,11.8368-30.25,26.4487v69.6831H271.0334V90.6678h32.0437v12.561c7.434-9.2286,21.02-15.1249,36.1453-15.1249a67.94,67.94,0,0,1,11.28,1.0254Z" transform="translate(-28.3468 -25.2981)" style="fill:#434c54"/><path d="M384.3383,25.2981c12.0486,0,21.79,9.2286,21.79,21.2773s-9.741,21.2766-21.79,21.2766-21.79-9.2279-21.79-21.2766S372.29,25.2981,384.3383,25.2981Zm16.6626,189.7H367.6756V90.6678h33.3253v124.33Z" transform="translate(-28.3468 -25.2981)" style="fill:#434c54"/><path d="M499.4431,88.0978a56.8984,56.8984,0,0,0-36.4006,12.573V90.6667H430.9916V276.5159H464.32V206.2838a52.4285,52.4285,0,0,0,33.3287,11.2818c18.4585,0,36.1422-8.21,47.1657-21.0275,9.7457-11.2817,15.6313-26.6547,15.6313-43.5773C560.4459,116.3021,533.2745,88.0978,499.4431,88.0978Zm-4.0506,99.2111c-20.7013,0-34.3073-14.2857-34.3073-34.2394s13.606-34.2393,34.3073-34.2393c17.67,0,31.9966,15.3322,31.9966,34.2393S513.0626,187.3089,495.3925,187.3089Z" transform="translate(-28.3468 -25.2981)" style="fill:#434c54"/><path d="M762.7106,214.9979H729.3839V32.9883h33.3267v182.01Z" transform="translate(-28.3468 -25.2981)" style="fill:#434c54"/><path d="M898.5763,195.2584c-12.0486,14.3557-31.7882,22.3027-51.014,22.3027-37.1708,0-65.1135-25.6344-65.1135-64.6,0-34.6076,23.5849-64.8574,60.4995-64.8574,34.3514,0,58.7049,28.9676,58.7049,63.5751a54.7023,54.7023,0,0,1-.77,9.4855H814.7494c1.7945,17.4312,15.8941,29.48,33.5828,29.48,14.0981,0,25.3782-7.947,31.2745-14.3557ZM867.558,136.811c-1.026-11.0233-11.0226-21.79-24.61-21.79-13.8433,0-25.1221,10.5109-26.66,21.79h51.27Z" transform="translate(-28.3468 -25.2981)" style="fill:#434c54"/><path d="M648.6414,88.0978a56.8981,56.8981,0,0,0-36.4,12.573V90.6667H580.19V276.5159h33.3286V206.2838a52.4283,52.4283,0,0,0,33.3286,11.2818c18.4586,0,36.1422-8.21,47.1657-21.0275,9.7458-11.2817,15.6313-26.6547,15.6313-43.5773C709.6442,116.3021,682.4729,88.0978,648.6414,88.0978Zm-4.0506,99.2111c-20.7012,0-34.3072-14.2857-34.3072-34.2394S623.89,118.83,644.5908,118.83c17.67,0,31.9966,15.3322,31.9966,34.2393S662.261,187.3089,644.5908,187.3089Z" transform="translate(-28.3468 -25.2981)" style="fill:#434c54"/><path d="M202.3319,169.7011c-7.5243-4.3445-15.9976-5.6037-24.3906-5.8968-7.0417-.2459-17.5476-4.7583-17.5476-17.5681,0-9.5441,7.7369-17.2252,17.5512-17.5679,8.3923-.2931,16.8648-1.5539,24.387-5.8969A44.4477,44.4477,0,1,0,135.6605,84.28c0,8.6117,3.0629,16.5366,6.9711,23.8868,3.287,6.182,4.95,17.6559-6.3235,24.1644-8.3862,4.8418-18.8523,1.776-24.08-6.5905-4.4158-7.0666-9.7464-13.6878-17.2095-17.9974a44.4475,44.4475,0,1,0,0,76.9852c7.461-4.308,12.7921-10.9249,17.2051-17.9872,3.6238-5.7993,12.6743-13.1915,24.084-6.5992,8.3734,4.838,10.962,15.4379,6.32,24.1688-3.9076,7.3491-6.9666,15.2723-6.9666,23.8825A44.4471,44.4471,0,1,0,202.3319,169.7011Z" transform="translate(-28.3468 -25.2981)" style="fill:url(#linear-gradient)"/></svg>