<svg id="Layer_1" data-name="Layer 1" xmlns="http://www.w3.org/2000/svg" viewBox="0 0 32 40"><defs><style>.cls-1{fill-rule:evenodd;}</style></defs><title>RR_Monogram_RGB_POS_</title><path class="cls-1" d="M1.83,34.26V2.59S1.94.82,1,.22V0H13.2a18,18,0,0,1,3.17.28A8.46,8.46,0,0,1,23,6.19a10.36,10.36,0,0,1-1.54,9.15,16.19,16.19,0,0,1-3.21,3.13c-.27.19-.43.29-.71.47a36.19,36.19,0,0,1,3.91,7.82,45,45,0,0,1,1.89,7.39c.26,2.08.88,2.29,1,2.33v.23h-7.3v-.23c.22-.12,2.2-1,2.21-4.07a22.73,22.73,0,0,0-1.56-7.58A38.53,38.53,0,0,0,15.56,20l0,0a24.12,24.12,0,0,1-4.35,1.29c-.95.18-1.91.33-3.1.46s-2,.19-2.65.23v12.3c0,.27.07,1.72,1,2.22v.23H.83v-.23c.91-.48,1-1.95,1-2.22M13.36,2.08H5.43V19.7a26.81,26.81,0,0,0,5.09-.77c5.78-1.71,8.54-5.74,8.58-10.49,0-2.76-1-4.45-2-5.35a4.61,4.61,0,0,0-2.23-.92,9.57,9.57,0,0,0-1.47-.09M12.6,21.52v1.86a31.09,31.09,0,0,0,3.76-.46c.34.78.64,1.52.85,2.09l0,.08c-.63.11-1.3.2-2,.28-1,.12-2,.18-2.59.22v12c0,.26.06,1.68,1,2.17V40H8.09v-.22c.89-.47,1-1.91,1-2.17V22.16a34.53,34.53,0,0,0,3.53-.64m7.27.24A10.17,10.17,0,0,0,26,12.35C26,9.64,25.07,8,24,7.1L23.81,7c-.08-.32-.16-.63-.26-.93a11.37,11.37,0,0,0-.76-1.76c.19,0,.37.06.54.09a8.34,8.34,0,0,1,6.51,5.79,10.17,10.17,0,0,1-1.51,9,15.87,15.87,0,0,1-3.15,3.06c-.26.19-.42.29-.69.47a35.13,35.13,0,0,1,3.82,7.66,45.68,45.68,0,0,1,1.87,7.24c.24,2,.85,2.2,1,2.24V40H24v-.22c.22-.11,2.16-.91,2.17-3.94a22,22,0,0,0-1.52-7.43,40.15,40.15,0,0,0-2.13-4.72l0,0c-.36.16-.88.34-1.45.53-.37-.86-.75-1.64-1.18-2.43M18.27,6.11H12.6V17.55a15.83,15.83,0,0,1-2.24.85,12.88,12.88,0,0,1-1.29.31V6.61s.1-1.73-.87-2.32V4.07h9.07a5.47,5.47,0,0,1,1,2"/></svg>