<?xml version="1.0" encoding="UTF-8"?>
<svg xmlns="http://www.w3.org/2000/svg" width="200" height="109.8099">
<g transform="translate(-244.71598,-382.39245)" style="fill-rule:nonzero;stroke:none">
 <g style="fill:#ED1A3D">
  <path d="m 288.87311,425.40369 c -3.563,0.40272 -6.76802,-2.15627 -7.17354,-5.71368 -0.40273,-3.5602 2.15626,-6.77082 5.71645,-7.17354 3.5574,-0.39992 6.77082,2.15626 7.16796,5.71367 0.40831,3.56021 -2.15347,6.77362 -5.71087,7.17355"/>
  <path d="m 313.57639,408.1732 c -4.31812,-1.40675 -6.67573,-6.05207 -5.27459,-10.36738 1.41234,-4.31812 6.05488,-6.67852 10.37577,-5.26899 4.31251,1.40675 6.67853,6.04927 5.26899,10.37017 -1.40954,4.31811 -6.04927,6.67573 -10.37017,5.2662"/>
  <path d="m 342.19505,399.97884 c -3.93497,-3.84546 -4.00768,-10.15483 -0.16221,-14.08979 3.84547,-3.93216 10.15483,-4.00487 14.09259,-0.15662 3.93217,3.84547 4.00208,10.15484 0.15661,14.087 -3.84826,3.93497 -10.15763,4.00768 -14.08699,0.15941"/>
  <path d="m 370.07818,401.66527 c -2.33245,-6.0269 0.66002,-12.80332 6.68972,-15.13296 6.02129,-2.33525 12.80051,0.66001 15.13296,6.68692 2.33245,6.02409 -0.66003,12.80329 -6.68693,15.13296 -6.03248,2.33245 -12.80051,-0.66283 -15.13575,-6.68692"/>
  <path d="m 397.6369,413.31073 c 0,-7.75246 6.28699,-14.03945 14.04505,-14.03945 7.75244,0 14.03663,6.28699 14.03663,14.03945 0,7.74967 -6.28419,14.04225 -14.03663,14.04225 -7.75806,0 -14.04505,-6.29258 -14.04505,-14.04225"/>
 </g>
 <g style="fill:#231F20">
  <path d="m 353.98315,438.3664 c -11.10011,0 -19.15462,8.05729 -19.15462,19.15461 0,8.75089 4.97814,17.58568 16.09223,17.58568 2.91976,0 5.5207,-0.61249 7.83636,-1.88219 l 0,1.60251 c 0,4.25379 -0.96485,8.18876 -7.97898,8.18876 -1.62769,0 -3.16588,-0.25172 -4.56143,-0.64604 -1.75632,-0.5202 -3.40639,-1.3704 -5.04245,-2.19263 l -0.18459,-0.0839 c -0.40552,-0.1706 -0.8446,-0.15102 -1.25012,0.014 -0.30764,0.12025 -0.52858,0.32163 -0.71875,0.58452 -0.22934,0.30763 -2.53942,3.88182 -2.69883,4.20065 l -0.20695,0.61527 -0.0251,0.24611 c 0,0.49782 0.21535,0.94249 0.55375,1.25852 0.72994,0.6796 1.63886,1.20259 2.51144,1.67802 0.2573,0.13984 0.52019,0.26569 0.78029,0.39434 2.69601,1.33123 6.65613,2.61772 11.91394,2.61772 5.62137,0 10.06813,-1.59134 13.20602,-4.73203 3.87624,-3.87623 3.87624,-7.78042 3.87624,-12.71381 l 0,-32.0614 -0.30485,-0.14542 c -4.72362,-2.37442 -9.9255,-3.68327 -14.64353,-3.68327 z m 4.77397,26.73928 c -0.54816,0.35517 -2.91136,1.6053 -5.62697,1.6053 -3.9797,0 -7.98459,-2.99806 -7.98459,-9.69058 0,-6.04367 3.57699,-10.2639 8.69217,-10.2639 2.27651,0 4.25938,0.69918 4.91939,0.95648 l 0,17.3927"/>
  <path d="m 293.23877,440.96454 -0.0307,-0.22654 c -0.13145,-0.78028 -0.81105,-1.37318 -1.62488,-1.37318 l -7.00575,0 c -0.91451,0 -1.65564,0.74393 -1.65564,1.65844 l 0,32.42498 c 0,0.91452 0.74113,1.65845 1.65564,1.65845 l 7.00575,0 c 0.81943,0 1.49623,-0.60129 1.62768,-1.38438 l 0.028,-0.2489 0,-32.50887"/>
  <path d="m 444.21598,430.41258 c -0.0531,-0.86978 -0.7663,-1.55497 -1.64167,-1.55497 l -7.01132,0 c -0.90054,0 -1.6193,0.71876 -1.64168,1.61929 l 0,43.0972 c 0.0671,0.85579 0.7747,1.5298 1.64168,1.5298 l 7.01132,0 c 0.88656,0 1.60531,-0.70478 1.64167,-1.58574 l 0,-43.10558"/>
  <path d="m 413.93887,438.3664 c -9.94507,0 -17.16057,8.02373 -17.16057,19.0791 0,11.33504 6.98617,18.65681 17.80102,18.65681 6.108,0 10.6946,-2.22897 12.40058,-3.19663 0.344,-0.18178 1.29487,-1.02918 0.47265,-2.6345 l -1.7032,-3.33926 c -0.46424,-0.89214 -1.10189,-1.08232 -1.55217,-1.08232 -0.22374,0 -0.45027,0.0448 -0.79147,0.18458 l -0.20975,0.10075 c -2.69322,1.20258 -5.23542,1.78709 -7.76364,1.78709 -2.74357,0 -5.02289,-0.87258 -6.58905,-2.52823 -1.38995,-1.46826 -2.00523,-3.33925 -2.03599,-4.67329 l 23.22102,0 c 0,0 0,-2.38279 0,-3.34205 0,-11.90557 -6.01291,-19.01199 -16.08943,-19.01199 z m -7.13159,14.74701 c 0.83901,-4.28454 3.62733,-6.92464 7.34414,-6.92464 5.52348,0 6.1947,5.1823 6.26462,6.92464 l -13.60876,0"/>
  <path d="m 394.18297,468.10374 c -0.40272,-1.09631 -1.20259,-1.26131 -1.65286,-1.26131 l -0.67679,0.11188 c -1.00961,0.26848 -1.93532,0.39713 -2.91696,0.39713 -3.75597,0 -4.06921,-2.66246 -4.06921,-5.63255 l 0,-13.67869 9.05572,0 c 0.91453,0 1.65566,-0.74112 1.65566,-1.65565 l 0,-5.36686 c 0,-0.86698 -0.66841,-1.56617 -1.51582,-1.63887 l -0.11462,-0.014 -0.0224,0 -0.002,-0.002 -9.05572,0.002 0,-8.85158 c 0,-0.91452 -0.73832,-1.65284 -1.65285,-1.65284 l -7.00574,0 c -0.26289,0 -0.5146,0.0671 -0.73834,0.17899 -0.69916,0.29364 -0.9173,0.9257 -0.9173,1.42351 l 0,30.90358 c 0,4.88025 0,8.40409 3.09315,11.50004 2.81628,2.81908 7.03091,3.23579 9.29623,3.23579 3.47072,0 6.01851,-0.83062 7.62941,-1.59692 0.43628,-0.20975 1.58014,-1.00683 0.94249,-2.76314 l -1.33123,-3.63852"/>
  <path d="m 260.0419,443.24664 c -0.60409,-0.27968 -1.25013,-0.62645 -1.81228,-1.06833 -0.39432,-0.27687 -0.72993,-0.62926 -0.98163,-1.04039 l -0.21255,-0.40551 -0.10074,-0.25451 c -0.12585,-0.35798 -0.19577,-0.74113 -0.19577,-1.14384 0,-0.66003 0.19018,-1.2753 0.50899,-1.80388 0.64045,-1.13546 1.83744,-1.98006 3.07638,-2.34644 3.68884,-1.20257 7.68813,-0.0782 10.9379,1.79549 l 0.61248,0.32162 c 0.36917,0.22095 0.75232,0.35798 1.08513,0.35798 0.54535,0 1.03198,-0.23772 1.37596,-0.61248 l -0.009,0.0112 c 1.1942,-1.43751 3.08477,-4.34328 3.11833,-4.39361 0.34679,-0.56215 0.38035,-1.32565 0.0448,-1.90456 l -0.3328,-0.44468 -0.47824,-0.38315 c -5.06763,-3.51825 -11.58116,-4.71524 -17.61924,-3.7308 -3.52104,0.59849 -6.94141,2.18703 -9.36055,4.84669 -3.90421,4.19225 -4.70966,11.04138 -1.66405,15.9412 2.1283,3.44554 5.75281,5.599 9.38294,7.17074 2.67645,1.26133 5.61578,2.07237 8.10206,3.71963 1.34521,0.81943 2.24574,2.29329 2.24574,3.98809 0,1.83743 -1.10469,3.40639 -2.55059,4.17269 -0.78308,0.4139 -1.54937,0.74112 -2.41634,0.91452 -0.86419,0.17338 -1.75354,0.22373 -2.63171,0.19576 -0.49501,-0.0168 -0.99003,-0.0559 -1.48505,-0.11463 -2.89179,-0.2573 -5.44238,-1.59691 -7.98179,-2.86661 l -0.19857,-0.0922 c -0.43628,-0.1762 -0.91452,-0.16221 -1.34521,0.0113 -0.3356,0.13705 -0.57052,0.35519 -0.78587,0.63765 -0.24606,0.33001 -2.73233,4.18946 -2.90853,4.53626 l -0.22652,0.65722 -0.0196,0.26849 c 0,0.53976 0.22933,1.0208 0.5957,1.362 2.52262,2.12549 5.75002,3.31129 8.92427,4.09436 5.2662,1.12148 11.01902,1.02919 15.88528,-1.4375 8.15798,-3.74479 10.86239,-15.87689 4.67609,-22.49109 C 271.18056,447.4 265.28791,445.7108 260.0413,443.2469"/>
  <path d="m 330.94393,465.3378 0,-10.11567 c 0.0112,-4.42439 0.0196,-9.43608 -3.87903,-13.33468 -2.3017,-2.2989 -5.53468,-3.52105 -9.36336,-3.52105 -4.20345,0 -6.782,2.06956 -8.12163,3.30291 l 0,-0.64325 c -0.014,-0.18179 -0.0224,-0.2545 -0.0644,-0.4251 l 0,-0.002 -0.0113,-0.0364 -0.014,-0.0308 -0.0308,-0.10075 -0.0168,-0.0587 -0.4307,-0.58451 -0.0867,-0.0699 -0.0168,-0.014 -0.0112,-0.005 -0.002,-0.002 c -0.27687,-0.20136 -0.60409,-0.3272 -0.97325,-0.3272 l -7.00854,0 c -0.91452,0 -1.65284,0.74111 -1.65284,1.65844 l 0,32.42497 c 0,0.91453 0.73832,1.65565 1.65284,1.65565 l 7.00854,0 c 0.82223,0 1.49344,-0.5985 1.62769,-1.38157 l 0.0308,-0.2517 -0.005,-6.53311 0.005,0 0,-17.64439 c 0.89774,-0.62366 3.48749,-2.03321 6.12757,-2.03321 1.5354,0 2.75475,0.40272 3.52665,1.17742 1.19419,1.19139 1.39276,3.39239 1.39276,7.86991 l 0.002,0.73554 0,16.40546 c 0,0.91453 0.74392,1.65565 1.65565,1.65565 l 7.00573,0 c 0.81944,0 1.49625,-0.5985 1.62769,-1.38157 l 0.028,-0.2517 -0.002,-6.52751 0.002,-0.0196 0,-1.58573 -0.002,-0.002"/>
 </g>
</g>
</svg>