<svg viewBox="0 0 1970.132 610" version="1.1" width="1970.132" height="610" id="svg932" xmlns="http://www.w3.org/2000/svg"><defs id="defs923"><style id="style921">.cls-1{fill:#009edb}</style></defs><path d="m 965.32227,42.02187 h 50.44803 v 160.28471 c 0,28.23493 -8.5411,49.92575 -26.26861,64.36581 a 112.35598,112.35598 0 0 1 -134.01608,0 C 837.75813,252.23233 829.21699,230.54151 829.21699,202.30658 V 42.02187 h 50.57094 v 160.28471 c 0,16.40637 3.96334,27.65118 11.82857,34.80977 a 51.339035,51.339035 0 0 0 63.07542,0 c 7.86523,-7.22004 11.15265,-19.0486 11.15265,-34.80977 z m 161.60583,97.8852 a 33.119976,33.119976 0 0 0 -30.7236,17.08228 v 128.08644 h -48.7889 V 104.42138 h 45.3479 l 1.3211,20.36971 a 64.304368,64.304368 0 0 1 51.8921,-24.30232 56.715654,56.715654 0 0 1 41.3846,15.11598 c 10.5074,10.50745 15.7612,28.23493 15.7612,53.85836 V 284.4306 h -48.6047 V 170.10831 c 0,-11.82857 -2.6422,-19.69379 -7.2507,-23.65713 a 27.282503,27.282503 0 0 0 -20.339,-6.54411 z m 109.0378,-82.12402 a 25.25475,25.25475 0 0 1 7.2201,-17.72749 31.553075,31.553075 0 0 1 39.4183,0 22.796866,22.796866 0 0 1 7.22,17.72749 25.25475,25.25475 0 0 1 -7.22,17.72748 31.553075,31.553075 0 0 1 -39.4183,0 25.25475,25.25475 0 0 1 -7.2201,-17.72748 z m 51.8921,46.63833 v 180.65441 h -48.6047 V 104.42138 Z m 125.4749,180.00922 a 86.701829,86.701829 0 0 1 -28.9108,4.5778 57.698807,57.698807 0 0 1 -38.0972,-12.47375 Q 1332.53,264.67536 1332.53,235.15004 v -95.24297 h -26.9445 V 104.42138 H 1332.53 V 59.74935 h 48.6047 v 44.67203 h 30.9693 v 35.48569 h -30.9693 v 90.63444 a 18.249783,18.249783 0 0 0 4.6085,15.11598 25.654156,25.654156 0 0 0 13.7949,3.93261 32.413334,32.413334 0 0 0 7.8652,-0.64519 c 2.6422,0 4.6085,-0.6452 5.9296,-0.6452 z m 174.7248,-28.26566 a 78.283579,78.283579 0 0 1 -26.2686,22.33601 94.536331,94.536331 0 0 1 -44.0269,10.50745 c -28.2349,0 -50.5709,-8.54114 -66.3321,-25.62343 a 86.855446,86.855446 0 0 1 -23.6571,-61.75431 v -6.54412 a 95.795996,95.795996 0 0 1 23.0119,-67.00804 76.563061,76.563061 0 0 1 61.7236,-26.26862 c 26.2994,0 46.0853,7.86522 59.1428,24.30232 13.0575,16.43709 20.339,38.09719 20.339,64.36581 v 20.36971 h -114.9368 a 46.085309,46.085309 0 0 0 13.7949,28.23493 41.507502,41.507502 0 0 0 30.2013,10.50745 50.294434,50.294434 0 0 0 43.3509,-20.3697 z m -76.1944,-116.25787 a 27.651186,27.651186 0 0 0 -23.6571,10.50745 57.729531,57.729531 0 0 0 -11.1527,26.91382 h 67.1617 v -3.93261 a 41.292437,41.292437 0 0 0 -7.896,-24.30232 29.801833,29.801833 0 0 0 -24.4559,-9.18634 z m 214.819,145.81392 -2.6422,-19.0486 a 60.310308,60.310308 0 0 1 -19.6938,16.43709 63.53628,63.53628 0 0 1 -78.1914,-20.3697 107.53239,107.53239 0 0 1 -18.4341,-65.68693 v -3.28742 c 0,-27.65118 5.8989,-49.92575 18.4341,-67.00804 a 60.863332,60.863332 0 0 1 52.568,-25.62343 52.230017,52.230017 0 0 1 43.3509,19.72451 V 28.87219 h 48.6046 v 256.8488 z m -70.9714,-88.66814 a 71.893083,71.893083 0 0 0 7.896,36.86825 27.651186,27.651186 0 0 0 26.9445,15.11598 33.519382,33.519382 0 0 0 31.5224,-18.43412 v -71.58585 a 32.72057,32.72057 0 0 0 -31.5224,-19.0486 28.050592,28.050592 0 0 0 -26.9445,15.76118 76.808849,76.808849 0 0 0 -7.896,38.09719 z m -626.7602,135.98238 v 243.69911 h -49.83356 l -97.8852,-160.9299 v 160.9299 H 830.66099 V 333.03523 h 50.57095 l 97.8852,160.9299 v -160.9299 z m 141.3283,243.69911 a 46.546162,46.546162 0 0 1 -4.6085,-16.40637 54.257771,54.257771 0 0 1 -18.4342,13.79487 68.851452,68.851452 0 0 1 -70.9406,-9.21706 49.157663,49.157663 0 0 1 -17.6968,-38.83455 52.230017,52.230017 0 0 1 21.0149,-44.02683 c 13.7949,-10.50746 34.8098,-15.76118 62.3995,-15.76118 h 21.6909 v -10.50745 a 29.310257,29.310257 0 0 0 -6.5749,-20.36971 25.377644,25.377644 0 0 0 -20.3697,-7.22003 q -25.6234,0 -25.6234,21.69082 h -48.6047 a 51.400482,51.400482 0 0 1 21.0149,-40.55507 90.634442,90.634442 0 0 1 55.8554,-17.08229 82.431257,82.431257 0 0 1 51.8921,15.76117 c 13.7949,10.50746 20.3697,26.26863 20.3697,47.95945 v 76.25582 a 159.11721,159.11721 0 0 0 1.9663,24.97824 68.267705,68.267705 0 0 0 5.2537,16.40637 v 3.28742 z m -39.9406,-33.48865 a 47.406422,47.406422 0 0 0 21.0456,-5.25373 36.223053,36.223053 0 0 0 12.4738,-11.82856 v -31.55308 h -19.7245 a 43.258744,43.258744 0 0 0 -28.235,7.89595 26.637309,26.637309 0 0 0 -9.217,19.72451 20.799836,20.799836 0 0 0 5.8989,15.08526 30.109069,30.109069 0 0 0 17.7275,5.92965 z m 205.6326,32.16754 a 93.491731,93.491731 0 0 1 -13.1496,3.28742 123.93876,123.93876 0 0 1 -15.7612,1.32111 57.852425,57.852425 0 0 1 -38.0972,-12.47375 q -13.7949,-11.85929 -13.7949,-41.38461 V 430.82825 H 1228.07 v -35.39351 h 26.9445 v -44.67203 h 48.6047 v 44.67203 h 30.7235 v 35.39351 h -30.7235 v 90.63445 a 18.249783,18.249783 0 0 0 4.6085,15.11598 25.930667,25.930667 0 0 0 13.7949,3.93261 32.413334,32.413334 0 0 0 7.8652,-0.64519 c 2.6422,0 4.6085,-0.67592 5.9296,-0.67592 z m 20.3698,-226.61683 a 25.25475,25.25475 0 0 1 7.22,-17.72748 31.553075,31.553075 0 0 1 39.4183,0 25.807773,25.807773 0 0 1 0,36.13088 31.645246,31.645246 0 0 1 -39.4183,0 22.82759,22.82759 0 0 1 -7.3737,-18.4034 z m 51.2161,46.63834 v 181.26888 h -48.7583 V 395.43474 Z m 27.6512,92.63147 v -3.28742 a 99.790057,99.790057 0 0 1 22.336,-65.68693 c 15.116,-17.7582 36.1309,-26.29935 63.0754,-26.29935 27.6512,0 48.6047,8.54115 63.7206,26.29935 a 99.636439,99.636439 0 0 1 22.3361,65.68693 v 3.28742 a 99.759333,99.759333 0 0 1 -22.5204,65.6562 c -15.116,17.72748 -36.1309,26.26863 -63.0754,26.26863 -27.6512,0 -48.6047,-8.54115 -63.7206,-26.26863 a 99.912951,99.912951 0 0 1 -22.3361,-65.68693 z m 48.6353,-3.96334 v 3.28742 a 72.722618,72.722618 0 0 0 8.5412,37.452 34.594706,34.594706 0 0 0 57.791,0 82.093298,82.093298 0 0 0 8.5411,-37.452 v -3.28742 a 74.596754,74.596754 0 0 0 -8.5411,-37.42127 29.801833,29.801833 0 0 0 -28.9109,-15.76117 30.877157,30.877157 0 0 0 -28.8801,15.76117 75.825696,75.825696 0 0 0 -8.5412,37.42127 z m 226.2789,-52.53725 a 32.659123,32.659123 0 0 0 -30.7235,17.69676 v 127.44124 h -48.6354 V 395.43474 h 45.3172 l 1.9663,21.0149 a 63.62845,63.62845 0 0 1 51.9228,-24.30232 57.483743,57.483743 0 0 1 42.0298,15.11598 c 10.5075,10.50745 15.7612,28.23493 15.7612,53.85836 v 115.61268 h -48.6046 V 461.12166 c 0,-11.82856 -2.6423,-19.69378 -7.2201,-23.65712 a 33.304317,33.304317 0 0 0 -21.6908,-5.89892 z m 207.7219,94.50561 a 15.177429,15.177429 0 0 0 -7.2508,-13.14968 82.769216,82.769216 0 0 0 -29.556,-9.86225 127.34907,127.34907 0 0 1 -46.0853,-18.43413 41.476778,41.476778 0 0 1 -18.4342,-36.13088 51.799888,51.799888 0 0 1 19.0486,-39.4183 c 13.1497,-11.18337 30.2013,-17.08229 53.2132,-17.08229 23.0119,0 42.0298,5.25373 55.8247,16.43709 a 52.230017,52.230017 0 0 1 20.5233,42.18342 h -48.6046 a 23.226996,23.226996 0 0 0 -6.5749,-17.08228 29.894004,29.894004 0 0 0 -21.0149,-6.57484 29.187363,29.187363 0 0 0 -19.0486,5.25372 18.434124,18.434124 0 0 0 -6.5748,13.79487 15.146705,15.146705 0 0 0 7.22,13.14968 72.814789,72.814789 0 0 0 26.2686,8.54114 160.28471,160.28471 0 0 1 48.6354,17.72748 c 13.119,7.89595 19.6938,21.01491 19.6938,38.77311 a 49.157663,49.157663 0 0 1 -20.3697,39.4183 c -13.7949,10.50745 -32.1676,15.76118 -55.8247,15.76118 -24.9782,0 -44.672,-6.57484 -57.8217,-19.72451 a 57.360848,57.360848 0 0 1 -20.3697,-41.38461 h 46.0853 a 25.193302,25.193302 0 0 0 10.5075,20.3697 38.896001,38.896001 0 0 0 23.0119,5.89892 c 17.7275,1.32112 27.6512,-5.25372 27.6512,-18.43412 z" id="path927" stroke-width="3.072"/><path class="cls-1" d="m 572.49109,551.11091 a 93.000154,93.000154 0 0 1 -61.10912,7.22003 208.92007,208.92007 0 0 1 -40.70869,-13.82559 l -28.91085,-11.79784 a 141.32828,141.32828 0 0 0 -77.51549,-1.99703 h -2.64223 a 130.02202,130.02202 0 0 0 -77.5155,1.99703 c -9.83153,3.28742 -19.04859,7.86523 -28.88013,11.79784 a 230.76451,230.76451 0 0 1 -40.73941,14.47079 93.614625,93.614625 0 0 1 -61.0784,-7.22003 l -2.64222,-1.32112 c -0.6452,0 -0.6452,0 -0.6452,0.6452 a 99.359927,99.359927 0 0 0 46.08531,26.94454 96.011061,96.011061 0 0 0 36.13089,2.6115 119.11516,119.11516 0 0 0 51.24686,-19.69379 l 27.6512,-18.43412 a 46.822674,46.822674 0 0 1 34.77905,-6.48267 c 6.57483,0.6452 1.32111,3.93262 0.67591,4.57781 a 261.67239,261.67239 0 0 0 -46.76122,28.91085 c -9.86227,7.22003 -27.6512,24.30232 -27.6512,24.30232 L 285.3796,605 299.8504,589.2081 a 261.73383,261.73383 0 0 1 60.4332,-46.63833 4.9772134,4.9772134 0 0 1 5.89892,0 261.73383,261.73383 0 0 1 60.4332,46.63833 L 441.08651,605 454.20546,593.81663 426.55428,569.51431 a 261.67239,261.67239 0 0 0 -46.63834,-28.91085 c -1.32111,-0.64519 -5.89892,-3.93261 0.67592,-4.57781 a 46.853398,46.853398 0 0 1 34.80977,6.54412 l 27.65119,18.43412 a 118.99227,118.99227 0 0 0 51.21614,19.69379 95.980338,95.980338 0 0 0 36.13088,-2.6115 111.92585,111.92585 0 0 0 46.08531,-26.94454 2.2735419,2.2735419 0 0 0 -1.32111,-0.6452 l -2.6115,0.6452 m 64.36581,-57.14579 a 92.447131,92.447131 0 0 1 -27.65118,14.47079 161.54437,161.54437 0 0 1 -43.35092,6.54411 546.879,546.879 0 0 0 -56.50059,4.60853 c -1.32111,0 -1.9663,0 -1.32111,-0.64519 A 69.404476,69.404476 0 0 0 544.9628,483.4884 l 18.43412,-37.45199 v -1.29039 c -1.29039,0.64519 -19.69379,16.40637 -28.23493,24.30232 l -30.72354,30.20124 A 119.8218,119.8218 0 0 1 456.479,524.22781 h -0.64519 l -0.64519,0.6452 35.20917,8.51042 a 224.28184,224.28184 0 0 0 46.63833,8.54114 109.4987,109.4987 0 0 0 101.17262,-47.28352 c 0,-0.67592 -0.64519,-0.67592 -1.32111,-0.67592 m 57.8217,-88.02294 a 139.02402,139.02402 0 0 1 -32.84346,28.91085 206.86159,206.86159 0 0 1 -33.51939,18.43412 163.32634,163.32634 0 0 0 -41.3846,24.33305 l -2.6115,1.9663 c -0.67592,0 -0.67592,0 -0.67592,-0.67592 0,-0.67591 19.72451,-20.33898 25.62343,-61.72359 a 246.71002,246.71002 0 0 1 6.57484,-44.02683 v -1.32111 a 191.37693,191.37693 0 0 0 -31.52235,56.50059 l -11.82857,33.48866 a 97.39362,97.39362 0 0 1 -24.30232,39.9406 l -1.32111,1.29039 v 0.67591 c 1.32111,0 2.6115,-0.67591 3.93261,-0.67591 l 38.09719,-7.86523 a 132.94076,132.94076 0 0 0 57.8217,-24.30232 134.44621,134.44621 0 0 0 41.38461,-48.60464 163.84864,163.84864 0 0 0 6.57484,-15.7919 c 1.29039,-1.29039 0.64519,-1.29039 0,-0.64519 m 24.94751,-98.53039 a 116.56511,116.56511 0 0 1 -30.20124,47.28352 438.05623,438.05623 0 0 0 -43.35091,49.15767 c 0,0.64519 -1.32111,0 -0.67592,-0.6452 a 132.66424,132.66424 0 0 0 3.93262,-55.85539 c -2.61151,-15.76118 -9.21707,-32.84347 -11.15265,-51.89205 l -0.64519,-0.6452 c 0,0.6452 -0.67592,1.29039 -0.67592,1.96631 a 185.66235,185.66235 0 0 0 -7.86523,38.09718 c -0.67592,15.76118 1.96631,36.13088 0.6452,51.89206 -1.32112,18.43412 -2.64223,37.45199 -11.15265,53.85836 v 1.32112 l 39.38758,-24.30232 a 147.47299,147.47299 0 0 0 41.41533,-39.20324 117.67116,117.67116 0 0 0 21.50648,-68.97435 v -2.64222 a 2.3657125,2.3657125 0 0 0 -1.32111,0.67592" id="path929" stroke-width="3.072"/><path class="cls-1" d="m 677.59632,317.91925 v 0 a 122.89416,122.89416 0 0 0 -0.67592,-15.76118 c -1.29039,-18.43411 -12.47376,-33.51937 -22.33601,-49.15765 a 248.39982,248.39982 0 0 1 -17.72749,-31.52236 2.2735419,2.2735419 0 0 0 -1.32111,-0.64519 66.332122,66.332122 0 0 0 0.67592,10.50745 321.36822,321.36822 0 0 0 19.69379,77.51548 111.55717,111.55717 0 0 1 6.54411,48.48175 c 0,1.32111 0,1.32111 0.6452,1.9663 5.92964,-8.54114 17.7582,-20.3697 24.97824,-29.55604 7.22003,-9.18634 46.63833,-53.85836 27.65118,-115.61267 a 39.172513,39.172513 0 0 0 -3.28742,-7.89595 l -0.64519,0.67592 c 0,44.6413 -21.69082,63.72062 -30.23197,93.92185 a 143.97051,143.97051 0 0 0 -3.93261,17.08229 m 0.6452,-91.95555 -3.93262,-10.53817 -2.67294,-5.80675 a 90.910954,90.910954 0 0 0 -26.91383,-30.20124 127.80992,127.80992 0 0 1 -23.65712,-26.29935 h -1.96631 c 0.6452,1.96631 6.57484,21.69082 10.50745,30.87716 a 184.95571,184.95571 0 0 0 23.65713,35.48568 l 1.96631,2.61151 a 177.21338,177.21338 0 0 1 25.62343,49.15766 0.64519433,0.64519433 0 0 0 0.64519,0.64519 l 11.18337,-34.16457 a 333.19679,333.19679 0 0 0 9.83153,-36.86825 c 3.96334,-29.55605 -5.25372,-67.00804 -22.33601,-88.02294 a 2.2735419,2.2735419 0 0 0 -0.6452,1.32111 l 0.6452,2.6115 1.32111,3.96334 a 121.02002,121.02002 0 0 1 0.6452,48.60464 190.17871,190.17871 0 0 0 -3.2567,38.74238 c 0,1.96631 1.29039,18.43413 1.29039,19.0486 0,0.61447 -0.6452,0 -1.29039,0 M 625.58137,61.07046 a 50.816734,50.816734 0 0 1 12.47375,18.43413 c 4.60853,11.15264 5.89892,27.65118 9.21706,39.9406 l 5.92965,21.66009 c 0,0.67592 -0.67592,1.32112 -1.32111,0.67592 A 128.85453,128.85453 0 0 0 616.3643,112.31733 86.025911,86.025911 0 0 1 593.3831,91.94762 l -3.28742,-4.60853 a 0.92170619,0.92170619 0 0 0 -1.32111,0 v 1.96631 a 84.151775,84.151775 0 0 0 20.3697,39.4183 c 8.54115,7.89595 17.72748,15.11598 26.26863,22.33601 a 285.72892,285.72892 0 0 1 31.55307,31.52235 c 0,0 0.6452,0.67592 0.6452,0 v -10.50745 l 0.64519,-31.52235 v -10.50745 a 86.671105,86.671105 0 0 0 -5.80675,-31.52235 73.122024,73.122024 0 0 0 -34.16457,-37.452 c -0.6452,-0.64519 -1.96631,-0.64519 -3.28742,-1.32111 a 1.9970301,1.9970301 0 0 0 0.67592,1.32111 M 558.08175,30.34692 a 172.32833,172.32833 0 0 1 24.33304,28.91086 134.87634,134.87634 0 0 0 22.98121,28.23493 c 5.89892,5.92964 23.65713,19.72451 28.23493,23.65712 -0.64519,-5.25372 -9.21706,-42.70572 -32.16754,-61.10912 A 117.67116,117.67116 0 0 0 556.11544,27.7047 v 1.32111 l 1.96631,1.32111 m -367.9144,511.57765 a 211.99242,211.99242 0 0 0 45.22505,-8.54114 l 35.48569,-8.54114 h 0.64519 a 0.64519433,0.64519433 0 0 0 -0.64519,-0.6452 h -0.67592 a 127.31835,127.31835 0 0 1 -48.60464,-24.97824 l -30.72354,-29.55604 -28.23493,-24.30232 v 1.32111 c 2.6115,3.93261 12.47376,25.62343 18.43412,37.42127 a 67.038763,67.038763 0 0 0 36.86825,35.48569 c 0.64519,0.64519 0,0.64519 -1.32111,0.64519 a 532.03954,532.03954 0 0 0 -56.50059,-4.5778 161.57509,161.57509 0 0 1 -43.35092,-6.57484 92.815813,92.815813 0 0 1 -27.651181,-14.47079 h -1.321112 a 114.5988,114.5988 0 0 0 52.352913,40.67797 143.60182,143.60182 0 0 0 49.92575,6.57484 M 174.9592,503.09002 c 1.32111,0 1.9663,0.67592 3.93261,0.67592 v -0.67592 l -1.29039,-1.29039 a 104.46003,104.46003 0 0 1 -24.30232,-39.9406 l -11.82856,-33.48866 a 191.4691,191.4691 0 0 0 -31.55307,-56.50059 v 1.32111 a 244.77444,244.77444 0 0 1 7.25075,44.02684 c 5.89892,40.70869 25.62343,60.4332 25.62343,61.07839 0,0.6452 0,1.32112 -0.67592,0.6452 l -2.6115,-1.96631 A 164.30949,164.30949 0 0 0 98.119626,452.67269 204.68022,204.68022 0 0 1 64.600244,434.23857 138.25593,138.25593 0 0 1 31.75678,405.35844 h -0.645194 a 155.92196,155.92196 0 0 0 6.574837,15.76118 135.89022,135.89022 0 0 0 42.029803,48.60464 118.68503,118.68503 0 0 0 57.790974,24.30231 c 12.50448,3.28742 24.97824,6.57484 37.452,9.21707 M 69.208775,417.86292 108.62708,442.16524 a 2.2735419,2.2735419 0 0 0 0.64519,-1.32111 c -8.54114,-17.08229 -9.862255,-35.45497 -11.152644,-53.85837 -1.321112,-16.43709 1.290389,-36.13088 0.645194,-51.89206 a 192.54442,192.54442 0 0 0 -7.773055,-38.86526 c 0,-0.6452 -0.645195,-1.29039 -0.645195,-1.96631 l -0.645194,0.67592 v 0 c -1.321112,19.04858 -8.541144,36.13087 -11.183368,51.89205 a 134.5691,134.5691 0 0 0 3.932613,55.82467 c 0.675918,0.67592 -0.645195,1.32111 -0.645195,0.67592 A 388.1612,388.1612 0 0 0 38.454512,354.17302 114.96749,114.96749 0 0 1 8.2225486,307.53469 2.2120949,2.2120949 0 0 0 6.93216,306.85877 c -0.6759179,0 0,1.32111 0,2.64223 a 119.2995,119.2995 0 0 0 21.660096,68.97434 145.44524,145.44524 0 0 0 40.739413,39.4183 m -7.220032,-57.8217 c 0.645195,-0.64519 0.645195,-0.64519 0.645195,-1.9663 A 102.09432,102.09432 0 0 1 69.976864,309.501 382.9382,382.9382 0 0 0 89.701376,231.98552 c 0,-3.28742 0.645194,-9.21707 0.645194,-10.50746 -0.645194,0 -0.645194,0 -0.645194,0.6452 A 243.17682,243.17682 0 0 1 71.94317,253.67633 C 61.43572,268.1164 50.928269,283.87757 49.607157,302.28096 a 64.519433,64.519433 0 0 0 0,15.76118 0.64519433,0.64519433 0 0 1 -0.645194,0.64519 v -0.64519 L 44.353432,302.28096 C 35.13637,272.04901 14.152192,253.12331 14.152192,208.32839 l -0.675918,-0.64519 c -1.290389,2.6115 -1.966307,5.25372 -3.256696,7.86522 -19.0793173,61.75432 19.69379,106.42633 27.651187,115.6434 7.957396,9.21706 18.434123,20.33898 24.30232,28.88012 M 34.521899,237.17779 45.674544,271.34237 a 0.64519433,0.64519433 0 0 0 0.645194,-0.6452 195.73967,195.73967 0 0 1 25.623432,-49.15766 l 1.966307,-2.64222 a 207.1381,207.1381 0 0 0 23.657125,-35.45497 c 3.932618,-9.21706 9.862258,-28.91085 10.507448,-30.87715 h -1.9663 a 126.85749,126.85749 0 0 1 -23.657129,26.26862 89.620565,89.620565 0 0 0 -27.651186,30.87716 c -0.645194,1.96631 -1.966306,3.93261 -2.611501,5.89892 l -3.932613,11.18337 c 0,0 -0.675918,1.32111 -0.675918,0 0,-1.32112 1.321112,-16.4371 1.321112,-19.0486 a 190.48595,190.48595 0 0 0 -3.99406,-38.95745 120.8664,120.8664 0 0 1 0.645195,-48.60464 9.2170619,9.2170619 0 0 1 1.321112,-3.93261 c 0,-0.64519 0.645194,-1.96631 0.645194,-2.64222 0,-0.67592 0,-0.6452 -0.645194,-1.29039 -17.082288,21.0149 -26.944545,59.11209 -22.981208,88.02294 3.256695,12.47376 6.544114,24.94751 10.507451,36.86825 m 23.626402,-95.91889 0.675918,31.55307 v 9.83153 h 0.645194 A 238.90624,238.90624 0 0 1 90.223676,150.50669 L 116.4923,128.17067 A 84.45901,84.45901 0 0 0 137.07707,88.6602 v -1.93558 h -0.64519 l -3.28742,4.57781 a 82.769216,82.769216 0 0 1 -22.33601,20.3697 c -15.761178,9.86226 -26.268629,17.08229 -35.485691,29.55605 -0.645194,0.67592 -1.321112,0.67592 -0.645194,-0.6452 l 5.89892,-21.69081 c 3.287418,-12.47376 4.608531,-28.88013 9.217062,-39.94061 A 56.684931,56.684931 0 0 1 102.2673,60.51744 v -1.44401 c -1.32111,0 -1.9663,0.6452 -3.287415,1.32112 a 75.057607,75.057607 0 0 0 -34.80977,38.09719 72.661171,72.661171 0 0 0 -5.929644,31.52235 v 11.15264 m 34.840494,-30.87716 v 0 L 121.7153,86.72462 a 160.59194,160.59194 0 0 0 23.01194,-28.26566 144.03195,144.03195 0 0 1 24.30232,-28.88012 l 1.9663,-1.99703 V 26.29142 A 108.23903,108.23903 0 0 0 125.67864,48.62743 C 101.3456,67.67603 93.480371,105.0973 92.835177,110.35102 M 357.02691,314.0788 c 1.9663,-2.64222 -2.64223,-4.60853 -3.96334,0 -1.32111,4.60854 1.99703,3.28742 3.96334,0 m 49.92575,-115.61267 c -1.96631,-0.67591 -9.21706,7.86523 -7.89595,9.21707 a 21.813713,21.813713 0 0 0 7.89595,-9.21707 m 1.32111,-1.32111 c 1.29039,0.6452 5.89892,-1.96631 5.25373,-2.64222 -0.6452,-0.67592 -6.57484,-3.28742 -6.57484,-1.96631 a 6.1447079,6.1447079 0 0 0 1.32111,4.60853 m 88.66814,81.4481 c 2.64222,-0.64519 1.9663,-4.60853 0,-4.60853 -1.96631,0 -4.60854,3.28742 -3.93262,3.28742 0.67592,0 2.6115,1.96631 3.93262,1.32111 m -32.19827,-87.40847 c -1.96631,0 -2.6115,1.99703 -0.6452,3.28742 a 5.407343,5.407343 0 0 0 4.60853,-0.64519 4.4241897,4.4241897 0 0 0 2.6115,-3.93261 c 0,-1.99703 -2.6115,-4.60854 -1.32111,-5.92965 1.29039,-1.32111 3.28742,0.67592 4.60853,0 a 3.5946541,3.5946541 0 0 0 1.96631,-3.28742 c 0,-1.29038 -0.6452,-5.25372 -3.28742,-5.25372 -2.64222,0 -5.25373,5.25372 -5.25373,5.25372 a 5.7145784,5.7145784 0 0 0 0,4.60853 c 0.67592,2.61151 0,5.89892 -3.28741,5.89892" id="path931" stroke-width="3.072"/><path class="cls-1" d="m 508.09455,191.79913 a 121.48088,121.48088 0 0 0 3.96334,11.82856 c 0.64519,1.9663 1.32111,9.21706 2.6115,8.54114 1.29039,-0.67592 1.32111,-4.60853 0.67592,-6.57484 a 85.565058,85.565058 0 0 0 -3.28742,-13.79486 c -0.67592,-2.64223 -5.25373,-12.47376 -6.57484,-11.82857 -1.32111,0.6452 1.96631,6.57484 2.6115,9.21706 0.64519,2.64223 -0.64519,1.32112 0,2.64223 M 485.11334,80.14978 c 1.96631,0.6452 1.96631,-3.28742 -1.32111,-5.89892 -3.28742,-2.6115 -8.54114,-1.32111 -7.22003,0 a 40.18639,40.18639 0 0 0 8.54114,5.89892 M 386.58295,51.91485 c -4.60853,-2.64222 -0.64519,-6.57484 -3.93261,-9.21706 a 10.015874,10.015874 0 0 0 -10.50745,1.9663 c -3.28742,3.96334 3.93261,2.64223 5.89892,3.96334 1.9663,1.32111 8.54114,5.89892 9.21706,5.25373 a 1.2596651,1.2596651 0 0 0 -0.6452,-1.96631 M 412.8823,38.76517 c -5.89892,-2.64222 -27.65118,-2.64222 -26.91382,3.28742 0.73737,5.92965 12.47376,0 15.76118,0 3.28742,0 16.40637,-0.67591 11.15264,-3.28742 m -59.81873,253.53065 c -1.29039,-0.64519 -3.2567,0.6452 -3.93261,-0.64519 -0.67592,-1.29039 -1.96631,-0.67592 -1.96631,0 a 3.3795894,3.3795894 0 0 0 0.64519,3.28742 4.0555072,4.0555072 0 0 0 5.25373,0 1.9663065,1.9663065 0 0 0 0,-2.64223 m -12.47376,-43.99611 c 1.96631,0 1.96631,-1.32111 2.64223,-1.32111 0.67591,0 0,1.32111 1.9663,1.32111 1.96631,0 3.93262,-4.60853 -1.9663,-4.60853 -4.60853,0 -3.96334,4.60853 -2.64223,4.60853 m 7.89595,5.25373 c -3.28742,-0.67592 -2.64222,1.29039 -5.25372,1.29039 -3.96334,0.67592 -0.67592,-2.6115 -1.96631,-3.93261 -0.67592,-0.6452 -2.64222,2.64222 -3.28742,4.60853 0,1.32111 0,3.93261 1.29039,4.5778 l 12.50448,1.32112 c 2.6115,0 0,-7.22004 -3.28742,-7.86523 m -40.73941,42.675 c 1.32111,0 1.96631,-3.93262 1.32111,-5.89892 -0.64519,-1.96631 -4.60853,-0.6452 -4.60853,0.64519 a 10.41528,10.41528 0 0 0 3.28742,5.25373 m -52.53727,0 c 0,-1.29039 0,-6.54412 -1.32111,-7.86523 -1.32111,-1.32111 -1.32111,0.64519 -1.9663,0.64519 -0.6452,0 -0.67592,-2.6115 -1.32112,-2.6115 -0.64519,0 0,3.93262 1.32112,6.54412 1.32111,2.6115 3.28741,6.57483 3.28741,3.28742 m -1.32111,-11.79784 a 37.144759,37.144759 0 0 0 1.96631,-11.82857 7.004967,7.004967 0 0 0 -2.6115,-5.92964 c -0.67592,0 0,1.96631 0.64519,5.25373 a 53.397512,53.397512 0 0 1 -1.9663,9.86225 c 0,0.6452 1.32111,3.93262 1.9663,2.64223" id="path933" stroke-width="3.072"/><path class="cls-1" d="m 186.87993,431.56562 a 249.90527,249.90527 0 1 0 0,-353.3207 249.38297,249.38297 0 0 0 0,353.3207 M 124.48042,260.09755 h 38.09719 a 207.59896,207.59896 0 0 0 9.86226,57.05361 23.933637,23.933637 0 0 1 -5.92965,-2.64223 c -2.6115,-1.32111 -4.5778,0.6452 -5.25372,0.6452 -2.6115,0 -5.89892,-1.96631 -5.89892,0 0,1.9663 2.6115,0.67592 2.6115,1.99703 0,1.32111 -6.57484,1.29039 -7.22003,-1.32111 -0.6452,-2.6115 -1.96631,-5.25373 -2.6115,-1.96631 -0.6452,3.28742 -3.28742,2.6115 -4.60853,3.28742 a 5.0386605,5.0386605 0 0 0 -1.32111,3.25669 c 0,1.32112 -3.28742,0.67592 -3.28742,2.64223 0,1.9663 1.9663,2.64222 2.64222,4.60853 0.67592,1.9663 2.6115,3.28742 1.32111,3.93261 -1.29039,0.6452 -0.67591,-0.64519 -1.99703,0 -1.32111,0.6452 5.92965,20.36971 7.25076,19.69379 1.32111,-0.67592 -1.99703,-6.54411 -1.99703,-9.21706 a 4.4549132,4.4549132 0 0 1 2.64222,-4.60853 c 1.96631,-1.29039 7.22003,7.89595 9.21706,6.57484 1.99703,-1.32112 -0.64519,-2.61151 1.32112,-3.28742 1.9663,-0.67592 7.89595,8.54114 9.86225,5.92964 1.32112,-1.96631 2.6115,1.29039 2.6115,1.96631 1.96631,3.28741 5.25373,3.28741 7.22004,7.22003 1.9663,3.93261 6.57483,11.18337 9.86225,11.18337 3.28742,0 1.32111,-3.28742 2.64223,-3.28742 1.32111,0 2.6115,4.5778 4.5778,7.22003 a 9.5550208,9.5550208 0 0 0 5.92965,3.93261 c 4.5778,5.92964 9.86225,11.82857 15.11598,17.72748 l -26.94455,26.94455 a 230.70306,230.70306 0 0 1 -65.68692,-159.7624 m 217.4305,-54.50356 -2.64223,1.32111 a 36.868248,36.868248 0 0 0 -9.83153,6.54412 l -26.94454,-26.91382 a 90.204312,90.204312 0 0 1 55.76322,-22.73542 v 38.09719 a 53.336065,53.336065 0 0 0 -13.79487,3.28742 24.210149,24.210149 0 0 1 3.93262,-5.25373 21.260689,21.260689 0 0 0 -6.57484,5.92964 m -20.43116,62.39951 v 0 1.32112 c 0,-1.32112 -0.64519,-1.96631 -1.32111,-3.28742 -0.64519,-0.67592 -1.29039,-1.32112 -1.9663,-1.32112 h -3.16453 l -1.29039,0.6452 h -9.21706 c -1.29039,0 -1.96631,0 -1.96631,-0.6452 -0.64519,-2.6115 3.28742,-0.64519 5.92965,-8.54114 0.64519,-0.64519 0.64519,-1.96631 1.29039,-2.6115 l 0.67591,-1.32111 0.6452,-0.67592 0.64519,-0.64519 a 4.8543193,4.8543193 0 0 1 3.96334,-1.32112 h 1.32111 l 1.29039,1.32112 1.96631,3.93261 c 0.67591,0.67592 1.32111,0.67592 1.32111,1.32111 a 9.2170619,9.2170619 0 0 1 2.64222,1.96631 l 0.6452,0.67592 v 0.64519 c 0.64519,0.64519 0.64519,0.64519 1.32111,0.64519 h 2.6115 c 1.32111,-0.64519 1.32111,0 1.99703,0 v 0.67592 c 0,0.6452 0,0.6452 -0.67592,1.32111 0,0.6452 -0.64519,0.6452 -0.64519,1.29039 -0.67592,0.67592 -1.32111,1.32111 -1.96631,1.32111 a 28.142762,28.142762 0 0 1 -3.28742,-0.64519 c -0.67592,0 -1.32111,0 -1.32111,0.64519 v 3.28742 m -72.10816,63.07542 a 24.148702,24.148702 0 0 1 -2.6115,-11.82856 22.182396,22.182396 0 0 0 -3.53321,-11.30626 31.921758,31.921758 0 0 1 -1.32111,-7.86523 c 0,-4.60852 -3.93261,-3.28741 -3.93261,-4.60852 0,-1.32111 3.25669,0 3.25669,-1.32111 a 15.669005,15.669005 0 0 0 -7.22003,-7.71161 c -3.28742,-1.32111 -1.96631,-3.28742 -1.96631,-5.25373 a 6.9742435,6.9742435 0 0 0 -1.32111,-5.25372 c -0.64519,-2.64223 0,-7.25076 3.28742,-7.25076 1.32111,0 3.28742,1.32111 5.25373,0 1.9663,-1.32111 0.67591,-5.25372 0.67591,-8.54114 h 18.43413 c 0,2.64222 0.67592,5.92964 0.67592,8.54114 -1.32112,0.67592 -1.96631,1.99703 -1.32112,2.64223 0.6452,0.64519 1.32112,1.32111 1.96631,0.64519 a 101.57202,101.57202 0 0 0 25.00896,51.33903 l -26.94454,26.94454 a 71.493677,71.493677 0 0 1 -5.89892,-7.25076 v -1.9663 c 0,-4.57781 -3.28742,-7.22003 -4.60853,-11.15265 m -23.65713,-44.67201 a 155.39966,155.39966 0 0 1 -3.28742,-24.97824 h 15.76118 c -1.29039,1.99703 -4.57781,3.96333 -5.25373,5.92964 -0.67592,1.96631 -4.5778,8.54115 -1.9663,11.15265 5.92964,6.57483 -1.32112,9.21706 -5.25373,7.89595 m 3.28742,97.20927 -3.28742,3.28741 -4.60853,-4.5778 a 7.1585847,7.1585847 0 0 1 7.89595,1.29039 M 269.00395,213.4285 c -0.67591,0 -0.67591,0.67592 -1.32111,0.67592 -1.96631,1.9663 -7.22003,1.29038 -6.57484,3.28741 0.6452,1.99703 14.47079,-4.60853 14.47079,-3.28741 0,1.32111 -5.92964,3.28741 -9.86226,5.25372 -3.93261,1.96631 -5.25372,5.25373 -11.82856,5.25373 -3.28742,0 -4.60853,2.6115 -5.89892,4.5778 a 49.157663,49.157663 0 0 0 -4.60853,7.89595 25.86922,25.86922 0 0 1 -2.64222,11.82857 h -19.0486 a 142.15782,142.15782 0 0 1 37.452,-90.66517 l 26.94454,26.94454 a 178.19653,178.19653 0 0 0 -17.08229,28.23494 m 24.94752,-19.69379 23.65713,23.65712 h -2.64222 c -2.6115,0 -2.6115,-1.99703 -4.57781,-1.99703 -3.96333,0.67592 -4.60853,1.99703 -5.25372,1.32112 a 38.312254,38.312254 0 0 0 -9.86227,-6.57484 18.188335,18.188335 0 0 0 -13.14968,0.67592 c -0.64519,0 -0.64519,0.64519 -1.29038,0.64519 4.5778,-5.89892 9.21706,-11.82856 13.11895,-17.72748 M 261.108,241.69415 c 0,2.6115 -0.64519,5.25373 -0.64519,7.86523 h -13.79487 a 6.605561,6.605561 0 0 1 1.32111,-5.89892 7.0664141,7.0664141 0 0 1 7.86523,-3.28742 19.509448,19.509448 0 0 1 5.25372,1.32111 m 11.82857,30.87716 1.32111,1.96631 c 1.32111,1.32111 2.6115,2.6115 3.93261,1.9663 a 14.255722,14.255722 0 0 1 5.25373,0 11.705669,11.705669 0 0 1 4.60853,3.28742 c 1.32111,1.96631 3.93261,0.6452 5.89892,1.96631 1.9663,1.32111 3.93262,2.64222 1.32111,3.93261 -2.6115,1.29039 2.61151,3.96334 3.28743,3.96334 0.67592,0 1.32111,-1.32111 1.32111,-3.28742 0,-0.67592 1.29039,-3.28742 3.28742,-2.64222 1.99703,0.64519 7.86523,7.89595 9.83153,5.25372 1.96631,-2.64222 0.67592,-5.89892 1.32112,-7.22003 a 1.4132828,1.4132828 0 0 1 1.32111,-1.32111 39.418301,39.418301 0 0 0 5.89892,8.54114 l -26.91383,26.94454 a 82.677045,82.677045 0 0 1 -21.69082,-43.35091 m 21.0149,-93.95258 -26.26863,-26.91382 a 141.91203,141.91203 0 0 1 90.60373,-37.3291 v 38.09718 a 100.34308,100.34308 0 0 0 -64.51944,26.26863 M 259.60255,143.93185 232.68873,116.98731 A 190.88535,190.88535 0 0 1 358.28657,65.00308 v 38.09719 a 151.37488,151.37488 0 0 0 -98.56113,40.73941 m -7.86522,7.22003 a 152.72672,152.72672 0 0 0 -40.67797,98.49967 H 173.08506 A 190.79318,190.79318 0 0 1 224.97712,124.08444 Z M 211.1208,260.09755 a 116.1657,116.1657 0 0 0 1.96631,21.04563 c -0.64519,0 -0.64519,-1.99703 -2.6115,-1.32111 -1.96631,0.67591 -9.21706,13.11895 -12.47376,18.43411 -2.64222,4.57781 1.29039,14.44006 -2.64222,17.72748 a 36.868248,36.868248 0 0 1 -11.82856,1.96631 h -0.6452 A 186.21537,186.21537 0 0 1 172.37842,261.44939 Z M 357.61065,493.96513 A 236.7556,236.7556 0 0 1 197.84824,427.63301 l 26.91382,-26.94455 a 201.30063,201.30063 0 0 0 132.69498,55.30237 z m 0,-48.60464 a 190.9468,190.9468 0 0 1 -125.2906,-51.89206 l 4.60853,-4.60853 a 13.026781,13.026781 0 0 0 3.28742,1.96631 14.440064,14.440064 0 0 0 9.21706,1.32111 c 2.64222,-0.6452 7.89595,-5.25373 11.18337,-5.25373 3.28742,0 8.54114,1.32111 11.82856,-0.64519 3.28742,-1.96631 -1.99703,-8.54115 -3.96334,-11.82856 -0.64519,-0.67592 -0.64519,-1.32112 -1.29039,-1.96631 a 147.8724,147.8724 0 0 0 91.95557,34.80977 z m 0,-49.15766 A 141.88131,141.88131 0 0 1 266.9762,358.78155 l 26.91382,-26.94454 a 101.66419,101.66419 0 0 0 44.67204,23.65713 c -5.89892,2.6115 -8.54115,6.54411 -7.86523,9.83153 0.67592,3.28742 -3.96333,5.25372 -3.96333,9.21706 0,3.96334 5.25372,6.57484 5.92964,10.50745 0.64519,1.96631 5.25372,5.25372 9.21706,7.86523 a 39.940601,39.940601 0 0 0 15.11598,1.32111 z m -1.32111,-52.53726 c -1.96631,-1.32111 -3.28742,1.32111 -5.89892,2.6115 a 94.536331,94.536331 0 0 1 -48.60464,-22.33601 l 26.91382,-26.91382 a 53.581853,53.581853 0 0 0 28.91085,11.82856 c 0,1.29039 1.32112,2.6115 1.32112,5.25373 0,2.64222 -1.96631,3.93261 -1.32112,5.25372 0.6452,1.32112 6.57484,0 7.22004,-1.9663 0.64519,-1.96631 -1.96631,-3.28742 -2.61151,-5.25373 -0.67591,-1.32111 -0.67591,-1.99703 -1.32111,-3.28742 h 1.96631 a 17.788929,17.788929 0 0 0 5.92964,-0.67592 1.3825593,1.3825593 0 0 0 1.29039,-1.32111 c 0,-0.64519 0.67592,-1.29039 0.67592,-1.9663 0,-0.67592 0.64519,-0.6452 0.64519,-1.29039 v 0 l 0.67592,0.64519 c 0.64519,1.32111 1.96631,5.25373 3.2567,4.60853 1.29038,-0.64519 1.99703,-6.57484 1.32111,-7.89595 a 4.8850428,4.8850428 0 0 1 0,-5.89891 c 0,-0.67592 0.67592,-4.60853 1.9663,-3.96333 1.29039,0.64519 0,3.96333 0,5.25372 0,1.99702 1.32112,4.60852 3.28742,3.28741 1.32112,-0.64519 2.64223,-2.6115 3.96334,-1.96631 1.32111,0.6452 -3.28742,1.96631 -3.96334,3.28742 -0.67591,1.32111 1.96631,1.96631 1.32112,2.64223 -0.6452,0.67591 -1.32112,0 -1.96631,0.64519 -0.6452,0.6452 1.32111,4.60853 0,5.25373 -1.32111,0.64519 -5.92964,1.9663 -7.22003,2.64222 -1.29039,0.67592 -2.64223,-0.67592 -1.96631,-1.32111 0.67592,-0.6452 0,-3.28742 -1.32111,-3.28742 -1.32111,0 -1.32111,0.64519 -1.32111,1.96631 0,1.32111 1.32111,3.28741 1.32111,3.93261 0,0.64519 -1.96631,1.32111 -3.28742,1.96631 a 19.417277,19.417277 0 0 1 -5.25373,5.25372 c -1.9663,1.32111 -5.92964,1.32111 -5.92964,2.64223 0,1.32111 1.99703,1.32111 2.64223,1.9663 1.32111,1.96631 1.9663,4.60853 -0.6452,5.92965 -2.6115,1.32111 -5.92964,-1.99703 -7.25075,-1.32112 -1.32112,0.67592 -1.96631,3.93262 -2.6115,7.86523 -0.6452,3.93261 7.22003,5.25372 11.15264,3.28742 2.64222,-1.29039 1.96631,-5.25373 4.60853,-6.57484 2.64223,-1.32111 1.96631,-3.93261 4.60853,-3.25669 2.64223,0.67591 1.96631,-1.99703 4.57781,-1.99703 2.6115,0 2.64222,1.99703 5.92964,2.64222 5.25373,1.32111 5.25373,5.25373 5.89892,3.28742 0.6452,-1.96631 1.32111,-3.28742 -2.6115,-4.60853 -3.93261,-1.32111 -5.92964,-5.89892 -2.64222,-4.57781 3.93261,1.96631 7.22003,1.96631 7.89595,3.93261 0.67591,1.96631 4.5778,1.32112 5.25372,3.28742 0.6452,3.28742 3.28742,0 1.32111,-1.9663 -1.9663,-1.96631 -1.32111,-2.64223 0,-3.96334 1.32112,-1.32111 1.96631,0.67592 3.93262,-1.96631 1.9663,-2.64222 -0.67592,-1.9663 -1.32112,-3.28742 -0.64519,-1.32111 0,-8.54114 2.64223,-7.22003 2.64222,1.32111 5.25372,-0.64519 3.93261,-1.32111 -1.32111,-0.67592 0.6452,-4.57781 1.32111,-4.57781 0.67592,0 0,2.6115 0.6452,3.28742 0.64519,0.67592 7.22003,-1.99703 7.89595,1.29039 0.67592,3.28742 -4.60853,5.25373 -5.92964,5.25373 -2.61151,0 -4.60854,2.64222 -6.57484,5.25372 -1.96631,2.6115 -3.93262,3.28742 -2.6115,5.92964 1.32111,2.64223 3.93261,1.96631 6.57483,0.6452 2.64223,-1.32111 4.57781,-3.28742 5.89892,-3.93262 2.64223,-1.32111 4.60854,6.57484 3.28742,7.86523 -1.32111,1.29039 -3.93261,1.99703 -5.25372,3.28742 a 27.651186,27.651186 0 0 1 -12.47376,3.96334 c -2.64222,0.64519 -2.64222,1.29038 -3.28742,3.93261 -0.64519,2.64222 -12.47376,0.64519 -15.11598,0.64519 -2.64222,0 1.96631,-5.89892 -1.96631,-5.25372 l -11.82856,1.9663 c -0.64519,0 -4.60853,3.28742 -7.89595,0.67592 m 34.8405,61.0784 a 21.721542,21.721542 0 0 1 8.54114,6.57484 c 1.96631,3.28742 2.6115,4.60853 1.29039,7.89595 -3.28742,5.89892 -1.96631,9.83153 4.60853,11.82856 3.93261,1.29039 5.25372,5.25372 7.89595,7.86523 a 203.97358,203.97358 0 0 1 -44.67203,6.57483 v -38.09719 c 7.22003,-0.67591 15.08526,-1.32111 22.33602,-2.64222 m -22.33602,-7.86523 v -4.60853 c 8.54115,-1.32111 6.54412,3.93262 12.47376,1.96631 a 5.1308311,5.1308311 0 0 1 5.25372,1.32111 156.41354,156.41354 0 0 0 -17.72748,1.32111 m 0,97.85448 v -38.86528 a 198.7813,198.7813 0 0 0 58.37473,-10.50745 2.3964361,2.3964361 0 0 0 1.9663,0.64519 13.702699,13.702699 0 0 0 7.22004,-2.6115 77.822726,77.822726 0 0 0 17.72748,-9.86225 199.70301,199.70301 0 0 0 47.31425,-33.48866 l 26.91382,26.91382 a 238.01526,238.01526 0 0 1 -159.60879,67.59179 m 106.39562,-343.55062 9.21706,-9.21706 a 16.40637,16.40637 0 0 0 9.21706,5.25373 5.6224077,5.6224077 0 0 1 5.25373,5.25372 c 0.67592,3.28742 3.93261,4.60853 7.22003,5.25373 3.28742,0.64519 5.25372,4.60853 7.89595,4.60853 2.64222,0 11.15264,11.79784 14.44006,15.76118 1.96631,1.9663 4.60853,5.25372 6.57484,2.6115 1.96631,-2.64223 1.96631,-1.96631 3.28742,-2.6115 a 193.18962,193.18962 0 0 1 16.7136,71.64729 h -38.28153 a 114.38374,114.38374 0 0 0 -3.25669,-25.62343 18.434124,18.434124 0 0 0 1.96631,-8.54115 2.6115009,2.6115009 0 0 0 -4.60854,-1.9663 95.242973,95.242973 0 0 0 -5.25372,-14.44007 c -0.64519,-2.64222 -1.32111,-5.89892 -1.96631,-8.54114 0,-0.64519 -1.32111,-1.32111 -2.64222,-2.64222 a 56.254801,56.254801 0 0 0 -3.28742,-6.54412 c 1.99703,-1.32111 2.64222,-4.60853 0,-3.96334 -3.93261,0.67592 -1.29039,-1.9663 -2.6115,-3.28741 -1.32111,-1.32112 -1.32111,0 -1.96631,0.67591 A 180.77731,180.77731 0 0 0 475.927,152.3501 v -0.64519 c -1.32111,0 -1.32111,-0.67592 -0.67591,-0.67592 m 23.01193,222.6842 c -1.32111,-2.6115 -1.96631,-5.89892 -3.28742,-8.54114 -0.67592,-2.6115 -5.92964,-2.6115 -5.92964,-1.29039 a 32.413334,32.413334 0 0 1 -0.6452,7.86523 v 0.70664 l -13.79487,-13.79487 a 152.72672,152.72672 0 0 0 40.73942,-98.56111 h 38.09718 a 188.02806,188.02806 0 0 1 -51.89205,124.82974 l -1.96631,-1.96631 a 15.853346,15.853346 0 0 0 -1.32111,-9.21706 m -31.55308,26.36079 c 1.99703,-3.28741 5.92965,-9.21706 7.89595,-12.50448 1.96631,-3.28741 -5.25372,-7.86522 -9.21706,-9.21706 -3.96334,-1.35183 -3.96334,-3.28742 -3.96334,-6.57484 a 41.599673,41.599673 0 0 0 5.92965,-5.25372 l 26.91382,26.94454 a 188.42747,188.42747 0 0 1 -28.88013,22.33602 c -0.67592,-1.32112 3.93261,-5.92965 5.25373,-7.89595 1.32111,-1.96631 -5.25373,-4.57781 -3.96334,-7.86523 m 16.43709,-157.028 c -3.28742,-4.57781 1.32111,-5.25373 5.89892,-7.22003 2.64223,-1.29039 5.92965,0.67592 5.92965,-0.6452 a 6.7591787,6.7591787 0 0 1 2.6115,-4.60853 9.6471914,9.6471914 0 0 0 3.96333,-3.28742 c 0,1.32112 0.6452,2.64223 0.6452,3.96334 a 14.778023,14.778023 0 0 0 -1.96631,7.22003 c 0,1.96631 0,4.57781 1.96631,0 0,-0.67592 0.64519,-0.67592 0.64519,-1.32111 a 42.337038,42.337038 0 0 1 1.32111,12.47376 h -28.23493 v -0.6452 c 1.96631,-3.28742 9.21706,-2.64222 7.22003,-5.92964 m 5.25373,-53.85837 a 0.64519433,0.64519433 0 0 1 -0.6452,0.67592 c -0.67591,0.6452 -3.96333,-4.60853 -3.96333,-0.67592 0,3.93262 1.32111,5.25373 3.96333,5.92965 2.64223,0.67592 1.29039,1.9663 3.28742,2.6115 a 5.0386605,5.0386605 0 0 1 2.6115,1.32111 125.65928,125.65928 0 0 1 7.22004,22.33601 9.2170619,9.2170619 0 0 0 -2.61151,1.96631 c -1.32111,1.32111 -0.67591,3.93261 -1.9663,5.89892 -1.99703,3.28742 -2.64223,5.28445 -7.89595,3.96334 -3.28742,-1.32112 -0.6452,-5.25373 0,-8.54115 0.64519,-3.28742 1.9663,-2.64222 1.9663,-4.60853 0,-1.9663 -6.57483,-9.21706 -9.86225,-6.57484 -3.28742,2.64223 -2.6115,5.25373 -5.25373,7.89595 -1.29039,1.32112 -2.6115,1.32112 -4.5778,0 -1.96631,-1.32111 -2.64223,-2.64222 -1.96631,-3.93261 0.67592,-1.29039 -4.60853,-7.25075 -6.57484,-9.86226 a 13.733422,13.733422 0 0 0 -10.50745,-5.25372 102.21722,102.21722 0 0 0 -12.50448,-17.08229 l 26.94454,-26.94454 a 142.15782,142.15782 0 0 1 22.33602,30.72354 m -45.31722,18.43412 -1.32112,1.96631 c -0.64519,1.32111 -3.93261,-1.32112 -4.60853,-0.6452 -0.67591,0.67592 4.60853,7.22003 -0.64519,5.25373 -5.25373,-1.96631 -1.96631,-1.96631 -1.96631,-3.96334 0,-1.99703 -4.60853,-3.25669 -1.9663,-4.57781 2.64222,-1.32111 0,-3.28741 2.6115,-3.96333 2.6115,-0.67592 1.9663,-3.2567 -1.32111,-3.93262 -3.28742,-0.67591 -2.61151,7.22004 -4.57781,5.92965 a 17.788929,17.788929 0 0 0 -5.92965,-0.67592 l 9.21707,-9.21706 a 5.9603667,5.9603667 0 0 0 3.28742,0.64519 41.507502,41.507502 0 0 0 7.22003,13.14968 m -10.50745,133.34015 a 86.025911,86.025911 0 0 1 12.47375,2.64222 c 2.6115,1.32112 4.60853,3.93262 6.57484,0.6452 a 51.953505,51.953505 0 0 0 7.86523,-19.69379 c 1.32111,-9.86226 -0.6452,-13.14968 -1.96631,-13.14968 -1.32111,0 -3.93261,2.64223 -6.57484,2.64223 -1.29039,0 -1.29039,2.6115 -1.29039,4.57781 0,1.9663 -2.64222,3.96333 -3.28741,2.64222 -0.6452,-1.32111 -1.99703,-0.67592 -1.32112,0.6452 0.67592,1.32111 -5.25372,0.67591 -7.89595,-0.6452 -3.93261,-1.96631 4.60853,-1.96631 8.54115,-5.25372 a 128.85453,128.85453 0 0 0 9.86225,-9.21707 c 1.96631,-3.25669 1.96631,-7.22003 5.25373,-9.83152 3.28742,-2.6115 8.54114,-1.96631 9.21706,-5.92964 0.67592,-3.96334 1.32111,-3.28742 3.28742,-2.6115 1.96631,0.67591 20.36971,-0.67592 20.36971,-6.57484 0,-2.64223 -3.93262,-5.89892 -7.86523,-6.57484 -2.64222,0 -3.28742,-5.25372 -4.60853,-7.86523 a 50.07937,50.07937 0 0 0 -4.60853,-7.89594 h 27.65118 a 142.06565,142.06565 0 0 1 -37.45199,90.66515 l -0.64519,-0.67592 v -2.6115 c 0.64519,-5.25372 -3.28742,-13.79487 -4.60854,-12.50448 -1.32111,1.29039 0,1.32111 -3.93261,7.25076 -1.32111,1.9663 -3.28742,5.25372 -5.89892,5.25372 -2.6115,0 -2.64222,-1.32111 -6.57484,-0.67591 a 27.466844,27.466844 0 0 1 -10.50745,0 72.169594,72.169594 0 0 1 -17.7582,-8.54115 c 0.67592,-0.64519 2.64222,0.67592 2.64222,-1.29039 0,-1.9663 10.50745,3.93262 13.14968,4.57781 m 103.1082,79.4818 -26.91382,-26.79093 a 201.30063,201.30063 0 0 0 55.30237,-132.69496 h 38.74238 a 235.55738,235.55738 0 0 1 -67.00804,159.7624 m 66.8237,-170.97649 h -38.74238 a 195.55533,195.55533 0 0 0 -19.72452,-81.4481 l 0.67592,-0.6452 c 2.6115,-2.64222 -12.47376,-22.33601 -15.11598,-24.30232 a 111.18849,111.18849 0 0 1 -8.66404,-8.51042 117.24103,117.24103 0 0 1 -14.44006,-17.08229 L 534.9162,89.3054 a 234.88146,234.88146 0 0 1 67.59179,160.2847 M 368.85547,15.75324 a 239.64361,239.64361 0 0 1 160.28471,66.33213 l -26.29935,26.14573 c -1.29039,-0.6452 -2.61151,-1.29039 -1.96631,-2.6115 1.32111,-1.96631 -1.96631,-1.96631 -2.6115,-7.22004 a 20.92273,20.92273 0 0 0 -9.86226,-12.50448 c -3.28742,-1.9663 -5.25372,-4.5778 -8.54114,-5.89892 -3.28742,-1.32111 -9.86226,-5.25372 -13.14968,-3.93261 a 23.534231,23.534231 0 0 1 -6.54411,1.29039 200.56327,200.56327 0 0 0 -90.66517,-23.6264 z m 0,49.15767 a 193.89626,193.89626 0 0 1 80.80291,20.3697 27.128885,27.128885 0 0 0 5.25372,11.82857 60.924779,60.924779 0 0 0 5.25373,9.21706 c 1.96631,1.9663 0.64519,5.92964 1.29039,9.21706 0,1.29039 1.32111,2.6115 1.99703,3.93261 v 5.25373 c 0,0.64519 2.6115,0.64519 4.5778,-0.67592 1.96631,-1.32111 3.28742,-3.93261 5.92965,-3.25669 2.64222,0.67591 5.89892,5.89891 7.86522,9.21706 l -12.47375,12.47375 c -1.32112,-2.6115 -2.64223,-5.89892 -1.96631,-5.89892 0.67592,0 1.96631,0.6452 2.6115,0.6452 2.64223,0 -1.96631,-1.96631 -1.96631,-2.6115 -1.9663,-1.99703 -1.9663,-4.60853 -4.5778,-6.57484 -2.6115,-1.96631 -6.57484,-0.67592 -7.89595,-3.28742 A 35.977265,35.977265 0 0 0 445.04985,112.9318 c -0.67592,0 5.25372,7.22003 3.28742,8.54114 -1.96631,1.32112 -9.21707,-4.60853 -9.86226,-3.28742 -0.64519,1.32112 7.89595,4.60854 10.50745,7.22004 1.32111,1.32111 3.93261,5.25372 6.57484,8.54114 a 152.9725,152.9725 0 0 0 -86.70183,-30.87716 z m 0,48.60464 a 142.06565,142.06565 0 0 1 90.63444,37.45199 l -26.91382,26.94455 a 104.46003,104.46003 0 0 0 -63.72062,-26.26863 z m 0,49.15766 a 90.726612,90.726612 0 0 1 55.82467,22.98121 l -1.32111,1.32111 -1.29039,-0.64519 c -3.28742,-1.32112 -9.86226,5.25372 -8.54114,5.89891 1.32111,0.6452 3.93261,-2.6115 5.25372,-1.9663 h 0.6452 l -11.15265,11.82856 c -3.28742,1.32111 -6.57484,3.93261 -6.57484,5.89892 v 0.67592 l -3.96333,4.02478 -1.96631,-1.9663 a 33.33504,33.33504 0 0 0 -10.50745,-5.92965 8.7562088,8.7562088 0 0 0 3.28742,-5.89892 c 0,-3.93261 -1.32111,-2.64222 -3.28742,-0.64519 -1.96631,1.99703 -3.93261,2.6115 -5.25373,4.57781 a 29.556045,29.556045 0 0 0 -10.50745,-1.96631 v -38.09719 z m -4.60853,48.60464 a 3.072354,3.072354 0 0 1 -0.6452,3.28742 v 0 c -1.32111,1.32111 -5.25372,-3.28742 -5.92964,0.64519 -1.32111,3.96334 2.64222,1.99703 2.64222,2.64223 a 12.289416,12.289416 0 0 0 7.86523,4.60853 c 2.64223,0 6.57484,0 6.57484,2.6115 0,1.32111 3.28742,1.32111 3.93261,2.64222 0,1.96631 1.99703,5.25373 3.28742,4.57781 1.29039,-0.67592 3.28742,0.67592 3.96334,1.99703 0.67591,1.32111 0,1.96631 -0.67592,3.2567 -1.96631,1.99703 1.96631,1.32111 2.64222,5.25372 0.67592,3.93261 -3.28742,1.32111 -3.96333,3.96334 -1.29039,1.9663 -2.6115,3.28742 -3.93262,5.25372 -0.64519,0.6452 0.67592,1.96631 1.32112,1.32112 0.64519,-0.6452 1.9663,-2.64223 3.93261,-2.64223 1.96631,0 3.93261,7.22003 5.92964,7.89595 1.99703,0.67592 1.29039,3.28742 1.96631,3.93261 0.67592,0.6452 -3.28742,0 -2.64223,1.32112 0.6452,1.32111 4.60854,1.9663 4.60854,3.93261 a 4.9157663,4.9157663 0 0 1 -4.60854,3.93261 c -1.9663,0 -5.25372,-4.57781 -5.25372,-3.28742 0,1.29039 1.32111,5.25373 3.28742,5.25373 1.9663,0 6.57484,-1.96631 4.60853,0.67592 -1.96631,2.64222 -1.32111,6.57483 -2.64223,6.57483 -1.32111,0 -1.9663,0 -0.64519,1.96631 a 6.6977316,6.6977316 0 0 1 -1.32111,5.89892 3.7175483,3.7175483 0 0 1 -4.60853,-0.64519 c 0,-0.67592 3.96333,-0.67592 3.96333,-2.64223 0,-1.96631 -1.9663,-2.6115 -5.92964,-1.29039 -1.96631,0.6452 -2.6115,-0.67592 -3.93261,-0.67592 -1.32111,0 -5.25373,4.60854 -5.25373,5.25373 v 3.28742 a 11.029751,11.029751 0 0 1 -1.9663,6.57483 27.651186,27.651186 0 0 1 -7.22004,0.64519 46.515439,46.515439 0 0 1 -28.91085,-11.15263 12.289416,12.289416 0 0 1 5.25373,-1.32112 c 1.9663,0.6452 2.6115,-0.64519 3.93261,-1.32111 1.32111,-0.67592 4.60853,1.32111 6.57484,0 1.96631,-1.32111 6.57484,-9.83153 5.89892,-11.82856 -0.67592,-1.99703 4.60853,-5.25373 3.96333,-5.89892 -0.64519,-0.6452 -1.32111,0.64519 -1.32111,0 0,-0.6452 1.32111,-0.6452 0,-3.28742 -1.32111,-2.64222 -3.28742,-1.32111 -4.60853,-1.32111 -1.9663,-1.29039 -5.25372,-1.96631 -5.89892,-1.29039 -0.64519,0.67592 -2.64222,-1.32111 -3.28742,-0.67592 a 2.1199242,2.1199242 0 0 0 -1.9663,1.96631 c -0.67592,1.32111 0.64519,2.64222 0.64519,3.96333 -0.64519,2.61151 -4.60853,4.57781 -4.60853,6.54412 0,1.9663 -1.96631,0.67592 -2.6115,1.32111 -0.64519,0.64519 0,1.96631 -1.32111,1.96631 -1.32111,0 -3.28742,3.28742 -4.57781,5.92964 -1.99703,-2.64222 -3.96334,-5.92964 -5.92964,-8.54114 1.32111,-0.67592 2.64222,-1.32112 3.28742,-0.67592 1.9663,1.32111 9.86225,-12.47376 8.54114,-16.40637 -1.32111,-3.93261 -3.28742,-1.32111 -5.25373,-0.67592 -1.9663,0.64519 -1.9663,-1.29039 -1.32111,-1.96631 0.6452,-0.67591 9.21706,-0.64519 4.60853,-3.28741 -1.9663,-1.29039 -7.22003,-1.29039 -6.57483,-3.2567 0.64519,-1.96631 3.28741,0 3.93261,0 3.28742,1.29039 5.25372,-5.28445 7.22003,-5.28445 3.28742,0 1.99703,-6.54411 -1.29039,-4.57781 -3.28742,1.96631 -4.60853,1.32112 -5.92964,3.28742 -1.32111,1.96631 -4.57781,4.57781 -4.57781,1.96631 0,-1.32111 7.22003,-5.25373 8.54115,-7.22003 a 14.501511,14.501511 0 0 0 3.25669,-5.25373 c 0.67592,-1.99703 9.86226,-3.28742 11.82856,-4.60853 a 8.1110145,8.1110145 0 0 0 2.64223,-5.25372 c 0,-1.96631 -2.64223,-1.32112 -3.28742,-2.64223 -0.6452,-1.32111 3.28742,0 3.28742,-1.96631 0,-1.9663 -3.28742,0 -4.60853,-1.32111 0,-0.64519 0,-0.64519 0.67591,-1.29039 a 42.244867,42.244867 0 0 1 14.44007,-2.64222 h 1.32111 M 358.28657,15.75324 V 53.85043 A 201.08557,201.08557 0 0 0 225.59159,109.1528 L 198.64705,82.20826 A 236.7556,236.7556 0 0 1 358.40947,15.87614 M 190.2288,90.10421 217.17334,117.01803 A 201.14701,201.14701 0 0 0 161.87097,249.713 H 123.8045 A 243.20754,243.20754 0 0 1 190.16735,90.10421" id="path935" stroke-width="3.072"/></svg>