<svg width="180" height="52" viewBox="0 0 180 52" fill="none" xmlns="http://www.w3.org/2000/svg">
<g clip-path="url(#clip0_26_11)">
<path d="M64.2891 32.4299C65.0565 32.3984 66.3146 32.3376 66.9873 32.3376C70.759 32.3376 72.0462 34.3 72.0462 36.4469C72.0462 38.8392 70.5744 40.0049 67.6309 40.0049H64.2866V32.4299H64.2891ZM61.7438 48.0073C61.7438 49.9406 61.2532 50.5234 58.7396 50.5234H58.0328V51.1063H69.2581C74.1956 51.1063 75.881 47.7013 75.881 45.28C75.881 42.8586 74.1956 41.0177 71.3127 40.1579V40.0972C73.3674 39.728 74.8076 38.1033 74.8076 36.3571C74.8076 34.8853 74.1956 33.841 72.9375 32.9521C71.8325 32.1531 69.4718 31.7548 66.7736 31.7548C66.1907 31.7548 63.8592 31.7839 62.1713 31.8471C61.2824 31.8786 59.167 32.0001 58.3073 32.0292V32.6121H59.3807C61.5277 32.6121 61.7438 33.5325 61.7438 35.2787V48.0049V48.0073ZM64.2891 40.5854H67.6018C71.1889 40.5854 73.0007 43.0092 73.0007 45.3698C73.0007 47.7305 71.8349 50.2757 67.7863 50.2757C65.2095 50.2757 64.2891 49.4475 64.2891 47.1185V40.5854Z" fill="#1D1D1B"/>
<path d="M106.944 32.6145V32.0316H99.49V32.6145C101.207 32.7068 101.79 33.1658 101.79 34.8222V47.8859C101.79 49.8798 101.411 50.3971 99.6551 50.5137C97.3163 50.3899 96.323 49.4743 94.6448 47.796L92.2234 45.3722C90.7832 43.9296 89.8628 43.0699 88.7286 42.1834C91.2423 41.4475 92.8063 39.5143 92.8063 37.2144C92.8063 34.0863 90.2611 31.7548 84.5877 31.7548C82.5938 31.7548 81.9794 31.7839 80.7237 31.8471C79.4657 31.9078 77.5956 32.0292 76.8597 32.0292V32.6121H77.5349C79.3127 32.6121 79.8348 33.1634 79.8348 35.065V47.9758C79.8348 50.0304 79.1913 50.521 77.3819 50.521H76.8597V51.1039H85.5398V50.521H84.833C83.116 50.521 82.3801 50.0596 82.3801 48.2211V43.0383C82.8707 43.0699 83.269 43.1015 83.9441 43.1015C84.7723 43.1015 85.2629 43.0699 86.0304 43.0383C86.7662 43.5289 87.8421 44.4178 89.19 45.7681L91.2131 47.7936C93.8652 50.4457 94.9945 51.286 99.9903 51.1039H106.944V50.521C104.828 50.521 104.338 49.9065 104.338 48.0972V35.0942C104.338 33.0395 105.013 32.6096 106.944 32.6096V32.6145ZM84.2842 42.521C83.5774 42.521 83.1184 42.5526 82.3825 42.4603V32.4008C82.9338 32.3401 83.3321 32.3401 83.915 32.3401C88.6412 32.3401 89.9259 34.5501 89.9259 37.4014C89.9259 41.0808 87.6891 42.5234 84.2817 42.5234L84.2842 42.521Z" fill="#1D1D1B"/>
<path d="M109.03 46.4456C109.676 49.1754 111.82 50.7686 114.213 50.7686C116.267 50.7686 118.443 49.5737 118.443 47.1499C118.443 42.7322 108.6 41.3843 108.6 36.0169C108.6 33.4693 110.931 31.5701 114.06 31.5701C116.634 31.5701 117.156 32.3375 118.23 32.3375C118.475 32.3375 118.596 32.2768 118.781 32.0315H119.271L119.794 35.9271H119.271C118.412 33.7194 116.449 32.3084 114.334 32.3084C112.219 32.3084 110.9 33.4717 110.9 35.1912C110.9 39.5458 120.746 40.7115 120.746 46.3533C120.746 49.36 118.077 51.5992 114.489 51.5992C112.801 51.5992 110.657 50.771 110.227 50.771C109.95 50.771 109.734 50.924 109.613 51.1086H109.09L108.447 46.448H109.03V46.4456Z" fill="#1D1D1B"/>
<path d="M132.551 48.2842C132.551 49.9405 133.103 50.5234 134.973 50.5234H136.109V51.1063H126.448V50.5234H127.585C129.455 50.5234 130.006 49.9405 130.006 48.2842V33.1342H124.67C123.444 33.1342 122.893 33.8385 122.431 36.5368H121.88L122.37 31.5677H122.953C122.985 31.7523 123.106 31.8762 123.291 31.9369C123.475 32.0001 123.689 32.0292 123.905 32.0292H138.657C139.087 32.0292 139.546 31.9369 139.609 31.5702H140.192L140.682 36.5392H140.129C139.67 33.841 139.118 33.1367 137.892 33.1367H132.556V48.2866L132.551 48.2842Z" fill="#1D1D1B"/>
<path d="M160.25 42.0595C160.25 46.414 157.858 50.8293 152.86 50.8293C147.862 50.8293 144.027 46.7832 144.027 41.0467C144.027 37.3649 146.171 32.3375 151.57 32.3375C156.631 32.3375 160.248 36.357 160.248 42.0595H160.25ZM163.133 41.0491C163.133 35.5288 158.164 31.5725 152.369 31.5725C145.839 31.5725 141.144 35.8955 141.144 41.9987C141.144 47.7352 146.205 51.5992 152.216 51.5992C158.227 51.5992 163.133 47.2446 163.133 41.0491Z" fill="#1D1D1B"/>
<path d="M177.382 51.1063H163.675V50.5234H164.687C166.098 50.5234 166.618 50.062 166.618 48.4979V34.912C166.618 33.2872 166.128 32.6121 164.197 32.6121H163.767V32.0292H172.814V32.6121H171.677C169.685 32.6121 169.163 32.8258 169.163 34.7274V48.8646C169.163 49.6928 169.501 50.0012 170.39 50.0012H174.897C176.707 50.0012 177.258 49.2945 179.191 46.6278H179.743L177.382 51.1039V51.1063Z" fill="#1D1D1B"/>
<path d="M34.1202 23.2641C34.0983 21.4791 33.4912 17.8312 29.2216 15.7596C33.5592 17.1366 35.6429 20.8015 35.8567 23.5337C40.4104 24.442 44.4493 26.5841 51.0091 24.3206L51.0309 24.306C51.0309 24.306 42.3995 24.3837 38.7881 21.7729C40.6533 21.8434 42.7978 21.4208 43.5021 20.3667C44.2525 19.2423 44.3303 18.0814 46.176 18.0207C47.2131 17.9867 50.7322 18.249 51.1014 13.0832C49.9769 14.9824 48.7553 15.7693 46.9143 15.3006C45.7389 15.0018 43.5944 14.1008 42.0595 15.9344C40.7941 17.4475 39.4341 18.2319 37.2629 17.9988C38.1347 16.8282 51.0674 0.0364426 51.0674 0.0364426C51.0674 0.0364426 34.499 13.3333 33.5834 14.1081C33.4086 11.6819 34.1347 10.7905 35.1086 9.72193C35.9052 8.85004 37.2896 7.66729 36.187 5.17305C35.2956 3.15727 35.4122 1.93565 37.8409 0.00244141C35.9052 0.143304 32.9544 1.44506 33.3017 4.99819C33.513 7.14513 31.9927 7.3297 31.4365 7.63571C29.9939 8.43231 29.8069 10.7541 29.7607 12.561C29.5956 11.9757 27.4972 2.95083 26.7589 0.0315853V24.3109H26.8148C29.6272 23.2034 31.966 23.0334 34.1202 23.2666V23.2641Z" fill="#B01C2E"/>
<path d="M50.9946 26.8051C40.0535 30.3923 36.3255 22.7954 26.7566 26.8051C26.7517 26.8051 26.7566 51.1136 26.7566 51.1136C37.1682 47.2447 37.5568 54.385 50.9946 51.1136V26.8051ZM31.1524 39.252C31.0966 39.2787 31.0674 39.3346 31.0504 39.3662C30.9484 39.5774 30.64 40.6728 30.5574 40.9788C30.4748 41.2824 30.3874 41.3309 30.2174 41.3819C30.0765 41.4257 30.0571 41.7632 30.1882 41.8045C30.5865 41.9284 30.4991 42.181 30.47 42.2417C30.47 42.3145 30.3364 43.014 29.841 43.5094C29.5835 43.0067 29.5204 42.5016 29.4742 42.385C29.4281 42.2684 29.4086 42.1154 29.4208 41.9988C29.4329 41.8822 29.3941 41.3771 29.3819 41.2484C29.3698 41.1196 29.4281 41.0055 29.4815 40.9084C29.5811 40.7262 30.2611 39.4414 30.5671 38.657C30.6813 38.3655 31.3589 38.0765 31.5216 38.147C31.7062 38.2247 31.9272 38.4918 32.9108 38.8926C32.9351 39.1621 32.9933 39.7013 33.1342 39.9247C32.9108 40.017 32.5489 40.0535 32.5489 40.0535C32.5489 40.0535 31.7353 39.3953 31.5799 39.2374C31.5556 39.2107 31.473 39.1646 31.4293 39.1719C31.3419 39.1864 31.2374 39.2156 31.15 39.2544L31.1524 39.252ZM40.374 47.1524C40.2089 47.0189 39.9442 47.2496 40.0802 47.4633C40.2453 47.7232 40.2332 47.8737 40.2332 47.8737C40.2332 47.8737 39.7062 48.4955 38.9678 48.6121C38.8974 48.5416 39.1549 47.575 39.4244 47.0407C39.6454 46.6036 39.7402 46.5186 40.0389 46.3777C40.3376 46.2368 41.5349 45.6321 41.9211 45.3164C42.3073 45.0006 42.4675 44.5295 42.4675 44.5295C42.4675 44.5295 42.8246 44.9982 43.2933 45.4621C43.1889 45.6321 40.8841 47.0966 40.7772 47.1864C40.6728 47.2739 40.4979 47.2544 40.3716 47.1524H40.374ZM45.6612 45.9162C45.5738 46.0741 44.5416 47.8276 44.2769 48.4542C44.136 48.7869 43.9782 48.7189 43.8907 48.7359C43.8033 48.7529 43.5216 48.8064 43.5507 49.1172C43.5726 49.3382 43.5313 49.4305 43.5313 49.4305H41.7559C41.8312 49.1731 42.0061 48.8404 42.6958 48.4712C42.9168 48.3546 43.1767 48.1093 43.3759 47.8155C43.4803 47.6625 44.0899 46.5671 44.1967 46.3145C44.2818 46.1105 44.255 45.7997 44.1506 45.6224C44.0437 45.4475 43.881 45.1415 43.6454 44.9545C42.8586 44.3255 42.3898 43.8276 41.7292 42.5453C41.6199 42.334 41.7511 42.096 40.6096 42.3995C37.8774 43.1257 35.8907 42.1251 35.8009 42.0474C35.8883 41.5252 36.0996 41.0856 35.7912 40.8574C35.6236 41.1925 35.456 41.4281 35.167 41.7535C35.0723 41.8604 34.9557 41.824 34.7444 41.807C34.5331 41.79 33.1609 41.6054 32.9326 41.5519C32.8379 41.5301 32.4493 41.6491 32.6776 42.096C32.7165 42.1713 33.0273 42.7226 33.3552 43.2131C33.5301 43.4779 33.3455 43.643 33.3916 43.847C33.4354 44.0437 33.5325 44.1118 33.6029 44.0923C33.6734 44.0753 33.9648 43.7256 34.1955 43.9685C34.419 44.204 34.572 44.9059 34.6181 45.6199C34.4238 45.6369 34.1494 45.5495 33.9017 45.3577C33.6709 45.1779 33.4645 44.8404 33.2168 44.6533C32.9715 44.4688 32.8573 44.4761 32.6801 44.3182C32.5222 44.1749 32.3643 44.0705 32.3109 43.6309C32.2575 43.1913 31.6187 41.7608 31.5192 41.5981C31.3783 41.3698 31.6479 40.9108 31.7644 40.7699C31.8689 40.6461 32.085 40.6315 32.3425 40.5732C32.7262 40.4858 33.3746 40.2113 33.5932 40.136C32.7408 38.521 33.7608 37.5349 33.8847 37.4548C34.1712 36.0583 34.7104 35.2909 34.9217 34.9921C35.4269 34.8853 35.9272 34.8294 36.17 33.8142C36.306 33.2435 36.0462 32.6363 35.8543 32.4421C35.9587 32.9691 35.9296 33.5519 35.643 33.9818C35.2374 34.589 34.5574 34.5064 34.4165 34.5064C34.2757 34.5064 34.1372 34.4797 34.0304 34.5938C33.9357 34.6934 33.6248 34.9751 33.4159 35.0917C33.2532 35.184 33.2799 35.2666 33.2629 35.4147C33.2459 35.5556 33.2289 35.6576 33.0711 35.6819C32.9035 35.7086 32.6533 35.5847 32.5222 35.5847C32.2696 35.5847 32.4226 35.4487 32.5659 35.2544C32.7019 35.0699 32.7408 35.1767 32.8646 35.1476C33.0225 35.1136 33.1196 35.0626 33.2435 34.8756C33.4305 34.5914 32.9715 34.5428 32.8379 34.6813C32.6922 34.8367 32.4955 35.1039 32.3716 35.2447C32.2477 35.3856 32.136 35.4414 32.0729 35.2714C32.0243 35.1451 31.9757 34.9023 31.9685 34.7784C31.5823 34.6716 31.9247 34.2514 31.9247 34.2514L33.0589 32.8671C33.0589 32.8671 32.8039 32.7043 32.9885 32.4032C33.0856 32.2453 33.7705 31.4269 34.2538 31.0844C34.1567 30.8124 34.0328 30.5404 33.7535 30.266C34.1834 30.3461 34.5355 30.3267 35.2059 31.031C35.3783 31.2131 35.5677 31.1573 35.5046 30.9776C35.4342 30.7784 35.32 30.6424 35.082 30.3534C37.1974 29.7924 38.2198 31.6552 38.3704 31.8665C37.9745 31.8397 37.6588 31.9029 37.4669 31.9636C37.3018 32.017 37.3139 32.0875 37.5617 32.1166C38.2635 32.1992 38.3704 32.2283 38.572 32.289C38.8634 32.6218 39.0213 33.4427 39.0018 33.4767C38.708 33.4937 38.334 33.4305 37.9235 33.4888C37.6102 33.5325 37.7171 33.6734 37.8409 33.688C38.3097 33.7462 38.7566 33.875 39.1063 34.028C39.2229 34.674 39.1937 35.1136 39.1937 35.1136C39.1937 35.1136 38.3728 35.0261 38.1567 35.0431C37.9405 35.0601 38.0474 35.2326 38.2611 35.3079C38.4603 35.3783 38.8707 35.5313 39.1403 35.7766C39.1379 35.9685 39.0577 36.4323 38.9751 36.6679C38.895 36.8962 38.9581 37.0978 39.3321 37.1731C40.3546 37.3771 41.2265 37.5107 42.7978 37.4791C45.5641 37.4208 46.4918 40.6096 45.2484 42.1567C44.6655 42.8804 44.6388 43.3054 44.6849 43.5629C44.8039 44.2089 45.1536 44.7893 45.7511 45.1415C46.0668 45.3285 45.7462 45.7511 45.6564 45.909L45.6612 45.9162ZM48.7335 34.1785C47.9029 34.8804 48.7845 36.2259 48.0073 37.2629C47.5847 37.9672 46.4068 38.6934 45.2629 37.9891C45.9308 37.7438 46.6108 37.1828 46.2295 36.1069C45.7438 34.7298 45.0978 34.7056 44.3352 33.5325C43.7523 32.6339 43.4317 30.3024 45.5957 29.5447C43.8203 30.6521 44.8743 32.6752 45.5252 33.2556C44.3935 30.623 46.164 29.4038 47.2326 29.4038C47.8179 29.4038 48.5392 29.4621 48.9691 30.2368C49.5787 31.3394 48.6873 32.1482 48.2186 32.1846C48.9691 31.8325 48.9326 31.1427 48.6752 30.7881C48.2065 30.1421 46.963 30.436 46.7396 31.2229C46.3995 32.4226 47.337 33.0978 47.6722 33.8725C48.1457 33.2046 49.3309 33.1221 49.8361 33.8385C49.3309 33.8628 48.9569 33.9915 48.7335 34.1785Z" fill="#B01C2E"/>
<path d="M30.4651 42.2586C30.4651 42.2586 30.4675 42.2538 30.4724 42.2441C30.4724 42.2319 30.4724 42.2344 30.4651 42.2586Z" fill="#B01C2E"/>
<path d="M75.3321 10.159V10.5913C73.8094 10.6132 73.2629 11.2277 73.2629 12.6824V18.8221C73.2629 21.6417 71.4657 24.6654 66.5307 24.6654C62.1882 24.6654 59.9587 22.1858 59.9587 18.9338V12.2938C59.9587 10.8391 59.5483 10.6108 58.0037 10.5889V10.1566H63.847V10.5889H63.643C62.3922 10.5889 61.8458 10.9314 61.8458 12.2501V18.5719C61.8458 21.6417 63.643 23.4851 67.031 23.4851C69.6005 23.4851 72.2162 22.4165 72.2162 18.5501V13.2507C72.2162 11.0674 71.8762 10.6812 69.9867 10.5889V10.1566H75.3297L75.3321 10.159Z" fill="#1D1D1B"/>
<path d="M78.3218 22.3242C78.3218 23.575 78.6181 23.8713 79.8445 23.8713V24.3036H75.2738V23.8713C76.2744 23.8713 76.7966 23.3248 76.7966 22.4384V17.6636C76.7966 16.8233 76.7043 16.663 76.1141 16.5489L75.3418 16.391V16.0267L77.9575 15.0723H78.3218V16.8452C79.8445 15.8907 81.1196 15.048 82.2343 15.048C83.7814 15.048 84.6679 16.1846 84.6679 18.4602C84.6679 21.4839 84.51 22.0765 84.4857 22.963C84.4638 23.5774 84.8257 23.8737 85.7583 23.8737H86.2586V24.306H81.3697V23.8737C82.0279 23.8519 82.4165 23.6916 82.6666 23.4414C83.0989 23.0091 83.1451 21.3503 83.1451 18.3242C83.1451 16.5052 82.2586 15.9369 81.3479 15.9369C80.6193 15.9369 79.507 16.5732 78.3242 17.3916V22.3267L78.3218 22.3242Z" fill="#1D1D1B"/>
<path d="M90.6084 22.5744C90.6084 23.371 91.0407 23.8713 92.2453 23.8713V24.3036H87.1962V23.8713C88.5829 23.8713 89.0832 23.4171 89.0832 22.2101V17.6394C89.0832 16.7529 88.9691 16.6388 88.3789 16.5246L87.3103 16.3206V15.9563L90.266 14.9338H90.6084V22.5744ZM89.6758 9.81665C90.2223 9.81665 90.6764 10.2028 90.6764 10.6813C90.6764 11.1597 90.2223 11.5459 89.6758 11.5459C89.1294 11.5459 88.6971 11.1597 88.6971 10.6813C88.6971 10.2028 89.1294 9.81665 89.6758 9.81665Z" fill="#1D1D1B"/>
<path d="M97.4377 24.5076L94.1396 16.9569C93.7996 16.1603 93.5033 15.8882 93.139 15.8202L92.4323 15.7061V15.2957H97.0734V15.7061C95.6867 15.7522 95.2544 15.9344 95.7984 17.003L98.21 22.6642L100.529 17.411C100.94 16.4784 100.733 15.8202 99.0746 15.7061V15.2957H103.031V15.7061C102.169 15.864 101.666 16.3643 101.236 17.3673L98.0983 24.5076H97.4377Z" fill="#1D1D1B"/>
<path d="M104.942 17.9357C105.467 15.8203 106.604 15.4803 107.354 15.4803C108.444 15.4803 109.355 16.459 109.605 17.9357H104.942ZM111.514 18.5283V18.0061C110.764 17.2556 110.832 15.0504 107.762 15.0504C104.988 15.0504 103.373 17.5058 103.373 19.9174C103.373 22.555 105.1 24.5805 107.33 24.5805C108.991 24.5805 110.421 23.4439 111.378 22.2392L111.128 21.9672C110.264 22.9897 109.377 23.4463 108.24 23.4463C106.443 23.4463 104.784 21.8555 104.784 19.49C104.784 19.1937 104.831 18.8756 104.877 18.5355H111.517L111.514 18.5283Z" fill="#1D1D1B"/>
<path d="M115.9 22.6424C115.9 23.575 116.24 23.8713 117.379 23.8713H118.244V24.3036H112.855V23.8713C114.016 23.8494 114.38 23.371 114.38 22.1664V16.9132L112.855 16.3667V15.9806L115.449 15.0698H115.903V17.4815H115.949C117.086 15.6163 117.358 15.184 118.108 15.184C118.382 15.184 118.45 15.2058 118.88 15.388C119.109 15.4778 119.517 15.5701 120.063 15.728L119.517 17.0929C119.177 17.0468 118.744 16.935 118.312 16.7286C118.062 16.6145 117.79 16.5003 117.515 16.5003C117.105 16.5003 116.855 16.7723 116.629 17.0905C116.333 17.5009 116.083 17.8871 115.9 18.2271V22.64V22.6424Z" fill="#1D1D1B"/>
<path d="M121.632 22.0061C121.904 23.371 122.769 24.1433 123.794 24.1433C124.702 24.1433 125.409 23.4608 125.409 22.6424C125.409 22.1639 125.294 21.8701 124.68 21.2556C123.065 19.6406 121.27 19.4827 121.27 17.5932C121.27 16.0923 122.453 15.0455 124.182 15.0455C124.797 15.0455 125.433 15.1815 126.001 15.4098L126.047 17.479H125.661C125.501 16.3181 124.75 15.592 123.842 15.592C123.092 15.592 122.455 16.1141 122.455 16.8646C122.455 18.8658 126.684 19.2058 126.684 21.9818C126.684 23.4608 125.457 24.5732 123.864 24.5732C123.432 24.5732 123.113 24.5052 122.863 24.4129C122.613 24.3449 122.431 24.2769 122.249 24.2769C122.113 24.2769 121.977 24.3692 121.863 24.5489H121.523L121.273 22.0012H121.637L121.632 22.0061Z" fill="#1D1D1B"/>
<path d="M131.485 22.5744C131.485 23.371 131.917 23.8713 133.122 23.8713V24.3036H128.073V23.8713C129.46 23.8713 129.96 23.4171 129.96 22.2101V17.6394C129.96 16.7529 129.846 16.6388 129.256 16.5246L128.187 16.3206V15.9563L131.143 14.9338H131.485V22.5744ZM130.553 9.81665C131.099 9.81665 131.553 10.2028 131.553 10.6813C131.553 11.1597 131.099 11.5459 130.553 11.5459C130.006 11.5459 129.576 11.1597 129.576 10.6813C129.576 10.2028 130.009 9.81665 130.553 9.81665Z" fill="#1D1D1B"/>
<path d="M139.602 15.2981L139.237 16.2987H136.35V21.5981C136.35 23.031 137.372 23.507 137.851 23.507C138.329 23.507 138.805 23.1208 139.237 22.3704L139.602 22.7104C139.055 23.8931 138.169 24.5756 137.122 24.5756C135.779 24.5756 134.825 23.4608 134.825 21.9381V16.2987H133.778V15.9344C134.664 15.5021 135.439 14.4554 135.961 13.0468H136.347V15.2981H139.599H139.602Z" fill="#1D1D1B"/>
<path d="M148.597 17.8215C149.28 16.0923 148.848 15.7522 147.505 15.7061V15.2957H151.279V15.7061C150.346 15.8202 149.824 16.4566 149.392 17.5252L145.525 27.1669C144.843 28.85 144.321 29.6005 143.524 29.6005C142.978 29.6005 142.591 29.2604 142.591 28.8039C142.591 27.8712 143.91 28.0995 144.478 27.5312C144.729 27.2811 145.069 26.6909 145.251 26.2343L145.933 24.5294L142.409 17.0467C141.977 16.1141 141.569 15.728 140.612 15.7061V15.2957H145.183V15.7061C143.796 15.728 143.636 16.1384 144.092 17.0929L146.662 22.6423L148.595 17.8215H148.597Z" fill="#1D1D1B"/>
<path d="M158.091 19.0941C158.091 17.139 159.478 15.592 160.979 15.592C162.89 15.592 164.481 17.7972 164.481 20.391C164.481 22.6642 162.958 24.0291 161.615 24.0291C159.66 24.0291 158.091 21.8458 158.091 19.0941ZM156.386 19.8664C156.386 22.5282 158.545 24.5732 161.365 24.5732C164.185 24.5732 166.186 22.5039 166.186 19.8203C166.186 17.1366 164.07 15.0455 161.297 15.0455C158.931 15.0455 156.386 16.7286 156.386 19.8664Z" fill="#1D1D1B"/>
<path d="M172.78 16.2987H170.324V22.5306C170.324 23.5774 170.735 23.8713 172.007 23.8713H172.872V24.3036H167.254V23.8713C168.573 23.8713 168.801 23.575 168.801 22.3024V16.2987H167.118V15.9126C167.755 15.7765 168.301 15.5725 168.801 15.2981C168.801 13.411 169.212 11.9781 170.553 10.6351C171.667 9.52032 172.736 9.02002 173.78 9.02002C175.053 9.02002 176.124 9.74862 176.124 10.0886C176.124 10.2708 175.692 11.1791 175.509 11.1791C175.191 11.1791 174.349 10.0643 172.848 10.0643C171.211 10.0643 170.324 11.3612 170.324 13.5665V15.2957H172.622L172.78 16.2963V16.2987Z" fill="#1D1D1B"/>
<path d="M19.2665 0.0291748V2.6497H16.323H16.2064V0.0291748H13.3916V2.6497H10.5768V0.0291748H7.78628V2.6497H7.68185H4.94961V0.0291748H0C0 0.0291748 0 24.4178 0 24.3085C10.4019 27.9199 14.4699 20.4615 24.238 24.3085V0.0291748H19.2665ZM18.7517 8.18947C17.7656 10.1591 17.6733 12.153 17.8604 13.1609C15.7741 12.6218 15.0698 13.1609 15.0698 13.1609C15.0698 13.1609 15.116 10.9339 18.7517 8.18947ZM8.57316 5.76324C9.40134 5.41837 9.36976 5.61023 9.32362 5.84581C9.27747 6.08139 9.11961 6.48941 9.58106 6.38497C10.8488 6.10082 11.9636 5.31151 12.068 5.23622V6.76142C11.8834 6.84885 10.5647 7.43415 9.41834 7.51187C8.36187 7.5823 8.83303 6.39712 8.83303 6.39712C8.7456 6.4554 7.39041 7.14757 6.27565 7.08928C4.92775 7.01885 4.86946 6.25625 5.01032 6.09353C5.01032 6.21011 5.18519 7.17186 8.57559 5.76567L8.57316 5.76324ZM4.30358 21.5592C8.76017 22.8027 11.8543 19.541 14.9047 19.1209C11.5871 19.0747 9.78021 20.4469 8.68974 20.5756C8.12629 20.1652 7.49484 19.15 7.28355 18.0425C7.10868 17.1269 6.19308 16.9764 6.19308 16.9764L6.05222 16.2842C6.05222 16.2842 8.66788 16.6703 9.13661 16.7189C9.74621 17.6928 10.895 17.926 11.4584 17.926C11.4584 17.926 11.473 16.2769 11.4706 16.1798C11.6017 15.9952 12.068 15.8276 12.068 15.8276L12.0923 17.9017C13.5228 17.9017 14.6254 16.9861 14.6011 16.119C14.5744 15.133 13.4815 14.2781 11.7401 14.3121C9.99393 14.3461 9.37219 15.2034 9.18276 15.507C7.10625 13.4378 8.05586 10.9096 8.05586 10.9096C8.05586 10.9096 6.26108 12.1166 7.881 15.1791C6.18094 14.7226 4.78446 15.6139 4.80874 16.3279C4.7966 16.9836 5.3139 17.4888 6.34608 17.5252C2.68852 18.2514 1.86764 16.1652 3.62599 15.0383C4.17324 15.1322 4.63469 15.218 5.01032 15.2957C3.22769 13.5131 4.09229 11.3297 5.52763 10.3947C7.59199 10.0207 8.62417 9.86767 8.62417 9.86767C8.62417 9.86767 9.6272 8.42505 10.5015 7.91017C11.7668 7.7936 16.1773 7.15971 16.1773 7.15971C16.1773 7.15971 12.0559 10.9241 16.0073 14.9217C17.6321 14.9217 19.5653 14.9241 19.5653 14.9241C19.5653 14.9241 19.4827 15.5192 19.3661 16.1045C19.014 16.1385 18.827 16.153 18.6861 16.1628C18.64 17.9915 17.5373 19.1889 17.5373 19.1889C17.5373 19.1889 19.6017 19.4463 20.9836 20.2915C12.119 18.6036 11.3928 23.9733 4.30844 21.5568L4.30358 21.5592Z" fill="#B01C2E"/>
<path d="M33.5593 33.054C33.5593 33.054 33.4427 32.9957 33.6637 32.8112C33.6904 32.7893 33.7341 32.8379 33.8604 32.8403C34.0328 32.8403 34.1227 32.782 34.266 32.6096C34.4821 32.3473 34.0304 32.2477 33.8847 32.374C33.7244 32.5124 33.6078 32.6533 33.4718 32.7796C33.4718 32.7796 33.2411 32.986 33.5593 33.0516V33.054Z" fill="#B01C2E"/>
<path d="M24.238 50.2999C16.5076 45.2289 10.5622 52.8792 0 47.5798V51.1135C13.4378 54.3849 13.8264 47.2447 24.238 51.1135V50.2999Z" fill="#B01C2E"/>
<path d="M10.8634 45.5835C4.14815 45.6321 0 41.569 0 41.569V44.7578C9.63206 51.3322 15.9417 43.8932 24.238 49.484V48.6266C22.2465 47.0772 19.6794 45.5204 10.861 45.5835H10.8634Z" fill="#B01C2E"/>
<path d="M17.0564 44.646C17.955 44.8282 18.7322 45.0249 19.4098 45.2289C21.1682 45.8069 22.7954 46.6764 24.2356 47.7766V26.8051C21.6855 25.7365 19.5507 25.4961 17.5835 25.6442V36.9156L14.9581 34.283L12.3327 36.9156V26.7274C8.92529 27.6503 5.31145 28.5489 -0.00488281 26.8051C-2.54963e-05 27.0237 -2.54963e-05 32.5319 -2.54963e-05 37.3309C-2.54963e-05 37.3309 2.76622 43.2156 10.2368 43.7717C13.0832 43.983 15.3005 44.289 17.0564 44.646Z" fill="#B01C2E"/>
</g>
<defs>
<clipPath id="clip0_26_11">
<rect width="179.74" height="52" fill="white"/>
</clipPath>
</defs>
</svg>