<?xml version="1.0" encoding="UTF-8" standalone="no"?>
<!-- Generator: Adobe Illustrator 25.0.1, SVG Export Plug-In . SVG Version: 6.00 Build 0)  -->

<svg
   version="1.1"
   id="Layer_1"
   x="0px"
   y="0px"
   viewBox="0 0 240.60001 183.80001"
   xml:space="preserve"
   sodipodi:docname="wolfssl.svg"
   width="240.60001"
   height="183.8"
   inkscape:version="1.3.2 (091e20ef0f, 2023-11-25)"
   xmlns:inkscape="http://www.inkscape.org/namespaces/inkscape"
   xmlns:sodipodi="http://sodipodi.sourceforge.net/DTD/sodipodi-0.dtd"
   xmlns="http://www.w3.org/2000/svg"
   xmlns:svg="http://www.w3.org/2000/svg"><defs
   id="defs14" /><sodipodi:namedview
   id="namedview14"
   pagecolor="#ffffff"
   bordercolor="#000000"
   borderopacity="0.25"
   inkscape:showpageshadow="2"
   inkscape:pageopacity="0.0"
   inkscape:pagecheckerboard="0"
   inkscape:deskcolor="#d1d1d1"
   inkscape:zoom="3.6142606"
   inkscape:cx="116.62136"
   inkscape:cy="15.909202"
   inkscape:window-width="3840"
   inkscape:window-height="2059"
   inkscape:window-x="0"
   inkscape:window-y="0"
   inkscape:window-maximized="1"
   inkscape:current-layer="Layer_1" />
<style
   type="text/css"
   id="style1">
	.st0{fill:#2BB8C9;}
</style>
<g
   id="g14"
   transform="translate(-78.1,-2.1)">
	<g
   id="g5">
		<g
   id="g4">
			<path
   class="st0"
   d="m 210.8,46.8 c -0.1,0 -0.1,0 0,0 -10.6,0 -19.2,8.6 -19.2,19.2 h -6.4 c 0,-14.1 11.4,-25.5 25.5,-25.5 v 0 z"
   id="path1" />
			<path
   class="st0"
   d="m 210.7,34 v 0 c -17.7,0 -32,14.3 -31.9,31.9 h -6.4 c 0,-21.2 17.1,-38.3 38.3,-38.3 v 0 z"
   id="path2" />
			<path
   class="st0"
   d="m 210.7,21.3 v 0 C 186,21.3 166,41.3 166,66 h -6.4 c 0,-28.2 22.8,-51.1 51.1,-51.1 v 0 z"
   id="path3" />
			<path
   class="st0"
   d="m 210.7,8.5 v 0 c -31.8,0 -57.5,25.7 -57.5,57.5 h -6.4 c 0,-35.3 28.6,-63.8 63.8,-63.9 v 0 z"
   id="path4" />
		</g>
		<path
   d="m 278.3,93.8 c 0,0 -0.8,0.2 -2.2,0.7 -0.4,0.1 0,-1 0,-1 -4.2,1.1 -9.2,1.2 -12.8,-0.6 -8,-4 -10.6,-8.2 -13.6,-13.8 -3,-5.6 -18.9,-6 -21.7,-6 -2.8,-0.1 -6.9,-0.3 -11.1,-7 0,0 2.6,0.3 3.9,-1.6 0,0 -0.7,-0.9 -3.6,-2.6 -2.8,-1.7 -3.3,-2.6 -3.3,-2.6 0,0 -2.4,-3.3 -3.5,-3.4 -1.1,-0.1 -2.1,0.2 -2.6,-0.5 -0.5,-0.7 -3.5,-3.5 -4.3,-3.5 -0.8,0 -2.9,4.2 -1.1,6.9 0,0 -0.1,0.8 -0.8,0.6 -0.7,-0.2 -2.2,1.1 -0.3,2.4 1.9,1.2 3.8,3.2 4,4.5 0.2,1.3 -1.3,5.2 0.7,10.4 l 0.5,-0.8 c 0,0 0.6,3.7 2.4,6 l 0.3,-0.5 c 0,0 1.2,4.4 3.4,7.2 l 0.3,-0.1 c 0,0 1.9,3.3 3.7,5.2 1.9,1.9 2.2,2.8 2.4,3.8 0.1,1 2.3,12.3 2.2,13.8 -0.1,1.5 -1.5,0.6 -2.4,1.5 -1,0.9 -0.8,2 1.1,2.2 1.9,0.2 2.7,-0.9 3.4,-2.4 0.7,-1.5 1,-2.5 0.7,-5.6 -0.1,-0.9 -0.2,-2.1 -0.3,-3.3 1.5,3.3 2.9,6.3 3,7 0.3,1.4 -1.3,1 -2,2.1 -0.7,1.1 -0.2,2.1 1.7,1.8 1.9,-0.3 2.4,-1.5 2.6,-3.2 0.3,-1.6 0.3,-2.6 -0.8,-5.6 -1,-2.8 -3.2,-9.9 -3.4,-11.8 1.5,0.2 6.5,0.6 15.2,-1.5 0,0 1,-0.1 1.6,-0.1 0.6,0.1 -0.1,3.4 1.6,6.3 0.5,0.8 1.1,1.6 1.6,2.4 0.1,4.1 0.3,8.1 0.1,8.8 -0.3,1.4 -1.6,0.4 -2.6,1.1 -1.1,0.7 -1,1.9 0.8,2.3 1.8,0.5 2.8,-0.5 3.7,-1.9 0.2,-0.3 0.3,-0.5 0.5,-0.8 -0.2,0.9 -0.6,1.5 -0.9,1.7 -0.9,0.4 -1.8,1.7 -0.8,2.6 1,0.8 3.5,0.5 4,-1 0.5,-1.4 0.4,-5.8 1.1,-7.8 0.7,-2 -0.2,-4.8 0.2,-5.8 1.4,-4.4 0.5,-9 0.5,-9 0,0 1.4,5.2 2.8,6.1 l 0.8,-0.7 c 0,0 5.8,5.3 8.5,5.4 l 0.5,-0.9 c 0,0 8.5,1.3 10.9,-0.3 l -1,-0.5 c -0.2,0.1 4.6,-2.5 4.4,-6.6 z"
   id="path5" />
	</g>
	<g
   id="g13">
		<g
   id="g8">
			<path
   class="st0"
   d="m 249.2,142.9 h -14.5 v -4.4 c 0,-2.1 -0.2,-3.4 -0.6,-4 -0.4,-0.6 -1,-0.9 -1.9,-0.9 -0.9,0 -1.6,0.4 -2.1,1.1 -0.5,0.8 -0.7,1.9 -0.7,3.5 0,2 0.3,3.5 0.8,4.5 0.5,1 2,2.2 4.4,3.7 6.9,4.1 11.3,7.5 13.1,10.1 1.8,2.6 2.7,6.9 2.7,12.8 0,4.3 -0.5,7.4 -1.5,9.4 -1,2 -2.9,3.7 -5.8,5.1 -2.9,1.4 -6.2,2.1 -10,2.1 -4.2,0 -7.7,-0.8 -10.7,-2.4 -3,-1.6 -4.9,-3.6 -5.8,-6 -0.9,-2.4 -1.4,-5.9 -1.4,-10.4 v -3.9 h 14.5 v 7.3 c 0,2.2 0.2,3.7 0.6,4.3 0.4,0.6 1.1,1 2.2,1 1,0 1.8,-0.4 2.3,-1.2 0.5,-0.8 0.8,-2 0.8,-3.6 0,-3.5 -0.5,-5.8 -1.4,-6.9 -1,-1.1 -3.4,-2.9 -7.3,-5.4 -3.9,-2.6 -6.4,-4.4 -7.7,-5.6 -1.3,-1.2 -2.3,-2.8 -3.1,-4.8 -0.8,-2 -1.2,-4.7 -1.2,-7.8 0,-4.6 0.6,-7.9 1.8,-10.1 1.2,-2.1 3.1,-3.8 5.7,-5 2.6,-1.2 5.8,-1.8 9.5,-1.8 4,0 7.5,0.7 10.3,2 2.8,1.3 4.7,3 5.7,4.9 0.9,2 1.4,5.4 1.4,10.1 v 2.3 z"
   id="path6" />
			<path
   class="st0"
   d="M 288.5,142.9 H 274 v -4.4 c 0,-2.1 -0.2,-3.4 -0.6,-4 -0.4,-0.6 -1,-0.9 -1.9,-0.9 -0.9,0 -1.6,0.4 -2.1,1.1 -0.5,0.8 -0.7,1.9 -0.7,3.5 0,2 0.3,3.5 0.8,4.5 0.5,1 2,2.2 4.4,3.7 6.9,4.1 11.3,7.5 13.1,10.1 1.8,2.6 2.7,6.9 2.7,12.8 0,4.3 -0.5,7.4 -1.5,9.4 -1,2 -2.9,3.7 -5.8,5.1 -2.9,1.4 -6.2,2.1 -10,2.1 -4.2,0 -7.7,-0.8 -10.7,-2.4 -3,-1.6 -4.9,-3.6 -5.8,-6 -0.9,-2.4 -1.4,-5.9 -1.4,-10.4 v -3.9 h 14.6 v 7.3 c 0,2.2 0.2,3.7 0.6,4.3 0.4,0.6 1.1,1 2.2,1 1,0 1.8,-0.4 2.3,-1.2 0.5,-0.8 0.8,-2 0.8,-3.6 0,-3.5 -0.5,-5.8 -1.4,-6.9 -1,-1.1 -3.4,-2.9 -7.3,-5.4 -3.9,-2.6 -6.4,-4.4 -7.7,-5.6 -1.3,-1.2 -2.3,-2.8 -3.1,-4.8 -0.8,-2 -1.2,-4.7 -1.2,-7.8 0,-4.6 0.6,-7.9 1.8,-10.1 1.2,-2.1 3.1,-3.8 5.7,-5 2.6,-1.2 5.8,-1.8 9.5,-1.8 4,0 7.5,0.7 10.3,2 2.8,1.3 4.7,3 5.7,4.9 0.9,2 1.4,5.4 1.4,10.1 v 2.3 z"
   id="path7" />
			<path
   class="st0"
   d="m 309.2,124.8 v 47.9 h 9.5 v 12 h -25.1 v -59.9 c 0,0 15.6,0 15.6,0 z"
   id="path8" />
		</g>
		<g
   id="g12">
			<path
   d="m 128.9,135.8 -5.9,48.7 h -16.1 c -0.9,-6 -1.9,-13.8 -3.1,-23.5 -0.4,4.3 -1,8.6 -1.7,13 l -1.6,10.6 H 84.4 l -6.3,-48.8 h 12.8 c 0.1,1.3 1.2,10.6 3.2,27.9 0.2,-1.8 1.3,-11.1 3.3,-27.9 h 12.3 l 3,27.9 c 0.5,-8.1 1.6,-17.4 3.4,-27.9 z"
   id="path9" />
			<path
   d="m 164.9,152.9 v 11.9 c 0,4.4 -0.2,7.6 -0.7,9.6 -0.4,2 -1.4,4 -2.8,5.7 -1.4,1.8 -3.3,3.1 -5.6,3.9 -2.3,0.8 -4.9,1.3 -7.8,1.3 -3.3,0 -6.1,-0.4 -8.3,-1.1 -2.3,-0.7 -4,-1.8 -5.3,-3.3 -1.3,-1.5 -2.2,-3.2 -2.7,-5.3 -0.5,-2.1 -0.8,-5.2 -0.8,-9.3 V 154 c 0,-4.5 0.5,-8.1 1.5,-10.6 1,-2.5 2.7,-4.6 5.3,-6.1 2.5,-1.5 5.8,-2.3 9.8,-2.3 3.3,0 6.2,0.5 8.6,1.5 2.4,1 4.2,2.3 5.5,3.9 1.3,1.6 2.2,3.2 2.7,4.9 0.3,1.6 0.6,4.2 0.6,7.6 z M 150,149.3 c 0,-2.5 -0.1,-4.1 -0.4,-4.7 -0.3,-0.7 -0.8,-1 -1.7,-1 -0.9,0 -1.5,0.3 -1.8,1 -0.3,0.6 -0.4,2.2 -0.4,4.7 v 22 c 0,2.3 0.1,3.8 0.4,4.5 0.3,0.7 0.9,1 1.7,1 0.9,0 1.5,-0.3 1.7,-1 0.3,-0.6 0.4,-2 0.4,-4.1 v -22.4 z"
   id="path10" />
			<path
   d="m 185,125.1 v 59.4 h -15.3 v -59.4 z"
   id="path11" />
			<path
   d="m 210.7,125.1 v 7.5 c -3.1,0 -4.9,0.1 -5.4,0.4 -0.5,0.3 -0.8,1.1 -0.8,2.4 v 1.5 h 6.2 v 7.7 h -3.5 v 39.8 h -14.8 v -39.8 h -3 V 137 h 3 c 0,-3.2 0.1,-5.3 0.3,-6.4 0.2,-1.1 0.8,-2 1.6,-2.9 0.9,-0.8 2.1,-1.5 3.7,-1.9 1.6,-0.4 4,-0.7 7.3,-0.7 0,0 5.4,0 5.4,0 z"
   id="path12" />
		</g>
	</g>
</g>
</svg>
