<?xml version="1.0" encoding="UTF-8" standalone="no"?>
<!-- Created with Inkscape (http://www.inkscape.org/) -->

<svg
   width="456.20651mm"
   height="312.90091mm"
   viewBox="0 0 456.20651 312.90091"
   version="1.1"
   id="svg5"
   inkscape:version="1.1.2 (0a00cf5339, 2022-02-04)"
   sodipodi:docname="alice.svg"
   inkscape:export-filename="../images/alicebob.png"
   inkscape:export-xdpi="89.049919"
   inkscape:export-ydpi="89.049919"
   xmlns:inkscape="http://www.inkscape.org/namespaces/inkscape"
   xmlns:sodipodi="http://sodipodi.sourceforge.net/DTD/sodipodi-0.dtd"
   xmlns="http://www.w3.org/2000/svg"
   xmlns:svg="http://www.w3.org/2000/svg">
  <sodipodi:namedview
     id="namedview7"
     pagecolor="#ffffff"
     bordercolor="#666666"
     borderopacity="1.0"
     inkscape:pageshadow="2"
     inkscape:pageopacity="0.0"
     inkscape:pagecheckerboard="0"
     inkscape:document-units="mm"
     showgrid="false"
     inkscape:snap-global="false"
     inkscape:zoom="0.77771464"
     inkscape:cx="832.56759"
     inkscape:cy="716.84391"
     inkscape:window-width="2488"
     inkscape:window-height="1376"
     inkscape:window-x="72"
     inkscape:window-y="27"
     inkscape:window-maximized="1"
     inkscape:current-layer="layer1"
     showguides="true"
     inkscape:guide-bbox="true">
    <sodipodi:guide
       position="266.72164,149.60195"
       orientation="1,0"
       id="guide85446" />
    <sodipodi:guide
       position="40.144329,165.59164"
       orientation="1,0"
       id="guide85465" />
    <sodipodi:guide
       position="93.578655,64.400262"
       orientation="0,-1"
       id="guide115279" />
    <sodipodi:guide
       position="71.783504,192.12772"
       orientation="0,-1"
       id="guide560" />
  </sodipodi:namedview>
  <defs
     id="defs2">
    <marker
       style="overflow:visible"
       id="Arrow2Mend"
       refX="0"
       refY="0"
       orient="auto"
       inkscape:stockid="Arrow2Mend"
       inkscape:isstock="true">
      <path
         transform="scale(-0.6)"
         d="M 8.7185878,4.0337352 -2.2072895,0.01601326 8.7185884,-4.0017078 c -1.7454984,2.3720609 -1.7354408,5.6174519 -6e-7,8.035443 z"
         style="fill:context-stroke;fill-rule:evenodd;stroke:context-stroke;stroke-width:0.625;stroke-linejoin:round"
         id="path16018" />
    </marker>
    <marker
       style="overflow:visible"
       id="Tail"
       refX="0"
       refY="0"
       orient="auto"
       inkscape:stockid="Tail"
       inkscape:isstock="true">
      <g
         transform="scale(-1.2)"
         id="g16039">
        <path
           style="fill:none;fill-rule:evenodd;stroke:context-stroke;stroke-width:0.8;stroke-linecap:round"
           d="M -3.8048674,-3.9585227 0.54352094,0"
           id="path16027" />
        <path
           style="fill:none;fill-rule:evenodd;stroke:context-stroke;stroke-width:0.8;stroke-linecap:round"
           d="M -1.2866832,-3.9585227 3.0617053,0"
           id="path16029" />
        <path
           style="fill:none;fill-rule:evenodd;stroke:context-stroke;stroke-width:0.8;stroke-linecap:round"
           d="M 1.3053582,-3.9585227 5.6537466,0"
           id="path16031" />
        <path
           style="fill:none;fill-rule:evenodd;stroke:context-stroke;stroke-width:0.8;stroke-linecap:round"
           d="M -3.8048674,4.1775838 0.54352094,0.21974226"
           id="path16033" />
        <path
           style="fill:none;fill-rule:evenodd;stroke:context-stroke;stroke-width:0.8;stroke-linecap:round"
           d="M -1.2866832,4.1775838 3.0617053,0.21974226"
           id="path16035" />
        <path
           style="fill:none;fill-rule:evenodd;stroke:context-stroke;stroke-width:0.8;stroke-linecap:round"
           d="M 1.3053582,4.1775838 5.6537466,0.21974226"
           id="path16037" />
      </g>
    </marker>
    <rect
       x="71.123177"
       y="117.93721"
       width="699.85443"
       height="75.580772"
       id="rect7437" />
    <rect
       x="71.123177"
       y="117.93721"
       width="699.85443"
       height="75.580772"
       id="rect11053" />
    <rect
       x="71.123177"
       y="117.93721"
       width="699.85443"
       height="75.580772"
       id="rect11357" />
    <rect
       x="71.123177"
       y="117.93721"
       width="701.14026"
       height="114.66694"
       id="rect16483" />
    <rect
       x="71.123177"
       y="117.93721"
       width="634.69299"
       height="117.286"
       id="rect18207" />
    <rect
       x="71.123177"
       y="117.93721"
       width="690.40222"
       height="107.21147"
       id="rect18539" />
    <rect
       x="71.123177"
       y="117.93721"
       width="699.85443"
       height="75.580772"
       id="rect23130" />
    <rect
       x="71.123177"
       y="117.93721"
       width="699.85443"
       height="75.580772"
       id="rect28613" />
    <rect
       x="71.123177"
       y="117.93721"
       width="699.85443"
       height="75.580772"
       id="rect29291" />
    <rect
       x="71.123177"
       y="117.93721"
       width="699.85443"
       height="75.580772"
       id="rect30050" />
    <rect
       x="71.123177"
       y="117.93721"
       width="699.85443"
       height="75.580772"
       id="rect30706" />
    <rect
       x="71.123177"
       y="117.93721"
       width="699.85443"
       height="75.580772"
       id="rect40010" />
    <rect
       x="71.123177"
       y="117.93721"
       width="699.85443"
       height="75.580772"
       id="rect40108" />
    <rect
       x="71.123177"
       y="117.93721"
       width="711.19349"
       height="112.66285"
       id="rect40110" />
    <rect
       x="71.123177"
       y="117.93721"
       width="699.85443"
       height="75.580772"
       id="rect40877" />
    <rect
       x="71.123177"
       y="117.93721"
       width="634.69299"
       height="117.286"
       id="rect42380" />
    <rect
       x="71.123177"
       y="117.93721"
       width="43.792042"
       height="51.427738"
       id="rect46385" />
    <rect
       x="71.123177"
       y="117.93721"
       width="634.69299"
       height="117.286"
       id="rect49346" />
    <rect
       x="71.123177"
       y="117.93721"
       width="43.792042"
       height="51.427738"
       id="rect57764" />
    <rect
       x="71.123177"
       y="117.93721"
       width="634.69299"
       height="117.286"
       id="rect57766" />
    <rect
       x="71.123177"
       y="117.93721"
       width="699.85443"
       height="75.580772"
       id="rect98412" />
    <rect
       x="71.123177"
       y="117.93721"
       width="699.85443"
       height="75.580772"
       id="rect98414" />
    <rect
       x="71.123177"
       y="117.93721"
       width="711.19349"
       height="112.66285"
       id="rect103182" />
    <rect
       x="71.123177"
       y="117.93721"
       width="426.14604"
       height="107.79385"
       id="rect105581" />
    <rect
       x="71.123177"
       y="117.93721"
       width="634.69299"
       height="117.286"
       id="rect105583" />
    <rect
       x="71.123177"
       y="117.93721"
       width="634.69299"
       height="117.286"
       id="rect114197" />
    <rect
       x="71.123177"
       y="117.93721"
       width="634.69299"
       height="117.286"
       id="rect114891" />
  </defs>
  <g
     inkscape:label="Layer 1"
     inkscape:groupmode="layer"
     id="layer1"
     transform="translate(-0.05315154,8.8875246)">
    <rect
       style="fill:#000000;stroke-width:1.11452;stroke-miterlimit:4;stroke-dasharray:none"
       id="rect23597"
       width="456.20651"
       height="312.90091"
       x="0.05315154"
       y="-8.8875246"
       ry="0" />
    <rect
       style="fill:#ffffff;stroke-width:0.483256;stroke-miterlimit:4;stroke-dasharray:none"
       id="rect23825"
       width="215.479"
       height="124.54885"
       x="233.46996"
       y="141.36787"
       ry="0" />
    <rect
       style="fill:#4d4d4d;fill-opacity:1;stroke-width:1.05722;stroke-miterlimit:4;stroke-dasharray:none"
       id="rect70603"
       width="215.47902"
       height="34.245247"
       x="233.46996"
       y="141.36787" />
    <rect
       style="fill:#ffffff;stroke-width:0.502928;stroke-miterlimit:4;stroke-dasharray:none"
       id="rect25159"
       width="216.17036"
       height="134.46442"
       x="233.50639"
       y="-2.0368493"
       ry="0" />
    <rect
       style="fill:#4d4d4d;fill-opacity:1;stroke-width:1.05953;stroke-miterlimit:4;stroke-dasharray:none"
       id="rect70811"
       width="216.20682"
       height="34.279568"
       x="233.46996"
       y="-2.0368493" />
    <rect
       style="fill:#ffffff;stroke-width:0.484028;stroke-miterlimit:4;stroke-dasharray:none"
       id="rect23823"
       width="216.08421"
       height="124.59761"
       x="7.9621711"
       y="140.88979"
       ry="0" />
    <rect
       style="fill:#4d4d4d;fill-opacity:1;stroke-width:1.0587;stroke-miterlimit:4;stroke-dasharray:none"
       id="rect70815"
       width="216.08421"
       height="34.245247"
       x="7.9621711"
       y="140.88979" />
    <rect
       style="fill:#ffffff;stroke-width:0.50352;stroke-miterlimit:4;stroke-dasharray:none"
       id="rect23803"
       width="216.67961"
       height="134.46442"
       x="7.2807622"
       y="-2.0368493"
       ry="0" />
    <rect
       style="fill:#4d4d4d;fill-opacity:1;stroke-width:1.06069;stroke-miterlimit:4;stroke-dasharray:none"
       id="rect70813"
       width="216.67961"
       height="34.279568"
       x="7.2807622"
       y="-2.0368493" />
    <path
       d="m 208.48226,-36.116765 c -0.18745,-0.65265 -0.50327,-0.99704 -0.77026,-1.31485 -0.26698,-0.31781 -1.64675,-3.32628 -2.79965,-4.201 -1.15291,-0.87471 -3.72383,-1.76769 -3.85877,-1.77353 -0.86365,-0.0629 -1.26002,-0.61058 -1.77282,-1.1763 -0.70153,-0.85555 -0.0548,-3.53366 -0.0274,-4.02428 0.95394,-0.84439 1.9808,-1.50425 2.60154,-4.60918 0.22345,-1.03474 0.27884,-1.35036 0.48201,-2.45887 0.52669,-0.72652 1.63274,-2.54196 1.72292,-3.0631 0.13897,-0.80312 -0.0325,-1.95059 -0.80726,-2.0732 0.027,-0.0506 0.1438,-0.0953 0.17075,-0.14587 0.51278,-0.90958 0.72869,-1.8579 0.70171,-2.81672 -0.081,-1.91881 -1.26848,-2.8502 -1.9432,-3.24175 -0.10797,-0.54819 -0.37785,-1.10342 -0.80967,-1.66562 -1.13353,-1.44672 -3.72447,-1.24822 -6.42336,-1.0544 -3.29265,0.29755 -4.46688,0.26906 -4.76375,-1.24499 l -0.081,-0.41763 -0.43182,-0.0705 c -2.37502,-0.41334 -4.55502,1.78963 -5.0678,4.04512 -0.32387,1.46129 0.92457,2.91422 1.92312,3.75979 -0.34611,0.76669 -0.65808,2.58286 0.0436,3.7003 0.52776,3.28739 0.90065,4.60867 1.25248,6.45853 0.64774,2.74571 1.23743,5.88258 4.50365,6.17554 0.13494,0.49761 0.44069,1.23515 -0.66595,2.76611 -0.56678,0.77785 -2.1059,1.1762 -2.96879,1.24333 -0.86289,0.0671 -2.10291,0.16963 -3.04375,0.9431 -0.94085,0.77348 -3.56603,5.08903 -3.80438,5.99104 -0.23836,0.902 0.21591,1.48465 0.80966,1.97622 2.26708,1.93575 6.3424,4.2862 12.92768,4.57111 7.15206,0.30943 10.95749,-2.65771 12.57683,-4.45119 0.46577,-0.66686 0.46892,-1.21152 0.32364,-1.82719 z m -19.76787,-18.95415 c -0.18893,-0.81054 -0.35085,-1.64578 -0.56678,-2.48338 -0.054,-0.23526 -0.10794,-0.49642 -0.16193,-0.73171 l -0.054,-0.2094 c -0.13494,-0.70465 -0.2159,-1.3811 -0.26988,-2.00463 -0.054,-1.16704 0,-1.76 0.081,-2.06708 0.0269,9.7e-4 0.054,0.002 0.081,0.004 0.29688,0.0386 0.62074,0.0786 0.94461,0.11851 0.054,0.002 0.10797,0.005 0.16194,0.007 0.10795,0.005 0.21591,0.009 0.32387,0.04 0.027,9.8e-4 0.054,0.002 0.081,0.004 0.2159,0.009 0.43181,0.0185 0.64773,0.0535 0.027,9.8e-4 0.081,0.004 0.10795,0.005 0.054,0.002 0.10796,0.005 0.16194,0.007 3.45458,0.14947 7.36797,-0.25065 8.87933,-0.41819 l 0.10797,0.0565 c 0.62074,0.2598 0.99858,0.45733 1.26847,0.70195 0.26989,0.21873 0.40483,0.48339 0.56677,0.85276 0.027,0.0529 0.054,0.10585 0.081,0.15881 0,0.0259 0.027,0.0271 0.027,0.0529 0.027,0.027 0.054,0.0541 0.054,0.10587 0.027,0.027 0.027,0.027 0.054,0.0541 0.027,0.0271 0.054,0.0541 0.081,0.0811 0.027,0.027 0.027,0.027 0.054,0.0541 0.027,0.027 0.054,0.0283 0.054,0.0541 0.027,0.027 0.054,0.0283 0.081,0.0553 l 0.027,9.8e-4 c 0.13494,0.0835 0.26989,0.1411 0.40483,0.19868 v 0 0 c 0.054,0.002 0.10796,0.0307 0.16194,0.0329 1.36403,-0.25329 1.17211,1.33424 0.83404,2.01698 -0.31782,0.64188 -1.32402,2.0233 -1.4332,2.38905 -0.28103,1.3675 -0.2809,1.39912 -0.4968,2.55449 -0.7557,3.77204 -2.93822,5.3376 -7.71525,5.13092 -4.10233,-0.20339 -3.6307,-2.19908 -4.62928,-6.87528 z m 3.96209,10.87588 c 0.6286,-0.76624 0.84026,-1.72183 0.79481,-2.98731 0.91237,0.0983 1.26394,0.0657 1.89675,-0.005 0.63281,-0.0709 1.94444,-0.38276 2.36529,-0.51414 -0.027,0.9565 -0.60958,2.53597 0.7128,4.01673 0.56676,0.64569 0.96108,1.08767 1.79774,1.30503 -0.37785,0.63073 -1.51138,1.61699 -4.96596,1.46752 -2.48298,-0.10741 -4.15629,-0.85277 -5.12788,-1.43834 1.74298,-0.74056 1.89784,-1.07825 2.52645,-1.84449 z"
       id="path11045"
       style="stroke-width:0.264299"
       sodipodi:nodetypes="czzcccccsccccccccccccccczzzcscccsccccccccccscccccccccsccccscscscccccszccccsccz" />
    <path
       d="m 158.78886,-38.124991 c -0.24341,-1.93675 -1.35202,-3.63273 -2.59556,-5.08794 a 16.883062,16.883062 0 0 0 -4.53231,-3.74915 8.5619167,8.5619167 0 0 0 -1.46844,-0.71437 c -0.1905,-0.0635 -0.45508,-0.09 -0.5715,-0.26459 -0.11642,-0.17462 0,-0.40481 0.0212,-0.59002 0.0212,-0.1852 0.0212,-0.4101 0.17462,-0.55033 a 1.3520208,1.3520208 0 0 1 0.58208,-0.19579 4.9979792,4.9979792 0 0 0 1.35996,-0.65881 c 1.5875,-1.00013 2.69875,-2.58763 3.40519,-4.29155 a 13.419667,13.419667 0 0 0 0.83079,-6.89239 c 0.49742,-0.0185 1.07686,-0.0609 1.42611,-0.46038 0.38629,-0.4445 0.30162,-1.08214 0.23018,-1.6166 a 11.488208,11.488208 0 0 0 -0.89429,-3.25173 h 0.0397 c 0.0609,-0.19315 0.18785,-1.46845 -0.67469,-3.00038 -0.92604,-1.64571 -2.93423,-1.32292 -3.31258,-1.23825 a 10.025062,10.025062 0 0 0 -3.84704,-1.32557 c -3.21734,-0.49477 -6.72571,0.24607 -9.2075,2.42888 a 8.1094792,8.1094792 0 0 0 -2.57704,4.25715 c -0.42334,1.88119 -0.11642,3.85234 0.46037,5.66738 0.28575,0.89958 0.68792,1.77006 0.87048,2.70139 a 4.5587708,4.5587708 0 0 1 -0.31485,2.69346 8.6889167,8.6889167 0 0 1 -1.54517,2.24632 c -0.30692,0.34395 -0.62442,0.68262 -0.95779,1.00012 a 7.3077917,7.3077917 0 0 0 -0.93134,0.889 c -0.49212,0.67469 -0.0741,1.45521 0.59003,1.8124 0.75406,0.40745 1.66158,0.43391 2.49502,0.35454 a 4.6540208,4.6540208 0 0 0 2.45268,-0.88106 5.0720625,5.0720625 0 0 0 1.45521,-2.05582 6.9638333,6.9638333 0 0 0 0.43127,-1.37318 c 0.23284,0.3122 0.55827,0.55297 0.77523,0.87841 0.21696,0.32544 0.11113,0.64559 0.0265,0.98425 -0.10848,0.44186 -0.18521,0.889 -0.26458,1.33615 -0.0371,0.20373 -0.082,0.40481 -0.10319,0.61119 a 1.666875,1.666875 0 0 1 -0.0741,0.5715 c -0.1323,0.26458 -0.46567,0.29897 -0.72496,0.36777 a 5.2916667,5.2916667 0 0 0 -1.13771,0.49741 11.506729,11.506729 0 0 0 -2.04258,1.43934 19.378083,19.378083 0 0 0 -3.25438,3.72004 c -0.8546,1.24089 -1.85208,2.68023 -1.61396,4.26773 0.20373,1.42875 1.34938,2.45533 2.50296,3.19616 a 16.385646,16.385646 0 0 0 4.59317,1.98967 21.296312,21.296312 0 0 0 10.36373,0.0423 21.666729,21.666729 0 0 0 4.87627,-1.79652 c 1.12712,-0.57679 2.38125,-1.34937 2.64583,-2.69346 a 3.984625,3.984625 0 0 0 0.037,-1.2647 z m -15.69508,-27.93471 c 1.80975,-1.83093 4.49792,-3.35493 10.92994,-3.55866 a 1.1879792,1.1879792 0 0 1 1.16945,0.6985 4.5217292,4.5217292 0 0 1 0.56092,1.78595 33.072917,33.072917 0 0 0 -4.11956,0.33337 c -7.44273,1.0848 -10.47485,4.16455 -11.303,6.78128 0.76729,-3.72269 0.94985,-4.20423 2.76225,-6.04044 z m -0.15875,12.73969 c -0.39952,-0.61119 -0.65088,-1.32292 -1.08744,-1.90236 a 6.778625,6.778625 0 0 0 -0.75141,-0.76994 6.25475,6.25475 0 0 1 -0.74348,-0.8837 c -0.40217,-0.57415 -0.85196,-1.27 -0.67734,-2.00555 0.14552,-0.61648 0.95515,-0.26458 1.34673,-0.16139 0.0291,-0.66411 0.0582,-1.3679 0.59267,-1.85209 0.45244,-0.40216 1.08744,-0.635 1.32292,-1.23295 0.37041,0.39423 0.72495,0.89429 1.28852,1.0107 a 2.5982083,2.5982083 0 0 0 0.92868,-0.0529 c 0.37836,-0.0582 0.75936,-0.0952 1.14036,-0.127 a 38.121167,38.121167 0 0 1 4.52173,-0.09 c 0.74877,0.0265 1.50018,0.0582 2.24895,0.127 a 6.2626875,6.2626875 0 0 0 1.016,0.0661 c 0.23284,-0.0159 0.5424,-0.11112 0.69321,0.12965 a 1.3229167,1.3229167 0 0 1 0.0661,0.6694 c 0,0.36512 0.0476,0.73025 0.0503,1.09537 a 12.575646,12.575646 0 0 1 -0.17462,2.18281 c -0.3863,2.27807 -1.42082,4.59846 -3.35757,5.96636 a 5.3895625,5.3895625 0 0 1 -3.59833,1.00806 6.2256458,6.2256458 0 0 1 -3.37079,-1.52929 7.7813958,7.7813958 0 0 1 -1.45786,-1.64835 z m 5.37898,8.88206 c -0.89694,0.44714 -1.97644,0.42598 -2.94217,0.26458 a 4.1566042,4.1566042 0 0 1 -2.45798,-1.2356 c -0.23283,-0.26459 -0.65881,-0.74613 -0.26458,-1.04246 0.33337,-0.24606 0.88106,-0.23548 0.97367,-0.73025 l 0.55827,-2.99244 a 6.8368333,6.8368333 0 0 0 1.94998,1.07421 6.492875,6.492875 0 0 0 2.3442,0.22225 c -0.0926,0.46831 -0.36512,0.9869 -0.0847,1.44462 0.2249,0.36778 0.68263,0.50536 0.8943,0.889 0.4445,0.81228 -0.24607,1.74361 -0.97102,2.10609 z"
       id="path11047"
       style="stroke-width:0.264583" />
    <rect
       style="fill:#4aafff;fill-opacity:1;stroke-width:1.05833;stroke-miterlimit:4;stroke-dasharray:none"
       id="rect16393"
       width="39.320332"
       height="37.068493"
       x="-0.19948417"
       y="-66.701248"
       ry="5.9661956" />
    <rect
       style="fill:#e89825;fill-opacity:1;stroke-width:1.05833;stroke-miterlimit:4;stroke-dasharray:none"
       id="rect16395"
       width="38.429508"
       height="37.329319"
       x="45.062866"
       y="-66.376938"
       ry="5.9661956" />
    <g
       id="g934"
       transform="translate(7.2664659)">
      <path
         d="m 45.737811,92.280701 c 0.18745,-0.65265 0.50327,-0.99704 0.77026,-1.31485 0.26698,-0.317814 1.64675,-3.326284 2.79965,-4.201004 1.15291,-0.87471 3.72383,-1.76769 3.85877,-1.77353 0.86365,-0.0629 1.26002,-0.61058 1.77282,-1.1763 0.70153,-0.85555 0.0548,-3.53366 0.0274,-4.02428 -0.95394,-0.84439 -1.9808,-1.50425 -2.60154,-4.60918 -0.22345,-1.03474 -0.27884,-1.35036 -0.48201,-2.45887 -0.52669,-0.72652 -1.63274,-2.54196 -1.72292,-3.0631 -0.13897,-0.80312 0.0325,-1.95059 0.80726,-2.0732 -0.027,-0.0506 -0.1438,-0.0953 -0.17075,-0.14587 -0.51278,-0.90958 -0.72869,-1.8579 -0.70171,-2.81672 0.081,-1.91881 1.26848,-2.8502 1.9432,-3.24175 0.10797,-0.54819 0.37785,-1.103413 0.80967,-1.665613 1.13353,-1.446709 3.72447,-1.248209 6.42336,-1.054391 3.29265,0.297548 4.46688,0.269054 4.76375,-1.244991 l 0.081,-0.417631 0.43182,-0.07053 c 2.37502,-0.413344 4.55502,1.789635 5.0678,4.045106 0.32387,1.46129 -0.92457,2.91422 -1.92312,3.75979 0.34611,0.76669 0.65808,2.58286 -0.0436,3.7003 -0.52776,3.28739 -0.90065,4.60867 -1.25248,6.45853 -0.64774,2.74571 -1.23743,5.88258 -4.50365,6.17554 -0.13494,0.49761 -0.44069,1.23515 0.66595,2.76611 0.56678,0.77785 2.1059,1.1762 2.96879,1.24333 0.86289,0.0671 2.10291,0.16963 3.04375,0.9431 0.94085,0.77348 3.56603,5.089034 3.80438,5.991044 0.23836,0.902 -0.21591,1.484647 -0.80966,1.976217 -2.26708,1.93574 -6.3424,4.28619 -12.92768,4.5711 -7.15206,0.30943 -10.95749,-2.65771 -12.57683,-4.45118 -0.46577,-0.66686 -0.46892,-1.211517 -0.32364,-1.827187 z m 19.76787,-18.954154 c 0.18893,-0.81054 0.35085,-1.64578 0.56678,-2.48338 0.054,-0.23526 0.10794,-0.49642 0.16193,-0.73171 l 0.054,-0.2094 c 0.13494,-0.70465 0.2159,-1.3811 0.26988,-2.00463 0.054,-1.16704 0,-1.76 -0.081,-2.06708 -0.0269,9.7e-4 -0.054,0.002 -0.081,0.004 -0.29688,0.0386 -0.62074,0.0786 -0.94461,0.11851 -0.054,0.002 -0.10797,0.005 -0.16194,0.007 -0.10795,0.005 -0.21591,0.009 -0.32387,0.04 -0.027,9.8e-4 -0.054,0.002 -0.081,0.004 -0.2159,0.009 -0.43181,0.0185 -0.64773,0.0535 -0.027,9.8e-4 -0.081,0.004 -0.10795,0.005 -0.054,0.002 -0.10796,0.005 -0.16194,0.007 -3.45458,0.14947 -7.36797,-0.25065 -8.87933,-0.41819 l -0.10797,0.0565 c -0.62074,0.2598 -0.99858,0.45733 -1.26847,0.70195 -0.26989,0.21873 -0.40483,0.48339 -0.56677,0.85276 -0.027,0.0529 -0.054,0.10585 -0.081,0.15881 0,0.0259 -0.027,0.0271 -0.027,0.0529 -0.027,0.027 -0.054,0.0541 -0.054,0.10587 -0.027,0.027 -0.027,0.027 -0.054,0.0541 -0.027,0.0271 -0.054,0.0541 -0.081,0.0811 -0.027,0.027 -0.027,0.027 -0.054,0.0541 -0.027,0.027 -0.054,0.0283 -0.054,0.0541 -0.027,0.027 -0.054,0.0283 -0.081,0.0553 l -0.027,9.8e-4 c -0.13494,0.0835 -0.26989,0.1411 -0.40483,0.19868 v 0 0 c -0.054,0.002 -0.10796,0.0307 -0.16194,0.0329 -1.36403,-0.25329 -1.17211,1.33424 -0.83404,2.01698 0.31782,0.64188 1.32402,2.0233 1.4332,2.38905 0.28103,1.3675 0.2809,1.39912 0.4968,2.55449 0.7557,3.77204 2.93822,5.3376 7.71525,5.13092 4.10233,-0.20339 3.6307,-2.19908 4.62928,-6.87528 z m -3.96209,10.87588 c -0.6286,-0.76624 -0.84026,-1.72183 -0.79481,-2.98731 -0.91237,0.0983 -1.26394,0.0657 -1.89675,-0.005 -0.63281,-0.0709 -1.94444,-0.38276 -2.36529,-0.51414 0.027,0.9565 0.60958,2.53597 -0.7128,4.01673 -0.56676,0.64569 -0.96108,1.08767 -1.79774,1.30503 0.37785,0.63073 1.51138,1.61699 4.96596,1.46752 2.48298,-0.10741 4.15629,-0.85277 5.12788,-1.43834 -1.74298,-0.74056 -1.89784,-1.07825 -2.52645,-1.84449 z"
         id="path23"
         style="fill:#4aafff;fill-opacity:1;stroke-width:0.264299"
         sodipodi:nodetypes="czzcccccsccccccccccccccczzzcscccsccccccccccscccccccccsccccscscscccccszccccsccz" />
      <path
         d="m 146.0002,93.498482 c 0.24341,-1.93675 1.35202,-3.63273 2.59556,-5.08794 a 16.883062,16.883062 0 0 1 4.53231,-3.74915 8.5619167,8.5619167 0 0 1 1.46844,-0.71437 c 0.1905,-0.0635 0.45508,-0.09 0.5715,-0.26459 0.11642,-0.17462 0,-0.40481 -0.0212,-0.59002 -0.0212,-0.1852 -0.0212,-0.4101 -0.17462,-0.55033 a 1.3520208,1.3520208 0 0 0 -0.58208,-0.19579 4.9979792,4.9979792 0 0 1 -1.35996,-0.65881 c -1.5875,-1.00013 -2.69875,-2.58763 -3.40519,-4.29155 a 13.419667,13.419667 0 0 1 -0.83079,-6.89239 c -0.49742,-0.0185 -1.07686,-0.0609 -1.42611,-0.46038 -0.38629,-0.4445 -0.30162,-1.08214 -0.23018,-1.6166 a 11.488208,11.488208 0 0 1 0.89429,-3.25173 h -0.0397 c -0.0609,-0.19315 -0.18785,-1.46844 0.67469,-3.000366 0.92604,-1.64571 2.93423,-1.32292 3.31258,-1.23825 a 10.025062,10.025062 0 0 1 3.84704,-1.32557 c 3.21734,-0.49477 6.72571,0.24607 9.2075,2.42888 a 8.1094792,8.1094792 0 0 1 2.57704,4.257136 c 0.42334,1.88119 0.11642,3.85234 -0.46037,5.66738 -0.28575,0.89958 -0.68792,1.77006 -0.87048,2.70139 a 4.5587708,4.5587708 0 0 0 0.31485,2.69346 8.6889167,8.6889167 0 0 0 1.54517,2.24632 c 0.30692,0.34395 0.62442,0.68262 0.95779,1.00012 a 7.3077917,7.3077917 0 0 1 0.93134,0.889 c 0.49212,0.67469 0.0741,1.45521 -0.59003,1.8124 -0.75406,0.40745 -1.66158,0.43391 -2.49502,0.35454 a 4.6540208,4.6540208 0 0 1 -2.45268,-0.88106 5.0720625,5.0720625 0 0 1 -1.45521,-2.05582 6.9638333,6.9638333 0 0 1 -0.43127,-1.37318 c -0.23284,0.3122 -0.55827,0.55297 -0.77523,0.87841 -0.21696,0.32544 -0.11113,0.64559 -0.0265,0.98425 0.10848,0.44186 0.18521,0.889 0.26458,1.33615 0.0371,0.20373 0.082,0.40481 0.10319,0.61119 a 1.666875,1.666875 0 0 0 0.0741,0.5715 c 0.1323,0.26458 0.46567,0.29897 0.72496,0.36777 a 5.2916667,5.2916667 0 0 1 1.13771,0.49741 11.506729,11.506729 0 0 1 2.04258,1.43934 19.378083,19.378083 0 0 1 3.25438,3.72004 c 0.8546,1.24089 1.85208,2.68023 1.61396,4.26773 -0.20373,1.42875 -1.34938,2.455326 -2.50296,3.196156 a 16.385646,16.385646 0 0 1 -4.59317,1.98967 21.296312,21.296312 0 0 1 -10.36373,0.0423 21.666729,21.666729 0 0 1 -4.87627,-1.79652 c -1.12712,-0.57679 -2.38125,-1.34937 -2.64583,-2.693456 a 3.984625,3.984625 0 0 1 -0.037,-1.2647 z m 15.69508,-27.93471 c -1.80975,-1.83092 -4.49792,-3.354916 -10.92994,-3.558646 a 1.1879792,1.1879792 0 0 0 -1.16945,0.698496 4.5217292,4.5217292 0 0 0 -0.56092,1.78594 33.072917,33.072917 0 0 1 4.11956,0.33337 c 7.44273,1.0848 10.47485,4.16455 11.303,6.78128 -0.76729,-3.72269 -0.94985,-4.20423 -2.76225,-6.04044 z m 0.15875,12.73969 c 0.39952,-0.61119 0.65088,-1.32292 1.08744,-1.90236 a 6.778625,6.778625 0 0 1 0.75141,-0.76994 6.25475,6.25475 0 0 0 0.74348,-0.8837 c 0.40217,-0.57415 0.85196,-1.27 0.67734,-2.00555 -0.14552,-0.61648 -0.95515,-0.26458 -1.34673,-0.16139 -0.0291,-0.66411 -0.0582,-1.3679 -0.59267,-1.85209 -0.45244,-0.40216 -1.08744,-0.635 -1.32292,-1.23295 -0.37041,0.39423 -0.72495,0.89429 -1.28852,1.0107 a 2.5982083,2.5982083 0 0 1 -0.92868,-0.0529 c -0.37836,-0.0582 -0.75936,-0.0952 -1.14036,-0.127 a 38.121167,38.121167 0 0 0 -4.52173,-0.09 c -0.74877,0.0265 -1.50018,0.0582 -2.24895,0.127 a 6.2626875,6.2626875 0 0 1 -1.016,0.0661 c -0.23284,-0.0159 -0.5424,-0.11112 -0.69321,0.12965 a 1.3229167,1.3229167 0 0 0 -0.0661,0.6694 c 0,0.36512 -0.0476,0.73025 -0.0503,1.09537 a 12.575646,12.575646 0 0 0 0.17462,2.18281 c 0.3863,2.27807 1.42082,4.59846 3.35757,5.96636 a 5.3895625,5.3895625 0 0 0 3.59833,1.00806 6.2256458,6.2256458 0 0 0 3.37079,-1.52929 7.7813958,7.7813958 0 0 0 1.45786,-1.64835 z m -5.37898,8.88206 c 0.89694,0.44714 1.97644,0.42598 2.94217,0.26458 a 4.1566042,4.1566042 0 0 0 2.45798,-1.2356 c 0.23283,-0.26459 0.65881,-0.74613 0.26458,-1.04246 -0.33337,-0.24606 -0.88106,-0.23548 -0.97367,-0.73025 l -0.55827,-2.99244 a 6.8368333,6.8368333 0 0 1 -1.94998,1.07421 6.492875,6.492875 0 0 1 -2.3442,0.22225 c 0.0926,0.46831 0.36512,0.9869 0.0847,1.44462 -0.2249,0.36778 -0.68263,0.50536 -0.8943,0.889 -0.4445,0.81228 0.24607,1.74361 0.97102,2.10609 z"
         id="path34"
         style="fill:#e89825;fill-opacity:1;stroke-width:0.264583" />
      <text
         xml:space="preserve"
         transform="matrix(0.26458333,0,0,0.26458333,127.65901,69.870132)"
         id="text11051"
         style="font-style:normal;font-weight:normal;font-size:40px;line-height:1.25;font-family:sans-serif;white-space:pre;shape-inside:url(#rect11053);fill:#e89825;fill-opacity:1;stroke:none"><tspan
           x="71.123047"
           y="156.1775"
           id="tspan1474"><tspan
             style="font-weight:bold;font-stretch:expanded;font-family:'D-DIN Exp';-inkscape-font-specification:'D-DIN Exp Bold Expanded'"
             id="tspan1472">Alice</tspan></tspan></text>
      <text
         xml:space="preserve"
         transform="matrix(0.26458333,0,0,0.26458333,30.928195,69.880729)"
         id="text11355"
         style="font-style:normal;font-weight:normal;font-size:40px;line-height:1.25;font-family:sans-serif;white-space:pre;shape-inside:url(#rect11357);fill:#4aafff;fill-opacity:1;stroke:none"><tspan
           x="71.123047"
           y="156.1775"
           id="tspan1478"><tspan
             style="font-weight:bold;font-stretch:expanded;font-family:'D-DIN Exp';-inkscape-font-specification:'D-DIN Exp Bold Expanded'"
             id="tspan1476">Bob</tspan></tspan></text>
      <text
         xml:space="preserve"
         style="font-style:normal;font-weight:normal;font-size:8.88093px;line-height:1.25;font-family:sans-serif;fill:#333333;fill-opacity:1;stroke:none;stroke-width:0.222024"
         x="86.079117"
         y="55.18082"
         id="text12529"><tspan
           sodipodi:role="line"
           id="tspan12527"
           style="font-style:normal;font-variant:normal;font-weight:bold;font-stretch:expanded;font-family:'D-DIN Exp';-inkscape-font-specification:'D-DIN Exp Bold Expanded';fill:#333333;stroke-width:0.222024"
           x="86.079117"
           y="55.18082">Setup(λ)→ρ</tspan></text>
      <path
         style="fill:none;stroke:#000000;stroke-width:1.05833;stroke-linecap:butt;stroke-linejoin:miter;stroke-miterlimit:4;stroke-dasharray:none;stroke-opacity:1;marker-end:url(#Arrow2Mend)"
         d="M 108.16973,59.405508 77.636689,78.095297"
         id="path15076"
         sodipodi:nodetypes="cc" />
      <path
         style="fill:none;stroke:#000000;stroke-width:1.05833;stroke-linecap:butt;stroke-linejoin:miter;stroke-miterlimit:4;stroke-dasharray:none;stroke-opacity:1;marker-end:url(#Arrow2Mend)"
         d="m 108.16973,59.405508 29.4142,18.689789"
         id="path16477"
         sodipodi:nodetypes="cc" />
    </g>
    <text
       xml:space="preserve"
       transform="matrix(0.26458333,0,0,0.26458333,20.639677,-29.446887)"
       id="text7435"
       style="font-style:normal;font-weight:normal;font-size:40px;line-height:1.25;font-family:sans-serif;white-space:pre;shape-inside:url(#rect7437);fill:#ffffff;fill-opacity:1;stroke:none"><tspan
         x="71.123047"
         y="156.1775"
         id="tspan1482"><tspan
           style="font-weight:bold;font-stretch:expanded;font-family:'D-DIN Exp';-inkscape-font-specification:'D-DIN Exp Bold Expanded'"
           id="tspan1480">Initial Agreement on Parameters</tspan></tspan></text>
    <text
       xml:space="preserve"
       transform="matrix(0.26458333,0,0,0.26458333,247.96644,-28.391114)"
       id="text16481"
       style="font-style:normal;font-weight:normal;font-size:40px;line-height:1;font-family:sans-serif;white-space:pre;shape-inside:url(#rect16483);fill:#ffffff;fill-opacity:1;stroke:none"><tspan
         x="71.123047"
         y="151.1775"
         id="tspan1486"><tspan
           style="font-weight:bold;font-stretch:expanded;font-family:'D-DIN Exp';-inkscape-font-specification:'D-DIN Exp Bold Expanded'"
           id="tspan1484">Bob makes and posts the public    </tspan></tspan><tspan
         x="71.123047"
         y="194.02688"
         id="tspan1490"><tspan
           style="font-weight:bold;font-stretch:expanded;font-family:'D-DIN Exp';-inkscape-font-specification:'D-DIN Exp Bold Expanded'"
           id="tspan1488">challenge verification key</tspan></tspan></text>
    <text
       xml:space="preserve"
       transform="matrix(0.26458333,0,0,0.26458333,21.714308,116.35246)"
       id="text18205"
       style="font-style:normal;font-weight:normal;font-size:40px;line-height:1;font-family:sans-serif;white-space:pre;shape-inside:url(#rect18207);fill:#ffffff;fill-opacity:1;stroke:none"><tspan
         x="71.123047"
         y="151.1775"
         id="tspan1494"><tspan
           style="font-weight:bold;font-stretch:expanded;font-family:'D-DIN Exp';-inkscape-font-specification:'D-DIN Exp Bold Expanded'"
           id="tspan1492">Bob grants Alice access to the </tspan></tspan><tspan
         x="71.123047"
         y="194.02688"
         id="tspan1498"><tspan
           style="font-weight:bold;font-stretch:expanded;font-family:'D-DIN Exp';-inkscape-font-specification:'D-DIN Exp Bold Expanded'"
           id="tspan1496">oracle</tspan></tspan></text>
    <text
       xml:space="preserve"
       transform="matrix(0.26458333,0,0,0.26458333,247.46205,116.04254)"
       id="text18537"
       style="font-style:normal;font-weight:normal;font-size:40px;line-height:1;font-family:sans-serif;white-space:pre;shape-inside:url(#rect18539);fill:#ffffff;fill-opacity:1;stroke:none"><tspan
         x="71.123047"
         y="151.1775"
         id="tspan1502"><tspan
           style="font-weight:bold;font-stretch:expanded;font-family:'D-DIN Exp';-inkscape-font-specification:'D-DIN Exp Bold Expanded'"
           id="tspan1500">Alice attempts her forgery, winning if </tspan></tspan><tspan
         x="71.123047"
         y="194.02688"
         id="tspan1524"><tspan
           style="font-weight:bold;font-stretch:expanded;font-family:'D-DIN Exp';-inkscape-font-specification:'D-DIN Exp Bold Expanded'"
           id="tspan1504">Verify(vk,</tspan><tspan
           style="font-weight:bold;font-stretch:expanded;font-family:'D-DIN Exp';-inkscape-font-specification:'D-DIN Exp Bold Expanded'"
           id="tspan1506">μ′</tspan><tspan
           style="font-weight:bold;font-stretch:expanded;font-family:'D-DIN Exp';-inkscape-font-specification:'D-DIN Exp Bold Expanded'"
           id="tspan1508">,</tspan><tspan
           style="font-weight:bold;font-stretch:expanded;font-family:'D-DIN Exp';-inkscape-font-specification:'D-DIN Exp Bold Expanded'"
           id="tspan1510">ξ′</tspan><tspan
           style="font-weight:bold;font-stretch:expanded;font-family:'D-DIN Exp';-inkscape-font-specification:'D-DIN Exp Bold Expanded'"
           id="tspan1512">)=1 and </tspan><tspan
           style="font-weight:bold;font-stretch:expanded;font-family:'D-DIN Exp';-inkscape-font-specification:'D-DIN Exp Bold Expanded'"
           id="tspan1514">μ</tspan><tspan
           style="font-size:65%;baseline-shift:sub"
           id="tspan1516">i</tspan><tspan
           style="font-weight:bold;font-stretch:expanded;font-family:'D-DIN Exp';-inkscape-font-specification:'D-DIN Exp Bold Expanded'"
           id="tspan1518">≠</tspan><tspan
           style="font-weight:bold;font-stretch:expanded;font-family:'D-DIN Exp';-inkscape-font-specification:'D-DIN Exp Bold Expanded'"
           id="tspan1520">μ </tspan><tspan
           style="font-weight:bold;font-stretch:expanded;font-family:'D-DIN Exp';-inkscape-font-specification:'D-DIN Exp Bold Expanded'"
           id="tspan1522">for any i</tspan></tspan></text>
    <text
       xml:space="preserve"
       transform="matrix(0.69354312,0,0,0.69354312,-35.278145,-85.048157)"
       id="text28611"
       style="font-style:normal;font-weight:normal;font-size:40px;line-height:1.25;font-family:sans-serif;white-space:pre;shape-inside:url(#rect28613);fill:#ffffff;fill-opacity:1;stroke:none"><tspan
         x="71.123047"
         y="156.1775"
         id="tspan1528"><tspan
           style="font-weight:bold;font-stretch:expanded;font-family:'D-DIN Exp';-inkscape-font-specification:'D-DIN Exp Bold Expanded'"
           id="tspan1526">0.</tspan></tspan></text>
    <text
       xml:space="preserve"
       transform="matrix(0.69354312,0,0,0.69354312,191.9931,-85.400718)"
       id="text29289"
       style="font-style:normal;font-weight:normal;font-size:40px;line-height:1.25;font-family:sans-serif;white-space:pre;shape-inside:url(#rect29291);fill:#ffffff;fill-opacity:1;stroke:none"><tspan
         x="71.123047"
         y="156.1775"
         id="tspan1532"><tspan
           style="font-weight:bold;font-stretch:expanded;font-family:'D-DIN Exp';-inkscape-font-specification:'D-DIN Exp Bold Expanded'"
           id="tspan1530">1.</tspan></tspan></text>
    <text
       xml:space="preserve"
       transform="matrix(0.69354312,0,0,0.69354312,-33.958437,59.276875)"
       id="text30048"
       style="font-style:normal;font-weight:normal;font-size:40px;line-height:1.25;font-family:sans-serif;white-space:pre;shape-inside:url(#rect30050);fill:#ffffff;fill-opacity:1;stroke:none"><tspan
         x="71.123047"
         y="156.1775"
         id="tspan1536"><tspan
           style="font-weight:bold;font-stretch:expanded;font-family:'D-DIN Exp';-inkscape-font-specification:'D-DIN Exp Bold Expanded'"
           id="tspan1534">2.</tspan></tspan></text>
    <text
       xml:space="preserve"
       transform="matrix(0.69354312,0,0,0.69354312,193.35735,59.337798)"
       id="text30704"
       style="font-style:normal;font-weight:normal;font-size:40px;line-height:1.25;font-family:sans-serif;white-space:pre;shape-inside:url(#rect30706);fill:#ffffff;fill-opacity:1;stroke:none"><tspan
         x="71.123047"
         y="156.1775"
         id="tspan1540"><tspan
           style="font-weight:bold;font-stretch:expanded;font-family:'D-DIN Exp';-inkscape-font-specification:'D-DIN Exp Bold Expanded'"
           id="tspan1538">3.</tspan></tspan></text>
    <g
       id="g1159"
       transform="translate(-1.4487997)">
      <path
         d="m 297.4121,94.849784 c 0.18745,-0.65265 0.50327,-0.99704 0.77026,-1.31485 0.26698,-0.317814 1.64675,-3.326284 2.79965,-4.201004 1.15291,-0.87471 3.72383,-1.76769 3.85877,-1.77353 0.86365,-0.0629 1.26002,-0.61058 1.77282,-1.1763 0.70153,-0.85555 0.0548,-3.53366 0.0274,-4.02428 -0.95394,-0.84439 -1.9808,-1.50425 -2.60154,-4.60918 -0.22345,-1.03474 -0.27884,-1.35036 -0.48201,-2.45887 -0.52669,-0.72652 -1.63274,-2.54196 -1.72292,-3.0631 -0.13897,-0.80312 0.0325,-1.95059 0.80726,-2.0732 -0.027,-0.0506 -0.1438,-0.0953 -0.17075,-0.14587 -0.51278,-0.90958 -0.72869,-1.8579 -0.70171,-2.81672 0.081,-1.91881 1.26848,-2.8502 1.9432,-3.24175 0.10797,-0.54819 0.37785,-1.103413 0.80967,-1.665613 1.13353,-1.446709 3.72447,-1.248209 6.42336,-1.054391 3.29265,0.297548 4.46688,0.269054 4.76375,-1.244991 l 0.081,-0.417631 0.43182,-0.07053 c 2.37502,-0.413344 4.55502,1.789635 5.0678,4.045106 0.32387,1.46129 -0.92457,2.91422 -1.92312,3.75979 0.34611,0.76669 0.65808,2.58286 -0.0436,3.7003 -0.52776,3.28739 -0.90065,4.60867 -1.25248,6.45853 -0.64774,2.74571 -1.23743,5.88258 -4.50365,6.17554 -0.13494,0.49761 -0.44069,1.23515 0.66595,2.76611 0.56678,0.77785 2.1059,1.1762 2.96879,1.24333 0.86289,0.0671 2.10291,0.16963 3.04375,0.9431 0.94085,0.77348 3.56603,5.089034 3.80438,5.991044 0.23836,0.902 -0.21591,1.484647 -0.80966,1.976217 -2.26708,1.93574 -6.3424,4.286189 -12.92768,4.571099 -7.15206,0.30943 -10.95749,-2.657709 -12.57683,-4.451179 -0.46577,-0.66686 -0.46892,-1.211517 -0.32364,-1.827187 z M 317.17997,75.89563 c 0.18893,-0.81054 0.35085,-1.64578 0.56678,-2.48338 0.054,-0.23526 0.10794,-0.49642 0.16193,-0.73171 l 0.054,-0.2094 c 0.13494,-0.70465 0.2159,-1.3811 0.26988,-2.00463 0.054,-1.16704 0,-1.76 -0.081,-2.06708 -0.0269,9.7e-4 -0.054,0.002 -0.081,0.004 -0.29688,0.0386 -0.62074,0.0786 -0.94461,0.11851 -0.054,0.002 -0.10797,0.005 -0.16194,0.007 -0.10795,0.005 -0.21591,0.009 -0.32387,0.04 -0.027,9.8e-4 -0.054,0.002 -0.081,0.004 -0.2159,0.009 -0.43181,0.0185 -0.64773,0.0535 -0.027,9.8e-4 -0.081,0.004 -0.10795,0.005 -0.054,0.002 -0.10796,0.005 -0.16194,0.007 -3.45458,0.14947 -7.36797,-0.25065 -8.87933,-0.41819 l -0.10797,0.0565 c -0.62074,0.2598 -0.99858,0.45733 -1.26847,0.70195 -0.26989,0.21873 -0.40483,0.48339 -0.56677,0.85276 -0.027,0.0529 -0.054,0.10585 -0.081,0.15881 0,0.0259 -0.027,0.0271 -0.027,0.0529 -0.027,0.027 -0.054,0.0541 -0.054,0.10587 -0.027,0.027 -0.027,0.027 -0.054,0.0541 -0.027,0.0271 -0.054,0.0541 -0.081,0.0811 -0.027,0.027 -0.027,0.027 -0.054,0.0541 -0.027,0.027 -0.054,0.0283 -0.054,0.0541 -0.027,0.027 -0.054,0.0283 -0.081,0.0553 l -0.027,9.8e-4 c -0.13494,0.0835 -0.26989,0.1411 -0.40483,0.19868 v 0 0 c -0.054,0.002 -0.10796,0.0307 -0.16194,0.0329 -1.36403,-0.25329 -1.17211,1.33424 -0.83404,2.01698 0.31782,0.64188 1.32402,2.0233 1.4332,2.38905 0.28103,1.3675 0.2809,1.39912 0.4968,2.55449 0.7557,3.77204 2.93822,5.3376 7.71525,5.13092 4.10233,-0.20339 3.6307,-2.19908 4.62928,-6.87528 z m -3.96209,10.87588 c -0.6286,-0.76624 -0.84026,-1.72183 -0.79481,-2.98731 -0.91237,0.0983 -1.26394,0.0657 -1.89675,-0.005 -0.63281,-0.0709 -1.94444,-0.38276 -2.36529,-0.51414 0.027,0.9565 0.60958,2.53597 -0.7128,4.01673 -0.56676,0.64569 -0.96108,1.08767 -1.79774,1.30503 0.37785,0.63073 1.51138,1.61699 4.96596,1.46752 2.48298,-0.10741 4.15629,-0.85277 5.12788,-1.43834 -1.74298,-0.74056 -1.89784,-1.07825 -2.52645,-1.84449 z"
         id="path23124"
         style="fill:#4aafff;fill-opacity:1;stroke-width:0.264299"
         sodipodi:nodetypes="czzcccccsccccccccccccccczzzcscccsccccccccccscccccccccsccccscscscccccszccccsccz" />
      <text
         xml:space="preserve"
         transform="matrix(0.26458333,0,0,0.26458333,281.54109,70.72324)"
         id="text23128"
         style="font-style:normal;font-weight:normal;font-size:40px;line-height:1.25;font-family:sans-serif;white-space:pre;shape-inside:url(#rect23130);fill:#4aafff;fill-opacity:1;stroke:none"><tspan
           x="71.123047"
           y="156.1775"
           id="tspan1544"><tspan
             style="font-weight:bold;font-stretch:expanded;font-family:'D-DIN Exp';-inkscape-font-specification:'D-DIN Exp Bold Expanded'"
             id="tspan1542">Bob</tspan></tspan></text>
      <path
         style="fill:none;stroke:#000000;stroke-width:1.05833;stroke-linecap:butt;stroke-linejoin:miter;stroke-miterlimit:4;stroke-dasharray:none;stroke-opacity:1;marker-end:url(#Arrow2Mend)"
         d="m 331.4371,79.985386 20.91764,-0.05907"
         id="path23132"
         sodipodi:nodetypes="cc" />
      <text
         xml:space="preserve"
         style="font-style:normal;font-weight:normal;font-size:8.88093px;line-height:1.25;font-family:sans-serif;fill:#4aafff;fill-opacity:1;stroke:none;stroke-width:0.222024"
         x="305.86963"
         y="51.221447"
         id="text35880"><tspan
           sodipodi:role="line"
           id="tspan35878"
           style="font-style:normal;font-variant:normal;font-weight:bold;font-stretch:expanded;font-family:'D-DIN Exp';-inkscape-font-specification:'D-DIN Exp Bold Expanded';fill:#4aafff;fill-opacity:1;stroke-width:0.222024"
           x="305.86963"
           y="51.221447">Keygen → (sk, vk)</tspan></text>
      <path
         d="m 360.51779,78.092143 c -0.44174,0.0886 -0.90283,-0.0227 -1.2514,-0.30661 -0.34975,-0.28559 -0.55302,-0.71205 -0.55302,-1.16424 v -6.08567 c 0,-0.83072 0.67305,-1.50224 1.5023,-1.50224 h 6.06313 c -0.0341,-0.24812 -0.0568,-0.49738 -0.0568,-0.75112 0,-2.89938 2.35852,-5.2579 5.25791,-5.2579 2.89932,0 5.2579,2.35852 5.2579,5.2579 0,0.2538 -0.017,0.50306 -0.0568,0.75112 h 4.56089 c 0.82925,0 1.50224,0.67152 1.50224,1.50224 v 4.56089 c 0.24755,-0.0341 0.49851,-0.0568 0.75112,-0.0568 2.89938,0 5.2579,2.35852 5.2579,5.2579 0,2.89939 -2.35852,5.25791 -5.2579,5.25791 -0.2521,0 -0.50306,-0.017 -0.75112,-0.0568 v 6.06313 c 0,0.83072 -0.67299,1.50224 -1.50224,1.50224 h -6.0842 c -0.45082,0 -0.87728,-0.2027 -1.16271,-0.55132 -0.28559,-0.34862 -0.39801,-0.80818 -0.30944,-1.24986 0.0284,-0.14592 0.0454,-0.29752 0.0454,-0.45196 0,-1.24236 -1.011,-2.25341 -2.25337,-2.25341 -1.24236,0 -2.25341,1.01105 -2.25341,2.25341 0,0.15501 0.017,0.30661 0.0454,0.45196 0.0903,0.44174 -0.0227,0.90136 -0.30944,1.24986 -0.2856,0.34862 -0.71058,0.55132 -1.16277,0.55132 h -7.58643 c -0.82925,0 -1.50225,-0.67152 -1.50225,-1.50224 v -7.58786 c 0,-0.45195 0.2027,-0.87881 0.55303,-1.16424 0.34861,-0.28389 0.80818,-0.39801 1.25139,-0.3066 1.37301,0.27935 2.70254,-0.81574 2.70254,-2.20828 0,-1.3926 -1.33702,-2.49229 -2.70254,-2.20834 z"
         id="path37293"
         style="stroke-width:1.50226" />
      <text
         xml:space="preserve"
         style="font-style:normal;font-weight:normal;font-size:10.5833px;line-height:1.25;font-family:sans-serif;fill:#ffffff;fill-opacity:1;stroke:none;stroke-width:0.264583"
         x="365.60095"
         y="83.103317"
         id="text37444"><tspan
           sodipodi:role="line"
           id="tspan37442"
           style="font-style:normal;font-variant:normal;font-weight:bold;font-stretch:expanded;font-family:'D-DIN Exp';-inkscape-font-specification:'D-DIN Exp Bold Expanded';fill:#ffffff;stroke-width:0.264583"
           x="365.60095"
           y="83.103317">vk</tspan></text>
    </g>
    <g
       id="g1174"
       transform="translate(2.9124742)">
      <path
         d="m 359.47374,222.03727 c 0.24341,-1.93675 1.35202,-3.63273 2.59556,-5.08794 a 16.883062,16.883062 0 0 1 4.53231,-3.74915 8.5619167,8.5619167 0 0 1 1.46844,-0.71437 c 0.1905,-0.0635 0.45508,-0.09 0.5715,-0.26459 0.11642,-0.17462 0,-0.40481 -0.0212,-0.59002 -0.0212,-0.1852 -0.0212,-0.4101 -0.17462,-0.55033 a 1.3520208,1.3520208 0 0 0 -0.58208,-0.19579 4.9979792,4.9979792 0 0 1 -1.35996,-0.65881 c -1.5875,-1.00013 -2.69875,-2.58763 -3.40519,-4.29155 a 13.419667,13.419667 0 0 1 -0.83079,-6.89239 c -0.49742,-0.0185 -1.07686,-0.0609 -1.42611,-0.46038 -0.38629,-0.4445 -0.30162,-1.08214 -0.23018,-1.6166 a 11.488208,11.488208 0 0 1 0.89429,-3.25173 h -0.0397 c -0.0609,-0.19315 -0.18785,-1.46844 0.67469,-3.00037 0.92604,-1.64571 2.93423,-1.32292 3.31258,-1.23825 a 10.025062,10.025062 0 0 1 3.84704,-1.32557 c 3.21734,-0.49477 6.72571,0.24607 9.2075,2.42888 a 8.1094792,8.1094792 0 0 1 2.57704,4.25714 c 0.42334,1.88119 0.11642,3.85234 -0.46037,5.66738 -0.28575,0.89958 -0.68792,1.77006 -0.87048,2.70139 a 4.5587708,4.5587708 0 0 0 0.31485,2.69346 8.6889167,8.6889167 0 0 0 1.54517,2.24632 c 0.30692,0.34395 0.62442,0.68262 0.95779,1.00012 a 7.3077917,7.3077917 0 0 1 0.93134,0.889 c 0.49212,0.67469 0.0741,1.45521 -0.59003,1.8124 -0.75406,0.40745 -1.66158,0.43391 -2.49502,0.35454 a 4.6540208,4.6540208 0 0 1 -2.45268,-0.88106 5.0720625,5.0720625 0 0 1 -1.45521,-2.05582 6.9638333,6.9638333 0 0 1 -0.43127,-1.37318 c -0.23284,0.3122 -0.55827,0.55297 -0.77523,0.87841 -0.21696,0.32544 -0.11113,0.64559 -0.0265,0.98425 0.10848,0.44186 0.18521,0.889 0.26458,1.33615 0.0371,0.20373 0.082,0.40481 0.10319,0.61119 a 1.666875,1.666875 0 0 0 0.0741,0.5715 c 0.1323,0.26458 0.46567,0.29897 0.72496,0.36777 a 5.2916667,5.2916667 0 0 1 1.13771,0.49741 11.506729,11.506729 0 0 1 2.04258,1.43934 19.378083,19.378083 0 0 1 3.25438,3.72004 c 0.8546,1.24089 1.85208,2.68023 1.61396,4.26773 -0.20373,1.42875 -1.34938,2.45532 -2.50296,3.19615 a 16.385646,16.385646 0 0 1 -4.59317,1.98967 21.296312,21.296312 0 0 1 -10.36373,0.0423 21.666729,21.666729 0 0 1 -4.87627,-1.79652 c -1.12712,-0.57679 -2.38125,-1.34937 -2.64583,-2.69345 a 3.984625,3.984625 0 0 1 -0.037,-1.2647 z m 15.69508,-27.93471 c -1.80975,-1.83092 -4.49792,-3.35492 -10.92994,-3.55865 a 1.1879792,1.1879792 0 0 0 -1.16945,0.6985 4.5217292,4.5217292 0 0 0 -0.56092,1.78594 33.072917,33.072917 0 0 1 4.11956,0.33337 c 7.44273,1.0848 10.47485,4.16455 11.303,6.78128 -0.76729,-3.72269 -0.94985,-4.20423 -2.76225,-6.04044 z m 0.15875,12.73969 c 0.39952,-0.61119 0.65088,-1.32292 1.08744,-1.90236 a 6.778625,6.778625 0 0 1 0.75141,-0.76994 6.25475,6.25475 0 0 0 0.74348,-0.8837 c 0.40217,-0.57415 0.85196,-1.27 0.67734,-2.00555 -0.14552,-0.61648 -0.95515,-0.26458 -1.34673,-0.16139 -0.0291,-0.66411 -0.0582,-1.3679 -0.59267,-1.85209 -0.45244,-0.40216 -1.08744,-0.635 -1.32292,-1.23295 -0.37041,0.39423 -0.72495,0.89429 -1.28852,1.0107 a 2.5982083,2.5982083 0 0 1 -0.92868,-0.0529 c -0.37836,-0.0582 -0.75936,-0.0952 -1.14036,-0.127 a 38.121167,38.121167 0 0 0 -4.52173,-0.09 c -0.74877,0.0265 -1.50018,0.0582 -2.24895,0.127 a 6.2626875,6.2626875 0 0 1 -1.016,0.0661 c -0.23284,-0.0159 -0.5424,-0.11112 -0.69321,0.12965 a 1.3229167,1.3229167 0 0 0 -0.0661,0.6694 c 0,0.36512 -0.0476,0.73025 -0.0503,1.09537 a 12.575646,12.575646 0 0 0 0.17462,2.18281 c 0.3863,2.27807 1.42082,4.59846 3.35757,5.96636 a 5.3895625,5.3895625 0 0 0 3.59833,1.00806 6.2256458,6.2256458 0 0 0 3.37079,-1.52929 7.7813958,7.7813958 0 0 0 1.45786,-1.64835 z m -5.37898,8.88206 c 0.89694,0.44714 1.97644,0.42598 2.94217,0.26458 a 4.1566042,4.1566042 0 0 0 2.45798,-1.2356 c 0.23283,-0.26459 0.65881,-0.74613 0.26458,-1.04246 -0.33337,-0.24606 -0.88106,-0.23548 -0.97367,-0.73025 l -0.55827,-2.99244 a 6.8368333,6.8368333 0 0 1 -1.94998,1.07421 6.492875,6.492875 0 0 1 -2.3442,0.22225 c 0.0926,0.46831 0.36512,0.9869 0.0847,1.44462 -0.2249,0.36778 -0.68263,0.50536 -0.8943,0.889 -0.4445,0.81228 0.24607,1.74361 0.97102,2.10609 z"
         id="path40871"
         style="fill:#e89825;fill-opacity:1;stroke-width:0.264583" />
      <text
         xml:space="preserve"
         transform="matrix(0.26458333,0,0,0.26458333,341.13255,198.40892)"
         id="text40875"
         style="font-style:normal;font-weight:normal;font-size:40px;line-height:1.25;font-family:sans-serif;white-space:pre;shape-inside:url(#rect40877);fill:#e89825;fill-opacity:1;stroke:none"><tspan
           x="71.123047"
           y="156.1775"
           id="tspan1548"><tspan
             style="font-weight:bold;font-stretch:expanded;font-family:'D-DIN Exp';-inkscape-font-specification:'D-DIN Exp Bold Expanded'"
             id="tspan1546">Alice</tspan></tspan></text>
      <text
         xml:space="preserve"
         style="font-style:normal;font-weight:normal;font-size:10.5833px;line-height:1.25;font-family:sans-serif;white-space:pre;inline-size:99.3002;fill:#e89825;fill-opacity:1;stroke:none;stroke-width:0.264583"
         x="103.23198"
         y="256.28683"
         id="text60566"
         transform="matrix(0.8391453,0,0,0.8391453,205.03,-2.48546)"><tspan
           x="103.23198"
           y="256.28683"
           id="tspan1564"><tspan
             style="font-weight:bold;font-stretch:expanded;font-family:'D-DIN Exp';-inkscape-font-specification:'D-DIN Exp Bold Expanded'"
             id="tspan1550">(</tspan><tspan
             style="font-weight:bold;font-stretch:expanded;font-family:'D-DIN Exp';-inkscape-font-specification:'D-DIN Exp Bold Expanded'"
             id="tspan1552">μ′</tspan><tspan
             style="font-weight:bold;font-stretch:expanded;font-family:'D-DIN Exp';-inkscape-font-specification:'D-DIN Exp Bold Expanded'"
             id="tspan1554">,</tspan><tspan
             style="font-weight:bold;font-stretch:expanded;font-family:'D-DIN Exp';-inkscape-font-specification:'D-DIN Exp Bold Expanded'"
             id="tspan1556">ξ′</tspan><tspan
             style="font-weight:bold;font-stretch:expanded;font-family:'D-DIN Exp';-inkscape-font-specification:'D-DIN Exp Bold Expanded'"
             id="tspan1558">) </tspan><tspan
             style="font-weight:bold;font-stretch:expanded;font-family:'D-DIN Exp';-inkscape-font-specification:'D-DIN Exp Bold Expanded'"
             id="tspan1560">← </tspan><tspan
             style="font-weight:bold;font-stretch:expanded;font-family:'D-DIN Exp';-inkscape-font-specification:'D-DIN Exp Bold Expanded'"
             id="tspan1562">Alice</tspan></tspan></text>
    </g>
    <g
       id="g64238"
       transform="matrix(0.09022812,0,0,0.09022812,383.60417,273.99811)"
       style="display:inline;fill:#ffa729;fill-opacity:1;stroke-width:4.5551">
      <path
         class="st0"
         d="m 157.67,161.13 c 13.97,0 20.37,-5.31 23.3,-10.39 5.64,-9.77 1.68,-22.49 -11.79,-37.79 -7.46,-8.47 -18.71,-19.55 -26.35,-25.06 -0.49,-4.75 -1.15,-9.4 -1.97,-13.88 2.18,-0.54 4.32,-1 6.38,-1.37 12.74,-2.25 20.1,-0.4 21.73,2.43 1.1,1.91 0.26,5.87 -2.31,10.87 -2.2,4.29 -4.19,6.67 -4.82,7.37 3.97,3.55 7.56,7.26 9.87,9.74 1.17,-1.24 4.15,-4.69 7.28,-10.77 4.98,-9.68 5.65,-17.8 1.99,-24.14 -3.71,-6.43 -12.99,-13.23 -36.14,-9.15 -2.31,0.41 -4.69,0.92 -7.11,1.52 -5.67,-19.71 -15.16,-33.66 -28.27,-33.66 -7.62,0 -18.4,4.87 -26.51,28.18 -0.08,0.26 -2.07,6.37 -3.62,13.26 -1.58,7.01 -3.05,14.54 -4.38,22.41 -4.2,3.01 -8.16,6.1 -11.84,9.24 C 52.2,88.66 47.61,79.1 49.93,75.08 c 1.4,-2.42 5.79,-4.43 12.44,-3.47 3.83,0.55 6.4,1.16 7.5,1.45 1.02,-5.23 2.37,-10.22 3.31,-13.46 -1.61,-0.41 -4.58,-1.09 -8.83,-1.71 -11.68,-1.68 -21.8,2.25 -26.42,10.26 -6.56,11.36 0.77,26.56 15.01,41.32 -1.73,1.8 -3.37,3.6 -4.87,5.4 -15.1,18.01 -13.85,29.45 -10.14,35.87 4.11,7.11 12.61,10.76 23.93,10.76 7.65,0 16.6,-1.67 26.33,-5.07 4.67,-1.63 15.81,-6.13 21.07,-8.28 5.12,2.36 10.19,4.43 15.14,6.19 -4.33,15.07 -10.31,23.83 -14.95,23.83 -3.68,0 -8.11,-5.38 -11.58,-14.05 -0.14,-0.35 -0.38,-1.05 -0.64,-1.82 -4.7,1.85 -9.55,3.35 -13.15,4.38 0.31,0.94 0.65,1.93 0.92,2.59 7.53,18.81 17.45,22.76 24.45,22.76 13.12,0 22.61,-13.95 28.27,-33.66 2.43,0.6 4.8,1.11 7.11,1.52 4.87,0.86 9.12,1.24 12.84,1.24 z M 92.84,71.34 c 1.39,-6.19 3.23,-11.87 3.23,-11.87 0,0 0,0 0,0 4.51,-12.95 9.97,-18.75 13.38,-18.75 4.64,0 10.62,8.76 14.95,23.83 -10.43,3.7 -21.4,8.8 -32.19,15.03 -0.43,0.25 -0.85,0.5 -1.27,0.75 0.61,-3.08 1.25,-6.08 1.9,-8.99 z m -9.23,72.01 c -19.28,6.73 -31.49,4.25 -33.68,0.46 -1.63,-2.83 0.44,-10.12 8.76,-20.04 1.35,-1.61 2.82,-3.23 4.38,-4.84 8.62,7.33 18.64,14.31 29.14,20.38 0.26,0.15 0.53,0.3 0.79,0.45 -3.74,1.48 -7.32,2.87 -9.39,3.59 z m 15.53,-16.04 c -10.08,-5.82 -18.7,-11.94 -25.81,-17.88 7.49,-6.24 16.25,-12.32 25.81,-17.84 9.56,-5.52 19.2,-10.07 28.35,-13.43 1.6,9.13 2.58,19.66 2.58,31.29 0,11.63 -0.98,22.17 -2.58,31.29 -9.15,-3.36 -18.79,-7.91 -28.35,-13.43 z m 44.78,-20.42 c 4.87,4.52 10.27,10.01 14.86,15.22 10.12,11.49 11.9,18.75 10.19,21.7 -1.63,2.83 -8.99,4.67 -21.73,2.43 -2.07,-0.36 -4.2,-0.83 -6.38,-1.37 2.04,-11.13 3.08,-23.3 3.08,-35.43 -0.01,-0.84 -0.01,-1.7 -0.02,-2.55 z"
         id="path64226"
         style="fill:#ffa729;fill-opacity:1;stroke-width:4.5551" />
      <path
         class="st0"
         d="m 109.45,95.74 c -7.56,0 -13.71,6.15 -13.71,13.71 0,7.56 6.15,13.71 13.71,13.71 7.56,0 13.71,-6.15 13.71,-13.71 0,-7.56 -6.15,-13.71 -13.71,-13.71 z"
         id="path64228"
         style="fill:#ffa729;fill-opacity:1;stroke-width:4.5551" />
      <path
         class="st0"
         d="M 218.9,109.45 C 218.9,48.89 169.46,-0.33 108.83,0 52.02,0.31 3.94,45.39 0.24,102.09 c -2.64,40.56 16.7,78.33 50.68,99.87 l -0.04,15.82 -36.96,0.12 V 192.73 H 0.07 v 38.91 h 64.68 l 0.04,-29.93 c 0.01,-4.63 -2.39,-8.91 -6.42,-11.46 -27.86,-17.61 -44.5,-47.81 -44.5,-80.8 0,-52.52 42.58,-95.28 95.03,-95.59 51.39,-0.3 94.39,40.96 96.09,92.32 1.14,34.25 -15.66,65.88 -44.44,84.07 -4.03,2.55 -6.43,6.83 -6.42,11.46 l 0.07,29.93 h 64.65 v -38.91 h -13.86 l 0.12,25.05 -37.08,0.12 -0.04,-15.95 c 31.87,-20.17 50.91,-54.74 50.91,-92.5 z"
         id="path64230"
         style="fill:#ffa729;fill-opacity:1;stroke-width:4.5551" />
      <path
         class="st0"
         d="m 355.91,44.55 c -38.17,0 -69.08,30.72 -69.08,69.27 0,38.36 30.91,69.27 69.08,69.27 13.93,0 26.91,-4.2 37.78,-11.26 l 15.08,15.27 12.21,-11.07 -14.69,-14.69 c 11.64,-12.4 18.89,-29 18.89,-47.52 0,-38.55 -31.1,-69.27 -69.27,-69.27 z m 38.17,104.38 -27.48,-27.48 -12.21,10.88 26.72,26.91 c -7.44,4.2 -16.03,6.49 -25.19,6.49 -28.62,0 -51.52,-22.71 -51.52,-51.9 0,-29.39 22.9,-52.1 51.52,-52.1 28.63,0 51.52,22.71 51.52,52.1 0,13.73 -4.96,25.94 -13.36,35.1 z"
         id="path64232"
         style="fill:#ffa729;fill-opacity:1;stroke-width:4.5551" />
      <path
         class="st0"
         d="m 543,88.44 c 0,-22.9 -18.7,-41.41 -41.6,-41.41 h -53.43 v 133.58 h 17.75 v -51.14 h 31.49 l 29.96,51.14 h 19.65 L 515.33,127.18 C 531.36,121.45 543,105.99 543,88.44 Z m -77.28,24.99 v -49.8 h 35.68 c 13.17,0 23.85,11.07 23.85,24.81 0,13.74 -10.69,25 -23.85,25 h -35.68 z"
         id="path64234"
         style="fill:#ffa729;fill-opacity:1;stroke-width:4.5551" />
      <polygon
         class="st0"
         points="661.91,163.81 583.59,163.81 583.59,47.03 565.85,47.03 565.85,180.61 644.17,180.61 661.91,180.61 "
         id="polygon64236"
         style="fill:#ffa729;fill-opacity:1;stroke-width:4.5551" />
    </g>
    <g
       id="g1237"
       transform="translate(2.8560055,-2.1166667)">
      <g
         id="g105077"
         transform="translate(-11.48771,3.346714)">
        <path
           d="m 194.89923,223.76554 c 0.17462,-1.38943 0.96994,-2.60613 1.86206,-3.6501 a 12.111963,12.111963 0 0 1 3.2515,-2.68966 6.1423465,6.1423465 0 0 1 1.05345,-0.51249 c 0.13667,-0.0456 0.32648,-0.0646 0.41,-0.18982 0.0835,-0.12527 0,-0.29041 -0.0152,-0.42327 -0.0152,-0.13287 -0.0152,-0.29421 -0.12528,-0.39482 a 0.96994408,0.96994408 0 0 0 -0.41758,-0.14046 3.5855663,3.5855663 0 0 1 -0.97564,-0.47263 c -1.13888,-0.7175 -1.93609,-1.85637 -2.44289,-3.07876 a 9.6273119,9.6273119 0 0 1 -0.59602,-4.94463 c -0.35685,-0.0133 -0.77254,-0.0436 -1.02309,-0.33028 -0.27713,-0.31889 -0.21638,-0.77633 -0.16513,-1.15976 a 8.2416773,8.2416773 0 0 1 0.64156,-2.33279 h -0.0285 c -0.0437,-0.13857 -0.13477,-1.05347 0.48402,-2.15248 0.66435,-1.18064 2.10503,-0.94907 2.37645,-0.88832 a 7.1920116,7.1920116 0 0 1 2.75989,-0.95097 c 2.30813,-0.35495 4.82504,0.17653 6.60549,1.74249 a 5.8177664,5.8177664 0 0 1 1.84877,3.05408 c 0.30371,1.34957 0.0835,2.76368 -0.33026,4.06579 -0.20501,0.64537 -0.49353,1.26985 -0.62449,1.93799 a 3.2704768,3.2704768 0 0 0 0.22587,1.9323 6.2334567,6.2334567 0 0 0 1.10851,1.61152 c 0.22019,0.24674 0.44797,0.48971 0.68713,0.71749 a 5.2426333,5.2426333 0 0 1 0.66814,0.63776 c 0.35305,0.48403 0.0532,1.04398 -0.42329,1.30023 -0.54097,0.2923 -1.19203,0.31129 -1.78993,0.25435 a 3.3388095,3.3388095 0 0 1 -1.75956,-0.63208 3.6387139,3.6387139 0 0 1 -1.04397,-1.47485 4.9958764,4.9958764 0 0 1 -0.3094,-0.98512 c -0.16704,0.22397 -0.40051,0.3967 -0.55615,0.63017 -0.15566,0.23347 -0.0797,0.46315 -0.019,0.7061 0.0778,0.317 0.13287,0.63777 0.18981,0.95856 0.0266,0.14616 0.0588,0.29042 0.074,0.43848 a 1.1958215,1.1958215 0 0 0 0.0532,0.40999 c 0.0949,0.18981 0.33407,0.21448 0.52008,0.26384 a 3.7962586,3.7962586 0 0 1 0.8162,0.35684 8.2549643,8.2549643 0 0 1 1.46536,1.03259 13.901899,13.901899 0 0 1 2.3347,2.66876 c 0.61309,0.89022 1.32868,1.92281 1.15786,3.06169 -0.14616,1.02499 -0.96805,1.76145 -1.79563,2.29293 a 11.755115,11.755115 0 0 1 -3.29516,1.42739 15.278042,15.278042 0 0 1 -7.43497,0.0304 15.543781,15.543781 0 0 1 -3.49825,-1.28884 c -0.8086,-0.41379 -1.70832,-0.96804 -1.89813,-1.93229 a 2.8585827,2.8585827 0 0 1 -0.0266,-0.9073 z m 11.2597,-20.04045 c -1.29833,-1.31351 -3.22682,-2.40683 -7.84117,-2.55298 a 0.85226008,0.85226008 0 0 0 -0.83897,0.5011 3.2439031,3.2439031 0 0 0 -0.40241,1.28124 23.726616,23.726616 0 0 1 2.95539,0.23916 c 5.33943,0.77824 7.51469,2.98766 8.1088,4.86491 -0.55046,-2.67067 -0.68142,-3.01612 -1.98164,-4.33343 z m 0.11389,9.13949 c 0.28662,-0.43847 0.46694,-0.94906 0.78013,-1.36475 a 4.8630074,4.8630074 0 0 1 0.53906,-0.55236 4.4871778,4.4871778 0 0 0 0.53337,-0.63397 c 0.28852,-0.41189 0.61121,-0.9111 0.48593,-1.43879 -0.1044,-0.44226 -0.68523,-0.18981 -0.96615,-0.11578 -0.0209,-0.47643 -0.0417,-0.98133 -0.42518,-1.32869 -0.32458,-0.28851 -0.78013,-0.45555 -0.94906,-0.88453 -0.26574,0.28283 -0.52009,0.64157 -0.9244,0.72508 a 1.8639629,1.8639629 0 0 1 -0.66623,-0.0379 c -0.27144,-0.0417 -0.54477,-0.0683 -0.8181,-0.0911 a 27.348248,27.348248 0 0 0 -3.2439,-0.0646 c -0.53717,0.019 -1.07624,0.0417 -1.61341,0.0911 a 4.4928721,4.4928721 0 0 1 -0.72888,0.0475 c -0.16704,-0.0114 -0.38912,-0.0798 -0.49731,0.093 a 0.94906472,0.94906472 0 0 0 -0.0475,0.48023 c 0,0.26194 -0.0342,0.52389 -0.0361,0.78582 a 9.0218084,9.0218084 0 0 0 0.12527,1.56596 c 0.27713,1.6343 1.0193,3.29895 2.40873,4.28028 a 3.8664894,3.8664894 0 0 0 2.58145,0.72319 4.4662983,4.4662983 0 0 0 2.41822,-1.09712 5.5823983,5.5823983 0 0 0 1.04588,-1.18253 z m -3.8589,6.37202 c 0.64347,0.32078 1.4179,0.30561 2.11072,0.18982 a 2.9819612,2.9819612 0 0 0 1.76336,-0.88643 c 0.16703,-0.18981 0.47263,-0.53528 0.18981,-0.74787 -0.23916,-0.17652 -0.63207,-0.16893 -0.69852,-0.52387 l -0.40049,-2.14679 a 4.9047662,4.9047662 0 0 1 -1.39893,0.77064 4.6580094,4.6580094 0 0 1 -1.68174,0.15944 c 0.0665,0.33597 0.26194,0.70801 0.0608,1.03637 -0.16135,0.26385 -0.48972,0.36255 -0.64158,0.63778 -0.31889,0.58273 0.17653,1.25087 0.69661,1.51091 z"
           id="path40094"
           style="fill:#e89825;fill-opacity:1;stroke-width:0.189813" />
        <text
           xml:space="preserve"
           transform="matrix(0.18981293,0,0,0.18981293,181.7412,206.81449)"
           id="text40098"
           style="font-style:normal;font-weight:normal;font-size:40px;line-height:1.25;font-family:sans-serif;white-space:pre;shape-inside:url(#rect40108);fill:#e89825;fill-opacity:1;stroke:none"><tspan
             x="71.123047"
             y="156.1775"
             id="tspan1568"><tspan
               style="font-weight:bold;font-stretch:expanded;font-family:'D-DIN Exp';-inkscape-font-specification:'D-DIN Exp Bold Expanded'"
               id="tspan1566">Alice</tspan></tspan></text>
      </g>
      <text
         xml:space="preserve"
         transform="matrix(0.18981293,0,0,0.18981293,109.71647,209.67679)"
         id="text40102"
         style="font-style:normal;font-weight:normal;font-size:40px;line-height:1.25;font-family:sans-serif;white-space:pre;shape-inside:url(#rect40110);fill:#000000;fill-opacity:1;stroke:none"><tspan
           x="71.123047"
           y="156.1775"
           id="tspan1572"><tspan
             style="font-weight:bold;font-stretch:expanded;font-family:'D-DIN Exp';-inkscape-font-specification:'D-DIN Exp Bold Expanded'"
             id="tspan1570">Oracle</tspan></tspan></text>
      <text
         xml:space="preserve"
         transform="matrix(0.18981293,0,0,0.18981293,136.38332,189.19997)"
         id="text42378"
         style="font-style:normal;font-weight:normal;font-size:40px;line-height:1;font-family:sans-serif;white-space:pre;shape-inside:url(#rect42380);fill:#e89825;fill-opacity:1;stroke:none"><tspan
           x="71.123047"
           y="148.32812"
           id="tspan1578"><tspan
             style="font-weight:bold;font-stretch:expanded;font-family:'D-DIN Exp';-inkscape-font-specification:'D-DIN Exp Bold Expanded'"
             id="tspan1574">μ</tspan><tspan
             style="font-size:65%;baseline-shift:sub"
             id="tspan1576">i</tspan></tspan></text>
      <g
         id="g49905"
         style="fill:#1a1a1a;fill-opacity:1"
         transform="matrix(0.71740321,0,0,0.71740321,106.51732,73.618385)">
        <text
           xml:space="preserve"
           transform="matrix(0.29983641,0,0,0.29983641,71.415699,169.02509)"
           id="text46383"
           style="font-style:normal;font-weight:normal;font-size:40px;line-height:0;font-family:sans-serif;white-space:pre;shape-inside:url(#rect46385);fill:#1a1a1a;fill-opacity:1;stroke:none"><tspan
             x="71.123047"
             y="146.79141"
             id="tspan1582"><tspan
               style="font-weight:bold;font-stretch:expanded;font-size:65%;line-height:1.7;font-family:'D-DIN Exp';-inkscape-font-specification:'D-DIN Exp Bold Expanded';baseline-shift:baseline"
               id="tspan1580">ξ</tspan></tspan></text>
        <text
           xml:space="preserve"
           transform="matrix(0.29983641,0,0,0.29983641,76.064629,168.55984)"
           id="text49344"
           style="font-style:normal;font-weight:normal;font-size:40px;line-height:1;font-family:sans-serif;white-space:pre;shape-inside:url(#rect49346);fill:#1a1a1a;fill-opacity:1;stroke:none"><tspan
             x="71.123047"
             y="148.32812"
             id="tspan1586"><tspan
               style="font-size:65%;baseline-shift:sub"
               id="tspan1584">i</tspan></tspan></text>
      </g>
      <path
         style="fill:none;stroke:#000000;stroke-width:0.925189;stroke-linecap:butt;stroke-linejoin:miter;stroke-miterlimit:4;stroke-dasharray:none;stroke-opacity:1;marker-end:url(#Arrow2Mend)"
         d="m 177.20492,215.85369 -17.70946,-0.23103"
         id="path79502"
         sodipodi:nodetypes="cc" />
      <path
         d="m 21.593017,226.46283 c 0.139795,-0.48673 0.375314,-0.74356 0.574426,-0.98057 0.199113,-0.23702 1.228096,-2.48065 2.087878,-3.13298 0.859809,-0.65233 2.777123,-1.31829 2.877758,-1.32264 0.644083,-0.0469 0.939686,-0.45535 1.322106,-0.87725 0.523173,-0.63803 0.04092,-2.63529 0.02039,-3.00117 -0.711415,-0.62971 -1.477214,-1.12182 -1.940147,-3.43737 -0.166642,-0.77167 -0.207945,-1.00705 -0.359468,-1.83374 -0.392784,-0.54182 -1.21764,-1.89572 -1.284894,-2.28436 -0.103652,-0.59895 0.02429,-1.45469 0.602026,-1.54611 -0.02013,-0.0378 -0.107286,-0.0711 -0.127286,-0.10885 -0.382405,-0.67832 -0.543436,-1.38556 -0.523304,-2.10061 0.06039,-1.43098 0.945987,-2.12558 1.449172,-2.41759 0.08053,-0.40882 0.281784,-0.82288 0.603819,-1.24215 0.845353,-1.07891 2.777577,-0.93088 4.790331,-0.78634 2.455554,0.22192 3.331247,0.20065 3.552635,-0.92846 l 0.06039,-0.31146 0.322036,-0.0526 c 1.771206,-0.30825 3.396982,1.33466 3.7794,3.01671 0.24152,1.08979 -0.689517,2.17333 -1.434195,2.80392 0.258105,0.57178 0.490767,1.92621 -0.0326,2.75957 -0.393602,2.45164 -0.671685,3.43699 -0.934064,4.81656 -0.483065,2.04765 -0.922841,4.38704 -3.358679,4.60551 -0.10066,0.3711 -0.328647,0.92113 0.496652,2.06287 0.422682,0.5801 1.570509,0.87717 2.214021,0.92724 0.643512,0.0501 1.568276,0.12651 2.269924,0.70332 0.701661,0.57684 2.659434,3.79525 2.837181,4.46794 0.17776,0.67268 -0.161018,1.10719 -0.60382,1.4738 -1.690704,1.44359 -4.729946,3.19649 -9.64103,3.40896 -5.333766,0.23076 -8.171726,-1.98203 -9.379378,-3.31954 -0.347362,-0.49731 -0.349701,-0.9035 -0.241364,-1.36265 z m 14.742212,-14.13539 c 0.140912,-0.60447 0.261665,-1.22737 0.422696,-1.85202 0.04026,-0.17545 0.08053,-0.37021 0.120792,-0.54568 l 0.04026,-0.15616 c 0.100659,-0.52552 0.161005,-1.02999 0.201268,-1.49498 0.04026,-0.87035 0,-1.31257 -0.0604,-1.54158 -0.02013,7.3e-4 -0.04026,0.001 -0.0604,0.004 -0.221388,0.0287 -0.46292,0.0586 -0.704441,0.0884 -0.04026,0.001 -0.08053,0.004 -0.120792,0.005 -0.08053,0.004 -0.161018,0.007 -0.24152,0.0298 -0.02013,7.4e-4 -0.04026,0.001 -0.0604,0.004 -0.161018,0.007 -0.322034,0.0138 -0.483052,0.0398 -0.02013,7.4e-4 -0.0604,0.004 -0.08053,0.004 -0.04026,10e-4 -0.08053,0.004 -0.120792,0.005 -2.576308,0.11144 -5.494783,-0.18693 -6.621907,-0.31187 l -0.08053,0.0421 c -0.46292,0.19376 -0.744704,0.34107 -0.945973,0.5235 -0.201269,0.16313 -0.301917,0.3605 -0.422683,0.63596 -0.02013,0.0394 -0.04026,0.079 -0.06039,0.11846 0,0.0194 -0.02013,0.0202 -0.02013,0.0394 -0.02013,0.0201 -0.04026,0.0403 -0.04026,0.079 -0.02013,0.0201 -0.02013,0.0201 -0.04026,0.0403 -0.02013,0.0202 -0.04026,0.0403 -0.06039,0.0605 -0.02013,0.0201 -0.02013,0.0201 -0.04026,0.0403 -0.02013,0.0201 -0.04026,0.0211 -0.04026,0.0403 -0.02013,0.0201 -0.04026,0.0212 -0.06039,0.0411 l -0.02013,7.1e-4 c -0.100659,0.0624 -0.201282,0.10523 -0.301916,0.1482 v 0 0 c -0.04026,10e-4 -0.08053,0.0229 -0.120792,0.0246 -1.017242,-0.18891 -0.874122,0.99502 -0.622004,1.50419 0.237013,0.4787 0.98742,1.50892 1.068832,1.78168 0.209594,1.01983 0.209503,1.04341 0.370508,1.90505 0.563568,2.81306 2.191227,3.9806 5.753773,3.82646 3.059387,-0.15167 2.707647,-1.63999 3.452365,-5.12735 z m -2.954778,8.11088 c -0.468804,-0.57144 -0.626653,-1.28408 -0.592753,-2.22785 -0.680413,0.0733 -0.94261,0.049 -1.414531,-0.004 -0.471935,-0.0529 -1.450095,-0.28545 -1.76396,-0.38343 0.02013,0.71333 0.454608,1.89125 -0.531591,2.99555 -0.422657,0.48153 -0.716728,0.81115 -1.340692,0.97325 0.281797,0.47037 1.127137,1.2059 3.703457,1.09442 1.851723,-0.08 3.099626,-0.63596 3.824199,-1.07266 -1.299857,-0.5523 -1.415337,-0.80414 -1.884129,-1.37557 z"
         id="path98400"
         style="fill:#4aafff;fill-opacity:1;stroke-width:0.197106"
         sodipodi:nodetypes="czzcccccsccccccccccccccczzzcscccsccccccccccscccccccccsccccscscscccccszccccsccz" />
      <path
         d="m 77.352555,226.60006 c 0.181527,-1.44437 1.008292,-2.70917 1.935679,-3.79442 a 12.590829,12.590829 0 0 1 3.380046,-2.796 6.3851937,6.3851937 0 0 1 1.09512,-0.53275 c 0.142067,-0.0474 0.339374,-0.0671 0.426216,-0.19733 0.08676,-0.13021 0,-0.30189 -0.01584,-0.44001 -0.01584,-0.13811 -0.01584,-0.30583 -0.130221,-0.41041 a 1.0082923,1.0082923 0 0 0 -0.4341,-0.14602 3.7273273,3.7273273 0 0 1 -1.014214,-0.49132 c -1.18391,-0.74587 -2.012636,-1.92978 -2.539487,-3.20049 a 10.007943,10.007943 0 0 1 -0.619561,-5.14012 c -0.370962,-0.0138 -0.803088,-0.0454 -1.063545,-0.34334 -0.288084,-0.33149 -0.224947,-0.80702 -0.171668,-1.2056 a 8.5675249,8.5675249 0 0 1 0.666943,-2.42502 h -0.02961 c -0.04532,-0.14406 -0.140093,-1.09512 0.503172,-2.23759 0.690609,-1.22733 2.188241,-0.98659 2.470401,-0.92345 a 7.476359,7.476359 0 0 1 2.869003,-0.98857 c 2.399379,-0.36897 5.015809,0.18352 6.866648,1.81138 a 6.0477809,6.0477809 0 0 1 1.921873,3.17483 c 0.31571,1.40294 0.08676,2.87296 -0.343323,4.22655 -0.213115,0.67089 -0.513044,1.32005 -0.649189,2.01461 a 3.3997803,3.3997803 0 0 0 0.234818,2.00869 6.4799062,6.4799062 0 0 0 1.152335,1.67523 c 0.228882,0.2565 0.465674,0.50908 0.714286,0.74586 a 5.449909,5.449909 0 0 1 0.69457,0.66298 c 0.367,0.50318 0.0552,1.08525 -0.440036,1.35163 -0.562347,0.30386 -1.239149,0.32359 -1.860697,0.2644 a 3.4708145,3.4708145 0 0 1 -1.829136,-0.65706 3.7825762,3.7825762 0 0 1 -1.085236,-1.53316 5.1933962,5.1933962 0 0 1 -0.321633,-1.02407 c -0.173642,0.23283 -0.416344,0.41237 -0.578141,0.65508 -0.161809,0.24271 -0.08287,0.48146 -0.01974,0.73403 0.08092,0.32953 0.138132,0.66298 0.197307,0.99645 0.02766,0.15193 0.06118,0.3019 0.07689,0.45582 a 1.2431002,1.2431002 0 0 0 0.05521,0.42619 c 0.09871,0.19732 0.347285,0.22297 0.540657,0.27429 a 3.9463497,3.9463497 0 0 1 0.848469,0.37094 8.5813373,8.5813373 0 0 1 1.523284,1.0734 14.451533,14.451533 0 0 1 2.427007,2.77429 c 0.637329,0.92541 1.381216,1.99883 1.203638,3.18274 -0.151939,1.06551 -1.006318,1.83108 -1.866621,2.38358 a 12.219872,12.219872 0 0 1 -3.425439,1.48384 15.882084,15.882084 0 0 1 -7.728925,0.0316 16.158329,16.158329 0 0 1 -3.636567,-1.33978 c -0.84056,-0.43014 -1.775858,-1.00632 -1.973165,-2.00869 a 2.9716013,2.9716013 0 0 1 -0.02766,-0.94316 z m 11.704866,-20.83279 c -1.34964,-1.36543 -3.354392,-2.50199 -8.151178,-2.65391 a 0.88595553,0.88595553 0 0 0 -0.872134,0.52091 3.3721559,3.3721559 0 0 0 -0.418319,1.33188 24.664685,24.664685 0 0 1 3.072233,0.24863 c 5.550529,0.809 7.81179,3.10578 8.429403,5.05726 -0.572218,-2.77627 -0.708363,-3.13537 -2.060005,-4.50477 z m 0.118455,9.50084 c 0.297942,-0.4558 0.485391,-0.98658 0.810972,-1.41872 a 5.0552739,5.0552739 0 0 1 0.560373,-0.57419 4.6645853,4.6645853 0 0 0 0.554463,-0.65904 c 0.299916,-0.42818 0.635369,-0.94711 0.505133,-1.49567 -0.108581,-0.45976 -0.712324,-0.1973 -1.004343,-0.1204 -0.02169,-0.49526 -0.04339,-1.02013 -0.441984,-1.38123 -0.337426,-0.29992 -0.810985,-0.47357 -0.986601,-0.91949 -0.276238,0.294 -0.540644,0.66694 -0.960924,0.75375 a 1.9376577,1.9376577 0 0 1 -0.692583,-0.0394 c -0.282173,-0.0435 -0.566308,-0.071 -0.850443,-0.0948 a 28.429503,28.429503 0 0 0 -3.372161,-0.0671 c -0.558399,0.0198 -1.118785,0.0435 -1.677184,0.0948 a 4.6705047,4.6705047 0 0 1 -0.757707,0.0494 c -0.173642,-0.0117 -0.404499,-0.0829 -0.516965,0.0966 a 0.98658744,0.98658744 0 0 0 -0.04923,0.49922 c 0,0.2723 -0.03545,0.54458 -0.03753,0.81688 a 9.3785001,9.3785001 0 0 0 0.130222,1.62787 c 0.288096,1.6989 1.059597,3.42938 2.503963,4.44951 a 4.0193572,4.0193572 0 0 0 2.683514,0.75179 4.6428804,4.6428804 0 0 0 2.513834,-1.14051 5.8031071,5.8031071 0 0 0 1.087223,-1.22927 z m -4.011465,6.62395 c 0.668904,0.33346 1.473953,0.31767 2.194162,0.19731 a 3.0998576,3.0998576 0 0 0 1.833084,-0.92147 c 0.173643,-0.19732 0.491327,-0.55645 0.197308,-0.77743 -0.248612,-0.1835 -0.657059,-0.17562 -0.726132,-0.5446 l -0.416331,-2.23167 a 5.0986837,5.0986837 0 0 1 -1.454225,0.80112 4.8421711,4.8421711 0 0 1 -1.74823,0.16574 c 0.0691,0.34926 0.272289,0.736 0.06313,1.07735 -0.167733,0.2743 -0.509082,0.37689 -0.666944,0.66298 -0.33149,0.60579 0.183515,1.30035 0.724158,1.57067 z"
         id="path98402"
         style="fill:#e89825;fill-opacity:1;stroke-width:0.197316" />
      <text
         xml:space="preserve"
         transform="matrix(0.19731748,0,0,0.19731748,63.674304,208.97881)"
         id="text98406"
         style="font-style:normal;font-weight:normal;font-size:40px;line-height:1.25;font-family:sans-serif;white-space:pre;shape-inside:url(#rect98412);fill:#e89825;fill-opacity:1;stroke:none"><tspan
           x="71.123047"
           y="156.1775"
           id="tspan1590"><tspan
             style="font-weight:bold;font-stretch:expanded;font-family:'D-DIN Exp';-inkscape-font-specification:'D-DIN Exp Bold Expanded'"
             id="tspan1588">Alice</tspan></tspan></text>
      <text
         xml:space="preserve"
         transform="matrix(0.19731748,0,0,0.19731748,9.7592271,208.77686)"
         id="text98410"
         style="font-style:normal;font-weight:normal;font-size:40px;line-height:1.25;font-family:sans-serif;white-space:pre;shape-inside:url(#rect98414);fill:#4aafff;fill-opacity:1;stroke:none"><tspan
           x="71.123047"
           y="156.1775"
           id="tspan1594"><tspan
             style="font-weight:bold;font-stretch:expanded;font-family:'D-DIN Exp';-inkscape-font-specification:'D-DIN Exp Bold Expanded'"
             id="tspan1592">Bob</tspan></tspan></text>
      <path
         style="fill:none;stroke:#000000;stroke-width:0.925189;stroke-linecap:butt;stroke-linejoin:miter;stroke-miterlimit:4;stroke-dasharray:none;stroke-opacity:1;marker-end:url(#Arrow2Mend)"
         d="m 43.318537,219.84156 34.211936,-0.23103"
         id="path105079"
         sodipodi:nodetypes="cc" />
      <circle
         style="fill:#ffffff;fill-opacity:1;stroke:none;stroke-width:1.15593;stroke-miterlimit:4;stroke-dasharray:none"
         id="path105278"
         cx="59.342728"
         cy="220.9749"
         r="10.953285" />
      <g
         id="g103090"
         transform="matrix(1.2988436,0,0,1.2988436,-2.0040308,-58.374307)">
        <circle
           style="fill:#1a1a1a;fill-opacity:1;stroke-width:1.05833;stroke-miterlimit:4;stroke-dasharray:none"
           id="path98534"
           cx="47.313656"
           cy="214.8864"
           r="7.8280063" />
        <path
           style="fill:#fffffd;fill-opacity:1;stroke:none;stroke-width:0.386733px;stroke-linecap:butt;stroke-linejoin:miter;stroke-opacity:1"
           d="m 45.428882,208.00996 c 0.07366,0.3123 0.370455,0.6634 0.370455,0.6634 0,0 -2.528364,0.70572 -4.027282,2.04591 1.273256,-1.70535 2.523433,-2.34992 3.656827,-2.70931 z"
           id="path102218"
           sodipodi:nodetypes="cccc" />
      </g>
      <path
         d="m 68.092638,229.53866 c -0.620437,-1.03407 -1.890855,-1.50679 -3.043095,-1.1227 l -2.540837,0.82725 -0.295446,-0.0296 c -0.295447,-0.11817 -0.08863,0.35454 -0.05909,0.47272 0.05909,0.29545 0.02955,0.5909 -0.118178,0.88634 -0.236356,0.50226 -0.76816,0.7977 -1.329507,0.76816 l -5.288487,-0.44317 -2.865828,-1.80222 c -0.32499,-0.20682 0,-0.70907 0.324992,-0.50225 l 2.747649,1.74313 5.140762,0.35452 c 0.384081,0.0296 0.738617,-0.23635 0.797705,-0.62042 0.08863,-0.41363 -0.177268,-0.91589 -0.413624,-1.27042 -0.472715,-0.70907 -1.240874,-1.15224 -2.068124,-1.24087 l -1.359052,-0.11819 c -0.709071,-0.0591 -1.299963,-0.44316 -1.713588,-1.03407 -0.354535,-0.5318 -0.76816,-1.00451 -1.270418,-1.41814 -0.974973,-0.79769 -2.186302,-1.29994 -3.427176,-1.41813 l -2.747649,-0.56136 c -0.354535,-0.0887 -0.709071,0.20682 -0.709071,0.5909 v 6.23392 c 0,0.26589 0.147724,0.47271 0.413625,0.56135 l 6.795261,2.24538 c 0.05909,0.0296 0.118179,0.0296 0.177268,0.0296 l 7.829323,0.20681 c 0.08863,0 0.177268,-0.0296 0.265902,-0.0591 l 4.638505,-2.21585 c 0.32499,-0.14771 0.443169,-0.5318 0.236356,-0.82724 z"
         id="path98418"
         style="fill:#4aafff;fill-opacity:1;stroke-width:0.295446" />
      <g
         id="g103176"
         transform="matrix(1.3712136,0,0,1.3712136,69.651931,-75.404412)">
        <circle
           style="fill:#1a1a1a;fill-opacity:1;stroke-width:1.05833;stroke-miterlimit:4;stroke-dasharray:none"
           id="circle103172"
           cx="47.313656"
           cy="214.8864"
           r="7.8280063" />
        <path
           style="fill:#fffffd;fill-opacity:1;stroke:none;stroke-width:0.386733px;stroke-linecap:butt;stroke-linejoin:miter;stroke-opacity:1"
           d="m 45.428882,208.00996 c 0.07366,0.3123 0.370455,0.6634 0.370455,0.6634 0,0 -2.528364,0.70572 -4.027282,2.04591 1.273256,-1.70535 2.523433,-2.34992 3.656827,-2.70931 z"
           id="path103174"
           sodipodi:nodetypes="cccc" />
      </g>
      <text
         xml:space="preserve"
         transform="matrix(0.17069732,0,0,0.17069732,36.585455,180.71648)"
         id="text103180"
         style="font-style:normal;font-weight:normal;font-size:40px;line-height:1.25;font-family:sans-serif;white-space:pre;shape-inside:url(#rect103182);fill:#000000;fill-opacity:1;stroke:none"><tspan
           x="71.123047"
           y="156.1775"
           id="tspan1598"><tspan
             style="font-weight:bold;font-stretch:expanded;font-family:'D-DIN Exp';-inkscape-font-specification:'D-DIN Exp Bold Expanded'"
             id="tspan1596">Oracle</tspan></tspan></text>
      <path
         style="fill:none;stroke:#000000;stroke-width:0.925189;stroke-linecap:butt;stroke-linejoin:miter;stroke-miterlimit:4;stroke-dasharray:none;stroke-opacity:1;marker-end:url(#Arrow2Mend)"
         d="m 151.32539,224.55559 17.70946,-0.23103"
         id="path105061"
         sodipodi:nodetypes="cc" />
      <g
         id="g105579"
         style="fill:#1a1a1a;fill-opacity:1"
         transform="matrix(0.71740321,0,0,0.71740321,73.884126,101.73215)">
        <text
           xml:space="preserve"
           transform="matrix(0.29983641,0,0,0.29983641,43.267994,161.99939)"
           id="text105571"
           style="font-style:normal;font-weight:normal;font-size:40px;line-height:1;font-family:sans-serif;white-space:pre;shape-inside:url(#rect105581);fill:#1a1a1a;fill-opacity:1;stroke:none"
           x="166.5498"
           y="0"><tspan
             x="155.78881"
             y="148.32812"
             id="tspan1606"><tspan
               style="font-weight:bold;font-stretch:expanded;font-size:65%;font-family:'D-DIN Exp';-inkscape-font-specification:'D-DIN Exp Bold Expanded';text-align:center;baseline-shift:baseline;text-anchor:middle"
               id="tspan1600">ξ</tspan><tspan
               style="font-size:65%;text-align:center;baseline-shift:sub;text-anchor:middle"
               id="tspan1602">i </tspan><tspan
               style="font-weight:bold;font-stretch:expanded;font-size:65%;font-family:'D-DIN Exp';-inkscape-font-specification:'D-DIN Exp Bold Expanded';text-align:center;baseline-shift:baseline;text-anchor:middle"
               id="tspan1604">= A valid signature 
</tspan></tspan><tspan
             x="103.06512"
             y="188.32812"
             id="tspan1622"><tspan
               style="font-weight:bold;font-stretch:expanded;font-size:65%;font-family:'D-DIN Exp';-inkscape-font-specification:'D-DIN Exp Bold Expanded';text-align:center;baseline-shift:baseline;text-anchor:middle"
               id="tspan1608">( meaning Verify(vk , </tspan><tspan
               style="font-weight:bold;font-stretch:expanded;font-size:65%;font-family:'D-DIN Exp';-inkscape-font-specification:'D-DIN Exp Bold Expanded';text-align:center;baseline-shift:baseline;text-anchor:middle"
               id="tspan1610">μ</tspan><tspan
               style="font-size:65%;baseline-shift:sub"
               id="tspan1612">i </tspan><tspan
               style="font-weight:bold;font-stretch:expanded;font-size:65%;font-family:'D-DIN Exp';-inkscape-font-specification:'D-DIN Exp Bold Expanded';text-align:center;baseline-shift:baseline;text-anchor:middle"
               id="tspan1614">, </tspan><tspan
               style="font-weight:bold;font-stretch:expanded;font-size:65%;font-family:'D-DIN Exp';-inkscape-font-specification:'D-DIN Exp Bold Expanded';text-align:center;baseline-shift:baseline;text-anchor:middle"
               id="tspan1616">ξ</tspan><tspan
               style="font-size:65%;baseline-shift:sub"
               id="tspan1618">i</tspan><tspan
               style="font-weight:bold;font-stretch:expanded;font-size:65%;font-family:'D-DIN Exp';-inkscape-font-specification:'D-DIN Exp Bold Expanded';text-align:center;baseline-shift:baseline;text-anchor:middle"
               id="tspan1620">)=1 )</tspan></tspan></text>
      </g>
      <text
         xml:space="preserve"
         transform="matrix(0.26458333,0,0,0.26458333,4.8520705,153.73754)"
         id="text114195"
         style="font-style:normal;font-weight:normal;font-size:40px;line-height:1;font-family:sans-serif;white-space:pre;shape-inside:url(#rect114197);fill:#000000;fill-opacity:1;stroke:none"><tspan
           x="71.123047"
           y="151.1775"
           id="tspan1626"><tspan
             style="font-weight:bold;font-stretch:expanded;font-family:'D-DIN Exp';-inkscape-font-specification:'D-DIN Exp Bold Expanded'"
             id="tspan1624">First</tspan></tspan></text>
      <text
         xml:space="preserve"
         transform="matrix(0.26458333,0,0,0.26458333,103.55907,153.70579)"
         id="text114889"
         style="font-style:normal;font-weight:normal;font-size:40px;line-height:1;font-family:sans-serif;white-space:pre;shape-inside:url(#rect114891);fill:#000000;fill-opacity:1;stroke:none"><tspan
           x="71.123047"
           y="151.1775"
           id="tspan1630"><tspan
             style="font-weight:bold;font-stretch:expanded;font-family:'D-DIN Exp';-inkscape-font-specification:'D-DIN Exp Bold Expanded'"
             id="tspan1628">Then</tspan></tspan></text>
    </g>
  </g>
</svg>
