<svg xmlns="http://www.w3.org/2000/svg" viewBox="0 0 173 33"><style>.st0{fill:#f3bb2d}</style><path class="st0" d="M14.8 16.6c0 .9.7 1.6 1.6 1.6.9 0 1.6-.7 1.6-1.6 0-.9-.7-1.6-1.6-1.6-.9 0-1.6.7-1.6 1.6M28.3 15c-.9 0-1.6.7-1.6 1.6 0 .9.7 1.6 1.6 1.6.9 0 1.6-.7 1.6-1.6 0-.9-.7-1.6-1.6-1.6m0 12.1c-.9 0-1.6.7-1.6 1.6 0 .9.7 1.6 1.6 1.6.9 0 1.6-.7 1.6-1.6 0-.9-.7-1.6-1.6-1.6"/><path class="st0" d="M31.7 1.7c-1.6-2-4.5-2.1-6.2-.5l-.2.2-.4.3c-1.6 1.3-4 1.2-5.5-.3v-.1C18.9.8 18.2.4 17.5.2c-.1 0-.3-.1-.4-.1h-1.6c-.1 0-.2 0-.3.1H15c-.1 0-.2.1-.3.1 0 0-.1 0-.1.1-.1 0-.2.1-.3.1 0 0-.1 0-.1.1-.1.1-.2.1-.3.2 0 0-.1 0-.1.1-.1.1-.2.1-.3.2l-.1.1-.2.2-.4.3c-1.6 1.3-4 1.2-5.4-.3 0 0-.1 0-.1-.1l-.2-.2C6.5.6 5.8.2 5 .1H3.2c0 .1-.1.1-.2.2h-.1c-.5.2-1 .4-1.4.8l-.1.1-.3.3c-.4.4-.6.9-.8 1.3 0 .1-.1.2-.1.3 0 .1-.1.2-.1.4-.1.7-.1 1.4.1 2.1 0 .1.1.2.1.3V6c0 .1.1.2.1.3.1.1.1.2.2.4.2.1.4.3.5.4l.2.2.2.2C3 9 3 11.6 1.4 13.2c-.2.2-.5.5-.6.7-.1.1-.1.2-.2.4v.1c-.1.1-.1.2-.2.3v.1c0 .1-.1.2-.1.3v.1c0 .1 0 .2-.1.3V17c0 .1 0 .2.1.3v.1c.2.7.6 1.4 1.2 2 1.6 1.6 1.6 4.2 0 5.8l-.1.1-.2.2v.1c-.1.1-.2.2-.2.3 0 0 0 .1-.1.1-.1.1-.1.2-.2.3l-.1.1c0 .1-.1.1-.1.2s-.1.1-.1.2 0 .1-.1.2c-.2.4-.3.9-.3 1.3v.8c.1.3.1.6.3.8 0 .1.1.2.1.2s0 .1.1.1c0 .1.1.2.1.3 0 0 0 .1.1.1.1.2.2.3.3.4 0 0 0 .1.1.1 0 0 0 .1.1.1 0 .1.1.1.1.1l.1.1c.1.1.2.1.2.2l.1.1s.1 0 .1.1c.1.1.2.2.3.2 0 0 .1 0 .1.1.1.1.2.1.3.2h.1c.1.1.2.1.4.1.1 0 .3.1.4.1h.1c.1 0 .2 0 .3.1h.9c.3 0 .5-.1.8-.1h.1c.1 0 .2-.1.3-.1H6c.1 0 .2-.1.3-.1h.1c.2-.1.5-.3.7-.4l.3-.3.1-.1c1.6-1.7 4.2-1.7 5.8 0 1.8 1.9 4.8 1.8 6.5-.3 1.2-1.5 1.2-3.7 0-5.3-1.6-2-4.5-2.1-6.2-.5l-.2.2-.4.3c-1.6 1.3-4 1.2-5.5-.3l-.2-.2L7 25c-1.3-1.6-1.2-4 .3-5.5.9-.8 1.3-1.9 1.3-3v-.3c0-1-.4-2-1.2-2.7 0-.1-.1-.1-.1-.2l-.3-.4c-1.3-1.6-1.2-4 .3-5.5l.1-.1.1-.1c1.6-1.7 4.2-1.7 5.8 0l.1.1.1.1.2.2c.1 0 .1.1.2.1s.1.1.2.1.1.1.2.1.1.1.2.1.1.1.2.1.1.1.2.1.1 0 .2.1c.1 0 .1 0 .2.1H17c.1 0 .2 0 .3-.1h.2c.1 0 .2-.1.3-.1h.1c.1 0 .2-.1.4-.2.4-.2.8-.5 1.1-.8l.1-.1c1.6-1.7 4.2-1.7 5.8 0 1.7 2 4.8 1.9 6.4-.2 1.2-1.5 1.2-3.7 0-5.2"/><path d="M54.5 14.1c-.6-.6-1.1-1-1.8-1.3-.6-.3-1.3-.5-2.2-.5-.8 0-1.6.2-2.2.5-.6.3-1.1.7-1.5 1.3-.4.5-.7 1.1-.9 1.8-.2.7-.3 1.4-.3 2.1 0 .7.1 1.4.4 2.1.2.7.6 1.2 1 1.7s1 .9 1.6 1.2c.6.3 1.3.4 2.1.4.9 0 1.6-.2 2.2-.5.6-.3 1.2-.7 1.7-1.3l2.1 2.2c-.8.9-1.7 1.5-2.7 1.9-1 .4-2.1.6-3.3.6-1.2 0-2.4-.2-3.4-.6-1-.4-1.9-1-2.6-1.7-.7-.7-1.3-1.6-1.7-2.6-.4-1-.6-2.2-.6-3.4 0-1.2.2-2.4.6-3.4.4-1 1-1.9 1.7-2.7.7-.7 1.6-1.3 2.6-1.7 1-.4 2.2-.6 3.4-.6 1.2 0 2.3.2 3.3.6 1.1.4 2 1.1 2.8 1.9l-2.3 2m6.8 3.7c0 .8.1 1.6.4 2.2.2.7.6 1.3 1 1.8s1 .9 1.6 1.1c.6.3 1.4.4 2.2.4.8 0 1.5-.1 2.2-.4.6-.3 1.2-.7 1.6-1.1.4-.5.8-1.1 1-1.8.2-.7.4-1.4.4-2.2 0-.8-.1-1.6-.4-2.2-.2-.7-.6-1.3-1-1.8s-1-.9-1.6-1.1c-.6-.3-1.4-.4-2.2-.4-.8 0-1.5.1-2.2.4-.6.3-1.2.7-1.6 1.1-.4.5-.8 1.1-1 1.8-.2.7-.4 1.4-.4 2.2zm-3.2 0c0-1.2.2-2.3.6-3.3.4-1 1-1.9 1.8-2.7.8-.8 1.6-1.4 2.7-1.8 1-.4 2.1-.7 3.3-.7 1.2 0 2.3.2 3.3.7 1 .4 1.9 1 2.7 1.8.8.8 1.3 1.7 1.8 2.7.4 1 .6 2.1.6 3.3 0 1.2-.2 2.3-.6 3.3-.4 1-1 1.9-1.8 2.7-.8.8-1.6 1.3-2.7 1.8-1 .4-2.1.7-3.3.7-1.2 0-2.3-.2-3.3-.7-1-.4-1.9-1-2.7-1.8-.8-.8-1.3-1.6-1.8-2.7-.3-1-.6-2.1-.6-3.3zM78 25.9h3v-16h-3v16zm-.7-21.8c0-.6.2-1.1.6-1.6.4-.4.9-.7 1.5-.7s1.1.2 1.5.7c.4.4.6 1 .6 1.6 0 .6-.2 1.1-.6 1.6-.4.4-.9.7-1.5.7s-1.1-.2-1.5-.7c-.4-.4-.6-1-.6-1.6zm7.9 5.8h3v2.5h.1c.4-.9 1-1.6 2-2.1.9-.5 2-.8 3.3-.8.8 0 1.5.1 2.2.4.7.2 1.3.6 1.8 1.1.5.5.9 1.1 1.3 1.9.3.8.5 1.7.5 2.8V26h-3v-9.5c0-.7-.1-1.4-.3-1.9-.2-.5-.5-1-.8-1.3-.3-.3-.7-.6-1.2-.7-.4-.1-.9-.2-1.4-.2-.6 0-1.2.1-1.7.3-.5.2-1 .5-1.4 1-.4.4-.7 1-.9 1.7-.2.7-.3 1.5-.3 2.4v8.3h-3V9.9m25.1 13.5c.8 0 1.5-.1 2.2-.4.7-.3 1.2-.7 1.7-1.2.4-.5.8-1.1 1-1.8.2-.7.4-1.4.4-2.3 0-.8-.1-1.6-.4-2.3-.2-.7-.6-1.3-1-1.8-.5-.5-1-.9-1.7-1.2-.7-.3-1.4-.4-2.2-.4-.8 0-1.5.1-2.2.4-.7.3-1.2.7-1.7 1.2-.4.5-.8 1.1-1 1.8-.2.7-.4 1.4-.4 2.3 0 .8.1 1.6.4 2.3.2.7.6 1.3 1 1.8s1 .9 1.7 1.2c.6.2 1.4.4 2.2.4zm8.3 2.4h-3v-2.3h-.1c-.6.9-1.4 1.5-2.4 2s-2.1.7-3.2.7c-1.2 0-2.4-.2-3.4-.6-1-.4-1.9-1-2.6-1.8-.7-.8-1.3-1.7-1.6-2.7-.4-1-.6-2.1-.6-3.3 0-1.2.2-2.3.6-3.4.4-1 .9-1.9 1.6-2.7.7-.8 1.6-1.4 2.6-1.8 1-.4 2.1-.6 3.4-.6 1.1 0 2.2.2 3.2.7 1 .5 1.8 1.2 2.3 2h.1V0h3v25.8zm15.3-9.3c0-.7-.1-1.3-.3-1.9-.2-.6-.5-1.1-.9-1.5-.4-.4-.9-.7-1.4-1-.6-.2-1.2-.4-2-.4-.7 0-1.4.1-2 .4-.6.3-1.1.6-1.6 1.1-.4.4-.8.9-1 1.5-.2.6-.4 1.1-.4 1.6h9.6zm-9.6 2.5c0 .7.2 1.3.5 1.9.3.6.7 1.1 1.2 1.5.5.4 1.1.7 1.7.9.7.2 1.3.3 2 .3.9 0 1.8-.2 2.5-.7.7-.4 1.3-1 1.9-1.7l2.3 1.8c-1.7 2.2-4.1 3.3-7.1 3.3-1.3 0-2.4-.2-3.4-.6-1-.4-1.9-1-2.6-1.8-.7-.8-1.3-1.6-1.6-2.7-.4-1-.6-2.1-.6-3.3 0-1.2.2-2.3.6-3.3.4-1 1-1.9 1.7-2.7.7-.8 1.6-1.3 2.6-1.8 1-.4 2.1-.6 3.3-.6 1.4 0 2.6.2 3.6.7 1 .5 1.8 1.1 2.4 1.9.6.8 1.1 1.7 1.4 2.7.3 1 .4 2 .4 3.1V19h-12.8zm24.6-5.1c-.4-.4-.8-.8-1.3-1.1-.5-.3-1.2-.5-1.9-.5s-1.3.2-1.9.5c-.5.3-.8.7-.8 1.3 0 .5.2.9.5 1.1.3.3.7.5 1.1.7.4.2.9.3 1.3.4.5.1.9.2 1.2.2.6.2 1.3.3 1.8.6.6.2 1.1.5 1.5.9.4.4.7.8 1 1.3.2.5.4 1.1.4 1.9 0 .9-.2 1.7-.6 2.3-.4.6-.9 1.2-1.5 1.6-.6.4-1.3.7-2.1.9-.8.2-1.6.3-2.3.3-1.3 0-2.5-.2-3.5-.6-1-.4-1.9-1.1-2.7-2.2l2.3-1.9c.5.5 1 .9 1.6 1.3.6.4 1.3.6 2.2.6.4 0 .8 0 1.2-.1.4-.1.7-.2 1-.4.3-.2.5-.4.7-.6.2-.3.3-.6.3-.9 0-.4-.1-.8-.4-1.1-.3-.3-.6-.5-1-.7-.4-.2-.8-.3-1.2-.4l-1.2-.3c-.6-.2-1.3-.3-1.8-.5-.6-.2-1.1-.5-1.5-.8-.4-.3-.8-.8-1.1-1.3-.3-.5-.4-1.2-.4-1.9 0-.8.2-1.6.5-2.2.3-.6.8-1.1 1.4-1.5.6-.4 1.2-.7 1.9-.9.7-.2 1.5-.3 2.2-.3 1.1 0 2.1.2 3.1.6 1 .4 1.8 1.1 2.4 2l-2.4 1.7M154.9.4h3v16.2l6.8-6.8h4.1l-7.3 7.2 8 8.6h-4.3l-7.3-8.2v8.2h-3V.4" fill="#fff"/></svg>