<?xml version="1.0" encoding="UTF-8" standalone="no"?>
<!-- Generator: Adobe Illustrator 19.0.0, SVG Export Plug-In . SVG Version: 6.00 Build 0)  -->

<svg
   xmlns:dc="http://purl.org/dc/elements/1.1/"
   xmlns:cc="http://creativecommons.org/ns#"
   xmlns:rdf="http://www.w3.org/1999/02/22-rdf-syntax-ns#"
   xmlns:svg="http://www.w3.org/2000/svg"
   xmlns="http://www.w3.org/2000/svg"
   xmlns:sodipodi="http://sodipodi.sourceforge.net/DTD/sodipodi-0.dtd"
   xmlns:inkscape="http://www.inkscape.org/namespaces/inkscape"
   version="1.1"
   width="133.27733"
   height="32.748661"
   id="Layer_1"
   x="0px"
   y="0px"
   viewBox="308 215.1 1076.4365 197.84044"
   xml:space="preserve"
   sodipodi:docname="cryptodaily.onlight.svg"
   inkscape:version="0.92.4 (5da689c313, 2019-01-14)"><metadata
   id="metadata40"><rdf:RDF><cc:Work
       rdf:about=""><dc:format>image/svg+xml</dc:format><dc:type
         rdf:resource="http://purl.org/dc/dcmitype/StillImage" /><dc:title></dc:title></cc:Work></rdf:RDF></metadata><defs
   id="defs38">
	
	
	
	
	
	
	
	

		
		
		
	</defs><sodipodi:namedview
   pagecolor="#ffffff"
   bordercolor="#666666"
   borderopacity="1"
   objecttolerance="10"
   gridtolerance="10"
   guidetolerance="10"
   inkscape:pageopacity="0"
   inkscape:pageshadow="2"
   inkscape:window-width="1817"
   inkscape:window-height="647"
   id="namedview36"
   showgrid="false"
   inkscape:zoom="3.4883935"
   inkscape:cx="38.421671"
   inkscape:cy="23.161215"
   inkscape:window-x="3070"
   inkscape:window-y="27"
   inkscape:window-maximized="0"
   inkscape:current-layer="Layer_1" />
<style
   type="text/css"
   id="style2">
	.st0{fill:transparent;}
	.st1{fill:#4BA565;}
	.st2{fill:#ffffff;}
</style>
<g
   id="g874"
   transform="translate(-3.5934784e-6,507.50745)"><path
     class="st1"
     d="m 679.33654,-216.63723 c -1.2,-15.8 -14.2,-37.9 -46.3,-37.9 -27.6,0 -49.3,19.1 -49.3,56.6 0,37 20.5,56.3 49,56.3 26.9,0 42.1,-16.3 46.6,-39.6 h -22.4 c -2.7,13.2 -11.3,20.2 -23.7,20.2 -19,0 -26.6,-17.3 -26.6,-36.6 0,-30.3 15.8,-37.5 26.6,-37.5 18.5,0 21.9,12.1 23.7,18.5 z m 343.49996,32.4 c 0,-28.7 -19.3,-41.8 -40.59996,-41.8 -21.3,0 -40.6,13.1 -40.6,41.8 0,28.7 19.3,41.8 40.6,41.8 21.39996,0 40.59996,-13.2 40.59996,-41.8 z m -21.5,0 c 0,10.1 -2.99996,24.2 -19.09996,24.2 -16.1,0 -19.1,-14 -19.1,-24.2 0,-10.2 3,-24.2 19.1,-24.2 16.2,0 19.09996,14 19.09996,24.2 z m -74.29996,-61.3 h -20.9 v 21.5 h -10.7 v 14.9 h 10.7 v 48.2 c 0,10.3 3.3,17.2 21.3,17.2 h 2.7 c 3.3,0 6.6,-0.1 9.9,-0.3 v -15.8 c -1.5,0.1 -3,0.3 -4.3,0.3 -8.5,0 -8.7,-1.8 -8.7,-6.4 v -43.2 h 13 v -14.9 h -13 z m -241.6,101 h 20.9 v -41.4 c 0,-8.8 3,-19 19.3,-19 1.9,0 4.2,0 6,0.3 v -21.2 c -1.3,-0.1 -2.7,-0.3 -4,-0.3 -12.7,0 -17.5,7.8 -21.8,15.8 h -0.3 v -13.7 h -20 v 79.5 z"
     id="path17"
     inkscape:connector-curvature="0"
     style="fill:#4ba565" /><path
     class="st1"
     d="m 813.53654,-223.93723 h -22.1 l -16.3,58.5 h -0.3 l -17,-58.5 h -23.3 l 29.3,82.7 c -2,10.9 -6.1,12 -13.7,12 -1.8,0 -3.1,-0.2 -4,-0.3 v 16.7 c 3,0.1 6.6,0.3 9.4,0.3 18.2,0 20.9,-3.9 30.8,-33.3 z"
     id="path19"
     inkscape:connector-curvature="0"
     style="fill:#4ba565" /><path
     class="st1"
     d="m 837.73654,-182.43723 c 0,-12.7 3.4,-25.5 17.8,-25.5 13.3,0 17.8,11.8 17.8,24.3 0,9.4 -3.7,24 -17.2,24 -13.4,0 -18.4,-11.1 -18.4,-22.8 z m 0,-41.5 h -20 v 110.5 h 20.8 v -41.2 h 0.3 c 2.5,4.3 7.8,12.2 22.4,12.2 23.6,0 33.4,-20.9 33.4,-42.7 0,-27.5 -15.5,-40.9 -33,-40.9 -14,0 -19.9,7.3 -23.8,13.6 h -0.3 v -11.5 z"
     id="path21"
     inkscape:connector-curvature="0"
     style="fill:#4ba565" /><path
     style="fill:#4ba565"
     inkscape:connector-curvature="0"
     id="path23"
     d="m 327.93654,-156.33723 c 22.2,46.2 59.4,75.299999 93.7,93.499999 0.1,0.1 3,1.6 3,1.6 0,0 2.9,-1.5 3,-1.6 58.1,-30.6 124.4,-92.799999 112.2,-215.499999 l -25.6,-11.1 c -4.8,38 -28.2,70 -60.8,93.2 -4.4,3.1 -9,6.1 -13.8,8.9 l 4.6,34.6 c 0.6,4.6 -3.8,8.5 -8.4,8.5 h -23.3 c -4.6,0 -9.1,-3.9 -8.4,-8.5 l 2.4,-18.6 c -22.4,8.6 -46.5,13.7 -70.4,14.9 -2.8,0 -5.5,0.1 -8.2,0.1 z"
     class="st1" /><path
     style="fill:#333464;fill-opacity:1"
     inkscape:connector-curvature="0"
     id="path25"
     d="m 309.43654,-278.33723 c -4.4,44.9 1.6,81.7 14,111.9 4.1,0.1 8.1,0 12.2,-0.2 24.7,-1.2 49.6,-6.9 72.5,-16.3 l 1.9,-14.6 c -7.2,-4.8 -12,-13 -12,-22.3 0,-14.7 12,-26.7 26.7,-26.7 14.7,0 26.7,12 26.7,26.7 0,6.3 -2.2,12.2 -6,16.8 0.7,-0.5 1.4,-1 2.1,-1.5 30,-21.3 51.6,-50.5 56.5,-84.7 -28.1,7.4 -53.7,-2.3 -69.5,-23.2 h -9.3 -0.9 -9.3 c -17,22.5 -45.3,32 -75.8,21.3 z"
     class="st2" /><path
     style="fill:#ffffff"
     inkscape:connector-curvature="0"
     id="path27"
     d="m 526.13654,-325.73723 c 1.7,0 3.3,0.7 4.4,1.8 1.1,1.1 1.8,2.7 1.8,4.4 0,1.7 -0.7,3.3 -1.8,4.4 -1.1,1.1 -2.7,1.8 -4.4,1.8 -1.7,0 -3.3,-0.7 -4.4,-1.8 -1.1,-1.1 -1.8,-2.7 -1.8,-4.4 0,-1.7 0.7,-3.3 1.8,-4.4 1.1,-1 2.7,-1.8 4.4,-1.8 z m -2.3,10.2 v -8.1 h 2.9 c 0.6,0 1,0.1 1.4,0.2 0.3,0.1 0.5,0.4 0.7,0.7 0.2,0.4 0.3,0.8 0.3,1.2 0,0.6 -0.2,1.1 -0.5,1.5 -0.3,0.4 -0.8,0.6 -1.4,0.7 0.3,0.1 0.5,0.3 0.6,0.4 0.3,0.3 0.5,0.7 0.7,1 l 1.2,2.3 c 0.1,-0.1 0.2,-0.1 0.3,-0.2 1,-1 1.6,-2.3 1.6,-3.8 0,-1.5 -0.6,-2.8 -1.6,-3.8 -1,-1 -2.3,-1.6 -3.8,-1.6 -1.5,0 -2.8,0.6 -3.8,1.6 -1,1 -1.6,2.3 -1.6,3.8 0,1.5 0.6,2.8 1.6,3.8 1,1 2.3,1.6 3.8,1.6 1,0 1.9,-0.3 2.7,-0.7 l -1.2,-2.4 c -0.3,-0.7 -0.6,-1.1 -0.8,-1.3 -0.2,-0.2 -0.3,-0.4 -0.5,-0.5 -0.2,-0.1 -0.4,-0.1 -0.7,-0.1 h -1 v 3.6 h -0.9 z m 0.8,-4.5 h 1.9 c 0.4,0 0.7,-0.1 0.9,-0.1 0.2,-0.1 0.4,-0.3 0.5,-0.5 0.1,-0.2 0.2,-0.5 0.2,-0.7 0,-0.4 -0.1,-0.7 -0.4,-0.9 -0.2,-0.3 -0.6,-0.4 -1,-0.4 h -2.1 z"
     class="st2" /><path
     class="st2"
     d="m 1032.5365,-144.53723 h 46.4 c 35.4,0 44.5,-33.1 44.5,-56.2 0,-20.3 -7.5,-51.1 -43.6,-51.1 h -47.3 z m 314.1,-79.4 h -22.1 l -16.3,58.5 h -0.3 l -17,-58.5 h -23.3 l 29.3,82.7 c -1.9,10.9 -6.1,12 -13.7,12 -1.8,0 -3.1,-0.2 -4.1,-0.3 v 16.7 c 3,0.1 6.6,0.3 9.4,0.3 18.2,0 20.9,-3.9 30.8,-33.3 z m -86,-27.8 h -20.9 v 107.2 h 20.9 z m -54.4,27.8 v 79.4 h 20.9 v -79.4 z m 20.9,-28.9 h -20.9 v 19.4 h 20.9 z m -32.1,49.7 c 0,-19.6 -20.5,-23 -31.7,-23 -16.3,0 -33.1,3.4 -35.5,27.8 h 20.2 c 0.6,-4.6 2.4,-11.1 12.8,-11.1 5.4,0 13.7,0.5 13.7,9.2 0,4.5 -4,5.8 -7.3,6.3 l -18.8,2.8 c -13.3,1.9 -23.1,9.9 -23.1,25.4 0,16.4 12.2,23.2 24.2,23.2 14.2,0 20.9,-6.6 25.7,-11.5 0.5,4.5 0.8,5.7 2,9.4 h 22.5 v -3 c -2.5,-0.9 -4.6,-3 -4.6,-12.4 v -43.1 z m -20.5,30.1 c 0,9.7 -9.4,15.7 -18.7,15.7 -4,0 -9.7,-2.2 -9.7,-9.6 0,-8.7 6.4,-10.6 14.2,-11.9 8.6,-1.4 12.1,-2.7 14.2,-4.3 z m -120.1,-60.2 h 21.5 c 9.6,0 24.6,2.6 24.6,34.2 0,17.6 -6.1,36 -24.3,36 h -21.8 z"
     id="path30"
     inkscape:connector-curvature="0"
     style="fill:#333464;fill-opacity:1" /><path
     class="st2"
     d="m 1359.6365,-261.63723 v 8.7 c 0,0.2 -0.1,0.4 -0.2,0.6 -0.1,0.2 -0.3,0.2 -0.5,0.2 h -1.4 c -0.2,0 -0.4,-0.1 -0.6,-0.2 -0.2,-0.1 -0.2,-0.3 -0.2,-0.6 v -22.3 c 0,-0.2 0.1,-0.4 0.2,-0.6 0.1,-0.2 0.3,-0.2 0.6,-0.2 h 8 c 2.2,0 4.1,0.6 5.5,1.8 1.2,1.2 2,2.9 2,5.1 v 0.5 c 0,1.6 -0.4,3 -1.4,4.2 -0.8,1 -2,1.8 -3.5,2.3 l 4.6,8.8 c 0.1,0.1 0.1,0.2 0.2,0.3 0,0.1 0,0.2 0,0.3 0,0.2 -0.1,0.3 -0.2,0.4 -0.1,0.1 -0.3,0.2 -0.4,0.2 h -1.9 c -0.2,0 -0.4,-0.1 -0.5,-0.2 -0.1,-0.1 -0.2,-0.2 -0.3,-0.4 l -4.6,-8.9 z m 4.4,-22.4 c 5.6,0 10.7,2.3 14.4,6 3.7,3.7 6,8.8 6,14.4 0,5.6 -2.3,10.7 -6,14.4 -3.7,3.7 -8.8,6 -14.4,6 -5.6,0 -10.7,-2.3 -14.4,-6 -3.7,-3.7 -6,-8.8 -6,-14.4 0,-5.6 2.3,-10.7 6,-14.4 3.6,-3.7 8.8,-6 14.4,-6 z m 12.4,7.9 c -3.2,-3.2 -7.6,-5.2 -12.5,-5.2 -4.9,0 -9.3,2 -12.5,5.2 -3.2,3.2 -5.2,7.6 -5.2,12.5 0,4.9 2,9.3 5.2,12.5 3.2,3.2 7.6,5.2 12.5,5.2 4.9,0 9.3,-2 12.5,-5.2 3.2,-3.2 5.2,-7.6 5.2,-12.5 0,-4.9 -2,-9.3 -5.2,-12.5 z m -16.8,3 v 8.7 h 5.7 c 1.3,0 2.5,-0.4 3.4,-1.1 0.7,-0.7 1.2,-1.6 1.2,-2.9 v -0.6 c 0,-1.4 -0.5,-2.4 -1.2,-3.1 -0.9,-0.8 -2.1,-1.1 -3.4,-1.1 h -5.7 z"
     id="path32"
     inkscape:connector-curvature="0"
     style="fill:#333464;fill-opacity:1" /></g>
</svg>