<svg xmlns="http://www.w3.org/2000/svg" width="216" height="41" viewBox="0 0 216 41">
  <g fill="none">
    <path fill="#4A4A4A" d="M5.695,24.819 C5.816,26.157 6.179,27.131 6.785,27.739 C7.754,28.955 9.451,29.564 11.753,29.564 C13.207,29.564 14.297,29.442 15.145,29.077 C16.841,28.469 17.69,27.374 17.69,25.792 C17.69,24.819 17.326,24.089 16.478,23.602 C15.63,23.116 14.297,22.629 12.601,22.264 L9.572,21.534 C6.543,20.804 4.483,20.074 3.393,19.344 C1.454,18.006 0.485,15.938 0.485,13.139 C0.485,10.585 1.454,8.395 3.271,6.691 C5.089,4.866 7.875,4.015 11.51,4.015 C14.539,4.015 17.084,4.866 19.265,6.448 C21.446,8.03 22.536,10.341 22.657,13.383 L16.963,13.383 C16.841,11.68 16.114,10.463 14.661,9.733 C13.691,9.246 12.601,9.003 11.147,9.003 C9.572,9.003 8.36,9.368 7.512,9.976 C6.422,10.585 6.058,11.436 6.058,12.531 C6.058,13.504 6.543,14.356 7.391,14.843 C7.997,15.208 9.208,15.573 11.147,16.059 L16.114,17.276 C18.295,17.763 19.87,18.493 20.961,19.344 C22.657,20.682 23.505,22.629 23.505,25.184 C23.505,27.861 22.536,30.05 20.476,31.754 C18.417,33.457 15.63,34.309 11.995,34.309 C8.239,34.309 5.331,33.457 3.15,31.754 C1.09,30.05 0,27.739 0,24.819 L5.695,24.819 Z M25.323,16.546 L25.323,12.531 L28.231,12.531 L28.231,6.691 L33.683,6.691 L33.683,12.653 L37.075,12.653 L37.075,16.668 L33.683,16.668 L33.683,27.861 C33.683,28.712 33.804,29.32 34.046,29.442 C34.289,29.685 34.894,29.807 36.106,29.807 L36.591,29.807 L37.197,29.807 L37.197,33.944 L34.531,34.065 C31.865,34.187 30.169,33.7 29.2,32.727 C28.594,32.119 28.231,31.145 28.231,29.807 L28.231,16.546 L25.323,16.546 Z M49.07,16.424 C47.738,16.424 46.768,16.789 46.041,17.641 C45.314,18.493 44.951,19.588 44.709,20.926 L53.311,20.926 C53.311,19.466 52.826,18.249 51.978,17.519 C51.251,16.789 50.282,16.424 49.07,16.424 Z M49.07,11.801 C50.888,11.801 52.463,12.166 53.796,12.774 C55.25,13.383 56.34,14.478 57.309,15.938 C58.157,17.154 58.642,18.614 58.884,20.318 C59.006,21.291 59.127,22.751 59.006,24.576 L44.466,24.576 C44.587,26.766 45.193,28.226 46.526,29.077 C47.253,29.564 48.222,29.929 49.313,29.929 C50.403,29.929 51.372,29.564 52.099,28.955 C52.463,28.59 52.826,28.104 53.19,27.496 L58.884,27.496 C58.763,28.712 58.036,30.05 56.946,31.389 C55.128,33.457 52.584,34.43 49.313,34.43 C46.647,34.43 44.224,33.579 42.164,31.875 C40.104,30.172 39.135,27.252 39.135,23.359 C39.135,19.709 40.104,16.911 41.922,14.843 C43.739,12.774 46.041,11.801 49.07,11.801 Z M74.514,23.237 C74.151,23.481 73.787,23.602 73.424,23.724 C73.06,23.846 72.576,23.967 71.97,24.089 L70.758,24.332 C69.547,24.576 68.698,24.819 68.214,25.062 C67.366,25.549 66.881,26.401 66.881,27.374 C66.881,28.347 67.123,28.955 67.608,29.442 C68.093,29.807 68.82,30.05 69.547,30.05 C70.758,30.05 71.849,29.685 72.818,28.955 C73.787,28.226 74.393,27.009 74.393,25.062 L74.393,23.237 L74.514,23.237 Z M71.122,20.682 C72.091,20.561 72.818,20.439 73.303,20.196 C74.151,19.831 74.514,19.344 74.514,18.614 C74.514,17.763 74.272,17.154 73.666,16.789 C73.06,16.424 72.212,16.303 71.001,16.303 C69.668,16.303 68.82,16.668 68.214,17.276 C67.85,17.763 67.608,18.371 67.487,19.223 L62.156,19.223 C62.277,17.398 62.762,15.816 63.731,14.599 C65.185,12.774 67.729,11.801 71.243,11.801 C73.545,11.801 75.605,12.288 77.422,13.139 C79.24,14.113 80.088,15.816 80.088,18.371 L80.088,28.104 L80.088,30.537 C80.088,31.267 80.209,31.754 80.451,31.997 C80.572,32.24 80.936,32.484 81.299,32.605 L81.299,33.457 L75.241,33.457 C75.12,32.97 74.999,32.605 74.878,32.24 C74.757,31.875 74.757,31.389 74.757,30.902 C74.03,31.754 73.06,32.484 72.091,32.97 C70.879,33.7 69.547,33.944 68.093,33.944 C66.154,33.944 64.579,33.335 63.367,32.24 C62.156,31.145 61.55,29.564 61.55,27.617 C61.55,25.062 62.519,23.116 64.579,21.899 C65.669,21.291 67.245,20.804 69.425,20.561 L71.122,20.682 Z M90.629,33.579 L85.055,33.579 L85.055,4.866 L90.629,4.866 L90.629,33.579 Z M93.9,16.546 L93.9,12.531 L96.808,12.531 L96.808,6.691 L102.26,6.691 L102.26,12.653 L105.653,12.653 L105.653,16.668 L102.26,16.668 L102.26,27.861 C102.26,28.712 102.381,29.32 102.624,29.442 C102.866,29.685 103.472,29.807 104.683,29.807 L105.168,29.807 L105.774,29.807 L105.774,33.944 L103.108,34.065 C100.443,34.187 98.746,33.7 97.777,32.727 C97.171,32.119 96.808,31.145 96.808,29.807 L96.808,16.546 L93.9,16.546 Z M120.919,11.801 C122.252,11.801 123.463,12.045 124.433,12.531 C125.523,13.018 126.371,13.626 127.098,14.599 C127.704,15.451 128.068,16.181 128.189,17.033 C128.31,17.884 128.431,19.223 128.431,21.169 L128.431,33.7 L122.736,33.7 L122.736,20.682 C122.736,19.588 122.494,18.614 122.131,17.884 C121.646,16.911 120.677,16.424 119.223,16.424 C117.769,16.424 116.678,16.911 115.951,17.884 C115.224,18.858 114.861,20.318 114.861,22.142 L114.861,33.7 L109.288,33.7 L109.288,4.988 L114.861,4.988 L114.861,15.208 C115.709,13.991 116.557,13.139 117.648,12.653 C118.617,12.045 119.829,11.801 120.919,11.801 Z"/>
    <rect width="60" height="33" x="140" y="4" fill="#FFF"/>
    <path fill="#4A4A4A" d="M215.276,18.979 L201.343,0.852 C200.979,0.365 200.252,0 199.647,0 L135.431,0 L135.431,41 L200.374,41 C200.979,41 201.464,40.757 201.828,40.27 L215.398,22.264 C216.003,21.291 216.003,19.953 215.276,18.979 Z M165.843,33.335 L144.034,33.335 L144.034,6.935 L165.358,6.935 L165.358,13.626 L152.757,13.626 L152.757,16.668 L163.904,16.668 L163.904,23.116 L152.757,23.116 L152.757,26.522 L165.843,26.522 L165.843,33.335 Z M186.925,33.335 L182.442,26.279 L177.959,33.335 L167.902,33.335 L177.353,20.074 L168.145,7.056 L178.08,7.056 L182.563,13.748 L186.925,7.056 L196.496,7.056 L187.409,19.831 L197.102,33.457 L186.925,33.457 L186.925,33.335 Z"/>
  </g>
</svg>