<svg width="115px" height="42px" viewBox="0 0 115 42" version="1.1" xmlns="http://www.w3.org/2000/svg" xmlns:xlink="http://www.w3.org/1999/xlink" >
    <defs>
        <path d="M43.96875,39.078125 C46.8541667,39.078125 48.296875,37.984375 48.296875,35.796875 C48.296875,33.765625 47.1067708,32.75 44.7265625,32.75 L44.7265625,32.75 L43.2890625,32.75 C41.9140625,32.75 41.2265625,32.1510417 41.2265625,30.953125 C41.2265625,29.5989583 42.2421875,28.921875 44.2734375,28.921875 C45.5755208,28.921875 46.7864583,29.1302083 47.90625,29.546875 L47.90625,29.546875 L47.90625,28.21875 C46.7864583,27.90625 45.5755208,27.75 44.2734375,27.75 C41.2786458,27.75 39.78125,28.8177083 39.78125,30.953125 C39.78125,32.984375 40.9505208,34 43.2890625,34 L43.2890625,34 L44.7265625,34 C46.1432292,34 46.8515625,34.5989583 46.8515625,35.796875 C46.8515625,37.203125 45.890625,37.90625 43.96875,37.90625 C42.609375,37.90625 41.34375,37.6979167 40.171875,37.28125 L40.171875,37.28125 L40.171875,38.609375 C41.34375,38.921875 42.609375,39.078125 43.96875,39.078125 Z M52.78125,39 L55.015625,32.8671875 L57.3671875,39 L58.6875,39 L60.828125,30.796875 L59.296875,30.796875 L57.984375,37.2265625 L55.703125,30.796875 L54.3984375,30.796875 L52.265625,37.2265625 L50.8125,30.796875 L49.3515625,30.796875 L51.4296875,39 L52.78125,39 Z M68.796875,39 L68.796875,33.34375 C68.796875,31.6458333 67.578125,30.796875 65.140625,30.796875 C64.296875,30.796875 63.4322917,30.9270833 62.546875,31.1875 L62.546875,31.1875 L62.546875,32.359375 C63.4322917,32.0989583 64.296875,31.96875 65.140625,31.96875 C66.6145833,31.96875 67.3515625,32.4401042 67.3515625,33.3828125 L67.3515625,33.3828125 L67.3515625,34.15625 C66.6380208,34.0520833 65.9244792,34 65.2109375,34 C62.9921875,34 61.8828125,34.8411458 61.8828125,36.5234375 C61.8828125,38.1744792 62.859375,39 64.8125,39 C65.7760417,39 66.6666667,38.7291667 67.484375,38.1875 L67.484375,38.1875 L67.984375,39 L68.796875,39 Z M64.8125,37.828125 C63.8229167,37.828125 63.328125,37.3854167 63.328125,36.5 C63.328125,35.6145833 63.9557292,35.171875 65.2109375,35.171875 C65.9244792,35.171875 66.6380208,35.2239583 67.3515625,35.328125 L67.3515625,35.328125 L67.3515625,37.03125 C66.6588542,37.5625 65.8125,37.828125 64.8125,37.828125 Z M72.5859375,41.96875 L72.5859375,38.609375 C73.2005208,38.8697917 73.8359375,39 74.4921875,39 C77.1380208,39 78.4609375,37.5651042 78.4609375,34.6953125 C78.4609375,32.0963542 77.1458333,30.796875 74.515625,30.796875 C73.3541667,30.796875 72.2291667,30.9088542 71.140625,31.1328125 L71.140625,31.1328125 L71.140625,41.96875 L72.5859375,41.96875 Z M74.484375,37.75 C73.7864583,37.75 73.1536458,37.609375 72.5859375,37.328125 L72.5859375,37.328125 L72.5859375,32.1875 C73.1328125,32.0625 73.7708333,32 74.5,32 C76.1927083,32 77.0390625,32.8932292 77.0390625,34.6796875 C77.0390625,36.7265625 76.1875,37.75 74.484375,37.75 Z M86.4296875,39 L86.4296875,37.90625 L81.6875,37.90625 L86.5859375,31.96875 L86.5859375,30.796875 L80.1796875,30.796875 L80.1796875,31.96875 L84.984375,31.96875 L80.0234375,37.90625 L80.0234375,39 L86.4296875,39 Z M92.0546875,38.9921875 C94.6588542,38.9921875 95.9609375,37.6276042 95.9609375,34.8984375 C95.9609375,32.1640625 94.6588542,30.796875 92.0546875,30.796875 C89.4505208,30.796875 88.1484375,32.1640625 88.1484375,34.8984375 C88.1588542,37.6276042 89.4609375,38.9921875 92.0546875,38.9921875 Z M92.0546875,37.828125 C90.4140625,37.828125 89.59375,36.8411458 89.59375,34.8671875 C89.59375,32.9348958 90.4140625,31.96875 92.0546875,31.96875 C93.6953125,31.96875 94.515625,32.9348958 94.515625,34.8671875 C94.515625,36.8411458 93.6953125,37.828125 92.0546875,37.828125 Z M99.359375,39 L99.359375,33.0390625 C100.104167,32.3463542 100.890625,32 101.71875,32 C102.932292,32 103.539062,32.609375 103.539062,33.828125 L103.539062,33.828125 L103.539062,39 L104.984375,39 L104.984375,33.8515625 C104.984375,31.8151042 103.960938,30.796875 101.914062,30.796875 C100.908854,30.796875 99.9869792,31.1458333 99.1484375,31.84375 L99.1484375,31.84375 L98.890625,30.796875 L97.9140625,30.796875 L97.9140625,39 L99.359375,39 Z M111.164062,39 C112.200521,39 113.080729,38.8958333 113.804688,38.6875 L113.804688,38.6875 L113.804688,37.515625 C113.080729,37.7239583 112.252604,37.828125 111.320312,37.828125 C109.361979,37.828125 108.382812,36.9895833 108.382812,35.3125 L108.382812,35.3125 L114.140625,35.3125 C114.1875,34.9375 114.210938,34.5859375 114.210938,34.2578125 C114.210938,31.9505208 113.044271,30.796875 110.710938,30.796875 C108.195312,30.796875 106.9375,32.1328125 106.9375,34.8046875 C106.9375,37.6015625 108.346354,39 111.164062,39 Z M112.820312,34.109375 L108.382812,34.109375 C108.476562,32.671875 109.252604,31.953125 110.710938,31.953125 C112.085938,31.953125 112.789062,32.671875 112.820312,34.109375 L112.820312,34.109375 Z" id="path-1"></path>
    </defs>
    <g id="Page-1" stroke="none" stroke-width="1" fill="none" fill-rule="evenodd">
        <g id="SwapzoneBlue&amp;PinkBackroundBl" fill-rule="nonzero">
            <g id="3z_rd_f" fill="#25B7EB">
                <path d="M38.2442,9.4287 C38.2442,4.237 33.9751,0 28.7439,0 C26.0381,0 23.5728,1.1338 21.8892,2.9241 L0.4232,16.3511 C0.0023,16.5898 -0.1179,17.1866 0.1226,17.6043 C0.303,17.9027 0.6036,18.022 0.9043,18.022 C1.0846,18.022 1.2049,17.9623 1.3853,17.9027 L19.7246,6.3853 C19.3638,7.3401 19.1834,8.3546 19.1834,9.4884 C19.1834,11.8754 20.0853,14.0238 21.5284,15.6947 L7.0975,29.9571 C6.7367,30.3152 6.7367,30.8523 7.0975,31.2103 C7.2779,31.3893 7.5184,31.449 7.7589,31.449 C7.9995,31.449 8.24,31.3893 8.4204,31.2103 L22.8513,16.9479 C24.4747,18.201 26.5191,18.9768 28.6838,18.9768 C29.9465,18.9768 31.149,18.7381 32.2314,18.3204 L20.7468,36.8198 C20.5062,37.2375 20.6265,37.7746 21.0474,38.073 C21.1677,38.1923 21.348,38.1923 21.5284,38.1923 C21.8291,38.1923 22.1297,38.0133 22.3101,37.7746 L36.1397,15.3963 C37.4626,13.7254 38.2442,11.6964 38.2442,9.4287 Z M24.1741,15.635 L28.3831,11.5174 C28.7439,11.1593 28.7439,10.6222 28.3831,10.2642 C28.0223,9.9061 27.4812,9.9061 27.1204,10.2642 L22.8513,14.4415 C21.7088,13.1286 20.9873,11.398 20.9873,9.4884 C21.0474,5.2514 24.4747,1.7903 28.7439,1.7903 C33.013,1.7903 36.4404,5.2514 36.4404,9.4287 C36.4404,13.6657 32.9529,17.0672 28.7439,17.0672 C27.0603,17.1269 25.4368,16.5301 24.1741,15.635 Z" id="Shape"></path>
                <path d="M28.7439,3.2225 C25.2565,3.2225 22.4304,6.0272 22.4304,9.4884 C22.4304,9.9658 22.8513,10.3835 23.3324,10.3835 C23.8134,10.3835 24.2343,9.9658 24.2343,9.4884 C24.2343,7.0417 26.2185,5.0127 28.7439,5.0127 C29.225,5.0127 29.6459,4.595 29.6459,4.1176 C29.6459,3.6402 29.225,3.2225 28.7439,3.2225 Z" id="Path"></path>
            </g>
            <g id="Swapzone">
                <use fill="#000000" xlink:href="#path-1"></use>
                <use fill="#E8168D" xlink:href="#path-1"></use>
            </g>
        </g>
    </g>
</svg>