<?xml version="1.0" encoding="UTF-8" standalone="no"?>
<svg
   width="1000"
   height="250"
   viewBox="0 0 264.58334 66.14583"
   version="1.1"
   id="svg8"
   inkscape:version="1.1.1 (1:1.1+202109281949+c3084ef5ed)"
   sodipodi:docname="highlight.devs.svg"
   inkscape:export-filename="../images/hi.devs.png"
   inkscape:export-xdpi="184.32001"
   inkscape:export-ydpi="184.32001"
   xmlns:inkscape="http://www.inkscape.org/namespaces/inkscape"
   xmlns:sodipodi="http://sodipodi.sourceforge.net/DTD/sodipodi-0.dtd"
   xmlns:xlink="http://www.w3.org/1999/xlink"
   xmlns="http://www.w3.org/2000/svg"
   xmlns:svg="http://www.w3.org/2000/svg"
   xmlns:rdf="http://www.w3.org/1999/02/22-rdf-syntax-ns#"
   xmlns:cc="http://creativecommons.org/ns#"
   xmlns:dc="http://purl.org/dc/elements/1.1/">
  <defs
     id="defs2">
    <rect
       x="-807.36322"
       y="-220.49977"
       width="123.8181"
       height="14.344845"
       id="rect1264" />
    <rect
       x="-807.36322"
       y="-220.49977"
       width="123.8181"
       height="14.344845"
       id="rect2043" />
    <rect
       x="-807.36322"
       y="-220.49977"
       width="132.82318"
       height="21.421627"
       id="rect1281" />
    <rect
       x="-807.36322"
       y="-220.49977"
       width="132.82318"
       height="21.421627"
       id="rect2046" />
    <rect
       x="-807.36322"
       y="-220.49977"
       width="123.8181"
       height="14.344845"
       id="rect5614" />
    <rect
       x="-807.36322"
       y="-220.49977"
       width="123.8181"
       height="14.344845"
       id="rect2049" />
    <rect
       x="-807.36322"
       y="-220.49977"
       width="123.8181"
       height="14.344845"
       id="rect5620" />
    <rect
       x="-807.36322"
       y="-220.49977"
       width="123.8181"
       height="14.344845"
       id="rect2052" />
    <rect
       x="-807.36322"
       y="-220.49977"
       width="123.8181"
       height="14.344845"
       id="rect5626" />
    <rect
       x="-807.36322"
       y="-220.49977"
       width="123.8181"
       height="14.344845"
       id="rect2055" />
    <rect
       x="-807.36322"
       y="-220.49977"
       width="167.08458"
       height="33.158842"
       id="rect1264-7" />
    <rect
       x="-807.36322"
       y="-220.49977"
       width="123.8181"
       height="14.344845"
       id="rect3511" />
    <rect
       x="-807.36322"
       y="-220.49977"
       width="132.82318"
       height="21.421627"
       id="rect1281-5" />
    <rect
       x="-807.36322"
       y="-220.49977"
       width="132.82318"
       height="21.421627"
       id="rect3514" />
    <rect
       x="-807.36322"
       y="-220.49977"
       width="251.22433"
       height="32.638356"
       id="rect5620-7" />
    <rect
       x="-807.36322"
       y="-220.49977"
       width="232.32747"
       height="33.742146"
       id="rect3517" />
    <rect
       x="-807.36322"
       y="-220.49977"
       width="123.8181"
       height="14.344845"
       id="rect5626-9" />
    <rect
       x="-807.36322"
       y="-220.49977"
       width="123.8181"
       height="14.344845"
       id="rect3597" />
    <rect
       x="-807.36322"
       y="-220.49977"
       width="132.82318"
       height="21.421627"
       id="rect1281-6" />
    <rect
       x="-807.36322"
       y="-220.49977"
       width="132.82318"
       height="21.421627"
       id="rect3767" />
    <linearGradient
       id="linearGradient17070"
       x1="1036.5"
       x2="1025.1"
       y1="164.83"
       y2="174.39999"
       gradientUnits="userSpaceOnUse">
      <stop
         stop-color="#fff"
         offset="0"
         id="stop17068" />
      <stop
         stop-color="#ccc"
         offset="1"
         id="stop17066" />
    </linearGradient>
    <filter
       id="je"
       x="-0.059721539"
       y="-0.13303905"
       width="1.1194431"
       height="1.2660781">
      <feGaussianBlur
         stdDeviation="2.386"
         id="feGaussianBlur24" />
    </filter>
    <radialGradient
       id="dv"
       cx="985.85254"
       cy="237.32794"
       r="11.035"
       gradientTransform="matrix(1.1641,-1.9754,2.046,1.2058,-614.23,1863.9)"
       gradientUnits="userSpaceOnUse"
       fx="985.85254"
       fy="237.32794">
      <stop
         stop-color="#fff"
         offset="0"
         id="stop590" />
      <stop
         stop-color="#fff"
         stop-opacity="0"
         offset="1"
         id="stop592" />
    </radialGradient>
    <filter
       id="jh"
       x="-0.031211201"
       y="-0.029740624"
       width="1.0624224"
       height="1.0594812">
      <feGaussianBlur
         stdDeviation=".287"
         id="feGaussianBlur8" />
    </filter>
    <linearGradient
       id="gu"
       x2="0"
       y1="233.49001"
       y2="218.97"
       gradientUnits="userSpaceOnUse"
       xlink:href="#c" />
    <linearGradient
       id="c">
      <stop
         stop-color="#fff"
         offset="0"
         id="stop77" />
      <stop
         stop-color="#fff"
         stop-opacity="0"
         offset="1"
         id="stop79" />
    </linearGradient>
    <filter
       id="jj"
       x="0"
       y="0"
       width="1"
       height="1" />
    <linearGradient
       id="gt"
       x1="1008.1"
       x2="1008.9"
       y1="183.48"
       y2="179.06"
       gradientUnits="userSpaceOnUse"
       xlink:href="#dd" />
    <linearGradient
       id="dd">
      <stop
         stop-color="#fff"
         offset="0"
         id="stop114" />
      <stop
         stop-color="#4d4d4d"
         stop-opacity="0"
         offset="1"
         id="stop116" />
    </linearGradient>
    <filter
       id="e"
       x="0"
       y="0"
       width="1"
       height="1" />
    <linearGradient
       id="gs"
       x1="1019.5508"
       x2="1019.6"
       y1="176.27042"
       y2="187.74001"
       gradientUnits="userSpaceOnUse"
       xlink:href="#c" />
    <filter
       id="jk"
       x="-0.0016974696"
       y="-0.0047247101"
       width="1.0033949"
       height="1.0094494">
      <feGaussianBlur
         stdDeviation="0.028262231"
         id="feGaussianBlur11" />
    </filter>
    <filter
       id="filter17881"
       x="0"
       y="0"
       width="1"
       height="1" />
    <linearGradient
       id="gr"
       x1="251.17"
       x2="282.95999"
       y1="730.34003"
       y2="421.94"
       gradientUnits="userSpaceOnUse">
      <stop
         stop-color="#fff"
         offset="0"
         id="stop119" />
      <stop
         stop-color="#e6e6e6"
         offset="1"
         id="stop121" />
    </linearGradient>
    <filter
       id="filter17886"
       x="0"
       y="0"
       width="1"
       height="1" />
    <linearGradient
       id="gp"
       x1="470.84"
       x2="662.21002"
       y1="324.35999"
       y2="724.01001"
       gradientUnits="userSpaceOnUse">
      <stop
         stop-color="#e6e6e6"
         offset="0"
         id="stop124" />
      <stop
         stop-color="#666"
         offset="1"
         id="stop126" />
    </linearGradient>
    <radialGradient
       id="du"
       cx="1006.3"
       cy="164.89"
       r="5.4728999"
       gradientTransform="matrix(15.657,27.812,-42.83,24.111,-8504.3,-31809)"
       gradientUnits="userSpaceOnUse">
      <stop
         stop-color="#333"
         offset="0"
         id="stop595" />
      <stop
         stop-color="#efefef"
         offset="1"
         id="stop597" />
    </radialGradient>
    <linearGradient
       id="go"
       x2="0"
       y1="172.72"
       y2="184.85001"
       gradientUnits="userSpaceOnUse"
       xlink:href="#de" />
    <linearGradient
       id="de">
      <stop
         stop-color="#4d4d4d"
         offset="0"
         id="stop129" />
      <stop
         stop-color="#4d4d4d"
         stop-opacity="0"
         offset="1"
         id="stop131" />
    </linearGradient>
    <filter
       id="filter17898"
       x="0"
       y="0"
       width="1"
       height="1" />
    <linearGradient
       id="gn"
       x1="203.39999"
       x2="216.37"
       y1="752.32001"
       y2="684.63"
       gradientUnits="userSpaceOnUse">
      <stop
         offset="0"
         id="stop134" />
      <stop
         stop-opacity="0"
         offset="1"
         id="stop136" />
    </linearGradient>
    <linearGradient
       id="gm"
       x2="0"
       y1="207.77"
       y2="219.89999"
       gradientUnits="userSpaceOnUse"
       xlink:href="#de" />
    <filter
       id="filter17910"
       x="0"
       y="0"
       width="1"
       height="1" />
    <filter
       id="filter17912"
       x="0"
       y="0"
       width="1"
       height="1" />
    <linearGradient
       id="gl"
       x1="1016.6"
       x2="1020.5"
       y1="171.12"
       y2="177.67"
       gradientUnits="userSpaceOnUse">
      <stop
         stop-color="#b3b3b3"
         offset="0"
         id="stop139" />
      <stop
         stop-color="#fff"
         offset="1"
         id="stop141" />
    </linearGradient>
    <filter
       id="jf"
       x="0"
       y="0"
       width="1"
       height="1" />
    <linearGradient
       id="gk"
       x1="1006.7"
       x2="1006.1"
       y1="170.13"
       y2="164.62"
       gradientUnits="userSpaceOnUse">
      <stop
         stop-color="#7f7f7f"
         stop-opacity="0"
         offset="0"
         id="stop144" />
      <stop
         offset="1"
         id="stop146" />
    </linearGradient>
    <filter
       id="filter17921"
       x="0"
       y="0"
       width="1"
       height="1" />
    <radialGradient
       id="dt"
       cx="990.44"
       cy="209.14"
       r="5.8379998"
       gradientTransform="matrix(-28.792,-35.184,33.772,-27.637,21787,40907)"
       gradientUnits="userSpaceOnUse">
      <stop
         stop-color="#fff"
         offset="0"
         id="stop600" />
      <stop
         stop-color="#b3b3b3"
         offset="1"
         id="stop602" />
    </radialGradient>
    <linearGradient
       id="gj"
       x1="279.23001"
       x2="190.66"
       y1="291.23999"
       y2="316.70001"
       gradientUnits="userSpaceOnUse">
      <stop
         stop-color="#b3b3b3"
         offset="0"
         id="stop149" />
      <stop
         stop-color="#fff"
         offset="1"
         id="stop151" />
    </linearGradient>
    <filter
       id="filter17929"
       x="0"
       y="0"
       width="1"
       height="1" />
    <linearGradient
       id="gi"
       x1="1015.5"
       x2="1013"
       y1="170.63"
       y2="165.69"
       gradientUnits="userSpaceOnUse">
      <stop
         stop-color="#333"
         offset="0"
         id="stop154" />
      <stop
         stop-color="#fff"
         stop-opacity="0"
         offset="1"
         id="stop156" />
    </linearGradient>
    <filter
       id="filter17934"
       x="0"
       y="0"
       width="1"
       height="1" />
    <radialGradient
       id="ds"
       cx="999.92999"
       cy="205.92999"
       r="2.8655"
       gradientTransform="matrix(55.986,25.92,-51.367,110.96,-45063,-48503)"
       gradientUnits="userSpaceOnUse">
      <stop
         stop-color="#fff"
         offset="0"
         id="stop605" />
      <stop
         offset="1"
         id="stop607" />
    </radialGradient>
    <linearGradient
       id="gh"
       x1="412.07999"
       x2="511.72"
       gradientUnits="userSpaceOnUse">
      <stop
         stop-color="#ccc"
         offset="0"
         id="stop159" />
      <stop
         stop-color="#191919"
         offset="1"
         id="stop161" />
    </linearGradient>
    <linearGradient
       id="gg"
       x1="1019.5"
       x2="1015.7"
       y1="174.22"
       y2="169.45"
       gradientUnits="userSpaceOnUse">
      <stop
         offset="0"
         id="stop164" />
      <stop
         stop-opacity="0"
         offset="1"
         id="stop166" />
    </linearGradient>
    <filter
       id="filter17945"
       x="0"
       y="0"
       width="1"
       height="1" />
    <linearGradient
       id="gf"
       x1="1027.7"
       x2="1017.1"
       y1="166.91"
       y2="174.3"
       gradientUnits="userSpaceOnUse">
      <stop
         stop-color="#333"
         offset="0"
         id="stop169" />
      <stop
         stop-color="#ccc"
         offset="1"
         id="stop171" />
    </linearGradient>
    <linearGradient
       id="ge"
       x1="1036.5"
       x2="1025.1"
       y1="164.83"
       y2="174.39999"
       gradientUnits="userSpaceOnUse">
      <stop
         stop-color="#ccc"
         offset="0"
         id="stop174" />
      <stop
         stop-color="#fff"
         offset="1"
         id="stop176" />
    </linearGradient>
    <linearGradient
       id="gd"
       x1="1004.5"
       x2="1008.6"
       y1="162.97"
       y2="162.03999"
       gradientUnits="userSpaceOnUse"
       xlink:href="#b" />
    <linearGradient
       id="b">
      <stop
         offset="0"
         id="stop82" />
      <stop
         stop-opacity="0"
         offset="1"
         id="stop84" />
    </linearGradient>
    <filter
       id="filter17958"
       x="0"
       y="0"
       width="1"
       height="1" />
    <linearGradient
       id="gc"
       x1="1028.9"
       x2="1030.6"
       y1="162.44"
       y2="164.58"
       gradientUnits="userSpaceOnUse"
       xlink:href="#b" />
    <filter
       id="filter17967"
       x="0"
       y="0"
       width="1"
       height="1" />
  </defs>
  <sodipodi:namedview
     id="base"
     pagecolor="#ffffff"
     bordercolor="#666666"
     borderopacity="1.0"
     inkscape:pageopacity="0.0"
     inkscape:pageshadow="2"
     inkscape:zoom="0.49497475"
     inkscape:cx="425.27422"
     inkscape:cy="257.5889"
     inkscape:document-units="px"
     inkscape:current-layer="layer1"
     showgrid="false"
     units="px"
     borderlayer="true"
     inkscape:showpageshadow="false"
     inkscape:window-width="1884"
     inkscape:window-height="2096"
     inkscape:window-x="72"
     inkscape:window-y="27"
     inkscape:window-maximized="0"
     inkscape:document-rotation="0"
     inkscape:snap-bbox="true"
     inkscape:snap-page="true"
     inkscape:pagecheckerboard="0"
     inkscape:snap-global="false" />
  <metadata
     id="metadata5">
    <rdf:RDF>
      <cc:Work
         rdf:about="">
        <dc:format>image/svg+xml</dc:format>
        <dc:type
           rdf:resource="http://purl.org/dc/dcmitype/StillImage" />
      </cc:Work>
    </rdf:RDF>
  </metadata>
  <g
     inkscape:label="Layer 1"
     inkscape:groupmode="layer"
     id="layer1"
     transform="translate(0,-164.70834)">
    <rect
       style="fill:#ffffff;stroke-width:0.787325;stroke-linecap:square;stroke-dasharray:1.57465, 1.57465;stroke-dashoffset:0.0787325;paint-order:fill markers stroke"
       id="rect2641"
       width="264.58334"
       height="66.145836"
       x="0"
       y="164.70834"
       sodipodi:insensitive="true" />
    <path
       id="path3703"
       style="fill:#f3f3f3;fill-opacity:1;stroke-width:0.519816"
       d="m 89.110757,172.66904 -2.478918,7.38714 0.0052,0.002 a 1.0340528,1.0340528 0 0 0 0.464053,1.19941 l 4.667933,2.74661 c 0.37035,0.21776 0.703971,0.41166 1.006657,0.58756 2.397599,1.39168 2.648569,1.53737 4.036962,3.81475 a 1.0453537,1.0453537 0 0 0 0.610817,0.46251 l 24.401609,6.76857 a 6.2754128,6.2754128 0 0 0 7.40782,-4.1 l 0.81235,-2.40037 a 6.2541051,6.2541051 0 0 0 -3.42098,-7.76697 l -23.58048,-9.15035 a 1.0377747,1.0377747 0 0 0 -0.75293,5.2e-4 c -2.487587,0.96723 -2.775207,0.93074 -5.530397,0.57981 -0.347713,-0.0443 -0.73061,-0.093 -1.157552,-0.1447 l -5.370732,-0.65267 a 1.0377071,1.0377071 0 0 0 -1.099159,0.67438 z m 1.709973,1.49913 4.532022,0.55035 c 0.422174,0.0512 0.801245,0.0998 1.145151,0.14315 2.141456,0.27234 3.08943,0.36899 4.505657,-0.006 l -3.611657,10.67667 c -0.898255,-1.15892 -1.708787,-1.65736 -3.572391,-2.73886 -0.299728,-0.17393 -0.629793,-0.36567 -0.99632,-0.58135 l -3.939812,-2.31821 z m 12.48088,0.38137 22.52732,8.74056 a 4.1763153,4.1763153 0 0 1 2.24689,5.18056 l -0.81183,2.40037 a 4.1941453,4.1941453 0 0 1 -4.92838,2.75177 l -23.299884,-6.46369 z" />
    <text
       xml:space="preserve"
       id="text844"
       style="font-style:normal;font-variant:normal;font-weight:bold;font-stretch:normal;font-size:21.8722px;line-height:1.25;font-family:'Alte DIN 1451 Mittelschrift';-inkscape-font-specification:'Alte DIN 1451 Mittelschrift, Bold';font-variant-ligatures:normal;font-variant-caps:normal;font-variant-numeric:normal;font-variant-east-asian:normal;letter-spacing:0px;word-spacing:0px;white-space:pre;inline-size:221.261;fill:#ffa729;fill-opacity:1;stroke:none;stroke-width:1"
       x="26.33773"
       y="218.86018"
       transform="matrix(0.71844393,0,0,0.71844393,-11.874986,38.464542)"><tspan
         x="26.33773"
         y="218.86018"
         id="tspan3897">DEVELOPER </tspan><tspan
         x="26.33773"
         y="246.20044"
         id="tspan3899">EXPANSION UPDATE</tspan></text>
    <path
       id="path3730"
       style="fill:#ffa729;fill-opacity:1;stroke-width:0.519816"
       d="m 82.791245,170.5472 a 0.2858634,0.2858634 0 0 0 -0.280085,0.30438 l 0.01809,7.62331 a 0.25392062,0.25392062 0 0 0 0.162264,0.24804 l 3.940328,1.33325 2.478918,-7.38714 -6.252331,-2.11512 a 0.2858634,0.2858634 0 0 0 -0.06718,-0.007 z" />
    <rect
       style="fill:#ffa729;fill-opacity:1;stroke-width:0.71896;stroke-linecap:square;stroke-dasharray:1.43792, 1.43792;stroke-dashoffset:0.071896;paint-order:fill markers stroke"
       id="rect3699"
       width="42.329529"
       height="8.0802908"
       x="38.874214"
       y="170.5472" />
    <text
       xml:space="preserve"
       id="text1279"
       style="font-style:normal;font-variant:normal;font-weight:normal;font-stretch:normal;font-size:10.5833px;line-height:1.25;font-family:'Alte DIN 1451 Mittelschrift';-inkscape-font-specification:'Alte DIN 1451 Mittelschrift, Normal';font-variant-ligatures:normal;font-variant-caps:normal;font-variant-numeric:normal;font-variant-east-asian:normal;letter-spacing:0px;word-spacing:0px;white-space:pre;shape-inside:url(#rect1281-6);fill:#0a0724;fill-opacity:1;stroke:none;stroke-width:0.0633312"
       transform="matrix(0.69591753,0,0,0.69591753,602.51924,323.81349)"><tspan
         x="-807.36328"
         y="-210.66877"
         id="tspan3901">HIGHLIGHTS</tspan></text>
    <g
       id="g1475"
       transform="matrix(0.03841752,0,0,0.03841752,8.4473091,170.32903)"
       style="fill:#0a0724;fill-opacity:1;stroke-width:0.710778">
      <path
         class="st0"
         d="m 157.67,161.13 c 13.97,0 20.37,-5.31 23.3,-10.39 5.64,-9.77 1.68,-22.49 -11.79,-37.79 -7.46,-8.47 -18.71,-19.55 -26.35,-25.06 -0.49,-4.75 -1.15,-9.4 -1.97,-13.88 2.18,-0.54 4.32,-1 6.38,-1.37 12.74,-2.25 20.1,-0.4 21.73,2.43 1.1,1.91 0.26,5.87 -2.31,10.87 -2.2,4.29 -4.19,6.67 -4.82,7.37 3.97,3.55 7.56,7.26 9.87,9.74 1.17,-1.24 4.15,-4.69 7.28,-10.77 4.98,-9.68 5.65,-17.8 1.99,-24.14 -3.71,-6.43 -12.99,-13.23 -36.14,-9.15 -2.31,0.41 -4.69,0.92 -7.11,1.52 -5.67,-19.71 -15.16,-33.66 -28.27,-33.66 -7.62,0 -18.4,4.87 -26.51,28.18 -0.08,0.26 -2.07,6.37 -3.62,13.26 -1.58,7.01 -3.05,14.54 -4.38,22.41 -4.2,3.01 -8.16,6.1 -11.84,9.24 C 52.2,88.66 47.61,79.1 49.93,75.08 c 1.4,-2.42 5.79,-4.43 12.44,-3.47 3.83,0.55 6.4,1.16 7.5,1.45 1.02,-5.23 2.37,-10.22 3.31,-13.46 -1.61,-0.41 -4.58,-1.09 -8.83,-1.71 -11.68,-1.68 -21.8,2.25 -26.42,10.26 -6.56,11.36 0.77,26.56 15.01,41.32 -1.73,1.8 -3.37,3.6 -4.87,5.4 -15.1,18.01 -13.85,29.45 -10.14,35.87 4.11,7.11 12.61,10.76 23.93,10.76 7.65,0 16.6,-1.67 26.33,-5.07 4.67,-1.63 15.81,-6.13 21.07,-8.28 5.12,2.36 10.19,4.43 15.14,6.19 -4.33,15.07 -10.31,23.83 -14.95,23.83 -3.68,0 -8.11,-5.38 -11.58,-14.05 -0.14,-0.35 -0.38,-1.05 -0.64,-1.82 -4.7,1.85 -9.55,3.35 -13.15,4.38 0.31,0.94 0.65,1.93 0.92,2.59 7.53,18.81 17.45,22.76 24.45,22.76 13.12,0 22.61,-13.95 28.27,-33.66 2.43,0.6 4.8,1.11 7.11,1.52 4.87,0.86 9.12,1.24 12.84,1.24 z M 92.84,71.34 c 1.39,-6.19 3.23,-11.87 3.23,-11.87 0,0 0,0 0,0 4.51,-12.95 9.97,-18.75 13.38,-18.75 4.64,0 10.62,8.76 14.95,23.83 -10.43,3.7 -21.4,8.8 -32.19,15.03 -0.43,0.25 -0.85,0.5 -1.27,0.75 0.61,-3.08 1.25,-6.08 1.9,-8.99 z m -9.23,72.01 c -19.28,6.73 -31.49,4.25 -33.68,0.46 -1.63,-2.83 0.44,-10.12 8.76,-20.04 1.35,-1.61 2.82,-3.23 4.38,-4.84 8.62,7.33 18.64,14.31 29.14,20.38 0.26,0.15 0.53,0.3 0.79,0.45 -3.74,1.48 -7.32,2.87 -9.39,3.59 z m 15.53,-16.04 c -10.08,-5.82 -18.7,-11.94 -25.81,-17.88 7.49,-6.24 16.25,-12.32 25.81,-17.84 9.56,-5.52 19.2,-10.07 28.35,-13.43 1.6,9.13 2.58,19.66 2.58,31.29 0,11.63 -0.98,22.17 -2.58,31.29 -9.15,-3.36 -18.79,-7.91 -28.35,-13.43 z m 44.78,-20.42 c 4.87,4.52 10.27,10.01 14.86,15.22 10.12,11.49 11.9,18.75 10.19,21.7 -1.63,2.83 -8.99,4.67 -21.73,2.43 -2.07,-0.36 -4.2,-0.83 -6.38,-1.37 2.04,-11.13 3.08,-23.3 3.08,-35.43 -0.01,-0.84 -0.01,-1.7 -0.02,-2.55 z"
         id="path1463"
         style="fill:#0a0724;fill-opacity:1;stroke-width:0.710778" />
      <path
         class="st0"
         d="m 109.45,95.74 c -7.56,0 -13.71,6.15 -13.71,13.71 0,7.56 6.15,13.71 13.71,13.71 7.56,0 13.71,-6.15 13.71,-13.71 0,-7.56 -6.15,-13.71 -13.71,-13.71 z"
         id="path1465"
         style="fill:#0a0724;fill-opacity:1;stroke-width:0.710778" />
      <path
         class="st0"
         d="M 218.9,109.45 C 218.9,48.89 169.46,-0.33 108.83,0 52.02,0.31 3.94,45.39 0.24,102.09 c -2.64,40.56 16.7,78.33 50.68,99.87 l -0.04,15.82 -36.96,0.12 V 192.73 H 0.07 v 38.91 h 64.68 l 0.04,-29.93 c 0.01,-4.63 -2.39,-8.91 -6.42,-11.46 -27.86,-17.61 -44.5,-47.81 -44.5,-80.8 0,-52.52 42.58,-95.28 95.03,-95.59 51.39,-0.3 94.39,40.96 96.09,92.32 1.14,34.25 -15.66,65.88 -44.44,84.07 -4.03,2.55 -6.43,6.83 -6.42,11.46 l 0.07,29.93 h 64.65 v -38.91 h -13.86 l 0.12,25.05 -37.08,0.12 -0.04,-15.95 c 31.87,-20.17 50.91,-54.74 50.91,-92.5 z"
         id="path1467"
         style="fill:#0a0724;fill-opacity:1;stroke-width:0.710778" />
      <path
         class="st0"
         d="m 355.91,44.55 c -38.17,0 -69.08,30.72 -69.08,69.27 0,38.36 30.91,69.27 69.08,69.27 13.93,0 26.91,-4.2 37.78,-11.26 l 15.08,15.27 12.21,-11.07 -14.69,-14.69 c 11.64,-12.4 18.89,-29 18.89,-47.52 0,-38.55 -31.1,-69.27 -69.27,-69.27 z m 38.17,104.38 -27.48,-27.48 -12.21,10.88 26.72,26.91 c -7.44,4.2 -16.03,6.49 -25.19,6.49 -28.62,0 -51.52,-22.71 -51.52,-51.9 0,-29.39 22.9,-52.1 51.52,-52.1 28.63,0 51.52,22.71 51.52,52.1 0,13.73 -4.96,25.94 -13.36,35.1 z"
         id="path1469"
         style="fill:#0a0724;fill-opacity:1;stroke-width:0.710778" />
      <path
         class="st0"
         d="m 543,88.44 c 0,-22.9 -18.7,-41.41 -41.6,-41.41 h -53.43 v 133.58 h 17.75 v -51.14 h 31.49 l 29.96,51.14 h 19.65 L 515.33,127.18 C 531.36,121.45 543,105.99 543,88.44 Z m -77.28,24.99 v -49.8 h 35.68 c 13.17,0 23.85,11.07 23.85,24.81 0,13.74 -10.69,25 -23.85,25 h -35.68 z"
         id="path1471"
         style="fill:#0a0724;fill-opacity:1;stroke-width:0.710778" />
      <polygon
         class="st0"
         points="583.59,47.03 565.85,47.03 565.85,180.61 644.17,180.61 661.91,180.61 661.91,163.81 583.59,163.81 "
         id="polygon1473"
         style="fill:#0a0724;fill-opacity:1;stroke-width:0.710778" />
    </g>
    <rect
       style="fill:#ffa729;fill-opacity:1;stroke-width:466.095;stroke-linecap:square;stroke-dasharray:932.188, 932.188;stroke-dashoffset:46.6095;paint-order:fill markers stroke"
       id="rect2643"
       width="264.58337"
       height="1.2153916"
       x="0"
       y="164.70834" />
    <g
       id="g3703">
      <path
         d="m 222.65008,209.21598 c -148.433387,-29.67176 -74.21669,-14.83588 0,0 z m 24.87886,-7.4634 -0.91892,7.46456 h -14.75259 l 0.91781,-7.46456 z m -6.26835,3.61117 c 0,-0.69483 -0.53867,-1.2324 -1.23128,-1.2324 -0.69599,0 -1.27088,0.53868 -1.27088,1.2324 0,0.69487 0.57489,1.27088 1.27088,1.27088 0.69261,-10e-4 1.23128,-0.57601 1.23128,-1.27088 z m -18.51658,5.24763 v 4.18269 h 13.94569 v 8.36761 h -4.1838 v 11.19459 h 22.34957 v -19.5622 h 4.18269 v -4.18269 z m -32.25176,4.18269 -1.06374,-8.36654 h 16.71942 l 1.06491,8.36654 z m 6.08507,-4.18269 c 0,0.77969 0.61451,1.39421 1.39309,1.39421 0.78084,0 1.39535,-0.61452 1.39535,-1.39421 0,-0.77974 -0.61451,-1.3954 -1.39535,-1.3954 -0.77858,0 -1.39309,0.61566 -1.39309,1.3954 z m -19.89154,5.57804 v 5.57805 h 4.18269 v 20.95533 h 50.24207 v -20.95533 h 4.1838 v -5.57805 z m 14.29424,-38.63558 v 15.33994 c 0,2.51457 -2.0789,4.59574 -4.63308,4.59574 h -1.51876 v 6.14957 l -9.22544,-6.14957 h -13.82123 c -2.51458,0 -4.59458,-2.08002 -4.59458,-4.59574 v -15.33994 c 0,-2.55419 2.08,-4.63309 4.59458,-4.63309 h 24.56654 c 2.55307,0 4.63197,2.0789 4.63197,4.63309 z m -26.84005,7.81088 3.97558,-1.88652 c 0.2853,-0.12105 0.48437,-0.24551 0.5998,-0.41189 0.12447,-0.14157 0.20702,-0.33833 0.20702,-0.58962 0,-0.23524 -0.0894,-0.45043 -0.26604,-0.6213 -0.14372,-0.17879 -0.35202,-0.2669 -0.62811,-0.2669 -0.0915,0 -0.18906,0.009 -0.29555,0.0667 -0.095,0.017 -0.22285,0.0907 -0.42217,0.18435 l -5.46714,2.52818 c -0.59526,0.28273 -0.89744,0.61109 -0.89744,1.05245 0,0.40077 0.29426,0.72315 0.8397,1.0004 l 5.52715,2.51346 c 0.13473,0.0825 0.28956,0.1134 0.39393,0.16852 0.1134,0.0214 0.21942,0.0299 0.32122,0.0299 0.27631,0 0.48439,-0.0907 0.6281,-0.22968 0.17666,-0.17879 0.26606,-0.38709 0.26606,-0.65976 0,-0.21387 -0.0817,-0.41061 -0.20617,-0.58397 -0.1155,-0.12917 -0.3148,-0.25022 -0.60206,-0.40848 z m 12.53336,-4.79836 c 0,-0.2793 -0.10994,-0.50133 -0.35758,-0.68581 -0.20488,-0.17878 -0.42776,-0.23524 -0.70278,-0.23524 -0.20275,0 -0.39394,0.0509 -0.52508,0.21942 -0.11673,0.11673 -0.2716,0.3225 -0.39607,0.62469 l -3.99368,8.60302 c -0.16296,0.30882 -0.20274,0.52512 -0.20274,0.70617 0,0.24124 0.1087,0.50021 0.3178,0.68469 0.20359,0.14244 0.42687,0.23311 0.70505,0.23311 0.20275,0 0.39393,-0.0872 0.56246,-0.21727 0.11636,-0.15271 0.23311,-0.35631 0.39393,-0.65297 l 3.98581,-8.53857 c 0.053,-0.16424 0.12447,-0.32464 0.145,-0.42429 0.0565,-0.10734 0.0679,-0.21386 0.0679,-0.31695 z m 9.34991,4.85268 c 0,-0.44252 -0.29983,-0.76956 -0.96755,-1.07286 l -5.39019,-2.5123 c -0.18991,-0.0872 -0.31695,-0.15955 -0.41874,-0.17751 -0.14586,-0.0299 -0.24894,-0.0688 -0.34645,-0.0688 -0.23653,0 -0.4459,0.0907 -0.62016,0.26946 -0.1698,0.16853 -0.22413,0.38581 -0.22413,0.61901 0,0.25107 0.0441,0.44816 0.20831,0.58961 0.11549,0.16638 0.3101,0.28871 0.59525,0.41189 l 3.97902,1.88651 -3.97786,1.88651 c -0.29084,0.15826 -0.48888,0.28058 -0.60206,0.42217 -0.15954,0.16082 -0.20275,0.35629 -0.20275,0.56925 0,0.27502 0.0544,0.48546 0.22498,0.65976 0.17452,0.14158 0.3824,0.22969 0.61905,0.22969 0.14243,0 0.25107,-0.009 0.36228,-0.0299 0.10525,-0.0556 0.22285,-0.0881 0.39179,-0.16852 l 5.48639,-2.51119 c 0.58846,-0.27503 0.88269,-0.59864 0.88269,-1.00152 z"
         id="path2"
         style="stroke-width:1.13168"
         sodipodi:nodetypes="cccccccssscsccccccccccccccccssssscccccccccssscccsssssscccscscccscccscscccscscccscsccccssccccscscccccscsccccc" />
      <path
         d="m 212.65506,200.91995 c 0,0 -2.48746,1.55378 -5.27817,1.55378 -2.82582,0 -5.31551,-1.55378 -5.31551,-1.55378 -2.61757,0 -5.26568,1.70318 -6.86022,4.34222 h 10.83127 c 0.58398,0 1.10229,0.47871 1.18377,1.02192 l 1.09205,8.73998 h 12.73594 v -4.18269 c -10e-4,-5.57921 -4.18497,-9.92143 -8.38913,-9.92143 z"
         style="fill:#ffa729;stroke-width:0.299424"
         id="path6793" />
      <path
         d="m 207.3798,200.73991 c 3.97902,0 7.19301,-3.20942 7.19301,-7.18843 0,-3.97897 -3.21515,-7.2122 -7.19301,-7.2122 -3.97784,0 -7.22011,3.23323 -7.22011,7.2122 0,3.97901 3.24227,7.18843 7.22011,7.18843 z"
         style="fill:#ffa729;stroke-width:0.299424"
         id="path6913" />
      <path
         d="m 219.8879,202.35575 c 1.15544,-3.47653 4.0876,-5.87681 7.07298,-5.87681 0,0 2.25657,1.38291 4.76101,1.38291 2.50325,0 4.76208,-1.38291 4.76208,-1.38291 2.37993,0 4.7463,1.50969 6.17109,3.8862 h -9.64308 c -0.58392,0 -1.10112,0.47754 -1.18261,1.0219 l -0.98342,7.8369 c 0,0 -5.21426,0.11906 -7.769,0 -0.12835,-3.80407 -3.18905,-6.86819 -3.18905,-6.86819 z"
         style="fill:#ffa729;stroke-width:0.299424"
         id="path8009"
         sodipodi:nodetypes="ccsccscccc" />
      <path
         d="m 231.51571,196.41659 c 3.58174,0 6.47883,-2.89593 6.47883,-6.47545 0,-3.58179 -2.89709,-6.47777 -6.47883,-6.47777 -3.57952,0 -6.51399,2.89598 -6.51399,6.47777 0,3.57836 2.93332,6.47545 6.51399,6.47545 z"
         style="fill:#ffa729;stroke-width:0.299424"
         id="path8494" />
    </g>
  </g>
</svg>
