<svg viewBox="0 0 145 112" xmlns="http://www.w3.org/2000/svg">
  <g fill="#FFFFFF">
    <path d="M141.93 95.77a2.67 2.67 0 0 0-2.68 2.67v8h-34.73l-.07-5.06a55.6 55.6 0 0 0 23.84-45.62C128.29 25.02 103.17 0 72.3 0 41.44 0 16.32 25.02 16.32 55.76a55.77 55.77 0 0 0 23.77 45.6l.06.04-.06 5.04H5.36v-8a2.67 2.67 0 0 0-5.36 0v13.33h45.37l.15-11.57c.02-1.14-.7-2.1-1.68-2.5a2.62 2.62 0 0 0-.67-.7 50.41 50.41 0 0 1-21.5-41.25c0-27.81 22.71-50.43 50.63-50.43 27.93 0 50.63 22.62 50.63 50.43a50.3 50.3 0 0 1-22.28 41.79c-.27.16-.46.4-.65.64a2.6 2.6 0 0 0-.93 2l.15 11.58 45.39.01V98.44c0-1.47-1.2-2.67-2.68-2.67z"/>
    <path d="M106.81 59.48a58.29 58.29 0 0 0-3.57-4 61.1 61.1 0 0 0 3.57-3.98c5.97-7.36 7.82-13.87 5.22-18.35-1.98-3.4-6.26-5.2-12.38-5.2-3.42 0-7.31.56-11.48 1.61-3.3-11.41-8.76-18.75-15.05-18.75-6.3 0-11.75 7.34-15.05 18.75a48.17 48.17 0 0 0-11.48-1.61c-6.13 0-10.4 1.8-12.38 5.2-2.6 4.48-.75 11 5.21 18.35a61.3 61.3 0 0 0 3.58 4c-8.29 8.55-11.94 16.91-8.8 22.33 1.98 3.4 6.25 5.2 12.38 5.2 3.41 0 7.3-.56 11.48-1.6 3.3 11.4 8.76 18.74 15.05 18.74 6.3 0 11.75-7.33 15.05-18.75a48.23 48.23 0 0 0 11.48 1.61c6.12 0 10.4-1.8 12.38-5.2 2.6-4.48.76-11-5.2-18.35zm-7.16-28.2c3.39 0 7.78.6 9.48 3.53 1.84 3.16.04 8.48-4.92 14.6a58.13 58.13 0 0 1-3.35 3.75 91.58 91.58 0 0 0-9.84-7.95 89.56 89.56 0 0 0-2-12.44c3.87-.97 7.48-1.5 10.63-1.5zM80.63 68.42c-2.5 1.43-5.01 2.74-7.51 3.93a109.71 109.71 0 0 1-14.71-8.44 111.33 111.33 0 0 1 0-16.88 114.84 114.84 0 0 1 14.71-8.43 110.24 110.24 0 0 1 14.72 8.44 110.64 110.64 0 0 1 0 16.87c-2.3 1.57-4.7 3.07-7.21 4.5zm6.79-.24c-.4 3.29-.94 6.34-1.6 9.14a86.05 86.05 0 0 1-8.76-3.2 110.5 110.5 0 0 0 10.36-5.94zm-18.24 5.95c-3 1.27-5.94 2.34-8.77 3.2a84.2 84.2 0 0 1-1.59-9.14 115.4 115.4 0 0 0 10.36 5.94zM54.9 61.42c-2.6-1.94-5-3.94-7.17-5.96a84.8 84.8 0 0 1 7.17-5.94 110.46 110.46 0 0 0 0 11.9zm3.92-18.64c.4-3.28.93-6.34 1.59-9.14 2.83.85 5.77 1.92 8.77 3.2a116.55 116.55 0 0 0-10.36 5.94zm18.24-5.94c3-1.28 5.94-2.35 8.77-3.2a85.5 85.5 0 0 1 1.59 9.14 116.2 116.2 0 0 0-10.36-5.94zm14.28 12.72a86.5 86.5 0 0 1 7.14 5.93c-2.16 2.01-4.56 4-7.14 5.93a115.57 115.57 0 0 0 0-11.86zM73.12 14.14c4.38 0 8.94 6.05 11.88 16.3a93.47 93.47 0 0 0-11.88 4.5 93.63 93.63 0 0 0-11.88-4.5c2.93-10.25 7.5-16.3 11.88-16.3zM37.1 34.8c1.7-2.92 6.1-3.54 9.49-3.54 3.15 0 6.76.53 10.63 1.5-.9 3.8-1.59 7.98-2 12.44a91.13 91.13 0 0 0-9.85 7.95 56.39 56.39 0 0 1-3.35-3.76c-4.95-6.11-6.75-11.43-4.92-14.59zm9.49 44.9c-3.4 0-7.8-.62-9.49-3.54-2.18-3.77.8-10.73 8.25-18.37a92.21 92.21 0 0 0 9.87 7.97c.41 4.45 1.1 8.63 2 12.44a45.17 45.17 0 0 1-10.63 1.5zm26.53 17.13c-4.38 0-8.95-6.06-11.88-16.3a93.22 93.22 0 0 0 11.88-4.5A92.43 92.43 0 0 0 85 80.53c-2.94 10.24-7.5 16.3-11.88 16.3zm36.01-20.68c-1.7 2.93-6.1 3.54-9.48 3.54-3.15 0-6.76-.52-10.64-1.5.91-3.8 1.59-7.98 2.01-12.44a92.24 92.24 0 0 0 9.84-7.94 56.74 56.74 0 0 1 3.35 3.75c4.96 6.12 6.76 11.44 4.92 14.6z"/>
    <path d="M72.77 42.8a12.7 12.7 0 0 0-12.71 12.65A12.7 12.7 0 0 0 72.77 68.1a12.7 12.7 0 0 0 12.71-12.65 12.7 12.7 0 0 0-12.7-12.64zm0 21.97a9.36 9.36 0 0 1-9.37-9.32c0-5.14 4.2-9.32 9.37-9.32a9.36 9.36 0 0 1 9.37 9.32c0 5.14-4.2 9.32-9.37 9.32z"/>
  </g>
</svg>
