<?xml version="1.0" encoding="UTF-8" standalone="no"?>
<!-- Created with Inkscape (http://www.inkscape.org/) -->

<svg
   xmlns:dc="http://purl.org/dc/elements/1.1/"
   xmlns:cc="http://creativecommons.org/ns#"
   xmlns:rdf="http://www.w3.org/1999/02/22-rdf-syntax-ns#"
   xmlns:svg="http://www.w3.org/2000/svg"
   xmlns="http://www.w3.org/2000/svg"
   xmlns:sodipodi="http://sodipodi.sourceforge.net/DTD/sodipodi-0.dtd"
   xmlns:inkscape="http://www.inkscape.org/namespaces/inkscape"
   width="955.59595"
   height="298.66287"
   viewBox="0 0 252.83476 79.021217"
   version="1.1"
   id="svg158"
   inkscape:version="0.92.2 (5c3e80d, 2017-08-06)"
   sodipodi:docname="logo-horizontal4c.svg">
  <defs
     id="defs152">
    <clipPath
       clipPathUnits="userSpaceOnUse"
       id="clipPath172">
      <path
         d="m 382.5732,121.9971 c -4.0227,0 -7.2943,-3.2729 -7.2943,-7.2972 0,-4.0243 3.2716,-7.3002 7.2943,-7.3002 4.0227,0 7.2943,3.2728 7.2943,7.3002 0,4.0243 -3.2716,7.2972 -7.2943,7.2972 z m 0,-12.676 c -2.9644,0 -5.3768,2.4133 -5.3768,5.3788 0,2.9655 2.4124,5.3789 5.3768,5.3789 2.9644,0 5.3768,-2.4134 5.3768,-5.3789 -0.003,-2.9655 -2.4124,-5.3788 -5.3768,-5.3788 z"
         id="path170"
         inkscape:connector-curvature="0"
         style="clip-rule:evenodd" />
    </clipPath>
    <clipPath
       clipPathUnits="userSpaceOnUse"
       id="clipPath178">
      <path
         d="M 0,0 H 842 V 595 H 0 Z"
         id="path176"
         inkscape:connector-curvature="0" />
    </clipPath>
    <clipPath
       clipPathUnits="userSpaceOnUse"
       id="clipPath156">
      <path
         d="m 401.9056,112.3955 c -0.6183,0.7691 -1.3061,1.5383 -2.048,2.3044 0.7419,0.7661 1.4266,1.5384 2.048,2.3045 3.4222,4.2444 4.4836,8.0038 2.9914,10.5885 -1.134,1.9639 -3.592,3.0019 -7.1044,3.0019 -1.9577,0 -4.1918,-0.3259 -6.5834,-0.9291 -1.8936,6.5882 -5.0263,10.8241 -8.636,10.8241 -3.6128,0 -6.7432,-4.2359 -8.6368,-10.8241 -2.3939,0.6032 -4.6256,0.9291 -6.5857,0.9291 -3.5163,0 -5.9704,-1.038 -7.1044,-3.0019 -1.493,-2.5847 -0.4285,-6.3465 2.9914,-10.5885 0.6214,-0.7692 1.3085,-1.5415 2.0534,-2.3137 -4.7553,-4.9318 -6.8512,-9.7584 -5.0479,-12.8869 1.134,-1.96388 3.5881,-3.00181 7.1044,-3.00181 1.957,0 4.1918,0.3259 6.5857,0.92904 1.8913,-6.58822 5.024,-10.82335 8.6337,-10.82335 3.6128,0 6.7424,4.23513 8.636,10.82335 2.3947,-0.60314 4.6295,-0.92904 6.5865,-0.92904 3.5124,0 5.9704,1.03793 7.1044,3.00181 1.4953,2.5848 0.4339,6.3473 -2.9883,10.5917 z m -4.113,16.2809 c 1.9446,0 4.4689,-0.3529 5.4424,-2.0426 1.0529,-1.8218 0.0216,-4.8931 -2.8224,-8.4224 -0.582,-0.7213 -1.2243,-1.4418 -1.9206,-2.1662 -1.6675,1.5716 -3.5704,3.113 -5.6485,4.5857 -0.2378,2.5702 -0.63,4.9835 -1.1518,7.1821 2.2225,0.5615 4.2945,0.8634 6.1009,0.8634 z m -10.9103,-21.4459 c -1.4328,-0.8263 -2.8771,-1.5839 -4.3091,-2.2681 -1.4359,0.6873 -2.8771,1.4418 -4.3122,2.2712 -1.4359,0.8294 -2.8169,1.7013 -4.1285,2.6003 -0.1174,1.5538 -0.1807,3.1763 -0.1807,4.8691 0,1.6951 0.0664,3.3215 0.1807,4.8746 1.2876,0.878 2.6625,1.7468 4.1285,2.5948 1.4351,0.8294 2.8763,1.5839 4.3122,2.2681 1.4351,-0.6842 2.8763,-1.4418 4.3122,-2.2681 1.4351,-0.8294 2.8162,-1.7013 4.1308,-2.6002 0.1181,-1.5538 0.1814,-3.1772 0.1814,-4.8692 0,-1.6928 -0.0633,-3.3153 -0.1814,-4.8691 -1.3177,-0.9051 -2.6988,-1.7739 -4.1339,-2.6034 z m 3.8931,0.136 c -0.2262,-1.8944 -0.5342,-3.6591 -0.911,-5.2762 -1.625,0.4943 -3.314,1.1098 -5.0324,1.8457 1.0066,0.5136 2.011,1.0534 3.0091,1.6326 1.0043,0.5792 1.984,1.1793 2.9343,1.7979 z m -10.461,-3.4328 c -1.7192,-0.7336 -3.4075,-1.3515 -5.0332,-1.8465 -0.3768,1.6172 -0.684,3.3818 -0.9102,5.2762 0.9495,-0.6155 1.9269,-1.2187 2.9312,-1.7979 0.9981,-0.5761 2.0048,-1.119 3.0122,-1.6318 z m -8.1929,7.342 c -1.4899,1.1198 -2.871,2.272 -4.1131,3.4397 1.212,1.1337 2.5838,2.2836 4.1131,3.4265 -0.0602,-1.1221 -0.0934,-2.2681 -0.0934,-3.4389 0.002,-1.1677 0.0355,-2.3075 0.0934,-3.4273 z m 2.2464,10.7577 c 0.2262,1.8944 0.5335,3.659 0.911,5.2761 1.6249,-0.4919 3.3132,-1.1097 5.0324,-1.8434 -1.0074,-0.5128 -2.011,-1.0557 -3.0122,-1.6318 -1.0105,-0.5854 -1.9878,-1.1885 -2.9312,-1.8009 z m 10.4641,3.4327 c 1.7184,0.7337 3.4074,1.3515 5.0324,1.8465 0.3737,-1.6171 0.6848,-3.3818 0.911,-5.2761 -0.9503,0.6155 -1.9269,1.2186 -2.9312,1.7978 -1.0012,0.5761 -2.0087,1.119 -3.0122,1.6318 z m 8.1929,-7.3419 c 1.4837,-1.1167 2.8586,-2.2628 4.0976,-3.4243 -1.239,-1.1615 -2.6139,-2.3106 -4.0976,-3.4242 0.0571,1.1198 0.0903,2.2596 0.0903,3.4242 0,1.1646 -0.0332,2.3045 -0.0903,3.4243 z m -10.4517,20.4435 c 2.512,0 5.132,-3.4961 6.8149,-9.4055 -2.1924,-0.6611 -4.4905,-1.5391 -6.8149,-2.6064 -2.3252,1.0673 -4.6233,1.9453 -6.815,2.6064 1.6822,5.9094 4.2999,9.4055 6.815,9.4055 z m -20.6656,-11.9339 c 0.9742,1.6866 3.4978,2.0426 5.4431,2.0426 1.8064,0 3.8776,-0.3019 6.1001,-0.8634 -0.5211,-2.1955 -0.9101,-4.6089 -1.1518,-7.1821 -2.1074,-1.4935 -4.0011,-3.0381 -5.6446,-4.5888 -0.7002,0.7244 -1.3424,1.448 -1.9245,2.1693 -2.8432,3.5293 -3.8714,6.6006 -2.8223,8.4224 z m 5.4431,-25.9104 c -1.9453,0 -4.4689,0.3529 -5.4431,2.0396 -1.2545,2.1778 0.4616,6.1905 4.7314,10.6032 1.6736,-1.5746 3.5796,-3.1246 5.6631,-4.6004 0.2386,-2.5701 0.63,-4.9834 1.1518,-7.1821 -2.2256,-0.5553 -4.2968,-0.8603 -6.1032,-0.8603 z m 15.2225,-9.89122 c -2.512,0 -5.1328,3.49606 -6.815,9.40312 2.1917,0.6603 4.4898,1.5384 6.815,2.6064 2.3244,-1.068 4.6225,-1.9461 6.8149,-2.6041 -1.6859,-5.90936 -4.3029,-9.40542 -6.8149,-9.40542 z M 403.235,102.766 c -0.9735,-1.6866 -3.4978,-2.0426 -5.4424,-2.0426 -1.8064,0 -3.8784,0.302 -6.1009,0.8634 0.5218,2.1986 0.9109,4.612 1.1518,7.1821 2.0781,1.4727 3.981,3.0172 5.6485,4.5857 0.6963,-0.7213 1.3386,-1.4449 1.9206,-2.1662 2.8471,-3.5293 3.8753,-6.6006 2.8224,-8.4224 z"
         id="path154"
         inkscape:connector-curvature="0"
         style="clip-rule:evenodd" />
    </clipPath>
    <clipPath
       clipPathUnits="userSpaceOnUse"
       id="clipPath162">
      <path
         d="M 0,0 H 842 V 595 H 0 Z"
         id="path160"
         inkscape:connector-curvature="0" />
    </clipPath>
    <clipPath
       clipPathUnits="userSpaceOnUse"
       id="clipPath140">
      <path
         d="m 422.4327,91.52928 c -0.8481,0 -1.5364,-0.68971 -1.5364,-1.53953 v -4.6186 h -19.927 l -0.0389,2.91895 c 8.5714,6.02265 13.6766,15.8202 13.6766,26.3322 0,17.7457 -14.4121,32.1865 -32.1224,32.1865 -17.7103,0 -32.1224,-14.4408 -32.1224,-32.1865 0,-10.4627 5.099,-20.30134 13.6377,-26.32399 0.0143,-0.0082 0.0225,-0.0082 0.0389,-0.01642 l -0.0389,-2.91074 h -19.927 v 4.6186 c 0,0.84982 -0.6883,1.53953 -1.5364,1.53953 -0.8482,0 -1.5365,-0.68971 -1.5365,-1.53953 v -7.69767 h 26.0318 l 0.0881,6.67952 c 0.008,0.65687 -0.3994,1.2111 -0.969,1.44306 -0.1024,0.1519 -0.2233,0.29764 -0.3831,0.40849 -7.7233,5.44584 -12.3327,14.33815 -12.3327,23.80735 0,16.0522 13.0293,29.1074 29.0495,29.1074 16.0202,0 29.0495,-13.0552 29.0495,-29.1074 0,-9.6868 -4.7774,-18.69816 -12.7875,-24.11937 -0.1537,-0.09647 -0.2643,-0.23195 -0.3688,-0.36948 -0.3278,-0.28738 -0.5449,-0.69587 -0.5367,-1.16184 l 0.0881,-6.67952 26.04,-0.0082 v 7.69767 c 0,0.84982 -0.6883,1.53953 -1.5365,1.53953 z"
         id="path138"
         inkscape:connector-curvature="0"
         style="clip-rule:evenodd" />
    </clipPath>
    <clipPath
       clipPathUnits="userSpaceOnUse"
       id="clipPath146">
      <path
         d="M 0,0 H 842 V 595 H 0 Z"
         id="path144"
         inkscape:connector-curvature="0" />
    </clipPath>
  </defs>
  <sodipodi:namedview
     id="base"
     pagecolor="#ffffff"
     bordercolor="#666666"
     borderopacity="1.0"
     inkscape:pageopacity="0.0"
     inkscape:pageshadow="2"
     inkscape:zoom="0.49497475"
     inkscape:cx="594.55387"
     inkscape:cy="-183.64037"
     inkscape:document-units="px"
     inkscape:current-layer="flowRoot690-1-9"
     showgrid="false"
     showguides="true"
     inkscape:guide-bbox="true"
     inkscape:snap-nodes="false"
     fit-margin-top="0"
     fit-margin-left="0"
     fit-margin-right="0"
     fit-margin-bottom="0"
     units="px"
     inkscape:window-width="1920"
     inkscape:window-height="1016"
     inkscape:window-x="1920"
     inkscape:window-y="27"
     inkscape:window-maximized="1">
    <sodipodi:guide
       position="104.70384,78.654818"
       orientation="0,1"
       id="guide284"
       inkscape:locked="false" />
    <sodipodi:guide
       position="61.757263,13.726368"
       orientation="0,1"
       id="guide286"
       inkscape:locked="false" />
  </sodipodi:namedview>
  <metadata
     id="metadata155">
    <rdf:RDF>
      <cc:Work
         rdf:about="">
        <dc:format>image/svg+xml</dc:format>
        <dc:type
           rdf:resource="http://purl.org/dc/dcmitype/StillImage" />
        <dc:title></dc:title>
      </cc:Work>
    </rdf:RDF>
  </metadata>
  <g
     inkscape:label="Layer 1"
     inkscape:groupmode="layer"
     id="layer1"
     transform="translate(-26.689163,-55.946216)">
    <g
       id="g300"
       transform="translate(-3.4017857,1.0232219)">
      <g
         id="g134"
         transform="matrix(1.0083124,0,0,-1.0083124,-313.74358,203.01183)">
        <g
           id="g136"
           clip-path="url(#clipPath140)">
          <g
             id="g142"
             clip-path="url(#clipPath146)">
            <path
               d="m 336,77.29208 h 92.9692 v 74.51669 H 336 Z"
               style="fill:#1d2951;fill-opacity:1;fill-rule:nonzero;stroke:none"
               id="path148"
               inkscape:connector-curvature="0" />
          </g>
        </g>
      </g>
      <g
         id="g150"
         transform="matrix(1.0083124,0,0,-1.0083124,-313.74358,203.01183)">
        <g
           id="g152"
           clip-path="url(#clipPath156)">
          <g
             id="g158"
             clip-path="url(#clipPath162)">
            <path
               d="m 354.5875,83.90768 h 55.96836 v 61.58215 H 354.5875 Z"
               style="fill:#1d2951;fill-opacity:1;fill-rule:nonzero;stroke:none"
               id="path164"
               inkscape:connector-curvature="0" />
          </g>
        </g>
      </g>
      <g
         id="g166"
         transform="matrix(1.0083124,0,0,-1.0083124,-313.74358,203.01183)">
        <g
           id="g168"
           clip-path="url(#clipPath172)">
          <g
             id="g174"
             clip-path="url(#clipPath178)">
            <path
               d="m 370.2789,102.3997 h 24.58868 v 24.59743 H 370.2789 Z"
               style="fill:#1d2951;fill-opacity:1;fill-rule:nonzero;stroke:none"
               id="path180"
               inkscape:connector-curvature="0" />
          </g>
        </g>
      </g>
    </g>
    <g
       aria-label="QRL"
       transform="matrix(0.97182722,0,0,0.97182722,-71.243271,-134.80099)"
       style="font-style:normal;font-weight:normal;font-size:40px;line-height:1.25;font-family:sans-serif;letter-spacing:0px;word-spacing:0px;fill:#1d2951;fill-opacity:1;stroke:none"
       id="flowRoot690-1-9">
      <flowRoot
         xml:space="preserve"
         id="flowRoot372"
         style="font-style:normal;font-variant:normal;font-weight:normal;font-stretch:normal;font-size:40px;line-height:1.25;font-family:'Titillium Web';-inkscape-font-specification:'Titillium Web';letter-spacing:0px;word-spacing:0px;fill:#000000;fill-opacity:1;stroke:none"
         transform="matrix(0.27225347,0,0,0.27225347,100.77145,196.27687)"><flowRegion
           id="flowRegion374"
           style="font-style:normal;font-variant:normal;font-weight:normal;font-stretch:normal;font-family:'Titillium Web';-inkscape-font-specification:'Titillium Web'"><rect
             id="rect376"
             width="1165.7161"
             height="563.6651"
             x="62.629459"
             y="476.44971"
             style="font-style:normal;font-variant:normal;font-weight:normal;font-stretch:normal;font-family:'Titillium Web';-inkscape-font-specification:'Titillium Web'" /></flowRegion><flowPara
           id="flowPara378"></flowPara></flowRoot>      <g
         aria-label="QRL"
         transform="matrix(0.48508396,0,0,0.48508396,115.14418,-34.243287)"
         style="font-style:normal;font-weight:normal;font-size:40px;line-height:1.25;font-family:sans-serif;letter-spacing:0px;word-spacing:0px;fill:#1d2951;fill-opacity:1;stroke:none"
         id="flowRoot414">
        <path
           d="m 217.09497,613.0667 q -29.568,0 -40.896,-16.32 -11.136,-16.32 -11.136,-51.456 0,-35.328 11.328,-52.416 11.328,-17.088 40.704,-17.088 29.376,0 40.704,17.088 11.52,16.896 11.52,52.224 0,25.152 -5.184,39.936 -4.992,14.784 -17.28,21.696 l 16.32,26.496 -11.328,5.376 -16.704,-27.648 q -7.488,2.112 -18.048,2.112 z m -39.744,-67.968 q 0,30.528 8.064,43.968 8.064,13.248 31.68,13.248 23.808,0 31.872,-12.864 8.064,-13.056 8.064,-43.776 0,-30.72 -8.448,-44.928 -8.448,-14.208 -31.488,-14.208 -23.808,0 -32.064,15.36 -4.416,7.872 -6.144,18.048 -1.536,10.176 -1.536,25.152 z"
           style="font-style:normal;font-variant:normal;font-weight:300;font-stretch:normal;font-size:192px;font-family:'Titillium Web';-inkscape-font-specification:'Titillium Web Light';fill:#1d2951;fill-opacity:1"
           id="path422" />
        <path
           d="m 309.27597,558.5387 v 52.608 h -11.904 v -133.44 h 48.96 q 20.928,0 31.104,9.6 10.368,9.408 10.368,29.952 0,32.064 -25.728,38.976 l 27.456,54.912 h -13.248 l -26.304,-52.608 z m 66.24,-41.088 q 0,-14.976 -7.104,-22.08 -7.104,-7.104 -22.08,-7.104 h -37.056 v 59.712 h 37.056 q 29.184,0 29.184,-30.528 z"
           style="font-style:normal;font-variant:normal;font-weight:300;font-stretch:normal;font-size:192px;font-family:'Titillium Web';-inkscape-font-specification:'Titillium Web Light';fill:#1d2951;fill-opacity:1"
           id="path424" />
        <path
           d="m 488.45697,611.1467 h -72.96 v -133.44 h 11.904 v 122.688 h 61.056 z"
           style="font-style:normal;font-variant:normal;font-weight:300;font-stretch:normal;font-size:192px;font-family:'Titillium Web';-inkscape-font-specification:'Titillium Web Light';fill:#1d2951;fill-opacity:1"
           id="path426" />
      </g>
    </g>
  </g>
</svg>
