<?xml version="1.0" encoding="UTF-8" standalone="no"?>
<svg
   width="136"
   height="32"
   viewBox="0 0 136 32"
   fill="none"
   version="1.1"
   id="svg43"
   sodipodi:docname="bittrex-logo-global.svg"
   inkscape:version="1.1.1 (1:1.1+202109281949+c3084ef5ed)"
   xmlns:inkscape="http://www.inkscape.org/namespaces/inkscape"
   xmlns:sodipodi="http://sodipodi.sourceforge.net/DTD/sodipodi-0.dtd"
   xmlns="http://www.w3.org/2000/svg"
   xmlns:svg="http://www.w3.org/2000/svg">
  <sodipodi:namedview
     id="namedview45"
     pagecolor="#ffffff"
     bordercolor="#666666"
     borderopacity="1.0"
     inkscape:pageshadow="2"
     inkscape:pageopacity="0.0"
     inkscape:pagecheckerboard="0"
     showgrid="false"
     inkscape:zoom="4.7941176"
     inkscape:cx="35.147239"
     inkscape:cy="8.6564417"
     inkscape:window-width="2494"
     inkscape:window-height="1376"
     inkscape:window-x="66"
     inkscape:window-y="27"
     inkscape:window-maximized="1"
     inkscape:current-layer="svg43" />
  <g
     clip-path="url(#clip0)"
     id="g36">
    <path
       d="M 53.5097,7.99952 C 53.2064,7.69506 52.8576,7.43976 52.4757,7.24281 52.2873,7.14327 52.0911,7.0595 51.8889,6.99237 L 52.0177,6.92976 C 52.2651,6.80203 52.4929,6.63936 52.6939,6.44675 53.0281,6.10287 53.2774,5.68572 53.422,5.2285 53.5802,4.73858 53.6581,4.22631 53.6528,3.71151 53.6585,3.21349 53.5749,2.71849 53.4059,2.24997 53.2538,1.83065 53.0092,1.45096 52.6903,1.13906 51.9963,0.462851 50.8281,0.00131226 49.2574,0.00131226 H 41.0159 V 14.64 h 8.8355 c 0.6898,0.0139 1.3764,-0.097 2.0268,-0.3274 0.5377,-0.1998 1.0259,-0.5135 1.4311,-0.9195 0.34,-0.3487 0.5995,-0.7675 0.7603,-1.2272 0.1817,-0.5061 0.2732,-1.0401 0.2701,-1.5778 0.0044,-0.4949 -0.063,-0.98785 -0.2003,-1.46335 -0.119,-0.41917 -0.3347,-0.80457 -0.6297,-1.12523 z m -3.2415,3.39358 c -0.1605,0.1179 -0.343,0.2024 -0.5367,0.2486 -0.2557,0.0629 -0.5184,0.093 -0.7818,0.0895 H 44.4506 V 8.76696 h 4.5349 c 0.4474,-0.02047 0.8886,0.11064 1.2523,0.3721 0.159,0.13123 0.2785,0.304 0.3452,0.4991 0.076,0.22704 0.1123,0.46544 0.1073,0.70484 0.004,0.2125 -0.0306,0.4241 -0.1019,0.6243 -0.0662,0.1683 -0.1769,0.3155 -0.3202,0.4258 z M 49.8889,3.70078 c 0.0834,0.21505 0.1258,0.44377 0.1252,0.67441 0.0044,0.25774 -0.038,0.51413 -0.1252,0.75671 -0.0678,0.1868 -0.1773,0.35567 -0.3202,0.49374 -0.1185,0.11228 -0.2601,0.19716 -0.415,0.24866 -0.1667,0.05498 -0.3415,0.08158 -0.517,0.07871 H 44.4506 V 2.89398 h 3.8855 c 0.2511,-0.00495 0.5018,0.0221 0.746,0.0805 0.1837,0.04315 0.3547,0.12894 0.4991,0.25045 0.1407,0.13329 0.2484,0.29741 0.3149,0.47942 z"
       fill="#ffffff"
       id="path2"
       style="fill:#151414;fill-opacity:1" />
    <path
       d="m 57.0768,14.6386 h 0.1915 3.3685 V -6.10352e-5 h -3.56 z"
       fill="#ffffff"
       id="path4"
       style="fill:#151414;fill-opacity:1" />
    <path
       d="m 62.7958,3.01783 h 4.6387 V 14.6386 h 3.5599 V 3.01783 h 4.6547 V -6.10352e-5 H 62.7958 Z"
       fill="#ffffff"
       id="path6"
       style="fill:#151414;fill-opacity:1" />
    <path
       d="m 76.9246,3.01783 h 4.6369 V 14.6386 h 3.5599 V 3.01783 h 4.6565 V -6.10352e-5 H 76.9246 Z"
       fill="#ffffff"
       id="path8"
       style="fill:#151414;fill-opacity:1" />
    <path
       d="M 103.88,7.03576 C 104.229,6.4329 104.429,5.55633 104.429,4.45078 104.437,3.9241 104.385,3.39823 104.272,2.8837 104.176,2.45939 104.004,2.05581 103.766,1.69229 103.442,1.14306 102.958,0.70605 102.379,0.440051 101.651,0.124868 100.862,-0.0254113 100.07,-2.06197e-5 H 91.9373 V 14.6386 h 3.4525 V 9.093 h 3.4419 l 2.7803,5.5456 h 3.935 l -3.366,-6.23075 c 0.359,-0.10535 0.695,-0.28082 0.986,-0.5163 0.292,-0.23548 0.534,-0.52633 0.713,-0.85579 z M 100.8,5.72449 c -0.04,0.07633 -0.095,0.14387 -0.161,0.19857 -0.131,0.10101 -0.282,0.17353 -0.442,0.21288 -0.2132,0.05366 -0.432,0.07952 -0.6515,0.07692 H 95.4077 V 3.01787 h 3.9571 c 0.3305,-0.01265 0.6602,0.04339 0.9682,0.16458 0.11,0.0482 0.211,0.11406 0.3,0.19499 0.083,0.07797 0.152,0.17003 0.202,0.27191 0.024,0.05792 0.044,0.11776 0.058,0.17889 0.059,0.28776 0.088,0.58098 0.085,0.87478 -10e-4,0.18473 -0.018,0.36903 -0.05,0.55098 -0.023,0.16157 -0.066,0.31961 -0.128,0.47049 z"
       fill="#ffffff"
       id="path10"
       style="fill:#151414;fill-opacity:1" />
    <path
       d="M 103.881,7.03574 H 103.88 V 7.03707 Z"
       fill="#020003"
       id="path12"
       style="fill:#0b181e" />
    <path
       d="m 111.197,8.86398 h 7.542 V 5.77454 h -7.542 V 3.07328 h 7.831 V -6.10352e-5 H 107.762 V 14.6386 h 0.193 11.163 v -3.0537 h -7.921 z"
       fill="#ffffff"
       id="path14"
       style="fill:#151414;fill-opacity:1" />
    <path
       d="M 135.011,19.1574 H 41.0965 V 32 h 93.9145 z"
       fill="#1c6fe8"
       id="path16" />
    <path
       d="m 74.9677,29.1468 -0.0715,-0.6673 c -0.3793,0.4419 -0.9302,0.7675 -2.0769,0.7675 -1.1181,0 -2.0126,-0.3972 -2.5349,-1.0555 -0.3882,-0.4884 -0.678,-1.3989 -0.678,-2.5993 0,-1.0375 0.118,-1.805 0.6511,-2.5277 0.4598,-0.6226 1.3256,-1.1539 2.7514,-1.1539 1.517,0 2.3918,0.4956 2.8157,1.2523 0.2256,0.3989 0.344,0.8494 0.3435,1.3077 h -1.517 c -0.0182,-0.3022 -0.1453,-0.5876 -0.3578,-0.8032 -0.1663,-0.1522 -0.3612,-0.2697 -0.5735,-0.3456 -0.2123,-0.0759 -0.4375,-0.1086 -0.6626,-0.0963 -0.6333,0 -1.0841,0.1628 -1.39,0.4973 -0.3059,0.3345 -0.4687,0.9302 -0.4687,1.9052 0,0.975 0.1539,1.4884 0.4419,1.8497 0.2361,0.2898 0.7585,0.5242 1.4454,0.5242 0.9106,0 1.5599,-0.4616 1.687,-1.0465 V 26.297 h -2.0609 v -1.2808 h 3.4956 v 2.2021 c 0,0.8748 0.0089,1.8945 0.0089,1.9213 z"
       fill="#ffffff"
       id="path18" />
    <path
       d="m 77.2502,29.1467 v -7.1288 h 1.5706 v 5.8033 h 3.5653 v 1.3255 z"
       fill="#ffffff"
       id="path20" />
    <path
       d="m 88.8013,23.0555 c 0.415,0.551 0.6046,1.3721 0.6046,2.4831 0,1.1627 -0.2254,1.9678 -0.6314,2.5706 -0.4956,0.7406 -1.4437,1.1378 -2.8426,1.1378 -1.3989,0 -2.3095,-0.3793 -2.8247,-1.1199 -0.4419,-0.6047 -0.6494,-1.4526 -0.6494,-2.5707 0,-1.0572 0.1896,-1.8783 0.6136,-2.4365 0.5367,-0.7406 1.4168,-1.2093 2.8623,-1.2093 1.415,0 2.3273,0.4061 2.8676,1.1449 z m -1.4526,4.3954 c 0.3435,-0.3435 0.4884,-1.0912 0.4884,-1.8766 0,-0.7853 -0.1449,-1.4991 -0.4437,-1.8139 -0.2987,-0.3149 -0.6762,-0.551 -1.4615,-0.551 -0.7853,0 -1.1378,0.2164 -1.4437,0.5599 -0.2808,0.3149 -0.4418,1.0465 -0.4418,1.814 0,0.8032 0.1789,1.542 0.5366,1.9034 0.2899,0.2898 0.6691,0.4794 1.3632,0.4794 0.7352,0 1.1145,-0.2272 1.4025,-0.5152 z"
       fill="#ffffff"
       id="path22" />
    <path
       d="m 94.703,29.1467 h -4.322 v -7.1288 h 4.025 c 0.7675,0 1.3256,0.2254 1.6512,0.5367 0.1537,0.162 0.2729,0.3535 0.3504,0.5629 0.0775,0.2094 0.1116,0.4324 0.1004,0.6554 0.0254,0.4752 -0.1365,0.9414 -0.4508,1.2987 -0.1926,0.1779 -0.4291,0.3014 -0.6852,0.3578 0.4144,0.0589 0.7978,0.2525 1.0913,0.551 0.2611,0.2701 0.3882,0.7155 0.3882,1.2272 0.0173,0.4917 -0.1572,0.9708 -0.4866,1.3363 -0.3614,0.3685 -0.8945,0.6028 -1.6619,0.6028 z m -0.0716,-5.6851 c -0.1985,-0.1428 -0.4415,-0.21 -0.6851,-0.1896 h -2.0394 v 1.7245 h 2.1896 c 0.197,0.0104 0.39,-0.0578 0.5367,-0.1896 0.0876,-0.0925 0.1552,-0.202 0.1986,-0.3217 0.0434,-0.1197 0.0617,-0.2471 0.0536,-0.3742 0.0036,-0.1196 -0.0169,-0.2387 -0.0602,-0.3503 -0.0434,-0.1115 -0.1086,-0.2132 -0.192,-0.2991 z m 0.5868,3.6279 c 0.0106,-0.1251 -0.0075,-0.251 -0.0527,-0.3682 -0.0452,-0.1171 -0.1165,-0.2225 -0.2085,-0.308 -0.1989,-0.1449 -0.4411,-0.2181 -0.6869,-0.2075 h -2.3632 v 1.678 h 2.3453 c 0.2526,0.015 0.5035,-0.0515 0.7155,-0.1896 0.086,-0.0744 0.1534,-0.1678 0.1968,-0.2727 0.0435,-0.105 0.0619,-0.2187 0.0537,-0.332 z"
       fill="#ffffff"
       id="path24" />
    <path
       d="m 98.7474,29.1467 h -1.5975 l 2.7621,-7.1288 h 1.968 l 2.608,7.1288 h -1.624 l -0.605,-1.678 h -2.8712 z m 2.2846,-5.161 -0.163,-0.5867 -0.179,0.5957 -0.812,2.1842 h 1.911 z"
       fill="#ffffff"
       id="path26" />
    <path
       d="m 105.162,29.1467 v -7.1288 h 1.571 v 5.8033 h 3.565 v 1.3255 z"
       fill="#ffffff"
       id="path28" />
    <path
       d="M 32,22.7191 V 0 H 9.28086 V 6.72093 H 13.4311 V 4.15027 H 27.8479 V 18.5653 H 22.7191 V 9.28265 H 0 V 32.0018 h 22.7191 v -6.7192 h -4.1502 v 2.5671 H 4.15027 V 13.4329 h 5.13238 v 9.2862 z m -13.4347,-4.152 h -5.1324 v -5.1342 h 5.1324 z"
       fill="#1c6fe8"
       id="path30" />
    <path
       d="M 129.681,7.00537 128.13,4.79428 124.91,0 h -4.116 l 5.057,7.24508 -5.373,7.39352 h 4.019 l 0.079,-0.1145 3.188,-4.59029 3.166,4.70479 h 4.1 z"
       fill="#ffffff"
       id="path32"
       style="fill:#151414;fill-opacity:1" />
    <path
       d="m 130.463,2.52594 h 2.04 v 1.99105 h 2.528 V 0 h -4.519 v 2.52594 z"
       fill="#1c6fe8"
       id="path34" />
  </g>
  <defs
     id="defs41">
    <clipPath
       id="clip0">
      <rect
         width="135.03"
         height="32"
         fill="white"
         id="rect38" />
    </clipPath>
  </defs>
</svg>
