<svg viewBox="0 0 152 29" class="Footer_catalx-logo_Mog0x"><path fill-rule="evenodd" clip-rule="evenodd" d="M4.375 14.601c0 5.406 5.832 8.759 10.491 6.16a13.19 13.19 0 002.51 3.441C9.926 28.817.148 23.478.148 14.606.148 5.58 10.226.269 17.666 5.203a13.175 13.175 0 00-2.611 3.349c-4.662-2.793-10.68.552-10.68 6.05zm21.896-2.608l-7.329-5.892c2.1-1.982 4.495-2.742 7.404-2.763 3.44-.025 5.64 1.055 7.768 3.007l-7.843 5.648zm0 5.213l-7.329 5.892c2.1 1.983 4.495 2.742 7.404 2.763 3.44.025 5.64-1.055 7.768-3.007l-7.843-5.648zM16.23 9.49l6.674 4.882-6.673 5.337c-.783-1.565-1.227-3.598-1.198-5.337.029-1.738.364-3.342 1.198-4.882zm13.713 4.882l6.674-4.882c.834 1.54 1.168 3.144 1.197 4.882.03 1.739-.415 3.772-1.197 5.337l-6.674-5.337z" fill="url(#logo_catalyx-v2-full_svg__paint0_linear_185_1531)"></path><path d="M71.524 16.993v-1.588c-1.461.095-3.018.19-4.479.38-1.715.191-2.7 1.176-2.7 2.447 0 1.334 1.144 2.318 2.923 2.318 3.24 0 4.256-1.874 4.256-3.557zm-8.195-6.575l-1.588-2.573c1.81-1.46 3.748-2 6.035-2 3.398 0 7.115 1.778 7.115 6.479V23.06h-3.208v-1.43c-1.24 1.207-2.986 1.81-4.987 1.81-3.526 0-5.717-2.19-5.717-5.177 0-3.716 2.89-5.24 5.971-5.463l4.574-.35v-.158c0-2.382-1.906-3.526-3.748-3.526-1.81 0-3.208.667-4.447 1.652zM84.314 1.97v4.255h4.065v2.89h-4.065v8.99c0 1.842.762 2.382 2.255 2.382.35 0 1.334-.095 2.064-.54l.509 2.795c-.667.413-2.033.699-2.764.699-3.557 0-5.4-1.493-5.4-5.178V9.116h-2.89v-2.89h2.89V1.968h3.336zM101.593 16.993v-1.588c-1.461.095-3.018.19-4.479.38-1.715.191-2.7 1.176-2.7 2.447 0 1.334 1.144 2.318 2.922 2.318 3.24 0 4.257-1.874 4.257-3.557zm-8.195-6.575L91.81 7.845c1.81-1.46 3.748-2 6.035-2 3.398 0 7.115 1.778 7.115 6.479V23.06h-3.208v-1.43c-1.239 1.207-2.986 1.81-4.987 1.81-3.526 0-5.717-2.19-5.717-5.177 0-3.716 2.89-5.24 5.97-5.463l4.575-.35v-.158c0-2.382-1.906-3.526-3.748-3.526-1.81 0-3.208.667-4.447 1.652zM110.095 23.06V0h3.366v23.06h-3.366zM133.203 6.225l-6.448 16.835c-1.111 2.795-3.271 5.209-6.797 5.653l-1.239-2.7c2.573-.413 4.034-1.492 4.733-3.24l-6.384-16.548h3.494l4.573 12.547 4.606-12.547h3.462zM141.036 14.42l-5.844-8.195h3.907l3.938 5.432 3.939-5.432h3.907l-5.876 8.195 6.289 8.64h-4.034l-4.225-5.877-4.224 5.877h-4.034l6.257-8.64zM55.496 19.41c-3.696 2.027-8.322-.59-8.322-4.807 0-4.29 4.773-6.9 8.471-4.72a10.304 10.304 0 012.072-2.613c-5.902-3.85-13.896.294-13.896 7.337 0 6.922 7.756 11.088 13.665 7.487a10.303 10.303 0 01-1.99-2.684z"></path><defs><linearGradient id="logo_catalyx-v2-full_svg__paint0_linear_185_1531" x1="0.379" y1="14.268" x2="37.483" y2="13.806" gradientUnits="userSpaceOnUse"><stop stop-color="#A873EC"></stop><stop offset="1" stop-color="#5774FB"></stop></linearGradient></defs></svg>