<?xml version="1.0" encoding="UTF-8" standalone="no"?>
<!-- Created with Inkscape (http://www.inkscape.org/) -->

<svg
   xmlns:dc="http://purl.org/dc/elements/1.1/"
   xmlns:cc="http://creativecommons.org/ns#"
   xmlns:rdf="http://www.w3.org/1999/02/22-rdf-syntax-ns#"
   xmlns:svg="http://www.w3.org/2000/svg"
   xmlns="http://www.w3.org/2000/svg"
   xmlns:sodipodi="http://sodipodi.sourceforge.net/DTD/sodipodi-0.dtd"
   xmlns:inkscape="http://www.inkscape.org/namespaces/inkscape"
   width="82.907997mm"
   height="51.476002mm"
   viewBox="0 0 82.907997 51.476002"
   version="1.1"
   id="svg1152"
   inkscape:version="0.92.4 (5da689c313, 2019-01-14)"
   sodipodi:docname="changenow.svg">
  <defs
     id="defs1146" />
  <sodipodi:namedview
     id="base"
     pagecolor="#ffffff"
     bordercolor="#666666"
     borderopacity="1.0"
     inkscape:pageopacity="0.0"
     inkscape:pageshadow="2"
     inkscape:zoom="0.49497475"
     inkscape:cx="143.16862"
     inkscape:cy="161.84126"
     inkscape:document-units="mm"
     inkscape:current-layer="layer1"
     showgrid="false"
     inkscape:window-width="1080"
     inkscape:window-height="1883"
     inkscape:window-x="0"
     inkscape:window-y="0"
     inkscape:window-maximized="1" />
  <metadata
     id="metadata1149">
    <rdf:RDF>
      <cc:Work
         rdf:about="">
        <dc:format>image/svg+xml</dc:format>
        <dc:type
           rdf:resource="http://purl.org/dc/dcmitype/StillImage" />
        <dc:title></dc:title>
      </cc:Work>
    </rdf:RDF>
  </metadata>
  <g
     inkscape:label="Layer 1"
     inkscape:groupmode="layer"
     id="layer1"
     transform="translate(-191.125,-139.1)">
    <svg
       width="87"
       height="56"
       viewBox="-2 -2 87 56"
       id="logotype"
       x="189"
       y="137"
       version="1.1">
      <g
         style="fill:none;fill-rule:evenodd"
         id="g9">
        <path
           style="fill:#171717;fill-opacity:1"
           inkscape:connector-curvature="0"
           d="M 9.175,10.3 A 4.748,4.748 0 0 0 7.862,9.312 C 7.404,9.087 6.858,8.975 6.225,8.975 c -0.617,0 -1.154,0.112 -1.612,0.338 -0.46,0.225 -0.842,0.533 -1.15,0.925 -0.31,0.39 -0.542,0.84 -0.7,1.35 -0.16,0.508 -0.238,1.037 -0.238,1.587 0,0.55 0.092,1.07 0.275,1.563 0.183,0.49 0.442,0.92 0.775,1.287 0.333,0.367 0.733,0.654 1.2,0.863 A 3.83,3.83 0 0 0 6.35,17.2 c 0.633,0 1.175,-0.112 1.625,-0.337 0.45,-0.226 0.867,-0.555 1.25,-0.988 l 1.6,1.6 A 5.028,5.028 0 0 1 8.788,18.875 7.128,7.128 0 0 1 6.325,19.3 C 5.408,19.3 4.571,19.15 3.812,18.85 A 5.785,5.785 0 0 1 1.85,17.587 5.55,5.55 0 0 1 0.575,15.637 c -0.3,-0.758 -0.45,-1.595 -0.45,-2.512 0,-0.917 0.15,-1.758 0.45,-2.525 0.3,-0.767 0.72,-1.425 1.262,-1.975 0.542,-0.55 1.192,-0.98 1.95,-1.287 0.76,-0.31 1.605,-0.463 2.538,-0.463 0.867,0 1.696,0.154 2.487,0.463 0.792,0.308 1.48,0.78 2.063,1.412 z m 4.02,-10.2 h 2.25 v 8.875 h 0.05 c 0.283,-0.633 0.774,-1.146 1.474,-1.537 0.7,-0.392 1.508,-0.588 2.424,-0.588 0.567,0 1.113,0.087 1.638,0.263 0.525,0.175 0.983,0.445 1.375,0.812 0.392,0.367 0.704,0.837 0.937,1.413 0.234,0.575 0.35,1.254 0.35,2.037 V 19 h -2.25 v -7 c 0,-0.55 -0.075,-1.02 -0.225,-1.412 -0.15,-0.392 -0.35,-0.71 -0.6,-0.95 A 2.245,2.245 0 0 0 19.755,9.113 3.138,3.138 0 0 0 18.742,8.95 c -0.466,0 -0.9,0.075 -1.3,0.225 -0.4,0.15 -0.75,0.387 -1.05,0.712 -0.3,0.326 -0.533,0.738 -0.7,1.238 -0.166,0.5 -0.25,1.092 -0.25,1.775 V 19 h -2.25 V 0.1 Z m 14.394,8.5 a 6.272,6.272 0 0 1 2.2,-1.313 7.559,7.559 0 0 1 2.5,-0.437 c 0.866,0 1.61,0.108 2.236,0.325 0.625,0.217 1.138,0.508 1.538,0.875 0.4,0.367 0.696,0.787 0.887,1.262 0.193,0.476 0.29,0.97 0.29,1.488 v 6.05 c 0,0.417 0.007,0.8 0.024,1.15 0.017,0.35 0.042,0.683 0.075,1 h -2 c -0.05,-0.6 -0.076,-1.2 -0.076,-1.8 h -0.05 c -0.5,0.767 -1.092,1.308 -1.775,1.625 -0.684,0.317 -1.476,0.475 -2.376,0.475 -0.55,0 -1.075,-0.075 -1.575,-0.225 -0.5,-0.15 -0.94,-0.375 -1.314,-0.675 A 3.22,3.22 0 0 1 27.286,17.288 C 27.068,16.846 26.96,16.333 26.96,15.75 c 0,-0.767 0.17,-1.408 0.512,-1.925 0.342,-0.517 0.81,-0.937 1.4,-1.262 0.592,-0.326 1.284,-0.56 2.075,-0.7 0.793,-0.142 1.64,-0.213 2.54,-0.213 h 1.65 v -0.5 A 2.483,2.483 0 0 0 34.436,9.437 2.523,2.523 0 0 0 33.56,8.863 C 33.21,8.721 32.793,8.65 32.31,8.65 c -0.433,0 -0.813,0.042 -1.138,0.125 -0.325,0.083 -0.62,0.187 -0.887,0.313 -0.268,0.125 -0.51,0.27 -0.726,0.437 C 29.342,9.692 29.134,9.85 28.934,10 l -1.35,-1.4 z m 6.35,4.7 c -0.534,0 -1.08,0.03 -1.64,0.087 a 6.43,6.43 0 0 0 -1.524,0.338 2.95,2.95 0 0 0 -1.125,0.7 c -0.29,0.3 -0.436,0.683 -0.436,1.15 0,0.683 0.23,1.175 0.687,1.475 0.46,0.3 1.08,0.45 1.864,0.45 0.617,0 1.142,-0.104 1.575,-0.313 0.432,-0.208 0.782,-0.48 1.05,-0.812 0.266,-0.333 0.457,-0.704 0.574,-1.113 A 4.38,4.38 0 0 0 35.139,14.05 V 13.3 Z m 7.018,-6.15 h 2.25 v 1.825 h 0.05 c 0.284,-0.633 0.775,-1.146 1.475,-1.537 0.7,-0.392 1.51,-0.588 2.425,-0.588 0.567,0 1.113,0.087 1.638,0.263 0.525,0.175 0.983,0.445 1.375,0.812 0.393,0.367 0.705,0.837 0.938,1.413 0.234,0.575 0.35,1.254 0.35,2.037 V 19 h -2.25 v -7 c 0,-0.55 -0.075,-1.02 -0.225,-1.412 -0.15,-0.392 -0.35,-0.71 -0.6,-0.95 A 2.241,2.241 0 0 0 47.521,9.113 3.128,3.128 0 0 0 46.509,8.95 c -0.466,0 -0.9,0.075 -1.3,0.225 -0.4,0.15 -0.75,0.387 -1.05,0.712 -0.3,0.326 -0.533,0.738 -0.7,1.238 -0.166,0.5 -0.25,1.092 -0.25,1.775 V 19 h -2.25 V 7.15 Z m 26.22,11.75 c 0,0.9 -0.154,1.72 -0.463,2.463 a 5.632,5.632 0 0 1 -1.312,1.925 c -0.567,0.54 -1.25,0.962 -2.05,1.262 -0.8,0.3 -1.684,0.45 -2.65,0.45 -1.134,0 -2.17,-0.158 -3.113,-0.475 -0.94,-0.317 -1.837,-0.867 -2.687,-1.65 l 1.525,-1.9 c 0.583,0.633 1.216,1.112 1.9,1.438 0.683,0.325 1.458,0.487 2.325,0.487 0.833,0 1.525,-0.12 2.075,-0.362 0.55,-0.242 0.987,-0.555 1.312,-0.938 0.325,-0.383 0.554,-0.82 0.688,-1.313 0.133,-0.49 0.2,-0.987 0.2,-1.487 v -1.75 h -0.075 a 3.949,3.949 0 0 1 -1.763,1.587 5.51,5.51 0 0 1 -2.337,0.513 c -0.867,0 -1.67,-0.154 -2.413,-0.462 a 5.78,5.78 0 0 1 -1.912,-1.275 5.82,5.82 0 0 1 -1.25,-1.925 6.376,6.376 0 0 1 -0.45,-2.413 c 0,-0.867 0.14,-1.68 0.425,-2.438 a 5.956,5.956 0 0 1 1.212,-1.987 5.513,5.513 0 0 1 1.9,-1.325 c 0.742,-0.317 1.57,-0.475 2.488,-0.475 0.8,0 1.58,0.175 2.337,0.525 0.76,0.35 1.354,0.842 1.788,1.475 h 0.05 v -1.7 h 2.25 z m -6.15,-9.95 c -0.6,0 -1.142,0.104 -1.625,0.313 -0.484,0.208 -0.892,0.49 -1.225,0.85 -0.334,0.358 -0.592,0.79 -0.775,1.3 a 4.846,4.846 0 0 0 -0.275,1.662 c 0,1.2 0.35,2.162 1.05,2.888 0.7,0.725 1.65,1.087 2.85,1.087 1.2,0 2.15,-0.362 2.85,-1.088 0.7,-0.725 1.05,-1.687 1.05,-2.887 0,-0.6 -0.092,-1.154 -0.275,-1.662 a 3.746,3.746 0 0 0 -0.775,-1.3 3.57,3.57 0 0 0 -1.225,-0.85 C 62.168,9.053 61.627,8.95 61.027,8.95 Z m 11.694,4.95 c 0,0.517 0.113,0.987 0.338,1.412 0.225,0.426 0.52,0.788 0.887,1.088 0.367,0.3 0.792,0.533 1.275,0.7 0.484,0.167 0.984,0.25 1.5,0.25 0.7,0 1.31,-0.162 1.825,-0.488 a 5.868,5.868 0 0 0 1.425,-1.287 l 1.7,1.3 c -1.25,1.617 -3,2.425 -5.25,2.425 -0.933,0 -1.78,-0.158 -2.537,-0.475 a 5.506,5.506 0 0 1 -1.925,-1.313 5.807,5.807 0 0 1 -1.213,-1.975 6.99,6.99 0 0 1 -0.425,-2.462 c 0,-0.883 0.154,-1.704 0.463,-2.462 a 6.088,6.088 0 0 1 1.275,-1.976 5.808,5.808 0 0 1 1.937,-1.312 6.23,6.23 0 0 1 2.45,-0.475 c 1.05,0 1.938,0.183 2.663,0.55 0.725,0.367 1.32,0.846 1.787,1.438 0.467,0.59 0.804,1.258 1.013,2 0.208,0.74 0.312,1.495 0.312,2.262 v 0.8 z m 7.1,-1.8 A 4.748,4.748 0 0 0 79.584,10.725 3.018,3.018 0 0 0 78.946,9.637 2.936,2.936 0 0 0 77.884,8.912 C 77.459,8.737 76.964,8.65 76.396,8.65 a 3.686,3.686 0 0 0 -3.412,2.237 3.07,3.07 0 0 0 -0.263,1.213 z"
           id="path5" />
        <path
           style="fill:#3bee81"
           inkscape:connector-curvature="0"
           d="m 38.377,51.576 c -1.728,0 -3.318,-0.304 -4.768,-0.912 -1.452,-0.608 -2.695,-1.445 -3.73,-2.512 a 11.59,11.59 0 0 1 -2.43,-3.776 c -0.588,-1.45 -0.88,-3.02 -0.88,-4.704 0,-1.685 0.292,-3.253 0.88,-4.704 0.585,-1.45 1.396,-2.71 2.43,-3.776 1.035,-1.067 2.278,-1.904 3.73,-2.512 1.45,-0.608 3.04,-0.912 4.767,-0.912 1.728,0 3.317,0.304 4.768,0.912 1.45,0.608 2.693,1.445 3.728,2.512 1.034,1.067 1.845,2.325 2.432,3.776 0.586,1.45 0.88,3.02 0.88,4.704 0,1.685 -0.294,3.253 -0.88,4.704 -0.587,1.45 -1.398,2.71 -2.432,3.776 -1.035,1.067 -2.278,1.904 -3.728,2.512 -1.45,0.608 -3.04,0.912 -4.768,0.912 z m 0,-2.88 c 1.3,0 2.474,-0.24 3.52,-0.72 a 8.354,8.354 0 0 0 2.688,-1.936 8.549,8.549 0 0 0 1.728,-2.864 c 0.405,-1.1 0.608,-2.267 0.608,-3.504 0,-1.237 -0.202,-2.405 -0.607,-3.504 a 8.549,8.549 0 0 0 -1.728,-2.864 8.359,8.359 0 0 0 -2.688,-1.936 c -1.046,-0.48 -2.22,-0.72 -3.52,-0.72 -1.302,0 -2.475,0.24 -3.52,0.72 a 8.322,8.322 0 0 0 -2.688,1.936 8.52,8.52 0 0 0 -1.73,2.864 c -0.405,1.1 -0.607,2.267 -0.607,3.504 0,1.237 0.202,2.405 0.608,3.504 a 8.52,8.52 0 0 0 1.73,2.864 8.311,8.311 0 0 0 2.687,1.936 c 1.045,0.48 2.218,0.72 3.52,0.72 z M 1.912,28.344 h 4.032 l 12.48,18.624 h 0.064 V 28.344 H 21.56 V 51 H 17.656 L 5.048,32.376 H 4.984 V 51 H 1.912 M 52.313,28.344 h 3.2 l 4.992,18.112 h 0.064 l 5.343,-18.112 h 3.52 l 5.344,18.112 h 0.064 l 4.993,-18.112 h 3.2 L 76.44,51 H 73.21 L 67.705,32.504 H 67.641 L 62.17,51 h -3.233"
           id="path7" />
      </g>
    </svg>
  </g>
</svg>
