<?xml version="1.0" encoding="UTF-8" standalone="no"?>
<svg
   xmlns:dc="http://purl.org/dc/elements/1.1/"
   xmlns:cc="http://creativecommons.org/ns#"
   xmlns:rdf="http://www.w3.org/1999/02/22-rdf-syntax-ns#"
   xmlns:svg="http://www.w3.org/2000/svg"
   xmlns="http://www.w3.org/2000/svg"
   xmlns:sodipodi="http://sodipodi.sourceforge.net/DTD/sodipodi-0.dtd"
   xmlns:inkscape="http://www.inkscape.org/namespaces/inkscape"
   height="23.001081"
   viewBox="0 0 206 23.001081"
   width="206"
   version="1.1"
   id="svg4"
   sodipodi:docname="coinswitch.svg"
   inkscape:version="0.92.4 (5da689c313, 2019-01-14)">
  <metadata
     id="metadata10">
    <rdf:RDF>
      <cc:Work
         rdf:about="">
        <dc:format>image/svg+xml</dc:format>
        <dc:type
           rdf:resource="http://purl.org/dc/dcmitype/StillImage" />
      </cc:Work>
    </rdf:RDF>
  </metadata>
  <defs
     id="defs8" />
  <sodipodi:namedview
     pagecolor="#ffffff"
     bordercolor="#666666"
     borderopacity="1"
     objecttolerance="10"
     gridtolerance="10"
     guidetolerance="10"
     inkscape:pageopacity="0"
     inkscape:pageshadow="2"
     inkscape:window-width="1150"
     inkscape:window-height="946"
     id="namedview6"
     showgrid="false"
     inkscape:zoom="1.2700462"
     inkscape:cx="145.35455"
     inkscape:cy="1.7264781"
     inkscape:window-x="0"
     inkscape:window-y="0"
     inkscape:window-maximized="0"
     inkscape:current-layer="svg4" />
  <path
     d="m 3e-4,11.84171 v -0.06288 c 0,-6.1365 4.5344,-11.219 10.845,-11.219 3.8899,0 6.2192,1.3944 8.3631,3.4399 l -1.6538,1.7981 c -1.8071,-1.7362 -3.8298,-2.9765 -6.7404,-2.9765 -4.7479,0 -8.301,3.9064 -8.301,8.8959 v 0.06186 c 0,5.022 3.5842,8.9588 8.301,8.9588 2.9417,0 4.8711,-1.147 6.9238,-3.1306 l 1.5926,1.581 c -2.2351,2.2929 -4.6867,3.8121 -8.5766,3.8121 C 4.5658,23.00039 0,18.07269 0,11.84239 Z m 49.202,10.787 v -21.697 h 2.4205 v 21.697 z m 8.6992,-21.697 h 2.2672 l 13.51,17.388 v -17.388 h 2.3594 v 21.697 h -1.9304 l -13.847,-17.792 v 17.792 h -2.3594 v -21.697 z m 42.1,0 h 5.0546 l 4.4422,14.692 4.809,-14.755 h 4.0442 l 4.809,14.755 4.4432,-14.692 h 4.9323 l -7.3227,21.852 h -4.1044 l -4.8411,-14.197 -4.8401,14.197 h -4.1044 l -7.3217,-21.852 z m 36.242,21.697 v -21.697 h 4.7178 v 21.697 z m 15.072,-17.296 h -6.5249 v -4.4013 h 17.769 v 4.4013 h -6.5259 v 17.296 h -4.7178 v -17.296 z m -109.96,6.5096 v -0.06288 c 0,-4.9277 -3.5541,-8.9578 -8.4553,-8.9578 -4.9012,0 -8.3942,3.9683 -8.3942,8.8959 v 0.06186 c 0,4.9297 3.5541,8.9588 8.4553,8.9588 4.9022,0 8.3942,-3.9673 8.3942,-8.8959 z m -19.361,-1.4e-5 v -0.06288 c 0,-5.9813 4.4412,-11.219 10.967,-11.219 6.5259,0 10.906,5.1761 10.906,11.157 v 0.06186 c 0,5.9834 -4.4422,11.221 -10.967,11.221 -6.5249,0 -10.906,-5.1771 -10.906,-11.158 z m 142.31,0 v -0.06288 c 0,-6.1679 4.5955,-11.219 11.182,-11.219 4.0442,0 6.4638,1.363 8.4553,3.3466 l -3.0019,3.5028 c -1.6548,-1.5192 -3.3386,-2.4491 -5.4835,-2.4491 -3.6143,0 -6.2192,3.0383 -6.2192,6.7571 v 0.06186 c 0,3.7198 2.5428,6.82 6.2192,6.82 2.4506,0 3.951,-0.99182 5.6369,-2.5414 l 3.0019,3.0688 c -2.205,2.3862 -4.6556,3.874 -8.7921,3.874 -6.3104,0 -10.998,-4.9277 -10.998,-11.158 z m 23.559,-10.911 h 4.7178 v 8.5856 h 8.6999 v -8.5856 H 206 v 21.697 h -4.7188 v -8.7104 h -8.6999 v 8.7104 h -4.7178 z m -101.53,20.031 c -0.01303,0.0091 -0.02305,0.02028 -0.03508,0.0284 -0.12629,0.09533 -0.2606,0.17646 -0.40192,0.24846 l -0.002,10e-4 c -0.29167,0.14806 -0.6104,0.24035 -0.94917,0.27381 h -0.001 c -0.08519,0.0081 -0.16839,0.02535 -0.25659,0.02535 h -0.05513 c -1.4974,-0.03042 -2.6871,-1.2839 -2.6571,-2.799 0.03007,-1.4969 1.2388,-2.6885 2.7102,-2.6885 h 0.05613 c 1.4433,0.03042 2.5879,1.1967 2.644,2.6357 0.002,0.05578 0.01303,0.1075 0.01203,0.16327 -0.002,0.18153 -0.02506,0.35799 -0.06214,0.52735 -0.01503,0.072 -0.0431,0.13894 -0.06314,0.20891 -0.02907,0.0933 -0.05312,0.18863 -0.09021,0.27686 -0.03909,0.0933 -0.09021,0.1795 -0.13932,0.26672 -0.03107,0.05578 -0.05913,0.1146 -0.09321,0.16835 -0.06816,0.10344 -0.14633,0.19877 -0.22652,0.29207 -0.02506,0.02738 -0.04611,0.0578 -0.07216,0.08417 -0.09722,0.10547 -0.20547,0.19877 -0.31773,0.287 z m 5.1427,-17.226 c -0.02405,-0.14908 -0.03909,-0.3012 -0.03608,-0.45839 0.003,-0.1653 0.02606,-0.32351 0.05713,-0.4807 0.008,-0.042593 0.01804,-0.085187 0.02806,-0.12778 0.03308,-0.13285 0.07417,-0.26266 0.12529,-0.38638 0.02105,-0.052735 0.04711,-0.10141 0.07116,-0.15212 0.0441,-0.089243 0.09221,-0.17747 0.14533,-0.26063 0.04109,-0.065918 0.08419,-0.12778 0.1303,-0.18964 0.03308,-0.043608 0.06916,-0.084173 0.10424,-0.12575 0.11025,-0.12981 0.23053,-0.24846 0.36383,-0.35495 0.01804,-0.015212 0.03508,-0.030424 0.05412,-0.044622 0.08519,-0.064904 0.17239,-0.12575 0.26561,-0.18153 0.40292,-0.23832 0.86598,-0.38435 1.3651,-0.38435 h 0.05613 c 1.4974,0.030424 2.6861,1.2839 2.6561,2.799 -0.02907,1.4958 -1.2368,2.6885 -2.7102,2.6885 H 94.0962 c -1.1997,-0.024339 -2.19,-0.84071 -2.5248,-1.941 -0.04009,-0.13082 -0.07417,-0.26266 -0.09522,-0.39957 z m -0.24967,5.5138 c 4.3259,1.2352 6.7444,2.8659 6.6693,6.6466 l -0.001,0.06186 c -0.05513,2.8102 -1.4804,4.7836 -3.7466,5.7927 l 0.003,0.0041 c -1.735,0.98472 -5.9105,1.1034 -8.0885,1.0953 1.6327,-0.57501 2.8315,-2.1347 2.8676,-3.9683 0.002,-0.08722 -0.005,-0.1724 -0.008,-0.2586 0.86398,-0.07403 1.75,-0.21804 2.642,-0.48475 v -0.003 c 1.0193,-0.28598 1.6177,-0.91474 1.6357,-1.8082 l 0.001,-0.06186 c 0.02405,-1.2088 -0.6996,-1.8427 -4.2638,-2.8456 -4.2958,-1.2038 -7.0591,-2.4694 -6.9739,-6.7763997 l 0.001,-0.061862 c 0.05112,-2.5211 1.3751,-4.4642 3.4689,-5.5148 l -0.003,-0.00608 c 1.5856,-0.96646 4.384,-1.0851 6.0548,-1.0577 -0.93815,0.77277 -1.5505,1.939 -1.5766,3.2432 -0.006,0.32148 0.02506,0.63383 0.0862,0.93604 -0.6976,0.064904 -1.3751,0.2079 -2.199,0.51416 -0.73067,0.32249 -1.1236,0.88533 -1.1366,1.5465 l -0.001,0.061862 c -0.02806,1.4249 0.88101,1.9086 4.5684,2.945 z"
     id="path2"
     inkscape:connector-curvature="0" />
</svg>
