<?xml version="1.0" encoding="UTF-8" standalone="no"?>
<svg
   data-v-c66355d2=""
   width="264.20944"
   height="61.738567"
   viewBox="0 2 264.20944 61.738568"
   fill="none"
   class="ds-logo"
   version="1.1"
   id="svg12"
   sodipodi:docname="dextrade.svg"
   inkscape:version="1.2 (dc2aedaf03, 2022-05-15)"
   inkscape:export-filename="dextrade.png"
   inkscape:export-xdpi="96"
   inkscape:export-ydpi="96"
   xmlns:inkscape="http://www.inkscape.org/namespaces/inkscape"
   xmlns:sodipodi="http://sodipodi.sourceforge.net/DTD/sodipodi-0.dtd"
   xmlns="http://www.w3.org/2000/svg"
   xmlns:svg="http://www.w3.org/2000/svg">
  <defs
     id="defs16" />
  <sodipodi:namedview
     id="namedview14"
     pagecolor="#ffffff"
     bordercolor="#000000"
     borderopacity="0.25"
     inkscape:showpageshadow="2"
     inkscape:pageopacity="0.0"
     inkscape:pagecheckerboard="0"
     inkscape:deskcolor="#d1d1d1"
     showgrid="false"
     inkscape:zoom="4.2142857"
     inkscape:cx="102.74576"
     inkscape:cy="-6.8813559"
     inkscape:window-width="2663"
     inkscape:window-height="1759"
     inkscape:window-x="4035"
     inkscape:window-y="276"
     inkscape:window-maximized="0"
     inkscape:current-layer="svg12" />
  <path
     data-v-c66355d2=""
     fill-rule="evenodd"
     clip-rule="evenodd"
     d="M 62.954829,53.560346 55.387577,39.023787 46.185221,30.725843 48.131956,48.190334 21.368172,56.580218 Z M 50.298383,63.738569 48.990399,56.232777 12.298729,59.165539 Z"
     fill="var(--bi-color-title)"
     id="path4"
     style="fill:#a60000;stroke-width:1.66558;fill-opacity:1" />
  <g
     id="g975"
     style="fill:#000000;fill-opacity:1">
    <path
       data-v-c66355d2=""
       fill-rule="evenodd"
       clip-rule="evenodd"
       d="M 30.99442,2 22.221451,15.846873 19.65645,27.992285 33.763955,17.563725 54.391058,36.61202 Z M 61.166324,43.208569 46.108604,7.906647 40.28372,12.796471 Z"
       fill="var(--bi-color-title)"
       id="path2"
       style="fill:#000000;stroke-width:1.66558;fill-opacity:1" />
    <path
       data-v-c66355d2=""
       fill-rule="evenodd"
       clip-rule="evenodd"
       d="M 30.560202,52.395436 14.506012,45.354509 20.642643,17.911166 2.4576871,55.542892 18.792845,56.237774 Z M 22.94698,8.734359 0,39.463169 7.1380307,42.079303 Z"
       fill="var(--bi-color-title)"
       id="path6"
       style="fill:#000000;stroke-width:1.66558;fill-opacity:1"
       sodipodi:nodetypes="cccccccccc" />
  </g>
  <path
     data-v-c66355d2=""
     d="M 95.730542,46.21445 H 86.969566 V 23.995548 h 8.760976 c 3.486569,0 6.318068,1.021503 8.494488,3.064676 2.19857,2.043173 3.29785,4.730261 3.29785,8.061431 0,3.33117 -1.08812,6.018258 -3.26454,8.061431 -2.17642,2.020854 -5.01891,3.031364 -8.527798,3.031364 z m 0,-4.163962 c 2.131949,0 3.819686,-0.666234 5.063378,-1.998702 1.26584,-1.332468 1.89877,-2.9759 1.89877,-4.930131 0,-2.043173 -0.61077,-3.708758 -1.83215,-4.996755 -1.22137,-1.310316 -2.931426,-1.96539 -5.129998,-1.96539 H 91.699827 V 42.050488 Z M 126.60299,46.21445 H 110.87987 V 23.995548 h 15.72312 v 4.163962 h -10.99286 v 4.696949 h 10.75968 v 4.163963 h -10.75968 v 5.030066 h 10.99286 z m 23.85134,0 h -5.66298 l -5.56306,-8.128054 -5.59636,8.128054 h -5.62968 l 8.06143,-11.3926 -7.56176,-10.826302 h 5.62968 l 5.09669,7.595067 5.03007,-7.595067 h 5.6963 l -7.56176,10.79299 z m 7.36422,-6.262599 h -7.99481 v -3.597663 h 7.99481 z m 13.08484,6.262599 h -4.76358 V 28.15951 h -6.49561 v -4.163962 h 17.72166 v 4.163962 h -6.46247 z m 27.48381,0 h -5.4298 l -4.36384,-7.894872 h -3.46441 v 7.894872 h -4.73026 V 23.995548 h 10.39325 c 2.28684,0 4.09733,0.666234 5.4298,1.998702 1.35412,1.332467 2.03202,3.053516 2.03202,5.163313 0,1.820984 -0.47803,3.297858 -1.43241,4.430456 -0.93272,1.132597 -2.07698,1.854295 -3.4311,2.16526 z m -8.29461,-12.058834 c 0.97603,0 1.77551,-0.266494 2.39844,-0.799481 0.62127,-0.55514 0.93273,-1.287997 0.93273,-2.198572 0,-0.910575 -0.31146,-1.632273 -0.93273,-2.165261 -0.62293,-0.555139 -1.42241,-0.832792 -2.39844,-0.832792 h -4.96344 v 5.996106 z m 32.4306,12.058834 h -5.39649 l -1.36578,-3.764221 h -9.52715 l -1.39909,3.764221 h -5.39649 l 8.59441,-22.218902 h 5.92949 z m -8.06143,-7.928184 -3.46441,-9.560457 -3.46442,9.560457 z m 18.87441,7.928184 h -8.76098 V 23.995548 h 8.76098 c 3.48774,0 6.31923,1.021503 8.49448,3.064676 2.19858,2.043173 3.29786,4.730261 3.29786,8.061431 0,3.33117 -1.08762,6.018258 -3.26454,8.061431 -2.17526,2.020854 -5.01841,3.031364 -8.5278,3.031364 z m 0,-4.163962 c 2.13195,0 3.82085,-0.666234 5.06338,-1.998702 1.26584,-1.332468 1.89877,-2.9759 1.89877,-4.930131 0,-2.043173 -0.60961,-3.708758 -1.83215,-4.996755 -1.22087,-1.310315 -2.93143,-1.96539 -5.13,-1.96539 h -4.03071 v 13.890978 z m 30.87328,4.163962 H 248.48633 V 23.995548 h 15.72312 v 4.163962 h -10.99286 v 4.696949 h 10.75968 v 4.163963 h -10.75968 v 5.030066 h 10.99286 z"
     fill="var(--bi-color-text)"
     id="path10"
     style="fill:#000000;stroke-width:1.66558;fill-opacity:1" />
</svg>
