<svg clip-rule="evenodd" fill-rule="evenodd" stroke-linejoin="round" stroke-miterlimit="2" viewBox="0 0 560 400" xmlns="http://www.w3.org/2000/svg"><g transform="matrix(1.87273 0 0 1.875 74 155)"><g fill="#212631"><path d="m4.599 47.521c-1.61 0-2.415 0-3.03-.313-.54-.277-.98-.717-1.256-1.259-.313-.616-.313-1.423-.313-3.036v-42.433h7.375c1.61 0 2.415 0 3.03.314.54.276.98.717 1.256 1.259.313.616.313 1.422.313 3.035v29.089c0 .807 0 1.21.157 1.518.137.271.357.491.628.629.307.157.71.157 1.514.157h17.183c1.61 0 2.415 0 3.03.314.54.276.98.717 1.256 1.259.313.616.313 1.422.313 3.035v6.432z"/><path d="m131.257 5.088c0-1.613 0-2.419.313-3.035.275-.542.715-.983 1.256-1.259.615-.314 1.42-.314 3.029-.314h4.233c.971 0 1.456 0 1.891.142.384.125.737.331 1.037.603.339.307.58.729 1.063 1.573l14.723 25.763v-23.473c0-1.613 0-2.419.313-3.035.276-.542.715-.983 1.256-1.259.615-.314 1.42-.314 3.03-.314h6.898v42.426c0 1.612 0 2.417-.313 3.033-.275.542-.714.982-1.255 1.259-.614.314-1.418.315-3.026.316l-4.234.005c-.972.001-1.458.001-1.893-.141-.385-.125-.739-.33-1.039-.602-.339-.308-.581-.73-1.064-1.575l-14.721-25.76v23.472c0 1.613 0 2.42-.314 3.036-.275.542-.715.982-1.256 1.259-.615.313-1.419.313-3.029.313h-6.898z"/><path d="m182.706.48h-6.898v42.421c0 1.613 0 2.42.313 3.036.276.542.716.982 1.256 1.259.615.313 1.42.313 3.03.313h6.898v-19.188h1.882c.804 0 1.207 0 1.579.102.329.09.64.238.917.438.314.225.567.538 1.074 1.164l12.794 15.793c.507.625.761.938 1.074 1.164.277.199.588.347.918.438.372.101.774.101 1.579.101h10.878l-16.921-20.851c-.841-1.037-1.262-1.556-1.423-2.132-.142-.508-.142-1.046 0-1.554.162-.576.583-1.094 1.424-2.13l.001-.001 16.552-20.373h-10.761c-.801 0-1.201 0-1.572.101-.328.09-.638.237-.915.435-.313.223-.566.534-1.073 1.156l-12.511 15.337c-.507.622-.761.932-1.073 1.156-.277.198-.587.345-.915.435-.371.101-.772.101-1.573.101h-1.935v-14.113c0-1.613 0-2.419-.313-3.035-.276-.542-.715-.983-1.256-1.259-.615-.314-1.42-.314-3.03-.314z"/></g><path d="m41.509 46.428c-.313-.616-.313-1.423-.313-3.036v-38.784c0-1.613 0-2.419.313-3.035.276-.542.715-.983 1.256-1.259.615-.314 1.42-.314 3.03-.314h15.042c4.009 0 6.014 0 7.659.442 4.463 1.198 7.95 4.691 9.146 9.164.44 1.648.44 3.657.44 7.674v.001c0 2.615-1.182 3.573-2.19 4.389-.749.607-1.402 1.136-1.402 2.211 0 1.059.761 1.588 1.643 2.202 1.218.847 2.668 1.855 2.668 4.638 0 4.01 0 6.016-.439 7.661-1.195 4.476-4.683 7.972-9.149 9.17-1.642.441-3.643.442-7.646.443l-15.771.005c-1.61.001-2.415.001-3.03-.313-.541-.276-.981-.717-1.257-1.259zm21.127-30.688c.902-1.42 1.684-2.649 1.684-4.22 0-3.181-2.579-5.76-5.76-5.76-3.182 0-5.761 2.7-5.761 5.76 0 1.571.803 2.8 1.73 4.22 1.269 1.941 2.77 4.24 2.77 8.261 0 4.02-1.501 6.319-2.77 8.261-.927 1.419-1.73 2.648-1.73 4.219 0 3.181 2.579 5.76 5.761 5.76 3.181 0 5.76-2.579 5.76-5.76 0-1.571-.782-2.8-1.684-4.219-1.235-1.942-2.696-4.241-2.696-8.261 0-4.021 1.461-6.32 2.696-8.261z" fill="#ffd634"/><path d="m96.364 38.161-1.961 6.154c-.367 1.152-.55 1.728-.9 2.154-.308.377-.707.669-1.159.849-.511.203-1.115.203-2.322.203h-8.672l13.92-44.063c.365-1.156.547-1.734.897-2.162.308-.378.708-.671 1.16-.851.513-.205 1.117-.205 2.327-.205h9.552c1.21 0 1.815 0 2.327.205.453.18.852.473 1.16.851.35.428.532 1.005.897 2.161l13.928 44.064h-8.677c-1.207 0-1.81 0-2.322-.203-.451-.18-.85-.472-1.159-.849-.349-.426-.533-1.002-.9-2.154l-1.961-6.154zm2.446-7.68h11.242l-5.622-17.641z" fill="#212631"/></g></svg>