<?xml version="1.0" encoding="UTF-8" standalone="no"?>
<svg
   clip-rule="evenodd"
   fill-rule="evenodd"
   stroke-linejoin="round"
   stroke-miterlimit="2"
   viewBox="0 0 412.00061 90.000198"
   version="1.1"
   id="svg5"
   sodipodi:docname="lbank.svg"
   width="412.00061"
   height="90.000198"
   inkscape:version="1.4 (e7c3feb100, 2024-10-09)"
   xmlns:inkscape="http://www.inkscape.org/namespaces/inkscape"
   xmlns:sodipodi="http://sodipodi.sourceforge.net/DTD/sodipodi-0.dtd"
   xmlns="http://www.w3.org/2000/svg"
   xmlns:svg="http://www.w3.org/2000/svg">
  <defs
     id="defs5" />
  <sodipodi:namedview
     id="namedview5"
     pagecolor="#ffffff"
     bordercolor="#000000"
     borderopacity="0.25"
     inkscape:showpageshadow="2"
     inkscape:pageopacity="0.0"
     inkscape:pagecheckerboard="0"
     inkscape:deskcolor="#d1d1d1"
     inkscape:zoom="1.6033646"
     inkscape:cx="206.12903"
     inkscape:cy="11.850081"
     inkscape:window-width="3840"
     inkscape:window-height="2025"
     inkscape:window-x="0"
     inkscape:window-y="0"
     inkscape:window-maximized="1"
     inkscape:current-layer="svg5" />
  <g
     transform="scale(1.87273,1.875)"
     id="g5">
    <g
       fill="#212631"
       id="g3">
      <path
         d="m 4.599,47.521 c -1.61,0 -2.415,0 -3.03,-0.313 C 1.029,46.931 0.589,46.491 0.313,45.949 0,45.333 0,44.526 0,42.913 V 0.48 h 7.375 c 1.61,0 2.415,0 3.03,0.314 0.54,0.276 0.98,0.717 1.256,1.259 0.313,0.616 0.313,1.422 0.313,3.035 v 29.089 c 0,0.807 0,1.21 0.157,1.518 0.137,0.271 0.357,0.491 0.628,0.629 0.307,0.157 0.71,0.157 1.514,0.157 h 17.183 c 1.61,0 2.415,0 3.03,0.314 0.54,0.276 0.98,0.717 1.256,1.259 0.313,0.616 0.313,1.422 0.313,3.035 v 6.432 z"
         id="path1" />
      <path
         d="m 131.257,5.088 c 0,-1.613 0,-2.419 0.313,-3.035 0.275,-0.542 0.715,-0.983 1.256,-1.259 0.615,-0.314 1.42,-0.314 3.029,-0.314 h 4.233 c 0.971,0 1.456,0 1.891,0.142 0.384,0.125 0.737,0.331 1.037,0.603 0.339,0.307 0.58,0.729 1.063,1.573 l 14.723,25.763 V 5.088 c 0,-1.613 0,-2.419 0.313,-3.035 0.276,-0.542 0.715,-0.983 1.256,-1.259 0.615,-0.314 1.42,-0.314 3.03,-0.314 h 6.898 v 42.426 c 0,1.612 0,2.417 -0.313,3.033 -0.275,0.542 -0.714,0.982 -1.255,1.259 -0.614,0.314 -1.418,0.315 -3.026,0.316 l -4.234,0.005 c -0.972,0.001 -1.458,0.001 -1.893,-0.141 -0.385,-0.125 -0.739,-0.33 -1.039,-0.602 -0.339,-0.308 -0.581,-0.73 -1.064,-1.575 l -14.721,-25.76 v 23.472 c 0,1.613 0,2.42 -0.314,3.036 -0.275,0.542 -0.715,0.982 -1.256,1.259 -0.615,0.313 -1.419,0.313 -3.029,0.313 h -6.898 z"
         id="path2" />
      <path
         d="m 182.706,0.48 h -6.898 v 42.421 c 0,1.613 0,2.42 0.313,3.036 0.276,0.542 0.716,0.982 1.256,1.259 0.615,0.313 1.42,0.313 3.03,0.313 h 6.898 V 28.321 h 1.882 c 0.804,0 1.207,0 1.579,0.102 0.329,0.09 0.64,0.238 0.917,0.438 0.314,0.225 0.567,0.538 1.074,1.164 l 12.794,15.793 c 0.507,0.625 0.761,0.938 1.074,1.164 0.277,0.199 0.588,0.347 0.918,0.438 0.372,0.101 0.774,0.101 1.579,0.101 H 220 L 203.079,26.67 c -0.841,-1.037 -1.262,-1.556 -1.423,-2.132 -0.142,-0.508 -0.142,-1.046 0,-1.554 0.162,-0.576 0.583,-1.094 1.424,-2.13 l 10e-4,-10e-4 16.552,-20.373 h -10.761 c -0.801,0 -1.201,0 -1.572,0.101 -0.328,0.09 -0.638,0.237 -0.915,0.435 -0.313,0.223 -0.566,0.534 -1.073,1.156 l -12.511,15.337 c -0.507,0.622 -0.761,0.932 -1.073,1.156 -0.277,0.198 -0.587,0.345 -0.915,0.435 -0.371,0.101 -0.772,0.101 -1.573,0.101 h -1.935 V 5.088 c 0,-1.613 0,-2.419 -0.313,-3.035 -0.276,-0.542 -0.715,-0.983 -1.256,-1.259 -0.615,-0.314 -1.42,-0.314 -3.03,-0.314 z"
         id="path3" />
    </g>
    <path
       d="M 41.509,46.428 C 41.196,45.812 41.196,45.005 41.196,43.392 V 4.608 c 0,-1.613 0,-2.419 0.313,-3.035 C 41.785,1.031 42.224,0.59 42.765,0.314 43.38,0 44.185,0 45.795,0 h 15.042 c 4.009,0 6.014,0 7.659,0.442 4.463,1.198 7.95,4.691 9.146,9.164 0.44,1.648 0.44,3.657 0.44,7.674 v 10e-4 c 0,2.615 -1.182,3.573 -2.19,4.389 -0.749,0.607 -1.402,1.136 -1.402,2.211 0,1.059 0.761,1.588 1.643,2.202 1.218,0.847 2.668,1.855 2.668,4.638 0,4.01 0,6.016 -0.439,7.661 -1.195,4.476 -4.683,7.972 -9.149,9.17 -1.642,0.441 -3.643,0.442 -7.646,0.443 L 45.796,48 c -1.61,10e-4 -2.415,10e-4 -3.03,-0.313 -0.541,-0.276 -0.981,-0.717 -1.257,-1.259 z M 62.636,15.74 c 0.902,-1.42 1.684,-2.649 1.684,-4.22 0,-3.181 -2.579,-5.76 -5.76,-5.76 -3.182,0 -5.761,2.7 -5.761,5.76 0,1.571 0.803,2.8 1.73,4.22 1.269,1.941 2.77,4.24 2.77,8.261 0,4.02 -1.501,6.319 -2.77,8.261 -0.927,1.419 -1.73,2.648 -1.73,4.219 0,3.181 2.579,5.76 5.761,5.76 3.181,0 5.76,-2.579 5.76,-5.76 0,-1.571 -0.782,-2.8 -1.684,-4.219 -1.235,-1.942 -2.696,-4.241 -2.696,-8.261 0,-4.021 1.461,-6.32 2.696,-8.261 z"
       fill="#ffd634"
       id="path4" />
    <path
       d="m 96.364,38.161 -1.961,6.154 c -0.367,1.152 -0.55,1.728 -0.9,2.154 -0.308,0.377 -0.707,0.669 -1.159,0.849 -0.511,0.203 -1.115,0.203 -2.322,0.203 H 81.35 L 95.27,3.458 C 95.635,2.302 95.817,1.724 96.167,1.296 96.475,0.918 96.875,0.625 97.327,0.445 97.84,0.24 98.444,0.24 99.654,0.24 h 9.552 c 1.21,0 1.815,0 2.327,0.205 0.453,0.18 0.852,0.473 1.16,0.851 0.35,0.428 0.532,1.005 0.897,2.161 l 13.928,44.064 h -8.677 c -1.207,0 -1.81,0 -2.322,-0.203 -0.451,-0.18 -0.85,-0.472 -1.159,-0.849 -0.349,-0.426 -0.533,-1.002 -0.9,-2.154 l -1.961,-6.154 z m 2.446,-7.68 h 11.242 L 104.43,12.84 Z"
       fill="#212631"
       id="path5" />
  </g>
</svg>
