<svg xmlns="http://www.w3.org/2000/svg" width="161" height="28" fill="none">
  <path d="M12.305 16.538c0-.802-.284-1.416-.85-1.84-.566-.435-1.586-.888-3.059-1.36-1.472-.481-2.638-.953-3.497-1.416-2.341-1.265-3.512-2.969-3.512-5.112 0-1.114.312-2.105.935-2.973.632-.878 1.534-1.563 2.704-2.054 1.18-.49 2.502-.736 3.965-.736 1.473 0 2.785.27 3.937.807 1.151.529 2.043 1.28 2.676 2.252.642.972.963 2.077.963 3.313h-4.248c0-.944-.298-1.675-.892-2.195-.595-.528-1.43-.793-2.507-.793-1.038 0-1.845.222-2.421.666-.576.434-.864 1.01-.864 1.727 0 .67.335 1.232 1.006 1.686.68.453 1.675.877 2.987 1.274 2.417.727 4.178 1.628 5.282 2.704 1.105 1.077 1.657 2.417 1.657 4.022 0 1.784-.675 3.186-2.025 4.206-1.35 1.01-3.167 1.515-5.452 1.515-1.586 0-3.03-.288-4.333-.864-1.302-.585-2.298-1.383-2.987-2.393-.68-1.01-1.02-2.18-1.02-3.512h4.262c0 2.275 1.36 3.413 4.078 3.413 1.01 0 1.799-.203 2.365-.61.566-.415.85-.99.85-1.727zm18.422-9.912l.128 1.714c1.085-1.331 2.553-1.997 4.403-1.997 1.973 0 3.328.779 4.064 2.336 1.076-1.557 2.61-2.336 4.602-2.336 1.662 0 2.898.486 3.71 1.459.812.962 1.218 2.416 1.218 4.36v9.786h-4.106v-9.771c0-.868-.17-1.501-.51-1.897-.34-.406-.94-.61-1.798-.61-1.228 0-2.077.586-2.55 1.757l.015 10.52H35.81v-9.756c0-.887-.174-1.53-.523-1.926-.35-.396-.944-.594-1.785-.594-1.16 0-2 .481-2.52 1.444v10.833H26.89V6.626h3.837zm35.075 7.802c0 2.36-.538 4.253-1.615 5.679-1.066 1.416-2.51 2.124-4.332 2.124-1.549 0-2.8-.538-3.753-1.615v7.222H52.01V6.626h3.795l.141 1.501c.992-1.19 2.285-1.784 3.88-1.784 1.888 0 3.356.699 4.404 2.096 1.048 1.397 1.572 3.323 1.572 5.777v.213zm-4.093-.297c0-1.425-.254-2.525-.764-3.3-.5-.773-1.232-1.16-2.195-1.16-1.284 0-2.166.49-2.648 1.472v6.273c.5 1.01 1.393 1.515 2.676 1.515 1.954 0 2.931-1.6 2.931-4.8zm10.96 7.817h-4.106V.198h4.106v21.75zm10.437.283c-2.247 0-4.079-.69-5.495-2.068-1.406-1.378-2.11-3.214-2.11-5.508v-.396c0-1.54.298-2.913.893-4.121.594-1.218 1.434-2.152 2.52-2.804 1.095-.66 2.341-.991 3.738-.991 2.096 0 3.743.66 4.942 1.982 1.209 1.322 1.813 3.196 1.813 5.622v1.67H79.65c.133 1.002.529 1.804 1.19 2.408.67.604 1.515.906 2.534.906 1.577 0 2.809-.57 3.696-1.713l2.011 2.252c-.614.868-1.444 1.548-2.492 2.039-1.048.481-2.21.722-3.483.722zm-.468-12.575c-.812 0-1.473.274-1.982.822-.5.547-.822 1.33-.963 2.35h5.692v-.325c-.019-.907-.264-1.605-.736-2.096-.472-.5-1.142-.75-2.01-.75z" fill="#1a1a1a"/>
  <path d="M23.505 21.948H19.4V6.626h4.106v15.322zM19.158 2.66c0-.613.203-1.118.61-1.515.415-.396.976-.594 1.684-.594.699 0 1.256.198 1.671.594.415.397.623.902.623 1.515 0 .623-.212 1.133-.637 1.53-.416.396-.968.594-1.657.594-.689 0-1.246-.198-1.67-.594-.416-.397-.624-.907-.624-1.53zm83.545 13.877c0-.802-.283-1.416-.849-1.84-.567-.435-1.586-.888-3.06-1.36-1.472-.481-2.638-.953-3.497-1.416-2.34-1.265-3.511-2.969-3.511-5.112 0-1.114.311-2.105.934-2.973.633-.878 1.534-1.563 2.705-2.054 1.18-.49 2.501-.736 3.965-.736 1.472 0 2.784.27 3.936.807 1.152.529 2.044 1.28 2.676 2.252.642.972.963 2.077.963 3.313h-4.248c0-.944-.297-1.675-.892-2.195-.595-.528-1.43-.793-2.506-.793-1.039 0-1.846.222-2.422.666-.575.434-.863 1.01-.863 1.727 0 .67.335 1.232 1.005 1.686.68.453 1.676.877 2.988 1.274 2.417.727 4.177 1.628 5.282 2.704 1.104 1.077 1.656 2.417 1.656 4.022 0 1.784-.675 3.186-2.025 4.206-1.35 1.01-3.167 1.515-5.451 1.515-1.586 0-3.03-.288-4.333-.864-1.303-.585-2.299-1.383-2.988-2.393-.68-1.01-1.02-2.18-1.02-3.512h4.263c0 2.275 1.359 3.413 4.078 3.413 1.01 0 1.798-.203 2.365-.61.566-.415.849-.99.849-1.727zm20.207-.155l2.01-9.757h3.951l-3.908 15.322h-3.427l-2.903-9.644-2.903 9.644h-3.412L108.41 6.626h3.95l1.997 9.742 2.804-9.742h2.959l2.79 9.757zm16.879 5.565c-.189-.369-.326-.826-.411-1.374-.991 1.104-2.28 1.657-3.866 1.657-1.501 0-2.747-.434-3.738-1.303-.982-.869-1.473-1.964-1.473-3.285 0-1.624.6-2.87 1.799-3.739 1.208-.868 2.95-1.307 5.225-1.316h1.883v-.878c0-.708-.184-1.275-.552-1.7-.359-.424-.93-.637-1.714-.637-.689 0-1.232.165-1.628.496-.387.33-.581.783-.581 1.36h-4.092c0-.888.274-1.71.821-2.465.548-.755 1.322-1.345 2.323-1.77 1-.434 2.124-.651 3.37-.651 1.888 0 3.384.477 4.489 1.43 1.113.944 1.67 2.275 1.67 3.993v6.641c.01 1.454.213 2.554.609 3.3v.24h-4.134zm-3.385-2.847a3.58 3.58 0 001.671-.396c.51-.274.888-.637 1.133-1.09V14.98h-1.529c-2.049 0-3.139.708-3.271 2.124l-.014.24c0 .51.179.93.538 1.26.358.331.849.496 1.472.496zm23.846-4.672c0 2.36-.538 4.252-1.614 5.678-1.067 1.416-2.511 2.124-4.333 2.124-1.548 0-2.799-.538-3.753-1.615v7.222h-4.092V6.626h3.795l.142 1.501c.991-1.19 2.284-1.784 3.879-1.784 1.888 0 3.356.699 4.404 2.096 1.048 1.397 1.572 3.323 1.572 5.777v.213zm-4.092-.298c0-1.425-.255-2.525-.765-3.3-.5-.773-1.232-1.16-2.195-1.16-1.284 0-2.166.49-2.648 1.472v6.273c.501 1.01 1.393 1.515 2.677 1.515 1.954 0 2.931-1.6 2.931-4.8z" fill="#0087D7"/>
</svg>
