<?xml version="1.0" encoding="UTF-8"?>
<svg xmlns:xodm="http://www.corel.com/coreldraw/odm/2003" xmlns="http://www.w3.org/2000/svg" xmlns:xlink="http://www.w3.org/1999/xlink" version="1.1" id="Layer_1" x="0px" y="0px" viewBox="0 0 2500 917" style="enable-background:new 0 0 2500 917;" xml:space="preserve">
<style type="text/css">
	.st0{fill-rule:evenodd;clip-rule:evenodd;fill:#3576EE;}
</style>
<g id="Layer_x0020_1">
	<g id="_2090576359200">
		<g>
			<path class="st0" d="M55.4,0h298.1c30.2,0,55.1,24.8,55.1,55.1v300.3c0,30.2-24.8,55.1-55.1,55.1H55.4     c-30.2,0-55.1-24.8-55.1-55.1V55.1C0.3,24.8,25.2,0,55.4,0z"></path>
			<path class="st0" d="M425.9,407.2h193.3c19.4,0,35.6,16.2,35.6,35.6v194.4c0,19.4-16.2,35.6-35.6,35.6H425.9     c-22.7,0-38.9-1.1-38.9,34.6v178.2c0,18.4-15.1,32.4-32.4,32.4H177.5c-18.4,0-32.4-15.1-32.4-32.4V707.5     c0-18.4,15.1-32.4,32.4-32.4h177.1c28.1,0,35.6-9.7,35.6-37.8V442.8C390.2,423.4,406.4,407.2,425.9,407.2z"></path>
		</g>
		<path d="M1021,603.8V335.9h-95v-54h256v54h-95v267.9h-64.8H1021z M1481.1,603.8h-70.2l-28.1-73.4h-129.6l-27,73.4h-69.1    l125.3-322.9h69.1L1481.1,603.8z M1361.2,476.3l-45.4-119.9l-43.2,119.9H1361.2z M1515.7,603.8V280.8h104.8    c40,0,64.8,1.1,77.8,4.3c18.4,5.4,33.5,15.1,46.4,31.3c13,16.2,18.4,36.7,18.4,62.6c0,19.4-3.2,36.7-10.8,49.7    c-7.6,14-16.2,23.8-27,31.3c-10.8,7.6-22.7,13-33.5,15.1c-15.1,3.2-37.8,4.3-67,4.3h-42.1v122.1h-64.8L1515.7,603.8z     M1580.5,335.9v91.8h35.6c25.9,0,43.2-2.2,50.8-5.4c8.6-3.2,15.1-8.6,20.5-16.2c5.4-7.6,7.6-15.1,7.6-24.8    c0-11.9-3.2-21.6-10.8-29.2c-6.5-7.6-15.1-13-25.9-14c-7.6-1.1-23.8-2.2-46.4-2.2H1580.5z M1816,281.9h128.5    c25.9,0,44.3,1.1,57.2,3.2c13,2.2,23.8,6.5,33.5,13c9.7,6.5,18.4,16.2,24.8,27c6.5,10.8,9.7,23.8,9.7,37.8    c0,15.1-4.3,29.2-11.9,41c-8.6,13-19.4,21.6-33.5,28.1c19.4,5.4,34.6,15.1,45.4,29.2c10.8,14,16.2,30.2,16.2,48.6    c0,15.1-3.2,29.2-9.7,43.2c-6.5,14-16.2,24.8-28.1,33.5c-11.9,8.6-25.9,13-43.2,15.1c-10.8,1.1-36.7,2.2-78.8,2.2H1816V280.8    V281.9z M1880.8,335.9v74.5h43.2c24.8,0,41,0,47.5-1.1c10.8-1.1,19.4-5.4,25.9-11.9s9.7-15.1,9.7-24.8s-3.2-18.4-8.6-23.8    c-5.4-6.5-14-9.7-24.8-10.8c-6.5-1.1-24.8-1.1-55.1-1.1h-37.8V335.9z M1880.8,463.4v86.4h60.5c23.8,0,38.9-1.1,44.3-2.2    c9.7-2.2,17.3-6.5,23.8-13c6.5-6.5,8.6-16.2,8.6-27c0-9.7-2.2-18.4-7.6-24.8c-4.3-6.5-11.9-11.9-20.5-15.1    c-8.6-3.2-28.1-4.3-58.3-4.3h-52.9H1880.8z M2138.9,604.9V281.9h65.9v322.9H2138.9z M2338.7,604.9V337h-95v-54h256v54h-95v267.9    h-64.8H2338.7z"></path>
	</g>
</g>
</svg>
