<svg id="Layer_1" data-name="Layer 1" xmlns="http://www.w3.org/2000/svg" xmlns:xlink="http://www.w3.org/1999/xlink" viewBox="0 0 218.58 123.23"><defs><style>.cls-1{fill:#fff}.cls-2{fill:#011c1e}</style><linearGradient id="linear-gradient" x1="82.56" y1="42.2" x2="215.03" y2="42.2" gradientUnits="userSpaceOnUse"><stop offset="0" stop-color="#0098bd"/><stop offset="1" stop-color="#2b67ad"/></linearGradient><linearGradient id="linear-gradient-2" x1="-8.37" y1="40.26" x2="62.55" y2="40.26" xlink:href="#linear-gradient"/></defs><path class="cls-1" d="M114.88 84.39z"/><path class="cls-2" d="M6.57 110.58h1.66L12 120.72l4-10.14h1.55l-4.85 12.33h-1.41zM34.52 113.12a3.52 3.52 0 0 0-1.37-1.12 4.09 4.09 0 0 0-1.71-.38 4.23 4.23 0 0 0-1.89.42 4.72 4.72 0 0 0-1.49 1.12 5.11 5.11 0 0 0-1 1.64 5.56 5.56 0 0 0-.35 2 5.74 5.74 0 0 0 .35 2 5.07 5.07 0 0 0 1 1.62 4.59 4.59 0 0 0 1.48 1.09 4.5 4.5 0 0 0 5.46-1.37l1.1.93a5.16 5.16 0 0 1-2 1.64 6.64 6.64 0 0 1-2.66.52 6.24 6.24 0 0 1-2.48-.49 6.1 6.1 0 0 1-2-1.35 6.36 6.36 0 0 1-1.33-2 6.82 6.82 0 0 1-.47-2.59 6.92 6.92 0 0 1 .46-2.55 6.06 6.06 0 0 1 3.28-3.43 6.18 6.18 0 0 1 2.53-.51 6.38 6.38 0 0 1 2.41.46 4.47 4.47 0 0 1 1.95 1.48zM53.76 113.12a3.52 3.52 0 0 0-1.37-1.12 4.09 4.09 0 0 0-1.71-.38 4.23 4.23 0 0 0-1.89.42 4.61 4.61 0 0 0-1.49 1.12 5.11 5.11 0 0 0-1 1.64 5.56 5.56 0 0 0-.35 2 5.74 5.74 0 0 0 .35 2 5.07 5.07 0 0 0 1 1.62 4.48 4.48 0 0 0 1.48 1.09 4.76 4.76 0 0 0 3.93 0 4.49 4.49 0 0 0 1.55-1.28l1.1.93a5.16 5.16 0 0 1-2 1.64 6.64 6.64 0 0 1-2.66.52 6.2 6.2 0 0 1-2.48-.49 6.1 6.1 0 0 1-2-1.35 6.2 6.2 0 0 1-1.33-2 6.82 6.82 0 0 1-.48-2.59 6.92 6.92 0 0 1 .47-2.55 6 6 0 0 1 3.28-3.43 6.18 6.18 0 0 1 2.53-.51 6.41 6.41 0 0 1 2.41.46 4.38 4.38 0 0 1 1.9 1.34zM76.17 110.58h7.76v1.36h-6.29v3.86h5.87v1.36h-5.87v4.4h6.6v1.35h-8.07zM96.39 116.41l-4.15-5.83h1.88l3.33 4.82 3.29-4.82h1.83l-4.14 5.83 4.54 6.5H101l-3.66-5.47-3.68 5.47h-1.77zM120.07 113.12a3.48 3.48 0 0 0-1.38-1.12 4 4 0 0 0-1.7-.38 4.23 4.23 0 0 0-1.89.42 4.61 4.61 0 0 0-1.49 1.12 5.11 5.11 0 0 0-1 1.64 5.56 5.56 0 0 0-.35 2 5.74 5.74 0 0 0 .35 2 4.89 4.89 0 0 0 1 1.62 4.48 4.48 0 0 0 1.48 1.09 4.76 4.76 0 0 0 3.93 0 4.49 4.49 0 0 0 1.55-1.28l1.1.93a5.12 5.12 0 0 1-2 1.64 6.59 6.59 0 0 1-2.65.52 6.2 6.2 0 0 1-2.48-.49 6 6 0 0 1-2-1.35 6.2 6.2 0 0 1-1.33-2 6.82 6.82 0 0 1-.48-2.59 7.13 7.13 0 0 1 .46-2.55 6.44 6.44 0 0 1 1.3-2.06 6.23 6.23 0 0 1 4.52-1.88 6.41 6.41 0 0 1 2.41.46 4.38 4.38 0 0 1 1.94 1.48zM130.67 110.58h1.46v5.22h6.59v-5.22h1.46v12.33h-1.46v-5.75h-6.59v5.75h-1.46zM154.23 110.58h1.37l5.25 12.33h-1.71l-1.25-3h-6.17l-1.27 3h-1.66zm.66 1.88l-2.56 6.06h5zM169.46 110.58h1.84l7.15 10.24v-10.24H180v12.33h-1.9l-7.1-10.24v10.24h-1.46zM200.48 122.08a9.13 9.13 0 0 1-2.24.87 10.67 10.67 0 0 1-2.38.28 7.26 7.26 0 0 1-2.65-.47 6.23 6.23 0 0 1-2.08-1.33 5.87 5.87 0 0 1-1.37-2 6.86 6.86 0 0 1-.49-2.64 6.51 6.51 0 0 1 .52-2.66 5.81 5.81 0 0 1 1.42-2 6.68 6.68 0 0 1 2.1-1.32 7.19 7.19 0 0 1 2.6-.47 7.3 7.3 0 0 1 2.34.37 5 5 0 0 1 2 1.25l-1.1 1.15a4.2 4.2 0 0 0-1.53-1 4.68 4.68 0 0 0-1.83-.37 4.91 4.91 0 0 0-2 .39 4.78 4.78 0 0 0-1.58 1.06 4.72 4.72 0 0 0-1 1.62 5.51 5.51 0 0 0-.37 2.06 5.39 5.39 0 0 0 .37 2 4.86 4.86 0 0 0 1 1.63 4.75 4.75 0 0 0 1.61 1.08 5.58 5.58 0 0 0 2.08.38 7.19 7.19 0 0 0 1.56-.18 6.19 6.19 0 0 0 1.5-.54v-3.78h-2.84V116h4.31zM210.51 110.58h7.76v1.36H212v3.86h5.87v1.36H212v4.4h6.6v1.35h-8.07z"/><path class="cls-1" d="M96.26 33.08l-.06.11.06-.1zM167 33.09v.11z"/><path class="cls-2" d="M199.59 56.59a20.34 20.34 0 0 1-34.1-9.37L153.4 69.91A42.17 42.17 0 0 0 215 72zM145.91 15.05c.1-.2.22-.39.32-.58A42.19 42.19 0 0 0 77 22.84L44.12 84.39h24.81l10.19-19.13L96.2 33.19l.06-.11a20.33 20.33 0 0 1 37.88 4.06z"/><path d="M185.19 0a42.2 42.2 0 0 0-37.49 22.84l-14.37 26.92a20.67 20.67 0 0 1-2.1 3.94 20.34 20.34 0 0 1-36.51-6.54L82.56 69.81a42.09 42.09 0 0 0 31.88 14.58h.45a42.2 42.2 0 0 0 37.93-24.65L167 33.19v-.11a20.34 20.34 0 0 1 32.58-5.28L215 12.36A42.07 42.07 0 0 0 185.19 0z" fill="url(#linear-gradient)"/><path fill="url(#linear-gradient-2)" d="M53.58 55.56L24.8 1.67H0l41.21 77.17 12.37-23.28z"/></svg>