<?xml version="1.0" encoding="UTF-8" standalone="no"?>
<svg
   xmlns:dc="http://purl.org/dc/elements/1.1/"
   xmlns:cc="http://creativecommons.org/ns#"
   xmlns:rdf="http://www.w3.org/1999/02/22-rdf-syntax-ns#"
   xmlns:svg="http://www.w3.org/2000/svg"
   xmlns="http://www.w3.org/2000/svg"
   xmlns:sodipodi="http://sodipodi.sourceforge.net/DTD/sodipodi-0.dtd"
   xmlns:inkscape="http://www.inkscape.org/namespaces/inkscape"
   height="846"
   viewBox="0 0 1477 500"
   width="2500"
   version="1.1"
   id="svg8"
   sodipodi:docname="appstore.svg"
   inkscape:version="0.92.4 (5da689c313, 2019-01-14)">
  <metadata
     id="metadata14">
    <rdf:RDF>
      <cc:Work
         rdf:about="">
        <dc:format>image/svg+xml</dc:format>
        <dc:type
           rdf:resource="http://purl.org/dc/dcmitype/StillImage" />
      </cc:Work>
    </rdf:RDF>
  </metadata>
  <defs
     id="defs12" />
  <sodipodi:namedview
     pagecolor="#ffffff"
     bordercolor="#666666"
     borderopacity="1"
     objecttolerance="10"
     gridtolerance="10"
     guidetolerance="10"
     inkscape:pageopacity="0"
     inkscape:pageshadow="2"
     inkscape:window-width="1234"
     inkscape:window-height="624"
     id="namedview10"
     showgrid="false"
     inkscape:zoom="0.19685853"
     inkscape:cx="1374.915"
     inkscape:cy="380.84204"
     inkscape:window-x="2274"
     inkscape:window-y="327"
     inkscape:window-maximized="0"
     inkscape:current-layer="svg8" />
  <path
     d="m 269.98155,239.76297 c -0.33859,-40.40519 33.06905,-60.04347 34.53628,-60.94638 -18.9611,-27.53874 -48.30565,-31.3761 -58.57624,-31.71469 -24.60429,-2.59587 -48.53138,14.78514 -61.05925,14.78514 -12.7536,0 -32.16615,-14.44655 -52.93306,-14.10796 -26.74869,0.45145 -51.917294,15.91378 -65.573798,40.0666 -28.328782,49.0957 -7.223275,121.32845 19.97687,161.05646 13.656508,19.41256 29.457418,41.19525 50.337198,40.4052 20.31546,-0.79005 27.99019,-12.97932 52.48161,-12.97932 24.37855,0 31.48896,12.97932 52.70733,12.52786 21.89556,-0.33859 35.55206,-19.52541 48.75711,-39.16369 15.68805,-22.23414 22.00842,-44.24256 22.23414,-45.3712 -0.56431,-0.22572 -42.43674,-16.25237 -42.88819,-64.55802 M 229.91494,121.03039 c 10.94778,-13.65651 18.39678,-32.279012 16.36524,-51.240109 -15.80092,0.677182 -35.66492,10.947777 -47.06415,24.378554 -10.04487,11.850685 -19.07397,31.150375 -16.81669,49.321425 17.83246,1.35436 36.11637,-9.02909 47.5156,-22.45987 m 334.86652,212.09192 h -28.44164 l -15.57519,-48.98283 h -54.17456 l -14.78514,48.98283 h -27.6516 l 53.61024,-166.69964 h 33.18192 z m -48.64424,-69.52402 -14.10796,-43.45251 c -1.46723,-4.51455 -4.28882,-14.89801 -8.35191,-31.3761 h -0.56432 c -1.69296,7.11041 -4.28882,17.60673 -7.90046,31.3761 l -13.88223,43.45251 z m 186.45079,8.01332 c 0,20.42833 -5.53032,36.56783 -16.70383,48.41852 -9.932,10.60918 -22.347,15.80091 -37.01928,15.80091 -15.91378,0 -27.31301,-5.64318 -34.31056,-17.04241 v 63.09079 H 587.80565 V 252.42479 c 0,-12.86646 -0.33859,-25.95865 -1.01577,-39.50229 h 23.47564 l 1.46723,19.07396 h 0.45145 c 8.91623,-14.33368 22.45988,-21.55696 40.51806,-21.55696 14.22083,0 25.95865,5.64318 35.4392,16.81669 9.70627,11.28637 14.44655,25.95864 14.44655,44.35542 z m -27.20015,0.90291 c 0,-11.73782 -2.59586,-21.33123 -7.90046,-28.8931 -5.75604,-7.90046 -13.54364,-11.85069 -23.24991,-11.85069 -6.5461,0 -12.52787,2.25728 -17.94533,6.5461 -5.30459,4.40168 -8.91623,10.04486 -10.49632,17.15528 -0.79004,3.27304 -1.2415,5.98177 -1.2415,8.12618 v 20.08973 c 0,8.69051 2.70873,16.13951 8.01332,22.12128 5.3046,5.98178 12.30214,9.0291 20.87978,9.0291 10.04487,0 17.83246,-3.95023 23.47565,-11.62496 5.64318,-7.78759 8.46477,-17.94532 8.46477,-30.69892 z m 165.34528,-0.90291 c 0,20.42833 -5.53032,36.56783 -16.70382,48.41852 -9.932,10.60918 -22.34701,15.80091 -37.01929,15.80091 -15.91377,0 -27.313,-5.64318 -34.31055,-17.04241 v 63.09079 H 725.95079 V 252.42479 c 0,-12.86646 -0.33859,-25.95865 -1.01578,-39.50229 h 23.47565 l 1.46723,19.07396 h 0.45145 c 8.91623,-14.33368 22.45987,-21.55696 40.51806,-21.55696 14.22082,0 25.95864,5.64318 35.43919,16.81669 9.70628,11.28637 14.44655,25.95864 14.44655,44.35542 z m -27.20014,0.90291 c 0,-11.73782 -2.59587,-21.33123 -7.90046,-28.8931 -5.75605,-7.90046 -13.54364,-11.85069 -23.24992,-11.85069 -6.54609,0 -12.52786,2.25728 -17.94532,6.5461 -5.30459,4.40168 -8.80337,10.04486 -10.49632,17.15528 -0.79005,3.27304 -1.2415,5.98177 -1.2415,8.12618 v 20.08973 c 0,8.69051 2.70873,16.13951 8.01332,22.12128 5.30459,5.98178 12.30214,9.0291 20.87978,9.0291 10.04486,0 17.94532,-3.95023 23.47564,-11.62496 5.75605,-7.78759 8.46478,-17.94532 8.46478,-30.69892 z m 181.82337,13.88223 c 0,14.22083 -4.966,25.73292 -14.78514,34.64915 -10.83491,9.70628 -25.95864,14.55941 -45.37119,14.55941 -17.94533,0 -32.27901,-3.49877 -43.11393,-10.38345 l 6.20751,-22.23415 c 11.73782,6.88469 24.60428,10.38346 38.59937,10.38346 10.04487,0 17.94533,-2.25727 23.47565,-6.77182 5.64318,-4.51455 8.46477,-10.60919 8.46477,-18.17105 0,-6.77182 -2.37014,-12.41501 -6.88468,-17.04242 -4.62741,-4.62741 -12.30214,-8.91623 -23.02419,-12.86645 -29.45742,-10.94778 -44.01683,-26.86156 -44.01683,-47.74134 0,-13.6565 5.19172,-24.83001 15.46232,-33.63337 10.27059,-8.69051 23.9271,-13.09219 40.96951,-13.09219 15.12373,0 27.76447,2.59587 37.80933,7.90046 l -6.77182,21.66982 c -9.48055,-5.07886 -20.08973,-7.67473 -32.05328,-7.67473 -9.36769,0 -16.81669,2.37014 -22.12128,6.88469 -4.40168,4.17595 -6.65896,9.14196 -6.65896,15.12373 0,6.54609 2.59587,12.07641 7.67473,16.25237 4.40169,3.95023 12.52787,8.23905 24.26569,12.86646 14.33369,5.75604 24.83001,12.52787 31.60183,20.31546 6.88468,7.78759 10.27059,17.49387 10.27059,29.00596 m 88.48513,-53.38451 h -29.4574 v 58.35051 c 0,14.78515 5.1917,22.23415 15.5752,22.23415 4.7402,0 8.6905,-0.45146 11.8506,-1.2415 l 0.7901,20.31546 c -5.3046,1.91868 -12.1893,2.93445 -20.7669,2.93445 -10.6092,0 -18.7354,-3.27304 -24.7172,-9.70627 -5.9817,-6.43323 -8.9162,-17.26814 -8.9162,-32.39188 v -60.60779 h -17.4939 V 212.9225 h 17.4939 v -22.00841 l 26.1844,-7.90046 v 29.90887 h 29.4574 z m 132.5019,39.05083 c 0,18.50964 -5.3045,33.63337 -15.8009,45.48406 -11.0606,12.18927 -25.7329,18.28391 -44.0168,18.28391 -17.6067,0 -31.7147,-5.86891 -42.211,-17.49387 -10.4963,-11.62496 -15.6881,-26.4101 -15.6881,-44.24256 0,-18.6225 5.4175,-33.8591 16.1395,-45.70979 10.835,-11.85068 25.3944,-17.83246 43.6783,-17.83246 17.6067,0 31.8275,5.86892 42.5496,17.60674 10.2706,11.28636 15.3494,25.95864 15.3494,43.90397 z m -27.6516,0.56431 c 0,-11.06064 -2.3701,-20.42832 -7.1104,-28.32878 -5.6431,-9.59341 -13.6565,-14.33368 -24.0399,-14.33368 -10.7221,0 -18.9611,4.74027 -24.4914,14.33368 -4.8532,7.90046 -7.1105,17.49387 -7.1105,28.8931 0,11.06064 2.3702,20.54119 7.1105,28.32878 5.756,9.59342 13.8822,14.33369 24.2656,14.33369 10.1578,0 18.1711,-4.85314 24.04,-14.55941 4.8531,-8.12619 7.3361,-17.60674 7.3361,-28.66738 z m 114.5567,-36.22923 c -2.5959,-0.45146 -5.4175,-0.67719 -8.4648,-0.67719 -9.3677,0 -16.7038,3.49878 -21.7827,10.60919 -4.4017,6.2075 -6.6589,14.22082 -6.6589,23.70137 v 63.09079 h -26.7487 v -82.39048 c 0,-13.88223 -0.2258,-26.52296 -0.7901,-37.80933 h 23.2499 l 1.0158,23.02419 h 0.7901 c 2.8215,-7.90046 7.2232,-14.33369 13.3179,-19.07396 5.9817,-4.28882 12.415,-6.43323 19.2997,-6.43323 2.483,0 4.7402,0.22573 6.6589,0.45146 z m 119.4097,30.92464 c 0,4.74028 -0.3386,8.80337 -1.0157,12.07641 h -80.1332 c 0.3386,11.85069 4.1759,20.99265 11.6249,27.20015 6.7718,5.53032 15.4623,8.35191 26.1844,8.35191 11.8507,0 22.6856,-1.91868 32.3919,-5.64318 l 4.1759,18.50964 c -11.3992,4.966 -24.83,7.449 -40.2923,7.449 -18.6225,0 -33.2948,-5.53032 -43.904,-16.47809 -10.6092,-10.94778 -15.9138,-25.73292 -15.9138,-44.1297 0,-18.05819 4.966,-33.18192 14.898,-45.25833 10.3835,-12.86646 24.3786,-19.29969 41.9853,-19.29969 17.2682,0 30.4732,6.43323 39.2766,19.29969 7.1104,10.38346 10.722,22.91132 10.722,37.92219 z m -25.5071,-6.88468 c 0.2257,-7.90046 -1.5801,-14.78514 -5.1918,-20.54119 -4.6274,-7.449 -11.7378,-11.1735 -21.2183,-11.1735 -8.6906,0 -15.801,3.61163 -21.2184,10.83491 -4.4017,5.75605 -7.1104,12.75359 -7.9005,20.76691 z"
     id="path4"
     inkscape:connector-curvature="0"
     sodipodi:nodetypes="cccsccccscccccccccccccccccccccccccscscccsccccscsscsccsssscsscscccsccccscsscsccsssscsccsccscsccscsccscsccccccssccssscccccccccscssscscsscscscscscscsccscccccsccscccsccssscscsccsccc"
     style="stroke-width:1.12863672" />
</svg>
