<svg width="194" height="48" viewBox="0 0 194 48" fill="none" xmlns="http://www.w3.org/2000/svg">
<rect width="194" height="48" rx="4" fill="#0a1720"/>
<path d="M64.7037 28.2998C64.4037 29.3998 63.8037 30.3998 63.2037 31.3998C62.3037 32.6998 61.4037 33.9998 59.9037 34.0998C58.4037 34.1998 58.0037 33.2998 56.3037 33.2998C54.6037 33.2998 54.1037 33.9998 52.7037 34.0998C51.3037 34.1998 50.3037 32.6998 49.3037 31.2998C47.4037 28.5998 46.0037 23.6998 47.9037 20.2998C48.8037 18.6998 50.5037 17.5998 52.4037 17.5998C53.8037 17.5998 55.1037 18.5998 56.0037 18.5998C56.9037 18.5998 58.5037 17.3998 60.2037 17.5998C61.8037 17.5998 63.3037 18.4998 64.2037 19.7998C62.7037 20.6998 61.9037 22.2998 61.8037 23.8998C61.8037 25.7998 63.0037 27.4998 64.7037 28.2998ZM59.1037 15.7998C59.9037 14.7998 60.3037 13.5998 60.2037 12.2998C59.0037 12.3998 57.8037 12.9998 57.0037 13.8998C56.2037 14.8998 55.8037 16.0998 55.8037 17.2998C57.1037 17.2998 58.3037 16.6998 59.1037 15.7998Z" fill="white"/>
<path d="M79.3038 30.7H74.6038L73.5038 34.1H71.5038L76.0038 21.6H78.0038L82.5038 34H80.5038L79.3038 30.7ZM75.1038 29.2H78.9038L77.0038 23.7L75.1038 29.2ZM92.2038 29.5C92.2038 32.3 90.7038 34.1 88.4038 34.1C87.2038 34.2 86.1038 33.5 85.6038 32.5V37H83.7038V25H85.5038V26.5C86.1038 25.5 87.2038 24.9 88.4038 24.9C90.7038 24.9 92.2038 26.7 92.2038 29.5ZM90.3038 29.6C90.3038 27.8 89.3038 26.6 87.9038 26.6C86.5038 26.6 85.5038 27.8 85.5038 29.6C85.5038 31.4 86.5038 32.6 87.9038 32.6C89.3038 32.6 90.3038 31.4 90.3038 29.6ZM102.104 29.6C102.104 32.4 100.604 34.2 98.3038 34.2C97.1038 34.2 96.0038 33.6 95.5038 32.6V37H93.6038V25H95.4038V26.5C96.0038 25.5 97.1038 24.9 98.3038 24.9C100.704 24.9 102.204 26.7 102.104 29.6ZM100.304 29.6C100.304 27.8 99.4038 26.6 97.9038 26.6C96.4038 26.6 95.5038 27.8 95.5038 29.6C95.5038 31.4 96.5038 32.6 97.9038 32.6C99.3038 32.6 100.304 31.4 100.304 29.6ZM108.804 30.6C108.904 31.8 110.104 32.6 111.804 32.6C113.504 32.6 114.504 31.8 114.504 30.7C114.504 29.6 113.804 29.2 112.204 28.8L110.604 28.4C108.304 27.8 107.304 26.8 107.304 25.1C107.304 23 109.204 21.5 111.804 21.5C114.404 21.5 116.204 23 116.304 25.1H114.404C114.304 23.9 113.304 23.1 111.804 23.1C110.304 23.1 109.304 23.9 109.304 25C109.304 25.9 110.004 26.4 111.504 26.8L112.904 27.1C115.504 27.7 116.504 28.7 116.504 30.5C116.504 32.8 114.704 34.3 111.704 34.3C108.904 34.3 107.104 32.9 107.004 30.6H108.804ZM120.404 22.8V25H122.104V26.5H120.404V31.5C120.404 32.3 120.704 32.6 121.504 32.6C121.704 32.6 121.904 32.6 122.104 32.6V34C121.804 34.1 121.404 34.1 121.104 34.1C119.304 34.1 118.504 33.4 118.504 31.7V26.5H117.204V25H118.504V22.9L120.404 22.8ZM123.104 29.6C123.104 26.7 124.804 25 127.404 25C130.004 25 131.704 26.8 131.704 29.6C131.704 32.4 130.004 34.2 127.404 34.2C124.804 34.2 123.104 32.4 123.104 29.6ZM129.804 29.6C129.804 27.6 128.904 26.5 127.404 26.5C125.904 26.5 125.004 27.6 125.004 29.6C125.004 31.5 125.904 32.7 127.404 32.7C128.904 32.7 129.804 31.5 129.804 29.6ZM133.304 25H135.004V26.6C135.204 25.6 136.204 24.9 137.204 25C137.404 25 137.604 25 137.804 25.1V26.8C137.504 26.7 137.204 26.7 137.004 26.7C136.004 26.7 135.104 27.5 135.004 28.5C135.004 28.6 135.004 28.7 135.004 28.8V34.2H133.104V25H133.304ZM146.504 31.4C146.304 33 144.704 34.2 142.604 34.2C140.004 34.2 138.304 32.4 138.304 29.6C138.304 26.8 139.904 24.9 142.504 24.9C145.104 24.9 146.604 26.6 146.604 29.4V30H140.204V30.1C140.104 31.4 141.104 32.5 142.304 32.7C142.404 32.7 142.504 32.7 142.604 32.7C143.504 32.8 144.304 32.3 144.704 31.4H146.504ZM140.204 28.7H144.704C144.804 27.5 143.804 26.5 142.604 26.4C142.504 26.4 142.504 26.4 142.404 26.4C141.204 26.4 140.204 27.4 140.204 28.7C140.104 28.7 140.104 28.7 140.204 28.7Z" fill="white"/>
<path d="M74.9037 12.3C76.4037 12.2 77.6037 13.3 77.7037 14.7C77.7037 14.9 77.7037 15.1 77.7037 15.3C77.7037 17.2 76.7037 18.3 74.9037 18.3H72.7037V12.3H74.9037ZM73.6037 17.4H74.7037C75.7037 17.5 76.6037 16.7 76.7037 15.7C76.7037 15.6 76.7037 15.4 76.7037 15.3C76.8037 14.3 76.1037 13.3 75.1037 13.2C75.0037 13.2 74.8037 13.2 74.7037 13.2H73.6037V17.4ZM78.7037 16C78.6037 14.8 79.5037 13.8 80.7037 13.7C81.9037 13.6 82.9037 14.5 83.0037 15.7C83.0037 15.8 83.0037 15.9 83.0037 16C83.1037 17.2 82.2037 18.2 81.0037 18.3C79.8037 18.4 78.8037 17.5 78.7037 16.3C78.7037 16.2 78.7037 16.1 78.7037 16ZM82.1037 16C82.1037 15 81.7037 14.4 80.9037 14.4C80.1037 14.4 79.6037 15 79.6037 16C79.6037 17 80.0037 17.6 80.8037 17.6C81.6037 17.6 82.1037 17 82.1037 16ZM88.6037 18.3H87.7037L86.8037 15H86.7037L85.8037 18.3H84.9037L83.7037 13.8H84.6037L85.4037 17.2H85.5037L86.4037 13.8H87.2037L88.1037 17.2H88.2037L89.0037 13.8H89.9037L88.6037 18.3ZM90.9037 13.8H91.8037V14.5H91.9037C92.1037 14 92.7037 13.6 93.2037 13.7C94.0037 13.6 94.7037 14.2 94.7037 15C94.7037 15.1 94.7037 15.2 94.7037 15.3V18.2H93.8037V15.6C93.8037 14.9 93.5037 14.5 92.8037 14.5C92.3037 14.4 91.8037 14.9 91.7037 15.4C91.7037 15.5 91.7037 15.6 91.7037 15.6V18.2H90.8037L90.9037 13.8ZM96.1037 12H97.0037V18.3H96.1037V12ZM98.3037 16C98.2037 14.8 99.1037 13.8 100.304 13.7C101.504 13.6 102.504 14.5 102.604 15.7C102.604 15.8 102.604 15.9 102.604 16C102.704 17.2 101.804 18.2 100.604 18.3C99.4037 18.4 98.4037 17.5 98.3037 16.3C98.3037 16.2 98.3037 16.1 98.3037 16ZM101.604 16C101.604 15 101.204 14.4 100.404 14.4C99.6037 14.4 99.2037 15 99.2037 16C99.2037 17 99.6037 17.6 100.404 17.6C101.204 17.6 101.604 17 101.604 16ZM103.404 17C103.404 16.2 104.004 15.7 105.104 15.6L106.304 15.5V15.2C106.304 14.7 106.004 14.5 105.404 14.5C104.804 14.5 104.604 14.7 104.504 15H103.604C103.704 14.2 104.404 13.7 105.404 13.7C106.404 13.7 107.204 14.3 107.204 15.2V18.3H106.304V17.6H106.204C105.904 18.1 105.404 18.3 104.904 18.3C104.204 18.4 103.504 17.8 103.404 17.1V17ZM106.304 16.6V16.2L105.204 16.3C104.604 16.3 104.304 16.6 104.304 16.9C104.304 17.2 104.704 17.5 105.104 17.5C105.804 17.7 106.304 17.2 106.304 16.6ZM108.404 16C108.404 14.6 109.104 13.7 110.304 13.7C110.904 13.7 111.404 14 111.704 14.5H111.804V12H112.704V18.3H111.904V17.6H111.804C111.504 18.1 111.004 18.4 110.404 18.4C109.104 18.3 108.404 17.4 108.404 16ZM109.304 16C109.304 17 109.704 17.5 110.504 17.5C111.304 17.5 111.704 17 111.704 16C111.704 15 111.204 14.5 110.504 14.5C109.804 14.5 109.304 15.1 109.304 16ZM116.304 16C116.204 14.8 117.104 13.8 118.304 13.7C119.504 13.6 120.504 14.5 120.604 15.7C120.604 15.8 120.604 15.9 120.604 16C120.704 17.2 119.804 18.2 118.604 18.3C117.404 18.4 116.404 17.5 116.304 16.3C116.304 16.2 116.304 16.1 116.304 16ZM119.604 16C119.604 15 119.204 14.4 118.404 14.4C117.604 14.4 117.204 15 117.204 16C117.204 17 117.604 17.5 118.404 17.5C119.204 17.5 119.604 17 119.604 16ZM121.804 13.8H122.704V14.5H122.804C122.904 14 123.504 13.6 124.004 13.7C124.804 13.6 125.504 14.2 125.604 15.1C125.604 15.2 125.604 15.3 125.604 15.4V18.3H124.704V15.6C124.704 14.9 124.404 14.5 123.704 14.5C123.104 14.5 122.704 14.9 122.604 15.4C122.604 15.5 122.604 15.6 122.604 15.6V18.2H121.704L121.804 13.8ZM130.604 12.6V13.7H131.604V14.5H130.604V16.8C130.604 17.3 130.804 17.5 131.204 17.5H131.504V18.2C131.304 18.2 131.204 18.2 131.004 18.2C130.004 18.2 129.604 17.9 129.604 17V14.6H129.004V13.8H129.704V12.6H130.604ZM132.804 12H133.704V14.5H133.804C134.004 14 134.504 13.6 135.104 13.7C135.904 13.7 136.604 14.3 136.704 15.1C136.704 15.2 136.704 15.3 136.704 15.4V18.3H135.804V15.6C135.804 14.9 135.504 14.5 134.804 14.5C134.204 14.5 133.704 14.9 133.704 15.5C133.704 15.6 133.704 15.6 133.704 15.7V18.3H132.804V12ZM141.804 17C141.604 17.9 140.704 18.4 139.804 18.3C138.704 18.4 137.804 17.5 137.704 16.4C137.704 16.3 137.704 16.1 137.704 16C137.604 14.9 138.404 13.8 139.504 13.7C139.604 13.7 139.704 13.7 139.804 13.7C141.004 13.7 141.804 14.6 141.804 16V16.3H138.604V16.4C138.504 17 139.004 17.6 139.704 17.7H139.804C140.304 17.6 140.704 17.4 141.004 17H141.804ZM138.704 15.6H141.004C141.004 15 140.604 14.5 140.004 14.4H139.904C139.204 14.4 138.704 14.9 138.704 15.6C138.704 15.5 138.704 15.5 138.704 15.6Z" fill="white"/>
</svg>
