<?xml version="1.0" encoding="utf-8"?>
<!-- Generator: Adobe Illustrator 21.0.2, SVG Export Plug-In . SVG Version: 6.00 Build 0)  -->
<svg version="1.1" id="Layer_1" xmlns="http://www.w3.org/2000/svg" xmlns:xlink="http://www.w3.org/1999/xlink" x="0px" y="0px"
	 viewBox="0 0 48.4 43" style="enable-background:new 0 0 48.4 43;" xml:space="preserve">
<path fill="#fff" d="M42.9,16.7c-1.3,0-2.5,0.6-3.5,1.5c-4.1-2.8-9-4.4-14-4.5l2.4-11.3L35.6,4c0.2,2,2,3.4,4,3.2c2-0.2,3.4-2,3.2-4
	c-0.2-2-2-3.4-4-3.2c-1.1,0.1-2.2,0.8-2.8,1.8L27.1,0c-0.6-0.1-1.2,0.3-1.3,0.9c0,0,0,0,0,0l-2.7,12.6c-5.1,0.1-10,1.6-14.2,4.5
	c-2.1-2-5.5-1.9-7.5,0.2c-2,2.1-1.9,5.5,0.2,7.5c0.4,0.4,0.9,0.7,1.4,1c0,0.5,0,1.1,0,1.6c0,8.1,9.5,14.7,21.2,14.7
	c11.7,0,21.2-6.6,21.2-14.7c0-0.5,0-1.1,0-1.6c1.8-0.9,3-2.8,2.9-4.8C48.3,18.9,45.8,16.6,42.9,16.7z M12.1,25.5
	c0-2,1.6-3.6,3.6-3.6c2,0,3.6,1.6,3.6,3.6s-1.6,3.6-3.6,3.6C13.7,29.1,12.1,27.5,12.1,25.5z M33.3,35.4c-2.6,1.9-5.7,2.9-9,2.8
	c0,0,0,0,0,0c0,0,0,0,0,0c-3.2,0.1-6.4-0.9-9-2.8c-0.3-0.4-0.3-1,0.1-1.4c0.4-0.3,0.9-0.3,1.2,0c2.2,1.6,4.9,2.4,7.6,2.3
	c0,0,0.1,0,0.1,0c0,0,0.1,0,0.1,0c2.7,0.1,5.4-0.7,7.6-2.3c0.4-0.3,0.9-0.3,1.2,0C33.5,34.4,33.6,35,33.3,35.4z M32.5,29.1
	c-2,0-3.6-1.6-3.6-3.6s1.6-3.6,3.6-3.6c2,0,3.6,1.6,3.6,3.6S34.5,29.1,32.5,29.1z"/>
</svg>
