<?xml version="1.0" encoding="utf-8"?>
<!-- Generator: Adobe Illustrator 21.0.2, SVG Export Plug-In . SVG Version: 6.00 Build 0)  -->
<svg version="1.1" id="telegram" xmlns="http://www.w3.org/2000/svg" xmlns:xlink="http://www.w3.org/1999/xlink" x="0px" y="0px"
	 viewBox="0 0 49.9 43" style="enable-background:new 0 0 49.9 43;" xml:space="preserve">
<path d="M46.3,0.5L1.9,17.9c0,0-2.1,0.7-1.9,2c0.2,1.3,1.9,1.9,1.9,1.9l11.1,3.8L39.8,8.5c0,0,1-0.7,1.4-0.4
	c0.2,0.2,0.4,0.5-0.5,1.3c-0.8,0.8-21.1,19-21.1,19l-1.5,12.4c0.6,0.3,1.2-0.2,1.2-0.2l7.2-6.6l0,0l11.2,8.6c3,1.3,4.1-1.4,4.1-1.4
	l7.9-39.8C50-1.1,46.3,0.5,46.3,0.5z"/>
</svg>
