<?xml version="1.0" encoding="utf-8"?>
<!-- Generator: Adobe Illustrator 21.0.2, SVG Export Plug-In . SVG Version: 6.00 Build 0)  -->
<svg version="1.1" id="youtube" xmlns="http://www.w3.org/2000/svg" xmlns:xlink="http://www.w3.org/1999/xlink" x="0px" y="0px"
	 viewBox="0 0 61 43" style="enable-background:new 0 0 61 43;" xml:space="preserve">
<path fill="#fff" d="M59.8,6.7C59.1,4.1,57,2,54.4,1.3C49.6,0,30.5,0,30.5,0S11.4,0,6.7,1.3C4,2,2,4.1,1.3,6.7C0,11.5,0,21.5,0,21.5
	s0,10,1.3,14.8C2,38.9,4,41,6.7,41.7C11.4,43,30.5,43,30.5,43s19.1,0,23.8-1.3c2.6-0.7,4.7-2.8,5.4-5.4C61,31.5,61,21.5,61,21.5
	S61,11.5,59.8,6.7z M24.3,30.6V12.4l16,9.1L24.3,30.6z"/>
</svg>
