<?xml version="1.0" encoding="utf-8"?>
<!-- Generator: Adobe Illustrator 21.0.2, SVG Export Plug-In . SVG Version: 6.00 Build 0)  -->
<svg version="1.1" id="Layer_1" xmlns="http://www.w3.org/2000/svg" xmlns:xlink="http://www.w3.org/1999/xlink" x="0px" y="0px"
	 viewBox="0 0 57 55.6" style="enable-background:new 0 0 57 55.6;" xml:space="preserve">
<title>icon-github</title>
<g id="Layer_2">
	<g id="Layer_1-2">
		<path fill="#fff" d="M57,28.5c0,12.2-7.9,23.1-19.5,27c-1.5,0.3-2-0.6-2-1.4c0-0.9,0-4,0-7.8c0.1-2-0.6-3.9-1.9-5.3c6.3-0.7,13-3.1,13-14.1
			c0-2.8-1-5.6-2.9-7.6c0.9-2.5,0.8-5.2-0.3-7.5c0,0-2.4-0.8-7.8,2.9c-4.7-1.3-9.6-1.3-14.3,0c-5.4-3.7-7.8-2.9-7.8-2.9
			c-1,2.4-1.1,5.1-0.3,7.5c-1.9,2.1-2.9,4.8-2.9,7.7c0,10.9,6.7,13.4,13,14.1c-1,1-1.7,2.4-1.8,3.8c-1.6,0.7-5.8,2-8.3-2.4
			c-0.9-1.6-2.5-2.7-4.4-2.9c0,0-2.8,0-0.2,1.7c0,0,1.9,0.9,3.2,4.2c0,0,1.7,5.1,9.6,3.4c0,2.4,0,4.6,0,5.3s-0.5,1.6-2,1.4
			C4.5,50.5-3.5,34.3,1.5,19.4S22.7-3.5,37.6,1.5C49.2,5.4,57,16.3,57,28.5z M10.8,40.9c0.1-0.1,0-0.3-0.2-0.4s-0.4-0.1-0.5,0.1
			s0,0.3,0.3,0.4S10.7,41.1,10.8,40.9z M12,42.2c0.1-0.1,0.1-0.4-0.1-0.6s-0.4-0.3-0.6-0.1c-0.1,0.3,0,0.6,0.2,0.7
			C11.7,42.3,11.9,42.3,12,42.2z M13.1,43.8c0.2-0.2,0.2-0.5,0-0.7c-0.2-0.2-0.5-0.4-0.6-0.2c-0.2,0.2-0.2,0.5,0,0.7
			C12.6,43.9,12.9,44,13.1,43.8L13.1,43.8z M14.7,45.4c0.2-0.2,0.1-0.5-0.1-0.7s-0.6-0.3-0.7-0.1s-0.1,0.5,0.2,0.7
			S14.5,45.6,14.7,45.4z M16.8,46.4c0.1-0.2-0.1-0.5-0.5-0.6s-0.6,0-0.7,0.2s0.1,0.5,0.5,0.6S16.7,46.6,16.8,46.4z M19.1,46.5
			c0-0.2-0.3-0.4-0.6-0.4s-0.6,0.2-0.6,0.4s0.3,0.4,0.6,0.4S19.1,46.8,19.1,46.5z M21.3,46.2c0-0.2-0.4-0.4-0.7-0.3
			s-0.6,0.3-0.5,0.5s0.4,0.4,0.7,0.3S21.3,46.4,21.3,46.2z"/>
	</g>
</g>
</svg>
