<?xml version="1.0" encoding="utf-8"?>
<!-- Generator: Adobe Illustrator 24.1.1, SVG Export Plug-In . SVG Version: 6.00 Build 0)  -->
<svg version="1.1" id="Layer_1" xmlns="http://www.w3.org/2000/svg" xmlns:xlink="http://www.w3.org/1999/xlink" x="0px" y="0px"
	 viewBox="0 0 661.91 231.64" style="enable-background:new 0 0 661.91 231.64;" xml:space="preserve">
<style type="text/css">
	.st0{fill:#FFA729;}
</style>
<g>
	<path class="st0" d="M157.67,161.13c13.97,0,20.37-5.31,23.3-10.39c5.64-9.77,1.68-22.49-11.79-37.79
		c-7.46-8.47-18.71-19.55-26.35-25.06c-0.49-4.75-1.15-9.4-1.97-13.88c2.18-0.54,4.32-1,6.38-1.37c12.74-2.25,20.1-0.4,21.73,2.43
		c1.1,1.91,0.26,5.87-2.31,10.87c-2.2,4.29-4.19,6.67-4.82,7.37c3.97,3.55,7.56,7.26,9.87,9.74c1.17-1.24,4.15-4.69,7.28-10.77
		c4.98-9.68,5.65-17.8,1.99-24.14c-3.71-6.43-12.99-13.23-36.14-9.15c-2.31,0.41-4.69,0.92-7.11,1.52
		c-5.67-19.71-15.16-33.66-28.27-33.66c-7.62,0-18.4,4.87-26.51,28.18c-0.08,0.26-2.07,6.37-3.62,13.26
		c-1.58,7.01-3.05,14.54-4.38,22.41c-4.2,3.01-8.16,6.1-11.84,9.24C52.2,88.66,47.61,79.1,49.93,75.08
		c1.4-2.42,5.79-4.43,12.44-3.47c3.83,0.55,6.4,1.16,7.5,1.45c1.02-5.23,2.37-10.22,3.31-13.46c-1.61-0.41-4.58-1.09-8.83-1.71
		c-11.68-1.68-21.8,2.25-26.42,10.26c-6.56,11.36,0.77,26.56,15.01,41.32c-1.73,1.8-3.37,3.6-4.87,5.4
		c-15.1,18.01-13.85,29.45-10.14,35.87c4.11,7.11,12.61,10.76,23.93,10.76c7.65,0,16.6-1.67,26.33-5.07
		c4.67-1.63,15.81-6.13,21.07-8.28c5.12,2.36,10.19,4.43,15.14,6.19c-4.33,15.07-10.31,23.83-14.95,23.83
		c-3.68,0-8.11-5.38-11.58-14.05c-0.14-0.35-0.38-1.05-0.64-1.82c-4.7,1.85-9.55,3.35-13.15,4.38c0.31,0.94,0.65,1.93,0.92,2.59
		c7.53,18.81,17.45,22.76,24.45,22.76c13.12,0,22.61-13.95,28.27-33.66c2.43,0.6,4.8,1.11,7.11,1.52
		C149.7,160.75,153.95,161.13,157.67,161.13z M92.84,71.34c1.39-6.19,3.23-11.87,3.23-11.87c0,0,0,0,0,0
		c4.51-12.95,9.97-18.75,13.38-18.75c4.64,0,10.62,8.76,14.95,23.83c-10.43,3.7-21.4,8.8-32.19,15.03c-0.43,0.25-0.85,0.5-1.27,0.75
		C91.55,77.25,92.19,74.25,92.84,71.34z M83.61,143.35c-19.28,6.73-31.49,4.25-33.68,0.46c-1.63-2.83,0.44-10.12,8.76-20.04
		c1.35-1.61,2.82-3.23,4.38-4.84c8.62,7.33,18.64,14.31,29.14,20.38c0.26,0.15,0.53,0.3,0.79,0.45
		C89.26,141.24,85.68,142.63,83.61,143.35z M99.14,127.31c-10.08-5.82-18.7-11.94-25.81-17.88c7.49-6.24,16.25-12.32,25.81-17.84
		c9.56-5.52,19.2-10.07,28.35-13.43c1.6,9.13,2.58,19.66,2.58,31.29s-0.98,22.17-2.58,31.29
		C118.34,137.38,108.7,132.83,99.14,127.31z M143.92,106.89c4.87,4.52,10.27,10.01,14.86,15.22c10.12,11.49,11.9,18.75,10.19,21.7
		c-1.63,2.83-8.99,4.67-21.73,2.43c-2.07-0.36-4.2-0.83-6.38-1.37c2.04-11.13,3.08-23.3,3.08-35.43
		C143.93,108.6,143.93,107.74,143.92,106.89z"/>
	<path class="st0" d="M109.45,95.74c-7.56,0-13.71,6.15-13.71,13.71c0,7.56,6.15,13.71,13.71,13.71c7.56,0,13.71-6.15,13.71-13.71
		C123.16,101.89,117.01,95.74,109.45,95.74z"/>
	<path class="st0" d="M218.9,109.45C218.9,48.89,169.46-0.33,108.83,0C52.02,0.31,3.94,45.39,0.24,102.09
		c-2.64,40.56,16.7,78.33,50.68,99.87l-0.04,15.82l-36.96,0.12v-25.17H0.07v38.91h64.68l0.04-29.93c0.01-4.63-2.39-8.91-6.42-11.46
		c-27.86-17.61-44.5-47.81-44.5-80.8c0-52.52,42.58-95.28,95.03-95.59c51.39-0.3,94.39,40.96,96.09,92.32
		c1.14,34.25-15.66,65.88-44.44,84.07c-4.03,2.55-6.43,6.83-6.42,11.46l0.07,29.93h64.65v-38.91h-13.86l0.12,25.05l-37.08,0.12
		l-0.04-15.95C199.86,181.78,218.9,147.21,218.9,109.45z"/>
	<path class="st0" d="M355.91,44.55c-38.17,0-69.08,30.72-69.08,69.27c0,38.36,30.91,69.27,69.08,69.27
		c13.93,0,26.91-4.2,37.78-11.26l15.08,15.27l12.21-11.07l-14.69-14.69c11.64-12.4,18.89-29,18.89-47.52
		C425.18,75.27,394.08,44.55,355.91,44.55z M394.08,148.93l-27.48-27.48l-12.21,10.88l26.72,26.91c-7.44,4.2-16.03,6.49-25.19,6.49
		c-28.62,0-51.52-22.71-51.52-51.9c0-29.39,22.9-52.1,51.52-52.1c28.63,0,51.52,22.71,51.52,52.1
		C407.44,127.56,402.48,139.77,394.08,148.93z"/>
	<path class="st0" d="M543,88.44c0-22.9-18.7-41.41-41.6-41.41h-53.43v133.58h17.75v-51.14h31.49l29.96,51.14h19.65l-31.49-53.43
		C531.36,121.45,543,105.99,543,88.44z M465.72,113.43V63.63h35.68c13.17,0,23.85,11.07,23.85,24.81c0,13.74-10.69,25-23.85,25
		H465.72z"/>
	<polygon class="st0" points="583.59,163.81 583.59,47.03 565.85,47.03 565.85,180.61 644.17,180.61 661.91,180.61 661.91,163.81 	
		"/>
</g>
</svg>