<svg xmlns="http://www.w3.org/2000/svg" viewBox="0 0 435.45 456"><defs><style>.cls-1,.cls-3,.cls-4,.cls-5{fill:none;stroke-miterlimit:10;}.cls-1{stroke:#172429;}.cls-1,.cls-3{stroke-width:2px;}.cls-2{fill:#172429;}.cls-3,.cls-4{stroke:#4aafff;}.cls-4,.cls-5{stroke-width:3px;}.cls-5{stroke:#ffa729;}.cls-6{fill:#4aafff;}.cls-7{fill:#ffa729;}</style></defs><title>Tree</title><g id="Layer_2" data-name="Layer 2"><g id="Up_Lines" data-name="Up Lines"><polyline class="cls-1" points="408.96 157.35 365.16 157.17 343.53 178.79 288.74 178.79 248.73 218.81 248.73 352.18 266.03 374.17"/><polyline class="cls-1" points="92.82 212.86 107.06 198.62 143.47 198.62 164.74 219.89 164.74 362.64 154.28 374.71"/><polyline class="cls-1" points="76.06 198.62 30.64 198.62 20.19 209.44"/><polyline class="cls-1" points="3.24 157.17 39.29 157.17 56.59 174.47 91.2 174.47"/><polyline class="cls-1" points="114.27 174.47 143.83 174.47 167.62 198.26"/><polyline class="cls-1" points="99.85 129.05 117.15 152.48 159.33 152.48 185.64 178.79 185.64 359.03 175.19 374.71"/><polyline class="cls-1" points="13.7 108.5 35.33 108.5 51.55 124.72 67.05 124.72 89.22 146.89"/><polyline class="cls-1" points="41.81 80.39 64.89 80.39 79.67 95.17 102.38 95.17 136.08 128.87"/><polyline class="cls-1" points="64.16 43.62 123.28 43.62 149.24 69.57 149.24 99.85 169.06 119.68"/><polyline class="cls-1" points="100.21 13.34 133.38 13.34 149.96 29.92"/><line class="cls-1" x1="170.86" y1="43.62" x2="170.86" y2="83.99"/><polyline class="cls-1" points="186 97.69 186 138.06 206.19 155.36 206.19 352.18 226.2 376.63"/><polyline class="cls-1" points="175.55 4.33 197.18 25.95 197.18 68.49 213.76 85.07"/><polyline class="cls-1" points="255.22 13.34 226.38 42.17 226.38 96.97"/><polyline class="cls-1" points="275.4 29.92 275.4 71.01 255.58 90.84 255.58 110.67 229.08 137.16 229.08 157.53"/><polyline class="cls-1" points="227.82 176.27 258.1 145.99 310.01 145.99 337.04 118.96"/><polyline class="cls-1" points="310.73 113.55 329.11 95.17 374.17 95.17 401.75 67.59"/><polyline class="cls-1" points="285.5 132.29 285.5 99.85 307.49 77.86 333.08 77.86"/><line class="cls-1" x1="321.54" y1="60.92" x2="377.78" y2="60.92"/><polyline class="cls-1" points="296.31 55.15 315.42 36.05 341.73 36.05"/><line class="cls-1" x1="246.56" y1="186.37" x2="267.83" y2="165.1"/><polyline class="cls-1" points="333.08 157.53 360.47 130.13 405.89 130.13 432.57 103.46"/><polyline class="cls-1" points="349.66 199.34 301.36 199.34 275.4 225.3"/><circle class="cls-2" cx="98.77" cy="13.34" r="2.88"/><circle class="cls-2" cx="149.96" cy="29.92" r="2.88"/><circle class="cls-2" cx="176.27" cy="4.33" r="2.88"/><circle class="cls-2" cx="170.86" cy="43.62" r="2.88"/><circle class="cls-2" cx="213.76" cy="85.07" r="2.88"/><circle class="cls-2" cx="186" cy="97.69" r="2.88"/><circle class="cls-2" cx="255.22" cy="13.34" r="2.88"/><circle class="cls-2" cx="275.4" cy="29.92" r="2.88"/><circle class="cls-2" cx="296.31" cy="55.15" r="2.88"/><circle class="cls-2" cx="341.73" cy="35.69" r="2.88"/><circle class="cls-2" cx="377.78" cy="60.92" r="2.88"/><circle class="cls-2" cx="322.98" cy="60.92" r="2.88"/><circle class="cls-2" cx="333.08" cy="77.5" r="2.88"/><circle class="cls-2" cx="285.5" cy="132.29" r="2.88"/><circle class="cls-2" cx="310.73" cy="113.55" r="2.88"/><circle class="cls-2" cx="402.29" cy="67.41" r="2.88"/><circle class="cls-2" cx="432.57" cy="103.46" r="2.88"/><circle class="cls-2" cx="333.8" cy="156.81" r="2.88"/><circle class="cls-2" cx="336.68" cy="119.32" r="2.88"/><circle class="cls-2" cx="408.6" cy="156.81" r="2.88"/><circle class="cls-2" cx="268.19" cy="164.74" r="2.88"/><circle class="cls-2" cx="275.4" cy="225.3" r="2.88"/><circle class="cls-2" cx="349.66" cy="199.34" r="2.88"/><circle class="cls-2" cx="246.56" cy="186.37" r="2.88"/><circle class="cls-2" cx="227.82" cy="176.27" r="2.88"/><circle class="cls-2" cx="229.26" cy="157.53" r="2.88"/><circle class="cls-2" cx="170.86" cy="83.99" r="2.88"/><circle class="cls-2" cx="64.16" cy="43.62" r="2.88"/><circle class="cls-2" cx="149.24" cy="98.41" r="2.88"/><circle class="cls-2" cx="41.82" cy="80.39" r="2.88"/><circle class="cls-2" cx="13.7" cy="108.5" r="2.88"/><circle class="cls-2" cx="88.68" cy="146.71" r="2.88"/><circle class="cls-2" cx="100.21" cy="129.41" r="2.88"/><circle class="cls-2" cx="136.26" cy="129.41" r="2.88"/><circle class="cls-2" cx="2.88" cy="157.53" r="2.88"/><circle class="cls-2" cx="20.19" cy="209.44" r="2.88"/><circle class="cls-2" cx="76.42" cy="198.62" r="2.88"/><circle class="cls-2" cx="92.28" cy="213.76" r="2.88"/><circle class="cls-2" cx="167.98" cy="197.9" r="2.88"/><circle class="cls-2" cx="91.56" cy="174.83" r="2.88"/><polyline class="cls-3" points="30.64 169.06 55.87 169.06 64.53 160.77 102.73 160.77"/><polyline class="cls-3" points="41.45 126.53 71.73 126.53 85.07 140.22 111.75 140.22 126.53 160.77"/><polyline class="cls-3" points="133.01 141.31 156.81 141.31 175.55 160.05 175.55 179.16"/><polyline class="cls-3" points="50.11 86.15 68.13 86.15 79.67 98.05 94.81 98.05 113.91 117.15 131.93 117.15"/><polyline class="cls-4" points="119.32 104.54 135.9 121.12 169.06 121.12 191.77 143.83 191.77 387.87 174.65 404.99 154.64 404.99 140.5 419.14"/><polyline class="cls-3" points="121.48 430.41 154.64 430.41 165.46 419.59 184.2 419.59 196.46 407.34"/><line class="cls-3" x1="163.29" y1="443.38" x2="175.91" y2="430.77"/><polyline class="cls-3" points="117.15 412.38 134.46 395.08 184.56 395.08"/><polyline class="cls-4" points="62.36 395.8 98.41 395.8 108.14 386.07 126.53 386.07 137.88 374.71 175.55 374.71 175.55 349.3 175.55 178.07 158.61 161.13 126.89 161.13 112.47 175.55 81.47 175.55 69.21 187.81 20.91 187.81"/><polyline class="cls-3" points="196.46 454.92 196.46 441.22 204.75 432.93 204.75 418.87"/><polyline class="cls-3" points="215.92 431.13 227.46 442.66 251.25 442.66"/><polyline class="cls-4" points="275.04 442.66 258.1 425.72 233.95 425.72 210.34 402.11 210.34 126.89 191.86 108.41 191.86 75.7"/><polyline class="cls-3" points="64.53 63.08 91.2 63.08 105.62 77.14 126.53 77.14 169.42 120.04"/><polyline class="cls-3" points="91.2 32.44 139.5 32.44 161.85 54.79 161.85 78.58 180.6 97.33 180.6 132.64"/><line class="cls-3" x1="180.24" y1="32.44" x2="180.24" y2="67.05"/><polyline class="cls-3" points="193.94 3.24 212.32 21.63 212.32 59.48 230.43 76.33"/><polyline class="cls-3" points="249.45 9.01 230.34 28.84 230.34 86.51 200.24 116.62"/><polyline class="cls-3" points="227.46 126.89 227.46 107.42 248.73 86.15 248.73 70.65 265.85 53.53 265.85 22.35"/><polyline class="cls-3" points="281.53 45.42 298.83 28.12 321.18 28.12"/><polyline class="cls-5" points="351.1 32.08 337.76 45.42 303.16 45.42 252.69 94.44 252.69 117.88"/><polyline class="cls-5" points="263.87 117.88 308.93 72.82 351.46 72.82 372.37 51.91"/><polyline class="cls-5" points="318.3 94.44 294.87 117.88 252.69 117.88 226.2 144.37 226.2 388.59 244.85 407.25 261.34 407.25 269.32 415.22"/><line class="cls-3" x1="290.18" y1="418.87" x2="307.12" y2="435.81"/><polyline class="cls-3" points="262.06 387.87 282.61 408.42 313.97 408.42 325.69 420.13"/><polyline class="cls-4" points="351.46 387.87 296.67 387.87 282.97 374.17 242.6 374.17 242.6 175.91 275.04 143.47 321.18 143.47 338.85 125.81 375.98 125.81 394.54 144.37 422.12 144.37"/><polyline class="cls-3" points="242.6 206.91 288.74 160.77 326.59 160.77"/><polyline class="cls-5" points="314.69 126.17 336.32 104.54 372.37 104.54 396.52 80.39"/><line class="cls-3" x1="241.16" y1="149.96" x2="258.82" y2="132.29"/><circle class="cls-6" cx="21.63" cy="187.81" r="2.88"/><circle class="cls-6" cx="31" cy="169.06" r="2.88"/><circle class="cls-6" cx="103.1" cy="160.41" r="2.88"/><circle class="cls-6" cx="126.89" cy="161.85" r="2.88"/><circle class="cls-6" cx="132.65" cy="140.95" r="2.88"/><circle class="cls-6" cx="175.19" cy="176.99" r="2.88"/><circle class="cls-6" cx="41.82" cy="126.53" r="2.88"/><circle class="cls-6" cx="50.47" cy="86.15" r="2.88"/><circle class="cls-6" cx="118.96" cy="104.18" r="2.88"/><circle class="cls-6" cx="64.16" cy="63.08" r="2.88"/><circle class="cls-6" cx="91.56" cy="32.08" r="2.88"/><circle class="cls-6" cx="180.24" cy="97.69" r="2.88"/><circle class="cls-6" cx="180.24" cy="66.69" r="2.88"/><circle class="cls-6" cx="191.77" cy="75.34" r="2.88"/><circle class="cls-6" cx="180.24" cy="32.08" r="2.88"/><circle class="cls-6" cx="157.17" cy="49.38" r="2.88"/><circle class="cls-6" cx="111.75" cy="16.94" r="2.88"/><circle class="cls-6" cx="193.57" cy="2.88" r="2.88"/><circle class="cls-6" cx="229.98" cy="76.06" r="2.88"/><circle class="cls-6" cx="249.45" cy="9.01" r="2.88"/><circle class="cls-6" cx="227.1" cy="127.25" r="2.88"/><circle class="cls-6" cx="266.03" cy="20.55" r="2.88"/><circle class="cls-6" cx="281.89" cy="45.06" r="2.88"/><circle class="cls-6" cx="321.54" cy="27.76" r="2.88"/><circle class="cls-6" cx="275.4" cy="143.83" r="2.88"/><circle class="cls-6" cx="258.82" cy="132.29" r="2.88"/><circle class="cls-7" cx="318.66" cy="94.08" r="2.88"/><circle class="cls-7" cx="309.29" cy="72.46" r="2.88"/><circle class="cls-7" cx="253.05" cy="117.88" r="2.88"/><circle class="cls-7" cx="351.1" cy="32.08" r="2.88"/><circle class="cls-7" cx="372.73" cy="51.55" r="2.88"/><circle class="cls-7" cx="396.52" cy="80.39" r="2.88"/><circle class="cls-7" cx="315.78" cy="126.53" r="2.88"/><circle class="cls-7" cx="268.91" cy="414.91" r="2.88"/><circle class="cls-6" cx="326.59" cy="161.85" r="2.88"/><circle class="cls-6" cx="242.96" cy="206.55" r="2.88"/><circle class="cls-6" cx="351.1" cy="388.23" r="2.88"/><circle class="cls-6" cx="261.7" cy="387.51" r="2.88"/><circle class="cls-6" cx="325.87" cy="419.95" r="2.88"/><circle class="cls-6" cx="289.82" cy="418.51" r="2.88"/><circle class="cls-6" cx="307.12" cy="435.81" r="2.88"/><circle class="cls-6" cx="274.68" cy="443.02" r="2.88"/><circle class="cls-6" cx="250.17" cy="443.02" r="2.88"/><circle class="cls-6" cx="215.56" cy="430.77" r="2.88"/><circle class="cls-6" cx="204.75" cy="419.23" r="2.88"/><circle class="cls-6" cx="196.1" cy="453.12" r="2.88"/><circle class="cls-6" cx="175.91" cy="430.77" r="2.88"/><circle class="cls-6" cx="162.21" cy="444.46" r="2.88"/><circle class="cls-6" cx="196.1" cy="406.98" r="2.88"/><circle class="cls-6" cx="121.12" cy="430.05" r="2.88"/><circle class="cls-6" cx="140.58" cy="419.23" r="2.88"/><circle class="cls-6" cx="117.88" cy="411.66" r="2.88"/><circle class="cls-6" cx="62.72" cy="395.44" r="2.88"/><circle class="cls-6" cx="242.24" cy="149.6" r="2.88"/><circle class="cls-6" cx="421.75" cy="144.55" r="2.88"/><circle class="cls-6" cx="168.7" cy="120.04" r="2.88"/><circle class="cls-6" cx="113.91" cy="117.15" r="2.88"/><polyline class="cls-3" points="112.11 16.94 143.11 16.94 157.17 30.28 157.17 49.38"/></g></g></svg>