<?xml version="1.0" encoding="utf-8"?>
<!-- Generator: Adobe Illustrator 27.8.0, SVG Export Plug-In . SVG Version: 6.00 Build 0)  -->
<svg version="1.2" baseProfile="tiny-ps"
  xmlns="http://www.w3.org/2000/svg"
  xmlns:xlink="http://www.w3.org/1999/xlink"
  xml:space="preserve">
  <title>The Quantum Resistant Ledger</title>
<g>
	<path fill="#FFA729" d="M178.2,175.3c14,0,20.4-5.3,23.3-10.4c5.6-9.8,1.7-22.5-11.8-37.8c-7.5-8.5-18.7-19.5-26.4-25.1
		c-0.5-4.8-1.1-9.4-2-13.9c2.2-0.5,4.3-1,6.4-1.4c12.7-2.2,20.1-0.4,21.7,2.4c1.1,1.9,0.3,5.9-2.3,10.9c-2.2,4.3-4.2,6.7-4.8,7.4
		c4,3.6,7.6,7.3,9.9,9.7c1.2-1.2,4.1-4.7,7.3-10.8c5-9.7,5.6-17.8,2-24.1c-3.7-6.4-13-13.2-36.1-9.2c-2.3,0.4-4.7,0.9-7.1,1.5
		C152.6,55,143.1,41,130,41c-7.6,0-18.4,4.9-26.5,28.2c-0.1,0.3-2.1,6.4-3.6,13.3c-1.6,7-3.1,14.5-4.4,22.4c-4.2,3-8.2,6.1-11.8,9.2
		c-10.9-11.3-15.5-20.8-13.2-24.9c1.4-2.4,5.8-4.4,12.4-3.5c3.8,0.6,6.4,1.2,7.5,1.4c1-5.2,2.4-10.2,3.3-13.5
		c-1.6-0.4-4.6-1.1-8.8-1.7c-11.7-1.7-21.8,2.2-26.4,10.3c-6.6,11.4,0.8,26.6,15,41.3c-1.7,1.8-3.4,3.6-4.9,5.4
		c-15.1,18-13.8,29.4-10.1,35.9c4.1,7.1,12.6,10.8,23.9,10.8c7.7,0,16.6-1.7,26.3-5.1c4.7-1.6,15.8-6.1,21.1-8.3
		c5.1,2.4,10.2,4.4,15.1,6.2c-4.3,15.1-10.3,23.8-14.9,23.8c-3.7,0-8.1-5.4-11.6-14.1c-0.1-0.4-0.4-1.1-0.6-1.8
		c-4.7,1.9-9.6,3.4-13.2,4.4c0.3,0.9,0.7,1.9,0.9,2.6c7.5,18.8,17.5,22.8,24.5,22.8c13.1,0,22.6-13.9,28.3-33.7
		c2.4,0.6,4.8,1.1,7.1,1.5C170.2,174.9,174.5,175.3,178.2,175.3z M113.4,85.5c1.4-6.2,3.2-11.9,3.2-11.9l0,0
		c4.5-12.9,10-18.7,13.4-18.7c4.6,0,10.6,8.8,14.9,23.8c-10.4,3.7-21.4,8.8-32.2,15c-0.4,0.2-0.8,0.5-1.3,0.8
		C112.1,91.4,112.7,88.4,113.4,85.5z M104.2,157.5c-19.3,6.7-31.5,4.2-33.7,0.5c-1.6-2.8,0.4-10.1,8.8-20c1.3-1.6,2.8-3.2,4.4-4.8
		c8.6,7.3,18.6,14.3,29.1,20.4c0.3,0.1,0.5,0.3,0.8,0.4C109.8,155.4,106.2,156.8,104.2,157.5z M119.7,141.5
		c-10.1-5.8-18.7-11.9-25.8-17.9c7.5-6.2,16.2-12.3,25.8-17.8c9.6-5.5,19.2-10.1,28.4-13.4c1.6,9.1,2.6,19.7,2.6,31.3
		s-1,22.2-2.6,31.3C138.9,151.6,129.2,147,119.7,141.5z M164.5,121.1c4.9,4.5,10.3,10,14.9,15.2c10.1,11.5,11.9,18.8,10.2,21.7
		c-1.6,2.8-9,4.7-21.7,2.4c-2.1-0.4-4.2-0.8-6.4-1.4c2-11.1,3.1-23.3,3.1-35.4C164.5,122.8,164.5,121.9,164.5,121.1z"/>
	<path fill="#FFA729" d="M130,109.9c-7.6,0-13.7,6.2-13.7,13.7c0,7.6,6.2,13.7,13.7,13.7s13.7-6.1,13.7-13.7
		C143.7,116.1,137.6,109.9,130,109.9z"/>
	<path fill="#FFA729" d="M239.4,123.6c0-60.5-49.4-109.8-110.1-109.4C72.6,14.5,24.5,59.6,20.8,116.3c-2.6,40.6,16.7,78.3,50.7,99.9
		l0,15.8l-37,0.1v-25.2H20.6v38.9h64.7l0-29.9c0-4.6-2.4-8.9-6.4-11.5c-27.9-17.6-44.5-47.8-44.5-80.8c0-52.5,42.6-95.3,95-95.6
		c51.4-0.3,94.4,41,96.1,92.3c1.1,34.3-15.7,65.9-44.4,84.1c-4,2.6-6.4,6.8-6.4,11.5l0.1,29.9h64.7v-38.9h-13.9l0.1,25.1l-37.1,0.1
		l0-15.9C220.4,196,239.4,161.4,239.4,123.6z"/>
</g>
</svg>
