<?xml version="1.0" encoding="utf-8"?>
<!-- Generator: Adobe Illustrator 24.1.1, SVG Export Plug-In . SVG Version: 6.00 Build 0)  -->
<svg version="1.1" id="Main" xmlns="http://www.w3.org/2000/svg" xmlns:xlink="http://www.w3.org/1999/xlink" x="0px" y="0px"
	 viewBox="0 0 260 260" style="enable-background:new 0 0 260 260;" xml:space="preserve">
<style type="text/css">
	.st0{fill:#FFA729;}
</style>
<g>
	<path class="st0" d="M178.22,175.31c13.97,0,20.37-5.31,23.3-10.39c5.64-9.77,1.68-22.49-11.79-37.79
		c-7.46-8.47-18.71-19.55-26.35-25.06c-0.49-4.75-1.15-9.4-1.97-13.88c2.18-0.54,4.32-1,6.38-1.37c12.74-2.25,20.1-0.4,21.73,2.43
		c1.1,1.91,0.26,5.87-2.31,10.87c-2.2,4.29-4.19,6.67-4.82,7.37c3.97,3.55,7.56,7.26,9.87,9.74c1.17-1.24,4.15-4.69,7.28-10.77
		c4.98-9.68,5.65-17.8,1.99-24.14c-3.71-6.43-12.99-13.23-36.14-9.15c-2.31,0.41-4.69,0.92-7.11,1.52
		c-5.67-19.71-15.16-33.66-28.27-33.66c-7.62,0-18.4,4.87-26.51,28.18c-0.08,0.26-2.07,6.37-3.62,13.26
		c-1.58,7.01-3.05,14.54-4.38,22.41c-4.2,3.01-8.16,6.1-11.84,9.24c-10.89-11.28-15.49-20.84-13.17-24.86
		c1.4-2.42,5.79-4.43,12.44-3.47c3.83,0.55,6.4,1.16,7.5,1.45c1.02-5.23,2.37-10.22,3.31-13.46c-1.61-0.41-4.58-1.09-8.83-1.71
		c-11.68-1.68-21.8,2.25-26.42,10.26c-6.56,11.36,0.77,26.56,15.01,41.32c-1.73,1.8-3.37,3.6-4.87,5.4
		c-15.1,18.01-13.85,29.45-10.14,35.87c4.11,7.11,12.61,10.76,23.93,10.76c7.65,0,16.6-1.67,26.33-5.07
		c4.67-1.63,15.81-6.13,21.07-8.28c5.12,2.36,10.19,4.43,15.14,6.19c-4.33,15.07-10.31,23.83-14.95,23.83
		c-3.68,0-8.11-5.38-11.58-14.05c-0.14-0.35-0.38-1.05-0.64-1.82c-4.7,1.85-9.55,3.35-13.15,4.38c0.31,0.94,0.65,1.93,0.92,2.59
		c7.53,18.81,17.45,22.76,24.45,22.76c13.12,0,22.61-13.95,28.27-33.66c2.43,0.6,4.8,1.11,7.11,1.52
		C170.25,174.93,174.51,175.31,178.22,175.31z M113.39,85.52c1.39-6.19,3.23-11.87,3.23-11.87c0,0,0,0,0,0
		C121.13,60.7,126.59,54.9,130,54.9c4.64,0,10.62,8.76,14.95,23.83c-10.43,3.7-21.4,8.8-32.19,15.03c-0.43,0.25-0.85,0.5-1.27,0.75
		C112.1,91.43,112.74,88.43,113.39,85.52z M104.16,157.53c-19.28,6.73-31.49,4.25-33.68,0.46c-1.63-2.83,0.44-10.12,8.76-20.04
		c1.35-1.61,2.82-3.23,4.38-4.84c8.62,7.33,18.64,14.31,29.14,20.38c0.26,0.15,0.53,0.3,0.79,0.45
		C109.81,155.42,106.23,156.81,104.16,157.53z M119.69,141.49c-10.08-5.82-18.7-11.94-25.81-17.88
		c7.49-6.24,16.25-12.32,25.81-17.84c9.56-5.52,19.2-10.07,28.35-13.43c1.6,9.13,2.58,19.66,2.58,31.29s-0.98,22.17-2.58,31.29
		C138.89,151.56,129.25,147.01,119.69,141.49z M164.47,121.07c4.87,4.52,10.27,10.01,14.86,15.22c10.12,11.49,11.9,18.75,10.19,21.7
		c-1.63,2.83-8.99,4.67-21.73,2.43c-2.07-0.36-4.2-0.83-6.38-1.37c2.04-11.13,3.08-23.3,3.08-35.43
		C164.49,122.78,164.48,121.92,164.47,121.07z"/>
	<path class="st0" d="M130,109.92c-7.56,0-13.71,6.15-13.71,13.71c0,7.56,6.15,13.71,13.71,13.71c7.56,0,13.71-6.15,13.71-13.71
		C143.71,116.07,137.56,109.92,130,109.92z"/>
	<path class="st0" d="M239.45,123.63c0-60.55-49.43-109.78-110.06-109.45C72.57,14.49,24.49,59.57,20.79,116.27
		c-2.64,40.56,16.7,78.33,50.68,99.87l-0.04,15.82l-36.96,0.12v-25.17H20.62v38.91H85.3l0.04-29.93c0.01-4.63-2.39-8.91-6.42-11.46
		c-27.86-17.61-44.5-47.81-44.5-80.8c0-52.52,42.58-95.28,95.03-95.59c51.39-0.3,94.39,40.96,96.09,92.32
		c1.14,34.25-15.66,65.88-44.44,84.07c-4.03,2.55-6.43,6.83-6.42,11.46l0.07,29.93h64.65v-38.91h-13.86l0.12,25.05l-37.08,0.12
		l-0.04-15.95C220.41,195.96,239.45,161.39,239.45,123.63z"/>
</g>
</svg>
