<?xml version="1.0" standalone="no"?>
<!DOCTYPE svg PUBLIC "-//W3C//DTD SVG 20010904//EN"
 "http://www.w3.org/TR/2001/REC-SVG-20010904/DTD/svg10.dtd">
<svg version="1.0" xmlns="http://www.w3.org/2000/svg"
 width="700.000000pt" height="700.000000pt" viewBox="0 0 700.000000 700.000000"
 preserveAspectRatio="xMidYMid meet">
<metadata>
Created by potrace 1.11, written by Peter Selinger 2001-2013
</metadata>
<g transform="translate(0.000000,700.000000) scale(0.100000,-0.100000)"
fill="#000000" stroke="none">
<path d="M3320 6614 c-432 -38 -774 -131 -1121 -305 -867 -434 -1471 -1258
-1614 -2206 -40 -265 -40 -596 0 -866 116 -767 519 -1446 1135 -1911 75 -56
150 -111 168 -121 l32 -19 0 -218 0 -218 -495 0 -495 0 0 340 0 340 -185 0
-185 0 0 -525 0 -525 870 0 870 0 0 418 c0 470 -3 497 -68 592 -24 36 -63 73
-112 107 -204 143 -285 208 -408 328 -411 397 -653 861 -754 1441 -30 175 -33
606 -5 782 71 441 232 822 501 1182 92 124 364 395 490 489 387 289 809 458
1280 511 145 17 449 14 591 -5 466 -62 881 -234 1257 -522 121 -92 336 -303
432 -423 303 -380 497 -842 552 -1316 22 -190 15 -527 -15 -703 -125 -731
-506 -1317 -1130 -1741 -101 -69 -156 -131 -187 -215 -18 -46 -19 -83 -19
-485 l0 -435 870 0 870 0 3 523 2 522 -191 0 -191 0 3 -337 4 -338 -497 -3
-498 -2 0 217 0 218 53 34 c166 109 360 272 511 432 735 773 990 1905 659
2923 -112 344 -284 663 -509 946 -92 115 -337 359 -454 451 -439 346 -927 553
-1470 624 -121 15 -458 27 -550 19z"/>
<path d="M3430 5889 c-84 -11 -206 -71 -282 -139 -116 -103 -225 -274 -312
-485 -79 -196 -141 -430 -216 -825 -22 -118 -44 -227 -48 -241 -5 -18 -45 -55
-123 -115 -64 -49 -135 -104 -157 -122 l-40 -32 -67 72 c-191 206 -321 444
-301 551 20 106 158 161 345 137 49 -6 115 -17 146 -25 42 -9 57 -10 60 -1 13
42 86 349 83 351 -14 11 -245 48 -333 52 -372 18 -651 -189 -672 -499 -6 -83
6 -166 39 -263 59 -173 211 -406 374 -575 l53 -55 -71 -80 c-425 -479 -513
-891 -244 -1143 141 -132 352 -192 621 -178 289 14 498 71 975 262 l236 94
109 -48 c61 -27 152 -64 203 -83 108 -40 105 -24 40 -204 -89 -241 -193 -406
-290 -456 -47 -24 -69 -24 -117 1 -63 32 -137 124 -200 250 -32 63 -60 124
-63 136 -5 20 -11 19 -179 -37 -203 -68 -192 -51 -124 -202 95 -213 236 -389
373 -469 169 -97 375 -88 539 23 164 112 317 352 427 669 26 74 49 136 50 138
2 2 62 -8 132 -22 455 -88 754 -48 941 127 111 104 160 236 150 402 -12 183
-118 405 -303 632 -171 209 -513 550 -706 704 -61 48 -78 67 -82 92 -24 157
-47 339 -45 342 2 1 47 12 99 23 291 63 546 51 631 -29 25 -23 29 -34 29 -81
0 -29 -5 -71 -11 -93 -18 -64 -77 -181 -133 -263 l-52 -77 133 -129 133 -128
27 32 c85 100 200 307 241 435 94 293 11 534 -226 658 -107 56 -203 78 -372
84 -163 6 -295 -6 -469 -42 -63 -14 -116 -23 -117 -22 -2 1 -19 52 -39 112
-187 555 -461 825 -795 784z m145 -395 c65 -43 123 -122 190 -259 55 -112 135
-317 135 -346 0 -5 -8 -12 -17 -16 -206 -73 -486 -200 -705 -319 -90 -49 -166
-90 -169 -92 -9 -4 43 242 82 387 91 337 227 590 354 655 44 23 86 20 130 -10z
m415 -994 c0 -6 7 -56 15 -113 53 -351 62 -910 20 -1282 -8 -65 -37 -269 -40
-272 -3 -5 -202 76 -335 136 -247 113 -517 267 -770 438 -121 83 -319 233
-340 258 -23 28 409 332 743 522 131 74 382 197 517 252 69 29 134 56 145 61
27 12 45 12 45 0z m605 -922 c314 -321 443 -493 501 -666 31 -92 28 -141 -12
-183 -56 -59 -212 -86 -397 -69 -118 11 -316 47 -330 59 -4 5 1 70 12 147 30
206 49 424 57 656 6 185 9 206 23 198 9 -4 75 -68 146 -142z m-2224 -258 c155
-124 332 -248 502 -352 78 -48 151 -93 161 -101 18 -12 7 -18 -119 -66 -304
-115 -498 -156 -719 -149 -114 4 -152 9 -197 27 -67 25 -104 59 -113 101 -14
74 43 222 143 367 65 95 206 263 221 263 5 0 59 -41 121 -90z"/>
<path d="M3415 4031 c-231 -62 -346 -304 -246 -516 107 -227 394 -281 580
-109 197 182 141 496 -109 606 -49 22 -176 33 -225 19z"/>
</g>
</svg>
