<svg width="194" height="48" viewBox="0 0 194 48" fill="none" xmlns="http://www.w3.org/2000/svg">
<rect width="194" height="48" rx="4" fill="#0a1720"/>
<path d="M76.5 13.0002C76.5 13.2002 76.5 13.3002 76.5 13.5002C76.5 14.3002 76.3 15.0002 75.7 15.6002C75.1 16.2002 74.3 16.5002 73.4 16.5002C71.6 16.5002 70.2 15.1002 70.2 13.3002C70.2 13.3002 70.2 13.3002 70.2 13.2002C70.2 11.4002 71.5999 10.0002 73.2999 10.0002C73.2999 10.0002 73.3 10.0002 73.4 10.0002C73.8 10.0002 74.3 10.1002 74.7 10.2002C75.1 10.3002 75.4 10.6002 75.7 10.9002V11.0002L75 11.7002V11.6002C74.6 11.1002 74 10.9002 73.4 10.9002C72.2 10.9002 71.2 11.9002 71.2 13.1002C71.2 13.1002 71.2 13.1002 71.2 13.2002C71.2 14.4002 72.2 15.5002 73.4 15.5002C74 15.5002 74.6 15.3002 75 14.9002C75.3 14.6002 75.4 14.2002 75.5 13.8002H73.2999V12.9002L76.5 13.0002ZM77.5 16.3002H81.2V15.4002H78.4V13.7002H80.9V12.8002H78.4V11.1002H81.0999V10.1002H77.4L77.5 16.3002ZM81.7999 11.1002H83.5V16.4002H84.5V11.1002H86.2V10.1002H81.7999V11.1002ZM88.9 16.3002H89.9V10.1002H88.9V16.3002ZM90.5999 11.1002H92.2999V16.4002H93.2999V11.1002H94.9V10.1002H90.5999V11.1002ZM102.7 10.9002C103.3 11.5002 103.6 12.3002 103.6 13.2002C103.6 14.1002 103.3 14.9002 102.7 15.5002C101.4 16.8002 99.4 16.8002 98.2 15.5002C97.6 14.9002 97.2999 14.1002 97.2999 13.2002C97.2999 12.3002 97.6 11.5002 98.2 10.9002C98.8 10.3002 99.6 9.90018 100.5 10.0002C101.3 10.0002 102.1 10.3002 102.7 10.9002ZM102 14.9002C102.4 14.5002 102.6 13.9002 102.6 13.3002C102.6 12.7002 102.4 12.1002 102 11.7002C101.1 10.8002 99.8 10.8002 98.9 11.7002C98.5 12.1002 98.2 12.7002 98.2 13.3002C98.2 13.9002 98.4 14.5002 98.7999 14.9002C99.6999 15.7002 101.1 15.7002 102 14.9002ZM108.3 10.1002V13.7002V14.6002L105.5 10.1002H104.4V16.3002H105.4V12.5002V11.7002L108.3 16.3002H109.3V10.1002H108.3Z" fill="white"/>
<path d="M97.1001 25C94.7001 25 92.8001 26.9 92.9001 29.3C93.0001 31.7 94.8001 33.6 97.2001 33.5C99.6001 33.5 101.5 31.6 101.4 29.2C101.4 26.9 99.6001 25 97.3001 24.9C97.2001 25 97.2001 25 97.1001 25ZM97.1001 31.8C95.7001 31.9 94.4001 30.8 94.3001 29.4C94.2001 28 95.3001 26.7 96.7001 26.6C98.1001 26.5 99.4001 27.6 99.5001 29C99.5001 29.1 99.5001 29.1 99.5001 29.2C99.6001 30.6 98.6001 31.7 97.1001 31.8C97.2001 31.8 97.2001 31.8 97.1001 31.8ZM87.8001 25C85.4001 25 83.5001 26.9 83.6001 29.3C83.6001 31.7 85.5001 33.6 87.9001 33.5C90.3001 33.5 92.2001 31.6 92.1001 29.2C92.1001 26.9 90.3001 25 88.0001 24.9C87.9001 25 87.9001 25 87.8001 25ZM87.8001 31.8C86.4001 31.9 85.1001 30.8 85.0001 29.4C84.9001 28 86.0001 26.7 87.4001 26.6C88.8001 26.5 90.1001 27.6 90.2001 29C90.2001 29.1 90.2001 29.1 90.2001 29.2C90.3001 30.6 89.2001 31.7 87.8001 31.8C87.9001 31.8 87.8001 31.8 87.8001 31.8ZM76.7001 26.3V28.1H81.0001C80.9001 28.9 80.6001 29.7 80.0001 30.4C79.1001 31.3 77.9001 31.8 76.7001 31.7C74.0001 31.7 71.9001 29.6 71.9001 26.9C71.9001 24.2 74.0001 22.1 76.7001 22.1C77.9001 22.1 79.1001 22.5 80.0001 23.4L81.3001 22.1C80.1001 20.9 78.5001 20.3 76.8001 20.3C73.2001 20.2 70.1001 23 69.9001 26.6C69.8001 30.2 72.6001 33.3 76.2001 33.5C76.4001 33.5 76.5001 33.5 76.7001 33.5C78.4001 33.6 80.1001 32.9 81.3001 31.6C82.4001 30.4 82.9001 28.9 82.9001 27.4C82.9001 27 82.9001 26.6 82.8001 26.3H76.7001ZM122.1 27.7C121.6 26.1 120.1 25.1 118.5 25C116.3 25 114.5 26.8 114.5 29C114.5 29.1 114.5 29.2 114.5 29.3C114.5 31.6 116.4 33.5 118.7 33.6C120.1 33.6 121.5 32.9 122.3 31.7L120.9 30.7C120.5 31.4 119.7 31.9 118.8 31.9C117.9 31.9 117.1 31.4 116.7 30.6L122.4 28.2L122.1 27.7ZM116.3 29.1C116.2 27.8 117.2 26.7 118.5 26.6C118.5 26.6 118.5 26.6 118.6 26.6C119.3 26.6 119.9 26.9 120.2 27.5L116.3 29.1ZM111.6 33.2H113.5V20.7H111.6V33.2ZM108.6 25.9C108 25.3 107.1 24.9 106.3 24.9C104 25 102.1 27 102.3 29.4C102.4 31.6 104.2 33.3 106.3 33.4C107.2 33.4 108 33.1 108.5 32.4H108.6V33C108.6 34.6 107.7 35.5 106.3 35.5C105.3 35.5 104.5 34.9 104.1 34L102.5 34.7C103.1 36.2 104.6 37.2 106.3 37.2C108.5 37.2 110.3 35.9 110.3 32.8V25.2H108.6V25.9ZM106.4 31.8C105 31.7 103.9 30.5 104 29.1C104.1 27.8 105.1 26.8 106.4 26.7C107.7 26.8 108.7 27.9 108.7 29.2V29.3C108.8 30.6 107.8 31.8 106.5 31.9C106.5 31.8 106.5 31.8 106.4 31.8ZM130.8 20.7H126.3V33.2H128.2V28.5H130.8C132.9 28.7 134.8 27 135 24.9C135.2 22.8 133.5 20.9 131.4 20.7C131.2 20.7 131 20.7 130.8 20.7ZM130.8 26.7H128.2V22.4H130.9C132.1 22.4 133 23.4 133 24.5C133 25.8 132 26.8 130.8 26.7ZM142.4 24.9C141 24.8 139.7 25.6 139.1 26.8L140.8 27.5C141.1 26.9 141.8 26.5 142.5 26.6C143.5 26.5 144.4 27.2 144.5 28.2V28.3C143.9 28 143.2 27.8 142.6 27.8C140.8 27.8 139 28.8 139 30.6C139.1 32.2 140.4 33.4 142 33.4H142.1C143.1 33.5 144 33 144.5 32.2H144.6V33.2H146.4V28.4C146.2 26.2 144.5 25 142.4 24.9ZM142.1 31.8C141.5 31.8 140.6 31.5 140.6 30.7C140.6 29.7 141.7 29.4 142.6 29.4C143.2 29.4 143.8 29.5 144.3 29.8C144.2 30.9 143.3 31.8 142.1 31.8ZM152.7 25.2L150.6 30.6H150.5L148.3 25.2H146.3L149.6 32.8L147.7 37H149.6L154.7 25.2H152.7ZM135.9 33.2H137.8V20.7H135.9V33.2Z" fill="white"/>
<path d="M39.4 10.8C39.1 11.2 39 11.7 39 12.2V34.3C39 34.8 39.1 35.3001 39.5 35.7001L39.6 35.8L52 23.4V23.1L39.4 10.8Z" fill="url(#paint0_linear)"/>
<path d="M56 27.5001L51.9 23.4001V23.1001L56 19.0001H56.1L61 21.8001C62.4 22.6001 62.4 23.9001 61 24.7001L56.1 27.5001H56Z" fill="url(#paint1_linear)"/>
<path d="M56.1 27.5L51.9 23.3L39.4 35.7C40 36.2 40.9 36.2 41.5 35.8L56.1 27.5Z" fill="url(#paint2_linear)"/>
<path d="M56.1 19.0001L41.5 10.7001C40.9 10.2001 40 10.3001 39.4 10.8001L51.9 23.3001L56.1 19.0001Z" fill="url(#paint3_linear)"/>
<path opacity="0.2" d="M56 27.4L41.5 35.6C40.9 36 40.1 36 39.5 35.6L39.4 35.7L39.5 35.8C40.1 36.2 40.9 36.2 41.5 35.8L56.1 27.5L56 27.4Z" fill="black"/>
<path opacity="0.12" d="M39.4 35.6001C39.1 35.2001 39 34.7001 39 34.1001V34.2001C39 34.7001 39.1 35.2001 39.5 35.6001H39.4Z" fill="black"/>
<path opacity="0.12" d="M61 24.5001L56 27.3001L56.1 27.4001L61 24.6001C61.6 24.4001 62 23.8001 62.1 23.2001C61.9 23.8001 61.5 24.3001 61 24.5001Z" fill="black"/>
<path opacity="0.25" d="M41.5 10.9001L61 21.9001C61.5 22.1001 61.9 22.6001 62.1 23.2001C62 22.6001 61.6 22.0001 61 21.8001L41.5 10.7001C40.1 9.90007 39 10.6001 39 12.2001V12.3001C39 10.7001 40.1 10.1001 41.5 10.9001Z" fill="white"/>
<defs>
<linearGradient id="paint0_linear" x1="50.8157" y1="11.9517" x2="34.0357" y2="28.7316" gradientUnits="userSpaceOnUse">
<stop stop-color="#00A0FF"/>
<stop offset="0.01" stop-color="#00A1FF"/>
<stop offset="0.26" stop-color="#00BEFF"/>
<stop offset="0.51" stop-color="#00D2FF"/>
<stop offset="0.76" stop-color="#00DFFF"/>
<stop offset="1" stop-color="#00E3FF"/>
</linearGradient>
<linearGradient id="paint1_linear" x1="62.8357" y1="23.2317" x2="38.6457" y2="23.2317" gradientUnits="userSpaceOnUse">
<stop stop-color="#FFE000"/>
<stop offset="0.41" stop-color="#FFBD00"/>
<stop offset="0.78" stop-color="#FFA500"/>
<stop offset="1" stop-color="#FF9C00"/>
</linearGradient>
<linearGradient id="paint2_linear" x1="53.8332" y1="25.5291" x2="31.0732" y2="48.2791" gradientUnits="userSpaceOnUse">
<stop stop-color="#FF3A44"/>
<stop offset="1" stop-color="#C31162"/>
</linearGradient>
<linearGradient id="paint3_linear" x1="36.3057" y1="3.41166" x2="46.4657" y2="13.5718" gradientUnits="userSpaceOnUse">
<stop stop-color="#32A071"/>
<stop offset="0.07" stop-color="#2DA771"/>
<stop offset="0.48" stop-color="#15CF74"/>
<stop offset="0.8" stop-color="#06E775"/>
<stop offset="1" stop-color="#00F076"/>
</linearGradient>
</defs>
</svg>
