<?xml version="1.0" encoding="utf-8"?>
<!-- Generator: Adobe Illustrator 22.1.0, SVG Export Plug-In . SVG Version: 6.00 Build 0)  -->
<svg version="1.1" id="Bottom" opacity="0.3" xmlns="http://www.w3.org/2000/svg" xmlns:xlink="http://www.w3.org/1999/xlink"
	 x="0px" y="0px" viewBox="0 0 400 75" style="enable-background:new 0 0 400 75;" xml:space="preserve">
<style type="text/css">
	.st0{fill:#98B0CD;}
</style>
<path class="st0" d="M343.7,70.7c-1.6,0-3.4-0.1-5.2-0.3c-0.9-0.1-1.8-0.3-2.7-0.4c-0.4-0.1-0.7-0.4-0.7-0.9l-0.2-5.6
	c0-0.2,0.1-0.5,0.3-0.7c1.2-1.2,2.6-2.4,4.1-3.4l-0.8-0.6c-0.4,0.2-0.7,0.5-1.1,0.7c-3.3,2-5.6,3.4-7,4c-0.1,0-0.3,0-0.4,0
	c-0.2,0-0.3,0-0.5-0.1l-4.3-2.5c-0.2-0.1-0.4-0.3-0.4-0.6s0-0.5,0.2-0.7c1.3-1.7,2.5-3.5,3.4-5.2c0.4-0.7,0.7-1.3,0.9-1.9
	c-2,1.3-4,2.8-5.9,4.3c-1,2.6-1.8,5-2.6,7.4c-0.1,0.3-0.3,0.5-0.5,0.6c-0.1,0-0.2,0.1-0.4,0.1c-0.1,0-0.3,0-0.4-0.1l-4.1-2.1
	c0,0,0,0-0.1,0c-0.7,0.5-1.4,0.9-2.3,1.4c-1.2,0.8-2.5,1.4-3.5,1.9c-0.1,0.1-0.3,0.1-0.4,0.1c-0.2,0-0.5-0.1-0.6-0.3l-2-2
	c-1.7,1.4-3.7,2.6-5.8,3.5c-0.1,0-0.2,0.1-0.3,0.1c-0.2,0-0.4-0.1-0.6-0.2l-4.3-3.4c-0.2-0.2-0.3-0.4-0.3-0.7c0-1.8,0.3-3.8,0.8-5.7
	c0.6-1.8,1.4-3.7,2.6-5.2c1.1-1.6,2.6-3.1,4.2-4.2c1.6-1.2,3.7-2,5.8-2.5c0.1,0,0.1,0,0.2,0c0.3,0,0.6,0.1,0.7,0.4l1.5,2
	c0.3-0.4,0.6-0.8,1-1.4c0.2-0.2,0.4-0.4,0.7-0.4c0.2,0,0.4,0.1,0.5,0.2l3.4,2.5c0.4,0.3,0.5,0.8,0.2,1.2c-1.7,2.6-3.3,5.1-4.6,7.9
	c0.7-0.4,1.4-0.8,2.3-1.2c1.1-0.7,2-1.2,2.7-1.6c0.4-0.9,0.8-1.8,1.2-2.8c1.5-3.2,3.1-5.9,4.7-8.2c0.2-0.2,0.4-0.4,0.7-0.4
	c0.2,0,0.3,0,0.5,0.1l3.5,2c0.2,0.1,0.4,0.3,0.4,0.6c0,0.1,0,0.1,0,0.2c1.1-0.8,2.3-1.6,3.4-2.5c0.2-0.1,0.3-0.1,0.5-0.1
	s0.3,0,0.5,0.1l4.2,2.8c0.3,0.2,0.5,0.6,0.4,0.9c-0.5,2.4-1.3,4.7-2.5,6.9c1.2-0.6,2.5-1.4,3.9-2.3v-0.1c0.6-1.8,1.5-3.6,2.7-5.2
	c1.2-1.5,2.7-3,4.3-4.1c1.7-1.1,3.7-1.9,5.8-2.5c0.1,0,0.1,0,0.2,0c0.3,0,0.6,0.2,0.8,0.4l1.1,1.8c0.4-0.6,0.8-1.2,1.2-1.7
	c0.2-0.2,0.4-0.4,0.7-0.4c0.2,0,0.4,0.1,0.5,0.2l3.4,2.5c0.4,0.3,0.5,0.8,0.2,1.2c-1.3,1.8-2.8,4.3-4.2,7.2
	c-0.1,0.1-0.1,0.2-0.2,0.3c2.4-1,4.2-2,5.4-2.9c0.2-0.1,0.3-0.2,0.5-0.2c0.1,0,0.2,0,0.3,0.1c0.3,0.1,0.5,0.4,0.5,0.6l0.7,3.4
	c0.1,0.3,0,0.7-0.3,0.9c-1.9,1.6-4,3.2-6.2,4.6c-0.8,0.5-1.5,0.9-2.1,1.2c-0.1,0.1-0.3,0.1-0.4,0.1c-0.2,0-0.5-0.1-0.6-0.3l-0.3-0.3
	c-0.9,3.5-2,6.3-3.6,8.5c-0.6,0.8-1.2,1.7-1.9,2.6c-0.2,0.2-0.4,0.3-0.6,0.3C346,70.6,344.8,70.7,343.7,70.7z M341.5,64.7
	c0.5,0,1,0,1.4,0s0.8,0,1.2,0c0.8-0.8,1.5-2,2.1-3.5C344.4,62.3,342.9,63.5,341.5,64.7z M307.8,51.8c-1.5,0.6-2.8,1.6-3.9,3.1
	c-1,1.4-1.7,3.1-1.9,4.8c1.7-1,3.4-2.6,4.9-4.6C307.2,54.1,307.6,53,307.8,51.8z M350.6,47.2c-1.5,0.6-2.8,1.5-3.9,3
	c-1.1,1.4-1.7,3-1.9,4.8c0.6-0.3,1.1-0.6,1.5-0.9c1.2-0.9,2.3-1.9,3.2-3.3C349.9,49.7,350.3,48.5,350.6,47.2z M284.4,74.9
	c0.2,0,0.5-0.2,0.6-0.4c4.1-5.7,7.6-11.6,10.3-17.3c0.1-0.2,0.1-0.5,0-0.7s-0.3-0.4-0.5-0.5l-5.2-2c-0.1,0-0.2-0.1-0.3-0.1
	c-0.4,0-0.7,0.2-0.8,0.6c-0.6,1.5-1.2,3-1.7,4.1c-1.7,0.7-3.8,1.4-6,2c0.4-1.2,0.8-2.4,1.4-3.5c2.1-4.2,5.2-7.9,9.3-10.9
	c-0.1,0.3-0.3,0.6-0.4,0.9c-0.1,0.2-0.1,0.5,0,0.7s0.3,0.4,0.5,0.5l4.8,2c0.1,0,0.2,0.1,0.4,0.1c0.3,0,0.6-0.2,0.8-0.5
	c1.3-2.5,2.3-4.7,2.9-6.7c0.1-0.4-0.1-0.8-0.4-1L293,38c-0.4-0.1-0.5-0.1-0.7-0.1c-0.1,0-0.3,0-0.4,0.1c-5.1,2.8-9.6,6.7-13.3,11.7
	c-3.6,4.7-5.9,9.7-7.2,14.7c-0.1,0.3,0,0.7,0.3,0.9l4.1,3.3c0.2,0.1,0.4,0.2,0.6,0.2c0.1,0,0.1,0,0.2,0c1.6-0.4,3.3-0.9,4.9-1.5
	c-0.6,0.9-1.3,1.9-2.1,3.1c-0.3,0.4-0.2,0.9,0.2,1.2l4.2,3.3c0.2,0.1,0.4,0.2,0.6,0.2C284.3,74.9,284.4,74.9,284.4,74.9z
	 M261.6,14.5c-4,0.5-5.3,0.7-9.3,1.3c0-3.9,0-5.8,0-9.7c0-0.9-0.1-1.5-0.2-1.7c-0.1-0.2-0.5-0.4-1-0.3c-0.7,0-1.7,0-2.4,0
	c-0.5,0-0.8,0.2-1,0.4c-0.2,0.3-0.2,0.9-0.2,1.8c0,10.4-0.1,20.9-0.1,31.4c0,0.9,0.1,1.5,0.2,1.7c0.1,0.2,0.5,0.2,1,0
	c0.7-0.2,1.6-0.4,2.4-0.6c0.5-0.2,0.8-0.4,1-0.7c0.1-0.3,0.2-0.9,0.2-1.8c0-3.8,0-5.7,0-9.5c4-1,5.3-1.4,9.3-2.3c0,3.8,0,5.6,0,9.4
	c0,3.3-1,5.3-3.2,6c-6,2-12.1,4.5-17.8,7.2c-2,0.9-3.1-0.6-3.1-4.7c0-12.2,0-24.2,0-36.3c0-4.1,1-6.1,3.1-6.1c7.2,0,10.7,0,18,0
	c2,0,3.1,1.6,3.1,4.9C261.6,8.8,261.6,10.6,261.6,14.5z M275.6,22.3c0,5,0,7.5-0.1,12.5c-4,1-6,1.5-10,2.8
	c0.1-12.5,0.1-25.1,0.2-37.6c7.2,0,14.3,0,21.6,0c2,0,3.1,1.3,3.1,4c0,4.9,0,7.4-0.1,12.3c0,2.7-1,4.1-3.2,4.4
	c-0.6,0.1-0.8,0.1-1.4,0.2c2.1,4.4,3.3,6.5,5.5,10.7c-4.2,0.6-6.3,1-10.5,1.9C278.5,29.2,277.6,26.9,275.6,22.3
	C275.7,22.3,275.7,22.3,275.6,22.3z M279.2,3.3c-1.3,0-2,0-3.4,0.1c0,6.2-0.1,9.4-0.1,15.8c1.3-0.2,2-0.3,3.5-0.4
	c0.5-0.1,0.8-0.2,1-0.4c0.2-0.2,0.2-0.7,0.2-1.4c0-4.7,0-7.2,0.1-11.9c0-0.7-0.1-1.2-0.2-1.3C280,3.3,279.7,3.2,279.2,3.3z
	 M312,29.6c-4,0.2-6,0.3-10,0.7c0-4,0-6,0-10.1c-3.3-6.7-6.4-13.4-9.6-20.2c3.9,0,5.8,0,9.7,0c1.9,5.7,2.9,8.5,4.8,14.1
	c1.8-5.7,2.8-8.5,4.6-14.1c3.9,0,5.8,0,9.7,0c-3.1,6.5-6.1,13.1-9.2,19.6C312,23.6,312,25.6,312,29.6z M373.2,0c0,1.4,0,2.1,0,3.6
	c-2.7-0.1-4.1-0.1-6.8-0.2c0.1,10.8,0.1,21.8,0.2,32.6c-4-1.1-6-1.6-10-2.5c-0.1-10.1-0.1-20.3-0.2-30.4c-2.7-0.1-4-0.1-6.7-0.1
	c0-1.2,0-1.8,0-3.1C357.5,0,365.3,0,373.2,0z M323.7,0c7.2,0,13.7,0,20.9,0c2,0,3.1,1.3,3.2,4.1c0,5.4,0,8.1,0.1,13.4
	c0,2.7-1,4-3.1,3.7c-4.6-0.5-6.3-0.6-10.9-0.9c0,3.9,0,5.9,0,9.8c-4-0.3-6-0.4-10-0.6C323.7,19.7,323.7,9.8,323.7,0z M338.4,16.2
	c0-4.7,0-7.1,0-11.8c0-0.6-0.1-1.1-0.2-1.2c-0.2-0.2-0.5-0.3-1-0.3c-1.3,0-2,0-3.5,0c0,5.8,0,8.8,0,14.6c1.3,0.1,2,0.1,3.5,0.2
	c0.5,0,0.8,0,1-0.2C338.3,17.2,338.4,16.8,338.4,16.2z M400,6.1c0,12.1,0,24.1,0,36.2c0,4.1-1,5.6-3.1,4.7c-5.9-2.8-12-5.2-18.2-7.3
	c-2-0.7-3.1-2.7-3.2-5.9c0-9.6-0.1-19.3-0.1-29c0-3.3,1-4.9,3.1-4.9c6.1,0,12.2,0,18.3,0C399,0,400,2,400,6.1z M390.2,37.8
	c0-10.4-0.1-20.9-0.1-31.4c0-0.9-0.1-1.5-0.2-1.8c-0.2-0.3-0.5-0.4-1-0.4c-0.8,0-1.7,0-2.6-0.1c-0.5,0-0.8,0.1-1,0.3
	c-0.1,0.2-0.2,0.8-0.2,1.7c0,10,0.1,20.1,0.1,30.1c0,0.9,0.1,1.5,0.2,1.8s0.5,0.5,1,0.7c0.8,0.3,1.6,0.4,2.6,0.7
	c0.5,0.2,0.8,0.2,1,0C390.1,39.3,390.2,38.7,390.2,37.8z"/>
<g>
	<g>
		<path class="st0" d="M7.4,27.1H0v20.6h7.4c5.4,0,11.5-3.1,11.5-10.3C18.9,29.8,12.8,27.1,7.4,27.1z M6.8,44.5H3.7V30.4h3.1
			c3.8,0,8.1,1.3,8.1,7.2C14.9,43,10.6,44.5,6.8,44.5z M26.2,38.7h9.6v-3h-9.6v-5.3h10.1v-3.2H22.5v20.6h14.3v-3.3H26.2V38.7z
			 M47.5,35.7c-2.4-0.7-4-1.3-4-3.2c0-2,2-2.8,3.7-2.8c1.5,0,3,0.8,3.8,1.8l2.4-2.6c-1.6-1.5-4-2.2-6.1-2.2c-3.8,0-7.6,1.9-7.6,6
			c0,3.8,2.7,5.1,5.3,5.8c2.6,0.8,4.8,1.4,4.8,3.6s-2,3.1-3.8,3.1c-1.6,0-3.5-0.9-4.6-2.3l-2.6,2.4c1.6,1.9,4.4,2.9,7.1,2.9
			c4.1,0,7.6-2.2,7.6-6.6C53.6,37.7,50.2,36.5,47.5,35.7z M57.3,47.8H61V27.1h-3.7V47.8z M75.8,39h4.4v5.2c-1.2,0.5-2.6,0.7-4.1,0.7
			c-4.6,0-7.4-3.2-7.4-7.6c0-4.2,2.9-7.5,7.2-7.5c2.2,0,4.3,0.9,5.3,2.1l2.6-2.7c-1.7-1.6-4.6-2.6-7.9-2.6
			c-6.4,0-11.3,4.2-11.3,10.8c0,6.4,4.7,10.9,11.4,10.9c3.3,0,5.8-0.6,7.8-1.6V36h-8V39z M103,42.5L103,42.5l-9.8-15.4h-4.9v20.6H92
			V31.8h0.1l9.9,15.9h4.7V27.1H103V42.5z M115,38.7h9.6v-3H115v-5.3h10v-3.2h-13.8v20.6h14.3v-3.3H115V38.7z M136.6,27.1h-7.4v20.6
			h7.4c5.4,0,11.5-3.1,11.5-10.3C148.1,29.8,142,27.1,136.6,27.1z M136,44.5h-3.1V30.4h3.1c3.8,0,8.1,1.3,8.1,7.2
			C144.1,43,139.8,44.5,136,44.5z M169.9,37L169.9,37c2.1-0.7,3.6-2.2,3.6-4.6c0-3.8-3.2-5.2-6.4-5.2H159v20.6h7.5
			c3.9,0,7.9-1.5,7.9-6C174.4,39,172.5,37.3,169.9,37z M162.7,30.1h3c2.8,0,4.1,0.7,4.1,2.6c0,1.8-1.3,2.8-3.8,2.8h-3.3V30.1z
			 M166,44.7h-3.3v-6h3.5c3,0,4.5,0.8,4.5,2.9C170.7,44.3,167.9,44.7,166,44.7z M190.3,27.1l-5.3,8.7l-5.2-8.7h-4.5l7.8,11.7v8.9
			h3.7v-8.9l7.8-11.7C194.6,27.1,190.3,27.1,190.3,27.1z"/>
	</g>
</g>
</svg>
