<?xml version="1.0" encoding="utf-8"?>
<!-- Generator: Adobe Illustrator 21.0.2, SVG Export Plug-In . SVG Version: 6.00 Build 0)  -->
<svg version="1.1" id="linkedin" xmlns="http://www.w3.org/2000/svg" xmlns:xlink="http://www.w3.org/1999/xlink" x="0px" y="0px"
	 viewBox="0 0 42.9 43" style="enable-background:new 0 0 42.9 43;" xml:space="preserve">
<path fill="#fff" d="M10,13.8H1.4c-0.4,0-0.7,0.3-0.7,0.7v27.7c0,0.4,0.3,0.7,0.7,0.7H10c0.4,0,0.7-0.3,0.7-0.7V14.5
	C10.7,14.1,10.4,13.8,10,13.8z M5.7,0C2.6,0,0,2.6,0,5.7s2.6,5.7,5.7,5.7s5.7-2.6,5.7-5.7S8.9,0,5.7,0z M31.9,13.1
	c-3.5,0-6,1.5-7.6,3.2v-1.8c0-0.4-0.3-0.7-0.7-0.7h-8.3c-0.4,0-0.7,0.3-0.7,0.7v27.7c0,0.4,0.3,0.7,0.7,0.7h8.6
	c0.4,0,0.7-0.3,0.7-0.7V28.5c0-4.6,1.3-6.4,4.5-6.4c3.5,0,3.8,2.9,3.8,6.7v13.5c0,0.4,0.3,0.7,0.7,0.7h8.6c0.4,0,0.7-0.3,0.7-0.7V27
	C43,20.2,41.7,13.1,31.9,13.1z"/>
</svg>
