<?xml version="1.0" encoding="utf-8"?>
<!-- Generator: Adobe Illustrator 21.0.2, SVG Export Plug-In . SVG Version: 6.00 Build 0)  -->
<svg version="1.1" id="Layer_1" xmlns="http://www.w3.org/2000/svg" xmlns:xlink="http://www.w3.org/1999/xlink" x="0px" y="0px"
	 viewBox="0 0 60.2 43" style="enable-background:new 0 0 60.2 43;" xml:space="preserve">
<title>icon-discord</title>
<g id="Layer_2_1_">
	<g id="Layer_1-2">
		<path fill="#fff" d="M52.7,5.4C48.6,2.1,43.5,0.3,38.2,0l-0.7,0.8c8.8,2.6,12.8,6.5,12.8,6.5c-4.7-2.6-10-4.2-15.4-4.9C31.5,2,28,2.1,24.6,2.5
			c-0.3,0-0.6,0-0.9,0.1c-4.1,0.5-8,1.6-11.8,3.3c-1.9,0.8-3,1.4-3,1.4s4.2-4.1,13.5-6.7L21.9,0c0,0-7-0.2-14.5,5.4
			C2.7,14.6,0.2,24.8,0,35.1c0,0,4.3,7.4,15.7,7.8c0,0,1.9-2.3,3.5-4.2c-6.6-2-9-6-9-6s0.5,0.4,1.4,0.9c0.1,0,0.1,0,0.2,0.1
			s0.3,0.2,0.5,0.3c1.2,0.7,2.5,1.3,3.8,1.8c2.4,1,5,1.7,7.6,2.2c4.4,0.8,8.9,0.8,13.3,0c2.6-0.5,5.1-1.2,7.5-2.2
			c2.1-0.8,4.1-1.8,5.9-3c0,0-2.6,4.2-9.3,6.1c1.6,1.9,3.4,4.1,3.4,4.1c11.4-0.4,15.7-7.8,15.7-7.7C60,24.9,57.4,14.6,52.7,5.4z
			 M20.5,30.4c-3-0.1-5.4-2.7-5.3-5.7c-0.1-3,2.2-5.5,5.2-5.7l0,0c3,0.1,5.4,2.6,5.3,5.6v0.1C25.9,27.7,23.6,30.3,20.5,30.4
			C20.6,30.4,20.5,30.4,20.5,30.4L20.5,30.4z M39.3,30.4c-3-0.1-5.4-2.7-5.3-5.7c-0.1-3,2.2-5.5,5.2-5.7l0,0c3,0.1,5.4,2.7,5.3,5.7
			C44.7,27.7,42.4,30.3,39.3,30.4C39.4,30.4,39.4,30.4,39.3,30.4L39.3,30.4z"/>
	</g>
</g>
</svg>
