<?xml version="1.0" encoding="utf-8"?>
<!-- Generator: Adobe Illustrator 21.0.2, SVG Export Plug-In . SVG Version: 6.00 Build 0)  -->
<svg version="1.1" id="Layer_1" xmlns="http://www.w3.org/2000/svg" xmlns:xlink="http://www.w3.org/1999/xlink" x="0px" y="0px"
	 viewBox="0 0 52 43" style="enable-background:new 0 0 52 43;" xml:space="preserve">
<path fill="#fff" d="M3.2,18.7L34.2,6c3.1-1.3,13.4-5.6,13.4-5.6S52.4-1.5,52,3c-0.1,1.9-1.2,8.4-2.3,15.4l-3.3,20.9c0,0-0.3,3.1-2.5,3.6
	s-6-1.9-6.6-2.4c-0.5-0.4-10-6.4-13.4-9.3c-0.9-0.8-2-2.4,0.1-4.3c4.8-4.4,10.5-9.8,14-13.3c1.6-1.6,3.2-5.3-3.5-0.8L15.7,25.5
	c0,0-2.1,1.3-6.1,0.1c-4-1.2-8.6-2.8-8.6-2.8S-2.3,20.9,3.2,18.7L3.2,18.7z"/>
</svg>
