<?xml version="1.0" encoding="utf-8"?>
<!-- Generator: Adobe Illustrator 24.1.2, SVG Export Plug-In . SVG Version: 6.00 Build 0)  -->
<svg version="1.1" id="Layer_1" xmlns="http://www.w3.org/2000/svg" xmlns:xlink="http://www.w3.org/1999/xlink" x="0px" y="0px"
	 viewBox="0 0 58.5 47.5" style="enable-background:new 0 0 58.5 47.5;" xml:space="preserve">
<style type="text/css">
	.st0{fill:none;stroke:#0B181E;stroke-width:1.5;stroke-miterlimit:10;}
</style>
<g id="Layer_2_1_">
	<g id="Info">
		<g id="developers">
			<path class="st0" d="M42.4,24.9c0.2-1,0.2-2.1,0.3-3.2c0-11.6-9.4-21-21-21c-11.6,0-21,9.4-21,21s9.4,21,21,21
				c3.3,0,6.5-0.8,9.5-2.2"/>
			<path class="st0" d="M28.9,15c-0.1-3.9-3.5-7-7.4-6.9c-3.7,0.1-6.7,3.1-6.9,6.9v5.5c0.1,3.9,3.5,7,7.4,6.9
				c3.7-0.1,6.7-3.1,6.9-6.9V15z"/>
			<path class="st0" d="M31.1,32.5c-3.7-5.2-10.9-6.4-16.1-2.7c-3.1,2.2-4.9,5.7-4.9,9.4"/>
			<rect x="31.1" y="24.9" class="st0" width="26.6" height="21.9"/>
		</g>
	</g>
</g>
<ellipse class="st0" cx="44.4" cy="33" rx="6.9" ry="2.8"/>
<path class="st0" d="M50.4,34.4c0.6,0.4,0.9,0.9,0.9,1.4c0,1.5-3.1,2.8-6.9,2.8s-6.9-1.3-6.9-2.8c0-0.5,0.3-1,0.9-1.4"/>
<path class="st0" d="M50.4,37.2c0.6,0.4,0.9,0.9,0.9,1.4c0,1.5-3.1,2.8-6.9,2.8s-6.9-1.3-6.9-2.8c0-0.5,0.3-1,0.9-1.4"/>
</svg>
