<?xml version="1.0" encoding="utf-8"?>
<!-- Generator: Adobe Illustrator 21.0.2, SVG Export Plug-In . SVG Version: 6.00 Build 0)  -->
<svg version="1.1" id="twitter" xmlns="http://www.w3.org/2000/svg" xmlns:xlink="http://www.w3.org/1999/xlink" x="0px" y="0px"
	 viewBox="0 0 52.9 43" style="enable-background:new 0 0 52.9 43;" xml:space="preserve">
<path fill="#fff" d="M52.9,5.1c-1.9,0.9-4,1.4-6.2,1.7c2.2-1.3,4-3.5,4.8-6C49.4,2,47,2.9,44.6,3.4c-2-2.1-4.8-3.4-7.9-3.4
	c-6,0-10.9,4.9-10.9,10.9c0,0.9,0.1,1.7,0.3,2.5C17,12.9,9,8.6,3.7,2C2.8,3.6,2.2,5.5,2.2,7.4c0,3.8,1.9,7.1,4.8,9
	c-1.8-0.1-3.5-0.5-4.9-1.4v0.1c0,5.3,3.7,9.6,8.7,10.6C9.9,26.1,9,26.3,8,26.3c-0.7,0-1.4-0.1-2-0.2c1.4,4.3,5.4,7.5,10.1,7.5
	c-3.7,2.9-8.4,4.6-13.5,4.6c-0.9,0-1.7-0.1-2.6-0.1C4.8,41.2,10.5,43,16.6,43c20,0,30.9-16.5,30.9-30.9v-1.4
	C49.6,9.2,51.5,7.3,52.9,5.1z"/>
</svg>
