<?xml version="1.0" encoding="utf-8"?>
<!-- Generator: Adobe Illustrator 24.0.1, SVG Export Plug-In . SVG Version: 6.00 Build 0)  -->
<svg version="1.1" id="Layer_1" xmlns="http://www.w3.org/2000/svg" xmlns:xlink="http://www.w3.org/1999/xlink" x="0px" y="0px"
	 viewBox="0 0 291 101.8" style="enable-background:new 0 0 291 101.8;" xml:space="preserve">
<style type="text/css">
	.st0{fill:#FFA729;}
</style>
<title>qrl-logo</title>
<g>
	<path class="st0" d="M69.4,70.8c6.1,0,9-2.3,10.2-4.6c2.4-4.2,0.7-9.8-5.2-16.5c-3.3-3.7-8.2-8.6-11.6-11c-0.2-2.1-0.5-4.1-0.9-6.1
		c1-0.2,1.9-0.4,2.8-0.6c5.6-1,8.8-0.2,9.5,1.1c0.5,0.8,0.1,2.6-1,4.8C72.7,38.9,72,40,71.2,41c1.7,1.6,3.3,3.2,4.3,4.3
		c1.3-1.4,2.4-3,3.2-4.7c2.2-4.2,2.5-7.8,0.9-10.5c-1.6-2.8-5.7-5.8-15.9-4c-1,0.2-2.1,0.4-3.1,0.7c-2.5-8.7-6.7-14.8-12.4-14.8
		c-3.3,0-8.1,2.2-11.7,12.4c0,0.1-0.9,2.8-1.6,5.8c-0.7,3.1-1.3,6.4-1.9,9.9c-1.8,1.3-3.6,2.7-5.2,4C23,39,21,34.8,22,33
		c0.6-1.1,2.5-1.9,5.5-1.5c1.1,0.2,2.2,0.4,3.3,0.6c0.4-2.3,1-4.5,1.4-5.9c-1.3-0.3-2.6-0.6-3.9-0.7c-5.1-0.7-9.6,1-11.6,4.5
		c-2.9,5,0.3,11.7,6.6,18.2c-0.8,0.8-1.5,1.6-2.2,2.4c-6.6,7.9-6.1,13-4.5,15.8c1.8,3.1,5.5,4.7,10.5,4.7c4-0.1,7.9-0.8,11.6-2.2
		c2.1-0.7,7.1-2.7,9.3-3.7c2.2,1,4.4,1.9,6.6,2.7c-1.9,6.7-4.5,10.5-6.6,10.5c-1.6,0-3.6-2.4-5.1-6.2c-0.1-0.2-0.2-0.5-0.3-0.8
		c-2.1,0.8-4.2,1.5-5.8,1.9c0.1,0.4,0.3,0.8,0.4,1.1c3.3,8.3,7.7,10,10.7,10c5.8,0,10-6.2,12.5-14.9c1.1,0.3,2.1,0.5,3.2,0.7
		C65.6,70.6,67.5,70.8,69.4,70.8z M40.8,31.4c0.6-2.7,1.4-5.2,1.4-5.2c2-5.7,4.4-8.2,5.9-8.2c2,0,4.7,3.9,6.6,10.5
		c-4.6,1.6-9.4,3.8-14.1,6.6c-0.2,0.1-0.4,0.2-0.6,0.3C40.3,34,40.5,32.7,40.8,31.4z M36.8,63C28.3,66,23,64.9,22,63.2
		c-0.7-1.2,0.2-4.4,3.8-8.8c0.6-0.7,1.2-1.4,1.9-2.1c3.8,3.2,8.2,6.3,12.8,9c0.1,0.1,0.2,0.1,0.3,0.2C39.3,62.1,37.7,62.7,36.8,63z
		 M43.6,56c-4.4-2.6-8.2-5.3-11.3-7.9c3.3-2.8,7.1-5.4,11.4-7.9c4.2-2.4,8.4-4.4,12.4-5.9c0.7,4,1.1,8.7,1.1,13.8
		c0,5.1-0.4,9.7-1.1,13.7C52,60.4,47.8,58.4,43.6,56z M63.3,47c2.1,2,4.5,4.4,6.5,6.7c4.4,5.1,5.2,8.2,4.5,9.5c-0.7,1.3-4,2-9.6,1.1
		c-0.9-0.2-1.8-0.4-2.8-0.6c0.9-4.9,1.3-10.2,1.3-15.6C63.3,47.7,63.3,47.4,63.3,47z"/>
	<circle class="st0" cx="48.1" cy="48.1" r="6"/>
	<path class="st0" d="M88.8,73.8C103,51.4,96.3,21.7,73.8,7.5C51.4-6.7,21.7-0.1,7.5,22.4C-6.7,44.8-0.1,74.6,22.4,88.8v6.9
		L6.1,95.8V84.7h-6v11.1c0,3.3,2.7,6,6,6l22.4,0V88.6c0-2-1.1-3.9-2.8-5c-5.3-3.3-9.7-7.8-13-13C0.3,51,6.1,25.1,25.7,12.7
		s45.5-6.6,57.9,13s6.6,45.5-13,57.9c-1.7,1.1-2.8,3-2.8,5v13.2h22.4c3.3,0,6-2.7,6-6V84.7h-6.1v11l-16.3,0.1v-7
		C79.9,85,85,79.9,88.8,73.8z"/>
	<path class="st0" d="M182.1,33.5c-9.1-14.1-27.9-18.1-42-9c-14.1,9.1-18.1,27.9-9,42c9.1,14.1,27.9,18.1,42,9l6.6,6.7l5.4-4.9
		l-6.5-6.5C188.3,60.7,189.7,45.3,182.1,33.5z M173.3,65.5l-12.1-12.1l-5.4,4.8L167.6,70h0c-3.4,1.9-7.3,2.9-11.2,2.9
		c-12.5-0.1-22.6-10.3-22.6-22.9c0-12.5,10.1-22.6,22.6-22.6s22.6,10.1,22.6,22.6C179.2,55.7,177.1,61.2,173.3,65.5z"/>
	<path class="st0" d="M238.7,38.7c-0.1-10-8.3-18.1-18.3-18h-23.5v58.7h7.8V56.9h13.8l13.2,22.5h8.6l-13.8-23.5
		C233.9,53.3,238.8,46.4,238.7,38.7z M204.8,49.9V28h15.7c5.9,0.1,10.6,5,10.5,10.9c0.1,5.9-4.6,10.8-10.5,11H204.8z"/>
	<path class="st0" d="M291,72V61h-7.8v11h-26.6V20.7h-7.8v58.7h34.8C287.7,79.4,291,76.1,291,72C291,72,291,72,291,72z"/>
</g>
</svg>
